ISO-10303-21;
HEADER;
FILE_DESCRIPTION(('STEP AP214'),
    '1');
FILE_NAME('Глаз левый',
    '',
    ('UNSPECIFIED'),
    ('UNSPECIFIED'),
    'C3D Converter',
    'C3D Toolkit',
    '');
FILE_SCHEMA(('AUTOMOTIVE_DESIGN { 1 0 10303 214 3 1 1}'));
ENDSEC;

DATA;
#1=SHAPE_REPRESENTATION('NONE',(#2),#6);
#2=AXIS2_PLACEMENT_3D('',#3,#4,#5);
#3=CARTESIAN_POINT('',(0.,0.,0.));
#4=DIRECTION('',(0.,0.,1.));
#5=DIRECTION('',(1.,0.,0.));
#6=(GEOMETRIC_REPRESENTATION_CONTEXT(3)GLOBAL_UNCERTAINTY_ASSIGNED_CONTEXT((#8))
GLOBAL_UNIT_ASSIGNED_CONTEXT((#7,#9,#10))REPRESENTATION_CONTEXT('NONE','NONE'));
#7=(LENGTH_UNIT()NAMED_UNIT(*)SI_UNIT(.MILLI.,.METRE.));
#8=UNCERTAINTY_MEASURE_WITH_UNIT(LENGTH_MEASURE(1.E-5),#7,'NONE','NONE');
#9=(NAMED_UNIT(*)PLANE_ANGLE_UNIT()SI_UNIT($,.RADIAN.));
#10=(NAMED_UNIT(*)SI_UNIT($,.STERADIAN.)SOLID_ANGLE_UNIT());
#11=SHAPE_DEFINITION_REPRESENTATION(#12,#1);
#12=PRODUCT_DEFINITION_SHAPE('NONE','NONE',#13);
#13=PRODUCT_DEFINITION('','UNSPECIFIED',#14,#17);
#14=PRODUCT_DEFINITION_FORMATION_WITH_SPECIFIED_SOURCE('ANY','UNSPECIFIED',#15,.NOT_KNOWN.);
#15=PRODUCT('-1','\X2\0413043B04300437\X0\ \X2\043B04350432044B0439\X0\','NONE',
(#20));
#16=PRODUCT_RELATED_PRODUCT_CATEGORY('detail','',(#15));
#17=DESIGN_CONTEXT('detailed design',#18,'design');
#18=APPLICATION_CONTEXT('configuration controlled 3d designs of mechanical parts and assemblies');
#19=APPLICATION_PROTOCOL_DEFINITION('international standard','config_control_design',
1994,#18);
#20=MECHANICAL_CONTEXT('NONE',#18,'mechanical');
#21=CC_DESIGN_DATE_AND_TIME_ASSIGNMENT(#22,#26,(#13));
#22=DATE_AND_TIME(#23,#24);
#23=CALENDAR_DATE(0,1,1);
#24=LOCAL_TIME(0,0,0.,#25);
#25=COORDINATED_UNIVERSAL_TIME_OFFSET(0,0,.AHEAD.);
#26=DATE_TIME_ROLE('creation_date');
#27=CC_DESIGN_APPROVAL(#28,(#13));
#28=APPROVAL(#29,'UNSPECIFIED');
#29=APPROVAL_STATUS('not_yet_approved');
#30=APPROVAL_DATE_TIME(#31,#28);
#31=DATE_AND_TIME(#32,#33);
#32=CALENDAR_DATE(0,1,1);
#33=LOCAL_TIME(0,0,0.,#34);
#34=COORDINATED_UNIVERSAL_TIME_OFFSET(0,0,.AHEAD.);
#35=MANIFOLD_SOLID_BREP('',#36);
#36=CLOSED_SHELL('',(#48,#57,#66,#75,#84,#93,#102,#111,#120,#129,#138,#147,#156,
#165,#174,#183,#192,#201,#210,#219,#228,#237,#246,#255,#264,#273,#282,#291,#300,
#309,#318,#327,#336,#345,#354,#363));
#37=COLOUR_RGB('',1.,1.,1.);
#38=FILL_AREA_STYLE_COLOUR('',#37);
#39=FILL_AREA_STYLE($,(#38));
#40=SURFACE_STYLE_FILL_AREA(#39);
#41=SURFACE_SIDE_STYLE('',(#40));
#42=SURFACE_STYLE_USAGE(.BOTH.,#41);
#43=PRESENTATION_STYLE_ASSIGNMENT((#42));
#44=MECHANICAL_DESIGN_GEOMETRIC_PRESENTATION_REPRESENTATION('NONE',(#45,#56,#65,
#74,#83,#92,#101,#110,#119,#128,#137,#146,#155,#164,#173,#182,#191,#200,#209,#218,
#227,#236,#245,#254,#263,#272,#281,#290,#299,#308,#317,#326,#335,#344,#353,#362,
#371),#6);
#45=STYLED_ITEM('',(#43),#35);
#46=ADVANCED_BREP_SHAPE_REPRESENTATION('NONE',(#35),#6);
#47=SHAPE_REPRESENTATION_RELATIONSHIP('','',#1,#46);
#48=ADVANCED_FACE('',(#372,#374),#376,.F.);
#49=COLOUR_RGB('',1.,1.,1.);
#50=FILL_AREA_STYLE_COLOUR('',#49);
#51=FILL_AREA_STYLE($,(#50));
#52=SURFACE_STYLE_FILL_AREA(#51);
#53=SURFACE_SIDE_STYLE('',(#52));
#54=SURFACE_STYLE_USAGE(.BOTH.,#53);
#55=PRESENTATION_STYLE_ASSIGNMENT((#54));
#56=STYLED_ITEM('',(#55),#48);
#57=ADVANCED_FACE('',(#381,#383),#385,.F.);
#58=COLOUR_RGB('',1.,1.,1.);
#59=FILL_AREA_STYLE_COLOUR('',#58);
#60=FILL_AREA_STYLE($,(#59));
#61=SURFACE_STYLE_FILL_AREA(#60);
#62=SURFACE_SIDE_STYLE('',(#61));
#63=SURFACE_STYLE_USAGE(.BOTH.,#62);
#64=PRESENTATION_STYLE_ASSIGNMENT((#63));
#65=STYLED_ITEM('',(#64),#57);
#66=ADVANCED_FACE('',(#390,#392),#394,.F.);
#67=COLOUR_RGB('',1.,1.,1.);
#68=FILL_AREA_STYLE_COLOUR('',#67);
#69=FILL_AREA_STYLE($,(#68));
#70=SURFACE_STYLE_FILL_AREA(#69);
#71=SURFACE_SIDE_STYLE('',(#70));
#72=SURFACE_STYLE_USAGE(.BOTH.,#71);
#73=PRESENTATION_STYLE_ASSIGNMENT((#72));
#74=STYLED_ITEM('',(#73),#66);
#75=ADVANCED_FACE('',(#399),#401,.T.);
#76=COLOUR_RGB('',1.,1.,1.);
#77=FILL_AREA_STYLE_COLOUR('',#76);
#78=FILL_AREA_STYLE($,(#77));
#79=SURFACE_STYLE_FILL_AREA(#78);
#80=SURFACE_SIDE_STYLE('',(#79));
#81=SURFACE_STYLE_USAGE(.BOTH.,#80);
#82=PRESENTATION_STYLE_ASSIGNMENT((#81));
#83=STYLED_ITEM('',(#82),#75);
#84=ADVANCED_FACE('',(#406,#408),#410,.F.);
#85=COLOUR_RGB('',1.,1.,1.);
#86=FILL_AREA_STYLE_COLOUR('',#85);
#87=FILL_AREA_STYLE($,(#86));
#88=SURFACE_STYLE_FILL_AREA(#87);
#89=SURFACE_SIDE_STYLE('',(#88));
#90=SURFACE_STYLE_USAGE(.BOTH.,#89);
#91=PRESENTATION_STYLE_ASSIGNMENT((#90));
#92=STYLED_ITEM('',(#91),#84);
#93=ADVANCED_FACE('',(#415),#417,.T.);
#94=COLOUR_RGB('',1.,1.,1.);
#95=FILL_AREA_STYLE_COLOUR('',#94);
#96=FILL_AREA_STYLE($,(#95));
#97=SURFACE_STYLE_FILL_AREA(#96);
#98=SURFACE_SIDE_STYLE('',(#97));
#99=SURFACE_STYLE_USAGE(.BOTH.,#98);
#100=PRESENTATION_STYLE_ASSIGNMENT((#99));
#101=STYLED_ITEM('',(#100),#93);
#102=ADVANCED_FACE('',(#422,#424),#426,.T.);
#103=COLOUR_RGB('',1.,1.,1.);
#104=FILL_AREA_STYLE_COLOUR('',#103);
#105=FILL_AREA_STYLE($,(#104));
#106=SURFACE_STYLE_FILL_AREA(#105);
#107=SURFACE_SIDE_STYLE('',(#106));
#108=SURFACE_STYLE_USAGE(.BOTH.,#107);
#109=PRESENTATION_STYLE_ASSIGNMENT((#108));
#110=STYLED_ITEM('',(#109),#102);
#111=ADVANCED_FACE('',(#431),#433,.T.);
#112=COLOUR_RGB('',1.,1.,1.);
#113=FILL_AREA_STYLE_COLOUR('',#112);
#114=FILL_AREA_STYLE($,(#113));
#115=SURFACE_STYLE_FILL_AREA(#114);
#116=SURFACE_SIDE_STYLE('',(#115));
#117=SURFACE_STYLE_USAGE(.BOTH.,#116);
#118=PRESENTATION_STYLE_ASSIGNMENT((#117));
#119=STYLED_ITEM('',(#118),#111);
#120=ADVANCED_FACE('',(#438),#440,.T.);
#121=COLOUR_RGB('',1.,1.,1.);
#122=FILL_AREA_STYLE_COLOUR('',#121);
#123=FILL_AREA_STYLE($,(#122));
#124=SURFACE_STYLE_FILL_AREA(#123);
#125=SURFACE_SIDE_STYLE('',(#124));
#126=SURFACE_STYLE_USAGE(.BOTH.,#125);
#127=PRESENTATION_STYLE_ASSIGNMENT((#126));
#128=STYLED_ITEM('',(#127),#120);
#129=ADVANCED_FACE('',(#445),#447,.T.);
#130=COLOUR_RGB('',1.,1.,1.);
#131=FILL_AREA_STYLE_COLOUR('',#130);
#132=FILL_AREA_STYLE($,(#131));
#133=SURFACE_STYLE_FILL_AREA(#132);
#134=SURFACE_SIDE_STYLE('',(#133));
#135=SURFACE_STYLE_USAGE(.BOTH.,#134);
#136=PRESENTATION_STYLE_ASSIGNMENT((#135));
#137=STYLED_ITEM('',(#136),#129);
#138=ADVANCED_FACE('',(#452),#454,.T.);
#139=COLOUR_RGB('',1.,1.,1.);
#140=FILL_AREA_STYLE_COLOUR('',#139);
#141=FILL_AREA_STYLE($,(#140));
#142=SURFACE_STYLE_FILL_AREA(#141);
#143=SURFACE_SIDE_STYLE('',(#142));
#144=SURFACE_STYLE_USAGE(.BOTH.,#143);
#145=PRESENTATION_STYLE_ASSIGNMENT((#144));
#146=STYLED_ITEM('',(#145),#138);
#147=ADVANCED_FACE('',(#459,#461),#463,.T.);
#148=COLOUR_RGB('',1.,1.,1.);
#149=FILL_AREA_STYLE_COLOUR('',#148);
#150=FILL_AREA_STYLE($,(#149));
#151=SURFACE_STYLE_FILL_AREA(#150);
#152=SURFACE_SIDE_STYLE('',(#151));
#153=SURFACE_STYLE_USAGE(.BOTH.,#152);
#154=PRESENTATION_STYLE_ASSIGNMENT((#153));
#155=STYLED_ITEM('',(#154),#147);
#156=ADVANCED_FACE('',(#468),#470,.T.);
#157=COLOUR_RGB('',1.,1.,1.);
#158=FILL_AREA_STYLE_COLOUR('',#157);
#159=FILL_AREA_STYLE($,(#158));
#160=SURFACE_STYLE_FILL_AREA(#159);
#161=SURFACE_SIDE_STYLE('',(#160));
#162=SURFACE_STYLE_USAGE(.BOTH.,#161);
#163=PRESENTATION_STYLE_ASSIGNMENT((#162));
#164=STYLED_ITEM('',(#163),#156);
#165=ADVANCED_FACE('',(#475),#477,.T.);
#166=COLOUR_RGB('',1.,1.,1.);
#167=FILL_AREA_STYLE_COLOUR('',#166);
#168=FILL_AREA_STYLE($,(#167));
#169=SURFACE_STYLE_FILL_AREA(#168);
#170=SURFACE_SIDE_STYLE('',(#169));
#171=SURFACE_STYLE_USAGE(.BOTH.,#170);
#172=PRESENTATION_STYLE_ASSIGNMENT((#171));
#173=STYLED_ITEM('',(#172),#165);
#174=ADVANCED_FACE('',(#482),#484,.T.);
#175=COLOUR_RGB('',1.,1.,1.);
#176=FILL_AREA_STYLE_COLOUR('',#175);
#177=FILL_AREA_STYLE($,(#176));
#178=SURFACE_STYLE_FILL_AREA(#177);
#179=SURFACE_SIDE_STYLE('',(#178));
#180=SURFACE_STYLE_USAGE(.BOTH.,#179);
#181=PRESENTATION_STYLE_ASSIGNMENT((#180));
#182=STYLED_ITEM('',(#181),#174);
#183=ADVANCED_FACE('',(#489,#491),#493,.T.);
#184=COLOUR_RGB('',1.,1.,1.);
#185=FILL_AREA_STYLE_COLOUR('',#184);
#186=FILL_AREA_STYLE($,(#185));
#187=SURFACE_STYLE_FILL_AREA(#186);
#188=SURFACE_SIDE_STYLE('',(#187));
#189=SURFACE_STYLE_USAGE(.BOTH.,#188);
#190=PRESENTATION_STYLE_ASSIGNMENT((#189));
#191=STYLED_ITEM('',(#190),#183);
#192=ADVANCED_FACE('',(#498,#500),#502,.T.);
#193=COLOUR_RGB('',1.,1.,1.);
#194=FILL_AREA_STYLE_COLOUR('',#193);
#195=FILL_AREA_STYLE($,(#194));
#196=SURFACE_STYLE_FILL_AREA(#195);
#197=SURFACE_SIDE_STYLE('',(#196));
#198=SURFACE_STYLE_USAGE(.BOTH.,#197);
#199=PRESENTATION_STYLE_ASSIGNMENT((#198));
#200=STYLED_ITEM('',(#199),#192);
#201=ADVANCED_FACE('',(#507,#509),#511,.T.);
#202=COLOUR_RGB('',1.,1.,1.);
#203=FILL_AREA_STYLE_COLOUR('',#202);
#204=FILL_AREA_STYLE($,(#203));
#205=SURFACE_STYLE_FILL_AREA(#204);
#206=SURFACE_SIDE_STYLE('',(#205));
#207=SURFACE_STYLE_USAGE(.BOTH.,#206);
#208=PRESENTATION_STYLE_ASSIGNMENT((#207));
#209=STYLED_ITEM('',(#208),#201);
#210=ADVANCED_FACE('',(#516,#518),#520,.F.);
#211=COLOUR_RGB('',1.,1.,1.);
#212=FILL_AREA_STYLE_COLOUR('',#211);
#213=FILL_AREA_STYLE($,(#212));
#214=SURFACE_STYLE_FILL_AREA(#213);
#215=SURFACE_SIDE_STYLE('',(#214));
#216=SURFACE_STYLE_USAGE(.BOTH.,#215);
#217=PRESENTATION_STYLE_ASSIGNMENT((#216));
#218=STYLED_ITEM('',(#217),#210);
#219=ADVANCED_FACE('',(#525,#527,#529,#531,#533,#535,#537,#539,#541,#543),#545,.F.);
#220=COLOUR_RGB('',1.,1.,1.);
#221=FILL_AREA_STYLE_COLOUR('',#220);
#222=FILL_AREA_STYLE($,(#221));
#223=SURFACE_STYLE_FILL_AREA(#222);
#224=SURFACE_SIDE_STYLE('',(#223));
#225=SURFACE_STYLE_USAGE(.BOTH.,#224);
#226=PRESENTATION_STYLE_ASSIGNMENT((#225));
#227=STYLED_ITEM('',(#226),#219);
#228=ADVANCED_FACE('',(#550,#552),#554,.F.);
#229=COLOUR_RGB('',1.,1.,1.);
#230=FILL_AREA_STYLE_COLOUR('',#229);
#231=FILL_AREA_STYLE($,(#230));
#232=SURFACE_STYLE_FILL_AREA(#231);
#233=SURFACE_SIDE_STYLE('',(#232));
#234=SURFACE_STYLE_USAGE(.BOTH.,#233);
#235=PRESENTATION_STYLE_ASSIGNMENT((#234));
#236=STYLED_ITEM('',(#235),#228);
#237=ADVANCED_FACE('',(#559,#561),#563,.F.);
#238=COLOUR_RGB('',1.,1.,1.);
#239=FILL_AREA_STYLE_COLOUR('',#238);
#240=FILL_AREA_STYLE($,(#239));
#241=SURFACE_STYLE_FILL_AREA(#240);
#242=SURFACE_SIDE_STYLE('',(#241));
#243=SURFACE_STYLE_USAGE(.BOTH.,#242);
#244=PRESENTATION_STYLE_ASSIGNMENT((#243));
#245=STYLED_ITEM('',(#244),#237);
#246=ADVANCED_FACE('',(#568,#570),#572,.T.);
#247=COLOUR_RGB('',1.,1.,1.);
#248=FILL_AREA_STYLE_COLOUR('',#247);
#249=FILL_AREA_STYLE($,(#248));
#250=SURFACE_STYLE_FILL_AREA(#249);
#251=SURFACE_SIDE_STYLE('',(#250));
#252=SURFACE_STYLE_USAGE(.BOTH.,#251);
#253=PRESENTATION_STYLE_ASSIGNMENT((#252));
#254=STYLED_ITEM('',(#253),#246);
#255=ADVANCED_FACE('',(#577),#579,.T.);
#256=COLOUR_RGB('',1.,1.,1.);
#257=FILL_AREA_STYLE_COLOUR('',#256);
#258=FILL_AREA_STYLE($,(#257));
#259=SURFACE_STYLE_FILL_AREA(#258);
#260=SURFACE_SIDE_STYLE('',(#259));
#261=SURFACE_STYLE_USAGE(.BOTH.,#260);
#262=PRESENTATION_STYLE_ASSIGNMENT((#261));
#263=STYLED_ITEM('',(#262),#255);
#264=ADVANCED_FACE('',(#584),#586,.T.);
#265=COLOUR_RGB('',1.,1.,1.);
#266=FILL_AREA_STYLE_COLOUR('',#265);
#267=FILL_AREA_STYLE($,(#266));
#268=SURFACE_STYLE_FILL_AREA(#267);
#269=SURFACE_SIDE_STYLE('',(#268));
#270=SURFACE_STYLE_USAGE(.BOTH.,#269);
#271=PRESENTATION_STYLE_ASSIGNMENT((#270));
#272=STYLED_ITEM('',(#271),#264);
#273=ADVANCED_FACE('',(#591),#593,.T.);
#274=COLOUR_RGB('',1.,1.,1.);
#275=FILL_AREA_STYLE_COLOUR('',#274);
#276=FILL_AREA_STYLE($,(#275));
#277=SURFACE_STYLE_FILL_AREA(#276);
#278=SURFACE_SIDE_STYLE('',(#277));
#279=SURFACE_STYLE_USAGE(.BOTH.,#278);
#280=PRESENTATION_STYLE_ASSIGNMENT((#279));
#281=STYLED_ITEM('',(#280),#273);
#282=ADVANCED_FACE('',(#598,#600),#602,.F.);
#283=COLOUR_RGB('',1.,1.,1.);
#284=FILL_AREA_STYLE_COLOUR('',#283);
#285=FILL_AREA_STYLE($,(#284));
#286=SURFACE_STYLE_FILL_AREA(#285);
#287=SURFACE_SIDE_STYLE('',(#286));
#288=SURFACE_STYLE_USAGE(.BOTH.,#287);
#289=PRESENTATION_STYLE_ASSIGNMENT((#288));
#290=STYLED_ITEM('',(#289),#282);
#291=ADVANCED_FACE('',(#607,#609),#611,.F.);
#292=COLOUR_RGB('',1.,1.,1.);
#293=FILL_AREA_STYLE_COLOUR('',#292);
#294=FILL_AREA_STYLE($,(#293));
#295=SURFACE_STYLE_FILL_AREA(#294);
#296=SURFACE_SIDE_STYLE('',(#295));
#297=SURFACE_STYLE_USAGE(.BOTH.,#296);
#298=PRESENTATION_STYLE_ASSIGNMENT((#297));
#299=STYLED_ITEM('',(#298),#291);
#300=ADVANCED_FACE('',(#616,#618),#620,.F.);
#301=COLOUR_RGB('',1.,1.,1.);
#302=FILL_AREA_STYLE_COLOUR('',#301);
#303=FILL_AREA_STYLE($,(#302));
#304=SURFACE_STYLE_FILL_AREA(#303);
#305=SURFACE_SIDE_STYLE('',(#304));
#306=SURFACE_STYLE_USAGE(.BOTH.,#305);
#307=PRESENTATION_STYLE_ASSIGNMENT((#306));
#308=STYLED_ITEM('',(#307),#300);
#309=ADVANCED_FACE('',(#625),#627,.F.);
#310=COLOUR_RGB('',1.,1.,1.);
#311=FILL_AREA_STYLE_COLOUR('',#310);
#312=FILL_AREA_STYLE($,(#311));
#313=SURFACE_STYLE_FILL_AREA(#312);
#314=SURFACE_SIDE_STYLE('',(#313));
#315=SURFACE_STYLE_USAGE(.BOTH.,#314);
#316=PRESENTATION_STYLE_ASSIGNMENT((#315));
#317=STYLED_ITEM('',(#316),#309);
#318=ADVANCED_FACE('',(#632),#634,.F.);
#319=COLOUR_RGB('',1.,1.,1.);
#320=FILL_AREA_STYLE_COLOUR('',#319);
#321=FILL_AREA_STYLE($,(#320));
#322=SURFACE_STYLE_FILL_AREA(#321);
#323=SURFACE_SIDE_STYLE('',(#322));
#324=SURFACE_STYLE_USAGE(.BOTH.,#323);
#325=PRESENTATION_STYLE_ASSIGNMENT((#324));
#326=STYLED_ITEM('',(#325),#318);
#327=ADVANCED_FACE('',(#639),#641,.F.);
#328=COLOUR_RGB('',1.,1.,1.);
#329=FILL_AREA_STYLE_COLOUR('',#328);
#330=FILL_AREA_STYLE($,(#329));
#331=SURFACE_STYLE_FILL_AREA(#330);
#332=SURFACE_SIDE_STYLE('',(#331));
#333=SURFACE_STYLE_USAGE(.BOTH.,#332);
#334=PRESENTATION_STYLE_ASSIGNMENT((#333));
#335=STYLED_ITEM('',(#334),#327);
#336=ADVANCED_FACE('',(#646),#648,.F.);
#337=COLOUR_RGB('',1.,1.,1.);
#338=FILL_AREA_STYLE_COLOUR('',#337);
#339=FILL_AREA_STYLE($,(#338));
#340=SURFACE_STYLE_FILL_AREA(#339);
#341=SURFACE_SIDE_STYLE('',(#340));
#342=SURFACE_STYLE_USAGE(.BOTH.,#341);
#343=PRESENTATION_STYLE_ASSIGNMENT((#342));
#344=STYLED_ITEM('',(#343),#336);
#345=ADVANCED_FACE('',(#653),#655,.F.);
#346=COLOUR_RGB('',1.,1.,1.);
#347=FILL_AREA_STYLE_COLOUR('',#346);
#348=FILL_AREA_STYLE($,(#347));
#349=SURFACE_STYLE_FILL_AREA(#348);
#350=SURFACE_SIDE_STYLE('',(#349));
#351=SURFACE_STYLE_USAGE(.BOTH.,#350);
#352=PRESENTATION_STYLE_ASSIGNMENT((#351));
#353=STYLED_ITEM('',(#352),#345);
#354=ADVANCED_FACE('',(#660),#662,.F.);
#355=COLOUR_RGB('',1.,1.,1.);
#356=FILL_AREA_STYLE_COLOUR('',#355);
#357=FILL_AREA_STYLE($,(#356));
#358=SURFACE_STYLE_FILL_AREA(#357);
#359=SURFACE_SIDE_STYLE('',(#358));
#360=SURFACE_STYLE_USAGE(.BOTH.,#359);
#361=PRESENTATION_STYLE_ASSIGNMENT((#360));
#362=STYLED_ITEM('',(#361),#354);
#363=ADVANCED_FACE('',(#667),#669,.F.);
#364=COLOUR_RGB('',1.,1.,1.);
#365=FILL_AREA_STYLE_COLOUR('',#364);
#366=FILL_AREA_STYLE($,(#365));
#367=SURFACE_STYLE_FILL_AREA(#366);
#368=SURFACE_SIDE_STYLE('',(#367));
#369=SURFACE_STYLE_USAGE(.BOTH.,#368);
#370=PRESENTATION_STYLE_ASSIGNMENT((#369));
#371=STYLED_ITEM('',(#370),#363);
#372=FACE_OUTER_BOUND('',#373,.T.);
#373=EDGE_LOOP('',(#674));
#374=FACE_OUTER_BOUND('',#375,.T.);
#375=EDGE_LOOP('',(#675));
#376=CYLINDRICAL_SURFACE('',#377,0.675);
#377=AXIS2_PLACEMENT_3D('',#378,#379,#380);
#378=CARTESIAN_POINT('',(13.7870503466331,6.13055198271051E-16,11.0119511796852));
#379=DIRECTION('',(-1.83697019872103E-16,6.12323399573677E-17,1.));
#380=DIRECTION('',(-1.,1.22464679914735E-16,-1.83697019872103E-16));
#381=FACE_OUTER_BOUND('',#382,.T.);
#382=EDGE_LOOP('',(#676));
#383=FACE_OUTER_BOUND('',#384,.T.);
#384=EDGE_LOOP('',(#677));
#385=CYLINDRICAL_SURFACE('',#386,0.675);
#386=AXIS2_PLACEMENT_3D('',#387,#388,#389);
#387=CARTESIAN_POINT('',(-10.8414344995133,-9.62662604777648,11.0119511796852));
#388=DIRECTION('',(-1.83697019872103E-16,6.12323399573677E-17,1.));
#389=DIRECTION('',(-1.,1.22464679914735E-16,-1.83697019872103E-16));
#390=FACE_OUTER_BOUND('',#391,.T.);
#391=EDGE_LOOP('',(#678));
#392=FACE_OUTER_BOUND('',#393,.T.);
#393=EDGE_LOOP('',(#679));
#394=CYLINDRICAL_SURFACE('',#395,0.675);
#395=AXIS2_PLACEMENT_3D('',#396,#397,#398);
#396=CARTESIAN_POINT('',(-10.8414344995133,9.62662604777649,11.0119511796852));
#397=DIRECTION('',(-1.83697019872103E-16,6.12323399573677E-17,1.));
#398=DIRECTION('',(-1.,1.22464679914735E-16,-1.83697019872103E-16));
#399=FACE_BOUND('',#400,.T.);
#400=EDGE_LOOP('',(#680,#681,#682,#683));
#401=PLANE('',#402);
#402=AXIS2_PLACEMENT_3D('',#403,#404,#405);
#403=CARTESIAN_POINT('',(14.6866043207609,-4.9551643287996,11.0119511796852));
#404=DIRECTION('',(-0.349858853358771,-0.936802424594688,-6.46216473774943E-18));
#405=DIRECTION('',(-0.936802424594688,0.349858853358771,-2.03427468411792E-16));
#406=FACE_BOUND('',#407,.T.);
#407=EDGE_LOOP('',(#684,#685,#686,#687,#688,#689,#690,#691,#692,#693,#694,#695));
#408=FACE_BOUND('',#409,.T.);
#409=EDGE_LOOP('',(#696,#697));
#410=CYLINDRICAL_SURFACE('',#411,15.5);
#411=AXIS2_PLACEMENT_3D('',#412,#413,#414);
#412=CARTESIAN_POINT('',(-1.83916559481315E-15,6.13055198388988E-16,11.0119511796852));
#413=DIRECTION('',(-1.83697019872103E-16,6.12323399573677E-17,1.));
#414=DIRECTION('',(-0.94648057787999,0.322760771618797,-1.93629058816044E-16));
#415=FACE_BOUND('',#416,.T.);
#416=EDGE_LOOP('',(#698,#699,#700,#701));
#417=PLANE('',#418);
#418=AXIS2_PLACEMENT_3D('',#419,#420,#421);
#419=CARTESIAN_POINT('',(6.55595223846992,1.92230317028588,11.0119511796852));
#420=DIRECTION('',(-0.34947059857798,0.936947330819373,-1.13764718165119E-16));
#421=DIRECTION('',(0.936947330819373,0.34947059857798,2.04699353640857E-16));
#422=FACE_BOUND('',#423,.T.);
#423=EDGE_LOOP('',(#702,#703,#704,#705,#706,#707,#708,#709,#710,#711,#712,#713));
#424=FACE_OUTER_BOUND('',#425,.T.);
#425=EDGE_LOOP('',(#714));
#426=CYLINDRICAL_SURFACE('',#427,7.);
#427=AXIS2_PLACEMENT_3D('',#428,#429,#430);
#428=CARTESIAN_POINT('',(-0.202286749789845,0.0985143180429225,11.0119511796852));
#429=DIRECTION('',(1.83697019872103E-16,-6.12323399573677E-17,-1.));
#430=DIRECTION('',(-0.882322379640246,-0.470645533693856,-1.33261264387816E-16));
#431=FACE_BOUND('',#432,.T.);
#432=EDGE_LOOP('',(#715,#716,#717,#718));
#433=PLANE('',#434);
#434=AXIS2_PLACEMENT_3D('',#435,#436,#437);
#435=CARTESIAN_POINT('',(-14.6809035160334,-4.97202895736934,11.0119511796852));
#436=DIRECTION('',(-0.209185313579032,0.977876016979066,-9.19941947832527E-17));
#437=DIRECTION('',(0.977876016979066,0.209185313579032,2.09224452817104E-16));
#438=FACE_BOUND('',#439,.T.);
#439=EDGE_LOOP('',(#719,#720,#721,#722));
#440=PLANE('',#441);
#441=AXIS2_PLACEMENT_3D('',#442,#443,#444);
#442=CARTESIAN_POINT('',(-3.96021369374243,-5.80724431941553,11.0119511796852));
#443=DIRECTION('',(0.950002667185582,-0.312241785064525,1.94811934522018E-16));
#444=DIRECTION('',(-0.312241785064525,-0.950002667185582,-2.05989263298563E-16));
#445=FACE_BOUND('',#446,.T.);
#446=EDGE_LOOP('',(#723,#724,#725,#726));
#447=PLANE('',#448);
#448=AXIS2_PLACEMENT_3D('',#449,#450,#451);
#449=CARTESIAN_POINT('',(-6.49565229880715,3.16340421271158,11.0119511796852));
#450=DIRECTION('',(-0.219518840210636,-0.975608260928831,3.21436815819118E-17));
#451=DIRECTION('',(-0.975608260928831,0.219518840210636,-2.11996515547553E-16));
#452=FACE_BOUND('',#453,.T.);
#453=EDGE_LOOP('',(#727,#728,#729,#730));
#454=PLANE('',#455);
#455=AXIS2_PLACEMENT_3D('',#456,#457,#458);
#456=CARTESIAN_POINT('',(-6.68477205989787,13.9844135560705,11.0119511796852));
#457=DIRECTION('',(0.948603867878447,0.316465956851679,1.449361431894E-16));
#458=DIRECTION('',(0.316465956851679,-0.948603867878447,2.10288209178351E-16));
#459=FACE_BOUND('',#460,.T.);
#460=EDGE_LOOP('',(#731,#732));
#461=FACE_BOUND('',#462,.T.);
#462=EDGE_LOOP('',(#733,#734,#735,#736,#737,#738,#739));
#463=DEGENERATE_TOROIDAL_SURFACE('',#464,8.39012887629718,21.6181348640271,.T.);
#464=AXIS2_PLACEMENT_3D('',#465,#466,#467);
#465=CARTESIAN_POINT('',(-2.13265520795688E-15,7.1088506931896E-16,11.6096342196608));
#466=DIRECTION('',(-1.83697019872103E-16,6.12323399573677E-17,1.));
#467=DIRECTION('',(-1.12481983699639E-32,-1.,6.12323399573677E-17));
#468=FACE_BOUND('',#469,.T.);
#469=EDGE_LOOP('',(#740,#741,#742,#743,#744));
#470=CYLINDRICAL_SURFACE('',#471,30.);
#471=AXIS2_PLACEMENT_3D('',#472,#473,#474);
#472=CARTESIAN_POINT('',(-2.02286261468524E-15,6.74287538281557E-16,11.0119511796851));
#473=DIRECTION('',(1.83697019872103E-16,-6.12323399573677E-17,-1.));
#474=DIRECTION('',(-0.661320666180897,0.750103310539324,-1.67413216471356E-16));
#475=FACE_BOUND('',#476,.T.);
#476=EDGE_LOOP('',(#745,#746,#747,#748));
#477=CYLINDRICAL_SURFACE('',#478,30.);
#478=AXIS2_PLACEMENT_3D('',#479,#480,#481);
#479=CARTESIAN_POINT('',(-2.02286261468524E-15,6.74287538281557E-16,11.0119511796851));
#480=DIRECTION('',(1.83697019872103E-16,-6.12323399573677E-17,-1.));
#481=DIRECTION('',(-0.895087452510245,-0.445890628247242,-1.37121971018405E-16));
#482=FACE_BOUND('',#483,.T.);
#483=EDGE_LOOP('',(#749,#750,#751,#752));
#484=CYLINDRICAL_SURFACE('',#485,30.);
#485=AXIS2_PLACEMENT_3D('',#486,#487,#488);
#486=CARTESIAN_POINT('',(-2.02286261468524E-15,6.74287538281557E-16,11.0119511796851));
#487=DIRECTION('',(1.83697019872103E-16,-6.12323399573677E-17,-1.));
#488=DIRECTION('',(-0.976945213284432,0.213490164271416,-1.92534426574888E-16));
#489=FACE_BOUND('',#490,.T.);
#490=EDGE_LOOP('',(#753,#754,#755,#756));
#491=FACE_BOUND('',#492,.T.);
#492=EDGE_LOOP('',(#757));
#493=PLANE('',#494);
#494=AXIS2_PLACEMENT_3D('',#495,#496,#497);
#495=CARTESIAN_POINT('',(-2.02286261468524E-15,6.74287538228415E-16,11.0119511796851));
#496=DIRECTION('',(1.83697019872103E-16,-6.12323399573677E-17,-1.));
#497=DIRECTION('',(-6.12323399573677E-17,1.,-6.12323399573677E-17));
#498=FACE_BOUND('',#499,.T.);
#499=EDGE_LOOP('',(#758,#759,#760,#761));
#500=FACE_BOUND('',#501,.T.);
#501=EDGE_LOOP('',(#762));
#502=PLANE('',#503);
#503=AXIS2_PLACEMENT_3D('',#504,#505,#506);
#504=CARTESIAN_POINT('',(-2.02286261468524E-15,6.74287538228415E-16,11.0119511796851));
#505=DIRECTION('',(1.83697019872103E-16,-6.12323399573677E-17,-1.));
#506=DIRECTION('',(-6.12323399573677E-17,1.,-6.12323399573677E-17));
#507=FACE_BOUND('',#508,.T.);
#508=EDGE_LOOP('',(#763,#764,#765,#766));
#509=FACE_BOUND('',#510,.T.);
#510=EDGE_LOOP('',(#767));
#511=PLANE('',#512);
#512=AXIS2_PLACEMENT_3D('',#513,#514,#515);
#513=CARTESIAN_POINT('',(-2.02286261468524E-15,6.74287538228415E-16,11.0119511796851));
#514=DIRECTION('',(1.83697019872103E-16,-6.12323399573677E-17,-1.));
#515=DIRECTION('',(-6.12323399573677E-17,1.,-6.12323399573677E-17));
#516=FACE_BOUND('',#517,.T.);
#517=EDGE_LOOP('',(#768,#769,#770,#771));
#518=FACE_BOUND('',#519,.T.);
#519=EDGE_LOOP('',(#772));
#520=PLANE('',#521);
#521=AXIS2_PLACEMENT_3D('',#522,#523,#524);
#522=CARTESIAN_POINT('',(-8.26636589424463E-16,2.75545529808154E-16,-5.4880488203149));
#523=DIRECTION('',(-1.83697019872103E-16,6.12323399573677E-17,1.));
#524=DIRECTION('',(-1.,1.22464679914735E-16,-1.83697019872103E-16));
#525=FACE_BOUND('',#526,.T.);
#526=EDGE_LOOP('',(#773,#774,#775,#776,#777,#778,#779,#780,#781,#782,#783,#784));
#527=FACE_BOUND('',#528,.T.);
#528=EDGE_LOOP('',(#785,#786,#787,#788));
#529=FACE_BOUND('',#530,.T.);
#530=EDGE_LOOP('',(#789,#790,#791,#792));
#531=FACE_BOUND('',#532,.T.);
#532=EDGE_LOOP('',(#793,#794,#795,#796));
#533=FACE_BOUND('',#534,.T.);
#534=EDGE_LOOP('',(#797));
#535=FACE_BOUND('',#536,.T.);
#536=EDGE_LOOP('',(#798));
#537=FACE_BOUND('',#538,.T.);
#538=EDGE_LOOP('',(#799));
#539=FACE_BOUND('',#540,.T.);
#540=EDGE_LOOP('',(#800));
#541=FACE_BOUND('',#542,.T.);
#542=EDGE_LOOP('',(#801));
#543=FACE_BOUND('',#544,.T.);
#544=EDGE_LOOP('',(#802));
#545=PLANE('',#546);
#546=AXIS2_PLACEMENT_3D('',#547,#548,#549);
#547=CARTESIAN_POINT('',(-2.57395367430155E-15,8.57984558100518E-16,14.0119511796851));
#548=DIRECTION('',(1.83697019872103E-16,-6.12323399573677E-17,-1.));
#549=DIRECTION('',(-6.12323399573677E-17,1.,-6.12323399573677E-17));
#550=FACE_BOUND('',#551,.T.);
#551=EDGE_LOOP('',(#803,#804,#805,#806));
#552=FACE_BOUND('',#553,.T.);
#553=EDGE_LOOP('',(#807));
#554=PLANE('',#555);
#555=AXIS2_PLACEMENT_3D('',#556,#557,#558);
#556=CARTESIAN_POINT('',(-8.26636589424463E-16,2.75545529808154E-16,-5.4880488203149));
#557=DIRECTION('',(-1.83697019872103E-16,6.12323399573677E-17,1.));
#558=DIRECTION('',(-1.,1.22464679914735E-16,-1.83697019872103E-16));
#559=FACE_BOUND('',#560,.T.);
#560=EDGE_LOOP('',(#808,#809,#810,#811));
#561=FACE_BOUND('',#562,.T.);
#562=EDGE_LOOP('',(#812));
#563=PLANE('',#564);
#564=AXIS2_PLACEMENT_3D('',#565,#566,#567);
#565=CARTESIAN_POINT('',(-8.26636589424463E-16,2.75545529808154E-16,-5.4880488203149));
#566=DIRECTION('',(-1.83697019872103E-16,6.12323399573677E-17,1.));
#567=DIRECTION('',(-1.,1.22464679914735E-16,-1.83697019872103E-16));
#568=FACE_OUTER_BOUND('',#569,.T.);
#569=EDGE_LOOP('',(#813));
#570=FACE_OUTER_BOUND('',#571,.T.);
#571=EDGE_LOOP('',(#814));
#572=TOROIDAL_SURFACE('',#573,5.,2.);
#573=AXIS2_PLACEMENT_3D('',#574,#575,#576);
#574=CARTESIAN_POINT('',(-0.202286749789842,0.0985143180429213,-7.9880488203149));
#575=DIRECTION('',(1.83697019872103E-16,-6.12323399573677E-17,-1.));
#576=DIRECTION('',(-0.544174087231857,0.838972325398982,-1.51335396759768E-16));
#577=FACE_BOUND('',#578,.T.);
#578=EDGE_LOOP('',(#815,#816,#817,#818));
#579=CYLINDRICAL_SURFACE('',#580,7.02389735116281);
#580=AXIS2_PLACEMENT_3D('',#581,#582,#583);
#581=CARTESIAN_POINT('',(-25.9271803136617,-20.3393827606869,11.0119511796851));
#582=DIRECTION('',(1.83697019872103E-16,-6.12323399573677E-17,-1.));
#583=DIRECTION('',(0.931411543848508,-0.363967767784099,1.93384122969926E-16));
#584=FACE_BOUND('',#585,.T.);
#585=EDGE_LOOP('',(#819,#820,#821,#822));
#586=CYLINDRICAL_SURFACE('',#587,7.02389735116281);
#587=AXIS2_PLACEMENT_3D('',#588,#589,#590);
#588=CARTESIAN_POINT('',(-26.3292566963176,19.8161401872885,11.0119511796851));
#589=DIRECTION('',(1.83697019872103E-16,-6.12323399573677E-17,-1.));
#590=DIRECTION('',(-0.111880576225088,-0.993721659552383,4.02957740465887E-17));
#591=FACE_BOUND('',#592,.T.);
#592=EDGE_LOOP('',(#823,#824,#825,#826));
#593=CYLINDRICAL_SURFACE('',#594,7.02389735116281);
#594=AXIS2_PLACEMENT_3D('',#595,#596,#597);
#595=CARTESIAN_POINT('',(-32.9507201396502,0.399014262027022,11.0119511796851));
#596=DIRECTION('',(1.83697019872103E-16,-6.12323399573677E-17,-1.));
#597=DIRECTION('',(0.497710304190924,-0.867343330580329,1.44537361317361E-16));
#598=FACE_OUTER_BOUND('',#599,.T.);
#599=EDGE_LOOP('',(#827));
#600=FACE_OUTER_BOUND('',#601,.T.);
#601=EDGE_LOOP('',(#828));
#602=CYLINDRICAL_SURFACE('',#603,1.5);
#603=AXIS2_PLACEMENT_3D('',#604,#605,#606);
#604=CARTESIAN_POINT('',(-26.3292566963176,19.8161401872885,11.0119511796851));
#605=DIRECTION('',(1.83697019872103E-16,-6.12323399573677E-17,-1.));
#606=DIRECTION('',(-6.12323399573676E-17,1.,-6.12323399573677E-17));
#607=FACE_OUTER_BOUND('',#608,.T.);
#608=EDGE_LOOP('',(#829));
#609=FACE_OUTER_BOUND('',#610,.T.);
#610=EDGE_LOOP('',(#830));
#611=CYLINDRICAL_SURFACE('',#612,1.5);
#612=AXIS2_PLACEMENT_3D('',#613,#614,#615);
#613=CARTESIAN_POINT('',(-32.9507201396502,0.399014262027022,11.0119511796851));
#614=DIRECTION('',(1.83697019872103E-16,-6.12323399573677E-17,-1.));
#615=DIRECTION('',(-6.12323399573676E-17,1.,-6.12323399573677E-17));
#616=FACE_OUTER_BOUND('',#617,.T.);
#617=EDGE_LOOP('',(#831));
#618=FACE_OUTER_BOUND('',#619,.T.);
#619=EDGE_LOOP('',(#832));
#620=CYLINDRICAL_SURFACE('',#621,1.5);
#621=AXIS2_PLACEMENT_3D('',#622,#623,#624);
#622=CARTESIAN_POINT('',(-25.9271803136617,-20.3393827606869,11.0119511796851));
#623=DIRECTION('',(1.83697019872103E-16,-6.12323399573677E-17,-1.));
#624=DIRECTION('',(-6.12323399573676E-17,1.,-6.12323399573677E-17));
#625=FACE_BOUND('',#626,.T.);
#626=EDGE_LOOP('',(#833));
#627=PLANE('',#628);
#628=AXIS2_PLACEMENT_3D('',#629,#630,#631);
#629=CARTESIAN_POINT('',(1.83477480262892E-15,-6.11591600876307E-16,-9.9880488203149));
#630=DIRECTION('',(-1.83697019872103E-16,6.12323399573677E-17,1.));
#631=DIRECTION('',(7.44349422965463E-32,-1.,6.12323399573677E-17));
#632=FACE_BOUND('',#633,.T.);
#633=EDGE_LOOP('',(#834,#835,#836,#837));
#634=CYLINDRICAL_SURFACE('',#635,2.);
#635=AXIS2_PLACEMENT_3D('',#636,#637,#638);
#636=CARTESIAN_POINT('',(-18.8104345956064,-25.887594525649,3.01195117968511));
#637=DIRECTION('',(0.,-3.73969860926369E-16,-1.));
#638=DIRECTION('',(-0.788655438011854,0.614835425210951,-2.29929918458744E-16));
#639=FACE_BOUND('',#640,.T.);
#640=EDGE_LOOP('',(#838,#839,#840,#841));
#641=CYLINDRICAL_SURFACE('',#642,2.);
#642=AXIS2_PLACEMENT_3D('',#643,#644,#645);
#643=CARTESIAN_POINT('',(-19.3250349914989,25.5057448935989,3.01195117968511));
#644=DIRECTION('',(0.,-1.86984930463184E-16,-1.));
#645=DIRECTION('',(0.603907343484339,-0.797054527924965,1.49037185479416E-16));
#646=FACE_BOUND('',#647,.T.);
#647=EDGE_LOOP('',(#842,#843,#844,#845));
#648=CYLINDRICAL_SURFACE('',#649,2.);
#649=AXIS2_PLACEMENT_3D('',#650,#651,#652);
#650=CARTESIAN_POINT('',(-30.8820195313239,-8.38456138786825,3.01195117968511));
#651=DIRECTION('',(1.86984930463184E-16,-9.34924652315921E-17,-1.));
#652=DIRECTION('',(-0.229246912705607,0.973368302861228,-1.33868320243945E-16));
#653=FACE_BOUND('',#654,.T.);
#654=EDGE_LOOP('',(#846,#847,#848,#849));
#655=CYLINDRICAL_SURFACE('',#656,2.);
#656=AXIS2_PLACEMENT_3D('',#657,#658,#659);
#657=CARTESIAN_POINT('',(-29.6215410225273,-12.1063746617529,3.01195117968511));
#658=DIRECTION('',(1.86984930463184E-16,-9.34924652315921E-17,-1.));
#659=DIRECTION('',(0.925673156953978,0.378324208179777,1.37716468005158E-16));
#660=FACE_BOUND('',#661,.T.);
#661=EDGE_LOOP('',(#850,#851,#852,#853));
#662=CYLINDRICAL_SURFACE('',#663,2.);
#663=AXIS2_PLACEMENT_3D('',#664,#665,#666);
#664=CARTESIAN_POINT('',(-29.8580193527374,11.5108071103445,3.0119511796851));
#665=DIRECTION('',(3.73969860926369E-16,2.80477395694776E-16,-1.));
#666=DIRECTION('',(0.391046409228619,0.92037096098769,4.04382821485908E-16));
#667=FACE_BOUND('',#668,.T.);
#668=EDGE_LOOP('',(#854,#855,#856,#857));
#669=CYLINDRICAL_SURFACE('',#670,2.);
#670=AXIS2_PLACEMENT_3D('',#671,#672,#673);
#671=CARTESIAN_POINT('',(-30.6699292381528,9.12992007230636,3.01195117968511));
#672=DIRECTION('',(1.86984930463184E-16,-9.34924652315921E-17,-1.));
#673=DIRECTION('',(0.958435288692274,-0.285310002259574,2.05887291276065E-16));
#674=ORIENTED_EDGE('',*,*,#858,.T.);
#675=ORIENTED_EDGE('',*,*,#859,.T.);
#676=ORIENTED_EDGE('',*,*,#860,.T.);
#677=ORIENTED_EDGE('',*,*,#861,.T.);
#678=ORIENTED_EDGE('',*,*,#862,.T.);
#679=ORIENTED_EDGE('',*,*,#863,.T.);
#680=ORIENTED_EDGE('',*,*,#864,.F.);
#681=ORIENTED_EDGE('',*,*,#865,.T.);
#682=ORIENTED_EDGE('',*,*,#866,.T.);
#683=ORIENTED_EDGE('',*,*,#867,.F.);
#684=ORIENTED_EDGE('',*,*,#868,.T.);
#685=ORIENTED_EDGE('',*,*,#869,.T.);
#686=ORIENTED_EDGE('',*,*,#870,.T.);
#687=ORIENTED_EDGE('',*,*,#871,.F.);
#688=ORIENTED_EDGE('',*,*,#872,.T.);
#689=ORIENTED_EDGE('',*,*,#873,.T.);
#690=ORIENTED_EDGE('',*,*,#874,.T.);
#691=ORIENTED_EDGE('',*,*,#875,.F.);
#692=ORIENTED_EDGE('',*,*,#876,.T.);
#693=ORIENTED_EDGE('',*,*,#864,.T.);
#694=ORIENTED_EDGE('',*,*,#877,.T.);
#695=ORIENTED_EDGE('',*,*,#878,.F.);
#696=ORIENTED_EDGE('',*,*,#879,.T.);
#697=ORIENTED_EDGE('',*,*,#880,.T.);
#698=ORIENTED_EDGE('',*,*,#881,.F.);
#699=ORIENTED_EDGE('',*,*,#882,.T.);
#700=ORIENTED_EDGE('',*,*,#878,.T.);
#701=ORIENTED_EDGE('',*,*,#883,.F.);
#702=ORIENTED_EDGE('',*,*,#881,.T.);
#703=ORIENTED_EDGE('',*,*,#884,.T.);
#704=ORIENTED_EDGE('',*,*,#866,.F.);
#705=ORIENTED_EDGE('',*,*,#885,.T.);
#706=ORIENTED_EDGE('',*,*,#886,.T.);
#707=ORIENTED_EDGE('',*,*,#887,.T.);
#708=ORIENTED_EDGE('',*,*,#888,.F.);
#709=ORIENTED_EDGE('',*,*,#889,.T.);
#710=ORIENTED_EDGE('',*,*,#890,.T.);
#711=ORIENTED_EDGE('',*,*,#891,.T.);
#712=ORIENTED_EDGE('',*,*,#892,.F.);
#713=ORIENTED_EDGE('',*,*,#893,.T.);
#714=ORIENTED_EDGE('',*,*,#894,.T.);
#715=ORIENTED_EDGE('',*,*,#873,.F.);
#716=ORIENTED_EDGE('',*,*,#895,.T.);
#717=ORIENTED_EDGE('',*,*,#888,.T.);
#718=ORIENTED_EDGE('',*,*,#896,.F.);
#719=ORIENTED_EDGE('',*,*,#886,.F.);
#720=ORIENTED_EDGE('',*,*,#897,.T.);
#721=ORIENTED_EDGE('',*,*,#875,.T.);
#722=ORIENTED_EDGE('',*,*,#898,.F.);
#723=ORIENTED_EDGE('',*,*,#890,.F.);
#724=ORIENTED_EDGE('',*,*,#899,.T.);
#725=ORIENTED_EDGE('',*,*,#871,.T.);
#726=ORIENTED_EDGE('',*,*,#900,.F.);
#727=ORIENTED_EDGE('',*,*,#869,.F.);
#728=ORIENTED_EDGE('',*,*,#901,.T.);
#729=ORIENTED_EDGE('',*,*,#892,.T.);
#730=ORIENTED_EDGE('',*,*,#902,.F.);
#731=ORIENTED_EDGE('',*,*,#880,.F.);
#732=ORIENTED_EDGE('',*,*,#879,.F.);
#733=ORIENTED_EDGE('',*,*,#903,.T.);
#734=ORIENTED_EDGE('',*,*,#904,.T.);
#735=ORIENTED_EDGE('',*,*,#905,.T.);
#736=ORIENTED_EDGE('',*,*,#906,.T.);
#737=ORIENTED_EDGE('',*,*,#907,.T.);
#738=ORIENTED_EDGE('',*,*,#908,.T.);
#739=ORIENTED_EDGE('',*,*,#909,.T.);
#740=ORIENTED_EDGE('',*,*,#910,.T.);
#741=ORIENTED_EDGE('',*,*,#911,.F.);
#742=ORIENTED_EDGE('',*,*,#903,.F.);
#743=ORIENTED_EDGE('',*,*,#909,.F.);
#744=ORIENTED_EDGE('',*,*,#912,.T.);
#745=ORIENTED_EDGE('',*,*,#913,.T.);
#746=ORIENTED_EDGE('',*,*,#914,.F.);
#747=ORIENTED_EDGE('',*,*,#905,.F.);
#748=ORIENTED_EDGE('',*,*,#915,.T.);
#749=ORIENTED_EDGE('',*,*,#916,.T.);
#750=ORIENTED_EDGE('',*,*,#917,.F.);
#751=ORIENTED_EDGE('',*,*,#907,.F.);
#752=ORIENTED_EDGE('',*,*,#918,.T.);
#753=ORIENTED_EDGE('',*,*,#919,.T.);
#754=ORIENTED_EDGE('',*,*,#920,.T.);
#755=ORIENTED_EDGE('',*,*,#908,.F.);
#756=ORIENTED_EDGE('',*,*,#921,.T.);
#757=ORIENTED_EDGE('',*,*,#922,.F.);
#758=ORIENTED_EDGE('',*,*,#906,.F.);
#759=ORIENTED_EDGE('',*,*,#923,.T.);
#760=ORIENTED_EDGE('',*,*,#924,.T.);
#761=ORIENTED_EDGE('',*,*,#925,.T.);
#762=ORIENTED_EDGE('',*,*,#926,.F.);
#763=ORIENTED_EDGE('',*,*,#904,.F.);
#764=ORIENTED_EDGE('',*,*,#927,.T.);
#765=ORIENTED_EDGE('',*,*,#928,.T.);
#766=ORIENTED_EDGE('',*,*,#929,.T.);
#767=ORIENTED_EDGE('',*,*,#930,.F.);
#768=ORIENTED_EDGE('',*,*,#884,.F.);
#769=ORIENTED_EDGE('',*,*,#883,.T.);
#770=ORIENTED_EDGE('',*,*,#877,.F.);
#771=ORIENTED_EDGE('',*,*,#867,.T.);
#772=ORIENTED_EDGE('',*,*,#859,.F.);
#773=ORIENTED_EDGE('',*,*,#931,.F.);
#774=ORIENTED_EDGE('',*,*,#932,.T.);
#775=ORIENTED_EDGE('',*,*,#913,.F.);
#776=ORIENTED_EDGE('',*,*,#933,.T.);
#777=ORIENTED_EDGE('',*,*,#934,.F.);
#778=ORIENTED_EDGE('',*,*,#935,.T.);
#779=ORIENTED_EDGE('',*,*,#910,.F.);
#780=ORIENTED_EDGE('',*,*,#936,.T.);
#781=ORIENTED_EDGE('',*,*,#937,.F.);
#782=ORIENTED_EDGE('',*,*,#938,.T.);
#783=ORIENTED_EDGE('',*,*,#916,.F.);
#784=ORIENTED_EDGE('',*,*,#939,.T.);
#785=ORIENTED_EDGE('',*,*,#882,.F.);
#786=ORIENTED_EDGE('',*,*,#893,.F.);
#787=ORIENTED_EDGE('',*,*,#901,.F.);
#788=ORIENTED_EDGE('',*,*,#868,.F.);
#789=ORIENTED_EDGE('',*,*,#885,.F.);
#790=ORIENTED_EDGE('',*,*,#865,.F.);
#791=ORIENTED_EDGE('',*,*,#876,.F.);
#792=ORIENTED_EDGE('',*,*,#897,.F.);
#793=ORIENTED_EDGE('',*,*,#889,.F.);
#794=ORIENTED_EDGE('',*,*,#895,.F.);
#795=ORIENTED_EDGE('',*,*,#872,.F.);
#796=ORIENTED_EDGE('',*,*,#899,.F.);
#797=ORIENTED_EDGE('',*,*,#940,.F.);
#798=ORIENTED_EDGE('',*,*,#941,.F.);
#799=ORIENTED_EDGE('',*,*,#942,.F.);
#800=ORIENTED_EDGE('',*,*,#860,.F.);
#801=ORIENTED_EDGE('',*,*,#862,.F.);
#802=ORIENTED_EDGE('',*,*,#858,.F.);
#803=ORIENTED_EDGE('',*,*,#887,.F.);
#804=ORIENTED_EDGE('',*,*,#898,.T.);
#805=ORIENTED_EDGE('',*,*,#874,.F.);
#806=ORIENTED_EDGE('',*,*,#896,.T.);
#807=ORIENTED_EDGE('',*,*,#861,.F.);
#808=ORIENTED_EDGE('',*,*,#870,.F.);
#809=ORIENTED_EDGE('',*,*,#902,.T.);
#810=ORIENTED_EDGE('',*,*,#891,.F.);
#811=ORIENTED_EDGE('',*,*,#900,.T.);
#812=ORIENTED_EDGE('',*,*,#863,.F.);
#813=ORIENTED_EDGE('',*,*,#943,.T.);
#814=ORIENTED_EDGE('',*,*,#894,.F.);
#815=ORIENTED_EDGE('',*,*,#928,.F.);
#816=ORIENTED_EDGE('',*,*,#944,.T.);
#817=ORIENTED_EDGE('',*,*,#934,.T.);
#818=ORIENTED_EDGE('',*,*,#945,.F.);
#819=ORIENTED_EDGE('',*,*,#937,.T.);
#820=ORIENTED_EDGE('',*,*,#946,.F.);
#821=ORIENTED_EDGE('',*,*,#919,.F.);
#822=ORIENTED_EDGE('',*,*,#947,.T.);
#823=ORIENTED_EDGE('',*,*,#924,.F.);
#824=ORIENTED_EDGE('',*,*,#948,.T.);
#825=ORIENTED_EDGE('',*,*,#931,.T.);
#826=ORIENTED_EDGE('',*,*,#949,.F.);
#827=ORIENTED_EDGE('',*,*,#942,.T.);
#828=ORIENTED_EDGE('',*,*,#922,.T.);
#829=ORIENTED_EDGE('',*,*,#941,.T.);
#830=ORIENTED_EDGE('',*,*,#926,.T.);
#831=ORIENTED_EDGE('',*,*,#940,.T.);
#832=ORIENTED_EDGE('',*,*,#930,.T.);
#833=ORIENTED_EDGE('',*,*,#943,.F.);
#834=ORIENTED_EDGE('',*,*,#935,.F.);
#835=ORIENTED_EDGE('',*,*,#944,.F.);
#836=ORIENTED_EDGE('',*,*,#927,.F.);
#837=ORIENTED_EDGE('',*,*,#911,.T.);
#838=ORIENTED_EDGE('',*,*,#936,.F.);
#839=ORIENTED_EDGE('',*,*,#912,.F.);
#840=ORIENTED_EDGE('',*,*,#920,.F.);
#841=ORIENTED_EDGE('',*,*,#946,.T.);
#842=ORIENTED_EDGE('',*,*,#932,.F.);
#843=ORIENTED_EDGE('',*,*,#948,.F.);
#844=ORIENTED_EDGE('',*,*,#923,.F.);
#845=ORIENTED_EDGE('',*,*,#914,.T.);
#846=ORIENTED_EDGE('',*,*,#933,.F.);
#847=ORIENTED_EDGE('',*,*,#915,.F.);
#848=ORIENTED_EDGE('',*,*,#929,.F.);
#849=ORIENTED_EDGE('',*,*,#945,.T.);
#850=ORIENTED_EDGE('',*,*,#938,.F.);
#851=ORIENTED_EDGE('',*,*,#947,.F.);
#852=ORIENTED_EDGE('',*,*,#921,.F.);
#853=ORIENTED_EDGE('',*,*,#917,.T.);
#854=ORIENTED_EDGE('',*,*,#939,.F.);
#855=ORIENTED_EDGE('',*,*,#918,.F.);
#856=ORIENTED_EDGE('',*,*,#925,.F.);
#857=ORIENTED_EDGE('',*,*,#949,.T.);
#858=EDGE_CURVE('',#950,#950,#951,.F.);
#859=EDGE_CURVE('',#952,#952,#953,.F.);
#860=EDGE_CURVE('',#954,#954,#955,.F.);
#861=EDGE_CURVE('',#956,#956,#957,.F.);
#862=EDGE_CURVE('',#958,#958,#959,.F.);
#863=EDGE_CURVE('',#960,#960,#961,.F.);
#864=EDGE_CURVE('',#962,#963,#964,.T.);
#865=EDGE_CURVE('',#962,#965,#966,.F.);
#866=EDGE_CURVE('',#965,#967,#968,.T.);
#867=EDGE_CURVE('',#963,#967,#969,.F.);
#868=EDGE_CURVE('',#970,#971,#972,.F.);
#869=EDGE_CURVE('',#971,#973,#974,.T.);
#870=EDGE_CURVE('',#973,#975,#976,.T.);
#871=EDGE_CURVE('',#977,#975,#978,.T.);
#872=EDGE_CURVE('',#977,#979,#980,.F.);
#873=EDGE_CURVE('',#979,#981,#982,.T.);
#874=EDGE_CURVE('',#981,#983,#984,.T.);
#875=EDGE_CURVE('',#985,#983,#986,.T.);
#876=EDGE_CURVE('',#985,#962,#987,.F.);
#877=EDGE_CURVE('',#963,#988,#989,.T.);
#878=EDGE_CURVE('',#970,#988,#990,.T.);
#879=EDGE_CURVE('',#991,#992,#993,.F.);
#880=EDGE_CURVE('',#992,#991,#994,.F.);
#881=EDGE_CURVE('',#995,#996,#997,.T.);
#882=EDGE_CURVE('',#995,#970,#998,.F.);
#883=EDGE_CURVE('',#996,#988,#999,.F.);
#884=EDGE_CURVE('',#996,#967,#1000,.T.);
#885=EDGE_CURVE('',#965,#1001,#1002,.F.);
#886=EDGE_CURVE('',#1001,#1003,#1004,.T.);
#887=EDGE_CURVE('',#1003,#1005,#1006,.T.);
#888=EDGE_CURVE('',#1007,#1005,#1008,.T.);
#889=EDGE_CURVE('',#1007,#1009,#1010,.F.);
#890=EDGE_CURVE('',#1009,#1011,#1012,.T.);
#891=EDGE_CURVE('',#1011,#1013,#1014,.T.);
#892=EDGE_CURVE('',#1015,#1013,#1016,.T.);
#893=EDGE_CURVE('',#1015,#995,#1017,.F.);
#894=EDGE_CURVE('',#1018,#1018,#1019,.F.);
#895=EDGE_CURVE('',#979,#1007,#1020,.F.);
#896=EDGE_CURVE('',#981,#1005,#1021,.F.);
#897=EDGE_CURVE('',#1001,#985,#1022,.F.);
#898=EDGE_CURVE('',#1003,#983,#1023,.F.);
#899=EDGE_CURVE('',#1009,#977,#1024,.F.);
#900=EDGE_CURVE('',#1011,#975,#1025,.F.);
#901=EDGE_CURVE('',#971,#1015,#1026,.F.);
#902=EDGE_CURVE('',#973,#1013,#1027,.F.);
#903=EDGE_CURVE('',#1028,#1029,#1030,.T.);
#904=EDGE_CURVE('',#1029,#1031,#1032,.F.);
#905=EDGE_CURVE('',#1031,#1033,#1034,.T.);
#906=EDGE_CURVE('',#1033,#1035,#1036,.F.);
#907=EDGE_CURVE('',#1035,#1037,#1038,.T.);
#908=EDGE_CURVE('',#1037,#1039,#1040,.F.);
#909=EDGE_CURVE('',#1039,#1028,#1041,.T.);
#910=EDGE_CURVE('',#1042,#1043,#1044,.T.);
#911=EDGE_CURVE('',#1029,#1043,#1045,.T.);
#912=EDGE_CURVE('',#1039,#1042,#1046,.T.);
#913=EDGE_CURVE('',#1047,#1048,#1049,.T.);
#914=EDGE_CURVE('',#1033,#1048,#1050,.T.);
#915=EDGE_CURVE('',#1031,#1047,#1051,.T.);
#916=EDGE_CURVE('',#1052,#1053,#1054,.T.);
#917=EDGE_CURVE('',#1037,#1053,#1055,.T.);
#918=EDGE_CURVE('',#1035,#1052,#1056,.T.);
#919=EDGE_CURVE('',#1057,#1058,#1059,.T.);
#920=EDGE_CURVE('',#1058,#1039,#1060,.F.);
#921=EDGE_CURVE('',#1037,#1057,#1061,.T.);
#922=EDGE_CURVE('',#1062,#1062,#1063,.T.);
#923=EDGE_CURVE('',#1033,#1064,#1065,.T.);
#924=EDGE_CURVE('',#1064,#1066,#1067,.T.);
#925=EDGE_CURVE('',#1066,#1035,#1068,.F.);
#926=EDGE_CURVE('',#1069,#1069,#1070,.T.);
#927=EDGE_CURVE('',#1029,#1071,#1072,.T.);
#928=EDGE_CURVE('',#1071,#1073,#1074,.T.);
#929=EDGE_CURVE('',#1073,#1031,#1075,.F.);
#930=EDGE_CURVE('',#1076,#1076,#1077,.T.);
#931=EDGE_CURVE('',#1078,#1079,#1080,.T.);
#932=EDGE_CURVE('',#1078,#1048,#1081,.F.);
#933=EDGE_CURVE('',#1047,#1082,#1083,.F.);
#934=EDGE_CURVE('',#1084,#1082,#1085,.T.);
#935=EDGE_CURVE('',#1084,#1043,#1086,.F.);
#936=EDGE_CURVE('',#1042,#1087,#1088,.F.);
#937=EDGE_CURVE('',#1089,#1087,#1090,.T.);
#938=EDGE_CURVE('',#1089,#1053,#1091,.F.);
#939=EDGE_CURVE('',#1052,#1079,#1092,.F.);
#940=EDGE_CURVE('',#1093,#1093,#1094,.F.);
#941=EDGE_CURVE('',#1095,#1095,#1096,.F.);
#942=EDGE_CURVE('',#1097,#1097,#1098,.F.);
#943=EDGE_CURVE('',#1099,#1099,#1100,.F.);
#944=EDGE_CURVE('',#1071,#1084,#1101,.T.);
#945=EDGE_CURVE('',#1073,#1082,#1102,.T.);
#946=EDGE_CURVE('',#1058,#1087,#1103,.T.);
#947=EDGE_CURVE('',#1057,#1089,#1104,.T.);
#948=EDGE_CURVE('',#1064,#1078,#1105,.T.);
#949=EDGE_CURVE('',#1066,#1079,#1106,.T.);
#950=VERTEX_POINT('',#1107);
#951=CIRCLE('',#1108,0.675);
#952=VERTEX_POINT('',#1112);
#953=CIRCLE('',#1113,0.675);
#954=VERTEX_POINT('',#1117);
#955=CIRCLE('',#1118,0.675);
#956=VERTEX_POINT('',#1122);
#957=CIRCLE('',#1123,0.675);
#958=VERTEX_POINT('',#1127);
#959=CIRCLE('',#1128,0.675);
#960=VERTEX_POINT('',#1132);
#961=CIRCLE('',#1133,0.675);
#962=VERTEX_POINT('',#1137);
#963=VERTEX_POINT('',#1138);
#964=LINE('',#1139,#1140);
#965=VERTEX_POINT('',#1142);
#966=LINE('',#1143,#1144);
#967=VERTEX_POINT('',#1146);
#968=LINE('',#1147,#1148);
#969=LINE('',#1150,#1151);
#970=VERTEX_POINT('',#1153);
#971=VERTEX_POINT('',#1154);
#972=CIRCLE('',#1155,15.5);
#973=VERTEX_POINT('',#1159);
#974=LINE('',#1160,#1161);
#975=VERTEX_POINT('',#1163);
#976=CIRCLE('',#1164,15.5);
#977=VERTEX_POINT('',#1168);
#978=LINE('',#1169,#1170);
#979=VERTEX_POINT('',#1172);
#980=CIRCLE('',#1173,15.5);
#981=VERTEX_POINT('',#1177);
#982=LINE('',#1178,#1179);
#983=VERTEX_POINT('',#1181);
#984=CIRCLE('',#1182,15.5);
#985=VERTEX_POINT('',#1186);
#986=LINE('',#1187,#1188);
#987=CIRCLE('',#1190,15.5);
#988=VERTEX_POINT('',#1194);
#989=CIRCLE('',#1195,15.5);
#990=LINE('',#1199,#1200);
#991=VERTEX_POINT('',#1202);
#992=VERTEX_POINT('',#1203);
#993=CIRCLE('',#1204,15.5);
#994=CIRCLE('',#1208,15.5);
#995=VERTEX_POINT('',#1212);
#996=VERTEX_POINT('',#1213);
#997=LINE('',#1214,#1215);
#998=LINE('',#1217,#1218);
#999=LINE('',#1220,#1221);
#1000=CIRCLE('',#1223,7.);
#1001=VERTEX_POINT('',#1227);
#1002=CIRCLE('',#1228,7.);
#1003=VERTEX_POINT('',#1232);
#1004=LINE('',#1233,#1234);
#1005=VERTEX_POINT('',#1236);
#1006=CIRCLE('',#1237,7.);
#1007=VERTEX_POINT('',#1241);
#1008=LINE('',#1242,#1243);
#1009=VERTEX_POINT('',#1245);
#1010=CIRCLE('',#1246,7.);
#1011=VERTEX_POINT('',#1250);
#1012=LINE('',#1251,#1252);
#1013=VERTEX_POINT('',#1254);
#1014=CIRCLE('',#1255,7.);
#1015=VERTEX_POINT('',#1259);
#1016=LINE('',#1260,#1261);
#1017=CIRCLE('',#1263,7.);
#1018=VERTEX_POINT('',#1267);
#1019=CIRCLE('',#1268,7.);
#1020=LINE('',#1272,#1273);
#1021=LINE('',#1275,#1276);
#1022=LINE('',#1278,#1279);
#1023=LINE('',#1281,#1282);
#1024=LINE('',#1284,#1285);
#1025=LINE('',#1287,#1288);
#1026=LINE('',#1290,#1291);
#1027=LINE('',#1293,#1294);
#1028=VERTEX_POINT('',#1296);
#1029=VERTEX_POINT('',#1297);
#1030=CIRCLE('',#1298,29.9999999999987);
#1031=VERTEX_POINT('',#1302);
#1032=CIRCLE('',#1303,29.9999999999987);
#1033=VERTEX_POINT('',#1307);
#1034=CIRCLE('',#1308,29.9999999999987);
#1035=VERTEX_POINT('',#1312);
#1036=CIRCLE('',#1313,29.9999999999987);
#1037=VERTEX_POINT('',#1317);
#1038=CIRCLE('',#1318,29.9999999999987);
#1039=VERTEX_POINT('',#1322);
#1040=CIRCLE('',#1323,29.9999999999987);
#1041=CIRCLE('',#1327,29.9999999999987);
#1042=VERTEX_POINT('',#1331);
#1043=VERTEX_POINT('',#1332);
#1044=CIRCLE('',#1333,30.);
#1045=LINE('',#1337,#1338);
#1046=LINE('',#1340,#1341);
#1047=VERTEX_POINT('',#1343);
#1048=VERTEX_POINT('',#1344);
#1049=CIRCLE('',#1345,30.);
#1050=LINE('',#1349,#1350);
#1051=LINE('',#1352,#1353);
#1052=VERTEX_POINT('',#1355);
#1053=VERTEX_POINT('',#1356);
#1054=CIRCLE('',#1357,30.);
#1055=LINE('',#1361,#1362);
#1056=LINE('',#1364,#1365);
#1057=VERTEX_POINT('',#1367);
#1058=VERTEX_POINT('',#1368);
#1059=CIRCLE('',#1369,7.02389735116281);
#1060=CIRCLE('',#1373,2.);
#1061=CIRCLE('',#1377,2.);
#1062=VERTEX_POINT('',#1381);
#1063=CIRCLE('',#1382,1.5);
#1064=VERTEX_POINT('',#1386);
#1065=CIRCLE('',#1387,2.);
#1066=VERTEX_POINT('',#1391);
#1067=CIRCLE('',#1392,7.02389735116281);
#1068=CIRCLE('',#1396,2.);
#1069=VERTEX_POINT('',#1400);
#1070=CIRCLE('',#1401,1.5);
#1071=VERTEX_POINT('',#1405);
#1072=CIRCLE('',#1406,2.);
#1073=VERTEX_POINT('',#1410);
#1074=CIRCLE('',#1411,7.02389735116281);
#1075=CIRCLE('',#1415,2.);
#1076=VERTEX_POINT('',#1419);
#1077=CIRCLE('',#1420,1.5);
#1078=VERTEX_POINT('',#1424);
#1079=VERTEX_POINT('',#1425);
#1080=CIRCLE('',#1426,7.02389735116281);
#1081=CIRCLE('',#1430,2.);
#1082=VERTEX_POINT('',#1434);
#1083=CIRCLE('',#1435,2.);
#1084=VERTEX_POINT('',#1439);
#1085=CIRCLE('',#1440,7.02389735116281);
#1086=CIRCLE('',#1444,2.);
#1087=VERTEX_POINT('',#1448);
#1088=CIRCLE('',#1449,2.);
#1089=VERTEX_POINT('',#1453);
#1090=CIRCLE('',#1454,7.02389735116281);
#1091=CIRCLE('',#1458,2.);
#1092=CIRCLE('',#1462,2.);
#1093=VERTEX_POINT('',#1466);
#1094=CIRCLE('',#1467,1.5);
#1095=VERTEX_POINT('',#1471);
#1096=CIRCLE('',#1472,1.5);
#1097=VERTEX_POINT('',#1476);
#1098=CIRCLE('',#1477,1.5);
#1099=VERTEX_POINT('',#1481);
#1100=CIRCLE('',#1482,5.);
#1101=LINE('',#1486,#1487);
#1102=LINE('',#1489,#1490);
#1103=LINE('',#1492,#1493);
#1104=LINE('',#1495,#1496);
#1105=LINE('',#1498,#1499);
#1106=LINE('',#1501,#1502);
#1107=CARTESIAN_POINT('',(13.1120503466331,9.40648216984058E-16,14.0119511796851));
#1108=AXIS2_PLACEMENT_3D('',#1109,#1110,#1111);
#1109=CARTESIAN_POINT('',(13.7870503466331,8.57984558041612E-16,14.0119511796851));
#1110=DIRECTION('',(1.83697019872103E-16,-6.12323399573677E-17,-1.));
#1111=DIRECTION('',(-1.,1.22464679914735E-16,-1.83697019872103E-16));
#1112=CARTESIAN_POINT('',(13.1120503466331,-2.31951093140626E-16,-5.4880488203149));
#1113=AXIS2_PLACEMENT_3D('',#1114,#1115,#1116);
#1114=CARTESIAN_POINT('',(13.7870503466331,-3.97278411025519E-16,-5.4880488203149));
#1115=DIRECTION('',(-1.83697019872103E-16,6.12323399573677E-17,1.));
#1116=DIRECTION('',(-1.,1.22464679914735E-16,-1.83697019872103E-16));
#1117=CARTESIAN_POINT('',(-11.5164344995133,-9.62662604777648,14.0119511796851));
#1118=AXIS2_PLACEMENT_3D('',#1119,#1120,#1121);
#1119=CARTESIAN_POINT('',(-10.8414344995133,-9.62662604777648,14.0119511796851));
#1120=DIRECTION('',(1.83697019872103E-16,-6.12323399573677E-17,-1.));
#1121=DIRECTION('',(-1.,-6.12323399573677E-17,-1.83697019872103E-16));
#1122=CARTESIAN_POINT('',(-11.5164344995133,-9.62662604777649,-5.4880488203149));
#1123=AXIS2_PLACEMENT_3D('',#1124,#1125,#1126);
#1124=CARTESIAN_POINT('',(-10.8414344995133,-9.62662604777649,-5.4880488203149));
#1125=DIRECTION('',(-1.83697019872103E-16,6.12323399573677E-17,1.));
#1126=DIRECTION('',(-1.,1.22464679914735E-16,-1.83697019872103E-16));
#1127=CARTESIAN_POINT('',(-11.5164344995133,9.62662604777649,14.0119511796851));
#1128=AXIS2_PLACEMENT_3D('',#1129,#1130,#1131);
#1129=CARTESIAN_POINT('',(-10.8414344995133,9.62662604777649,14.0119511796851));
#1130=DIRECTION('',(1.83697019872103E-16,-6.12323399573677E-17,-1.));
#1131=DIRECTION('',(-1.,-6.12323399573677E-17,-1.83697019872103E-16));
#1132=CARTESIAN_POINT('',(-11.5164344995133,9.62662604777649,-5.4880488203149));
#1133=AXIS2_PLACEMENT_3D('',#1134,#1135,#1136);
#1134=CARTESIAN_POINT('',(-10.8414344995133,9.62662604777649,-5.48804882031491));
#1135=DIRECTION('',(-1.83697019872103E-16,6.12323399573677E-17,1.));
#1136=DIRECTION('',(-1.,1.22464679914735E-16,-1.83697019872103E-16));
#1137=CARTESIAN_POINT('',(14.6866043207609,-4.95516432879959,14.0119511796851));
#1138=CARTESIAN_POINT('',(14.6866043207609,-4.95516432879959,-5.4880488203149));
#1139=CARTESIAN_POINT('',(14.6866043207609,-4.95516432879959,14.0119511796851));
#1140=VECTOR('',#1141,1.);
#1141=DIRECTION('',(1.82190445066692E-16,1.36642833800019E-16,-1.));
#1142=CARTESIAN_POINT('',(6.50631575359976,-1.90014834772004,14.0119511796851));
#1143=CARTESIAN_POINT('',(6.50631575359976,-1.90014834772004,14.0119511796851));
#1144=VECTOR('',#1145,1.);
#1145=DIRECTION('',(0.936802424594688,-0.349858853358771,4.06854936823584E-16));
#1146=CARTESIAN_POINT('',(6.50631575359976,-1.90014834772004,-5.4880488203149));
#1147=CARTESIAN_POINT('',(6.50631575359976,-1.90014834772004,14.0119511796851));
#1148=VECTOR('',#1149,1.);
#1149=DIRECTION('',(1.82190445066692E-16,2.27738056333365E-17,-1.));
#1150=CARTESIAN_POINT('',(6.50631575359976,-1.90014834772004,-5.4880488203149));
#1151=VECTOR('',#1152,1.);
#1152=DIRECTION('',(0.936802424594688,-0.349858853358771,2.03427468411792E-16));
#1153=CARTESIAN_POINT('',(14.686670629398,4.95496779238555,14.0119511796851));
#1154=CARTESIAN_POINT('',(-6.68477205989786,13.9844135560705,14.0119511796851));
#1155=AXIS2_PLACEMENT_3D('',#1156,#1157,#1158);
#1156=CARTESIAN_POINT('',(-2.57395367430155E-15,8.57984558159549E-16,14.0119511796851));
#1157=DIRECTION('',(1.83697019872103E-16,-6.12323399573676E-17,-1.));
#1158=DIRECTION('',(-0.431275616767604,0.902220229423905,-1.34469101348211E-16));
#1159=CARTESIAN_POINT('',(-6.68477205989786,13.9844135560705,-5.4880488203149));
#1160=CARTESIAN_POINT('',(-6.68477205989787,13.9844135560705,14.0119511796851));
#1161=VECTOR('',#1162,1.);
#1162=DIRECTION('',(4.09928501400057E-16,0.,-1.));
#1163=CARTESIAN_POINT('',(-14.6704489571398,5.00279196009135,-5.48804882031491));
#1164=AXIS2_PLACEMENT_3D('',#1165,#1166,#1167);
#1165=CARTESIAN_POINT('',(1.19183523307656E-15,-3.97278410907582E-16,-5.4880488203149));
#1166=DIRECTION('',(-1.83697019872103E-16,6.12323399573677E-17,1.));
#1167=DIRECTION('',(-0.431275616767604,0.902220229423905,-1.34469101348211E-16));
#1168=CARTESIAN_POINT('',(-14.6704489571398,5.00279196009135,14.0119511796851));
#1169=CARTESIAN_POINT('',(-14.6704489571398,5.00279196009135,14.0119511796851));
#1170=VECTOR('',#1171,1.);
#1171=DIRECTION('',(1.82190445066692E-16,-9.10952225333461E-17,-1.));
#1172=CARTESIAN_POINT('',(-14.6809035160334,-4.97202895736933,14.0119511796851));
#1173=AXIS2_PLACEMENT_3D('',#1174,#1175,#1176);
#1174=CARTESIAN_POINT('',(-2.57395367430155E-15,8.57984558159549E-16,14.0119511796851));
#1175=DIRECTION('',(1.83697019872103E-16,-6.12323399573677E-17,-1.));
#1176=DIRECTION('',(-0.94715506555054,-0.320776061765763,-1.54347694034174E-16));
#1177=CARTESIAN_POINT('',(-14.6809035160334,-4.97202895736934,-5.48804882031491));
#1178=CARTESIAN_POINT('',(-14.6809035160334,-4.97202895736934,14.0119511796851));
#1179=VECTOR('',#1180,1.);
#1180=DIRECTION('',(1.82190445066692E-16,-4.55476112666731E-17,-1.));
#1181=CARTESIAN_POINT('',(-6.65284350154941,-13.9996311859953,-5.4880488203149));
#1182=AXIS2_PLACEMENT_3D('',#1183,#1184,#1185);
#1183=CARTESIAN_POINT('',(1.19183523307656E-15,-3.97278410907582E-16,-5.4880488203149));
#1184=DIRECTION('',(-1.83697019872103E-16,6.12323399573677E-17,1.));
#1185=DIRECTION('',(-0.94715506555054,-0.320776061765764,-1.54347694034174E-16));
#1186=CARTESIAN_POINT('',(-6.65284350154942,-13.9996311859953,14.0119511796851));
#1187=CARTESIAN_POINT('',(-6.65284350154942,-13.9996311859953,14.0119511796851));
#1188=VECTOR('',#1189,1.);
#1189=DIRECTION('',(2.73285667600038E-16,1.82190445066692E-16,-1.));
#1190=AXIS2_PLACEMENT_3D('',#1191,#1192,#1193);
#1191=CARTESIAN_POINT('',(-2.57395367430155E-15,8.57984558159549E-16,14.0119511796851));
#1192=DIRECTION('',(1.83697019872103E-16,-6.12323399573677E-17,-1.));
#1193=DIRECTION('',(0.947522859403928,-0.319688021212877,1.936323711284E-16));
#1194=CARTESIAN_POINT('',(14.686670629398,4.95496779238554,-5.4880488203149));
#1195=AXIS2_PLACEMENT_3D('',#1196,#1197,#1198);
#1196=CARTESIAN_POINT('',(1.19183523307656E-15,-3.97278410907582E-16,-5.4880488203149));
#1197=DIRECTION('',(-1.83697019872103E-16,6.12323399573677E-17,1.));
#1198=DIRECTION('',(0.947522859403927,-0.319688021212877,1.936323711284E-16));
#1199=CARTESIAN_POINT('',(14.686670629398,4.95496779238554,14.0119511796851));
#1200=VECTOR('',#1201,1.);
#1201=DIRECTION('',(0.,9.10952225333461E-17,-1.));
#1202=CARTESIAN_POINT('',(-2.8058742522867E-16,-15.5,-8.80588653303127));
#1203=CARTESIAN_POINT('',(-6.65284350154941,-13.9996311859953,-8.80588653303127));
#1204=AXIS2_PLACEMENT_3D('',#1205,#1206,#1207);
#1205=CARTESIAN_POINT('',(1.61761511344973E-15,-5.39205037816577E-16,-8.80588653303127));
#1206=DIRECTION('',(-1.83697019872103E-16,6.12323399573677E-17,1.));
#1207=DIRECTION('',(-0.429215709777382,-0.903202011999696,-2.35404741194506E-17));
#1208=AXIS2_PLACEMENT_3D('',#1209,#1210,#1211);
#1209=CARTESIAN_POINT('',(1.61761511344973E-15,-5.39205037816577E-16,-8.80588653303127));
#1210=DIRECTION('',(-1.83697019872103E-16,6.12323399573677E-17,1.));
#1211=DIRECTION('',(5.55111512312578E-17,-1.,6.12323399573677E-17));
#1212=CARTESIAN_POINT('',(6.55595223846991,1.92230317028588,14.0119511796851));
#1213=CARTESIAN_POINT('',(6.55595223846992,1.92230317028588,-5.4880488203149));
#1214=CARTESIAN_POINT('',(6.55595223846992,1.92230317028588,14.0119511796851));
#1215=VECTOR('',#1216,1.);
#1216=DIRECTION('',(1.82190445066692E-16,2.27738056333365E-17,-1.));
#1217=CARTESIAN_POINT('',(14.686670629398,4.95496779238555,14.0119511796851));
#1218=VECTOR('',#1219,1.);
#1219=DIRECTION('',(-0.936947330819373,-0.34947059857798,-2.04699353640857E-16));
#1220=CARTESIAN_POINT('',(14.686670629398,4.95496779238555,-5.4880488203149));
#1221=VECTOR('',#1222,1.);
#1222=DIRECTION('',(-0.936947330819373,-0.34947059857798,-2.04699353640857E-16));
#1223=AXIS2_PLACEMENT_3D('',#1224,#1225,#1226);
#1224=CARTESIAN_POINT('',(-0.202286749789842,0.0985143180429215,-5.4880488203149));
#1225=DIRECTION('',(1.83697019872103E-16,-6.12323399573677E-17,-1.));
#1226=DIRECTION('',(0.965462712608537,0.260541264606137,1.61399071816539E-16));
#1227=CARTESIAN_POINT('',(-3.96021369374243,-5.80724431941553,14.0119511796851));
#1228=AXIS2_PLACEMENT_3D('',#1229,#1230,#1231);
#1229=CARTESIAN_POINT('',(-0.202286749789846,0.0985143180429227,14.0119511796851));
#1230=DIRECTION('',(-1.83697019872103E-16,6.12323399573677E-17,1.));
#1231=DIRECTION('',(-0.536846706278941,-0.843679805351208,-4.69566514151647E-17));
#1232=CARTESIAN_POINT('',(-3.96021369374243,-5.80724431941553,-5.4880488203149));
#1233=CARTESIAN_POINT('',(-3.96021369374243,-5.80724431941553,14.0119511796851));
#1234=VECTOR('',#1235,1.);
#1235=DIRECTION('',(2.96059473233375E-16,-9.10952225333461E-17,-1.));
#1236=CARTESIAN_POINT('',(-6.37854340727156,-3.19600441781407,-5.4880488203149));
#1237=AXIS2_PLACEMENT_3D('',#1238,#1239,#1240);
#1238=CARTESIAN_POINT('',(-0.202286749789842,0.0985143180429215,-5.4880488203149));
#1239=DIRECTION('',(1.83697019872103E-16,-6.12323399573676E-17,-1.));
#1240=DIRECTION('',(-0.536846706278941,-0.843679805351208,-4.69566514151647E-17));
#1241=CARTESIAN_POINT('',(-6.37854340727157,-3.19600441781407,14.0119511796851));
#1242=CARTESIAN_POINT('',(-6.37854340727157,-3.19600441781407,14.0119511796851));
#1243=VECTOR('',#1244,1.);
#1244=DIRECTION('',(1.36642833800019E-16,-9.10952225333461E-17,-1.));
#1245=CARTESIAN_POINT('',(-6.49565229880716,3.16340421271158,14.0119511796851));
#1246=AXIS2_PLACEMENT_3D('',#1247,#1248,#1249);
#1247=CARTESIAN_POINT('',(-0.202286749789846,0.0985143180429227,14.0119511796851));
#1248=DIRECTION('',(-1.83697019872103E-16,6.12323399573677E-17,1.));
#1249=DIRECTION('',(-0.899052221288187,0.437841413524094,-1.91963268040356E-16));
#1250=CARTESIAN_POINT('',(-6.49565229880715,3.16340421271158,-5.4880488203149));
#1251=CARTESIAN_POINT('',(-6.49565229880716,3.16340421271158,14.0119511796851));
#1252=VECTOR('',#1253,1.);
#1253=DIRECTION('',(2.73285667600038E-16,-9.10952225333461E-17,-1.));
#1254=CARTESIAN_POINT('',(-4.01150536041285,5.97132059583579,-5.4880488203149));
#1255=AXIS2_PLACEMENT_3D('',#1256,#1257,#1258);
#1256=CARTESIAN_POINT('',(-0.202286749789842,0.0985143180429215,-5.4880488203149));
#1257=DIRECTION('',(1.83697019872103E-16,-6.12323399573677E-17,-1.));
#1258=DIRECTION('',(-0.899052221288187,0.437841413524094,-1.91963268040356E-16));
#1259=CARTESIAN_POINT('',(-4.01150536041285,5.97132059583579,14.0119511796851));
#1260=CARTESIAN_POINT('',(-4.01150536041285,5.97132059583579,14.0119511796851));
#1261=VECTOR('',#1262,1.);
#1262=DIRECTION('',(3.18833278866711E-16,4.55476112666731E-17,-1.));
#1263=AXIS2_PLACEMENT_3D('',#1264,#1265,#1266);
#1264=CARTESIAN_POINT('',(-0.202286749789846,0.0985143180429227,14.0119511796851));
#1265=DIRECTION('',(-1.83697019872103E-16,6.12323399573677E-17,1.));
#1266=DIRECTION('',(0.965462712608537,0.260541264606137,1.61399071816539E-16));
#1267=CARTESIAN_POINT('',(-4.01150536041284,5.97132059583579,-7.9880488203149));
#1268=AXIS2_PLACEMENT_3D('',#1269,#1270,#1271);
#1269=CARTESIAN_POINT('',(-0.202286749789842,0.0985143180429213,-7.9880488203149));
#1270=DIRECTION('',(1.83697019872103E-16,-6.12323399573677E-17,-1.));
#1271=DIRECTION('',(-0.544174087231857,0.838972325398982,-1.51335396759768E-16));
#1272=CARTESIAN_POINT('',(-6.37854340727157,-3.19600441781407,14.0119511796851));
#1273=VECTOR('',#1274,1.);
#1274=DIRECTION('',(-0.977876016979066,-0.209185313579032,-2.09224452817104E-16));
#1275=CARTESIAN_POINT('',(-6.37854340727156,-3.19600441781407,-5.4880488203149));
#1276=VECTOR('',#1277,1.);
#1277=DIRECTION('',(-0.977876016979066,-0.209185313579032,-2.09224452817104E-16));
#1278=CARTESIAN_POINT('',(-6.65284350154942,-13.9996311859953,14.0119511796851));
#1279=VECTOR('',#1280,1.);
#1280=DIRECTION('',(0.312241785064525,0.950002667185581,2.05989263298563E-16));
#1281=CARTESIAN_POINT('',(-6.65284350154942,-13.9996311859953,-5.4880488203149));
#1282=VECTOR('',#1283,1.);
#1283=DIRECTION('',(0.312241785064525,0.950002667185582,-1.02994631649282E-16));
#1284=CARTESIAN_POINT('',(-14.6704489571398,5.00279196009135,14.0119511796851));
#1285=VECTOR('',#1286,1.);
#1286=DIRECTION('',(0.975608260928831,-0.219518840210636,2.11996515547553E-16));
#1287=CARTESIAN_POINT('',(-14.6704489571398,5.00279196009135,-5.48804882031491));
#1288=VECTOR('',#1289,1.);
#1289=DIRECTION('',(0.975608260928831,-0.219518840210636,2.11996515547553E-16));
#1290=CARTESIAN_POINT('',(-4.01150536041285,5.97132059583579,14.0119511796851));
#1291=VECTOR('',#1292,1.);
#1292=DIRECTION('',(-0.316465956851679,0.948603867878447,0.));
#1293=CARTESIAN_POINT('',(-4.01150536041285,5.97132059583579,-5.4880488203149));
#1294=VECTOR('',#1295,1.);
#1295=DIRECTION('',(-0.316465956851679,0.948603867878447,-2.10288209178351E-16));
#1296=CARTESIAN_POINT('',(-2.02286261468524E-15,-30.,11.0119511796851));
#1297=CARTESIAN_POINT('',(-17.6347824333808,-24.2696198677957,11.0119511796851));
#1298=AXIS2_PLACEMENT_3D('',#1299,#1300,#1301);
#1299=CARTESIAN_POINT('',(-2.02286261468525E-15,6.74287538228417E-16,11.0119511796851));
#1300=DIRECTION('',(1.83697019872103E-16,-6.12323399573677E-17,-1.));
#1301=DIRECTION('',(-1.11022302462516E-15,-1.,6.12323399573674E-17));
#1302=CARTESIAN_POINT('',(-27.7701947086191,-11.3497262453932,11.0119511796851));
#1303=AXIS2_PLACEMENT_3D('',#1304,#1305,#1306);
#1304=CARTESIAN_POINT('',(-2.02286261468524E-15,6.74287538228414E-16,11.0119511796851));
#1305=DIRECTION('',(-1.83697019872103E-16,6.12323399573677E-17,1.));
#1306=DIRECTION('',(-0.925673156953978,-0.378324208179777,-1.46877723778681E-16));
#1307=CARTESIAN_POINT('',(-28.9518933106158,-7.8605263011264,11.0119511796851));
#1308=AXIS2_PLACEMENT_3D('',#1309,#1310,#1311);
#1309=CARTESIAN_POINT('',(-2.02286261468525E-15,6.74287538228417E-16,11.0119511796851));
#1310=DIRECTION('',(1.83697019872103E-16,-6.12323399573677E-17,-1.));
#1311=DIRECTION('',(-0.925673156953978,-0.378324208179778,-1.46877723778681E-16));
#1312=CARTESIAN_POINT('',(-28.7530586607678,8.55930006778707,11.0119511796851));
#1313=AXIS2_PLACEMENT_3D('',#1314,#1315,#1316);
#1314=CARTESIAN_POINT('',(-2.02286261468524E-15,6.74287538228414E-16,11.0119511796851));
#1315=DIRECTION('',(-1.83697019872103E-16,6.12323399573677E-17,1.));
#1316=DIRECTION('',(-0.958435288692274,0.285310002259574,-1.93531905324625E-16));
#1317=CARTESIAN_POINT('',(-27.991893143191,10.7913816659478,11.0119511796851));
#1318=AXIS2_PLACEMENT_3D('',#1319,#1320,#1321);
#1319=CARTESIAN_POINT('',(-2.02286261468525E-15,6.74287538228417E-16,11.0119511796851));
#1320=DIRECTION('',(1.83697019872103E-16,-6.12323399573677E-17,-1.));
#1321=DIRECTION('',(-0.958435288692274,0.285310002259574,-1.93531905324625E-16));
#1322=CARTESIAN_POINT('',(-18.11722030453,23.9116358377487,11.0119511796851));
#1323=AXIS2_PLACEMENT_3D('',#1324,#1325,#1326);
#1324=CARTESIAN_POINT('',(-2.02286261468524E-15,6.74287538228414E-16,11.0119511796851));
#1325=DIRECTION('',(-1.83697019872103E-16,6.12323399573677E-17,1.));
#1326=DIRECTION('',(-0.60390734348434,0.797054527924964,-1.59741493095412E-16));
#1327=AXIS2_PLACEMENT_3D('',#1328,#1329,#1330);
#1328=CARTESIAN_POINT('',(-2.02286261468525E-15,6.74287538228417E-16,11.0119511796851));
#1329=DIRECTION('',(1.83697019872103E-16,-6.12323399573677E-17,-1.));
#1330=DIRECTION('',(-0.603907343484338,0.797054527924965,-1.59741493095412E-16));
#1331=CARTESIAN_POINT('',(-18.1172203045302,23.9116358377489,14.0119511796851));
#1332=CARTESIAN_POINT('',(-17.634782433381,-24.269619867796,14.0119511796851));
#1333=AXIS2_PLACEMENT_3D('',#1334,#1335,#1336);
#1334=CARTESIAN_POINT('',(-2.57395367430155E-15,8.5798455815366E-16,14.0119511796851));
#1335=DIRECTION('',(1.83697019872103E-16,-6.12323399573677E-17,-1.));
#1336=DIRECTION('',(-0.603907343484339,0.797054527924965,-1.59741493095412E-16));
#1337=CARTESIAN_POINT('',(-17.634782433381,-24.269619867796,11.0119511796851));
#1338=VECTOR('',#1339,1.);
#1339=DIRECTION('',(0.,0.,1.));
#1340=CARTESIAN_POINT('',(-18.1172203045302,23.9116358377489,11.0119511796851));
#1341=VECTOR('',#1342,1.);
#1342=DIRECTION('',(0.,0.,1.));
#1343=CARTESIAN_POINT('',(-27.7701947086194,-11.3497262453933,14.0119511796851));
#1344=CARTESIAN_POINT('',(-28.9518933106161,-7.86052630112649,14.0119511796851));
#1345=AXIS2_PLACEMENT_3D('',#1346,#1347,#1348);
#1346=CARTESIAN_POINT('',(-2.57395367430155E-15,8.5798455815366E-16,14.0119511796851));
#1347=DIRECTION('',(1.83697019872103E-16,-6.12323399573677E-17,-1.));
#1348=DIRECTION('',(-0.925673156953978,-0.378324208179777,-1.46877723778681E-16));
#1349=CARTESIAN_POINT('',(-28.9518933106161,-7.86052630112648,11.0119511796851));
#1350=VECTOR('',#1351,1.);
#1351=DIRECTION('',(0.,0.,1.));
#1352=CARTESIAN_POINT('',(-27.7701947086194,-11.3497262453933,11.0119511796851));
#1353=VECTOR('',#1354,1.);
#1354=DIRECTION('',(0.,0.,1.));
#1355=CARTESIAN_POINT('',(-28.7530586607682,8.55930006778721,14.0119511796851));
#1356=CARTESIAN_POINT('',(-27.9918931431913,10.791381665948,14.0119511796851));
#1357=AXIS2_PLACEMENT_3D('',#1358,#1359,#1360);
#1358=CARTESIAN_POINT('',(-2.57395367430155E-15,8.5798455815366E-16,14.0119511796851));
#1359=DIRECTION('',(1.83697019872103E-16,-6.12323399573677E-17,-1.));
#1360=DIRECTION('',(-0.958435288692274,0.285310002259573,-1.93531905324625E-16));
#1361=CARTESIAN_POINT('',(-27.9918931431913,10.791381665948,11.0119511796851));
#1362=VECTOR('',#1363,1.);
#1363=DIRECTION('',(0.,0.,1.));
#1364=CARTESIAN_POINT('',(-28.7530586607682,8.55930006778721,11.0119511796851));
#1365=VECTOR('',#1366,1.);
#1366=DIRECTION('',(0.,0.,1.));
#1367=CARTESIAN_POINT('',(-29.0759265342802,13.3515490323199,11.0119511796851));
#1368=CARTESIAN_POINT('',(-20.8774067511169,24.2447365986459,11.0119511796851));
#1369=AXIS2_PLACEMENT_3D('',#1370,#1371,#1372);
#1370=CARTESIAN_POINT('',(-26.3292566963176,19.8161401872885,11.0119511796851));
#1371=DIRECTION('',(1.83697019872103E-16,-6.12323399573677E-17,-1.));
#1372=DIRECTION('',(-0.391046409228618,-0.92037096098769,-1.54775924368966E-17));
#1373=AXIS2_PLACEMENT_3D('',#1374,#1375,#1376);
#1374=CARTESIAN_POINT('',(-19.3250349914989,25.5057448935989,11.0119511796851));
#1375=DIRECTION('',(1.83697019872103E-16,-6.12323399573677E-17,-1.));
#1376=DIRECTION('',(0.60390734348434,-0.797054527924964,1.59741493095412E-16));
#1377=AXIS2_PLACEMENT_3D('',#1378,#1379,#1380);
#1378=CARTESIAN_POINT('',(-29.8580193527374,11.5108071103445,11.0119511796851));
#1379=DIRECTION('',(-1.83697019872103E-16,6.12323399573677E-17,1.));
#1380=DIRECTION('',(0.933063104773044,-0.359712722198267,1.93426963392054E-16));
#1381=CARTESIAN_POINT('',(-26.3292566963176,21.3161401872885,11.0119511796851));
#1382=AXIS2_PLACEMENT_3D('',#1383,#1384,#1385);
#1383=CARTESIAN_POINT('',(-26.3292566963176,19.8161401872885,11.0119511796851));
#1384=DIRECTION('',(1.83697019872103E-16,-6.12323399573677E-17,-1.));
#1385=DIRECTION('',(-6.12323399573676E-17,1.,-6.12323399573677E-17));
#1386=CARTESIAN_POINT('',(-31.3405133567351,-6.4378247821458,11.0119511796851));
#1387=AXIS2_PLACEMENT_3D('',#1388,#1389,#1390);
#1388=CARTESIAN_POINT('',(-30.8820195313239,-8.38456138786825,11.0119511796851));
#1389=DIRECTION('',(-1.83697019872103E-16,6.12323399573677E-17,1.));
#1390=DIRECTION('',(0.965063110353871,0.262017543370884,1.61235270070028E-16));
#1391=CARTESIAN_POINT('',(-31.1754294256529,7.19485687942678,11.0119511796851));
#1392=AXIS2_PLACEMENT_3D('',#1393,#1394,#1395);
#1393=CARTESIAN_POINT('',(-32.9507201396502,0.399014262027022,11.0119511796851));
#1394=DIRECTION('',(1.83697019872103E-16,-6.12323399573677E-17,-1.));
#1395=DIRECTION('',(0.229246912705606,-0.973368302861229,1.01713593503425E-16));
#1396=AXIS2_PLACEMENT_3D('',#1397,#1398,#1399);
#1397=CARTESIAN_POINT('',(-30.6699292381528,9.12992007230636,11.0119511796851));
#1398=DIRECTION('',(1.83697019872103E-16,-6.12323399573677E-17,-1.));
#1399=DIRECTION('',(0.958435288692274,-0.285310002259574,1.93531905324625E-16));
#1400=CARTESIAN_POINT('',(-32.9507201396502,1.89901426202702,11.0119511796851));
#1401=AXIS2_PLACEMENT_3D('',#1402,#1403,#1404);
#1402=CARTESIAN_POINT('',(-32.9507201396502,0.399014262027022,11.0119511796851));
#1403=DIRECTION('',(1.83697019872103E-16,-6.12323399573677E-17,-1.));
#1404=DIRECTION('',(-6.12323399573676E-17,1.,-6.12323399573677E-17));
#1405=CARTESIAN_POINT('',(-20.3877454716301,-24.6579236752271,11.0119511796851));
#1406=AXIS2_PLACEMENT_3D('',#1407,#1408,#1409);
#1407=CARTESIAN_POINT('',(-18.8104345956064,-25.887594525649,11.0119511796851));
#1408=DIRECTION('',(-1.83697019872103E-16,6.12323399573677E-17,1.));
#1409=DIRECTION('',(0.587826081112698,0.808987328926534,5.84457121574674E-17));
#1410=CARTESIAN_POINT('',(-28.8027460905593,-13.9310869293128,11.0119511796851));
#1411=AXIS2_PLACEMENT_3D('',#1412,#1413,#1414);
#1412=CARTESIAN_POINT('',(-25.9271803136617,-20.3393827606869,11.0119511796851));
#1413=DIRECTION('',(1.83697019872103E-16,-6.12323399573677E-17,-1.));
#1414=DIRECTION('',(0.788655438011853,-0.614835425210952,1.82521465443055E-16));
#1415=AXIS2_PLACEMENT_3D('',#1416,#1417,#1418);
#1416=CARTESIAN_POINT('',(-29.6215410225273,-12.1063746617529,11.0119511796851));
#1417=DIRECTION('',(1.83697019872103E-16,-6.12323399573677E-17,-1.));
#1418=DIRECTION('',(0.925673156953978,0.378324208179778,1.46877723778681E-16));
#1419=CARTESIAN_POINT('',(-25.9271803136617,-18.8393827606869,11.0119511796851));
#1420=AXIS2_PLACEMENT_3D('',#1421,#1422,#1423);
#1421=CARTESIAN_POINT('',(-25.9271803136617,-20.3393827606869,11.0119511796851));
#1422=DIRECTION('',(1.83697019872103E-16,-6.12323399573677E-17,-1.));
#1423=DIRECTION('',(-6.12323399573676E-17,1.,-6.12323399573677E-17));
#1424=CARTESIAN_POINT('',(-31.3405133567351,-6.43782478214579,14.0119511796851));
#1425=CARTESIAN_POINT('',(-31.1754294256529,7.19485687942678,14.0119511796851));
#1426=AXIS2_PLACEMENT_3D('',#1427,#1428,#1429);
#1427=CARTESIAN_POINT('',(-32.9507201396502,0.399014262027022,14.0119511796851));
#1428=DIRECTION('',(1.83697019872103E-16,-6.12323399573677E-17,-1.));
#1429=DIRECTION('',(0.229246912705606,-0.973368302861229,1.01713593503425E-16));
#1430=AXIS2_PLACEMENT_3D('',#1431,#1432,#1433);
#1431=CARTESIAN_POINT('',(-30.8820195313239,-8.38456138786825,14.0119511796851));
#1432=DIRECTION('',(-1.83697019872103E-16,6.12323399573676E-17,1.));
#1433=DIRECTION('',(0.965063110353873,0.262017543370876,1.61235270070029E-16));
#1434=CARTESIAN_POINT('',(-28.8027460905593,-13.9310869293128,14.0119511796851));
#1435=AXIS2_PLACEMENT_3D('',#1436,#1437,#1438);
#1436=CARTESIAN_POINT('',(-29.6215410225273,-12.1063746617529,14.0119511796851));
#1437=DIRECTION('',(-1.83697019872103E-16,6.12323399573677E-17,1.));
#1438=DIRECTION('',(0.40939746598398,-0.912356133779949,1.31070795390251E-16));
#1439=CARTESIAN_POINT('',(-20.3877454716301,-24.6579236752271,14.0119511796851));
#1440=AXIS2_PLACEMENT_3D('',#1441,#1442,#1443);
#1441=CARTESIAN_POINT('',(-25.9271803136617,-20.3393827606869,14.0119511796851));
#1442=DIRECTION('',(1.83697019872103E-16,-6.12323399573677E-17,-1.));
#1443=DIRECTION('',(0.788655438011854,-0.614835425210951,1.82521465443055E-16));
#1444=AXIS2_PLACEMENT_3D('',#1445,#1446,#1447);
#1445=CARTESIAN_POINT('',(-18.8104345956064,-25.887594525649,14.0119511796851));
#1446=DIRECTION('',(-1.83697019872103E-16,6.12323399573677E-17,1.));
#1447=DIRECTION('',(0.587826081112699,0.808987328926533,5.84457121574676E-17));
#1448=CARTESIAN_POINT('',(-20.8774067511169,24.2447365986459,14.0119511796851));
#1449=AXIS2_PLACEMENT_3D('',#1450,#1451,#1452);
#1450=CARTESIAN_POINT('',(-19.3250349914989,25.5057448935989,14.0119511796851));
#1451=DIRECTION('',(-1.83697019872103E-16,6.12323399573677E-17,1.));
#1452=DIRECTION('',(-0.776185879809036,-0.630504147476504,-1.03975788684915E-16));
#1453=CARTESIAN_POINT('',(-29.0759265342802,13.3515490323199,14.0119511796851));
#1454=AXIS2_PLACEMENT_3D('',#1455,#1456,#1457);
#1455=CARTESIAN_POINT('',(-26.3292566963176,19.8161401872885,14.0119511796851));
#1456=DIRECTION('',(1.83697019872103E-16,-6.12323399573677E-17,-1.));
#1457=DIRECTION('',(-0.391046409228619,-0.92037096098769,-1.54775924368966E-17));
#1458=AXIS2_PLACEMENT_3D('',#1459,#1460,#1461);
#1459=CARTESIAN_POINT('',(-29.8580193527374,11.5108071103445,14.0119511796851));
#1460=DIRECTION('',(-1.83697019872103E-16,6.12323399573677E-17,1.));
#1461=DIRECTION('',(0.933063104773046,-0.359712722198262,1.93426963392054E-16));
#1462=AXIS2_PLACEMENT_3D('',#1463,#1464,#1465);
#1463=CARTESIAN_POINT('',(-30.6699292381528,9.12992007230636,14.0119511796851));
#1464=DIRECTION('',(-1.83697019872103E-16,6.12323399573677E-17,1.));
#1465=DIRECTION('',(-0.25275009375008,-0.967531596439789,1.28147846384114E-17));
#1466=CARTESIAN_POINT('',(-25.9271803136617,-18.8393827606869,14.0119511796851));
#1467=AXIS2_PLACEMENT_3D('',#1468,#1469,#1470);
#1468=CARTESIAN_POINT('',(-25.9271803136617,-20.3393827606869,14.0119511796851));
#1469=DIRECTION('',(1.83697019872103E-16,-6.12323399573677E-17,-1.));
#1470=DIRECTION('',(-6.12323399573676E-17,1.,-6.12323399573677E-17));
#1471=CARTESIAN_POINT('',(-32.9507201396502,1.89901426202702,14.0119511796851));
#1472=AXIS2_PLACEMENT_3D('',#1473,#1474,#1475);
#1473=CARTESIAN_POINT('',(-32.9507201396502,0.399014262027022,14.0119511796851));
#1474=DIRECTION('',(1.83697019872103E-16,-6.12323399573677E-17,-1.));
#1475=DIRECTION('',(-6.12323399573676E-17,1.,-6.12323399573677E-17));
#1476=CARTESIAN_POINT('',(-26.3292566963176,21.3161401872885,14.0119511796851));
#1477=AXIS2_PLACEMENT_3D('',#1478,#1479,#1480);
#1478=CARTESIAN_POINT('',(-26.3292566963176,19.8161401872885,14.0119511796851));
#1479=DIRECTION('',(1.83697019872103E-16,-6.12323399573677E-17,-1.));
#1480=DIRECTION('',(-6.12323399573676E-17,1.,-6.12323399573677E-17));
#1481=CARTESIAN_POINT('',(-2.92315718594913,4.29337594503783,-9.9880488203149));
#1482=AXIS2_PLACEMENT_3D('',#1483,#1484,#1485);
#1483=CARTESIAN_POINT('',(-0.202286749789841,0.0985143180429212,-9.9880488203149));
#1484=DIRECTION('',(1.83697019872103E-16,-6.12323399573677E-17,-1.));
#1485=DIRECTION('',(-0.544174087231857,0.838972325398982,-1.51335396759768E-16));
#1486=CARTESIAN_POINT('',(-20.3877454716301,-24.6579236752271,11.0119511796851));
#1487=VECTOR('',#1488,1.);
#1488=DIRECTION('',(-1.1842378929335E-15,0.,1.));
#1489=CARTESIAN_POINT('',(-28.8027460905593,-13.9310869293128,11.0119511796851));
#1490=VECTOR('',#1491,1.);
#1491=DIRECTION('',(0.,0.,1.));
#1492=CARTESIAN_POINT('',(-20.8774067511169,24.2447365986459,11.0119511796851));
#1493=VECTOR('',#1494,1.);
#1494=DIRECTION('',(0.,0.,1.));
#1495=CARTESIAN_POINT('',(-29.0759265342802,13.3515490323199,11.0119511796851));
#1496=VECTOR('',#1497,1.);
#1497=DIRECTION('',(0.,0.,1.));
#1498=CARTESIAN_POINT('',(-31.3405133567351,-6.4378247821458,11.0119511796851));
#1499=VECTOR('',#1500,1.);
#1500=DIRECTION('',(0.,0.,1.));
#1501=CARTESIAN_POINT('',(-31.1754294256529,7.19485687942678,11.0119511796851));
#1502=VECTOR('',#1503,1.);
#1503=DIRECTION('',(0.,0.,1.));
ENDSEC;
END-ISO-10303-21;
