ISO-10303-21;
HEADER;
/* Generated by software containing ST-Developer
 * from STEP Tools, Inc. (www.steptools.com) 
 */

FILE_DESCRIPTION(
/* description */ (''),
/* implementation_level */ '2;1');

FILE_NAME(
/* name */ '',
/* time_stamp */ '2024-02-06T20:13:02+03:00',
/* author */ ('I9232'),
/* organization */ (''),
/* preprocessor_version */ 'ST-DEVELOPER v19.2',
/* originating_system */ 'Autodesk Inventor 2023',
/* authorisation */ '');

FILE_SCHEMA (('AUTOMOTIVE_DESIGN { 1 0 10303 214 3 1 1 }'));
ENDSEC;

DATA;
#10=MECHANICAL_DESIGN_GEOMETRIC_PRESENTATION_REPRESENTATION('',(#13),#274);
#11=SHAPE_REPRESENTATION_RELATIONSHIP('SRR','None',#281,#12);
#12=ADVANCED_BREP_SHAPE_REPRESENTATION('',(#14),#273);
#13=STYLED_ITEM('',(#290),#14);
#14=MANIFOLD_SOLID_BREP('\X2\04220432043504400434043E0435\X0\ \X2\04420435043B043E\X0\1',
#149);
#15=CYLINDRICAL_SURFACE('',#177,1.25);
#16=CYLINDRICAL_SURFACE('',#179,1.25);
#17=CYLINDRICAL_SURFACE('',#181,2.5);
#18=CYLINDRICAL_SURFACE('',#184,2.5);
#19=FACE_BOUND('',#32,.T.);
#20=FACE_BOUND('',#33,.T.);
#21=FACE_BOUND('',#41,.T.);
#22=FACE_BOUND('',#42,.T.);
#23=FACE_OUTER_BOUND('',#31,.T.);
#24=FACE_OUTER_BOUND('',#34,.T.);
#25=FACE_OUTER_BOUND('',#35,.T.);
#26=FACE_OUTER_BOUND('',#36,.T.);
#27=FACE_OUTER_BOUND('',#37,.T.);
#28=FACE_OUTER_BOUND('',#38,.T.);
#29=FACE_OUTER_BOUND('',#39,.T.);
#30=FACE_OUTER_BOUND('',#40,.T.);
#31=EDGE_LOOP('',(#101,#102,#103,#104));
#32=EDGE_LOOP('',(#105));
#33=EDGE_LOOP('',(#106));
#34=EDGE_LOOP('',(#107,#108,#109,#110));
#35=EDGE_LOOP('',(#111,#112,#113,#114));
#36=EDGE_LOOP('',(#115,#116,#117,#118));
#37=EDGE_LOOP('',(#119,#120,#121,#122));
#38=EDGE_LOOP('',(#123,#124,#125,#126));
#39=EDGE_LOOP('',(#127,#128,#129,#130));
#40=EDGE_LOOP('',(#131,#132,#133,#134));
#41=EDGE_LOOP('',(#135));
#42=EDGE_LOOP('',(#136));
#43=CIRCLE('',#173,2.5);
#44=CIRCLE('',#174,2.5);
#45=CIRCLE('',#175,1.25);
#46=CIRCLE('',#176,1.25);
#47=CIRCLE('',#178,1.25);
#48=CIRCLE('',#180,1.25);
#49=CIRCLE('',#182,2.5);
#50=CIRCLE('',#185,2.5);
#51=LINE('',#236,#61);
#52=LINE('',#240,#62);
#53=LINE('',#249,#63);
#54=LINE('',#253,#64);
#55=LINE('',#256,#65);
#56=LINE('',#259,#66);
#57=LINE('',#262,#67);
#58=LINE('',#263,#68);
#59=LINE('',#267,#69);
#60=LINE('',#269,#70);
#61=VECTOR('',#192,10.);
#62=VECTOR('',#195,10.);
#63=VECTOR('',#206,1.25);
#64=VECTOR('',#211,1.25);
#65=VECTOR('',#214,10.);
#66=VECTOR('',#217,10.);
#67=VECTOR('',#220,10.);
#68=VECTOR('',#221,10.);
#69=VECTOR('',#226,10.);
#70=VECTOR('',#229,10.);
#71=VERTEX_POINT('',#234);
#72=VERTEX_POINT('',#235);
#73=VERTEX_POINT('',#237);
#74=VERTEX_POINT('',#239);
#75=VERTEX_POINT('',#242);
#76=VERTEX_POINT('',#244);
#77=VERTEX_POINT('',#247);
#78=VERTEX_POINT('',#251);
#79=VERTEX_POINT('',#255);
#80=VERTEX_POINT('',#257);
#81=VERTEX_POINT('',#261);
#82=VERTEX_POINT('',#265);
#83=EDGE_CURVE('',#71,#72,#51,.T.);
#84=EDGE_CURVE('',#72,#73,#43,.T.);
#85=EDGE_CURVE('',#73,#74,#52,.T.);
#86=EDGE_CURVE('',#74,#71,#44,.T.);
#87=EDGE_CURVE('',#75,#75,#45,.T.);
#88=EDGE_CURVE('',#76,#76,#46,.T.);
#89=EDGE_CURVE('',#77,#77,#47,.T.);
#90=EDGE_CURVE('',#77,#76,#53,.T.);
#91=EDGE_CURVE('',#78,#78,#48,.T.);
#92=EDGE_CURVE('',#78,#75,#54,.T.);
#93=EDGE_CURVE('',#79,#72,#55,.T.);
#94=EDGE_CURVE('',#80,#79,#49,.T.);
#95=EDGE_CURVE('',#73,#80,#56,.T.);
#96=EDGE_CURVE('',#81,#80,#57,.T.);
#97=EDGE_CURVE('',#74,#81,#58,.T.);
#98=EDGE_CURVE('',#82,#81,#50,.T.);
#99=EDGE_CURVE('',#71,#82,#59,.T.);
#100=EDGE_CURVE('',#79,#82,#60,.T.);
#101=ORIENTED_EDGE('',*,*,#83,.T.);
#102=ORIENTED_EDGE('',*,*,#84,.T.);
#103=ORIENTED_EDGE('',*,*,#85,.T.);
#104=ORIENTED_EDGE('',*,*,#86,.T.);
#105=ORIENTED_EDGE('',*,*,#87,.T.);
#106=ORIENTED_EDGE('',*,*,#88,.T.);
#107=ORIENTED_EDGE('',*,*,#89,.F.);
#108=ORIENTED_EDGE('',*,*,#90,.T.);
#109=ORIENTED_EDGE('',*,*,#88,.F.);
#110=ORIENTED_EDGE('',*,*,#90,.F.);
#111=ORIENTED_EDGE('',*,*,#91,.F.);
#112=ORIENTED_EDGE('',*,*,#92,.T.);
#113=ORIENTED_EDGE('',*,*,#87,.F.);
#114=ORIENTED_EDGE('',*,*,#92,.F.);
#115=ORIENTED_EDGE('',*,*,#93,.F.);
#116=ORIENTED_EDGE('',*,*,#94,.F.);
#117=ORIENTED_EDGE('',*,*,#95,.F.);
#118=ORIENTED_EDGE('',*,*,#84,.F.);
#119=ORIENTED_EDGE('',*,*,#95,.T.);
#120=ORIENTED_EDGE('',*,*,#96,.F.);
#121=ORIENTED_EDGE('',*,*,#97,.F.);
#122=ORIENTED_EDGE('',*,*,#85,.F.);
#123=ORIENTED_EDGE('',*,*,#97,.T.);
#124=ORIENTED_EDGE('',*,*,#98,.F.);
#125=ORIENTED_EDGE('',*,*,#99,.F.);
#126=ORIENTED_EDGE('',*,*,#86,.F.);
#127=ORIENTED_EDGE('',*,*,#99,.T.);
#128=ORIENTED_EDGE('',*,*,#100,.F.);
#129=ORIENTED_EDGE('',*,*,#93,.T.);
#130=ORIENTED_EDGE('',*,*,#83,.F.);
#131=ORIENTED_EDGE('',*,*,#100,.T.);
#132=ORIENTED_EDGE('',*,*,#98,.T.);
#133=ORIENTED_EDGE('',*,*,#96,.T.);
#134=ORIENTED_EDGE('',*,*,#94,.T.);
#135=ORIENTED_EDGE('',*,*,#91,.T.);
#136=ORIENTED_EDGE('',*,*,#89,.T.);
#137=PLANE('',#172);
#138=PLANE('',#183);
#139=PLANE('',#186);
#140=PLANE('',#187);
#141=ADVANCED_FACE('',(#23,#19,#20),#137,.F.);
#142=ADVANCED_FACE('',(#24),#15,.F.);
#143=ADVANCED_FACE('',(#25),#16,.F.);
#144=ADVANCED_FACE('',(#26),#17,.T.);
#145=ADVANCED_FACE('',(#27),#138,.T.);
#146=ADVANCED_FACE('',(#28),#18,.T.);
#147=ADVANCED_FACE('',(#29),#139,.T.);
#148=ADVANCED_FACE('',(#30,#21,#22),#140,.T.);
#149=CLOSED_SHELL('',(#141,#142,#143,#144,#145,#146,#147,#148));
#150=DERIVED_UNIT_ELEMENT(#153,1.);
#151=DERIVED_UNIT_ELEMENT(#276,-3.);
#152=DIMENSIONAL_EXPONENTS(0.,1.,0.,0.,0.,0.,0.);
#153=(
CONVERSION_BASED_UNIT('gram',#155)
MASS_UNIT()
NAMED_UNIT(#152)
);
#154=(
MASS_UNIT()
NAMED_UNIT(*)
SI_UNIT(.KILO.,.GRAM.)
);
#155=MASS_MEASURE_WITH_UNIT(MASS_MEASURE(0.001),#154);
#156=DERIVED_UNIT((#150,#151));
#157=MEASURE_REPRESENTATION_ITEM('density measure',
POSITIVE_RATIO_MEASURE(1.),#156);
#158=PROPERTY_DEFINITION_REPRESENTATION(#163,#160);
#159=PROPERTY_DEFINITION_REPRESENTATION(#164,#161);
#160=REPRESENTATION('material name',(#162),#273);
#161=REPRESENTATION('density',(#157),#273);
#162=DESCRIPTIVE_REPRESENTATION_ITEM('\X2\04220438043F043E0432044B0435\X0\',
'\X2\04220438043F043E0432044B0435\X0\');
#163=PROPERTY_DEFINITION('material property','material name',#283);
#164=PROPERTY_DEFINITION('material property','density of part',#283);
#165=DATE_TIME_ROLE('creation_date');
#166=APPLIED_DATE_AND_TIME_ASSIGNMENT(#167,#165,(#283));
#167=DATE_AND_TIME(#168,#169);
#168=CALENDAR_DATE(2024,6,2);
#169=LOCAL_TIME(0,0,0.,#170);
#170=COORDINATED_UNIVERSAL_TIME_OFFSET(0,0,.BEHIND.);
#171=AXIS2_PLACEMENT_3D('',#232,#188,#189);
#172=AXIS2_PLACEMENT_3D('',#233,#190,#191);
#173=AXIS2_PLACEMENT_3D('',#238,#193,#194);
#174=AXIS2_PLACEMENT_3D('',#241,#196,#197);
#175=AXIS2_PLACEMENT_3D('',#243,#198,#199);
#176=AXIS2_PLACEMENT_3D('',#245,#200,#201);
#177=AXIS2_PLACEMENT_3D('',#246,#202,#203);
#178=AXIS2_PLACEMENT_3D('',#248,#204,#205);
#179=AXIS2_PLACEMENT_3D('',#250,#207,#208);
#180=AXIS2_PLACEMENT_3D('',#252,#209,#210);
#181=AXIS2_PLACEMENT_3D('',#254,#212,#213);
#182=AXIS2_PLACEMENT_3D('',#258,#215,#216);
#183=AXIS2_PLACEMENT_3D('',#260,#218,#219);
#184=AXIS2_PLACEMENT_3D('',#264,#222,#223);
#185=AXIS2_PLACEMENT_3D('',#266,#224,#225);
#186=AXIS2_PLACEMENT_3D('',#268,#227,#228);
#187=AXIS2_PLACEMENT_3D('',#270,#230,#231);
#188=DIRECTION('axis',(0.,0.,1.));
#189=DIRECTION('refdir',(1.,0.,0.));
#190=DIRECTION('center_axis',(0.,1.,0.));
#191=DIRECTION('ref_axis',(0.,0.,1.));
#192=DIRECTION('',(1.,0.,-3.52886401711857E-16));
#193=DIRECTION('center_axis',(0.,-1.,0.));
#194=DIRECTION('ref_axis',(-0.906232231729279,0.,0.422780252820505));
#195=DIRECTION('',(-1.,0.,9.92443949165695E-17));
#196=DIRECTION('center_axis',(0.,-1.,0.));
#197=DIRECTION('ref_axis',(0.906232231729279,0.,-0.422780252820505));
#198=DIRECTION('center_axis',(0.,1.,0.));
#199=DIRECTION('ref_axis',(1.,0.,0.));
#200=DIRECTION('center_axis',(0.,1.,0.));
#201=DIRECTION('ref_axis',(1.,0.,0.));
#202=DIRECTION('center_axis',(0.,1.,0.));
#203=DIRECTION('ref_axis',(1.,0.,0.));
#204=DIRECTION('center_axis',(0.,-1.,0.));
#205=DIRECTION('ref_axis',(1.,0.,0.));
#206=DIRECTION('',(0.,-1.,0.));
#207=DIRECTION('center_axis',(0.,1.,0.));
#208=DIRECTION('ref_axis',(1.,0.,0.));
#209=DIRECTION('center_axis',(0.,-1.,0.));
#210=DIRECTION('ref_axis',(1.,0.,0.));
#211=DIRECTION('',(0.,-1.,0.));
#212=DIRECTION('center_axis',(0.,1.,0.));
#213=DIRECTION('ref_axis',(1.,0.,0.));
#214=DIRECTION('',(0.,-1.,0.));
#215=DIRECTION('center_axis',(0.,1.,0.));
#216=DIRECTION('ref_axis',(-0.906232231729279,0.,0.422780252820505));
#217=DIRECTION('',(0.,1.,0.));
#218=DIRECTION('center_axis',(9.92443949165695E-17,0.,1.));
#219=DIRECTION('ref_axis',(1.,0.,-9.92443949165695E-17));
#220=DIRECTION('',(1.,0.,-9.92443949165695E-17));
#221=DIRECTION('',(0.,1.,0.));
#222=DIRECTION('center_axis',(0.,1.,0.));
#223=DIRECTION('ref_axis',(-1.,0.,2.22044604925031E-16));
#224=DIRECTION('center_axis',(0.,1.,0.));
#225=DIRECTION('ref_axis',(0.906232231729279,0.,-0.422780252820505));
#226=DIRECTION('',(0.,1.,0.));
#227=DIRECTION('center_axis',(-3.52886401711857E-16,0.,-1.));
#228=DIRECTION('ref_axis',(-1.,0.,3.52886401711857E-16));
#229=DIRECTION('',(-1.,0.,3.52886401711857E-16));
#230=DIRECTION('center_axis',(0.,1.,0.));
#231=DIRECTION('ref_axis',(0.,0.,1.));
#232=CARTESIAN_POINT('',(0.,0.,0.));
#233=CARTESIAN_POINT('Origin',(0.,-1.5,2.77555756156289E-16));
#234=CARTESIAN_POINT('',(-7.7344194206768,-1.5,-1.05695063205126));
#235=CARTESIAN_POINT('',(7.7344194206768,-1.5,-1.05695063205127));
#236=CARTESIAN_POINT('',(7.7344194206768,-1.5,-1.05695063205127));
#237=CARTESIAN_POINT('',(7.7344194206768,-1.5,1.05695063205126));
#238=CARTESIAN_POINT('Origin',(10.,-1.5,0.));
#239=CARTESIAN_POINT('',(-7.7344194206768,-1.5,1.05695063205126));
#240=CARTESIAN_POINT('',(-7.7344194206768,-1.5,1.05695063205126));
#241=CARTESIAN_POINT('Origin',(-10.,-1.5,0.));
#242=CARTESIAN_POINT('',(-11.25,-1.5,1.38777878078145E-16));
#243=CARTESIAN_POINT('Origin',(-10.,-1.5,0.));
#244=CARTESIAN_POINT('',(8.75,-1.5,1.38777878078145E-16));
#245=CARTESIAN_POINT('Origin',(10.,-1.5,0.));
#246=CARTESIAN_POINT('Origin',(10.,0.,0.));
#247=CARTESIAN_POINT('',(8.75,1.5,1.38777878078145E-16));
#248=CARTESIAN_POINT('Origin',(10.,1.5,0.));
#249=CARTESIAN_POINT('',(8.75,0.,1.53080849893419E-16));
#250=CARTESIAN_POINT('Origin',(-10.,0.,0.));
#251=CARTESIAN_POINT('',(-11.25,1.5,1.38777878078145E-16));
#252=CARTESIAN_POINT('Origin',(-10.,1.5,0.));
#253=CARTESIAN_POINT('',(-11.25,0.,1.53080849893419E-16));
#254=CARTESIAN_POINT('Origin',(10.,0.,0.));
#255=CARTESIAN_POINT('',(7.7344194206768,1.5,-1.05695063205127));
#256=CARTESIAN_POINT('',(7.7344194206768,0.,-1.05695063205127));
#257=CARTESIAN_POINT('',(7.7344194206768,1.5,1.05695063205126));
#258=CARTESIAN_POINT('Origin',(10.,1.5,0.));
#259=CARTESIAN_POINT('',(7.7344194206768,0.,1.05695063205126));
#260=CARTESIAN_POINT('Origin',(-7.7344194206768,0.,1.05695063205126));
#261=CARTESIAN_POINT('',(-7.7344194206768,1.5,1.05695063205126));
#262=CARTESIAN_POINT('',(-7.7344194206768,1.5,1.05695063205126));
#263=CARTESIAN_POINT('',(-7.7344194206768,0.,1.05695063205126));
#264=CARTESIAN_POINT('Origin',(-10.,0.,0.));
#265=CARTESIAN_POINT('',(-7.7344194206768,1.5,-1.05695063205126));
#266=CARTESIAN_POINT('Origin',(-10.,1.5,0.));
#267=CARTESIAN_POINT('',(-7.7344194206768,0.,-1.05695063205126));
#268=CARTESIAN_POINT('Origin',(7.7344194206768,0.,-1.05695063205127));
#269=CARTESIAN_POINT('',(7.7344194206768,1.5,-1.05695063205127));
#270=CARTESIAN_POINT('Origin',(0.,1.5,2.77555756156289E-16));
#271=UNCERTAINTY_MEASURE_WITH_UNIT(LENGTH_MEASURE(0.01),#275,
'DISTANCE_ACCURACY_VALUE',
'Maximum model space distance between geometric entities at asserted c
onnectivities');
#272=UNCERTAINTY_MEASURE_WITH_UNIT(LENGTH_MEASURE(0.01),#275,
'DISTANCE_ACCURACY_VALUE',
'Maximum model space distance between geometric entities at asserted c
onnectivities');
#273=(
GEOMETRIC_REPRESENTATION_CONTEXT(3)
GLOBAL_UNCERTAINTY_ASSIGNED_CONTEXT((#271))
GLOBAL_UNIT_ASSIGNED_CONTEXT((#275,#277,#278))
REPRESENTATION_CONTEXT('','3D')
);
#274=(
GEOMETRIC_REPRESENTATION_CONTEXT(3)
GLOBAL_UNCERTAINTY_ASSIGNED_CONTEXT((#272))
GLOBAL_UNIT_ASSIGNED_CONTEXT((#275,#277,#278))
REPRESENTATION_CONTEXT('','3D')
);
#275=(
LENGTH_UNIT()
NAMED_UNIT(*)
SI_UNIT(.MILLI.,.METRE.)
);
#276=(
LENGTH_UNIT()
NAMED_UNIT(*)
SI_UNIT(.CENTI.,.METRE.)
);
#277=(
NAMED_UNIT(*)
PLANE_ANGLE_UNIT()
SI_UNIT($,.RADIAN.)
);
#278=(
NAMED_UNIT(*)
SI_UNIT($,.STERADIAN.)
SOLID_ANGLE_UNIT()
);
#279=SHAPE_DEFINITION_REPRESENTATION(#280,#281);
#280=PRODUCT_DEFINITION_SHAPE('',$,#283);
#281=SHAPE_REPRESENTATION('',(#171),#273);
#282=PRODUCT_DEFINITION_CONTEXT('part definition',#287,'design');
#283=PRODUCT_DEFINITION('\X2\0420044B044704300433\X0\','\X2\0420044B044704300433\X0\',
#284,#282);
#284=PRODUCT_DEFINITION_FORMATION('',$,#289);
#285=PRODUCT_RELATED_PRODUCT_CATEGORY('\X2\0420044B044704300433\X0\',
'\X2\0420044B044704300433\X0\',(#289));
#286=APPLICATION_PROTOCOL_DEFINITION('international standard',
'automotive_design',2009,#287);
#287=APPLICATION_CONTEXT(
'Core Data for Automotive Mechanical Design Process');
#288=PRODUCT_CONTEXT('part definition',#287,'mechanical');
#289=PRODUCT('\X2\0420044B044704300433\X0\','\X2\0420044B044704300433\X0\',
$,(#288));
#290=PRESENTATION_STYLE_ASSIGNMENT((#291));
#291=SURFACE_STYLE_USAGE(.BOTH.,#294);
#292=SURFACE_STYLE_RENDERING_WITH_PROPERTIES($,#298,(#293));
#293=SURFACE_STYLE_TRANSPARENT(0.);
#294=SURFACE_SIDE_STYLE('',(#295,#292));
#295=SURFACE_STYLE_FILL_AREA(#296);
#296=FILL_AREA_STYLE('',(#297));
#297=FILL_AREA_STYLE_COLOUR('',#298);
#298=COLOUR_RGB('',0.749019607843137,0.749019607843137,0.749019607843137);
ENDSEC;
END-ISO-10303-21;
