  0
SECTION
  2
HEADER
  9
$ACADVER
  1
AC1009
  0
ENDSEC
  0
SECTION
  2
BLOCKS
  0
ENDSEC
  0
SECTION
  2
ENTITIES
  0
LINE
  8
CutLine
  6
CONTINUOUS
 62
8
 10
722.118814
 20
1419.923309
 11
718.584729
 21
1434.362324
  0
LINE
  8
CutLine
  6
CONTINUOUS
 62
8
 10
718.584729
 20
1434.362324
 11
719.146938
 21
1435.288936
  0
LINE
  8
CutLine
  6
CONTINUOUS
 62
8
 10
719.146938
 20
1435.288936
 11
733.585953
 21
1438.823021
  0
LINE
  8
CutLine
  6
CONTINUOUS
 62
8
 10
699.376690
 20
1401.139851
 11
707.789480
 21
1415.967919
  0
LINE
  8
CutLine
  6
CONTINUOUS
 62
8
 10
707.789480
 20
1415.967919
 11
722.118814
 21
1419.923309
  0
LINE
  8
CutLine
  6
CONTINUOUS
 62
8
 10
819.385644
 20
1380.288486
 11
817.022231
 21
1357.739653
  0
LINE
  8
CutLine
  6
CONTINUOUS
 62
8
 10
817.022231
 20
1357.739653
 11
787.508093
 21
1313.324519
  0
LINE
  8
CutLine
  6
CONTINUOUS
 62
8
 10
787.508093
 20
1313.324519
 11
772.935921
 21
1310.387390
  0
LINE
  8
CutLine
  6
CONTINUOUS
 62
8
 10
782.312587
 20
1400.655277
 11
796.586340
 21
1404.806770
  0
LINE
  8
CutLine
  6
CONTINUOUS
 62
8
 10
796.586340
 20
1404.806770
 11
815.234151
 21
1394.562239
  0
LINE
  8
CutLine
  6
CONTINUOUS
 62
8
 10
815.234151
 20
1394.562239
 11
819.385644
 21
1380.288486
  0
LINE
  8
CutLine
  6
CONTINUOUS
 62
8
 10
733.585953
 20
1438.823021
 11
748.342631
 21
1440.616165
  0
LINE
  8
CutLine
  6
CONTINUOUS
 62
8
 10
748.342631
 20
1440.616165
 11
780.519443
 21
1415.411955
  0
LINE
  8
CutLine
  6
CONTINUOUS
 62
8
 10
780.519443
 20
1415.411955
 11
782.312587
 21
1400.655277
  0
LINE
  8
CutLine
  6
CONTINUOUS
 62
8
 10
685.770102
 20
1202.970575
 11
685.872716
 21
1188.105704
  0
LINE
  8
CutLine
  6
CONTINUOUS
 62
8
 10
685.872716
 20
1188.105704
 11
652.344792
 21
1154.111667
  0
LINE
  8
CutLine
  6
CONTINUOUS
 62
8
 10
652.344792
 20
1154.111667
 11
631.430029
 21
1147.875053
  0
LINE
  8
CutLine
  6
CONTINUOUS
 62
8
 10
676.012456
 20
1256.488984
 11
688.238663
 21
1248.033524
  0
LINE
  8
CutLine
  6
CONTINUOUS
 62
8
 10
688.238663
 20
1248.033524
 11
694.225562
 21
1215.196782
  0
LINE
  8
CutLine
  6
CONTINUOUS
 62
8
 10
694.225562
 20
1215.196782
 11
685.770102
 21
1202.970575
  0
LINE
  8
CutLine
  6
CONTINUOUS
 62
8
 10
631.430029
 20
1147.875053
 11
616.679372
 21
1149.717079
  0
LINE
  8
CutLine
  6
CONTINUOUS
 62
8
 10
616.679372
 20
1149.717079
 11
602.385799
 21
1168.089959
  0
LINE
  8
CutLine
  6
CONTINUOUS
 62
8
 10
602.385799
 20
1168.089959
 11
604.227825
 21
1182.840616
  0
LINE
  8
CutLine
  6
CONTINUOUS
 62
8
 10
604.227825
 20
1182.840616
 11
589.473634
 21
1181.027119
  0
LINE
  8
CutLine
  6
CONTINUOUS
 62
8
 10
589.473634
 20
1181.027119
 11
566.813497
 21
1198.726505
  0
LINE
  8
CutLine
  6
CONTINUOUS
 62
8
 10
566.813497
 20
1198.726505
 11
565.000000
 21
1213.480696
  0
LINE
  8
CutLine
  6
CONTINUOUS
 62
8
 10
619.847676
 20
1355.450021
 11
619.927303
 21
1355.592686
  0
LINE
  8
CutLine
  6
CONTINUOUS
 62
8
 10
619.518012
 20
1345.821391
 11
619.847676
 21
1355.450021
  0
LINE
  8
CutLine
  6
CONTINUOUS
 62
8
 10
619.843734
 20
1355.334890
 11
610.305981
 21
1366.622947
  0
LINE
  8
CutLine
  6
CONTINUOUS
 62
8
 10
610.305981
 20
1366.622947
 11
619.951765
 21
1481.392264
  0
LINE
  8
CutLine
  6
CONTINUOUS
 62
8
 10
619.951765
 20
1481.392264
 11
631.306457
 21
1490.986319
  0
LINE
  8
CutLine
  6
CONTINUOUS
 62
8
 10
631.436140
 20
1491.066168
 11
644.064728
 21
1498.907959
  0
LINE
  8
CutLine
  6
CONTINUOUS
 62
8
 10
644.064728
 20
1498.907959
 11
691.814764
 21
1487.742081
  0
LINE
  8
CutLine
  6
CONTINUOUS
 62
8
 10
691.814764
 20
1487.742081
 11
699.656555
 21
1475.113492
  0
LINE
  8
CutLine
  6
CONTINUOUS
 62
8
 10
631.412686
 20
1490.815610
 11
631.436140
 21
1491.066168
  0
LINE
  8
CutLine
  6
CONTINUOUS
 62
8
 10
225.122188
 20
697.284740
 11
225.113186
 21
697.423685
  0
LINE
  8
CutLine
  6
CONTINUOUS
 62
8
 10
225.125483
 20
697.435851
 11
239.830301
 21
699.522492
  0
LINE
  8
CutLine
  6
CONTINUOUS
 62
8
 10
239.830301
 20
699.522492
 11
285.896391
 21
664.905483
  0
LINE
  8
CutLine
  6
CONTINUOUS
 62
8
 10
285.896391
 20
664.905483
 11
291.534205
 21
647.520502
  0
LINE
  8
CutLine
  6
CONTINUOUS
 62
8
 10
282.935499
 20
566.010152
 11
282.919754
 21
565.988953
  0
LINE
  8
CutLine
  6
CONTINUOUS
 62
8
 10
282.919754
 20
565.988953
 11
281.751139
 21
565.489989
  0
LINE
  8
CutLine
  6
CONTINUOUS
 62
8
 10
328.381791
 20
585.227995
 11
322.794424
 21
571.452790
  0
LINE
  8
CutLine
  6
CONTINUOUS
 62
8
 10
322.794424
 20
571.452790
 11
287.112606
 21
556.364043
  0
LINE
  8
CutLine
  6
CONTINUOUS
 62
8
 10
328.405342
 20
585.244562
 11
328.365275
 21
585.251507
  0
LINE
  8
CutLine
  6
CONTINUOUS
 62
8
 10
291.534205
 20
647.520502
 11
305.934224
 21
643.830735
  0
LINE
  8
CutLine
  6
CONTINUOUS
 62
8
 10
305.934224
 20
643.830735
 11
326.459881
 21
609.162571
  0
LINE
  8
CutLine
  6
CONTINUOUS
 62
8
 10
326.459881
 20
609.162571
 11
328.405342
 21
585.244562
  0
LINE
  8
CutLine
  6
CONTINUOUS
 62
8
 10
193.859544
 20
557.279707
 11
194.348922
 21
558.990936
  0
LINE
  8
CutLine
  6
CONTINUOUS
 62
8
 10
126.316009
 20
647.924195
 11
122.787565
 21
654.822219
  0
LINE
  8
CutLine
  6
CONTINUOUS
 62
8
 10
-2.966696
 20
658.842932
 11
-10.000000
 21
671.939022
  0
LINE
  8
CutLine
  6
CONTINUOUS
 62
8
 10
-10.000000
 20
671.939022
 11
27.492605
 21
796.420303
  0
LINE
  8
CutLine
  6
CONTINUOUS
 62
8
 10
27.492605
 20
796.420303
 11
40.644591
 21
803.639192
  0
LINE
  8
CutLine
  6
CONTINUOUS
 62
8
 10
493.656310
 20
440.605404
 11
506.473862
 21
440.756231
  0
LINE
  8
CutLine
  6
CONTINUOUS
 62
8
 10
383.293114
 20
465.238811
 11
373.501455
 21
454.054074
  0
LINE
  8
CutLine
  6
CONTINUOUS
 62
8
 10
373.501455
 20
454.054074
 11
327.126009
 21
450.974200
  0
LINE
  8
CutLine
  6
CONTINUOUS
 62
8
 10
327.126009
 20
450.974200
 11
315.941272
 21
460.765859
  0
LINE
  8
CutLine
  6
CONTINUOUS
 62
8
 10
236.474646
 20
478.888519
 11
191.353612
 21
542.627225
  0
LINE
  8
CutLine
  6
CONTINUOUS
 62
8
 10
191.353612
 20
542.627225
 11
193.859544
 21
557.279707
  0
LINE
  8
CutLine
  6
CONTINUOUS
 62
8
 10
315.941272
 20
460.765859
 11
304.538635
 21
451.228836
  0
LINE
  8
CutLine
  6
CONTINUOUS
 62
8
 10
304.538635
 20
451.228836
 11
285.331973
 21
452.940048
  0
LINE
  8
CutLine
  6
CONTINUOUS
 62
8
 10
355.760277
 20
285.950365
 11
364.792652
 21
297.756766
  0
LINE
  8
CutLine
  6
CONTINUOUS
 62
8
 10
364.792652
 20
297.756766
 11
399.362963
 21
302.358713
  0
LINE
  8
CutLine
  6
CONTINUOUS
 62
8
 10
305.649982
 20
131.519829
 11
315.762331
 21
142.415486
  0
LINE
  8
CutLine
  6
CONTINUOUS
 62
8
 10
315.762331
 20
142.415486
 11
356.631886
 21
143.939356
  0
LINE
  8
CutLine
  6
CONTINUOUS
 62
8
 10
356.631886
 20
143.939356
 11
367.527542
 21
133.827007
  0
LINE
  8
CutLine
  6
CONTINUOUS
 62
8
 10
190.215317
 20
16.859902
 11
187.139436
 21
31.403419
  0
LINE
  8
CutLine
  6
CONTINUOUS
 62
8
 10
187.139436
 20
31.403419
 11
234.058163
 21
103.491485
  0
LINE
  8
CutLine
  6
CONTINUOUS
 62
8
 10
234.058163
 20
103.491485
 11
248.601680
 21
106.567366
  0
LINE
  8
CutLine
  6
CONTINUOUS
 62
8
 10
248.601680
 20
106.567366
 11
254.019814
 21
120.410008
  0
LINE
  8
CutLine
  6
CONTINUOUS
 62
8
 10
254.019814
 20
120.410008
 11
291.807340
 21
136.937964
  0
LINE
  8
CutLine
  6
CONTINUOUS
 62
8
 10
291.807340
 20
136.937964
 11
305.649982
 21
131.519829
  0
LINE
  8
CutLine
  6
CONTINUOUS
 62
8
 10
277.946661
 20
10.380209
 11
267.175098
 21
3.430785
  0
LINE
  8
CutLine
  6
CONTINUOUS
 62
8
 10
267.175098
 20
3.430785
 11
260.225675
 21
14.202348
  0
LINE
  8
CutLine
  6
CONTINUOUS
 62
8
 10
353.382242
 20
11.315288
 11
334.082568
 21
0.563945
  0
LINE
  8
CutLine
  6
CONTINUOUS
 62
8
 10
334.082568
 20
0.563945
 11
288.587440
 21
0.000000
  0
LINE
  8
CutLine
  6
CONTINUOUS
 62
8
 10
288.587440
 20
0.000000
 11
277.946661
 21
10.380209
  0
LINE
  8
CutLine
  6
CONTINUOUS
 62
8
 10
227.057897
 20
1520.682621
 11
222.391121
 21
1506.568935
  0
LINE
  8
CutLine
  6
CONTINUOUS
 62
8
 10
222.391121
 20
1506.568935
 11
159.972968
 21
1475.171483
  0
LINE
  8
CutLine
  6
CONTINUOUS
 62
8
 10
159.972968
 20
1475.171483
 11
145.859283
 21
1479.838259
  0
LINE
  8
CutLine
  6
CONTINUOUS
 62
8
 10
72.392276
 20
1541.700311
 11
76.821506
 21
1558.035618
  0
LINE
  8
CutLine
  6
CONTINUOUS
 62
8
 10
76.821506
 20
1558.035618
 11
91.548627
 21
1568.907959
  0
LINE
  8
CutLine
  6
CONTINUOUS
 62
8
 10
91.548627
 20
1568.907959
 11
106.248134
 21
1566.694499
  0
LINE
  8
CutLine
  6
CONTINUOUS
 62
8
 10
45.000000
 20
1510.479587
 11
45.046335
 21
1526.470323
  0
LINE
  8
CutLine
  6
CONTINUOUS
 62
8
 10
45.046335
 20
1526.470323
 11
57.558660
 21
1540.731418
  0
LINE
  8
CutLine
  6
CONTINUOUS
 62
8
 10
57.558660
 20
1540.731418
 11
72.392276
 21
1541.700311
  0
LINE
  8
CutLine
  6
CONTINUOUS
 62
8
 10
358.986568
 20
1513.568449
 11
370.416244
 21
1523.073050
  0
LINE
  8
CutLine
  6
CONTINUOUS
 62
8
 10
370.416244
 20
1523.073050
 11
390.178727
 21
1521.255730
  0
LINE
  8
CutLine
  6
CONTINUOUS
 62
8
 10
390.178727
 20
1521.255730
 11
399.683328
 21
1509.826054
  0
LINE
  8
CutLine
  6
CONTINUOUS
 62
8
 10
303.650975
 20
1525.944248
 11
316.203036
 21
1533.907959
  0
LINE
  8
CutLine
  6
CONTINUOUS
 62
8
 10
316.203036
 20
1533.907959
 11
342.621377
 21
1527.999500
  0
LINE
  8
CutLine
  6
CONTINUOUS
 62
8
 10
342.621377
 20
1527.999500
 11
358.986568
 21
1513.568449
  0
LINE
  8
CutLine
  6
CONTINUOUS
 62
8
 10
293.184528
 20
452.240427
 11
283.398851
 21
447.815149
  0
LINE
  8
CutLine
  6
CONTINUOUS
 62
8
 10
108.660694
 20
1320.528983
 11
95.609658
 21
1328.455819
  0
LINE
  8
CutLine
  6
CONTINUOUS
 62
8
 10
95.609658
 20
1328.455819
 11
92.082284
 21
1342.896475
  0
LINE
  8
CutLine
  6
CONTINUOUS
 62
8
 10
151.014357
 20
1388.907959
 11
163.934701
 21
1381.556792
  0
LINE
  8
CutLine
  6
CONTINUOUS
 62
8
 10
163.934701
 20
1381.556792
 11
167.687234
 21
1367.897766
  0
LINE
  8
CutLine
  6
CONTINUOUS
 62
8
 10
104.396371
 20
1182.229453
 11
92.660961
 21
1191.353875
  0
LINE
  8
CutLine
  6
CONTINUOUS
 62
8
 10
92.660961
 20
1191.353875
 11
87.292105
 21
1234.247001
  0
LINE
  8
CutLine
  6
CONTINUOUS
 62
8
 10
87.292105
 20
1234.247001
 11
95.767371
 21
1251.168678
  0
LINE
  8
CutLine
  6
CONTINUOUS
 62
8
 10
144.719904
 20
1212.715598
 11
142.674367
 21
1197.991784
  0
LINE
  8
CutLine
  6
CONTINUOUS
 62
8
 10
142.674367
 20
1197.991784
 11
119.120185
 21
1180.183915
  0
LINE
  8
CutLine
  6
CONTINUOUS
 62
8
 10
119.120185
 20
1180.183915
 11
104.396371
 21
1182.229453
  0
LINE
  8
CutLine
  6
CONTINUOUS
 62
8
 10
95.767371
 20
1251.168678
 11
83.888553
 21
1260.105603
  0
LINE
  8
CutLine
  6
CONTINUOUS
 62
8
 10
83.888553
 20
1260.105603
 11
80.000000
 21
1287.619561
  0
LINE
  8
CutLine
  6
CONTINUOUS
 62
8
 10
80.000000
 20
1287.619561
 11
86.114275
 21
1319.470399
  0
LINE
  8
CutLine
  6
CONTINUOUS
 62
8
 10
305.060546
 20
1342.665815
 11
304.054252
 21
1327.834690
  0
LINE
  8
CutLine
  6
CONTINUOUS
 62
8
 10
304.054252
 20
1327.834690
 11
282.390064
 21
1308.923544
  0
LINE
  8
CutLine
  6
CONTINUOUS
 62
8
 10
282.390064
 20
1308.923544
 11
267.558938
 21
1309.929838
  0
LINE
  8
CutLine
  6
CONTINUOUS
 62
8
 10
239.429312
 20
1365.461016
 11
252.807471
 21
1371.941740
  0
LINE
  8
CutLine
  6
CONTINUOUS
 62
8
 10
252.807471
 20
1371.941740
 11
298.579822
 21
1356.043975
  0
LINE
  8
CutLine
  6
CONTINUOUS
 62
8
 10
298.579822
 20
1356.043975
 11
305.060546
 21
1342.665815
  0
LINE
  8
CutLine
  6
CONTINUOUS
 62
8
 10
173.672406
 20
1388.783649
 11
205.335583
 21
1388.706236
  0
LINE
  8
CutLine
  6
CONTINUOUS
 62
8
 10
205.335583
 20
1388.706236
 11
233.036356
 21
1378.881338
  0
LINE
  8
CutLine
  6
CONTINUOUS
 62
8
 10
233.036356
 20
1378.881338
 11
239.429312
 21
1365.461016
  0
LINE
  8
CutLine
  6
CONTINUOUS
 62
8
 10
763.694612
 20
1509.219192
 11
763.694651
 21
1559.063583
  0
LINE
  8
CutLine
  6
CONTINUOUS
 62
8
 10
763.694651
 20
1559.063583
 11
763.694612
 21
1608.907959
  0
LINE
  8
CutLine
  6
CONTINUOUS
 62
8
 10
763.694612
 20
1608.907959
 11
763.694612
 21
1509.219192
  0
LINE
  8
MountainLine
  6
CONTINUOUS
 62
5
 10
733.585953
 20
1438.823021
 11
722.118814
 21
1419.923309
  0
LINE
  8
MountainLine
  6
CONTINUOUS
 62
5
 10
722.118814
 20
1419.923309
 11
700.786218
 21
1382.323278
  0
LINE
  8
ValleyLine
  6
CONTINUOUS
 62
1
 10
700.786218
 20
1382.323278
 11
733.585953
 21
1438.823021
  0
LINE
  8
ValleyLine
  6
CONTINUOUS
 62
1
 10
700.786218
 20
1382.323278
 11
720.066767
 21
1311.361144
  0
LINE
  8
MountainLine
  6
CONTINUOUS
 62
5
 10
720.066767
 20
1311.361144
 11
733.585953
 21
1438.823021
  0
LINE
  8
ValleyLine
  6
CONTINUOUS
 62
1
 10
772.935921
 20
1310.387390
 11
819.385644
 21
1380.288486
  0
LINE
  8
ValleyLine
  6
CONTINUOUS
 62
1
 10
819.385644
 20
1380.288486
 11
720.066767
 21
1311.361144
  0
LINE
  8
CutLine
  6
CONTINUOUS
 62
8
 10
720.066767
 20
1311.361144
 11
772.935921
 21
1310.387390
  0
LINE
  8
ValleyLine
  6
CONTINUOUS
 62
1
 10
819.385644
 20
1380.288486
 11
782.312587
 21
1400.655277
  0
LINE
  8
ValleyLine
  6
CONTINUOUS
 62
1
 10
782.312587
 20
1400.655277
 11
720.066767
 21
1311.361144
  0
LINE
  8
ValleyLine
  6
CONTINUOUS
 62
1
 10
782.312587
 20
1400.655277
 11
733.585953
 21
1438.823021
  0
LINE
  8
ValleyLine
  6
CONTINUOUS
 62
1
 10
614.214280
 20
1266.544131
 11
652.484597
 21
1320.499032
  0
LINE
  8
CutLine
  6
CONTINUOUS
 62
8
 10
652.484597
 20
1320.499032
 11
614.561107
 21
1349.628899
  0
LINE
  8
CutLine
  6
CONTINUOUS
 62
8
 10
614.561107
 20
1349.628899
 11
614.214280
 21
1266.544131
  0
LINE
  8
ValleyLine
  6
CONTINUOUS
 62
1
 10
676.012456
 20
1256.488984
 11
631.430029
 21
1147.875053
  0
LINE
  8
ValleyLine
  6
CONTINUOUS
 62
1
 10
631.430029
 20
1147.875053
 11
685.770102
 21
1202.970575
  0
LINE
  8
MountainLine
  6
CONTINUOUS
 62
5
 10
685.770102
 20
1202.970575
 11
676.012456
 21
1256.488984
  0
LINE
  8
ValleyLine
  6
CONTINUOUS
 62
1
 10
604.227825
 20
1182.840616
 11
631.430029
 21
1147.875053
  0
LINE
  8
ValleyLine
  6
CONTINUOUS
 62
1
 10
676.012456
 20
1256.488984
 11
614.214280
 21
1266.544131
  0
LINE
  8
CutLine
  6
CONTINUOUS
 62
8
 10
614.214280
 20
1266.544131
 11
565.000000
 21
1213.480696
  0
LINE
  8
ValleyLine
  6
CONTINUOUS
 62
1
 10
565.000000
 20
1213.480696
 11
604.227825
 21
1182.840616
  0
LINE
  8
CutLine
  6
CONTINUOUS
 62
8
 10
676.012456
 20
1256.488984
 11
698.039628
 21
1283.925062
  0
LINE
  8
ValleyLine
  6
CONTINUOUS
 62
1
 10
652.484597
 20
1320.499032
 11
676.012456
 21
1256.488984
  0
LINE
  8
CutLine
  6
CONTINUOUS
 62
8
 10
698.039628
 20
1283.925062
 11
720.066767
 21
1311.361144
  0
LINE
  8
ValleyLine
  6
CONTINUOUS
 62
1
 10
720.066767
 20
1311.361144
 11
652.484597
 21
1320.499032
  0
LINE
  8
ValleyLine
  6
CONTINUOUS
 62
1
 10
700.786218
 20
1382.323278
 11
652.484597
 21
1320.499032
  0
LINE
  8
MountainLine
  6
CONTINUOUS
 62
5
 10
700.786218
 20
1382.323278
 11
641.788298
 21
1361.671937
  0
LINE
  8
MountainLine
  6
CONTINUOUS
 62
5
 10
641.788298
 20
1361.671937
 11
619.847676
 21
1355.450021
  0
LINE
  8
ValleyLine
  6
CONTINUOUS
 62
1
 10
619.847676
 20
1355.450021
 11
652.484597
 21
1320.499032
  0
LINE
  8
CutLine
  6
CONTINUOUS
 62
8
 10
639.786815
 20
1477.358556
 11
631.306457
 21
1490.986319
  0
LINE
  8
ValleyLine
  6
CONTINUOUS
 62
1
 10
631.306457
 20
1490.986319
 11
619.900036
 21
1355.268255
  0
LINE
  8
CutLine
  6
CONTINUOUS
 62
8
 10
619.900036
 20
1355.268255
 11
641.788298
 21
1361.671937
  0
LINE
  8
ValleyLine
  6
CONTINUOUS
 62
1
 10
700.786218
 20
1382.323278
 11
639.786815
 21
1477.358556
  0
LINE
  8
CutLine
  6
CONTINUOUS
 62
8
 10
695.150779
 20
1457.553878
 11
699.656555
 21
1475.113492
  0
LINE
  8
ValleyLine
  6
CONTINUOUS
 62
1
 10
699.656555
 20
1475.113492
 11
631.436140
 21
1491.066168
  0
LINE
  8
MountainLine
  6
CONTINUOUS
 62
5
 10
631.436140
 20
1491.066168
 11
695.150779
 21
1457.553878
  0
LINE
  8
CutLine
  6
CONTINUOUS
 62
8
 10
700.786218
 20
1382.323278
 11
695.150779
 21
1457.553878
  0
LINE
  8
ValleyLine
  6
CONTINUOUS
 62
1
 10
631.436140
 20
1491.066168
 11
639.786815
 21
1477.358556
  0
LINE
  8
ValleyLine
  6
CONTINUOUS
 62
1
 10
225.112517
 20
697.434011
 11
236.924575
 21
687.059430
  0
LINE
  8
ValleyLine
  6
CONTINUOUS
 62
1
 10
236.924575
 20
687.059430
 11
291.534205
 21
647.520502
  0
LINE
  8
MountainLine
  6
CONTINUOUS
 62
5
 10
291.534205
 20
647.520502
 11
225.112517
 21
697.434011
  0
LINE
  8
ValleyLine
  6
CONTINUOUS
 62
1
 10
210.498771
 20
571.436219
 11
236.924575
 21
687.059430
  0
LINE
  8
CutLine
  6
CONTINUOUS
 62
8
 10
193.194256
 20
558.101135
 11
210.498771
 21
571.436219
  0
LINE
  8
ValleyLine
  6
CONTINUOUS
 62
1
 10
210.498771
 20
571.436219
 11
291.534205
 21
647.520502
  0
LINE
  8
CutLine
  6
CONTINUOUS
 62
8
 10
236.924575
 20
687.059430
 11
225.042517
 21
697.353765
  0
LINE
  8
ValleyLine
  6
CONTINUOUS
 62
1
 10
225.042517
 20
697.353765
 11
193.194256
 21
558.101135
  0
LINE
  8
MountainLine
  6
CONTINUOUS
 62
5
 10
280.819891
 20
580.790409
 11
259.780966
 21
567.511510
  0
LINE
  8
ValleyLine
  6
CONTINUOUS
 62
1
 10
259.780966
 20
567.511510
 11
263.745668
 21
557.802199
  0
LINE
  8
ValleyLine
  6
CONTINUOUS
 62
1
 10
263.745668
 20
557.802199
 11
280.819891
 21
580.790409
  0
LINE
  8
CutLine
  6
CONTINUOUS
 62
8
 10
280.819891
 20
580.790409
 11
263.665927
 21
557.861640
  0
LINE
  8
ValleyLine
  6
CONTINUOUS
 62
1
 10
263.665927
 20
557.861640
 11
328.381791
 21
585.227995
  0
LINE
  8
ValleyLine
  6
CONTINUOUS
 62
1
 10
291.534205
 20
647.520502
 11
316.572377
 21
602.039925
  0
LINE
  8
ValleyLine
  6
CONTINUOUS
 62
1
 10
316.572377
 20
602.039925
 11
328.405342
 21
585.244562
  0
LINE
  8
MountainLine
  6
CONTINUOUS
 62
5
 10
328.405342
 20
585.244562
 11
291.534205
 21
647.520502
  0
LINE
  8
ValleyLine
  6
CONTINUOUS
 62
1
 10
291.534205
 20
647.520502
 11
280.819891
 21
580.790409
  0
LINE
  8
CutLine
  6
CONTINUOUS
 62
8
 10
328.381791
 20
585.227995
 11
316.572377
 21
602.039925
  0
LINE
  8
ValleyLine
  6
CONTINUOUS
 62
1
 10
291.534205
 20
647.520502
 11
259.780966
 21
567.511510
  0
LINE
  8
ValleyLine
  6
CONTINUOUS
 62
1
 10
193.859544
 20
557.279707
 11
263.723327
 21
557.793106
  0
LINE
  8
CutLine
  6
CONTINUOUS
 62
8
 10
263.723327
 20
557.793106
 11
259.780966
 21
567.511510
  0
LINE
  8
ValleyLine
  6
CONTINUOUS
 62
1
 10
259.780966
 20
567.511510
 11
210.498771
 21
571.436219
  0
LINE
  8
ValleyLine
  6
CONTINUOUS
 62
1
 10
210.498771
 20
571.436219
 11
193.859544
 21
557.279707
  0
LINE
  8
CutLine
  6
CONTINUOUS
 62
8
 10
321.860263
 20
793.144283
 11
215.341470
 21
803.639192
  0
LINE
  8
MountainLine
  6
CONTINUOUS
 62
5
 10
215.341470
 20
803.639192
 11
225.042517
 21
697.353765
  0
LINE
  8
CutLine
  6
CONTINUOUS
 62
8
 10
225.042517
 20
697.353765
 11
321.860263
 21
793.144283
  0
LINE
  8
ValleyLine
  6
CONTINUOUS
 62
1
 10
215.341470
 20
803.639192
 11
153.915700
 21
733.325713
  0
LINE
  8
MountainLine
  6
CONTINUOUS
 62
5
 10
153.915700
 20
733.325713
 11
225.042517
 21
697.353765
  0
LINE
  8
ValleyLine
  6
CONTINUOUS
 62
1
 10
153.915700
 20
733.325713
 11
126.316009
 21
647.924195
  0
LINE
  8
MountainLine
  6
CONTINUOUS
 62
5
 10
126.316009
 20
647.924195
 11
225.042517
 21
697.353765
  0
LINE
  8
CutLine
  6
CONTINUOUS
 62
8
 10
126.316009
 20
647.924195
 11
193.194256
 21
558.101135
  0
LINE
  8
ValleyLine
  6
CONTINUOUS
 62
1
 10
40.644591
 20
803.639192
 11
181.620666
 21
855.984599
  0
LINE
  8
CutLine
  6
CONTINUOUS
 62
8
 10
181.620666
 20
855.984599
 11
136.991744
 21
898.907959
  0
LINE
  8
CutLine
  6
CONTINUOUS
 62
8
 10
136.991744
 20
898.907959
 11
40.644591
 21
803.639192
  0
LINE
  8
CutLine
  6
CONTINUOUS
 62
8
 10
-2.966696
 20
658.842932
 11
63.345110
 21
646.232529
  0
LINE
  8
ValleyLine
  6
CONTINUOUS
 62
1
 10
63.345110
 20
646.232529
 11
40.644591
 21
803.639192
  0
LINE
  8
MountainLine
  6
CONTINUOUS
 62
5
 10
40.644591
 20
803.639192
 11
-2.966696
 21
658.842932
  0
LINE
  8
ValleyLine
  6
CONTINUOUS
 62
1
 10
40.644591
 20
803.639192
 11
153.915700
 21
733.325713
  0
LINE
  8
ValleyLine
  6
CONTINUOUS
 62
1
 10
215.341470
 20
803.639192
 11
40.644591
 21
803.639192
  0
LINE
  8
CutLine
  6
CONTINUOUS
 62
8
 10
215.341470
 20
803.639192
 11
181.620666
 21
855.984599
  0
LINE
  8
CutLine
  6
CONTINUOUS
 62
8
 10
120.833688
 20
649.894647
 11
153.915700
 21
733.325713
  0
LINE
  8
ValleyLine
  6
CONTINUOUS
 62
1
 10
40.644591
 20
803.639192
 11
120.833688
 21
649.894647
  0
LINE
  8
CutLine
  6
CONTINUOUS
 62
8
 10
63.345110
 20
646.232529
 11
120.833688
 21
649.894647
  0
LINE
  8
ValleyLine
  6
CONTINUOUS
 62
1
 10
449.400948
 20
382.324141
 11
421.965339
 21
294.763481
  0
LINE
  8
ValleyLine
  6
CONTINUOUS
 62
1
 10
421.965339
 20
294.763481
 11
497.534049
 21
293.775781
  0
LINE
  8
ValleyLine
  6
CONTINUOUS
 62
1
 10
497.534049
 20
293.775781
 11
449.400948
 21
382.324141
  0
LINE
  8
CutLine
  6
CONTINUOUS
 62
8
 10
497.534049
 20
293.775781
 11
506.473862
 21
440.756231
  0
LINE
  8
ValleyLine
  6
CONTINUOUS
 62
1
 10
506.473862
 20
440.756231
 11
449.400948
 21
382.324141
  0
LINE
  8
CutLine
  6
CONTINUOUS
 62
8
 10
372.678835
 20
545.240748
 11
326.596602
 21
526.424144
  0
LINE
  8
ValleyLine
  6
CONTINUOUS
 62
1
 10
326.596602
 20
526.424144
 11
498.796994
 21
447.375331
  0
LINE
  8
MountainLine
  6
CONTINUOUS
 62
5
 10
498.796994
 20
447.375331
 11
372.678835
 21
545.240748
  0
LINE
  8
CutLine
  6
CONTINUOUS
 62
8
 10
415.078552
 20
558.078757
 11
372.678835
 21
545.240748
  0
LINE
  8
ValleyLine
  6
CONTINUOUS
 62
1
 10
498.796994
 20
447.375331
 11
415.078552
 21
558.078757
  0
LINE
  8
MountainLine
  6
CONTINUOUS
 62
5
 10
326.596602
 20
526.424144
 11
383.293114
 21
465.238811
  0
LINE
  8
ValleyLine
  6
CONTINUOUS
 62
1
 10
383.293114
 20
465.238811
 11
498.796994
 21
447.375331
  0
LINE
  8
ValleyLine
  6
CONTINUOUS
 62
1
 10
326.596602
 20
526.424144
 11
315.941272
 21
460.765859
  0
LINE
  8
ValleyLine
  6
CONTINUOUS
 62
1
 10
315.941272
 20
460.765859
 11
383.293114
 21
465.238811
  0
LINE
  8
ValleyLine
  6
CONTINUOUS
 62
1
 10
449.400948
 20
382.324141
 11
383.293114
 21
465.238811
  0
LINE
  8
CutLine
  6
CONTINUOUS
 62
8
 10
383.293114
 20
465.238811
 11
358.655190
 21
316.038027
  0
LINE
  8
ValleyLine
  6
CONTINUOUS
 62
1
 10
358.655190
 20
316.038027
 11
449.400948
 21
382.324141
  0
LINE
  8
CutLine
  6
CONTINUOUS
 62
8
 10
358.655190
 20
316.038027
 11
421.965339
 21
294.763481
  0
LINE
  8
CutLine
  6
CONTINUOUS
 62
8
 10
449.400948
 20
382.324141
 11
498.796994
 21
447.375331
  0
LINE
  8
CutLine
  6
CONTINUOUS
 62
8
 10
498.796994
 20
447.375331
 11
498.377231
 21
527.079955
  0
LINE
  8
CutLine
  6
CONTINUOUS
 62
8
 10
498.377231
 20
527.079955
 11
455.490114
 21
564.172805
  0
LINE
  8
ValleyLine
  6
CONTINUOUS
 62
1
 10
455.490114
 20
564.172805
 11
498.796994
 21
447.375331
  0
LINE
  8
CutLine
  6
CONTINUOUS
 62
8
 10
455.490114
 20
564.172805
 11
415.078552
 21
558.078757
  0
LINE
  8
CutLine
  6
CONTINUOUS
 62
8
 10
326.596602
 20
526.424144
 11
263.723327
 21
557.793106
  0
LINE
  8
ValleyLine
  6
CONTINUOUS
 62
1
 10
263.723327
 20
557.793106
 11
258.563449
 21
465.877920
  0
LINE
  8
MountainLine
  6
CONTINUOUS
 62
5
 10
258.563449
 20
465.877920
 11
326.596602
 21
526.424144
  0
LINE
  8
ValleyLine
  6
CONTINUOUS
 62
1
 10
193.859544
 20
557.279707
 11
258.563449
 21
465.877920
  0
LINE
  8
ValleyLine
  6
CONTINUOUS
 62
1
 10
258.563449
 20
465.877920
 11
315.941272
 21
460.765859
  0
LINE
  8
ValleyLine
  6
CONTINUOUS
 62
1
 10
432.233001
 20
214.446531
 11
421.965339
 21
294.763481
  0
LINE
  8
ValleyLine
  6
CONTINUOUS
 62
1
 10
421.965339
 20
294.763481
 11
355.760277
 21
285.950365
  0
LINE
  8
CutLine
  6
CONTINUOUS
 62
8
 10
355.760277
 20
285.950365
 11
432.233001
 21
214.446531
  0
LINE
  8
ValleyLine
  6
CONTINUOUS
 62
1
 10
432.233001
 20
214.446531
 11
486.512480
 21
162.877479
  0
LINE
  8
CutLine
  6
CONTINUOUS
 62
8
 10
486.512480
 20
162.877479
 11
497.534049
 21
293.775781
  0
LINE
  8
ValleyLine
  6
CONTINUOUS
 62
1
 10
497.534049
 20
293.775781
 11
432.233001
 21
214.446531
  0
LINE
  8
CutLine
  6
CONTINUOUS
 62
8
 10
454.931910
 20
46.406153
 11
488.787769
 21
71.400343
  0
LINE
  8
CutLine
  6
CONTINUOUS
 62
8
 10
488.787769
 20
71.400343
 11
486.512480
 21
162.877479
  0
LINE
  8
ValleyLine
  6
CONTINUOUS
 62
1
 10
486.512480
 20
162.877479
 11
454.931910
 21
46.406153
  0
LINE
  8
ValleyLine
  6
CONTINUOUS
 62
1
 10
367.527542
 20
133.827007
 11
305.649982
 21
131.519829
  0
LINE
  8
ValleyLine
  6
CONTINUOUS
 62
1
 10
305.649982
 20
131.519829
 11
318.032144
 21
66.260108
  0
LINE
  8
MountainLine
  6
CONTINUOUS
 62
5
 10
318.032144
 20
66.260108
 11
367.527542
 21
133.827007
  0
LINE
  8
ValleyLine
  6
CONTINUOUS
 62
1
 10
486.512480
 20
162.877479
 11
367.527542
 21
133.827007
  0
LINE
  8
ValleyLine
  6
CONTINUOUS
 62
1
 10
318.032144
 20
66.260108
 11
486.512480
 21
162.877479
  0
LINE
  8
CutLine
  6
CONTINUOUS
 62
8
 10
318.032144
 20
66.260108
 11
375.108842
 21
42.316173
  0
LINE
  8
MountainLine
  6
CONTINUOUS
 62
5
 10
375.108842
 20
42.316173
 11
486.512480
 21
162.877479
  0
LINE
  8
CutLine
  6
CONTINUOUS
 62
8
 10
375.108842
 20
42.316173
 11
416.068139
 21
31.754272
  0
LINE
  8
ValleyLine
  6
CONTINUOUS
 62
1
 10
416.068139
 20
31.754272
 11
486.512480
 21
162.877479
  0
LINE
  8
CutLine
  6
CONTINUOUS
 62
8
 10
416.068139
 20
31.754272
 11
454.931910
 21
46.406153
  0
LINE
  8
CutLine
  6
CONTINUOUS
 62
8
 10
432.233001
 20
214.446531
 11
367.527542
 21
133.827007
  0
LINE
  8
ValleyLine
  6
CONTINUOUS
 62
1
 10
248.601680
 20
106.567366
 11
260.225675
 21
14.202348
  0
LINE
  8
ValleyLine
  6
CONTINUOUS
 62
1
 10
260.225675
 20
14.202348
 11
318.032144
 21
66.260108
  0
LINE
  8
MountainLine
  6
CONTINUOUS
 62
5
 10
318.032144
 20
66.260108
 11
248.601680
 21
106.567366
  0
LINE
  8
ValleyLine
  6
CONTINUOUS
 62
1
 10
248.601680
 20
106.567366
 11
190.215317
 21
16.859902
  0
LINE
  8
CutLine
  6
CONTINUOUS
 62
8
 10
190.215317
 20
16.859902
 11
260.225675
 21
14.202348
  0
LINE
  8
ValleyLine
  6
CONTINUOUS
 62
1
 10
305.649982
 20
131.519829
 11
248.601680
 21
106.567366
  0
LINE
  8
ValleyLine
  6
CONTINUOUS
 62
1
 10
260.225675
 20
14.202348
 11
277.946661
 21
10.380209
  0
LINE
  8
MountainLine
  6
CONTINUOUS
 62
5
 10
277.946661
 20
10.380209
 11
318.032144
 21
66.260108
  0
LINE
  8
CutLine
  6
CONTINUOUS
 62
8
 10
329.774229
 20
47.529977
 11
318.032144
 21
66.260108
  0
LINE
  8
CutLine
  6
CONTINUOUS
 62
8
 10
353.382242
 20
11.315288
 11
329.774229
 21
47.529977
  0
LINE
  8
ValleyLine
  6
CONTINUOUS
 62
1
 10
277.946661
 20
10.380209
 11
353.382242
 21
11.315288
  0
LINE
  8
CutLine
  6
CONTINUOUS
 62
8
 10
166.653031
 20
1543.688578
 11
106.248134
 21
1566.694499
  0
LINE
  8
MountainLine
  6
CONTINUOUS
 62
5
 10
106.248134
 20
1566.694499
 11
149.725102
 21
1531.191498
  0
LINE
  8
MountainLine
  6
CONTINUOUS
 62
5
 10
72.392276
 20
1541.700311
 11
149.725102
 21
1531.191498
  0
LINE
  8
ValleyLine
  6
CONTINUOUS
 62
1
 10
72.392276
 20
1541.700311
 11
109.125797
 21
1510.769282
  0
LINE
  8
MountainLine
  6
CONTINUOUS
 62
5
 10
145.859283
 20
1479.838259
 11
227.057897
 21
1520.682621
  0
LINE
  8
MountainLine
  6
CONTINUOUS
 62
5
 10
227.057897
 20
1520.682621
 11
149.725102
 21
1531.191498
  0
LINE
  8
CutLine
  6
CONTINUOUS
 62
8
 10
227.057897
 20
1520.682621
 11
166.653031
 21
1543.688578
  0
LINE
  8
ValleyLine
  6
CONTINUOUS
 62
1
 10
109.125797
 20
1510.769282
 11
145.859279
 21
1479.838255
  0
LINE
  8
ValleyLine
  6
CONTINUOUS
 62
1
 10
106.248134
 20
1566.694499
 11
72.392276
 21
1541.700311
  0
LINE
  8
ValleyLine
  6
CONTINUOUS
 62
1
 10
72.392276
 20
1541.700311
 11
45.000000
 21
1510.479587
  0
LINE
  8
ValleyLine
  6
CONTINUOUS
 62
1
 10
45.000000
 20
1510.479587
 11
145.859279
 21
1479.838255
  0
LINE
  8
CutLine
  6
CONTINUOUS
 62
8
 10
104.840712
 20
1451.633778
 11
145.859276
 21
1479.838251
  0
LINE
  8
CutLine
  6
CONTINUOUS
 62
8
 10
45.000000
 20
1510.479587
 11
104.840712
 21
1451.633778
  0
LINE
  8
CutLine
  6
CONTINUOUS
 62
8
 10
149.725102
 20
1531.191498
 11
106.248134
 21
1566.694499
  0
LINE
  8
ValleyLine
  6
CONTINUOUS
 62
1
 10
240.000000
 20
1431.675139
 11
271.825500
 21
1478.809705
  0
LINE
  8
ValleyLine
  6
CONTINUOUS
 62
1
 10
271.825500
 20
1478.809705
 11
303.650975
 21
1525.944248
  0
LINE
  8
CutLine
  6
CONTINUOUS
 62
8
 10
303.650975
 20
1525.944248
 11
240.000000
 21
1431.675139
  0
LINE
  8
MountainLine
  6
CONTINUOUS
 62
5
 10
399.683328
 20
1509.826054
 11
327.396008
 21
1437.906705
  0
LINE
  8
ValleyLine
  6
CONTINUOUS
 62
1
 10
399.683328
 20
1509.826054
 11
358.986568
 21
1513.568449
  0
LINE
  8
ValleyLine
  6
CONTINUOUS
 62
1
 10
358.986568
 20
1513.568449
 11
343.191289
 21
1475.737584
  0
LINE
  8
ValleyLine
  6
CONTINUOUS
 62
1
 10
343.191289
 20
1475.737584
 11
327.396000
 21
1437.906708
  0
LINE
  8
ValleyLine
  6
CONTINUOUS
 62
1
 10
358.986568
 20
1513.568449
 11
299.493288
 21
1472.621813
  0
LINE
  8
ValleyLine
  6
CONTINUOUS
 62
1
 10
299.493288
 20
1472.621813
 11
240.000000
 21
1431.675139
  0
LINE
  8
CutLine
  6
CONTINUOUS
 62
8
 10
240.000000
 20
1431.675139
 11
283.697988
 21
1434.790922
  0
LINE
  8
CutLine
  6
CONTINUOUS
 62
8
 10
283.697988
 20
1434.790922
 11
327.395993
 21
1437.906711
  0
LINE
  8
CutLine
  6
CONTINUOUS
 62
8
 10
377.892992
 20
1435.572829
 11
399.683328
 21
1509.826054
  0
LINE
  8
ValleyLine
  6
CONTINUOUS
 62
1
 10
358.986568
 20
1513.568449
 11
303.650975
 21
1525.944248
  0
LINE
  8
CutLine
  6
CONTINUOUS
 62
8
 10
327.396008
 20
1437.906705
 11
377.892992
 21
1435.572829
  0
LINE
  8
CutLine
  6
CONTINUOUS
 62
8
 10
150.202295
 20
410.047107
 11
216.812368
 21
429.799945
  0
LINE
  8
CutLine
  6
CONTINUOUS
 62
8
 10
216.812368
 20
429.799945
 11
283.398851
 21
447.815149
  0
LINE
  8
ValleyLine
  6
CONTINUOUS
 62
1
 10
283.398851
 20
447.815149
 11
125.000000
 21
458.257853
  0
LINE
  8
CutLine
  6
CONTINUOUS
 62
8
 10
125.000000
 20
458.257853
 11
150.202295
 21
410.047107
  0
LINE
  8
MountainLine
  6
CONTINUOUS
 62
5
 10
238.546668
 20
637.412333
 11
188.576352
 21
620.118890
  0
LINE
  8
ValleyLine
  6
CONTINUOUS
 62
1
 10
188.576352
 20
620.118890
 11
309.786186
 21
517.770523
  0
LINE
  8
CutLine
  6
CONTINUOUS
 62
8
 10
309.786186
 20
517.770523
 11
274.444161
 21
577.927461
  0
LINE
  8
CutLine
  6
CONTINUOUS
 62
8
 10
188.576352
 20
620.118890
 11
267.623813
 21
510.171685
  0
LINE
  8
ValleyLine
  6
CONTINUOUS
 62
1
 10
267.623813
 20
510.171685
 11
309.786186
 21
517.770523
  0
LINE
  8
CutLine
  6
CONTINUOUS
 62
8
 10
267.623813
 20
510.171685
 11
257.275816
 21
482.738201
  0
LINE
  8
ValleyLine
  6
CONTINUOUS
 62
1
 10
257.275816
 20
482.738201
 11
283.398851
 21
447.815149
  0
LINE
  8
CutLine
  6
CONTINUOUS
 62
8
 10
274.444161
 20
577.927461
 11
238.546668
 21
637.412333
  0
LINE
  8
CutLine
  6
CONTINUOUS
 62
8
 10
257.275816
 20
482.738201
 11
125.000000
 21
458.257853
  0
LINE
  8
ValleyLine
  6
CONTINUOUS
 62
1
 10
296.592497
 20
482.792824
 11
309.786194
 21
517.770520
  0
LINE
  8
ValleyLine
  6
CONTINUOUS
 62
1
 10
283.398851
 20
447.815149
 11
296.592497
 21
482.792824
  0
LINE
  8
ValleyLine
  6
CONTINUOUS
 62
1
 10
127.456025
 20
1321.411449
 11
144.788976
 21
1334.944235
  0
LINE
  8
ValleyLine
  6
CONTINUOUS
 62
1
 10
144.788976
 20
1334.944235
 11
162.121919
 21
1348.477016
  0
LINE
  8
CutLine
  6
CONTINUOUS
 62
8
 10
151.014357
 20
1388.907959
 11
121.548293
 21
1365.902222
  0
LINE
  8
CutLine
  6
CONTINUOUS
 62
8
 10
121.548293
 20
1365.902222
 11
92.082284
 21
1342.896475
  0
LINE
  8
ValleyLine
  6
CONTINUOUS
 62
1
 10
92.082284
 20
1342.896475
 11
127.456025
 21
1321.411449
  0
LINE
  8
ValleyLine
  6
CONTINUOUS
 62
1
 10
162.121919
 20
1348.477016
 11
151.014357
 21
1388.907959
  0
LINE
  8
CutLine
  6
CONTINUOUS
 62
8
 10
144.719904
 20
1212.715598
 11
231.228483
 21
1226.613724
  0
LINE
  8
ValleyLine
  6
CONTINUOUS
 62
1
 10
231.228483
 20
1226.613724
 11
127.456025
 21
1321.411449
  0
LINE
  8
ValleyLine
  6
CONTINUOUS
 62
1
 10
127.456025
 20
1321.411449
 11
144.719904
 21
1212.715598
  0
LINE
  8
ValleyLine
  6
CONTINUOUS
 62
1
 10
95.767371
 20
1251.168678
 11
104.396371
 21
1182.229453
  0
LINE
  8
MountainLine
  6
CONTINUOUS
 62
5
 10
104.396371
 20
1182.229453
 11
144.719904
 21
1212.715598
  0
LINE
  8
MountainLine
  6
CONTINUOUS
 62
5
 10
95.767371
 20
1251.168678
 11
127.456025
 21
1321.411449
  0
LINE
  8
CutLine
  6
CONTINUOUS
 62
8
 10
127.456025
 20
1321.411449
 11
86.114275
 21
1319.470399
  0
LINE
  8
ValleyLine
  6
CONTINUOUS
 62
1
 10
86.114275
 20
1319.470399
 11
95.767371
 21
1251.168678
  0
LINE
  8
MountainLine
  6
CONTINUOUS
 62
5
 10
239.429312
 20
1365.461016
 11
162.121919
 21
1348.477016
  0
LINE
  8
ValleyLine
  6
CONTINUOUS
 62
1
 10
162.121919
 20
1348.477016
 11
267.558938
 21
1309.929838
  0
LINE
  8
ValleyLine
  6
CONTINUOUS
 62
1
 10
267.558938
 20
1309.929838
 11
239.429312
 21
1365.461016
  0
LINE
  8
MountainLine
  6
CONTINUOUS
 62
5
 10
267.558938
 20
1309.929838
 11
305.060546
 21
1342.665815
  0
LINE
  8
ValleyLine
  6
CONTINUOUS
 62
1
 10
305.060546
 20
1342.665815
 11
239.429312
 21
1365.461016
  0
LINE
  8
ValleyLine
  6
CONTINUOUS
 62
1
 10
239.429312
 20
1365.461016
 11
173.672406
 21
1388.783649
  0
LINE
  8
CutLine
  6
CONTINUOUS
 62
8
 10
173.672406
 20
1388.783649
 11
162.121919
 21
1348.477016
  0
LINE
  8
ValleyLine
  6
CONTINUOUS
 62
1
 10
162.121919
 20
1348.477016
 11
231.228483
 21
1226.613724
  0
LINE
  8
CutLine
  6
CONTINUOUS
 62
8
 10
231.228483
 20
1226.613724
 11
267.558938
 21
1309.929838
  0
ENDSEC
  0
EOF
