  0
SECTION
  2
HEADER
  9
$ACADVER
  1
AC1009
  0
ENDSEC
  0
SECTION
  2
BLOCKS
  0
ENDSEC
  0
SECTION
  2
ENTITIES
  0
LINE
  8
CutLine
  6
CONTINUOUS
 62
8
 10
428.056829
 20
74.530812
 11
412.275144
 21
80.770878
  0
LINE
  8
CutLine
  6
CONTINUOUS
 62
8
 10
412.275144
 20
80.770878
 11
405.000000
 21
97.561679
  0
LINE
  8
CutLine
  6
CONTINUOUS
 62
8
 10
405.000000
 20
97.561679
 11
411.240066
 21
113.343364
  0
LINE
  8
CutLine
  6
CONTINUOUS
 62
8
 10
443.174809
 20
14.509914
 11
428.607264
 21
23.215464
  0
LINE
  8
CutLine
  6
CONTINUOUS
 62
8
 10
428.607264
 20
23.215464
 11
419.351278
 21
59.963266
  0
LINE
  8
CutLine
  6
CONTINUOUS
 62
8
 10
419.351278
 20
59.963266
 11
428.056829
 21
74.530812
  0
LINE
  8
CutLine
  6
CONTINUOUS
 62
8
 10
463.818120
 20
22.418650
 11
457.450833
 21
8.142626
  0
LINE
  8
CutLine
  6
CONTINUOUS
 62
8
 10
457.450833
 20
8.142626
 11
443.174809
 21
14.509914
  0
LINE
  8
CutLine
  6
CONTINUOUS
 62
8
 10
503.716819
 20
39.060029
 11
497.260951
 21
23.365387
  0
LINE
  8
CutLine
  6
CONTINUOUS
 62
8
 10
497.260951
 20
23.365387
 11
479.512761
 21
15.962782
  0
LINE
  8
CutLine
  6
CONTINUOUS
 62
8
 10
479.512761
 20
15.962782
 11
463.818120
 21
22.418650
  0
LINE
  8
CutLine
  6
CONTINUOUS
 62
8
 10
702.190944
 20
181.833538
 11
714.210013
 21
169.852637
  0
LINE
  8
CutLine
  6
CONTINUOUS
 62
8
 10
714.210013
 20
169.852637
 11
714.242297
 21
149.551980
  0
LINE
  8
CutLine
  6
CONTINUOUS
 62
8
 10
714.242297
 20
149.551980
 11
702.261396
 21
137.532911
  0
LINE
  8
CutLine
  6
CONTINUOUS
 62
8
 10
702.261396
 20
137.532911
 11
716.840936
 21
128.847462
  0
LINE
  8
CutLine
  6
CONTINUOUS
 62
8
 10
716.840936
 20
128.847462
 11
723.171157
 21
103.860995
  0
LINE
  8
CutLine
  6
CONTINUOUS
 62
8
 10
723.171157
 20
103.860995
 11
714.485708
 21
89.281456
  0
LINE
  8
CutLine
  6
CONTINUOUS
 62
8
 10
590.306943
 20
18.106266
 11
584.146195
 21
10.699217
  0
LINE
  8
CutLine
  6
CONTINUOUS
 62
8
 10
217.036037
 20
406.415704
 11
212.653579
 21
390.020764
  0
LINE
  8
CutLine
  6
CONTINUOUS
 62
8
 10
212.653579
 20
390.020764
 11
183.560802
 21
373.200733
  0
LINE
  8
CutLine
  6
CONTINUOUS
 62
8
 10
183.560802
 20
373.200733
 11
167.165862
 21
377.583191
  0
LINE
  8
CutLine
  6
CONTINUOUS
 62
8
 10
269.548921
 20
448.826492
 11
267.752998
 21
431.951224
  0
LINE
  8
CutLine
  6
CONTINUOUS
 62
8
 10
267.752998
 20
431.951224
 11
233.911304
 21
404.619782
  0
LINE
  8
CutLine
  6
CONTINUOUS
 62
8
 10
233.911304
 20
404.619782
 11
217.036037
 21
406.415704
  0
LINE
  8
CutLine
  6
CONTINUOUS
 62
8
 10
374.296716
 20
500.673862
 11
368.865325
 21
484.595927
  0
LINE
  8
CutLine
  6
CONTINUOUS
 62
8
 10
368.865325
 20
484.595927
 11
286.550150
 21
443.852107
  0
LINE
  8
CutLine
  6
CONTINUOUS
 62
8
 10
286.550150
 20
443.852107
 11
269.548921
 21
448.826492
  0
LINE
  8
CutLine
  6
CONTINUOUS
 62
8
 10
167.165862
 20
377.583191
 11
181.985811
 21
369.314630
  0
LINE
  8
CutLine
  6
CONTINUOUS
 62
8
 10
181.985811
 20
369.314630
 11
199.934036
 21
306.061206
  0
LINE
  8
CutLine
  6
CONTINUOUS
 62
8
 10
199.934036
 20
306.061206
 11
191.665476
 21
291.241257
  0
LINE
  8
CutLine
  6
CONTINUOUS
 62
8
 10
258.728995
 20
558.912541
 11
243.157107
 21
558.471582
  0
LINE
  8
CutLine
  6
CONTINUOUS
 62
8
 10
243.157107
 20
558.471582
 11
230.822240
 21
570.127098
  0
LINE
  8
CutLine
  6
CONTINUOUS
 62
8
 10
6.669423
 20
547.607686
 11
6.575626
 21
547.724210
  0
LINE
  8
CutLine
  6
CONTINUOUS
 62
8
 10
6.575626
 20
547.724210
 11
18.946193
 21
559.341830
  0
LINE
  8
CutLine
  6
CONTINUOUS
 62
8
 10
18.946193
 20
559.341830
 11
72.936510
 21
557.647169
  0
LINE
  8
CutLine
  6
CONTINUOUS
 62
8
 10
72.936510
 20
557.647169
 11
89.620220
 21
545.117586
  0
LINE
  8
CutLine
  6
CONTINUOUS
 62
8
 10
155.598942
 20
515.370161
 11
159.430262
 21
498.837739
  0
LINE
  8
CutLine
  6
CONTINUOUS
 62
8
 10
159.430262
 20
498.837739
 11
134.946656
 21
459.583045
  0
LINE
  8
CutLine
  6
CONTINUOUS
 62
8
 10
134.946656
 20
459.583045
 11
118.514323
 21
455.774920
  0
LINE
  8
CutLine
  6
CONTINUOUS
 62
8
 10
118.484121
 20
455.767921
 11
118.451478
 21
455.760356
  0
LINE
  8
CutLine
  6
CONTINUOUS
 62
8
 10
155.608671
 20
515.397262
 11
155.571905
 21
515.379889
  0
LINE
  8
CutLine
  6
CONTINUOUS
 62
8
 10
89.620220
 20
545.117586
 11
105.489589
 21
551.131165
  0
LINE
  8
CutLine
  6
CONTINUOUS
 62
8
 10
105.489589
 20
551.131165
 11
138.081319
 21
536.452281
  0
LINE
  8
CutLine
  6
CONTINUOUS
 62
8
 10
138.081319
 20
536.452281
 11
155.608671
 21
515.397262
  0
LINE
  8
CutLine
  6
CONTINUOUS
 62
8
 10
118.513654
 20
455.748989
 11
118.480408
 21
455.741717
  0
LINE
  8
CutLine
  6
CONTINUOUS
 62
8
 10
118.532279
 20
455.779081
 11
118.513654
 21
455.748989
  0
LINE
  8
CutLine
  6
CONTINUOUS
 62
8
 10
61.655015
 20
415.111095
 11
61.070679
 21
416.792269
  0
LINE
  8
CutLine
  6
CONTINUOUS
 62
8
 10
60.638254
 20
415.400146
 11
44.988757
 21
421.964690
  0
LINE
  8
CutLine
  6
CONTINUOUS
 62
8
 10
44.988757
 20
421.964690
 11
0.000000
 21
531.968804
  0
LINE
  8
CutLine
  6
CONTINUOUS
 62
8
 10
0.000000
 20
531.968804
 11
6.564545
 21
547.618301
  0
LINE
  8
CutLine
  6
CONTINUOUS
 62
8
 10
85.161329
 20
147.965893
 11
85.260377
 21
148.197234
  0
LINE
  8
CutLine
  6
CONTINUOUS
 62
8
 10
32.697522
 20
22.454237
 11
26.239936
 21
38.148172
  0
LINE
  8
CutLine
  6
CONTINUOUS
 62
8
 10
26.239936
 20
38.148172
 11
69.418538
 21
141.703343
  0
LINE
  8
CutLine
  6
CONTINUOUS
 62
8
 10
69.418538
 20
141.703343
 11
85.112472
 21
148.160929
  0
LINE
  8
CutLine
  6
CONTINUOUS
 62
8
 10
55.495238
 20
21.848229
 11
43.793376
 21
10.752375
  0
LINE
  8
CutLine
  6
CONTINUOUS
 62
8
 10
43.793376
 20
10.752375
 11
32.697522
 21
22.454237
  0
LINE
  8
CutLine
  6
CONTINUOUS
 62
8
 10
117.982762
 20
23.442696
 11
99.609195
 21
10.969960
  0
LINE
  8
CutLine
  6
CONTINUOUS
 62
8
 10
99.609195
 20
10.969960
 11
67.797433
 21
10.158233
  0
LINE
  8
CutLine
  6
CONTINUOUS
 62
8
 10
67.797433
 20
10.158233
 11
55.495238
 21
21.848229
  0
LINE
  8
CutLine
  6
CONTINUOUS
 62
8
 10
225.547460
 20
64.688445
 11
200.326641
 21
64.554997
  0
LINE
  8
CutLine
  6
CONTINUOUS
 62
8
 10
200.326641
 20
64.554997
 11
163.934567
 21
83.992830
  0
LINE
  8
CutLine
  6
CONTINUOUS
 62
8
 10
163.934567
 20
83.992830
 11
159.003365
 21
100.231156
  0
LINE
  8
CutLine
  6
CONTINUOUS
 62
8
 10
159.003365
 20
100.231156
 11
146.215988
 21
99.334557
  0
LINE
  8
CutLine
  6
CONTINUOUS
 62
8
 10
146.215988
 20
99.334557
 11
145.319389
 21
112.121934
  0
LINE
  8
CutLine
  6
CONTINUOUS
 62
8
 10
292.386460
 20
32.333456
 11
301.232445
 21
48.302609
  0
LINE
  8
CutLine
  6
CONTINUOUS
 62
8
 10
301.232445
 20
48.302609
 11
306.200328
 21
50.102843
  0
LINE
  8
CutLine
  6
CONTINUOUS
 62
8
 10
179.657372
 20
198.651205
 11
192.694378
 21
209.515665
  0
LINE
  8
CutLine
  6
CONTINUOUS
 62
8
 10
192.694378
 20
209.515665
 11
230.803906
 21
206.051665
  0
LINE
  8
CutLine
  6
CONTINUOUS
 62
8
 10
230.803906
 20
206.051665
 11
241.668365
 21
193.014659
  0
LINE
  8
CutLine
  6
CONTINUOUS
 62
8
 10
241.668365
 20
193.014659
 11
257.779023
 21
198.348205
  0
LINE
  8
CutLine
  6
CONTINUOUS
 62
8
 10
257.779023
 20
198.348205
 11
291.661363
 21
181.320117
  0
LINE
  8
CutLine
  6
CONTINUOUS
 62
8
 10
291.661363
 20
181.320117
 11
296.994909
 21
165.209459
  0
LINE
  8
CutLine
  6
CONTINUOUS
 62
8
 10
296.994909
 20
165.209459
 11
315.203605
 21
172.726262
  0
LINE
  8
CutLine
  6
CONTINUOUS
 62
8
 10
315.203605
 20
172.726262
 11
406.787146
 21
148.019624
  0
LINE
  8
CutLine
  6
CONTINUOUS
 62
8
 10
406.787146
 20
148.019624
 11
415.247437
 21
133.308285
  0
LINE
  8
CutLine
  6
CONTINUOUS
 62
8
 10
191.665476
 20
291.241257
 11
202.022445
 21
277.797552
  0
LINE
  8
CutLine
  6
CONTINUOUS
 62
8
 10
202.022445
 20
277.797552
 11
193.161388
 21
209.473216
  0
LINE
  8
CutLine
  6
CONTINUOUS
 62
8
 10
459.033074
 20
300.277150
 11
473.727264
 21
308.767190
  0
LINE
  8
CutLine
  6
CONTINUOUS
 62
8
 10
473.727264
 20
308.767190
 11
523.549367
 21
295.434687
  0
LINE
  8
CutLine
  6
CONTINUOUS
 62
8
 10
523.549367
 20
295.434687
 11
532.039407
 21
280.740497
  0
LINE
  8
CutLine
  6
CONTINUOUS
 62
8
 10
489.173576
 20
156.569804
 11
472.622501
 21
160.319726
  0
LINE
  8
CutLine
  6
CONTINUOUS
 62
8
 10
472.622501
 20
160.319726
 11
466.671540
 21
169.757190
  0
LINE
  8
CutLine
  6
CONTINUOUS
 62
8
 10
472.119393
 20
473.643317
 11
483.974322
 21
478.519093
  0
LINE
  8
CutLine
  6
CONTINUOUS
 62
8
 10
450.433089
 20
311.147134
 11
459.033074
 21
300.277150
  0
LINE
  8
CutLine
  6
CONTINUOUS
 62
8
 10
483.379916
 20
506.325010
 11
485.087535
 21
503.348124
  0
LINE
  8
CutLine
  6
CONTINUOUS
 62
8
 10
485.087535
 20
503.348124
 11
480.649386
 21
486.968172
  0
LINE
  8
CutLine
  6
CONTINUOUS
 62
8
 10
405.895177
 20
488.329807
 11
402.534958
 21
504.964377
  0
LINE
  8
CutLine
  6
CONTINUOUS
 62
8
 10
402.534958
 20
504.964377
 11
404.854727
 21
508.458580
  0
LINE
  8
CutLine
  6
CONTINUOUS
 62
8
 10
485.213662
 20
657.047384
 11
505.511880
 21
659.962324
  0
LINE
  8
CutLine
  6
CONTINUOUS
 62
8
 10
505.511880
 20
659.962324
 11
526.993207
 21
648.711289
  0
LINE
  8
CutLine
  6
CONTINUOUS
 62
8
 10
526.993207
 20
648.711289
 11
532.055745
 21
632.513428
  0
LINE
  8
CutLine
  6
CONTINUOUS
 62
8
 10
365.000000
 20
636.563503
 11
366.702085
 21
640.903177
  0
LINE
  8
CutLine
  6
CONTINUOUS
 62
8
 10
366.702127
 20
640.903286
 11
371.196535
 21
652.362331
  0
LINE
  8
CutLine
  6
CONTINUOUS
 62
8
 10
371.196535
 20
652.362331
 11
372.977817
 21
653.139967
  0
LINE
  8
CutLine
  6
CONTINUOUS
 62
8
 10
372.977826
 20
653.139971
 11
392.891627
 21
661.833538
  0
LINE
  8
CutLine
  6
CONTINUOUS
 62
8
 10
392.891627
 20
661.833538
 11
414.856759
 21
658.328964
  0
LINE
  8
ValleyLine
  6
CONTINUOUS
 62
1
 10
503.716819
 20
39.060029
 11
531.964459
 21
106.952850
  0
LINE
  8
MountainLine
  6
CONTINUOUS
 62
5
 10
531.964459
 20
106.952850
 11
443.174809
 21
14.509914
  0
LINE
  8
ValleyLine
  6
CONTINUOUS
 62
1
 10
443.174809
 20
14.509914
 11
503.716819
 21
39.060029
  0
LINE
  8
CutLine
  6
CONTINUOUS
 62
8
 10
490.781110
 20
140.119512
 11
411.240066
 21
113.343364
  0
LINE
  8
ValleyLine
  6
CONTINUOUS
 62
1
 10
411.240066
 20
113.343364
 11
531.964459
 21
106.952850
  0
LINE
  8
CutLine
  6
CONTINUOUS
 62
8
 10
531.964459
 20
106.952850
 11
490.781110
 21
140.119512
  0
LINE
  8
ValleyLine
  6
CONTINUOUS
 62
1
 10
411.240066
 20
113.343364
 11
428.056829
 21
74.530812
  0
LINE
  8
ValleyLine
  6
CONTINUOUS
 62
1
 10
428.056829
 20
74.530812
 11
531.964459
 21
106.952850
  0
LINE
  8
ValleyLine
  6
CONTINUOUS
 62
1
 10
428.056829
 20
74.530812
 11
443.174809
 21
14.509914
  0
LINE
  8
MountainLine
  6
CONTINUOUS
 62
5
 10
443.174809
 20
14.509914
 11
463.818120
 21
22.418650
  0
LINE
  8
MountainLine
  6
CONTINUOUS
 62
5
 10
463.818120
 20
22.418650
 11
503.716819
 21
39.060029
  0
LINE
  8
ValleyLine
  6
CONTINUOUS
 62
1
 10
643.077740
 20
77.505396
 11
579.772007
 21
58.318612
  0
LINE
  8
CutLine
  6
CONTINUOUS
 62
8
 10
579.772007
 20
58.318612
 11
591.890992
 21
12.059878
  0
LINE
  8
CutLine
  6
CONTINUOUS
 62
8
 10
591.890992
 20
12.059878
 11
643.077740
 21
77.505396
  0
LINE
  8
ValleyLine
  6
CONTINUOUS
 62
1
 10
600.403093
 20
123.320186
 11
702.190944
 21
181.833538
  0
LINE
  8
CutLine
  6
CONTINUOUS
 62
8
 10
702.190944
 20
181.833538
 11
625.487077
 21
171.592595
  0
LINE
  8
CutLine
  6
CONTINUOUS
 62
8
 10
625.487077
 20
171.592595
 11
600.403093
 21
123.320186
  0
LINE
  8
ValleyLine
  6
CONTINUOUS
 62
1
 10
702.261396
 20
137.532911
 11
702.190944
 21
181.833538
  0
LINE
  8
ValleyLine
  6
CONTINUOUS
 62
1
 10
600.403093
 20
123.320186
 11
643.077740
 21
77.505396
  0
LINE
  8
CutLine
  6
CONTINUOUS
 62
8
 10
643.077740
 20
77.505396
 11
714.485708
 21
89.281456
  0
LINE
  8
ValleyLine
  6
CONTINUOUS
 62
1
 10
714.485708
 20
89.281456
 11
702.261396
 21
137.532911
  0
LINE
  8
ValleyLine
  6
CONTINUOUS
 62
1
 10
579.772007
 20
58.318612
 11
503.716819
 21
39.060029
  0
LINE
  8
CutLine
  6
CONTINUOUS
 62
8
 10
503.716819
 20
39.060029
 11
562.994873
 21
19.227096
  0
LINE
  8
CutLine
  6
CONTINUOUS
 62
8
 10
562.994873
 20
19.227096
 11
584.146195
 21
10.699217
  0
LINE
  8
ValleyLine
  6
CONTINUOUS
 62
1
 10
584.146195
 20
10.699217
 11
579.772007
 21
58.318612
  0
LINE
  8
ValleyLine
  6
CONTINUOUS
 62
1
 10
579.772007
 20
58.318612
 11
531.964459
 21
106.952850
  0
LINE
  8
ValleyLine
  6
CONTINUOUS
 62
1
 10
600.403093
 20
123.320186
 11
579.772007
 21
58.318612
  0
LINE
  8
CutLine
  6
CONTINUOUS
 62
8
 10
566.183765
 20
115.136530
 11
531.964459
 21
106.952850
  0
LINE
  8
CutLine
  6
CONTINUOUS
 62
8
 10
600.403093
 20
123.320186
 11
566.183765
 21
115.136530
  0
LINE
  8
MountainLine
  6
CONTINUOUS
 62
5
 10
187.972968
 20
466.247841
 11
167.165862
 21
377.583191
  0
LINE
  8
ValleyLine
  6
CONTINUOUS
 62
1
 10
167.165862
 20
377.583191
 11
217.036037
 21
406.415704
  0
LINE
  8
ValleyLine
  6
CONTINUOUS
 62
1
 10
217.036037
 20
406.415704
 11
187.972968
 21
466.247841
  0
LINE
  8
ValleyLine
  6
CONTINUOUS
 62
1
 10
118.500614
 20
455.728698
 11
61.655015
 21
415.111095
  0
LINE
  8
ValleyLine
  6
CONTINUOUS
 62
1
 10
61.655015
 20
415.111095
 11
167.165862
 21
377.583191
  0
LINE
  8
ValleyLine
  6
CONTINUOUS
 62
1
 10
167.165862
 20
377.583191
 11
118.500614
 21
455.728698
  0
LINE
  8
CutLine
  6
CONTINUOUS
 62
8
 10
187.972968
 20
466.247841
 11
118.500614
 21
455.728698
  0
LINE
  8
CutLine
  6
CONTINUOUS
 62
8
 10
271.674333
 20
571.283933
 11
242.128408
 21
543.047961
  0
LINE
  8
ValleyLine
  6
CONTINUOUS
 62
1
 10
242.128408
 20
543.047961
 11
374.296716
 21
500.673862
  0
LINE
  8
ValleyLine
  6
CONTINUOUS
 62
1
 10
374.296716
 20
500.673862
 11
271.674333
 21
571.283933
  0
LINE
  8
CutLine
  6
CONTINUOUS
 62
8
 10
374.296716
 20
500.673862
 11
328.093546
 21
565.622074
  0
LINE
  8
ValleyLine
  6
CONTINUOUS
 62
1
 10
328.093546
 20
565.622074
 11
271.674333
 21
571.283933
  0
LINE
  8
CutLine
  6
CONTINUOUS
 62
8
 10
242.128408
 20
543.047961
 11
214.836678
 21
508.152231
  0
LINE
  8
MountainLine
  6
CONTINUOUS
 62
5
 10
214.836678
 20
508.152231
 11
374.296716
 21
500.673862
  0
LINE
  8
CutLine
  6
CONTINUOUS
 62
8
 10
214.836678
 20
508.152231
 11
187.972968
 21
466.247841
  0
LINE
  8
ValleyLine
  6
CONTINUOUS
 62
1
 10
187.972968
 20
466.247841
 11
374.296716
 21
500.673862
  0
LINE
  8
ValleyLine
  6
CONTINUOUS
 62
1
 10
217.036037
 20
406.415704
 11
269.548921
 21
448.826492
  0
LINE
  8
MountainLine
  6
CONTINUOUS
 62
5
 10
269.548921
 20
448.826492
 11
187.972968
 21
466.247841
  0
LINE
  8
ValleyLine
  6
CONTINUOUS
 62
1
 10
269.548921
 20
448.826492
 11
374.296716
 21
500.673862
  0
LINE
  8
ValleyLine
  6
CONTINUOUS
 62
1
 10
191.665476
 20
291.241257
 11
167.165862
 21
377.583191
  0
LINE
  8
MountainLine
  6
CONTINUOUS
 62
5
 10
167.165862
 20
377.583191
 11
112.540901
 21
281.633632
  0
LINE
  8
MountainLine
  6
CONTINUOUS
 62
5
 10
112.540901
 20
281.633632
 11
191.665476
 21
291.241257
  0
LINE
  8
CutLine
  6
CONTINUOUS
 62
8
 10
61.655015
 20
415.111095
 11
112.540901
 21
281.633632
  0
LINE
  8
ValleyLine
  6
CONTINUOUS
 62
1
 10
328.093546
 20
565.622074
 11
354.047088
 21
616.227801
  0
LINE
  8
ValleyLine
  6
CONTINUOUS
 62
1
 10
282.826802
 20
610.733745
 11
271.674333
 21
571.283933
  0
LINE
  8
ValleyLine
  6
CONTINUOUS
 62
1
 10
271.674333
 20
571.283933
 11
325.837474
 21
619.058733
  0
LINE
  8
CutLine
  6
CONTINUOUS
 62
8
 10
325.837474
 20
619.058733
 11
282.826802
 21
610.733745
  0
LINE
  8
CutLine
  6
CONTINUOUS
 62
8
 10
354.047088
 20
616.227801
 11
325.837474
 21
619.058733
  0
LINE
  8
ValleyLine
  6
CONTINUOUS
 62
1
 10
230.822240
 20
570.127098
 11
271.674333
 21
571.283933
  0
LINE
  8
CutLine
  6
CONTINUOUS
 62
8
 10
282.826802
 20
610.733745
 11
230.822240
 21
570.127098
  0
LINE
  8
ValleyLine
  6
CONTINUOUS
 62
1
 10
6.575626
 20
547.724210
 11
22.205857
 21
546.035261
  0
LINE
  8
ValleyLine
  6
CONTINUOUS
 62
1
 10
22.205857
 20
546.035261
 11
89.620220
 21
545.117586
  0
LINE
  8
MountainLine
  6
CONTINUOUS
 62
5
 10
89.620220
 20
545.117586
 11
6.575626
 21
547.724210
  0
LINE
  8
CutLine
  6
CONTINUOUS
 62
8
 10
119.251732
 20
484.374889
 11
118.414234
 21
455.751725
  0
LINE
  8
ValleyLine
  6
CONTINUOUS
 62
1
 10
118.414234
 20
455.751725
 11
155.598942
 21
515.370161
  0
LINE
  8
CutLine
  6
CONTINUOUS
 62
8
 10
155.598942
 20
515.370161
 11
136.267000
 21
522.325683
  0
LINE
  8
ValleyLine
  6
CONTINUOUS
 62
1
 10
89.620220
 20
545.117586
 11
136.267000
 21
522.325683
  0
LINE
  8
ValleyLine
  6
CONTINUOUS
 62
1
 10
136.267000
 20
522.325683
 11
155.608671
 21
515.397262
  0
LINE
  8
MountainLine
  6
CONTINUOUS
 62
5
 10
155.608671
 20
515.397262
 11
89.620220
 21
545.117586
  0
LINE
  8
ValleyLine
  6
CONTINUOUS
 62
1
 10
89.620220
 20
545.117586
 11
119.251732
 21
484.374889
  0
LINE
  8
MountainLine
  6
CONTINUOUS
 62
5
 10
119.251732
 20
484.374889
 11
109.684488
 21
461.408972
  0
LINE
  8
ValleyLine
  6
CONTINUOUS
 62
1
 10
109.684488
 20
461.408972
 11
118.513654
 21
455.748989
  0
LINE
  8
ValleyLine
  6
CONTINUOUS
 62
1
 10
118.513654
 20
455.748989
 11
119.251732
 21
484.374889
  0
LINE
  8
ValleyLine
  6
CONTINUOUS
 62
1
 10
89.620220
 20
545.117586
 11
109.684488
 21
461.408972
  0
LINE
  8
ValleyLine
  6
CONTINUOUS
 62
1
 10
109.684488
 20
461.408972
 11
67.118830
 21
436.263339
  0
LINE
  8
ValleyLine
  6
CONTINUOUS
 62
1
 10
67.118830
 20
436.263339
 11
61.655015
 21
415.111095
  0
LINE
  8
ValleyLine
  6
CONTINUOUS
 62
1
 10
89.620220
 20
545.117586
 11
67.118830
 21
436.263339
  0
LINE
  8
CutLine
  6
CONTINUOUS
 62
8
 10
118.500614
 20
455.728698
 11
109.684488
 21
461.408972
  0
LINE
  8
CutLine
  6
CONTINUOUS
 62
8
 10
22.205857
 20
546.035261
 11
6.564545
 21
547.618301
  0
LINE
  8
ValleyLine
  6
CONTINUOUS
 62
1
 10
6.564545
 20
547.618301
 11
60.638254
 21
415.400146
  0
LINE
  8
ValleyLine
  6
CONTINUOUS
 62
1
 10
67.118830
 20
436.263339
 11
22.205857
 21
546.035261
  0
LINE
  8
CutLine
  6
CONTINUOUS
 62
8
 10
60.638254
 20
415.400146
 11
67.118830
 21
436.263339
  0
LINE
  8
CutLine
  6
CONTINUOUS
 62
8
 10
380.000685
 20
666.833538
 11
354.047088
 21
616.227801
  0
LINE
  8
CutLine
  6
CONTINUOUS
 62
8
 10
328.093546
 20
565.622074
 11
380.000685
 21
666.833538
  0
LINE
  8
CutLine
  6
CONTINUOUS
 62
8
 10
135.653347
 20
96.785394
 11
145.319389
 21
112.121934
  0
LINE
  8
ValleyLine
  6
CONTINUOUS
 62
1
 10
145.319389
 20
112.121934
 11
85.260377
 21
148.197234
  0
LINE
  8
MountainLine
  6
CONTINUOUS
 62
5
 10
85.260377
 20
148.197234
 11
135.653347
 21
96.785394
  0
LINE
  8
ValleyLine
  6
CONTINUOUS
 62
1
 10
85.260377
 20
148.197234
 11
89.012731
 21
132.591074
  0
LINE
  8
ValleyLine
  6
CONTINUOUS
 62
1
 10
89.012731
 20
132.591074
 11
117.982762
 21
23.442696
  0
LINE
  8
CutLine
  6
CONTINUOUS
 62
8
 10
117.982762
 20
23.442696
 11
135.653347
 21
96.785394
  0
LINE
  8
CutLine
  6
CONTINUOUS
 62
8
 10
89.012731
 20
132.591074
 11
85.112472
 21
148.160929
  0
LINE
  8
ValleyLine
  6
CONTINUOUS
 62
1
 10
85.112472
 20
148.160929
 11
32.697522
 21
22.454237
  0
LINE
  8
MountainLine
  6
CONTINUOUS
 62
5
 10
32.697522
 20
22.454237
 11
55.495238
 21
21.848229
  0
LINE
  8
MountainLine
  6
CONTINUOUS
 62
5
 10
55.495238
 20
21.848229
 11
117.982762
 21
23.442696
  0
LINE
  8
CutLine
  6
CONTINUOUS
 62
8
 10
222.319611
 20
107.797872
 11
221.060138
 21
129.868398
  0
LINE
  8
MountainLine
  6
CONTINUOUS
 62
5
 10
221.060138
 20
129.868398
 11
159.003365
 21
100.231156
  0
LINE
  8
CutLine
  6
CONTINUOUS
 62
8
 10
225.547460
 20
64.688445
 11
222.319611
 21
107.797872
  0
LINE
  8
ValleyLine
  6
CONTINUOUS
 62
1
 10
159.003365
 20
100.231156
 11
225.547460
 21
64.688445
  0
LINE
  8
ValleyLine
  6
CONTINUOUS
 62
1
 10
221.060138
 20
129.868398
 11
145.319389
 21
112.121934
  0
LINE
  8
ValleyLine
  6
CONTINUOUS
 62
1
 10
145.319389
 20
112.121934
 11
159.003365
 21
100.231156
  0
LINE
  8
ValleyLine
  6
CONTINUOUS
 62
1
 10
348.710323
 20
1.676910
 11
331.435613
 21
46.483866
  0
LINE
  8
ValleyLine
  6
CONTINUOUS
 62
1
 10
331.435613
 20
46.483866
 11
292.386460
 21
32.333456
  0
LINE
  8
CutLine
  6
CONTINUOUS
 62
8
 10
292.386460
 20
32.333456
 11
348.710323
 21
1.676910
  0
LINE
  8
MountainLine
  6
CONTINUOUS
 62
5
 10
394.125725
 20
0.000000
 11
331.435613
 21
46.483866
  0
LINE
  8
CutLine
  6
CONTINUOUS
 62
8
 10
348.710323
 20
1.676910
 11
394.125725
 21
0.000000
  0
LINE
  8
ValleyLine
  6
CONTINUOUS
 62
1
 10
373.146509
 20
52.063253
 11
331.435613
 21
46.483866
  0
LINE
  8
CutLine
  6
CONTINUOUS
 62
8
 10
394.125725
 20
0.000000
 11
414.981167
 21
2.789677
  0
LINE
  8
CutLine
  6
CONTINUOUS
 62
8
 10
414.981167
 20
2.789677
 11
373.146509
 21
52.063253
  0
LINE
  8
ValleyLine
  6
CONTINUOUS
 62
1
 10
241.668365
 20
193.014659
 11
179.657372
 21
198.651205
  0
LINE
  8
MountainLine
  6
CONTINUOUS
 62
5
 10
179.657372
 20
198.651205
 11
221.060138
 21
129.868398
  0
LINE
  8
ValleyLine
  6
CONTINUOUS
 62
1
 10
221.060138
 20
129.868398
 11
241.668365
 21
193.014659
  0
LINE
  8
ValleyLine
  6
CONTINUOUS
 62
1
 10
179.657372
 20
198.651205
 11
85.260377
 21
148.197234
  0
LINE
  8
ValleyLine
  6
CONTINUOUS
 62
1
 10
145.319389
 20
112.121934
 11
179.657372
 21
198.651205
  0
LINE
  8
CutLine
  6
CONTINUOUS
 62
8
 10
373.146509
 20
52.063253
 11
415.247437
 21
133.308285
  0
LINE
  8
ValleyLine
  6
CONTINUOUS
 62
1
 10
415.247437
 20
133.308285
 11
331.435613
 21
46.483866
  0
LINE
  8
ValleyLine
  6
CONTINUOUS
 62
1
 10
296.994909
 20
165.209459
 11
241.668365
 21
193.014659
  0
LINE
  8
MountainLine
  6
CONTINUOUS
 62
5
 10
221.060138
 20
129.868398
 11
296.994909
 21
165.209459
  0
LINE
  8
MountainLine
  6
CONTINUOUS
 62
5
 10
415.247437
 20
133.308285
 11
259.526635
 21
81.377264
  0
LINE
  8
CutLine
  6
CONTINUOUS
 62
8
 10
259.526635
 20
81.377264
 11
290.322267
 21
52.379906
  0
LINE
  8
ValleyLine
  6
CONTINUOUS
 62
1
 10
290.322267
 20
52.379906
 11
415.247437
 21
133.308285
  0
LINE
  8
ValleyLine
  6
CONTINUOUS
 62
1
 10
415.247437
 20
133.308285
 11
221.060138
 21
129.868398
  0
LINE
  8
CutLine
  6
CONTINUOUS
 62
8
 10
221.060138
 20
129.868398
 11
259.526635
 21
81.377264
  0
LINE
  8
CutLine
  6
CONTINUOUS
 62
8
 10
290.322267
 20
52.379906
 11
331.435613
 21
46.483866
  0
LINE
  8
ValleyLine
  6
CONTINUOUS
 62
1
 10
415.247437
 20
133.308285
 11
296.994909
 21
165.209459
  0
LINE
  8
MountainLine
  6
CONTINUOUS
 62
5
 10
179.657372
 20
198.651205
 11
112.540901
 21
281.633632
  0
LINE
  8
CutLine
  6
CONTINUOUS
 62
8
 10
112.540901
 20
281.633632
 11
85.260377
 21
148.197234
  0
LINE
  8
ValleyLine
  6
CONTINUOUS
 62
1
 10
179.657372
 20
198.651205
 11
191.665476
 21
291.241257
  0
LINE
  8
CutLine
  6
CONTINUOUS
 62
8
 10
961.459085
 20
572.144773
 11
961.459124
 21
621.989164
  0
LINE
  8
CutLine
  6
CONTINUOUS
 62
8
 10
961.459124
 20
621.989164
 11
961.459085
 21
671.833538
  0
LINE
  8
CutLine
  6
CONTINUOUS
 62
8
 10
961.459085
 20
671.833538
 11
961.459085
 21
572.144773
  0
LINE
  8
ValleyLine
  6
CONTINUOUS
 62
1
 10
449.238908
 20
219.901095
 11
532.039407
 21
280.740497
  0
LINE
  8
ValleyLine
  6
CONTINUOUS
 62
1
 10
532.039407
 20
280.740497
 11
459.033074
 21
300.277150
  0
LINE
  8
ValleyLine
  6
CONTINUOUS
 62
1
 10
459.033074
 20
300.277150
 11
449.238908
 21
219.901095
  0
LINE
  8
ValleyLine
  6
CONTINUOUS
 62
1
 10
449.238908
 20
219.901095
 11
489.173576
 21
156.569804
  0
LINE
  8
CutLine
  6
CONTINUOUS
 62
8
 10
489.173576
 20
156.569804
 11
532.039407
 21
280.740497
  0
LINE
  8
CutLine
  6
CONTINUOUS
 62
8
 10
296.377467
 20
434.563732
 11
247.908931
 21
403.432570
  0
LINE
  8
ValleyLine
  6
CONTINUOUS
 62
1
 10
247.908931
 20
403.432570
 11
392.693357
 21
308.011682
  0
LINE
  8
ValleyLine
  6
CONTINUOUS
 62
1
 10
392.693357
 20
308.011682
 11
296.377467
 21
434.563732
  0
LINE
  8
ValleyLine
  6
CONTINUOUS
 62
1
 10
392.693357
 20
308.011682
 11
240.000000
 21
223.136828
  0
LINE
  8
CutLine
  6
CONTINUOUS
 62
8
 10
240.000000
 20
223.136828
 11
294.905109
 21
193.767407
  0
LINE
  8
ValleyLine
  6
CONTINUOUS
 62
1
 10
294.905109
 20
193.767407
 11
392.693357
 21
308.011682
  0
LINE
  8
ValleyLine
  6
CONTINUOUS
 62
1
 10
392.693357
 20
308.011682
 11
259.527888
 21
314.437287
  0
LINE
  8
CutLine
  6
CONTINUOUS
 62
8
 10
259.527888
 20
314.437287
 11
240.000000
 21
223.136828
  0
LINE
  8
CutLine
  6
CONTINUOUS
 62
8
 10
247.908931
 20
403.432570
 11
259.527888
 21
314.437287
  0
LINE
  8
ValleyLine
  6
CONTINUOUS
 62
1
 10
452.528115
 20
403.134988
 11
392.693357
 21
308.011682
  0
LINE
  8
CutLine
  6
CONTINUOUS
 62
8
 10
392.693357
 20
308.011682
 11
459.384178
 21
311.633207
  0
LINE
  8
ValleyLine
  6
CONTINUOUS
 62
1
 10
459.384178
 20
311.633207
 11
452.528115
 21
403.134988
  0
LINE
  8
ValleyLine
  6
CONTINUOUS
 62
1
 10
452.528115
 20
403.134988
 11
360.463775
 21
455.758615
  0
LINE
  8
MountainLine
  6
CONTINUOUS
 62
5
 10
360.463775
 20
455.758615
 11
392.693357
 21
308.011682
  0
LINE
  8
CutLine
  6
CONTINUOUS
 62
8
 10
452.528115
 20
403.134988
 11
474.395109
 21
481.833538
  0
LINE
  8
CutLine
  6
CONTINUOUS
 62
8
 10
474.395109
 20
481.833538
 11
360.463775
 21
455.758615
  0
LINE
  8
CutLine
  6
CONTINUOUS
 62
8
 10
360.463775
 20
455.758615
 11
296.377467
 21
434.563732
  0
LINE
  8
ValleyLine
  6
CONTINUOUS
 62
1
 10
452.528115
 20
403.134988
 11
529.970960
 21
338.635275
  0
LINE
  8
CutLine
  6
CONTINUOUS
 62
8
 10
529.970960
 20
338.635275
 11
483.974322
 21
478.519093
  0
LINE
  8
ValleyLine
  6
CONTINUOUS
 62
1
 10
483.974322
 20
478.519093
 11
452.528115
 21
403.134988
  0
LINE
  8
CutLine
  6
CONTINUOUS
 62
8
 10
459.384178
 20
311.633207
 11
529.970960
 21
338.635275
  0
LINE
  8
ValleyLine
  6
CONTINUOUS
 62
1
 10
449.238908
 20
219.901095
 11
354.766815
 21
177.932897
  0
LINE
  8
CutLine
  6
CONTINUOUS
 62
8
 10
354.766815
 20
177.932897
 11
473.824517
 21
149.182088
  0
LINE
  8
CutLine
  6
CONTINUOUS
 62
8
 10
473.824517
 20
149.182088
 11
449.238908
 21
219.901095
  0
LINE
  8
ValleyLine
  6
CONTINUOUS
 62
1
 10
459.033074
 20
300.277150
 11
392.693357
 21
308.011682
  0
LINE
  8
ValleyLine
  6
CONTINUOUS
 62
1
 10
392.693357
 20
308.011682
 11
449.238908
 21
219.901095
  0
LINE
  8
MountainLine
  6
CONTINUOUS
 62
5
 10
392.693357
 20
308.011682
 11
354.766815
 21
177.932897
  0
LINE
  8
CutLine
  6
CONTINUOUS
 62
8
 10
294.905109
 20
193.767407
 11
354.766815
 21
177.932897
  0
LINE
  8
ValleyLine
  6
CONTINUOUS
 62
1
 10
459.332440
 20
524.129924
 11
430.017052
 21
524.663919
  0
LINE
  8
CutLine
  6
CONTINUOUS
 62
8
 10
443.272263
 20
487.649007
 11
480.649386
 21
486.968172
  0
LINE
  8
ValleyLine
  6
CONTINUOUS
 62
1
 10
480.649386
 20
486.968172
 11
459.332440
 21
524.129924
  0
LINE
  8
ValleyLine
  6
CONTINUOUS
 62
1
 10
430.017052
 20
524.663919
 11
405.895177
 21
488.329807
  0
LINE
  8
CutLine
  6
CONTINUOUS
 62
8
 10
405.895177
 20
488.329807
 11
443.272263
 21
487.649007
  0
LINE
  8
ValleyLine
  6
CONTINUOUS
 62
1
 10
485.213662
 20
657.047384
 11
459.332440
 21
524.129924
  0
LINE
  8
ValleyLine
  6
CONTINUOUS
 62
1
 10
493.763665
 20
498.636812
 11
485.213662
 21
657.047384
  0
LINE
  8
MountainLine
  6
CONTINUOUS
 62
5
 10
532.055745
 20
632.513428
 11
485.213662
 21
657.047384
  0
LINE
  8
CutLine
  6
CONTINUOUS
 62
8
 10
513.344749
 20
565.603199
 11
532.055745
 21
632.513428
  0
LINE
  8
CutLine
  6
CONTINUOUS
 62
8
 10
493.763665
 20
498.636812
 11
513.344749
 21
565.603199
  0
LINE
  8
CutLine
  6
CONTINUOUS
 62
8
 10
485.213662
 20
657.047384
 11
414.856759
 21
658.328964
  0
LINE
  8
ValleyLine
  6
CONTINUOUS
 62
1
 10
414.856759
 20
658.328964
 11
430.017052
 21
524.663919
  0
LINE
  8
CutLine
  6
CONTINUOUS
 62
8
 10
393.350930
 20
501.049769
 11
430.017052
 21
524.663919
  0
LINE
  8
ValleyLine
  6
CONTINUOUS
 62
1
 10
414.856759
 20
658.328964
 11
393.350930
 21
501.049769
  0
LINE
  8
MountainLine
  6
CONTINUOUS
 62
5
 10
414.856759
 20
658.328964
 11
365.000000
 21
636.563503
  0
LINE
  8
CutLine
  6
CONTINUOUS
 62
8
 10
365.000000
 20
636.563503
 11
380.041325
 21
568.734048
  0
LINE
  8
CutLine
  6
CONTINUOUS
 62
8
 10
380.041325
 20
568.734048
 11
393.350930
 21
501.049769
  0
LINE
  8
CutLine
  6
CONTINUOUS
 62
8
 10
459.332440
 20
524.129924
 11
493.763665
 21
498.636812
  0
ENDSEC
  0
EOF
