  0
SECTION
  2
HEADER
  9
$ACADVER
  1
AC1009
  0
ENDSEC
  0
SECTION
  2
BLOCKS
  0
ENDSEC
  0
SECTION
  2
ENTITIES
  0
LINE
  8
CutLine
  6
CONTINUOUS
 62
8
 10
513.627391
 20
22.017211
 11
507.192942
 21
23.045934
  0
LINE
  8
CutLine
  6
CONTINUOUS
 62
8
 10
507.192942
 20
23.045934
 11
508.221665
 21
29.480383
  0
LINE
  8
CutLine
  6
CONTINUOUS
 62
8
 10
544.092359
 20
182.050744
 11
545.138034
 21
197.288413
  0
LINE
  8
CutLine
  6
CONTINUOUS
 62
8
 10
545.138034
 20
197.288413
 11
562.288138
 21
212.235844
  0
LINE
  8
CutLine
  6
CONTINUOUS
 62
8
 10
562.288138
 20
212.235844
 11
580.090730
 21
213.425666
  0
LINE
  8
CutLine
  6
CONTINUOUS
 62
8
 10
508.221665
 20
29.480383
 11
493.032684
 21
27.875741
  0
LINE
  8
CutLine
  6
CONTINUOUS
 62
8
 10
493.032684
 20
27.875741
 11
441.604642
 21
69.475816
  0
LINE
  8
CutLine
  6
CONTINUOUS
 62
8
 10
441.604642
 20
69.475816
 11
440.000000
 21
84.664797
  0
LINE
  8
CutLine
  6
CONTINUOUS
 62
8
 10
509.548667
 20
149.081002
 11
509.904644
 21
164.350360
  0
LINE
  8
CutLine
  6
CONTINUOUS
 62
8
 10
509.904644
 20
164.350360
 11
528.823002
 21
182.406720
  0
LINE
  8
CutLine
  6
CONTINUOUS
 62
8
 10
528.823002
 20
182.406720
 11
544.092359
 21
182.050744
  0
LINE
  8
CutLine
  6
CONTINUOUS
 62
8
 10
440.000000
 20
84.664797
 11
440.584730
 21
99.927106
  0
LINE
  8
CutLine
  6
CONTINUOUS
 62
8
 10
440.584730
 20
99.927106
 11
494.286358
 21
149.665732
  0
LINE
  8
CutLine
  6
CONTINUOUS
 62
8
 10
494.286358
 20
149.665732
 11
509.548667
 21
149.081002
  0
LINE
  8
CutLine
  6
CONTINUOUS
 62
8
 10
960.128020
 20
283.362760
 11
959.314048
 21
282.470992
  0
LINE
  8
CutLine
  6
CONTINUOUS
 62
8
 10
949.401075
 20
370.451478
 11
961.440356
 21
361.052770
  0
LINE
  8
CutLine
  6
CONTINUOUS
 62
8
 10
961.440356
 20
361.052770
 11
969.526728
 21
295.402041
  0
LINE
  8
CutLine
  6
CONTINUOUS
 62
8
 10
969.526728
 20
295.402041
 11
960.128020
 21
283.362760
  0
LINE
  8
CutLine
  6
CONTINUOUS
 62
8
 10
949.088600
 20
371.406026
 11
948.459862
 21
370.148871
  0
LINE
  8
CutLine
  6
CONTINUOUS
 62
8
 10
913.234238
 20
451.493383
 11
927.504491
 21
446.049130
  0
LINE
  8
CutLine
  6
CONTINUOUS
 62
8
 10
927.504491
 20
446.049130
 11
954.532853
 21
385.676279
  0
LINE
  8
CutLine
  6
CONTINUOUS
 62
8
 10
954.532853
 20
385.676279
 11
949.088600
 21
371.406026
  0
LINE
  8
CutLine
  6
CONTINUOUS
 62
8
 10
960.163372
 20
282.502023
 11
968.926092
 21
269.992238
  0
LINE
  8
CutLine
  6
CONTINUOUS
 62
8
 10
968.926092
 20
269.992238
 11
957.451248
 21
204.848283
  0
LINE
  8
CutLine
  6
CONTINUOUS
 62
8
 10
957.451248
 20
204.848283
 11
944.941463
 21
196.085563
  0
LINE
  8
CutLine
  6
CONTINUOUS
 62
8
 10
763.713545
 20
251.163245
 11
763.211713
 21
251.930404
  0
LINE
  8
CutLine
  6
CONTINUOUS
 62
8
 10
912.993644
 20
451.853213
 11
912.876313
 21
451.255243
  0
LINE
  8
CutLine
  6
CONTINUOUS
 62
8
 10
855.583491
 20
518.212759
 11
870.817226
 21
517.111256
  0
LINE
  8
CutLine
  6
CONTINUOUS
 62
8
 10
870.817226
 20
517.111256
 11
914.095147
 21
467.086949
  0
LINE
  8
CutLine
  6
CONTINUOUS
 62
8
 10
914.095147
 20
467.086949
 11
912.993644
 21
451.853213
  0
LINE
  8
CutLine
  6
CONTINUOUS
 62
8
 10
944.941463
 20
196.085563
 11
949.791453
 21
181.602553
  0
LINE
  8
CutLine
  6
CONTINUOUS
 62
8
 10
949.791453
 20
181.602553
 11
920.291733
 21
122.398053
  0
LINE
  8
CutLine
  6
CONTINUOUS
 62
8
 10
920.291733
 20
122.398053
 11
905.808723
 21
117.548062
  0
LINE
  8
CutLine
  6
CONTINUOUS
 62
8
 10
740.154064
 20
212.333303
 11
739.661862
 21
213.600964
  0
LINE
  8
CutLine
  6
CONTINUOUS
 62
8
 10
845.984103
 20
53.356721
 11
850.870392
 21
38.885916
  0
LINE
  8
CutLine
  6
CONTINUOUS
 62
8
 10
850.870392
 20
38.885916
 11
834.035740
 21
4.886289
  0
LINE
  8
CutLine
  6
CONTINUOUS
 62
8
 10
834.035740
 20
4.886289
 11
819.564936
 21
0.000000
  0
LINE
  8
CutLine
  6
CONTINUOUS
 62
8
 10
905.808723
 20
117.548062
 11
906.346185
 21
102.284015
  0
LINE
  8
CutLine
  6
CONTINUOUS
 62
8
 10
906.346185
 20
102.284015
 11
861.248150
 21
53.894182
  0
LINE
  8
CutLine
  6
CONTINUOUS
 62
8
 10
861.248150
 20
53.894182
 11
845.984103
 21
53.356721
  0
LINE
  8
CutLine
  6
CONTINUOUS
 62
8
 10
476.247213
 20
152.967433
 11
475.037132
 21
154.733860
  0
LINE
  8
CutLine
  6
CONTINUOUS
 62
8
 10
502.642720
 20
194.142524
 11
500.877135
 21
195.817170
  0
LINE
  8
CutLine
  6
CONTINUOUS
 62
8
 10
674.479151
 20
455.244053
 11
675.726737
 21
437.289130
  0
LINE
  8
CutLine
  6
CONTINUOUS
 62
8
 10
675.726737
 20
437.289130
 11
674.308874
 21
435.097397
  0
LINE
  8
CutLine
  6
CONTINUOUS
 62
8
 10
674.308874
 20
435.097397
 11
659.374729
 21
431.895628
  0
LINE
  8
CutLine
  6
CONTINUOUS
 62
8
 10
486.566188
 20
428.492438
 11
501.823438
 21
429.196926
  0
LINE
  8
CutLine
  6
CONTINUOUS
 62
8
 10
501.823438
 20
429.196926
 11
548.039166
 21
387.060758
  0
LINE
  8
CutLine
  6
CONTINUOUS
 62
8
 10
548.039166
 20
387.060758
 11
548.743654
 21
371.803507
  0
LINE
  8
CutLine
  6
CONTINUOUS
 62
8
 10
548.743654
 20
371.803507
 11
563.311969
 21
367.216114
  0
LINE
  8
CutLine
  6
CONTINUOUS
 62
8
 10
563.311969
 20
367.216114
 11
592.210799
 21
311.752541
  0
LINE
  8
CutLine
  6
CONTINUOUS
 62
8
 10
592.210799
 20
311.752541
 11
587.623405
 21
297.184226
  0
LINE
  8
CutLine
  6
CONTINUOUS
 62
8
 10
443.641046
 20
457.707099
 11
480.655820
 21
442.576029
  0
LINE
  8
CutLine
  6
CONTINUOUS
 62
8
 10
480.655820
 20
442.576029
 11
486.566188
 21
428.492438
  0
LINE
  8
CutLine
  6
CONTINUOUS
 62
8
 10
244.580131
 20
437.415121
 11
251.511632
 21
451.025201
  0
LINE
  8
CutLine
  6
CONTINUOUS
 62
8
 10
251.511632
 20
451.025201
 11
289.540563
 21
463.389351
  0
LINE
  8
CutLine
  6
CONTINUOUS
 62
8
 10
178.396638
 20
385.459233
 11
180.222841
 21
400.623170
  0
LINE
  8
CutLine
  6
CONTINUOUS
 62
8
 10
180.222841
 20
400.623170
 11
229.416194
 21
439.241324
  0
LINE
  8
CutLine
  6
CONTINUOUS
 62
8
 10
229.416194
 20
439.241324
 11
244.580131
 21
437.415121
  0
LINE
  8
CutLine
  6
CONTINUOUS
 62
8
 10
222.216084
 20
278.880178
 11
230.728110
 21
266.198483
  0
LINE
  8
CutLine
  6
CONTINUOUS
 62
8
 10
230.728110
 20
266.198483
 11
225.049083
 21
237.332956
  0
LINE
  8
CutLine
  6
CONTINUOUS
 62
8
 10
225.049083
 20
237.332956
 11
212.367387
 21
228.820930
  0
LINE
  8
CutLine
  6
CONTINUOUS
 62
8
 10
115.776465
 20
260.389210
 11
109.063422
 21
274.108359
  0
LINE
  8
CutLine
  6
CONTINUOUS
 62
8
 10
109.063422
 20
274.108359
 11
120.407946
 21
307.192853
  0
LINE
  8
CutLine
  6
CONTINUOUS
 62
8
 10
120.407946
 20
307.192853
 11
134.127095
 21
313.905896
  0
LINE
  8
CutLine
  6
CONTINUOUS
 62
8
 10
134.127095
 20
313.905896
 11
130.625048
 21
328.772492
  0
LINE
  8
CutLine
  6
CONTINUOUS
 62
8
 10
130.625048
 20
328.772492
 11
163.530043
 21
381.957186
  0
LINE
  8
CutLine
  6
CONTINUOUS
 62
8
 10
163.530043
 20
381.957186
 11
178.396638
 21
385.459233
  0
LINE
  8
CutLine
  6
CONTINUOUS
 62
8
 10
474.651320
 20
153.336141
 11
466.688154
 21
140.302800
  0
LINE
  8
CutLine
  6
CONTINUOUS
 62
8
 10
466.688154
 20
140.302800
 11
450.042712
 21
136.283309
  0
LINE
  8
CutLine
  6
CONTINUOUS
 62
8
 10
450.042712
 20
136.283309
 11
437.009372
 21
144.246475
  0
LINE
  8
CutLine
  6
CONTINUOUS
 62
8
 10
341.593887
 20
167.776236
 11
326.889075
 21
171.905216
  0
LINE
  8
CutLine
  6
CONTINUOUS
 62
8
 10
326.889075
 20
171.905216
 11
312.484952
 21
197.556556
  0
LINE
  8
CutLine
  6
CONTINUOUS
 62
8
 10
312.484952
 20
197.556556
 11
316.613932
 21
212.261369
  0
LINE
  8
CutLine
  6
CONTINUOUS
 62
8
 10
386.014501
 20
142.681736
 11
371.299098
 21
138.590660
  0
LINE
  8
CutLine
  6
CONTINUOUS
 62
8
 10
371.299098
 20
138.590660
 11
345.684962
 21
153.060832
  0
LINE
  8
CutLine
  6
CONTINUOUS
 62
8
 10
345.684962
 20
153.060832
 11
341.593887
 21
167.776236
  0
LINE
  8
CutLine
  6
CONTINUOUS
 62
8
 10
316.613932
 20
212.261369
 11
306.178954
 21
223.414450
  0
LINE
  8
CutLine
  6
CONTINUOUS
 62
8
 10
306.178954
 20
223.414450
 11
307.156998
 21
252.817056
  0
LINE
  8
CutLine
  6
CONTINUOUS
 62
8
 10
307.156998
 20
252.817056
 11
318.310079
 21
263.252034
  0
LINE
  8
CutLine
  6
CONTINUOUS
 62
8
 10
318.310079
 20
263.252034
 11
315.167421
 21
278.198729
  0
LINE
  8
CutLine
  6
CONTINUOUS
 62
8
 10
315.167421
 20
278.198729
 11
331.244339
 21
302.836151
  0
LINE
  8
CutLine
  6
CONTINUOUS
 62
8
 10
331.244339
 20
302.836151
 11
346.191034
 21
305.978809
  0
LINE
  8
CutLine
  6
CONTINUOUS
 62
8
 10
392.181095
 20
328.065909
 11
403.978012
 21
337.767081
  0
LINE
  8
CutLine
  6
CONTINUOUS
 62
8
 10
403.978012
 20
337.767081
 11
433.258078
 21
334.912710
  0
LINE
  8
CutLine
  6
CONTINUOUS
 62
8
 10
433.258078
 20
334.912710
 11
442.959250
 21
323.115793
  0
LINE
  8
CutLine
  6
CONTINUOUS
 62
8
 10
346.191034
 20
305.978809
 11
351.250964
 21
320.389815
  0
LINE
  8
CutLine
  6
CONTINUOUS
 62
8
 10
351.250964
 20
320.389815
 11
377.770089
 21
333.125840
  0
LINE
  8
CutLine
  6
CONTINUOUS
 62
8
 10
377.770089
 20
333.125840
 11
392.181095
 21
328.065909
  0
LINE
  8
CutLine
  6
CONTINUOUS
 62
8
 10
483.817644
 20
292.562293
 11
481.850686
 21
277.415971
  0
LINE
  8
CutLine
  6
CONTINUOUS
 62
8
 10
481.850686
 20
277.415971
 11
444.058980
 21
248.311636
  0
LINE
  8
CutLine
  6
CONTINUOUS
 62
8
 10
442.959250
 20
323.115793
 11
458.076177
 21
325.297199
  0
LINE
  8
CutLine
  6
CONTINUOUS
 62
8
 10
458.076177
 20
325.297199
 11
473.885946
 21
313.474811
  0
LINE
  8
CutLine
  6
CONTINUOUS
 62
8
 10
483.448175
 20
295.122676
 11
483.817644
 21
292.562293
  0
LINE
  8
MountainLine
  6
CONTINUOUS
 62
5
 10
776.378498
 20
119.604535
 11
720.130706
 21
91.992968
  0
LINE
  8
CutLine
  6
CONTINUOUS
 62
8
 10
720.130706
 20
91.992968
 11
725.310005
 21
89.086068
  0
LINE
  8
ValleyLine
  6
CONTINUOUS
 62
1
 10
725.310005
 20
89.086068
 11
776.378498
 21
119.604535
  0
LINE
  8
CutLine
  6
CONTINUOUS
 62
8
 10
725.310005
 20
89.086068
 11
774.761894
 21
53.562733
  0
LINE
  8
ValleyLine
  6
CONTINUOUS
 62
1
 10
774.761894
 20
53.562733
 11
776.378498
 21
119.604535
  0
LINE
  8
ValleyLine
  6
CONTINUOUS
 62
1
 10
776.378498
 20
119.604535
 11
702.999559
 21
187.131181
  0
LINE
  8
ValleyLine
  6
CONTINUOUS
 62
1
 10
702.999559
 20
187.131181
 11
720.130706
 21
91.992968
  0
LINE
  8
CutLine
  6
CONTINUOUS
 62
8
 10
513.627391
 20
22.017211
 11
554.242794
 21
62.690049
  0
LINE
  8
ValleyLine
  6
CONTINUOUS
 62
1
 10
554.242794
 20
62.690049
 11
508.221665
 21
29.480383
  0
LINE
  8
ValleyLine
  6
CONTINUOUS
 62
1
 10
508.221665
 20
29.480383
 11
513.627391
 21
22.017211
  0
LINE
  8
CutLine
  6
CONTINUOUS
 62
8
 10
667.143932
 20
97.288508
 11
720.130706
 21
91.992968
  0
LINE
  8
ValleyLine
  6
CONTINUOUS
 62
1
 10
659.517345
 20
177.879712
 11
667.143932
 21
97.288508
  0
LINE
  8
CutLine
  6
CONTINUOUS
 62
8
 10
702.999559
 20
187.131181
 11
659.517345
 21
177.879712
  0
LINE
  8
MountainLine
  6
CONTINUOUS
 62
5
 10
550.258978
 20
114.954052
 11
598.309643
 21
92.302112
  0
LINE
  8
ValleyLine
  6
CONTINUOUS
 62
1
 10
598.309643
 20
92.302112
 11
616.076528
 21
187.323655
  0
LINE
  8
ValleyLine
  6
CONTINUOUS
 62
1
 10
616.076528
 20
187.323655
 11
550.258978
 21
114.954052
  0
LINE
  8
CutLine
  6
CONTINUOUS
 62
8
 10
619.697235
 20
95.073261
 11
667.143932
 21
97.288508
  0
LINE
  8
ValleyLine
  6
CONTINUOUS
 62
1
 10
659.517345
 20
177.879712
 11
619.697235
 21
95.073261
  0
LINE
  8
CutLine
  6
CONTINUOUS
 62
8
 10
598.309643
 20
92.302112
 11
619.697235
 21
95.073261
  0
LINE
  8
ValleyLine
  6
CONTINUOUS
 62
1
 10
619.697235
 20
95.073261
 11
616.076528
 21
187.323655
  0
LINE
  8
CutLine
  6
CONTINUOUS
 62
8
 10
659.517345
 20
177.879712
 11
616.076528
 21
187.323655
  0
LINE
  8
CutLine
  6
CONTINUOUS
 62
8
 10
616.076528
 20
187.323655
 11
580.090730
 21
213.425666
  0
LINE
  8
ValleyLine
  6
CONTINUOUS
 62
1
 10
580.090730
 20
213.425666
 11
544.092359
 21
182.050744
  0
LINE
  8
ValleyLine
  6
CONTINUOUS
 62
1
 10
544.092359
 20
182.050744
 11
550.258978
 21
114.954052
  0
LINE
  8
ValleyLine
  6
CONTINUOUS
 62
1
 10
440.000000
 20
84.664797
 11
508.221665
 21
29.480383
  0
LINE
  8
CutLine
  6
CONTINUOUS
 62
8
 10
554.242794
 20
62.690049
 11
550.258978
 21
114.954052
  0
LINE
  8
ValleyLine
  6
CONTINUOUS
 62
1
 10
544.092359
 20
182.050744
 11
509.548667
 21
149.081002
  0
LINE
  8
ValleyLine
  6
CONTINUOUS
 62
1
 10
509.548667
 20
149.081002
 11
440.000000
 21
84.664797
  0
LINE
  8
CutLine
  6
CONTINUOUS
 62
8
 10
552.517299
 20
62.587108
 11
598.309643
 21
92.302112
  0
LINE
  8
ValleyLine
  6
CONTINUOUS
 62
1
 10
550.258978
 20
114.954052
 11
552.517299
 21
62.587108
  0
LINE
  8
ValleyLine
  6
CONTINUOUS
 62
1
 10
865.104109
 20
279.028925
 11
960.128020
 21
283.362760
  0
LINE
  8
ValleyLine
  6
CONTINUOUS
 62
1
 10
960.128020
 20
283.362760
 11
949.401075
 21
370.451478
  0
LINE
  8
CutLine
  6
CONTINUOUS
 62
8
 10
949.401075
 20
370.451478
 11
859.015706
 21
341.391931
  0
LINE
  8
ValleyLine
  6
CONTINUOUS
 62
1
 10
859.015706
 20
341.391931
 11
770.043287
 21
295.857869
  0
LINE
  8
ValleyLine
  6
CONTINUOUS
 62
1
 10
770.043287
 20
295.857869
 11
865.104109
 21
279.028925
  0
LINE
  8
ValleyLine
  6
CONTINUOUS
 62
1
 10
859.015706
 20
341.391931
 11
949.088600
 21
371.406026
  0
LINE
  8
ValleyLine
  6
CONTINUOUS
 62
1
 10
834.279693
 20
398.962234
 11
758.868945
 21
338.886077
  0
LINE
  8
ValleyLine
  6
CONTINUOUS
 62
1
 10
758.868945
 20
338.886077
 11
859.015706
 21
341.391931
  0
LINE
  8
ValleyLine
  6
CONTINUOUS
 62
1
 10
949.088600
 20
371.406026
 11
913.234238
 21
451.493383
  0
LINE
  8
CutLine
  6
CONTINUOUS
 62
8
 10
913.234238
 20
451.493383
 11
834.279693
 21
398.962234
  0
LINE
  8
CutLine
  6
CONTINUOUS
 62
8
 10
758.868945
 20
338.886077
 11
770.043287
 21
295.857869
  0
LINE
  8
ValleyLine
  6
CONTINUOUS
 62
1
 10
852.057693
 20
217.742658
 11
944.941463
 21
196.085563
  0
LINE
  8
ValleyLine
  6
CONTINUOUS
 62
1
 10
944.941463
 20
196.085563
 11
960.163372
 21
282.502023
  0
LINE
  8
CutLine
  6
CONTINUOUS
 62
8
 10
960.163372
 20
282.502023
 11
865.104109
 21
279.028925
  0
LINE
  8
ValleyLine
  6
CONTINUOUS
 62
1
 10
865.104109
 20
279.028925
 11
763.211713
 21
251.930404
  0
LINE
  8
ValleyLine
  6
CONTINUOUS
 62
1
 10
763.211713
 20
251.930404
 11
852.057693
 21
217.742658
  0
LINE
  8
CutLine
  6
CONTINUOUS
 62
8
 10
770.043287
 20
295.857869
 11
763.211713
 21
251.930404
  0
LINE
  8
ValleyLine
  6
CONTINUOUS
 62
1
 10
834.279693
 20
398.962234
 11
912.993644
 21
451.853213
  0
LINE
  8
CutLine
  6
CONTINUOUS
 62
8
 10
793.522278
 20
446.554748
 11
761.624006
 21
411.019262
  0
LINE
  8
ValleyLine
  6
CONTINUOUS
 62
1
 10
761.624006
 20
411.019262
 11
834.279693
 21
398.962234
  0
LINE
  8
CutLine
  6
CONTINUOUS
 62
8
 10
855.583491
 20
518.212759
 11
793.522278
 21
446.554748
  0
LINE
  8
ValleyLine
  6
CONTINUOUS
 62
1
 10
912.993644
 20
451.853213
 11
855.583491
 21
518.212759
  0
LINE
  8
CutLine
  6
CONTINUOUS
 62
8
 10
761.624006
 20
411.019262
 11
731.531268
 21
373.942375
  0
LINE
  8
CutLine
  6
CONTINUOUS
 62
8
 10
731.531268
 20
373.942375
 11
758.868945
 21
338.886077
  0
LINE
  8
ValleyLine
  6
CONTINUOUS
 62
1
 10
821.587570
 20
162.990623
 11
905.808723
 21
117.548062
  0
LINE
  8
ValleyLine
  6
CONTINUOUS
 62
1
 10
905.808723
 20
117.548062
 11
852.057693
 21
217.742658
  0
LINE
  8
CutLine
  6
CONTINUOUS
 62
8
 10
852.057693
 20
217.742658
 11
763.019224
 21
251.425906
  0
LINE
  8
ValleyLine
  6
CONTINUOUS
 62
1
 10
905.808723
 20
117.548062
 11
944.941463
 21
196.085563
  0
LINE
  8
CutLine
  6
CONTINUOUS
 62
8
 10
763.019224
 20
251.425906
 11
739.661862
 21
213.600964
  0
LINE
  8
ValleyLine
  6
CONTINUOUS
 62
1
 10
739.661862
 20
213.600964
 11
821.587570
 21
162.990623
  0
LINE
  8
CutLine
  6
CONTINUOUS
 62
8
 10
772.960808
 20
53.631416
 11
819.564936
 21
0.000000
  0
LINE
  8
ValleyLine
  6
CONTINUOUS
 62
1
 10
819.564936
 20
0.000000
 11
845.984103
 21
53.356721
  0
LINE
  8
ValleyLine
  6
CONTINUOUS
 62
1
 10
845.984103
 20
53.356721
 11
772.960808
 21
53.631416
  0
LINE
  8
ValleyLine
  6
CONTINUOUS
 62
1
 10
776.378498
 20
119.604535
 11
845.984103
 21
53.356721
  0
LINE
  8
ValleyLine
  6
CONTINUOUS
 62
1
 10
845.984103
 20
53.356721
 11
821.587570
 21
162.990623
  0
LINE
  8
ValleyLine
  6
CONTINUOUS
 62
1
 10
845.984103
 20
53.356721
 11
905.808723
 21
117.548062
  0
LINE
  8
CutLine
  6
CONTINUOUS
 62
8
 10
821.587570
 20
162.990623
 11
739.229157
 21
212.893729
  0
LINE
  8
ValleyLine
  6
CONTINUOUS
 62
1
 10
739.229157
 20
212.893729
 11
776.378498
 21
119.604535
  0
LINE
  8
CutLine
  6
CONTINUOUS
 62
8
 10
776.378498
 20
119.604535
 11
772.960808
 21
53.631416
  0
LINE
  8
CutLine
  6
CONTINUOUS
 62
8
 10
739.229157
 20
212.893729
 11
702.999559
 21
187.131181
  0
LINE
  8
CutLine
  6
CONTINUOUS
 62
8
 10
476.247213
 20
152.967433
 11
500.792344
 21
194.165529
  0
LINE
  8
ValleyLine
  6
CONTINUOUS
 62
1
 10
500.792344
 20
194.165529
 11
479.807850
 21
172.017235
  0
LINE
  8
ValleyLine
  6
CONTINUOUS
 62
1
 10
479.807850
 20
172.017235
 11
476.247213
 21
152.967433
  0
LINE
  8
CutLine
  6
CONTINUOUS
 62
8
 10
502.642720
 20
194.142524
 11
520.983449
 21
219.854153
  0
LINE
  8
ValleyLine
  6
CONTINUOUS
 62
1
 10
520.983449
 20
219.854153
 11
502.013381
 21
217.950223
  0
LINE
  8
ValleyLine
  6
CONTINUOUS
 62
1
 10
502.013381
 20
217.950223
 11
502.642720
 21
194.142524
  0
LINE
  8
CutLine
  6
CONTINUOUS
 62
8
 10
562.106944
 20
260.619097
 11
615.371683
 21
295.360607
  0
LINE
  8
CutLine
  6
CONTINUOUS
 62
8
 10
615.371683
 20
295.360607
 11
587.623405
 21
297.184226
  0
LINE
  8
ValleyLine
  6
CONTINUOUS
 62
1
 10
587.623405
 20
297.184226
 11
562.106944
 21
260.619097
  0
LINE
  8
CutLine
  6
CONTINUOUS
 62
8
 10
674.479151
 20
455.244053
 11
683.264796
 21
520.501635
  0
LINE
  8
CutLine
  6
CONTINUOUS
 62
8
 10
683.264796
 20
520.501635
 11
675.413251
 21
525.325952
  0
LINE
  8
ValleyLine
  6
CONTINUOUS
 62
1
 10
675.413251
 20
525.325952
 11
674.479151
 21
455.244053
  0
LINE
  8
CutLine
  6
CONTINUOUS
 62
8
 10
15.000000
 20
513.187656
 11
15.980511
 21
450.835429
  0
LINE
  8
CutLine
  6
CONTINUOUS
 62
8
 10
15.980511
 20
450.835429
 11
72.491455
 21
453.536280
  0
LINE
  8
ValleyLine
  6
CONTINUOUS
 62
1
 10
72.491455
 20
453.536280
 11
15.000000
 21
513.187656
  0
LINE
  8
ValleyLine
  6
CONTINUOUS
 62
1
 10
72.491455
 20
453.536280
 11
63.377436
 21
547.894078
  0
LINE
  8
CutLine
  6
CONTINUOUS
 62
8
 10
63.377436
 20
547.894078
 11
15.000000
 21
513.187656
  0
LINE
  8
CutLine
  6
CONTINUOUS
 62
8
 10
72.491455
 20
453.536280
 11
156.381181
 21
460.031379
  0
LINE
  8
ValleyLine
  6
CONTINUOUS
 62
1
 10
156.381181
 20
460.031379
 11
150.862484
 21
554.667542
  0
LINE
  8
ValleyLine
  6
CONTINUOUS
 62
1
 10
576.191175
 20
444.551396
 11
588.664629
 21
538.524120
  0
LINE
  8
CutLine
  6
CONTINUOUS
 62
8
 10
588.664629
 20
538.524120
 11
501.476799
 21
548.413378
  0
LINE
  8
ValleyLine
  6
CONTINUOUS
 62
1
 10
501.476799
 20
548.413378
 11
492.586463
 21
454.034241
  0
LINE
  8
CutLine
  6
CONTINUOUS
 62
8
 10
492.586463
 20
454.034241
 11
576.191175
 21
444.551396
  0
LINE
  8
CutLine
  6
CONTINUOUS
 62
8
 10
413.975903
 20
554.979437
 11
326.288631
 21
558.212759
  0
LINE
  8
ValleyLine
  6
CONTINUOUS
 62
1
 10
326.288631
 20
558.212759
 11
324.597960
 21
463.430905
  0
LINE
  8
ValleyLine
  6
CONTINUOUS
 62
1
 10
324.597960
 20
463.430905
 11
408.681623
 21
460.330450
  0
LINE
  8
ValleyLine
  6
CONTINUOUS
 62
1
 10
408.681623
 20
460.330450
 11
413.975903
 21
554.979437
  0
LINE
  8
CutLine
  6
CONTINUOUS
 62
8
 10
501.476799
 20
548.413378
 11
413.975903
 21
554.979437
  0
LINE
  8
CutLine
  6
CONTINUOUS
 62
8
 10
408.681623
 20
460.330450
 11
492.586463
 21
454.034241
  0
LINE
  8
CutLine
  6
CONTINUOUS
 62
8
 10
326.288631
 20
558.212759
 11
238.541834
 21
558.108756
  0
LINE
  8
ValleyLine
  6
CONTINUOUS
 62
1
 10
238.541834
 20
558.108756
 11
240.457220
 21
463.331172
  0
LINE
  8
CutLine
  6
CONTINUOUS
 62
8
 10
240.457220
 20
463.331172
 11
324.597960
 21
463.430905
  0
LINE
  8
CutLine
  6
CONTINUOUS
 62
8
 10
238.541834
 20
558.108756
 11
150.862484
 21
554.667542
  0
LINE
  8
CutLine
  6
CONTINUOUS
 62
8
 10
156.381181
 20
460.031379
 11
240.457220
 21
463.331172
  0
LINE
  8
MountainLine
  6
CONTINUOUS
 62
5
 10
659.374729
 20
431.895628
 11
675.413251
 21
525.325952
  0
LINE
  8
CutLine
  6
CONTINUOUS
 62
8
 10
576.191175
 20
444.551396
 11
659.374729
 21
431.895628
  0
LINE
  8
CutLine
  6
CONTINUOUS
 62
8
 10
675.413251
 20
525.325952
 11
588.664629
 21
538.524120
  0
LINE
  8
ValleyLine
  6
CONTINUOUS
 62
1
 10
659.374729
 20
431.895628
 11
674.479151
 21
455.244053
  0
LINE
  8
CutLine
  6
CONTINUOUS
 62
8
 10
165.145780
 20
229.686401
 11
208.330332
 21
190.308068
  0
LINE
  8
CutLine
  6
CONTINUOUS
 62
8
 10
208.330332
 20
190.308068
 11
212.367387
 21
228.820930
  0
LINE
  8
ValleyLine
  6
CONTINUOUS
 62
1
 10
212.367387
 20
228.820930
 11
165.145780
 21
229.686401
  0
LINE
  8
CutLine
  6
CONTINUOUS
 62
8
 10
520.983449
 20
219.854153
 11
562.106944
 21
260.619097
  0
LINE
  8
ValleyLine
  6
CONTINUOUS
 62
1
 10
562.106944
 20
260.619097
 11
497.194143
 21
268.740976
  0
LINE
  8
ValleyLine
  6
CONTINUOUS
 62
1
 10
497.194143
 20
268.740976
 11
520.983449
 21
219.854153
  0
LINE
  8
ValleyLine
  6
CONTINUOUS
 62
1
 10
497.194143
 20
268.740976
 11
502.013381
 21
217.950223
  0
LINE
  8
ValleyLine
  6
CONTINUOUS
 62
1
 10
473.619354
 20
313.986462
 11
548.743654
 21
371.803507
  0
LINE
  8
ValleyLine
  6
CONTINUOUS
 62
1
 10
548.743654
 20
371.803507
 11
486.566188
 21
428.492438
  0
LINE
  8
ValleyLine
  6
CONTINUOUS
 62
1
 10
486.566188
 20
428.492438
 11
435.917978
 21
348.359868
  0
LINE
  8
CutLine
  6
CONTINUOUS
 62
8
 10
435.917978
 20
348.359868
 11
473.619354
 21
313.986462
  0
LINE
  8
CutLine
  6
CONTINUOUS
 62
8
 10
473.619354
 20
313.986462
 11
497.194143
 21
268.740976
  0
LINE
  8
ValleyLine
  6
CONTINUOUS
 62
1
 10
587.623405
 20
297.184226
 11
548.743654
 21
371.803507
  0
LINE
  8
ValleyLine
  6
CONTINUOUS
 62
1
 10
486.566188
 20
428.492438
 11
408.681623
 21
460.330450
  0
LINE
  8
ValleyLine
  6
CONTINUOUS
 62
1
 10
408.681623
 20
460.330450
 11
388.692549
 21
367.664906
  0
LINE
  8
CutLine
  6
CONTINUOUS
 62
8
 10
388.692549
 20
367.664906
 11
435.917978
 21
348.359868
  0
LINE
  8
ValleyLine
  6
CONTINUOUS
 62
1
 10
324.597960
 20
463.430905
 11
337.708328
 21
369.544841
  0
LINE
  8
CutLine
  6
CONTINUOUS
 62
8
 10
337.708328
 20
369.544841
 11
388.692549
 21
367.664906
  0
LINE
  8
ValleyLine
  6
CONTINUOUS
 62
1
 10
244.580131
 20
437.415121
 11
289.189421
 21
353.770160
  0
LINE
  8
CutLine
  6
CONTINUOUS
 62
8
 10
289.189421
 20
353.770160
 11
337.708328
 21
369.544841
  0
LINE
  8
ValleyLine
  6
CONTINUOUS
 62
1
 10
324.597960
 20
463.430905
 11
244.580131
 21
437.415121
  0
LINE
  8
ValleyLine
  6
CONTINUOUS
 62
1
 10
244.580131
 20
437.415121
 11
178.396638
 21
385.459233
  0
LINE
  8
ValleyLine
  6
CONTINUOUS
 62
1
 10
178.396638
 20
385.459233
 11
249.058974
 21
322.266630
  0
LINE
  8
CutLine
  6
CONTINUOUS
 62
8
 10
249.058974
 20
322.266630
 11
289.189421
 21
353.770160
  0
LINE
  8
ValleyLine
  6
CONTINUOUS
 62
1
 10
212.367387
 20
228.820930
 11
222.216084
 21
278.880178
  0
LINE
  8
ValleyLine
  6
CONTINUOUS
 62
1
 10
222.216084
 20
278.880178
 11
165.145780
 21
229.686401
  0
LINE
  8
CutLine
  6
CONTINUOUS
 62
8
 10
115.776465
 20
260.389210
 11
165.145780
 21
229.686401
  0
LINE
  8
ValleyLine
  6
CONTINUOUS
 62
1
 10
134.127095
 20
313.905896
 11
115.776465
 21
260.389210
  0
LINE
  8
ValleyLine
  6
CONTINUOUS
 62
1
 10
222.216084
 20
278.880178
 11
134.127095
 21
313.905896
  0
LINE
  8
CutLine
  6
CONTINUOUS
 62
8
 10
222.216084
 20
278.880178
 11
249.058974
 21
322.266630
  0
LINE
  8
ValleyLine
  6
CONTINUOUS
 62
1
 10
178.396638
 20
385.459233
 11
134.127095
 21
313.905896
  0
LINE
  8
ValleyLine
  6
CONTINUOUS
 62
1
 10
479.807850
 20
172.017235
 11
437.009372
 21
144.246475
  0
LINE
  8
ValleyLine
  6
CONTINUOUS
 62
1
 10
437.009372
 20
144.246475
 11
474.651320
 21
153.336141
  0
LINE
  8
CutLine
  6
CONTINUOUS
 62
8
 10
474.651320
 20
153.336141
 11
479.807850
 21
172.017235
  0
LINE
  8
ValleyLine
  6
CONTINUOUS
 62
1
 10
316.613932
 20
212.261369
 11
341.593887
 21
167.776236
  0
LINE
  8
ValleyLine
  6
CONTINUOUS
 62
1
 10
341.593887
 20
167.776236
 11
408.711768
 21
234.721384
  0
LINE
  8
ValleyLine
  6
CONTINUOUS
 62
1
 10
408.711768
 20
234.721384
 11
316.613932
 21
212.261369
  0
LINE
  8
ValleyLine
  6
CONTINUOUS
 62
1
 10
341.593887
 20
167.776236
 11
386.014501
 21
142.681736
  0
LINE
  8
ValleyLine
  6
CONTINUOUS
 62
1
 10
386.014501
 20
142.681736
 11
408.711768
 21
234.721384
  0
LINE
  8
ValleyLine
  6
CONTINUOUS
 62
1
 10
479.807850
 20
172.017235
 11
408.711768
 21
234.721384
  0
LINE
  8
ValleyLine
  6
CONTINUOUS
 62
1
 10
408.711768
 20
234.721384
 11
437.009372
 21
144.246475
  0
LINE
  8
CutLine
  6
CONTINUOUS
 62
8
 10
386.014501
 20
142.681736
 11
437.009372
 21
144.246475
  0
LINE
  8
ValleyLine
  6
CONTINUOUS
 62
1
 10
318.310079
 20
263.252034
 11
316.613932
 21
212.261369
  0
LINE
  8
ValleyLine
  6
CONTINUOUS
 62
1
 10
408.711768
 20
234.721384
 11
318.310079
 21
263.252034
  0
LINE
  8
ValleyLine
  6
CONTINUOUS
 62
1
 10
346.191034
 20
305.978809
 11
318.310079
 21
263.252034
  0
LINE
  8
ValleyLine
  6
CONTINUOUS
 62
1
 10
408.711768
 20
234.721384
 11
346.191034
 21
305.978809
  0
LINE
  8
ValleyLine
  6
CONTINUOUS
 62
1
 10
408.711768
 20
234.721384
 11
442.959250
 21
323.115793
  0
LINE
  8
ValleyLine
  6
CONTINUOUS
 62
1
 10
442.959250
 20
323.115793
 11
392.181095
 21
328.065909
  0
LINE
  8
ValleyLine
  6
CONTINUOUS
 62
1
 10
392.181095
 20
328.065909
 11
408.711768
 21
234.721384
  0
LINE
  8
ValleyLine
  6
CONTINUOUS
 62
1
 10
392.181095
 20
328.065909
 11
346.191034
 21
305.978809
  0
LINE
  8
ValleyLine
  6
CONTINUOUS
 62
1
 10
408.711768
 20
234.721384
 11
483.817644
 21
292.562293
  0
LINE
  8
ValleyLine
  6
CONTINUOUS
 62
1
 10
483.817644
 20
292.562293
 11
442.959250
 21
323.115793
  0
LINE
  8
CutLine
  6
CONTINUOUS
 62
8
 10
500.792344
 20
194.165529
 11
502.013381
 21
217.950223
  0
LINE
  8
ValleyLine
  6
CONTINUOUS
 62
1
 10
502.013381
 20
217.950223
 11
408.711768
 21
234.721384
  0
LINE
  8
CutLine
  6
CONTINUOUS
 62
8
 10
497.194143
 20
268.740976
 11
408.711768
 21
234.721384
  0
LINE
  8
CutLine
  6
CONTINUOUS
 62
8
 10
150.862484
 20
554.667542
 11
63.377436
 21
547.894078
  0
ENDSEC
  0
EOF
