solid 
   facet normal -0.000000e+00 0.000000e+00 1.000000e+00
      outer loop
         vertex 1.120000e+01 8.750000e+00 5.000000e+00
         vertex -1.038560e+01 8.750000e+00 5.000000e+00
         vertex 1.120000e+01 2.350000e+00 5.000000e+00
      endloop
   endfacet
   facet normal 0.000000e+00 0.000000e+00 1.000000e+00
      outer loop
         vertex -1.038560e+01 8.750000e+00 5.000000e+00
         vertex -1.163667e+01 8.950683e+00 5.000000e+00
         vertex 1.120000e+01 2.350000e+00 5.000000e+00
      endloop
   endfacet
   facet normal 0.000000e+00 0.000000e+00 1.000000e+00
      outer loop
         vertex -1.525205e+01 1.137177e+01 5.000000e+00
         vertex -1.691064e+01 1.208939e+01 5.000000e+00
         vertex -1.276221e+01 9.532593e+00 5.000000e+00
      endloop
   endfacet
   facet normal -0.000000e+00 0.000000e+00 1.000000e+00
      outer loop
         vertex -1.691064e+01 1.208939e+01 5.000000e+00
         vertex -1.871580e+01 1.200380e+01 5.000000e+00
         vertex -1.276221e+01 9.532593e+00 5.000000e+00
      endloop
   endfacet
   facet normal 0.000000e+00 0.000000e+00 1.000000e+00
      outer loop
         vertex -1.276221e+01 9.532593e+00 5.000000e+00
         vertex -1.871580e+01 1.200380e+01 5.000000e+00
         vertex -1.163667e+01 8.950683e+00 5.000000e+00
      endloop
   endfacet
   facet normal -0.000000e+00 -0.000000e+00 1.000000e+00
      outer loop
         vertex -1.871580e+01 1.200380e+01 5.000000e+00
         vertex -1.682778e+01 1.060486e+01 5.000000e+00
         vertex -1.163667e+01 8.950683e+00 5.000000e+00
      endloop
   endfacet
   facet normal -0.000000e+00 -0.000000e+00 1.000000e+00
      outer loop
         vertex -1.682778e+01 1.060486e+01 5.000000e+00
         vertex -1.569330e+01 9.958596e+00 5.000000e+00
         vertex -1.163667e+01 8.950683e+00 5.000000e+00
      endloop
   endfacet
   facet normal 0.000000e+00 -0.000000e+00 1.000000e+00
      outer loop
         vertex -1.569330e+01 9.958596e+00 5.000000e+00
         vertex -1.519935e+01 8.750000e+00 5.000000e+00
         vertex -1.163667e+01 8.950683e+00 5.000000e+00
      endloop
   endfacet
   facet normal -0.000000e+00 -0.000000e+00 1.000000e+00
      outer loop
         vertex -1.163667e+01 8.950683e+00 5.000000e+00
         vertex -1.120000e+01 8.750000e+00 5.000000e+00
         vertex 1.120000e+01 2.350000e+00 5.000000e+00
      endloop
   endfacet
   facet normal 0.000000e+00 0.000000e+00 1.000000e+00
      outer loop
         vertex -1.120000e+01 8.750000e+00 5.000000e+00
         vertex -1.120000e+01 2.350000e+00 5.000000e+00
         vertex 1.120000e+01 2.350000e+00 5.000000e+00
      endloop
   endfacet
   facet normal 0.000000e+00 0.000000e+00 1.000000e+00
      outer loop
         vertex -1.720000e+01 6.639098e+00 5.000000e+00
         vertex -1.843333e+01 7.067572e+00 5.000000e+00
         vertex -1.720000e+01 2.350000e+00 5.000000e+00
      endloop
   endfacet
   facet normal 0.000000e+00 0.000000e+00 1.000000e+00
      outer loop
         vertex -1.843333e+01 7.067572e+00 5.000000e+00
         vertex -1.913946e+01 8.165789e+00 5.000000e+00
         vertex -1.720000e+01 2.350000e+00 5.000000e+00
      endloop
   endfacet
   facet normal 0.000000e+00 0.000000e+00 1.000000e+00
      outer loop
         vertex -1.682778e+01 1.060486e+01 5.000000e+00
         vertex -1.871580e+01 1.200380e+01 5.000000e+00
         vertex -1.811930e+01 1.041336e+01 5.000000e+00
      endloop
   endfacet
   facet normal -0.000000e+00 0.000000e+00 1.000000e+00
      outer loop
         vertex -1.871580e+01 1.200380e+01 5.000000e+00
         vertex -2.029905e+01 1.113246e+01 5.000000e+00
         vertex -1.811930e+01 1.041336e+01 5.000000e+00
      endloop
   endfacet
   facet normal 0.000000e+00 0.000000e+00 1.000000e+00
      outer loop
         vertex -1.811930e+01 1.041336e+01 5.000000e+00
         vertex -2.029905e+01 1.113246e+01 5.000000e+00
         vertex -1.901745e+01 9.465715e+00 5.000000e+00
      endloop
   endfacet
   facet normal -0.000000e+00 0.000000e+00 1.000000e+00
      outer loop
         vertex -2.029905e+01 1.113246e+01 5.000000e+00
         vertex -2.133722e+01 9.653237e+00 5.000000e+00
         vertex -1.901745e+01 9.465715e+00 5.000000e+00
      endloop
   endfacet
   facet normal 0.000000e+00 0.000000e+00 1.000000e+00
      outer loop
         vertex -1.901745e+01 9.465715e+00 5.000000e+00
         vertex -2.133722e+01 9.653237e+00 5.000000e+00
         vertex -1.913946e+01 8.165789e+00 5.000000e+00
      endloop
   endfacet
   facet normal 0.000000e+00 0.000000e+00 1.000000e+00
      outer loop
         vertex -2.133722e+01 9.653237e+00 5.000000e+00
         vertex -2.858534e+01 -8.280273e+00 5.000000e+00
         vertex -1.913946e+01 8.165789e+00 5.000000e+00
      endloop
   endfacet
   facet normal 0.000000e+00 0.000000e+00 1.000000e+00
      outer loop
         vertex -1.913946e+01 8.165789e+00 5.000000e+00
         vertex -2.858534e+01 -8.280273e+00 5.000000e+00
         vertex -1.720000e+01 2.350000e+00 5.000000e+00
      endloop
   endfacet
   facet normal 0.000000e+00 0.000000e+00 1.000000e+00
      outer loop
         vertex -2.858534e+01 -8.280273e+00 5.000000e+00
         vertex -2.887541e+01 -9.674498e+00 5.000000e+00
         vertex -1.720000e+01 2.350000e+00 5.000000e+00
      endloop
   endfacet
   facet normal 0.000000e+00 0.000000e+00 1.000000e+00
      outer loop
         vertex -1.720000e+01 2.350000e+00 5.000000e+00
         vertex -2.887541e+01 -9.674498e+00 5.000000e+00
         vertex -1.120000e+01 2.350000e+00 5.000000e+00
      endloop
   endfacet
   facet normal 0.000000e+00 -0.000000e+00 1.000000e+00
      outer loop
         vertex -2.887541e+01 -9.674498e+00 5.000000e+00
         vertex -2.865866e+01 -1.108199e+01 5.000000e+00
         vertex -1.120000e+01 2.350000e+00 5.000000e+00
      endloop
   endfacet
   facet normal 0.000000e+00 0.000000e+00 1.000000e+00
      outer loop
         vertex -1.120000e+01 2.350000e+00 5.000000e+00
         vertex -2.865866e+01 -1.108199e+01 5.000000e+00
         vertex 1.120000e+01 2.350000e+00 5.000000e+00
      endloop
   endfacet
   facet normal 0.000000e+00 -0.000000e+00 1.000000e+00
      outer loop
         vertex -2.865866e+01 -1.108199e+01 5.000000e+00
         vertex -2.539538e+01 -1.048127e+01 5.000000e+00
         vertex 1.120000e+01 2.350000e+00 5.000000e+00
      endloop
   endfacet
   facet normal 0.000000e+00 0.000000e+00 1.000000e+00
      outer loop
         vertex 1.120000e+01 2.350000e+00 5.000000e+00
         vertex -2.421981e+01 -1.009930e+01 5.000000e+00
         vertex 1.720000e+01 2.350000e+00 5.000000e+00
      endloop
   endfacet
   facet normal 0.000000e+00 -0.000000e+00 1.000000e+00
      outer loop
         vertex -2.421981e+01 -1.009930e+01 5.000000e+00
         vertex -2.304424e+01 -1.048127e+01 5.000000e+00
         vertex 1.720000e+01 2.350000e+00 5.000000e+00
      endloop
   endfacet
   facet normal 0.000000e+00 0.000000e+00 1.000000e+00
      outer loop
         vertex 1.720000e+01 2.350000e+00 5.000000e+00
         vertex -1.166866e+01 -8.750000e+00 5.000000e+00
         vertex 1.720000e+01 -8.750000e+00 5.000000e+00
      endloop
   endfacet
   facet normal 0.000000e+00 0.000000e+00 1.000000e+00
      outer loop
         vertex -1.166866e+01 -8.750000e+00 5.000000e+00
         vertex 1.720000e+01 2.350000e+00 5.000000e+00
         vertex -1.335242e+01 -9.121647e+00 5.000000e+00
      endloop
   endfacet
   facet normal 0.000000e+00 0.000000e+00 1.000000e+00
      outer loop
         vertex 1.720000e+01 2.350000e+00 5.000000e+00
         vertex -2.304424e+01 -1.048127e+01 5.000000e+00
         vertex -1.335242e+01 -9.121647e+00 5.000000e+00
      endloop
   endfacet
   facet normal 0.000000e+00 0.000000e+00 1.000000e+00
      outer loop
         vertex -1.335242e+01 -9.121647e+00 5.000000e+00
         vertex -2.304424e+01 -1.048127e+01 5.000000e+00
         vertex -1.472330e+01 -1.016753e+01 5.000000e+00
      endloop
   endfacet
   facet normal 0.000000e+00 -0.000000e+00 1.000000e+00
      outer loop
         vertex -2.304424e+01 -1.048127e+01 5.000000e+00
         vertex -2.231770e+01 -1.148127e+01 5.000000e+00
         vertex -1.472330e+01 -1.016753e+01 5.000000e+00
      endloop
   endfacet
   facet normal -0.000000e+00 0.000000e+00 1.000000e+00
      outer loop
         vertex -1.472330e+01 -1.016753e+01 5.000000e+00
         vertex -2.231770e+01 -1.148127e+01 5.000000e+00
         vertex -1.552655e+01 -1.169329e+01 5.000000e+00
      endloop
   endfacet
   facet normal 0.000000e+00 0.000000e+00 1.000000e+00
      outer loop
         vertex -2.231770e+01 -1.148127e+01 5.000000e+00
         vertex -2.231770e+01 -1.271734e+01 5.000000e+00
         vertex -1.552655e+01 -1.169329e+01 5.000000e+00
      endloop
   endfacet
   facet normal -0.000000e+00 0.000000e+00 1.000000e+00
      outer loop
         vertex -1.552655e+01 -1.169329e+01 5.000000e+00
         vertex -2.231770e+01 -1.271734e+01 5.000000e+00
         vertex -1.561292e+01 -1.341542e+01 5.000000e+00
      endloop
   endfacet
   facet normal 0.000000e+00 0.000000e+00 1.000000e+00
      outer loop
         vertex -2.231770e+01 -1.271734e+01 5.000000e+00
         vertex -2.304424e+01 -1.371734e+01 5.000000e+00
         vertex -1.561292e+01 -1.341542e+01 5.000000e+00
      endloop
   endfacet
   facet normal -0.000000e+00 0.000000e+00 1.000000e+00
      outer loop
         vertex -1.561292e+01 -1.341542e+01 5.000000e+00
         vertex -2.304424e+01 -1.371734e+01 5.000000e+00
         vertex -1.284742e+01 -2.980791e+01 5.000000e+00
      endloop
   endfacet
   facet normal -0.000000e+00 0.000000e+00 1.000000e+00
      outer loop
         vertex -2.304424e+01 -1.371734e+01 5.000000e+00
         vertex -2.421981e+01 -1.409930e+01 5.000000e+00
         vertex -1.284742e+01 -2.980791e+01 5.000000e+00
      endloop
   endfacet
   facet normal 0.000000e+00 0.000000e+00 1.000000e+00
      outer loop
         vertex -1.284742e+01 -2.980791e+01 5.000000e+00
         vertex -2.421981e+01 -1.409930e+01 5.000000e+00
         vertex -1.289012e+01 -3.135525e+01 5.000000e+00
      endloop
   endfacet
   facet normal 0.000000e+00 0.000000e+00 1.000000e+00
      outer loop
         vertex -2.421981e+01 -1.409930e+01 5.000000e+00
         vertex -2.539538e+01 -1.371734e+01 5.000000e+00
         vertex -1.289012e+01 -3.135525e+01 5.000000e+00
      endloop
   endfacet
   facet normal 0.000000e+00 0.000000e+00 1.000000e+00
      outer loop
         vertex -1.289012e+01 -3.135525e+01 5.000000e+00
         vertex -2.539538e+01 -1.371734e+01 5.000000e+00
         vertex -1.351711e+01 -3.277053e+01 5.000000e+00
      endloop
   endfacet
   facet normal 0.000000e+00 0.000000e+00 1.000000e+00
      outer loop
         vertex -2.539538e+01 -1.371734e+01 5.000000e+00
         vertex -2.612192e+01 -1.271734e+01 5.000000e+00
         vertex -1.351711e+01 -3.277053e+01 5.000000e+00
      endloop
   endfacet
   facet normal 0.000000e+00 0.000000e+00 1.000000e+00
      outer loop
         vertex -1.351711e+01 -3.277053e+01 5.000000e+00
         vertex -1.569623e+01 -3.089840e+01 5.000000e+00
         vertex -1.463449e+01 -3.384178e+01 5.000000e+00
      endloop
   endfacet
   facet normal -0.000000e+00 0.000000e+00 1.000000e+00
      outer loop
         vertex -1.569623e+01 -3.089840e+01 5.000000e+00
         vertex -1.569623e+01 -3.213446e+01 5.000000e+00
         vertex -1.463449e+01 -3.384178e+01 5.000000e+00
      endloop
   endfacet
   facet normal 0.000000e+00 0.000000e+00 1.000000e+00
      outer loop
         vertex -1.463449e+01 -3.384178e+01 5.000000e+00
         vertex -1.569623e+01 -3.213446e+01 5.000000e+00
         vertex -1.541773e+01 -3.434338e+01 5.000000e+00
      endloop
   endfacet
   facet normal -0.000000e+00 0.000000e+00 1.000000e+00
      outer loop
         vertex -1.569623e+01 -3.213446e+01 5.000000e+00
         vertex -1.642278e+01 -3.313446e+01 5.000000e+00
         vertex -1.541773e+01 -3.434338e+01 5.000000e+00
      endloop
   endfacet
   facet normal 0.000000e+00 0.000000e+00 1.000000e+00
      outer loop
         vertex -1.541773e+01 -3.434338e+01 5.000000e+00
         vertex -1.642278e+01 -3.313446e+01 5.000000e+00
         vertex -1.710623e+01 -3.494736e+01 5.000000e+00
      endloop
   endfacet
   facet normal -0.000000e+00 0.000000e+00 1.000000e+00
      outer loop
         vertex -1.642278e+01 -3.313446e+01 5.000000e+00
         vertex -1.759835e+01 -3.351643e+01 5.000000e+00
         vertex -1.710623e+01 -3.494736e+01 5.000000e+00
      endloop
   endfacet
   facet normal 0.000000e+00 0.000000e+00 1.000000e+00
      outer loop
         vertex -1.710623e+01 -3.494736e+01 5.000000e+00
         vertex -1.759835e+01 -3.351643e+01 5.000000e+00
         vertex -1.888893e+01 -3.475294e+01 5.000000e+00
      endloop
   endfacet
   facet normal 0.000000e+00 0.000000e+00 1.000000e+00
      outer loop
         vertex -1.759835e+01 -3.351643e+01 5.000000e+00
         vertex -1.877392e+01 -3.313446e+01 5.000000e+00
         vertex -1.888893e+01 -3.475294e+01 5.000000e+00
      endloop
   endfacet
   facet normal 0.000000e+00 0.000000e+00 1.000000e+00
      outer loop
         vertex -1.888893e+01 -3.475294e+01 5.000000e+00
         vertex -1.877392e+01 -3.313446e+01 5.000000e+00
         vertex -2.040753e+01 -3.379917e+01 5.000000e+00
      endloop
   endfacet
   facet normal 0.000000e+00 0.000000e+00 1.000000e+00
      outer loop
         vertex -1.877392e+01 -3.313446e+01 5.000000e+00
         vertex -1.950046e+01 -3.213446e+01 5.000000e+00
         vertex -2.040753e+01 -3.379917e+01 5.000000e+00
      endloop
   endfacet
   facet normal 0.000000e+00 0.000000e+00 1.000000e+00
      outer loop
         vertex -2.040753e+01 -3.379917e+01 5.000000e+00
         vertex -1.950046e+01 -3.213446e+01 5.000000e+00
         vertex -2.135681e+01 -3.227776e+01 5.000000e+00
      endloop
   endfacet
   facet normal 0.000000e+00 0.000000e+00 1.000000e+00
      outer loop
         vertex -1.950046e+01 -3.213446e+01 5.000000e+00
         vertex -1.950046e+01 -3.089840e+01 5.000000e+00
         vertex -2.135681e+01 -3.227776e+01 5.000000e+00
      endloop
   endfacet
   facet normal 0.000000e+00 0.000000e+00 1.000000e+00
      outer loop
         vertex -2.135681e+01 -3.227776e+01 5.000000e+00
         vertex -1.950046e+01 -3.089840e+01 5.000000e+00
         vertex -2.865866e+01 -1.108199e+01 5.000000e+00
      endloop
   endfacet
   facet normal 0.000000e+00 0.000000e+00 1.000000e+00
      outer loop
         vertex -1.950046e+01 -3.089840e+01 5.000000e+00
         vertex -1.877392e+01 -2.989840e+01 5.000000e+00
         vertex -2.865866e+01 -1.108199e+01 5.000000e+00
      endloop
   endfacet
   facet normal 0.000000e+00 -0.000000e+00 1.000000e+00
      outer loop
         vertex -2.865866e+01 -1.108199e+01 5.000000e+00
         vertex -2.612192e+01 -1.148127e+01 5.000000e+00
         vertex -2.539538e+01 -1.048127e+01 5.000000e+00
      endloop
   endfacet
   facet normal 0.000000e+00 0.000000e+00 1.000000e+00
      outer loop
         vertex -2.612192e+01 -1.271734e+01 5.000000e+00
         vertex -2.865866e+01 -1.108199e+01 5.000000e+00
         vertex -1.351711e+01 -3.277053e+01 5.000000e+00
      endloop
   endfacet
   facet normal -0.000000e+00 -0.000000e+00 1.000000e+00
      outer loop
         vertex -2.865866e+01 -1.108199e+01 5.000000e+00
         vertex -1.642278e+01 -2.989840e+01 5.000000e+00
         vertex -1.351711e+01 -3.277053e+01 5.000000e+00
      endloop
   endfacet
   facet normal 0.000000e+00 0.000000e+00 1.000000e+00
      outer loop
         vertex -1.351711e+01 -3.277053e+01 5.000000e+00
         vertex -1.642278e+01 -2.989840e+01 5.000000e+00
         vertex -1.569623e+01 -3.089840e+01 5.000000e+00
      endloop
   endfacet
   facet normal 0.000000e+00 0.000000e+00 1.000000e+00
      outer loop
         vertex -1.642278e+01 -2.989840e+01 5.000000e+00
         vertex -2.865866e+01 -1.108199e+01 5.000000e+00
         vertex -1.759835e+01 -2.951643e+01 5.000000e+00
      endloop
   endfacet
   facet normal 0.000000e+00 -0.000000e+00 1.000000e+00
      outer loop
         vertex -2.865866e+01 -1.108199e+01 5.000000e+00
         vertex -1.877392e+01 -2.989840e+01 5.000000e+00
         vertex -1.759835e+01 -2.951643e+01 5.000000e+00
      endloop
   endfacet
   facet normal 0.000000e+00 0.000000e+00 1.000000e+00
      outer loop
         vertex -2.421981e+01 -1.009930e+01 5.000000e+00
         vertex 1.120000e+01 2.350000e+00 5.000000e+00
         vertex -2.539538e+01 -1.048127e+01 5.000000e+00
      endloop
   endfacet
   facet normal 0.000000e+00 0.000000e+00 1.000000e+00
      outer loop
         vertex -1.120000e+01 8.750000e+00 5.000000e+00
         vertex -1.163667e+01 8.950683e+00 5.000000e+00
         vertex -1.519935e+01 8.750000e+00 5.000000e+00
      endloop
   endfacet
   facet normal 0.000000e+00 0.000000e+00 1.000000e+00
      outer loop
         vertex -2.612192e+01 -1.148127e+01 5.000000e+00
         vertex -2.865866e+01 -1.108199e+01 5.000000e+00
         vertex -2.612192e+01 -1.271734e+01 5.000000e+00
      endloop
   endfacet
   facet normal -3.090170e-01 9.510565e-01 0.000000e+00
      outer loop
         vertex -1.642278e+01 -3.313446e+01 5.000000e+00
         vertex -1.642278e+01 -3.313446e+01 0.000000e+00
         vertex -1.759835e+01 -3.351643e+01 0.000000e+00
      endloop
   endfacet
   facet normal -3.090170e-01 9.510565e-01 0.000000e+00
      outer loop
         vertex -1.759835e+01 -3.351643e+01 5.000000e+00
         vertex -1.642278e+01 -3.313446e+01 5.000000e+00
         vertex -1.759835e+01 -3.351643e+01 0.000000e+00
      endloop
   endfacet
   facet normal -8.090166e-01 5.877857e-01 0.000000e+00
      outer loop
         vertex -1.569623e+01 -3.213446e+01 5.000000e+00
         vertex -1.569623e+01 -3.213446e+01 0.000000e+00
         vertex -1.642278e+01 -3.313446e+01 0.000000e+00
      endloop
   endfacet
   facet normal -8.090166e-01 5.877857e-01 0.000000e+00
      outer loop
         vertex -1.642278e+01 -3.313446e+01 5.000000e+00
         vertex -1.569623e+01 -3.213446e+01 5.000000e+00
         vertex -1.642278e+01 -3.313446e+01 0.000000e+00
      endloop
   endfacet
   facet normal -1.000000e+00 0.000000e+00 0.000000e+00
      outer loop
         vertex -1.569623e+01 -3.089840e+01 5.000000e+00
         vertex -1.569623e+01 -3.089840e+01 0.000000e+00
         vertex -1.569623e+01 -3.213446e+01 0.000000e+00
      endloop
   endfacet
   facet normal -1.000000e+00 -0.000000e+00 0.000000e+00
      outer loop
         vertex -1.569623e+01 -3.213446e+01 5.000000e+00
         vertex -1.569623e+01 -3.089840e+01 5.000000e+00
         vertex -1.569623e+01 -3.213446e+01 0.000000e+00
      endloop
   endfacet
   facet normal -8.090166e-01 -5.877857e-01 0.000000e+00
      outer loop
         vertex -1.642278e+01 -2.989840e+01 5.000000e+00
         vertex -1.642278e+01 -2.989840e+01 0.000000e+00
         vertex -1.569623e+01 -3.089840e+01 0.000000e+00
      endloop
   endfacet
   facet normal -8.090166e-01 -5.877857e-01 0.000000e+00
      outer loop
         vertex -1.569623e+01 -3.089840e+01 5.000000e+00
         vertex -1.642278e+01 -2.989840e+01 5.000000e+00
         vertex -1.569623e+01 -3.089840e+01 0.000000e+00
      endloop
   endfacet
   facet normal -3.090183e-01 -9.510561e-01 0.000000e+00
      outer loop
         vertex -1.759835e+01 -2.951643e+01 5.000000e+00
         vertex -1.759835e+01 -2.951643e+01 0.000000e+00
         vertex -1.642278e+01 -2.989840e+01 0.000000e+00
      endloop
   endfacet
   facet normal -3.090183e-01 -9.510561e-01 0.000000e+00
      outer loop
         vertex -1.642278e+01 -2.989840e+01 5.000000e+00
         vertex -1.759835e+01 -2.951643e+01 5.000000e+00
         vertex -1.642278e+01 -2.989840e+01 0.000000e+00
      endloop
   endfacet
   facet normal 3.090179e-01 -9.510562e-01 0.000000e+00
      outer loop
         vertex -1.877392e+01 -2.989840e+01 5.000000e+00
         vertex -1.877392e+01 -2.989840e+01 0.000000e+00
         vertex -1.759835e+01 -2.951643e+01 0.000000e+00
      endloop
   endfacet
   facet normal 3.090179e-01 -9.510562e-01 0.000000e+00
      outer loop
         vertex -1.759835e+01 -2.951643e+01 5.000000e+00
         vertex -1.877392e+01 -2.989840e+01 5.000000e+00
         vertex -1.759835e+01 -2.951643e+01 0.000000e+00
      endloop
   endfacet
   facet normal 8.090174e-01 -5.877847e-01 0.000000e+00
      outer loop
         vertex -1.950046e+01 -3.089840e+01 5.000000e+00
         vertex -1.950046e+01 -3.089840e+01 0.000000e+00
         vertex -1.877392e+01 -2.989840e+01 0.000000e+00
      endloop
   endfacet
   facet normal 8.090174e-01 -5.877847e-01 0.000000e+00
      outer loop
         vertex -1.877392e+01 -2.989840e+01 5.000000e+00
         vertex -1.950046e+01 -3.089840e+01 5.000000e+00
         vertex -1.877392e+01 -2.989840e+01 0.000000e+00
      endloop
   endfacet
   facet normal 1.000000e+00 0.000000e+00 0.000000e+00
      outer loop
         vertex -1.950046e+01 -3.213446e+01 5.000000e+00
         vertex -1.950046e+01 -3.213446e+01 0.000000e+00
         vertex -1.950046e+01 -3.089840e+01 0.000000e+00
      endloop
   endfacet
   facet normal 1.000000e+00 -0.000000e+00 0.000000e+00
      outer loop
         vertex -1.950046e+01 -3.089840e+01 5.000000e+00
         vertex -1.950046e+01 -3.213446e+01 5.000000e+00
         vertex -1.950046e+01 -3.089840e+01 0.000000e+00
      endloop
   endfacet
   facet normal 8.090174e-01 5.877847e-01 -0.000000e+00
      outer loop
         vertex -1.877392e+01 -3.313446e+01 5.000000e+00
         vertex -1.877392e+01 -3.313446e+01 0.000000e+00
         vertex -1.950046e+01 -3.213446e+01 0.000000e+00
      endloop
   endfacet
   facet normal 8.090174e-01 5.877847e-01 0.000000e+00
      outer loop
         vertex -1.950046e+01 -3.213446e+01 5.000000e+00
         vertex -1.877392e+01 -3.313446e+01 5.000000e+00
         vertex -1.950046e+01 -3.213446e+01 0.000000e+00
      endloop
   endfacet
   facet normal 3.090165e-01 9.510567e-01 -0.000000e+00
      outer loop
         vertex -1.759835e+01 -3.351643e+01 5.000000e+00
         vertex -1.759835e+01 -3.351643e+01 0.000000e+00
         vertex -1.877392e+01 -3.313446e+01 0.000000e+00
      endloop
   endfacet
   facet normal 3.090165e-01 9.510567e-01 0.000000e+00
      outer loop
         vertex -1.877392e+01 -3.313446e+01 5.000000e+00
         vertex -1.759835e+01 -3.351643e+01 5.000000e+00
         vertex -1.877392e+01 -3.313446e+01 0.000000e+00
      endloop
   endfacet
   facet normal -3.090176e-01 9.510563e-01 0.000000e+00
      outer loop
         vertex -2.304424e+01 -1.371734e+01 5.000000e+00
         vertex -2.304424e+01 -1.371734e+01 0.000000e+00
         vertex -2.421981e+01 -1.409930e+01 0.000000e+00
      endloop
   endfacet
   facet normal -3.090176e-01 9.510563e-01 0.000000e+00
      outer loop
         vertex -2.421981e+01 -1.409930e+01 5.000000e+00
         vertex -2.304424e+01 -1.371734e+01 5.000000e+00
         vertex -2.421981e+01 -1.409930e+01 0.000000e+00
      endloop
   endfacet
   facet normal -8.090166e-01 5.877857e-01 0.000000e+00
      outer loop
         vertex -2.231770e+01 -1.271734e+01 5.000000e+00
         vertex -2.231770e+01 -1.271734e+01 0.000000e+00
         vertex -2.304424e+01 -1.371734e+01 0.000000e+00
      endloop
   endfacet
   facet normal -8.090166e-01 5.877857e-01 0.000000e+00
      outer loop
         vertex -2.304424e+01 -1.371734e+01 5.000000e+00
         vertex -2.231770e+01 -1.271734e+01 5.000000e+00
         vertex -2.304424e+01 -1.371734e+01 0.000000e+00
      endloop
   endfacet
   facet normal -1.000000e+00 0.000000e+00 0.000000e+00
      outer loop
         vertex -2.231770e+01 -1.148127e+01 5.000000e+00
         vertex -2.231770e+01 -1.148127e+01 0.000000e+00
         vertex -2.231770e+01 -1.271734e+01 0.000000e+00
      endloop
   endfacet
   facet normal -1.000000e+00 -0.000000e+00 0.000000e+00
      outer loop
         vertex -2.231770e+01 -1.271734e+01 5.000000e+00
         vertex -2.231770e+01 -1.148127e+01 5.000000e+00
         vertex -2.231770e+01 -1.271734e+01 0.000000e+00
      endloop
   endfacet
   facet normal -8.090166e-01 -5.877857e-01 0.000000e+00
      outer loop
         vertex -2.304424e+01 -1.048127e+01 5.000000e+00
         vertex -2.304424e+01 -1.048127e+01 0.000000e+00
         vertex -2.231770e+01 -1.148127e+01 0.000000e+00
      endloop
   endfacet
   facet normal -8.090166e-01 -5.877857e-01 0.000000e+00
      outer loop
         vertex -2.231770e+01 -1.148127e+01 5.000000e+00
         vertex -2.304424e+01 -1.048127e+01 5.000000e+00
         vertex -2.231770e+01 -1.148127e+01 0.000000e+00
      endloop
   endfacet
   facet normal -3.090170e-01 -9.510565e-01 0.000000e+00
      outer loop
         vertex -2.421981e+01 -1.009930e+01 5.000000e+00
         vertex -2.421981e+01 -1.009930e+01 0.000000e+00
         vertex -2.304424e+01 -1.048127e+01 0.000000e+00
      endloop
   endfacet
   facet normal -3.090170e-01 -9.510565e-01 0.000000e+00
      outer loop
         vertex -2.304424e+01 -1.048127e+01 5.000000e+00
         vertex -2.421981e+01 -1.009930e+01 5.000000e+00
         vertex -2.304424e+01 -1.048127e+01 0.000000e+00
      endloop
   endfacet
   facet normal 3.090165e-01 -9.510567e-01 0.000000e+00
      outer loop
         vertex -2.539538e+01 -1.048127e+01 5.000000e+00
         vertex -2.539538e+01 -1.048127e+01 0.000000e+00
         vertex -2.421981e+01 -1.009930e+01 0.000000e+00
      endloop
   endfacet
   facet normal 3.090165e-01 -9.510567e-01 0.000000e+00
      outer loop
         vertex -2.421981e+01 -1.009930e+01 5.000000e+00
         vertex -2.539538e+01 -1.048127e+01 5.000000e+00
         vertex -2.421981e+01 -1.009930e+01 0.000000e+00
      endloop
   endfacet
   facet normal 8.090174e-01 -5.877847e-01 0.000000e+00
      outer loop
         vertex -2.612192e+01 -1.148127e+01 5.000000e+00
         vertex -2.612192e+01 -1.148127e+01 0.000000e+00
         vertex -2.539538e+01 -1.048127e+01 0.000000e+00
      endloop
   endfacet
   facet normal 8.090174e-01 -5.877847e-01 0.000000e+00
      outer loop
         vertex -2.539538e+01 -1.048127e+01 5.000000e+00
         vertex -2.612192e+01 -1.148127e+01 5.000000e+00
         vertex -2.539538e+01 -1.048127e+01 0.000000e+00
      endloop
   endfacet
   facet normal 1.000000e+00 0.000000e+00 0.000000e+00
      outer loop
         vertex -2.612192e+01 -1.271734e+01 5.000000e+00
         vertex -2.612192e+01 -1.271734e+01 0.000000e+00
         vertex -2.612192e+01 -1.148127e+01 0.000000e+00
      endloop
   endfacet
   facet normal 1.000000e+00 -0.000000e+00 0.000000e+00
      outer loop
         vertex -2.612192e+01 -1.148127e+01 5.000000e+00
         vertex -2.612192e+01 -1.271734e+01 5.000000e+00
         vertex -2.612192e+01 -1.148127e+01 0.000000e+00
      endloop
   endfacet
   facet normal 8.090174e-01 5.877847e-01 -0.000000e+00
      outer loop
         vertex -2.539538e+01 -1.371734e+01 5.000000e+00
         vertex -2.539538e+01 -1.371734e+01 0.000000e+00
         vertex -2.612192e+01 -1.271734e+01 0.000000e+00
      endloop
   endfacet
   facet normal 8.090174e-01 5.877847e-01 0.000000e+00
      outer loop
         vertex -2.612192e+01 -1.271734e+01 5.000000e+00
         vertex -2.539538e+01 -1.371734e+01 5.000000e+00
         vertex -2.612192e+01 -1.271734e+01 0.000000e+00
      endloop
   endfacet
   facet normal 3.090172e-01 9.510565e-01 -0.000000e+00
      outer loop
         vertex -2.421981e+01 -1.409930e+01 5.000000e+00
         vertex -2.421981e+01 -1.409930e+01 0.000000e+00
         vertex -2.539538e+01 -1.371734e+01 0.000000e+00
      endloop
   endfacet
   facet normal 3.090172e-01 9.510565e-01 0.000000e+00
      outer loop
         vertex -2.539538e+01 -1.371734e+01 5.000000e+00
         vertex -2.421981e+01 -1.409930e+01 5.000000e+00
         vertex -2.539538e+01 -1.371734e+01 0.000000e+00
      endloop
   endfacet
   facet normal -9.916474e-01 1.289785e-01 0.000000e+00
      outer loop
         vertex -1.529416e+01 8.021060e+00 0.000000e+00
         vertex -1.519935e+01 8.750000e+00 8.000000e+00
         vertex -1.519935e+01 8.750000e+00 5.000000e+00
      endloop
   endfacet
   facet normal -9.768251e-01 2.138926e-01 -7.912819e-03
      outer loop
         vertex -1.529416e+01 8.021060e+00 0.000000e+00
         vertex -1.542843e+01 7.703828e+00 8.000000e+00
         vertex -1.519935e+01 8.750000e+00 8.000000e+00
      endloop
   endfacet
   facet normal -7.264393e-01 6.872134e-01 -4.869412e-03
      outer loop
         vertex -1.602070e+01 7.021060e+00 0.000000e+00
         vertex -1.616441e+01 6.925832e+00 8.000000e+00
         vertex -1.542843e+01 7.703828e+00 8.000000e+00
      endloop
   endfacet
   facet normal -2.677397e-01 9.634913e-01 0.000000e+00
      outer loop
         vertex -1.719627e+01 6.639094e+00 0.000000e+00
         vertex -1.719627e+01 6.639094e+00 8.000000e+00
         vertex -1.616441e+01 6.925832e+00 8.000000e+00
      endloop
   endfacet
   facet normal -3.090122e-01 9.510406e-01 5.769676e-03
      outer loop
         vertex -1.616441e+01 6.925832e+00 8.000000e+00
         vertex -1.602070e+01 7.021060e+00 0.000000e+00
         vertex -1.719627e+01 6.639094e+00 0.000000e+00
      endloop
   endfacet
   facet normal -8.089786e-01 5.877576e-01 9.729476e-03
      outer loop
         vertex -1.542843e+01 7.703828e+00 8.000000e+00
         vertex -1.529416e+01 8.021060e+00 0.000000e+00
         vertex -1.602070e+01 7.021060e+00 0.000000e+00
      endloop
   endfacet
   facet normal -9.998203e-01 0.000000e+00 1.895850e-02
      outer loop
         vertex -1.519935e+01 8.750000e+00 5.000000e+00
         vertex -1.529416e+01 9.257129e+00 0.000000e+00
         vertex -1.529416e+01 8.021060e+00 0.000000e+00
      endloop
   endfacet
   facet normal -8.088877e-01 -5.876913e-01 1.787671e-02
      outer loop
         vertex -1.569330e+01 9.958596e+00 5.000000e+00
         vertex -1.602070e+01 1.025713e+01 0.000000e+00
         vertex -1.529416e+01 9.257129e+00 0.000000e+00
      endloop
   endfacet
   facet normal -3.089761e-01 -9.509308e-01 1.625907e-02
      outer loop
         vertex -1.682778e+01 1.060486e+01 5.000000e+00
         vertex -1.719627e+01 1.063909e+01 0.000000e+00
         vertex -1.602070e+01 1.025713e+01 0.000000e+00
      endloop
   endfacet
   facet normal 3.089857e-01 -9.509620e-01 1.410740e-02
      outer loop
         vertex -1.811930e+01 1.041336e+01 5.000000e+00
         vertex -1.837184e+01 1.025713e+01 0.000000e+00
         vertex -1.719627e+01 1.063909e+01 0.000000e+00
      endloop
   endfacet
   facet normal 8.089646e-01 -5.877464e-01 1.142489e-02
      outer loop
         vertex -1.901745e+01 9.465715e+00 5.000000e+00
         vertex -1.909838e+01 9.257129e+00 0.000000e+00
         vertex -1.837184e+01 1.025713e+01 0.000000e+00
      endloop
   endfacet
   facet normal 9.999663e-01 -0.000000e+00 8.215055e-03
      outer loop
         vertex -1.913946e+01 8.165789e+00 5.000000e+00
         vertex -1.909838e+01 8.021060e+00 0.000000e+00
         vertex -1.909838e+01 9.257129e+00 0.000000e+00
      endloop
   endfacet
   facet normal 8.090091e-01 5.877790e-01 4.481335e-03
      outer loop
         vertex -1.843333e+01 7.067572e+00 5.000000e+00
         vertex -1.837184e+01 7.021060e+00 0.000000e+00
         vertex -1.909838e+01 8.021060e+00 0.000000e+00
      endloop
   endfacet
   facet normal 3.090168e-01 9.510565e-01 2.299395e-04
      outer loop
         vertex -1.720000e+01 6.639098e+00 5.000000e+00
         vertex -1.719627e+01 6.639094e+00 0.000000e+00
         vertex -1.837184e+01 7.021060e+00 0.000000e+00
      endloop
   endfacet
   facet normal 8.946827e-04 9.999996e-01 0.000000e+00
      outer loop
         vertex -1.720000e+01 6.639098e+00 5.000000e+00
         vertex -1.719627e+01 6.639094e+00 8.000000e+00
         vertex -1.719627e+01 6.639094e+00 0.000000e+00
      endloop
   endfacet
   facet normal 5.112474e-04 9.999999e-01 4.768371e-07
      outer loop
         vertex -1.720000e+01 6.639098e+00 5.000000e+00
         vertex -1.719814e+01 6.639095e+00 8.000000e+00
         vertex -1.719627e+01 6.639094e+00 8.000000e+00
      endloop
   endfacet
   facet normal 1.278118e-03 9.999992e-01 0.000000e+00
      outer loop
         vertex -1.720000e+01 6.639098e+00 5.000000e+00
         vertex -1.720000e+01 6.639098e+00 8.000000e+00
         vertex -1.719814e+01 6.639095e+00 8.000000e+00
      endloop
   endfacet
   facet normal 3.281685e-01 9.446072e-01 -4.751290e-03
      outer loop
         vertex -1.837184e+01 7.021060e+00 0.000000e+00
         vertex -1.843333e+01 7.067572e+00 5.000000e+00
         vertex -1.720000e+01 6.639098e+00 5.000000e+00
      endloop
   endfacet
   facet normal 8.411001e-01 5.408088e-01 -8.744192e-03
      outer loop
         vertex -1.909838e+01 8.021060e+00 0.000000e+00
         vertex -1.913946e+01 8.165789e+00 5.000000e+00
         vertex -1.843333e+01 7.067572e+00 5.000000e+00
      endloop
   endfacet
   facet normal 9.955499e-01 -9.344090e-02 -1.221639e-02
      outer loop
         vertex -1.909838e+01 9.257129e+00 0.000000e+00
         vertex -1.901745e+01 9.465715e+00 5.000000e+00
         vertex -1.913946e+01 8.165789e+00 5.000000e+00
      endloop
   endfacet
   facet normal 7.257235e-01 -6.878194e-01 -1.516318e-02
      outer loop
         vertex -1.837184e+01 1.025713e+01 0.000000e+00
         vertex -1.811930e+01 1.041336e+01 5.000000e+00
         vertex -1.901745e+01 9.465715e+00 5.000000e+00
      endloop
   endfacet
   facet normal 1.466469e-01 -9.890327e-01 -1.758020e-02
      outer loop
         vertex -1.719627e+01 1.063909e+01 0.000000e+00
         vertex -1.682778e+01 1.060486e+01 5.000000e+00
         vertex -1.811930e+01 1.041336e+01 5.000000e+00
      endloop
   endfacet
   facet normal -4.948815e-01 -8.687425e-01 -1.946490e-02
      outer loop
         vertex -1.602070e+01 1.025713e+01 0.000000e+00
         vertex -1.569330e+01 9.958596e+00 5.000000e+00
         vertex -1.682778e+01 1.060486e+01 5.000000e+00
      endloop
   endfacet
   facet normal -9.254731e-01 -3.782412e-01 -2.081466e-02
      outer loop
         vertex -1.529416e+01 9.257129e+00 0.000000e+00
         vertex -1.519935e+01 8.750000e+00 5.000000e+00
         vertex -1.569330e+01 9.958596e+00 5.000000e+00
      endloop
   endfacet
   facet normal -1.000000e+00 0.000000e+00 0.000000e+00
      outer loop
         vertex -1.720000e+01 8.750000e+00 8.000000e+00
         vertex -1.720000e+01 6.639098e+00 8.000000e+00
         vertex -1.720000e+01 8.750000e+00 1.670000e+01
      endloop
   endfacet
   facet normal -1.000000e+00 0.000000e+00 0.000000e+00
      outer loop
         vertex -1.720000e+01 6.639098e+00 5.000000e+00
         vertex -1.720000e+01 2.350000e+00 5.000000e+00
         vertex -1.720000e+01 6.639098e+00 8.000000e+00
      endloop
   endfacet
   facet normal -1.000000e+00 0.000000e+00 0.000000e+00
      outer loop
         vertex -1.720000e+01 6.639098e+00 8.000000e+00
         vertex -1.720000e+01 2.350000e+00 5.000000e+00
         vertex -1.720000e+01 8.750000e+00 1.670000e+01
      endloop
   endfacet
   facet normal -1.000000e+00 0.000000e+00 0.000000e+00
      outer loop
         vertex -1.720000e+01 2.350000e+00 5.000000e+00
         vertex -1.720000e+01 2.350000e+00 1.670000e+01
         vertex -1.720000e+01 8.750000e+00 1.670000e+01
      endloop
   endfacet
   facet normal -0.000000e+00 1.000000e+00 0.000000e+00
      outer loop
         vertex -1.120000e+01 8.750000e+00 5.000000e+00
         vertex -1.284951e+01 8.750000e+00 1.068567e+01
         vertex -1.120000e+01 8.750000e+00 1.670000e+01
      endloop
   endfacet
   facet normal -0.000000e+00 1.000000e+00 0.000000e+00
      outer loop
         vertex -1.284951e+01 8.750000e+00 1.068567e+01
         vertex -1.284951e+01 8.750000e+00 1.181433e+01
         vertex -1.120000e+01 8.750000e+00 1.670000e+01
      endloop
   endfacet
   facet normal 0.000000e+00 1.000000e+00 -0.000000e+00
      outer loop
         vertex -1.120000e+01 8.750000e+00 1.670000e+01
         vertex -1.357500e+01 8.750000e+00 1.267894e+01
         vertex -1.720000e+01 8.750000e+00 1.670000e+01
      endloop
   endfacet
   facet normal -0.000000e+00 1.000000e+00 -0.000000e+00
      outer loop
         vertex -1.357500e+01 8.750000e+00 1.267894e+01
         vertex -1.468652e+01 8.750000e+00 1.287493e+01
         vertex -1.720000e+01 8.750000e+00 1.670000e+01
      endloop
   endfacet
   facet normal 0.000000e+00 1.000000e+00 0.000000e+00
      outer loop
         vertex -1.720000e+01 8.750000e+00 1.670000e+01
         vertex -1.605000e+01 8.750000e+00 1.125000e+01
         vertex -1.720000e+01 8.750000e+00 8.000000e+00
      endloop
   endfacet
   facet normal 0.000000e+00 1.000000e+00 0.000000e+00
      outer loop
         vertex -1.605000e+01 8.750000e+00 1.125000e+01
         vertex -1.566397e+01 8.750000e+00 1.018940e+01
         vertex -1.720000e+01 8.750000e+00 8.000000e+00
      endloop
   endfacet
   facet normal 0.000000e+00 1.000000e+00 0.000000e+00
      outer loop
         vertex -1.720000e+01 8.750000e+00 8.000000e+00
         vertex -1.566397e+01 8.750000e+00 1.018940e+01
         vertex -1.519935e+01 8.750000e+00 8.000000e+00
      endloop
   endfacet
   facet normal 0.000000e+00 1.000000e+00 0.000000e+00
      outer loop
         vertex -1.566397e+01 8.750000e+00 1.018940e+01
         vertex -1.468652e+01 8.750000e+00 9.625067e+00
         vertex -1.519935e+01 8.750000e+00 8.000000e+00
      endloop
   endfacet
   facet normal 0.000000e+00 1.000000e+00 0.000000e+00
      outer loop
         vertex -1.519935e+01 8.750000e+00 8.000000e+00
         vertex -1.468652e+01 8.750000e+00 9.625067e+00
         vertex -1.519935e+01 8.750000e+00 5.000000e+00
      endloop
   endfacet
   facet normal 0.000000e+00 1.000000e+00 0.000000e+00
      outer loop
         vertex -1.468652e+01 8.750000e+00 9.625067e+00
         vertex -1.357500e+01 8.750000e+00 9.821058e+00
         vertex -1.519935e+01 8.750000e+00 5.000000e+00
      endloop
   endfacet
   facet normal 0.000000e+00 1.000000e+00 0.000000e+00
      outer loop
         vertex -1.519935e+01 8.750000e+00 5.000000e+00
         vertex -1.357500e+01 8.750000e+00 9.821058e+00
         vertex -1.120000e+01 8.750000e+00 5.000000e+00
      endloop
   endfacet
   facet normal 0.000000e+00 1.000000e+00 0.000000e+00
      outer loop
         vertex -1.357500e+01 8.750000e+00 9.821058e+00
         vertex -1.284951e+01 8.750000e+00 1.068567e+01
         vertex -1.120000e+01 8.750000e+00 5.000000e+00
      endloop
   endfacet
   facet normal 0.000000e+00 1.000000e+00 0.000000e+00
      outer loop
         vertex -1.605000e+01 8.750000e+00 1.125000e+01
         vertex -1.720000e+01 8.750000e+00 1.670000e+01
         vertex -1.566397e+01 8.750000e+00 1.231060e+01
      endloop
   endfacet
   facet normal 0.000000e+00 1.000000e+00 0.000000e+00
      outer loop
         vertex -1.566397e+01 8.750000e+00 1.231060e+01
         vertex -1.720000e+01 8.750000e+00 1.670000e+01
         vertex -1.468652e+01 8.750000e+00 1.287493e+01
      endloop
   endfacet
   facet normal 0.000000e+00 1.000000e+00 0.000000e+00
      outer loop
         vertex -1.357500e+01 8.750000e+00 1.267894e+01
         vertex -1.120000e+01 8.750000e+00 1.670000e+01
         vertex -1.284951e+01 8.750000e+00 1.181433e+01
      endloop
   endfacet
   facet normal 0.000000e+00 0.000000e+00 -1.000000e+00
      outer loop
         vertex -1.720000e+01 6.639098e+00 8.000000e+00
         vertex -1.720000e+01 8.750000e+00 8.000000e+00
         vertex -1.719814e+01 6.639095e+00 8.000000e+00
      endloop
   endfacet
   facet normal -0.000000e+00 0.000000e+00 -1.000000e+00
      outer loop
         vertex -1.720000e+01 8.750000e+00 8.000000e+00
         vertex -1.519935e+01 8.750000e+00 8.000000e+00
         vertex -1.719814e+01 6.639095e+00 8.000000e+00
      endloop
   endfacet
   facet normal 0.000000e+00 0.000000e+00 -1.000000e+00
      outer loop
         vertex -1.719814e+01 6.639095e+00 8.000000e+00
         vertex -1.519935e+01 8.750000e+00 8.000000e+00
         vertex -1.719627e+01 6.639094e+00 8.000000e+00
      endloop
   endfacet
   facet normal -0.000000e+00 0.000000e+00 -1.000000e+00
      outer loop
         vertex -1.519935e+01 8.750000e+00 8.000000e+00
         vertex -1.542843e+01 7.703828e+00 8.000000e+00
         vertex -1.719627e+01 6.639094e+00 8.000000e+00
      endloop
   endfacet
   facet normal 0.000000e+00 0.000000e+00 -1.000000e+00
      outer loop
         vertex -1.719627e+01 6.639094e+00 8.000000e+00
         vertex -1.542843e+01 7.703828e+00 8.000000e+00
         vertex -1.616441e+01 6.925832e+00 8.000000e+00
      endloop
   endfacet
   facet normal 4.592575e-01 8.883032e-01 0.000000e+00
      outer loop
         vertex -1.276221e+01 9.532593e+00 5.000000e+00
         vertex -1.163667e+01 8.950683e+00 5.000000e+00
         vertex -1.163667e+01 8.950683e+00 0.000000e+00
      endloop
   endfacet
   facet normal 4.592575e-01 8.883032e-01 0.000000e+00
      outer loop
         vertex -1.276221e+01 9.532593e+00 5.000000e+00
         vertex -1.163667e+01 8.950683e+00 0.000000e+00
         vertex -1.276221e+01 9.532593e+00 0.000000e+00
      endloop
   endfacet
   facet normal 1.583836e-01 9.873777e-01 0.000000e+00
      outer loop
         vertex -1.163667e+01 8.950683e+00 5.000000e+00
         vertex -1.038560e+01 8.750000e+00 5.000000e+00
         vertex -1.038560e+01 8.750000e+00 0.000000e+00
      endloop
   endfacet
   facet normal 1.583836e-01 9.873777e-01 0.000000e+00
      outer loop
         vertex -1.163667e+01 8.950683e+00 5.000000e+00
         vertex -1.038560e+01 8.750000e+00 0.000000e+00
         vertex -1.163667e+01 8.950683e+00 0.000000e+00
      endloop
   endfacet
   facet normal 5.941534e-01 8.043518e-01 -0.000000e+00
      outer loop
         vertex -1.276221e+01 9.532593e+00 0.000000e+00
         vertex -1.525205e+01 1.137177e+01 0.000000e+00
         vertex -1.525205e+01 1.137177e+01 5.000000e+00
      endloop
   endfacet
   facet normal 5.941534e-01 8.043518e-01 0.000000e+00
      outer loop
         vertex -1.276221e+01 9.532593e+00 0.000000e+00
         vertex -1.525205e+01 1.137177e+01 5.000000e+00
         vertex -1.276221e+01 9.532593e+00 5.000000e+00
      endloop
   endfacet
   facet normal 3.970938e-01 9.177780e-01 0.000000e+00
      outer loop
         vertex -1.691064e+01 1.208939e+01 0.000000e+00
         vertex -1.691064e+01 1.208939e+01 5.000000e+00
         vertex -1.525205e+01 1.137177e+01 5.000000e+00
      endloop
   endfacet
   facet normal 3.970938e-01 9.177780e-01 0.000000e+00
      outer loop
         vertex -1.525205e+01 1.137177e+01 0.000000e+00
         vertex -1.691064e+01 1.208939e+01 0.000000e+00
         vertex -1.525205e+01 1.137177e+01 5.000000e+00
      endloop
   endfacet
   facet normal -4.736337e-02 9.988777e-01 0.000000e+00
      outer loop
         vertex -1.871580e+01 1.200380e+01 0.000000e+00
         vertex -1.871580e+01 1.200380e+01 5.000000e+00
         vertex -1.691064e+01 1.208939e+01 5.000000e+00
      endloop
   endfacet
   facet normal -4.736337e-02 9.988777e-01 0.000000e+00
      outer loop
         vertex -1.691064e+01 1.208939e+01 0.000000e+00
         vertex -1.871580e+01 1.200380e+01 0.000000e+00
         vertex -1.691064e+01 1.208939e+01 5.000000e+00
      endloop
   endfacet
   facet normal -4.821525e-01 8.760873e-01 0.000000e+00
      outer loop
         vertex -2.029905e+01 1.113246e+01 0.000000e+00
         vertex -2.029905e+01 1.113246e+01 5.000000e+00
         vertex -1.871580e+01 1.200380e+01 5.000000e+00
      endloop
   endfacet
   facet normal -4.821525e-01 8.760873e-01 0.000000e+00
      outer loop
         vertex -1.871580e+01 1.200380e+01 0.000000e+00
         vertex -2.029905e+01 1.113246e+01 0.000000e+00
         vertex -1.871580e+01 1.200380e+01 5.000000e+00
      endloop
   endfacet
   facet normal -8.185251e-01 5.744708e-01 0.000000e+00
      outer loop
         vertex -2.133722e+01 9.653237e+00 0.000000e+00
         vertex -2.133722e+01 9.653237e+00 5.000000e+00
         vertex -2.029905e+01 1.113246e+01 5.000000e+00
      endloop
   endfacet
   facet normal -8.185251e-01 5.744708e-01 0.000000e+00
      outer loop
         vertex -2.029905e+01 1.113246e+01 0.000000e+00
         vertex -2.133722e+01 9.653237e+00 0.000000e+00
         vertex -2.029905e+01 1.113246e+01 5.000000e+00
      endloop
   endfacet
   facet normal -9.271388e-01 3.747181e-01 0.000000e+00
      outer loop
         vertex -2.133722e+01 9.653237e+00 0.000000e+00
         vertex -2.858534e+01 -8.280273e+00 0.000000e+00
         vertex -2.858534e+01 -8.280273e+00 5.000000e+00
      endloop
   endfacet
   facet normal -9.271388e-01 3.747181e-01 0.000000e+00
      outer loop
         vertex -2.133722e+01 9.653237e+00 0.000000e+00
         vertex -2.858534e+01 -8.280273e+00 5.000000e+00
         vertex -2.133722e+01 9.653237e+00 5.000000e+00
      endloop
   endfacet
   facet normal -9.790348e-01 2.036931e-01 0.000000e+00
      outer loop
         vertex -2.887541e+01 -9.674498e+00 0.000000e+00
         vertex -2.887541e+01 -9.674498e+00 5.000000e+00
         vertex -2.858534e+01 -8.280273e+00 5.000000e+00
      endloop
   endfacet
   facet normal -9.790348e-01 2.036931e-01 0.000000e+00
      outer loop
         vertex -2.858534e+01 -8.280273e+00 0.000000e+00
         vertex -2.887541e+01 -9.674498e+00 0.000000e+00
         vertex -2.858534e+01 -8.280273e+00 5.000000e+00
      endloop
   endfacet
   facet normal -9.883488e-01 -1.522056e-01 -0.000000e+00
      outer loop
         vertex -2.865866e+01 -1.108199e+01 0.000000e+00
         vertex -2.865866e+01 -1.108199e+01 5.000000e+00
         vertex -2.887541e+01 -9.674498e+00 5.000000e+00
      endloop
   endfacet
   facet normal -9.883488e-01 -1.522056e-01 0.000000e+00
      outer loop
         vertex -2.887541e+01 -9.674498e+00 0.000000e+00
         vertex -2.865866e+01 -1.108199e+01 0.000000e+00
         vertex -2.887541e+01 -9.674498e+00 5.000000e+00
      endloop
   endfacet
   facet normal -9.454697e-01 -3.257101e-01 0.000000e+00
      outer loop
         vertex -2.865866e+01 -1.108199e+01 0.000000e+00
         vertex -2.135681e+01 -3.227776e+01 0.000000e+00
         vertex -2.135681e+01 -3.227776e+01 5.000000e+00
      endloop
   endfacet
   facet normal -9.454697e-01 -3.257101e-01 0.000000e+00
      outer loop
         vertex -2.865866e+01 -1.108199e+01 0.000000e+00
         vertex -2.135681e+01 -3.227776e+01 5.000000e+00
         vertex -2.865866e+01 -1.108199e+01 5.000000e+00
      endloop
   endfacet
   facet normal -8.483991e-01 -5.293571e-01 -0.000000e+00
      outer loop
         vertex -2.040753e+01 -3.379917e+01 0.000000e+00
         vertex -2.040753e+01 -3.379917e+01 5.000000e+00
         vertex -2.135681e+01 -3.227776e+01 5.000000e+00
      endloop
   endfacet
   facet normal -8.483991e-01 -5.293571e-01 0.000000e+00
      outer loop
         vertex -2.135681e+01 -3.227776e+01 0.000000e+00
         vertex -2.040753e+01 -3.379917e+01 0.000000e+00
         vertex -2.135681e+01 -3.227776e+01 5.000000e+00
      endloop
   endfacet
   facet normal -5.318581e-01 -8.468335e-01 -0.000000e+00
      outer loop
         vertex -1.888893e+01 -3.475294e+01 0.000000e+00
         vertex -1.888893e+01 -3.475294e+01 5.000000e+00
         vertex -2.040753e+01 -3.379917e+01 5.000000e+00
      endloop
   endfacet
   facet normal -5.318581e-01 -8.468335e-01 0.000000e+00
      outer loop
         vertex -2.040753e+01 -3.379917e+01 0.000000e+00
         vertex -1.888893e+01 -3.475294e+01 0.000000e+00
         vertex -2.040753e+01 -3.379917e+01 5.000000e+00
      endloop
   endfacet
   facet normal -1.084206e-01 -9.941051e-01 -0.000000e+00
      outer loop
         vertex -1.710623e+01 -3.494736e+01 0.000000e+00
         vertex -1.710623e+01 -3.494736e+01 5.000000e+00
         vertex -1.888893e+01 -3.475294e+01 5.000000e+00
      endloop
   endfacet
   facet normal -1.084206e-01 -9.941051e-01 0.000000e+00
      outer loop
         vertex -1.888893e+01 -3.475294e+01 0.000000e+00
         vertex -1.710623e+01 -3.494736e+01 0.000000e+00
         vertex -1.888893e+01 -3.475294e+01 5.000000e+00
      endloop
   endfacet
   facet normal 3.368084e-01 -9.415732e-01 0.000000e+00
      outer loop
         vertex -1.541773e+01 -3.434338e+01 0.000000e+00
         vertex -1.541773e+01 -3.434338e+01 5.000000e+00
         vertex -1.710623e+01 -3.494736e+01 5.000000e+00
      endloop
   endfacet
   facet normal 3.368084e-01 -9.415732e-01 0.000000e+00
      outer loop
         vertex -1.710623e+01 -3.494736e+01 0.000000e+00
         vertex -1.541773e+01 -3.434338e+01 0.000000e+00
         vertex -1.710623e+01 -3.494736e+01 5.000000e+00
      endloop
   endfacet
   facet normal 5.392998e-01 -8.421138e-01 0.000000e+00
      outer loop
         vertex -1.463449e+01 -3.384178e+01 5.000000e+00
         vertex -1.541773e+01 -3.434338e+01 5.000000e+00
         vertex -1.541773e+01 -3.434338e+01 0.000000e+00
      endloop
   endfacet
   facet normal 5.392998e-01 -8.421138e-01 0.000000e+00
      outer loop
         vertex -1.463449e+01 -3.384178e+01 5.000000e+00
         vertex -1.541773e+01 -3.434338e+01 0.000000e+00
         vertex -1.463449e+01 -3.384178e+01 0.000000e+00
      endloop
   endfacet
   facet normal 6.920505e-01 -7.218491e-01 0.000000e+00
      outer loop
         vertex -1.351711e+01 -3.277053e+01 0.000000e+00
         vertex -1.351711e+01 -3.277053e+01 5.000000e+00
         vertex -1.463449e+01 -3.384178e+01 5.000000e+00
      endloop
   endfacet
   facet normal 6.920505e-01 -7.218491e-01 0.000000e+00
      outer loop
         vertex -1.463449e+01 -3.384178e+01 0.000000e+00
         vertex -1.351711e+01 -3.277053e+01 0.000000e+00
         vertex -1.463449e+01 -3.384178e+01 5.000000e+00
      endloop
   endfacet
   facet normal 9.142962e-01 -4.050463e-01 0.000000e+00
      outer loop
         vertex -1.289012e+01 -3.135525e+01 0.000000e+00
         vertex -1.289012e+01 -3.135525e+01 5.000000e+00
         vertex -1.351711e+01 -3.277053e+01 5.000000e+00
      endloop
   endfacet
   facet normal 9.142962e-01 -4.050463e-01 0.000000e+00
      outer loop
         vertex -1.351711e+01 -3.277053e+01 0.000000e+00
         vertex -1.289012e+01 -3.135525e+01 0.000000e+00
         vertex -1.351711e+01 -3.277053e+01 5.000000e+00
      endloop
   endfacet
   facet normal 9.996194e-01 -2.758560e-02 0.000000e+00
      outer loop
         vertex -1.284742e+01 -2.980791e+01 0.000000e+00
         vertex -1.284742e+01 -2.980791e+01 5.000000e+00
         vertex -1.289012e+01 -3.135525e+01 5.000000e+00
      endloop
   endfacet
   facet normal 9.996194e-01 -2.758560e-02 0.000000e+00
      outer loop
         vertex -1.289012e+01 -3.135525e+01 0.000000e+00
         vertex -1.284742e+01 -2.980791e+01 0.000000e+00
         vertex -1.289012e+01 -3.135525e+01 5.000000e+00
      endloop
   endfacet
   facet normal 9.860660e-01 1.663544e-01 0.000000e+00
      outer loop
         vertex -1.561292e+01 -1.341542e+01 5.000000e+00
         vertex -1.284742e+01 -2.980791e+01 5.000000e+00
         vertex -1.284742e+01 -2.980791e+01 0.000000e+00
      endloop
   endfacet
   facet normal 9.860660e-01 1.663544e-01 0.000000e+00
      outer loop
         vertex -1.561292e+01 -1.341542e+01 5.000000e+00
         vertex -1.284742e+01 -2.980791e+01 0.000000e+00
         vertex -1.561292e+01 -1.341542e+01 0.000000e+00
      endloop
   endfacet
   facet normal 9.987448e-01 -5.008823e-02 0.000000e+00
      outer loop
         vertex -1.552655e+01 -1.169329e+01 0.000000e+00
         vertex -1.552655e+01 -1.169329e+01 5.000000e+00
         vertex -1.561292e+01 -1.341542e+01 5.000000e+00
      endloop
   endfacet
   facet normal 9.987448e-01 -5.008823e-02 0.000000e+00
      outer loop
         vertex -1.561292e+01 -1.341542e+01 0.000000e+00
         vertex -1.552655e+01 -1.169329e+01 0.000000e+00
         vertex -1.561292e+01 -1.341542e+01 5.000000e+00
      endloop
   endfacet
   facet normal 8.848651e-01 -4.658473e-01 0.000000e+00
      outer loop
         vertex -1.472330e+01 -1.016753e+01 0.000000e+00
         vertex -1.472330e+01 -1.016753e+01 5.000000e+00
         vertex -1.552655e+01 -1.169329e+01 5.000000e+00
      endloop
   endfacet
   facet normal 8.848651e-01 -4.658473e-01 0.000000e+00
      outer loop
         vertex -1.552655e+01 -1.169329e+01 0.000000e+00
         vertex -1.472330e+01 -1.016753e+01 0.000000e+00
         vertex -1.552655e+01 -1.169329e+01 5.000000e+00
      endloop
   endfacet
   facet normal 6.065572e-01 -7.950399e-01 0.000000e+00
      outer loop
         vertex -1.335242e+01 -9.121647e+00 0.000000e+00
         vertex -1.335242e+01 -9.121647e+00 5.000000e+00
         vertex -1.472330e+01 -1.016753e+01 5.000000e+00
      endloop
   endfacet
   facet normal 6.065572e-01 -7.950399e-01 0.000000e+00
      outer loop
         vertex -1.472330e+01 -1.016753e+01 0.000000e+00
         vertex -1.335242e+01 -9.121647e+00 0.000000e+00
         vertex -1.472330e+01 -1.016753e+01 5.000000e+00
      endloop
   endfacet
   facet normal 2.155362e-01 -9.764958e-01 0.000000e+00
      outer loop
         vertex -1.166866e+01 -8.750000e+00 0.000000e+00
         vertex -1.166866e+01 -8.750000e+00 5.000000e+00
         vertex -1.335242e+01 -9.121647e+00 5.000000e+00
      endloop
   endfacet
   facet normal 2.155362e-01 -9.764958e-01 0.000000e+00
      outer loop
         vertex -1.335242e+01 -9.121647e+00 0.000000e+00
         vertex -1.166866e+01 -8.750000e+00 0.000000e+00
         vertex -1.335242e+01 -9.121647e+00 5.000000e+00
      endloop
   endfacet
   facet normal 0.000000e+00 -1.000000e+00 0.000000e+00
      outer loop
         vertex 1.720000e+01 -8.750000e+00 5.000000e+00
         vertex -1.166866e+01 -8.750000e+00 5.000000e+00
         vertex -1.166866e+01 -8.750000e+00 0.000000e+00
      endloop
   endfacet
   facet normal 0.000000e+00 -1.000000e+00 0.000000e+00
      outer loop
         vertex 1.720000e+01 -8.750000e+00 5.000000e+00
         vertex -1.166866e+01 -8.750000e+00 0.000000e+00
         vertex 1.720000e+01 -8.750000e+00 0.000000e+00
      endloop
   endfacet
   facet normal 1.000000e+00 0.000000e+00 0.000000e+00
      outer loop
         vertex 1.720000e+01 -8.750000e+00 5.000000e+00
         vertex 1.720000e+01 -8.750000e+00 0.000000e+00
         vertex 1.720000e+01 2.350000e+00 5.000000e+00
      endloop
   endfacet
   facet normal 1.000000e+00 0.000000e+00 0.000000e+00
      outer loop
         vertex 1.720000e+01 -8.750000e+00 0.000000e+00
         vertex 1.720000e+01 8.750000e+00 0.000000e+00
         vertex 1.720000e+01 2.350000e+00 5.000000e+00
      endloop
   endfacet
   facet normal 1.000000e+00 0.000000e+00 0.000000e+00
      outer loop
         vertex 1.720000e+01 2.350000e+00 5.000000e+00
         vertex 1.720000e+01 8.750000e+00 0.000000e+00
         vertex 1.720000e+01 2.350000e+00 1.670000e+01
      endloop
   endfacet
   facet normal 1.000000e+00 0.000000e+00 0.000000e+00
      outer loop
         vertex 1.720000e+01 8.750000e+00 0.000000e+00
         vertex 1.720000e+01 8.750000e+00 1.670000e+01
         vertex 1.720000e+01 2.350000e+00 1.670000e+01
      endloop
   endfacet
   facet normal 0.000000e+00 -1.000000e+00 0.000000e+00
      outer loop
         vertex 1.120000e+01 2.350000e+00 1.670000e+01
         vertex 1.313603e+01 2.350000e+00 1.221060e+01
         vertex 1.720000e+01 2.350000e+00 1.670000e+01
      endloop
   endfacet
   facet normal -0.000000e+00 -1.000000e+00 0.000000e+00
      outer loop
         vertex 1.313603e+01 2.350000e+00 1.221060e+01
         vertex 1.411348e+01 2.350000e+00 1.277493e+01
         vertex 1.720000e+01 2.350000e+00 1.670000e+01
      endloop
   endfacet
   facet normal 0.000000e+00 -1.000000e+00 0.000000e+00
      outer loop
         vertex 1.720000e+01 2.350000e+00 1.670000e+01
         vertex 1.595049e+01 2.350000e+00 1.171433e+01
         vertex 1.720000e+01 2.350000e+00 5.000000e+00
      endloop
   endfacet
   facet normal 0.000000e+00 -1.000000e+00 0.000000e+00
      outer loop
         vertex 1.595049e+01 2.350000e+00 1.171433e+01
         vertex 1.595049e+01 2.350000e+00 1.058567e+01
         vertex 1.720000e+01 2.350000e+00 5.000000e+00
      endloop
   endfacet
   facet normal 0.000000e+00 -1.000000e+00 -0.000000e+00
      outer loop
         vertex 1.720000e+01 2.350000e+00 5.000000e+00
         vertex 1.522500e+01 2.350000e+00 9.721058e+00
         vertex 1.120000e+01 2.350000e+00 5.000000e+00
      endloop
   endfacet
   facet normal 0.000000e+00 -1.000000e+00 -0.000000e+00
      outer loop
         vertex 1.522500e+01 2.350000e+00 9.721058e+00
         vertex 1.411348e+01 2.350000e+00 9.525067e+00
         vertex 1.120000e+01 2.350000e+00 5.000000e+00
      endloop
   endfacet
   facet normal -0.000000e+00 -1.000000e+00 0.000000e+00
      outer loop
         vertex 1.120000e+01 2.350000e+00 5.000000e+00
         vertex 1.275000e+01 2.350000e+00 1.115000e+01
         vertex 1.120000e+01 2.350000e+00 1.670000e+01
      endloop
   endfacet
   facet normal -0.000000e+00 -1.000000e+00 0.000000e+00
      outer loop
         vertex 1.275000e+01 2.350000e+00 1.115000e+01
         vertex 1.313603e+01 2.350000e+00 1.221060e+01
         vertex 1.120000e+01 2.350000e+00 1.670000e+01
      endloop
   endfacet
   facet normal 0.000000e+00 -1.000000e+00 0.000000e+00
      outer loop
         vertex 1.275000e+01 2.350000e+00 1.115000e+01
         vertex 1.120000e+01 2.350000e+00 5.000000e+00
         vertex 1.313603e+01 2.350000e+00 1.008940e+01
      endloop
   endfacet
   facet normal 0.000000e+00 -1.000000e+00 0.000000e+00
      outer loop
         vertex 1.313603e+01 2.350000e+00 1.008940e+01
         vertex 1.120000e+01 2.350000e+00 5.000000e+00
         vertex 1.411348e+01 2.350000e+00 9.525067e+00
      endloop
   endfacet
   facet normal 0.000000e+00 -1.000000e+00 0.000000e+00
      outer loop
         vertex 1.522500e+01 2.350000e+00 9.721058e+00
         vertex 1.720000e+01 2.350000e+00 5.000000e+00
         vertex 1.595049e+01 2.350000e+00 1.058567e+01
      endloop
   endfacet
   facet normal 0.000000e+00 -1.000000e+00 0.000000e+00
      outer loop
         vertex 1.595049e+01 2.350000e+00 1.171433e+01
         vertex 1.720000e+01 2.350000e+00 1.670000e+01
         vertex 1.522500e+01 2.350000e+00 1.257894e+01
      endloop
   endfacet
   facet normal 0.000000e+00 -1.000000e+00 0.000000e+00
      outer loop
         vertex 1.720000e+01 2.350000e+00 1.670000e+01
         vertex 1.411348e+01 2.350000e+00 1.277493e+01
         vertex 1.522500e+01 2.350000e+00 1.257894e+01
      endloop
   endfacet
   facet normal -1.000000e+00 0.000000e+00 0.000000e+00
      outer loop
         vertex 1.120000e+01 8.750000e+00 1.670000e+01
         vertex 1.120000e+01 8.750000e+00 5.000000e+00
         vertex 1.120000e+01 2.350000e+00 5.000000e+00
      endloop
   endfacet
   facet normal -1.000000e+00 0.000000e+00 0.000000e+00
      outer loop
         vertex 1.120000e+01 8.750000e+00 1.670000e+01
         vertex 1.120000e+01 2.350000e+00 5.000000e+00
         vertex 1.120000e+01 2.350000e+00 1.670000e+01
      endloop
   endfacet
   facet normal -0.000000e+00 1.000000e+00 0.000000e+00
      outer loop
         vertex 1.720000e+01 8.750000e+00 0.000000e+00
         vertex 1.595049e+01 8.750000e+00 1.058567e+01
         vertex 1.720000e+01 8.750000e+00 1.670000e+01
      endloop
   endfacet
   facet normal -0.000000e+00 1.000000e+00 0.000000e+00
      outer loop
         vertex 1.595049e+01 8.750000e+00 1.058567e+01
         vertex 1.595049e+01 8.750000e+00 1.171433e+01
         vertex 1.720000e+01 8.750000e+00 1.670000e+01
      endloop
   endfacet
   facet normal 0.000000e+00 1.000000e+00 -0.000000e+00
      outer loop
         vertex 1.720000e+01 8.750000e+00 1.670000e+01
         vertex 1.522500e+01 8.750000e+00 1.257894e+01
         vertex 1.120000e+01 8.750000e+00 1.670000e+01
      endloop
   endfacet
   facet normal -0.000000e+00 1.000000e+00 -0.000000e+00
      outer loop
         vertex 1.522500e+01 8.750000e+00 1.257894e+01
         vertex 1.411348e+01 8.750000e+00 1.277493e+01
         vertex 1.120000e+01 8.750000e+00 1.670000e+01
      endloop
   endfacet
   facet normal 0.000000e+00 1.000000e+00 0.000000e+00
      outer loop
         vertex 1.120000e+01 8.750000e+00 1.670000e+01
         vertex 1.275000e+01 8.750000e+00 1.115000e+01
         vertex 1.120000e+01 8.750000e+00 5.000000e+00
      endloop
   endfacet
   facet normal 0.000000e+00 1.000000e+00 0.000000e+00
      outer loop
         vertex 1.275000e+01 8.750000e+00 1.115000e+01
         vertex 1.313603e+01 8.750000e+00 1.008940e+01
         vertex 1.120000e+01 8.750000e+00 5.000000e+00
      endloop
   endfacet
   facet normal 0.000000e+00 1.000000e+00 0.000000e+00
      outer loop
         vertex 1.120000e+01 8.750000e+00 5.000000e+00
         vertex 1.313603e+01 8.750000e+00 1.008940e+01
         vertex 1.720000e+01 8.750000e+00 0.000000e+00
      endloop
   endfacet
   facet normal 0.000000e+00 1.000000e+00 0.000000e+00
      outer loop
         vertex 1.313603e+01 8.750000e+00 1.008940e+01
         vertex 1.411348e+01 8.750000e+00 9.525067e+00
         vertex 1.720000e+01 8.750000e+00 0.000000e+00
      endloop
   endfacet
   facet normal -0.000000e+00 1.000000e+00 0.000000e+00
      outer loop
         vertex 1.720000e+01 8.750000e+00 0.000000e+00
         vertex 1.522500e+01 8.750000e+00 9.721058e+00
         vertex 1.595049e+01 8.750000e+00 1.058567e+01
      endloop
   endfacet
   facet normal 0.000000e+00 1.000000e+00 0.000000e+00
      outer loop
         vertex 1.522500e+01 8.750000e+00 9.721058e+00
         vertex 1.720000e+01 8.750000e+00 0.000000e+00
         vertex 1.411348e+01 8.750000e+00 9.525067e+00
      endloop
   endfacet
   facet normal 0.000000e+00 1.000000e+00 0.000000e+00
      outer loop
         vertex 1.275000e+01 8.750000e+00 1.115000e+01
         vertex 1.120000e+01 8.750000e+00 1.670000e+01
         vertex 1.313603e+01 8.750000e+00 1.221060e+01
      endloop
   endfacet
   facet normal 0.000000e+00 1.000000e+00 0.000000e+00
      outer loop
         vertex 1.313603e+01 8.750000e+00 1.221060e+01
         vertex 1.120000e+01 8.750000e+00 1.670000e+01
         vertex 1.411348e+01 8.750000e+00 1.277493e+01
      endloop
   endfacet
   facet normal 0.000000e+00 1.000000e+00 0.000000e+00
      outer loop
         vertex 1.120000e+01 8.750000e+00 5.000000e+00
         vertex 1.720000e+01 8.750000e+00 0.000000e+00
         vertex -1.038560e+01 8.750000e+00 5.000000e+00
      endloop
   endfacet
   facet normal 0.000000e+00 1.000000e+00 0.000000e+00
      outer loop
         vertex 1.720000e+01 8.750000e+00 0.000000e+00
         vertex -1.038560e+01 8.750000e+00 0.000000e+00
         vertex -1.038560e+01 8.750000e+00 5.000000e+00
      endloop
   endfacet
   facet normal 0.000000e+00 1.000000e+00 0.000000e+00
      outer loop
         vertex 1.522500e+01 8.750000e+00 1.257894e+01
         vertex 1.720000e+01 8.750000e+00 1.670000e+01
         vertex 1.595049e+01 8.750000e+00 1.171433e+01
      endloop
   endfacet
   facet normal 1.000000e+00 0.000000e+00 0.000000e+00
      outer loop
         vertex -1.120000e+01 2.350000e+00 1.670000e+01
         vertex -1.120000e+01 2.350000e+00 5.000000e+00
         vertex -1.120000e+01 8.750000e+00 5.000000e+00
      endloop
   endfacet
   facet normal 1.000000e+00 0.000000e+00 -0.000000e+00
      outer loop
         vertex -1.120000e+01 2.350000e+00 1.670000e+01
         vertex -1.120000e+01 8.750000e+00 5.000000e+00
         vertex -1.120000e+01 8.750000e+00 1.670000e+01
      endloop
   endfacet
   facet normal 0.000000e+00 -1.000000e+00 0.000000e+00
      outer loop
         vertex -1.720000e+01 2.350000e+00 1.670000e+01
         vertex -1.566397e+01 2.350000e+00 1.231060e+01
         vertex -1.120000e+01 2.350000e+00 1.670000e+01
      endloop
   endfacet
   facet normal -0.000000e+00 -1.000000e+00 0.000000e+00
      outer loop
         vertex -1.566397e+01 2.350000e+00 1.231060e+01
         vertex -1.468652e+01 2.350000e+00 1.287493e+01
         vertex -1.120000e+01 2.350000e+00 1.670000e+01
      endloop
   endfacet
   facet normal 0.000000e+00 -1.000000e+00 0.000000e+00
      outer loop
         vertex -1.120000e+01 2.350000e+00 1.670000e+01
         vertex -1.284951e+01 2.350000e+00 1.181433e+01
         vertex -1.120000e+01 2.350000e+00 5.000000e+00
      endloop
   endfacet
   facet normal 0.000000e+00 -1.000000e+00 0.000000e+00
      outer loop
         vertex -1.284951e+01 2.350000e+00 1.181433e+01
         vertex -1.284951e+01 2.350000e+00 1.068567e+01
         vertex -1.120000e+01 2.350000e+00 5.000000e+00
      endloop
   endfacet
   facet normal 0.000000e+00 -1.000000e+00 -0.000000e+00
      outer loop
         vertex -1.120000e+01 2.350000e+00 5.000000e+00
         vertex -1.284951e+01 2.350000e+00 1.068567e+01
         vertex -1.720000e+01 2.350000e+00 5.000000e+00
      endloop
   endfacet
   facet normal 0.000000e+00 -1.000000e+00 -0.000000e+00
      outer loop
         vertex -1.284951e+01 2.350000e+00 1.068567e+01
         vertex -1.357500e+01 2.350000e+00 9.821058e+00
         vertex -1.720000e+01 2.350000e+00 5.000000e+00
      endloop
   endfacet
   facet normal -0.000000e+00 -1.000000e+00 0.000000e+00
      outer loop
         vertex -1.720000e+01 2.350000e+00 5.000000e+00
         vertex -1.605000e+01 2.350000e+00 1.125000e+01
         vertex -1.720000e+01 2.350000e+00 1.670000e+01
      endloop
   endfacet
   facet normal -0.000000e+00 -1.000000e+00 0.000000e+00
      outer loop
         vertex -1.605000e+01 2.350000e+00 1.125000e+01
         vertex -1.566397e+01 2.350000e+00 1.231060e+01
         vertex -1.720000e+01 2.350000e+00 1.670000e+01
      endloop
   endfacet
   facet normal 0.000000e+00 -1.000000e+00 0.000000e+00
      outer loop
         vertex -1.605000e+01 2.350000e+00 1.125000e+01
         vertex -1.720000e+01 2.350000e+00 5.000000e+00
         vertex -1.566397e+01 2.350000e+00 1.018940e+01
      endloop
   endfacet
   facet normal 0.000000e+00 -1.000000e+00 0.000000e+00
      outer loop
         vertex -1.566397e+01 2.350000e+00 1.018940e+01
         vertex -1.720000e+01 2.350000e+00 5.000000e+00
         vertex -1.468652e+01 2.350000e+00 9.625067e+00
      endloop
   endfacet
   facet normal 0.000000e+00 -1.000000e+00 0.000000e+00
      outer loop
         vertex -1.720000e+01 2.350000e+00 5.000000e+00
         vertex -1.357500e+01 2.350000e+00 9.821058e+00
         vertex -1.468652e+01 2.350000e+00 9.625067e+00
      endloop
   endfacet
   facet normal 0.000000e+00 -1.000000e+00 0.000000e+00
      outer loop
         vertex -1.284951e+01 2.350000e+00 1.181433e+01
         vertex -1.120000e+01 2.350000e+00 1.670000e+01
         vertex -1.357500e+01 2.350000e+00 1.267894e+01
      endloop
   endfacet
   facet normal 0.000000e+00 -1.000000e+00 0.000000e+00
      outer loop
         vertex -1.120000e+01 2.350000e+00 1.670000e+01
         vertex -1.468652e+01 2.350000e+00 1.287493e+01
         vertex -1.357500e+01 2.350000e+00 1.267894e+01
      endloop
   endfacet
   facet normal 0.000000e+00 0.000000e+00 -1.000000e+00
      outer loop
         vertex -1.463449e+01 -3.384178e+01 0.000000e+00
         vertex -1.541773e+01 -3.434338e+01 0.000000e+00
         vertex -1.351711e+01 -3.277053e+01 0.000000e+00
      endloop
   endfacet
   facet normal 0.000000e+00 0.000000e+00 -1.000000e+00
      outer loop
         vertex -1.541773e+01 -3.434338e+01 0.000000e+00
         vertex -1.710623e+01 -3.494736e+01 0.000000e+00
         vertex -1.351711e+01 -3.277053e+01 0.000000e+00
      endloop
   endfacet
   facet normal 0.000000e+00 0.000000e+00 -1.000000e+00
      outer loop
         vertex -1.351711e+01 -3.277053e+01 0.000000e+00
         vertex -1.710623e+01 -3.494736e+01 0.000000e+00
         vertex -1.289012e+01 -3.135525e+01 0.000000e+00
      endloop
   endfacet
   facet normal 0.000000e+00 0.000000e+00 -1.000000e+00
      outer loop
         vertex -1.710623e+01 -3.494736e+01 0.000000e+00
         vertex -1.888893e+01 -3.475294e+01 0.000000e+00
         vertex -1.289012e+01 -3.135525e+01 0.000000e+00
      endloop
   endfacet
   facet normal 0.000000e+00 0.000000e+00 -1.000000e+00
      outer loop
         vertex -1.289012e+01 -3.135525e+01 0.000000e+00
         vertex -1.642278e+01 -3.313446e+01 0.000000e+00
         vertex -1.284742e+01 -2.980791e+01 0.000000e+00
      endloop
   endfacet
   facet normal 0.000000e+00 -0.000000e+00 -1.000000e+00
      outer loop
         vertex -1.642278e+01 -3.313446e+01 0.000000e+00
         vertex -1.569623e+01 -3.213446e+01 0.000000e+00
         vertex -1.284742e+01 -2.980791e+01 0.000000e+00
      endloop
   endfacet
   facet normal 0.000000e+00 0.000000e+00 -1.000000e+00
      outer loop
         vertex -1.284742e+01 -2.980791e+01 0.000000e+00
         vertex -1.569623e+01 -3.213446e+01 0.000000e+00
         vertex -1.561292e+01 -1.341542e+01 0.000000e+00
      endloop
   endfacet
   facet normal 0.000000e+00 0.000000e+00 -1.000000e+00
      outer loop
         vertex -1.569623e+01 -3.213446e+01 0.000000e+00
         vertex -1.569623e+01 -3.089840e+01 0.000000e+00
         vertex -1.561292e+01 -1.341542e+01 0.000000e+00
      endloop
   endfacet
   facet normal 0.000000e+00 0.000000e+00 -1.000000e+00
      outer loop
         vertex -1.569623e+01 -3.089840e+01 0.000000e+00
         vertex -1.642278e+01 -2.989840e+01 0.000000e+00
         vertex -1.561292e+01 -1.341542e+01 0.000000e+00
      endloop
   endfacet
   facet normal 0.000000e+00 0.000000e+00 -1.000000e+00
      outer loop
         vertex -1.642278e+01 -2.989840e+01 0.000000e+00
         vertex -1.759835e+01 -2.951643e+01 0.000000e+00
         vertex -1.561292e+01 -1.341542e+01 0.000000e+00
      endloop
   endfacet
   facet normal 0.000000e+00 0.000000e+00 -1.000000e+00
      outer loop
         vertex -1.561292e+01 -1.341542e+01 0.000000e+00
         vertex -1.759835e+01 -2.951643e+01 0.000000e+00
         vertex -1.552655e+01 -1.169329e+01 0.000000e+00
      endloop
   endfacet
   facet normal 0.000000e+00 0.000000e+00 -1.000000e+00
      outer loop
         vertex -1.759835e+01 -2.951643e+01 0.000000e+00
         vertex -1.877392e+01 -2.989840e+01 0.000000e+00
         vertex -1.552655e+01 -1.169329e+01 0.000000e+00
      endloop
   endfacet
   facet normal 0.000000e+00 0.000000e+00 -1.000000e+00
      outer loop
         vertex -1.877392e+01 -2.989840e+01 0.000000e+00
         vertex -1.950046e+01 -3.089840e+01 0.000000e+00
         vertex -1.552655e+01 -1.169329e+01 0.000000e+00
      endloop
   endfacet
   facet normal 0.000000e+00 0.000000e+00 -1.000000e+00
      outer loop
         vertex -1.289012e+01 -3.135525e+01 0.000000e+00
         vertex -1.888893e+01 -3.475294e+01 0.000000e+00
         vertex -1.642278e+01 -3.313446e+01 0.000000e+00
      endloop
   endfacet
   facet normal 0.000000e+00 0.000000e+00 -1.000000e+00
      outer loop
         vertex -1.642278e+01 -3.313446e+01 0.000000e+00
         vertex -1.888893e+01 -3.475294e+01 0.000000e+00
         vertex -1.759835e+01 -3.351643e+01 0.000000e+00
      endloop
   endfacet
   facet normal 0.000000e+00 0.000000e+00 -1.000000e+00
      outer loop
         vertex -1.888893e+01 -3.475294e+01 0.000000e+00
         vertex -2.040753e+01 -3.379917e+01 0.000000e+00
         vertex -1.759835e+01 -3.351643e+01 0.000000e+00
      endloop
   endfacet
   facet normal 0.000000e+00 0.000000e+00 -1.000000e+00
      outer loop
         vertex -1.759835e+01 -3.351643e+01 0.000000e+00
         vertex -2.040753e+01 -3.379917e+01 0.000000e+00
         vertex -1.877392e+01 -3.313446e+01 0.000000e+00
      endloop
   endfacet
   facet normal 0.000000e+00 0.000000e+00 -1.000000e+00
      outer loop
         vertex -2.040753e+01 -3.379917e+01 0.000000e+00
         vertex -2.135681e+01 -3.227776e+01 0.000000e+00
         vertex -1.877392e+01 -3.313446e+01 0.000000e+00
      endloop
   endfacet
   facet normal 0.000000e+00 0.000000e+00 -1.000000e+00
      outer loop
         vertex -1.877392e+01 -3.313446e+01 0.000000e+00
         vertex -2.135681e+01 -3.227776e+01 0.000000e+00
         vertex -1.950046e+01 -3.213446e+01 0.000000e+00
      endloop
   endfacet
   facet normal 0.000000e+00 0.000000e+00 -1.000000e+00
      outer loop
         vertex -2.135681e+01 -3.227776e+01 0.000000e+00
         vertex -2.865866e+01 -1.108199e+01 0.000000e+00
         vertex -1.950046e+01 -3.213446e+01 0.000000e+00
      endloop
   endfacet
   facet normal 0.000000e+00 0.000000e+00 -1.000000e+00
      outer loop
         vertex -1.950046e+01 -3.213446e+01 0.000000e+00
         vertex -2.865866e+01 -1.108199e+01 0.000000e+00
         vertex -1.950046e+01 -3.089840e+01 0.000000e+00
      endloop
   endfacet
   facet normal 0.000000e+00 0.000000e+00 -1.000000e+00
      outer loop
         vertex -2.865866e+01 -1.108199e+01 0.000000e+00
         vertex -2.887541e+01 -9.674498e+00 0.000000e+00
         vertex -1.950046e+01 -3.089840e+01 0.000000e+00
      endloop
   endfacet
   facet normal 0.000000e+00 0.000000e+00 -1.000000e+00
      outer loop
         vertex -1.950046e+01 -3.089840e+01 0.000000e+00
         vertex -2.421981e+01 -1.409930e+01 0.000000e+00
         vertex -1.552655e+01 -1.169329e+01 0.000000e+00
      endloop
   endfacet
   facet normal 0.000000e+00 -0.000000e+00 -1.000000e+00
      outer loop
         vertex -2.421981e+01 -1.409930e+01 0.000000e+00
         vertex -2.304424e+01 -1.371734e+01 0.000000e+00
         vertex -1.552655e+01 -1.169329e+01 0.000000e+00
      endloop
   endfacet
   facet normal 0.000000e+00 0.000000e+00 -1.000000e+00
      outer loop
         vertex -1.552655e+01 -1.169329e+01 0.000000e+00
         vertex -2.304424e+01 -1.371734e+01 0.000000e+00
         vertex -1.472330e+01 -1.016753e+01 0.000000e+00
      endloop
   endfacet
   facet normal 0.000000e+00 -0.000000e+00 -1.000000e+00
      outer loop
         vertex -2.304424e+01 -1.371734e+01 0.000000e+00
         vertex -2.231770e+01 -1.271734e+01 0.000000e+00
         vertex -1.472330e+01 -1.016753e+01 0.000000e+00
      endloop
   endfacet
   facet normal 0.000000e+00 0.000000e+00 -1.000000e+00
      outer loop
         vertex -1.472330e+01 -1.016753e+01 0.000000e+00
         vertex -2.231770e+01 -1.271734e+01 0.000000e+00
         vertex -1.335242e+01 -9.121647e+00 0.000000e+00
      endloop
   endfacet
   facet normal 0.000000e+00 0.000000e+00 -1.000000e+00
      outer loop
         vertex -2.231770e+01 -1.271734e+01 0.000000e+00
         vertex -2.231770e+01 -1.148127e+01 0.000000e+00
         vertex -1.335242e+01 -9.121647e+00 0.000000e+00
      endloop
   endfacet
   facet normal 0.000000e+00 0.000000e+00 -1.000000e+00
      outer loop
         vertex -2.231770e+01 -1.148127e+01 0.000000e+00
         vertex -2.304424e+01 -1.048127e+01 0.000000e+00
         vertex -1.335242e+01 -9.121647e+00 0.000000e+00
      endloop
   endfacet
   facet normal 0.000000e+00 0.000000e+00 -1.000000e+00
      outer loop
         vertex -2.304424e+01 -1.048127e+01 0.000000e+00
         vertex -2.421981e+01 -1.009930e+01 0.000000e+00
         vertex -1.335242e+01 -9.121647e+00 0.000000e+00
      endloop
   endfacet
   facet normal 0.000000e+00 0.000000e+00 -1.000000e+00
      outer loop
         vertex -1.335242e+01 -9.121647e+00 0.000000e+00
         vertex -2.421981e+01 -1.009930e+01 0.000000e+00
         vertex -1.166866e+01 -8.750000e+00 0.000000e+00
      endloop
   endfacet
   facet normal 0.000000e+00 0.000000e+00 -1.000000e+00
      outer loop
         vertex -2.421981e+01 -1.409930e+01 0.000000e+00
         vertex -1.950046e+01 -3.089840e+01 0.000000e+00
         vertex -2.539538e+01 -1.371734e+01 0.000000e+00
      endloop
   endfacet
   facet normal 0.000000e+00 0.000000e+00 -1.000000e+00
      outer loop
         vertex -2.539538e+01 -1.371734e+01 0.000000e+00
         vertex -1.950046e+01 -3.089840e+01 0.000000e+00
         vertex -2.612192e+01 -1.271734e+01 0.000000e+00
      endloop
   endfacet
   facet normal 0.000000e+00 0.000000e+00 -1.000000e+00
      outer loop
         vertex -1.950046e+01 -3.089840e+01 0.000000e+00
         vertex -2.887541e+01 -9.674498e+00 0.000000e+00
         vertex -2.612192e+01 -1.271734e+01 0.000000e+00
      endloop
   endfacet
   facet normal 0.000000e+00 0.000000e+00 -1.000000e+00
      outer loop
         vertex -2.612192e+01 -1.271734e+01 0.000000e+00
         vertex -2.887541e+01 -9.674498e+00 0.000000e+00
         vertex -2.612192e+01 -1.148127e+01 0.000000e+00
      endloop
   endfacet
   facet normal 0.000000e+00 -0.000000e+00 -1.000000e+00
      outer loop
         vertex -2.887541e+01 -9.674498e+00 0.000000e+00
         vertex -2.858534e+01 -8.280273e+00 0.000000e+00
         vertex -2.612192e+01 -1.148127e+01 0.000000e+00
      endloop
   endfacet
   facet normal 0.000000e+00 0.000000e+00 -1.000000e+00
      outer loop
         vertex -2.612192e+01 -1.148127e+01 0.000000e+00
         vertex -2.858534e+01 -8.280273e+00 0.000000e+00
         vertex -2.539538e+01 -1.048127e+01 0.000000e+00
      endloop
   endfacet
   facet normal 0.000000e+00 0.000000e+00 -1.000000e+00
      outer loop
         vertex -2.858534e+01 -8.280273e+00 0.000000e+00
         vertex -2.133722e+01 9.653237e+00 0.000000e+00
         vertex -2.539538e+01 -1.048127e+01 0.000000e+00
      endloop
   endfacet
   facet normal 0.000000e+00 0.000000e+00 -1.000000e+00
      outer loop
         vertex -2.539538e+01 -1.048127e+01 0.000000e+00
         vertex -2.133722e+01 9.653237e+00 0.000000e+00
         vertex -2.421981e+01 -1.009930e+01 0.000000e+00
      endloop
   endfacet
   facet normal 0.000000e+00 0.000000e+00 -1.000000e+00
      outer loop
         vertex -2.133722e+01 9.653237e+00 0.000000e+00
         vertex -2.029905e+01 1.113246e+01 0.000000e+00
         vertex -2.421981e+01 -1.009930e+01 0.000000e+00
      endloop
   endfacet
   facet normal 0.000000e+00 -0.000000e+00 -1.000000e+00
      outer loop
         vertex -2.421981e+01 -1.009930e+01 0.000000e+00
         vertex -1.909838e+01 8.021060e+00 0.000000e+00
         vertex -1.166866e+01 -8.750000e+00 0.000000e+00
      endloop
   endfacet
   facet normal -0.000000e+00 -0.000000e+00 -1.000000e+00
      outer loop
         vertex -1.909838e+01 8.021060e+00 0.000000e+00
         vertex -1.837184e+01 7.021060e+00 0.000000e+00
         vertex -1.166866e+01 -8.750000e+00 0.000000e+00
      endloop
   endfacet
   facet normal 0.000000e+00 0.000000e+00 -1.000000e+00
      outer loop
         vertex -1.166866e+01 -8.750000e+00 0.000000e+00
         vertex -1.837184e+01 7.021060e+00 0.000000e+00
         vertex 1.720000e+01 -8.750000e+00 0.000000e+00
      endloop
   endfacet
   facet normal -0.000000e+00 -0.000000e+00 -1.000000e+00
      outer loop
         vertex -1.837184e+01 7.021060e+00 0.000000e+00
         vertex -1.719627e+01 6.639094e+00 0.000000e+00
         vertex 1.720000e+01 -8.750000e+00 0.000000e+00
      endloop
   endfacet
   facet normal 0.000000e+00 0.000000e+00 -1.000000e+00
      outer loop
         vertex 1.720000e+01 -8.750000e+00 0.000000e+00
         vertex -1.719627e+01 6.639094e+00 0.000000e+00
         vertex 1.720000e+01 8.750000e+00 0.000000e+00
      endloop
   endfacet
   facet normal 0.000000e+00 -0.000000e+00 -1.000000e+00
      outer loop
         vertex -1.719627e+01 6.639094e+00 0.000000e+00
         vertex -1.602070e+01 7.021060e+00 0.000000e+00
         vertex 1.720000e+01 8.750000e+00 0.000000e+00
      endloop
   endfacet
   facet normal 0.000000e+00 0.000000e+00 -1.000000e+00
      outer loop
         vertex 1.720000e+01 8.750000e+00 0.000000e+00
         vertex -1.602070e+01 7.021060e+00 0.000000e+00
         vertex -1.038560e+01 8.750000e+00 0.000000e+00
      endloop
   endfacet
   facet normal 0.000000e+00 -0.000000e+00 -1.000000e+00
      outer loop
         vertex -1.602070e+01 7.021060e+00 0.000000e+00
         vertex -1.529416e+01 8.021060e+00 0.000000e+00
         vertex -1.038560e+01 8.750000e+00 0.000000e+00
      endloop
   endfacet
   facet normal 0.000000e+00 0.000000e+00 -1.000000e+00
      outer loop
         vertex -1.038560e+01 8.750000e+00 0.000000e+00
         vertex -1.529416e+01 8.021060e+00 0.000000e+00
         vertex -1.163667e+01 8.950683e+00 0.000000e+00
      endloop
   endfacet
   facet normal 0.000000e+00 0.000000e+00 -1.000000e+00
      outer loop
         vertex -1.529416e+01 8.021060e+00 0.000000e+00
         vertex -1.529416e+01 9.257129e+00 0.000000e+00
         vertex -1.163667e+01 8.950683e+00 0.000000e+00
      endloop
   endfacet
   facet normal 0.000000e+00 0.000000e+00 -1.000000e+00
      outer loop
         vertex -1.163667e+01 8.950683e+00 0.000000e+00
         vertex -1.529416e+01 9.257129e+00 0.000000e+00
         vertex -1.276221e+01 9.532593e+00 0.000000e+00
      endloop
   endfacet
   facet normal 0.000000e+00 0.000000e+00 -1.000000e+00
      outer loop
         vertex -1.529416e+01 9.257129e+00 0.000000e+00
         vertex -1.602070e+01 1.025713e+01 0.000000e+00
         vertex -1.276221e+01 9.532593e+00 0.000000e+00
      endloop
   endfacet
   facet normal 0.000000e+00 0.000000e+00 -1.000000e+00
      outer loop
         vertex -1.276221e+01 9.532593e+00 0.000000e+00
         vertex -1.602070e+01 1.025713e+01 0.000000e+00
         vertex -1.525205e+01 1.137177e+01 0.000000e+00
      endloop
   endfacet
   facet normal 0.000000e+00 0.000000e+00 -1.000000e+00
      outer loop
         vertex -1.602070e+01 1.025713e+01 0.000000e+00
         vertex -1.719627e+01 1.063909e+01 0.000000e+00
         vertex -1.525205e+01 1.137177e+01 0.000000e+00
      endloop
   endfacet
   facet normal 0.000000e+00 0.000000e+00 -1.000000e+00
      outer loop
         vertex -1.525205e+01 1.137177e+01 0.000000e+00
         vertex -1.719627e+01 1.063909e+01 0.000000e+00
         vertex -1.691064e+01 1.208939e+01 0.000000e+00
      endloop
   endfacet
   facet normal 0.000000e+00 0.000000e+00 -1.000000e+00
      outer loop
         vertex -1.719627e+01 1.063909e+01 0.000000e+00
         vertex -1.837184e+01 1.025713e+01 0.000000e+00
         vertex -1.691064e+01 1.208939e+01 0.000000e+00
      endloop
   endfacet
   facet normal 0.000000e+00 0.000000e+00 -1.000000e+00
      outer loop
         vertex -1.691064e+01 1.208939e+01 0.000000e+00
         vertex -1.837184e+01 1.025713e+01 0.000000e+00
         vertex -1.871580e+01 1.200380e+01 0.000000e+00
      endloop
   endfacet
   facet normal 0.000000e+00 0.000000e+00 -1.000000e+00
      outer loop
         vertex -1.837184e+01 1.025713e+01 0.000000e+00
         vertex -1.909838e+01 9.257129e+00 0.000000e+00
         vertex -1.871580e+01 1.200380e+01 0.000000e+00
      endloop
   endfacet
   facet normal 0.000000e+00 0.000000e+00 -1.000000e+00
      outer loop
         vertex -1.871580e+01 1.200380e+01 0.000000e+00
         vertex -1.909838e+01 9.257129e+00 0.000000e+00
         vertex -2.029905e+01 1.113246e+01 0.000000e+00
      endloop
   endfacet
   facet normal 0.000000e+00 0.000000e+00 -1.000000e+00
      outer loop
         vertex -1.909838e+01 9.257129e+00 0.000000e+00
         vertex -1.909838e+01 8.021060e+00 0.000000e+00
         vertex -2.029905e+01 1.113246e+01 0.000000e+00
      endloop
   endfacet
   facet normal -0.000000e+00 0.000000e+00 -1.000000e+00
      outer loop
         vertex -2.029905e+01 1.113246e+01 0.000000e+00
         vertex -1.909838e+01 8.021060e+00 0.000000e+00
         vertex -2.421981e+01 -1.009930e+01 0.000000e+00
      endloop
   endfacet
   facet normal -0.000000e+00 0.000000e+00 1.000000e+00
      outer loop
         vertex -1.120000e+01 8.750000e+00 1.670000e+01
         vertex -1.720000e+01 8.750000e+00 1.670000e+01
         vertex -1.720000e+01 2.350000e+00 1.670000e+01
      endloop
   endfacet
   facet normal 0.000000e+00 0.000000e+00 1.000000e+00
      outer loop
         vertex -1.120000e+01 8.750000e+00 1.670000e+01
         vertex -1.720000e+01 2.350000e+00 1.670000e+01
         vertex -1.120000e+01 2.350000e+00 1.670000e+01
      endloop
   endfacet
   facet normal 9.396927e-01 0.000000e+00 -3.420200e-01
      outer loop
         vertex -1.566397e+01 8.750000e+00 1.231060e+01
         vertex -1.566397e+01 2.350000e+00 1.231060e+01
         vertex -1.605000e+01 2.350000e+00 1.125000e+01
      endloop
   endfacet
   facet normal 9.396927e-01 0.000000e+00 -3.420200e-01
      outer loop
         vertex -1.605000e+01 8.750000e+00 1.125000e+01
         vertex -1.566397e+01 8.750000e+00 1.231060e+01
         vertex -1.605000e+01 2.350000e+00 1.125000e+01
      endloop
   endfacet
   facet normal 5.000007e-01 0.000000e+00 -8.660250e-01
      outer loop
         vertex -1.468652e+01 8.750000e+00 1.287493e+01
         vertex -1.468652e+01 2.350000e+00 1.287493e+01
         vertex -1.566397e+01 2.350000e+00 1.231060e+01
      endloop
   endfacet
   facet normal 5.000007e-01 0.000000e+00 -8.660250e-01
      outer loop
         vertex -1.566397e+01 8.750000e+00 1.231060e+01
         vertex -1.468652e+01 8.750000e+00 1.287493e+01
         vertex -1.566397e+01 2.350000e+00 1.231060e+01
      endloop
   endfacet
   facet normal -1.736487e-01 0.000000e+00 -9.848077e-01
      outer loop
         vertex -1.357500e+01 8.750000e+00 1.267894e+01
         vertex -1.357500e+01 2.350000e+00 1.267894e+01
         vertex -1.468652e+01 2.350000e+00 1.287493e+01
      endloop
   endfacet
   facet normal -1.736487e-01 0.000000e+00 -9.848077e-01
      outer loop
         vertex -1.468652e+01 8.750000e+00 1.287493e+01
         vertex -1.357500e+01 8.750000e+00 1.267894e+01
         vertex -1.468652e+01 2.350000e+00 1.287493e+01
      endloop
   endfacet
   facet normal -7.660446e-01 0.000000e+00 -6.427874e-01
      outer loop
         vertex -1.284951e+01 8.750000e+00 1.181433e+01
         vertex -1.284951e+01 2.350000e+00 1.181433e+01
         vertex -1.357500e+01 2.350000e+00 1.267894e+01
      endloop
   endfacet
   facet normal -7.660446e-01 0.000000e+00 -6.427874e-01
      outer loop
         vertex -1.357500e+01 8.750000e+00 1.267894e+01
         vertex -1.284951e+01 8.750000e+00 1.181433e+01
         vertex -1.357500e+01 2.350000e+00 1.267894e+01
      endloop
   endfacet
   facet normal -1.000000e+00 0.000000e+00 0.000000e+00
      outer loop
         vertex -1.284951e+01 8.750000e+00 1.068567e+01
         vertex -1.284951e+01 2.350000e+00 1.068567e+01
         vertex -1.284951e+01 2.350000e+00 1.181433e+01
      endloop
   endfacet
   facet normal -1.000000e+00 0.000000e+00 0.000000e+00
      outer loop
         vertex -1.284951e+01 8.750000e+00 1.181433e+01
         vertex -1.284951e+01 8.750000e+00 1.068567e+01
         vertex -1.284951e+01 2.350000e+00 1.181433e+01
      endloop
   endfacet
   facet normal -7.660446e-01 0.000000e+00 6.427874e-01
      outer loop
         vertex -1.357500e+01 8.750000e+00 9.821058e+00
         vertex -1.357500e+01 2.350000e+00 9.821058e+00
         vertex -1.284951e+01 2.350000e+00 1.068567e+01
      endloop
   endfacet
   facet normal -7.660446e-01 0.000000e+00 6.427874e-01
      outer loop
         vertex -1.284951e+01 8.750000e+00 1.068567e+01
         vertex -1.357500e+01 8.750000e+00 9.821058e+00
         vertex -1.284951e+01 2.350000e+00 1.068567e+01
      endloop
   endfacet
   facet normal -1.736487e-01 0.000000e+00 9.848077e-01
      outer loop
         vertex -1.468652e+01 8.750000e+00 9.625067e+00
         vertex -1.468652e+01 2.350000e+00 9.625067e+00
         vertex -1.357500e+01 2.350000e+00 9.821058e+00
      endloop
   endfacet
   facet normal -1.736487e-01 0.000000e+00 9.848077e-01
      outer loop
         vertex -1.357500e+01 8.750000e+00 9.821058e+00
         vertex -1.468652e+01 8.750000e+00 9.625067e+00
         vertex -1.357500e+01 2.350000e+00 9.821058e+00
      endloop
   endfacet
   facet normal 5.000007e-01 -0.000000e+00 8.660250e-01
      outer loop
         vertex -1.566397e+01 8.750000e+00 1.018940e+01
         vertex -1.566397e+01 2.350000e+00 1.018940e+01
         vertex -1.468652e+01 2.350000e+00 9.625067e+00
      endloop
   endfacet
   facet normal 5.000007e-01 0.000000e+00 8.660250e-01
      outer loop
         vertex -1.468652e+01 8.750000e+00 9.625067e+00
         vertex -1.566397e+01 8.750000e+00 1.018940e+01
         vertex -1.468652e+01 2.350000e+00 9.625067e+00
      endloop
   endfacet
   facet normal 9.396927e-01 -0.000000e+00 3.420200e-01
      outer loop
         vertex -1.605000e+01 8.750000e+00 1.125000e+01
         vertex -1.605000e+01 2.350000e+00 1.125000e+01
         vertex -1.566397e+01 2.350000e+00 1.018940e+01
      endloop
   endfacet
   facet normal 9.396927e-01 0.000000e+00 3.420200e-01
      outer loop
         vertex -1.566397e+01 8.750000e+00 1.018940e+01
         vertex -1.605000e+01 8.750000e+00 1.125000e+01
         vertex -1.566397e+01 2.350000e+00 1.018940e+01
      endloop
   endfacet
   facet normal 0.000000e+00 0.000000e+00 1.000000e+00
      outer loop
         vertex 1.120000e+01 8.750000e+00 1.670000e+01
         vertex 1.120000e+01 2.350000e+00 1.670000e+01
         vertex 1.720000e+01 2.350000e+00 1.670000e+01
      endloop
   endfacet
   facet normal 0.000000e+00 -0.000000e+00 1.000000e+00
      outer loop
         vertex 1.120000e+01 8.750000e+00 1.670000e+01
         vertex 1.720000e+01 2.350000e+00 1.670000e+01
         vertex 1.720000e+01 8.750000e+00 1.670000e+01
      endloop
   endfacet
   facet normal 9.396928e-01 0.000000e+00 -3.420197e-01
      outer loop
         vertex 1.313603e+01 8.750000e+00 1.221060e+01
         vertex 1.313603e+01 2.350000e+00 1.221060e+01
         vertex 1.275000e+01 2.350000e+00 1.115000e+01
      endloop
   endfacet
   facet normal 9.396928e-01 0.000000e+00 -3.420197e-01
      outer loop
         vertex 1.275000e+01 8.750000e+00 1.115000e+01
         vertex 1.313603e+01 8.750000e+00 1.221060e+01
         vertex 1.275000e+01 2.350000e+00 1.115000e+01
      endloop
   endfacet
   facet normal 4.999997e-01 0.000000e+00 -8.660256e-01
      outer loop
         vertex 1.411348e+01 8.750000e+00 1.277493e+01
         vertex 1.411348e+01 2.350000e+00 1.277493e+01
         vertex 1.313603e+01 2.350000e+00 1.221060e+01
      endloop
   endfacet
   facet normal 4.999997e-01 0.000000e+00 -8.660256e-01
      outer loop
         vertex 1.313603e+01 8.750000e+00 1.221060e+01
         vertex 1.411348e+01 8.750000e+00 1.277493e+01
         vertex 1.313603e+01 2.350000e+00 1.221060e+01
      endloop
   endfacet
   facet normal -1.736479e-01 0.000000e+00 -9.848078e-01
      outer loop
         vertex 1.522500e+01 8.750000e+00 1.257894e+01
         vertex 1.522500e+01 2.350000e+00 1.257894e+01
         vertex 1.411348e+01 2.350000e+00 1.277493e+01
      endloop
   endfacet
   facet normal -1.736479e-01 0.000000e+00 -9.848078e-01
      outer loop
         vertex 1.411348e+01 8.750000e+00 1.277493e+01
         vertex 1.522500e+01 8.750000e+00 1.257894e+01
         vertex 1.411348e+01 2.350000e+00 1.277493e+01
      endloop
   endfacet
   facet normal -7.660446e-01 0.000000e+00 -6.427874e-01
      outer loop
         vertex 1.595049e+01 8.750000e+00 1.171433e+01
         vertex 1.595049e+01 2.350000e+00 1.171433e+01
         vertex 1.522500e+01 2.350000e+00 1.257894e+01
      endloop
   endfacet
   facet normal -7.660446e-01 0.000000e+00 -6.427874e-01
      outer loop
         vertex 1.522500e+01 8.750000e+00 1.257894e+01
         vertex 1.595049e+01 8.750000e+00 1.171433e+01
         vertex 1.522500e+01 2.350000e+00 1.257894e+01
      endloop
   endfacet
   facet normal -1.000000e+00 0.000000e+00 0.000000e+00
      outer loop
         vertex 1.595049e+01 8.750000e+00 1.058567e+01
         vertex 1.595049e+01 2.350000e+00 1.058567e+01
         vertex 1.595049e+01 2.350000e+00 1.171433e+01
      endloop
   endfacet
   facet normal -1.000000e+00 0.000000e+00 0.000000e+00
      outer loop
         vertex 1.595049e+01 8.750000e+00 1.171433e+01
         vertex 1.595049e+01 8.750000e+00 1.058567e+01
         vertex 1.595049e+01 2.350000e+00 1.171433e+01
      endloop
   endfacet
   facet normal -7.660446e-01 0.000000e+00 6.427874e-01
      outer loop
         vertex 1.522500e+01 8.750000e+00 9.721058e+00
         vertex 1.522500e+01 2.350000e+00 9.721058e+00
         vertex 1.595049e+01 2.350000e+00 1.058567e+01
      endloop
   endfacet
   facet normal -7.660446e-01 0.000000e+00 6.427874e-01
      outer loop
         vertex 1.595049e+01 8.750000e+00 1.058567e+01
         vertex 1.522500e+01 8.750000e+00 9.721058e+00
         vertex 1.595049e+01 2.350000e+00 1.058567e+01
      endloop
   endfacet
   facet normal -1.736479e-01 0.000000e+00 9.848078e-01
      outer loop
         vertex 1.411348e+01 8.750000e+00 9.525067e+00
         vertex 1.411348e+01 2.350000e+00 9.525067e+00
         vertex 1.522500e+01 2.350000e+00 9.721058e+00
      endloop
   endfacet
   facet normal -1.736479e-01 0.000000e+00 9.848078e-01
      outer loop
         vertex 1.522500e+01 8.750000e+00 9.721058e+00
         vertex 1.411348e+01 8.750000e+00 9.525067e+00
         vertex 1.522500e+01 2.350000e+00 9.721058e+00
      endloop
   endfacet
   facet normal 4.999997e-01 -0.000000e+00 8.660256e-01
      outer loop
         vertex 1.313603e+01 8.750000e+00 1.008940e+01
         vertex 1.313603e+01 2.350000e+00 1.008940e+01
         vertex 1.411348e+01 2.350000e+00 9.525067e+00
      endloop
   endfacet
   facet normal 4.999997e-01 0.000000e+00 8.660256e-01
      outer loop
         vertex 1.411348e+01 8.750000e+00 9.525067e+00
         vertex 1.313603e+01 8.750000e+00 1.008940e+01
         vertex 1.411348e+01 2.350000e+00 9.525067e+00
      endloop
   endfacet
   facet normal 9.396927e-01 -0.000000e+00 3.420200e-01
      outer loop
         vertex 1.275000e+01 8.750000e+00 1.115000e+01
         vertex 1.275000e+01 2.350000e+00 1.115000e+01
         vertex 1.313603e+01 2.350000e+00 1.008940e+01
      endloop
   endfacet
   facet normal 9.396927e-01 0.000000e+00 3.420200e-01
      outer loop
         vertex 1.313603e+01 8.750000e+00 1.008940e+01
         vertex 1.275000e+01 8.750000e+00 1.115000e+01
         vertex 1.313603e+01 2.350000e+00 1.008940e+01
      endloop
   endfacet
endsolid
