ISO-10303-21;
HEADER;
/* Generated by software containing ST-Developer
 * from STEP Tools, Inc. (www.steptools.com) 
 */

FILE_DESCRIPTION(
/* description */ (''),
/* implementation_level */ '2;1');

FILE_NAME(
/* name */ '',
/* time_stamp */ '2025-09-18T16:51:00+03:00',
/* author */ ('I9232'),
/* organization */ (''),
/* preprocessor_version */ 'ST-DEVELOPER v19.2',
/* originating_system */ 'Autodesk Inventor 2023',
/* authorisation */ '');

FILE_SCHEMA (('AUTOMOTIVE_DESIGN { 1 0 10303 214 3 1 1 }'));
ENDSEC;

DATA;
#10=MECHANICAL_DESIGN_GEOMETRIC_PRESENTATION_REPRESENTATION('',(#13),#830);
#11=SHAPE_REPRESENTATION_RELATIONSHIP('SRR','None',#837,#12);
#12=ADVANCED_BREP_SHAPE_REPRESENTATION('',(#14),#829);
#13=STYLED_ITEM('',(#846),#14);
#14=MANIFOLD_SOLID_BREP('\X2\04220432043504400434043E0435\X0\ \X2\04420435043B043E\X0\5',
#489);
#15=CYLINDRICAL_SURFACE('',#538,2.05);
#16=CYLINDRICAL_SURFACE('',#539,2.05);
#17=CYLINDRICAL_SURFACE('',#540,2.);
#18=CYLINDRICAL_SURFACE('',#542,2.);
#19=CYLINDRICAL_SURFACE('',#546,2.55);
#20=CYLINDRICAL_SURFACE('',#548,2.55);
#21=ELLIPSE('',#518,2.00390244273517,2.);
#22=ELLIPSE('',#519,2.00390244273517,2.);
#23=ELLIPSE('',#524,2.92099736574407,2.);
#24=ELLIPSE('',#526,32.0624390837628,2.);
#25=ELLIPSE('',#528,2.00390244273517,2.);
#26=ELLIPSE('',#529,2.00390244273517,2.);
#27=ELLIPSE('',#543,32.0624390837628,2.);
#28=ELLIPSE('',#544,2.92099736574407,2.);
#29=FACE_BOUND('',#71,.T.);
#30=FACE_BOUND('',#72,.T.);
#31=FACE_BOUND('',#75,.T.);
#32=FACE_BOUND('',#76,.T.);
#33=FACE_BOUND('',#81,.T.);
#34=FACE_BOUND('',#82,.T.);
#35=CIRCLE('',#514,2.05);
#36=CIRCLE('',#515,2.05);
#37=CIRCLE('',#520,2.55);
#38=CIRCLE('',#521,2.55);
#39=CIRCLE('',#530,2.05);
#40=CIRCLE('',#531,2.05);
#41=CIRCLE('',#547,2.55);
#42=CIRCLE('',#549,2.55);
#43=FACE_OUTER_BOUND('',#69,.T.);
#44=FACE_OUTER_BOUND('',#70,.T.);
#45=FACE_OUTER_BOUND('',#73,.T.);
#46=FACE_OUTER_BOUND('',#74,.T.);
#47=FACE_OUTER_BOUND('',#77,.T.);
#48=FACE_OUTER_BOUND('',#78,.T.);
#49=FACE_OUTER_BOUND('',#79,.T.);
#50=FACE_OUTER_BOUND('',#80,.T.);
#51=FACE_OUTER_BOUND('',#83,.T.);
#52=FACE_OUTER_BOUND('',#84,.T.);
#53=FACE_OUTER_BOUND('',#85,.T.);
#54=FACE_OUTER_BOUND('',#86,.T.);
#55=FACE_OUTER_BOUND('',#87,.T.);
#56=FACE_OUTER_BOUND('',#88,.T.);
#57=FACE_OUTER_BOUND('',#89,.T.);
#58=FACE_OUTER_BOUND('',#90,.T.);
#59=FACE_OUTER_BOUND('',#91,.T.);
#60=FACE_OUTER_BOUND('',#92,.T.);
#61=FACE_OUTER_BOUND('',#93,.T.);
#62=FACE_OUTER_BOUND('',#94,.T.);
#63=FACE_OUTER_BOUND('',#95,.T.);
#64=FACE_OUTER_BOUND('',#96,.T.);
#65=FACE_OUTER_BOUND('',#97,.T.);
#66=FACE_OUTER_BOUND('',#98,.T.);
#67=FACE_OUTER_BOUND('',#99,.T.);
#68=FACE_OUTER_BOUND('',#100,.T.);
#69=EDGE_LOOP('',(#311,#312,#313,#314,#315,#316,#317,#318));
#70=EDGE_LOOP('',(#319,#320,#321,#322,#323,#324,#325,#326));
#71=EDGE_LOOP('',(#327));
#72=EDGE_LOOP('',(#328));
#73=EDGE_LOOP('',(#329,#330,#331,#332));
#74=EDGE_LOOP('',(#333,#334,#335,#336,#337,#338,#339,#340,#341,#342));
#75=EDGE_LOOP('',(#343));
#76=EDGE_LOOP('',(#344));
#77=EDGE_LOOP('',(#345,#346,#347,#348));
#78=EDGE_LOOP('',(#349,#350,#351,#352));
#79=EDGE_LOOP('',(#353,#354,#355,#356));
#80=EDGE_LOOP('',(#357,#358,#359,#360,#361,#362,#363,#364,#365,#366));
#81=EDGE_LOOP('',(#367));
#82=EDGE_LOOP('',(#368));
#83=EDGE_LOOP('',(#369,#370,#371,#372));
#84=EDGE_LOOP('',(#373,#374,#375,#376));
#85=EDGE_LOOP('',(#377,#378,#379,#380));
#86=EDGE_LOOP('',(#381,#382,#383,#384,#385,#386,#387,#388));
#87=EDGE_LOOP('',(#389,#390,#391,#392));
#88=EDGE_LOOP('',(#393,#394,#395,#396));
#89=EDGE_LOOP('',(#397,#398,#399,#400));
#90=EDGE_LOOP('',(#401,#402,#403,#404));
#91=EDGE_LOOP('',(#405,#406,#407,#408,#409,#410));
#92=EDGE_LOOP('',(#411,#412,#413,#414));
#93=EDGE_LOOP('',(#415,#416,#417,#418,#419,#420));
#94=EDGE_LOOP('',(#421,#422,#423,#424));
#95=EDGE_LOOP('',(#425,#426,#427,#428));
#96=EDGE_LOOP('',(#429,#430,#431,#432));
#97=EDGE_LOOP('',(#433,#434,#435,#436));
#98=EDGE_LOOP('',(#437,#438,#439,#440));
#99=EDGE_LOOP('',(#441));
#100=EDGE_LOOP('',(#442));
#101=LINE('',#694,#151);
#102=LINE('',#696,#152);
#103=LINE('',#698,#153);
#104=LINE('',#700,#154);
#105=LINE('',#702,#155);
#106=LINE('',#704,#156);
#107=LINE('',#706,#157);
#108=LINE('',#707,#158);
#109=LINE('',#710,#159);
#110=LINE('',#712,#160);
#111=LINE('',#714,#161);
#112=LINE('',#716,#162);
#113=LINE('',#718,#163);
#114=LINE('',#720,#164);
#115=LINE('',#721,#165);
#116=LINE('',#728,#166);
#117=LINE('',#729,#167);
#118=LINE('',#732,#168);
#119=LINE('',#736,#169);
#120=LINE('',#740,#170);
#121=LINE('',#742,#171);
#122=LINE('',#744,#172);
#123=LINE('',#745,#173);
#124=LINE('',#752,#174);
#125=LINE('',#753,#175);
#126=LINE('',#756,#176);
#127=LINE('',#760,#177);
#128=LINE('',#764,#178);
#129=LINE('',#766,#179);
#130=LINE('',#768,#180);
#131=LINE('',#770,#181);
#132=LINE('',#772,#182);
#133=LINE('',#776,#183);
#134=LINE('',#783,#184);
#135=LINE('',#785,#185);
#136=LINE('',#787,#186);
#137=LINE('',#790,#187);
#138=LINE('',#792,#188);
#139=LINE('',#793,#189);
#140=LINE('',#794,#190);
#141=LINE('',#796,#191);
#142=LINE('',#799,#192);
#143=LINE('',#801,#193);
#144=LINE('',#803,#194);
#145=LINE('',#805,#195);
#146=LINE('',#811,#196);
#147=LINE('',#813,#197);
#148=LINE('',#816,#198);
#149=LINE('',#820,#199);
#150=LINE('',#823,#200);
#151=VECTOR('',#558,10.);
#152=VECTOR('',#559,10.);
#153=VECTOR('',#560,10.);
#154=VECTOR('',#561,10.);
#155=VECTOR('',#562,10.);
#156=VECTOR('',#563,10.);
#157=VECTOR('',#564,10.);
#158=VECTOR('',#565,10.);
#159=VECTOR('',#568,10.);
#160=VECTOR('',#569,10.);
#161=VECTOR('',#570,10.);
#162=VECTOR('',#571,10.);
#163=VECTOR('',#572,10.);
#164=VECTOR('',#573,10.);
#165=VECTOR('',#574,10.);
#166=VECTOR('',#581,10.);
#167=VECTOR('',#582,10.);
#168=VECTOR('',#585,10.);
#169=VECTOR('',#588,10.);
#170=VECTOR('',#591,10.);
#171=VECTOR('',#592,10.);
#172=VECTOR('',#593,10.);
#173=VECTOR('',#594,10.);
#174=VECTOR('',#601,10.);
#175=VECTOR('',#602,10.);
#176=VECTOR('',#605,10.);
#177=VECTOR('',#610,10.);
#178=VECTOR('',#615,10.);
#179=VECTOR('',#616,10.);
#180=VECTOR('',#617,10.);
#181=VECTOR('',#618,10.);
#182=VECTOR('',#619,10.);
#183=VECTOR('',#622,10.);
#184=VECTOR('',#631,10.);
#185=VECTOR('',#634,10.);
#186=VECTOR('',#637,10.);
#187=VECTOR('',#640,10.);
#188=VECTOR('',#641,10.);
#189=VECTOR('',#642,10.);
#190=VECTOR('',#643,10.);
#191=VECTOR('',#646,10.);
#192=VECTOR('',#651,2.05);
#193=VECTOR('',#654,2.05);
#194=VECTOR('',#657,10.);
#195=VECTOR('',#660,10.);
#196=VECTOR('',#667,10.);
#197=VECTOR('',#670,10.);
#198=VECTOR('',#673,2.55);
#199=VECTOR('',#678,2.55);
#200=VECTOR('',#683,10.);
#201=VERTEX_POINT('',#692);
#202=VERTEX_POINT('',#693);
#203=VERTEX_POINT('',#695);
#204=VERTEX_POINT('',#697);
#205=VERTEX_POINT('',#699);
#206=VERTEX_POINT('',#701);
#207=VERTEX_POINT('',#703);
#208=VERTEX_POINT('',#705);
#209=VERTEX_POINT('',#709);
#210=VERTEX_POINT('',#711);
#211=VERTEX_POINT('',#713);
#212=VERTEX_POINT('',#715);
#213=VERTEX_POINT('',#717);
#214=VERTEX_POINT('',#719);
#215=VERTEX_POINT('',#722);
#216=VERTEX_POINT('',#724);
#217=VERTEX_POINT('',#727);
#218=VERTEX_POINT('',#731);
#219=VERTEX_POINT('',#733);
#220=VERTEX_POINT('',#735);
#221=VERTEX_POINT('',#737);
#222=VERTEX_POINT('',#739);
#223=VERTEX_POINT('',#741);
#224=VERTEX_POINT('',#743);
#225=VERTEX_POINT('',#746);
#226=VERTEX_POINT('',#748);
#227=VERTEX_POINT('',#751);
#228=VERTEX_POINT('',#755);
#229=VERTEX_POINT('',#759);
#230=VERTEX_POINT('',#763);
#231=VERTEX_POINT('',#765);
#232=VERTEX_POINT('',#767);
#233=VERTEX_POINT('',#769);
#234=VERTEX_POINT('',#771);
#235=VERTEX_POINT('',#773);
#236=VERTEX_POINT('',#775);
#237=VERTEX_POINT('',#778);
#238=VERTEX_POINT('',#780);
#239=VERTEX_POINT('',#789);
#240=VERTEX_POINT('',#791);
#241=VERTEX_POINT('',#807);
#242=VERTEX_POINT('',#809);
#243=VERTEX_POINT('',#815);
#244=VERTEX_POINT('',#819);
#245=EDGE_CURVE('',#201,#202,#101,.T.);
#246=EDGE_CURVE('',#201,#203,#102,.T.);
#247=EDGE_CURVE('',#204,#203,#103,.T.);
#248=EDGE_CURVE('',#205,#204,#104,.T.);
#249=EDGE_CURVE('',#206,#205,#105,.T.);
#250=EDGE_CURVE('',#207,#206,#106,.T.);
#251=EDGE_CURVE('',#208,#207,#107,.T.);
#252=EDGE_CURVE('',#202,#208,#108,.T.);
#253=EDGE_CURVE('',#209,#202,#109,.F.);
#254=EDGE_CURVE('',#209,#210,#110,.T.);
#255=EDGE_CURVE('',#210,#211,#111,.F.);
#256=EDGE_CURVE('',#211,#212,#112,.T.);
#257=EDGE_CURVE('',#212,#213,#113,.T.);
#258=EDGE_CURVE('',#213,#214,#114,.T.);
#259=EDGE_CURVE('',#214,#201,#115,.T.);
#260=EDGE_CURVE('',#215,#215,#35,.T.);
#261=EDGE_CURVE('',#216,#216,#36,.T.);
#262=EDGE_CURVE('',#217,#208,#116,.T.);
#263=EDGE_CURVE('',#217,#209,#117,.T.);
#264=EDGE_CURVE('',#218,#207,#118,.T.);
#265=EDGE_CURVE('',#219,#218,#21,.T.);
#266=EDGE_CURVE('',#220,#219,#119,.T.);
#267=EDGE_CURVE('',#221,#220,#22,.T.);
#268=EDGE_CURVE('',#221,#222,#120,.T.);
#269=EDGE_CURVE('',#222,#223,#121,.T.);
#270=EDGE_CURVE('',#223,#224,#122,.T.);
#271=EDGE_CURVE('',#224,#217,#123,.T.);
#272=EDGE_CURVE('',#225,#225,#37,.T.);
#273=EDGE_CURVE('',#226,#226,#38,.T.);
#274=EDGE_CURVE('',#227,#206,#124,.T.);
#275=EDGE_CURVE('',#218,#227,#125,.T.);
#276=EDGE_CURVE('',#205,#228,#126,.T.);
#277=EDGE_CURVE('',#227,#228,#23,.T.);
#278=EDGE_CURVE('',#204,#229,#127,.T.);
#279=EDGE_CURVE('',#228,#229,#24,.T.);
#280=EDGE_CURVE('',#203,#230,#128,.T.);
#281=EDGE_CURVE('',#230,#231,#129,.T.);
#282=EDGE_CURVE('',#231,#232,#130,.T.);
#283=EDGE_CURVE('',#232,#233,#131,.T.);
#284=EDGE_CURVE('',#234,#233,#132,.T.);
#285=EDGE_CURVE('',#235,#234,#25,.T.);
#286=EDGE_CURVE('',#236,#235,#133,.T.);
#287=EDGE_CURVE('',#229,#236,#26,.T.);
#288=EDGE_CURVE('',#237,#237,#39,.T.);
#289=EDGE_CURVE('',#238,#238,#40,.T.);
#290=EDGE_CURVE('',#214,#230,#134,.T.);
#291=EDGE_CURVE('',#210,#224,#135,.T.);
#292=EDGE_CURVE('',#223,#211,#136,.T.);
#293=EDGE_CURVE('',#239,#222,#137,.T.);
#294=EDGE_CURVE('',#240,#239,#138,.T.);
#295=EDGE_CURVE('',#233,#240,#139,.T.);
#296=EDGE_CURVE('',#212,#232,#140,.T.);
#297=EDGE_CURVE('',#213,#231,#141,.T.);
#298=EDGE_CURVE('',#238,#215,#142,.T.);
#299=EDGE_CURVE('',#237,#216,#143,.T.);
#300=EDGE_CURVE('',#236,#219,#144,.T.);
#301=EDGE_CURVE('',#220,#235,#145,.T.);
#302=EDGE_CURVE('',#234,#241,#27,.T.);
#303=EDGE_CURVE('',#241,#242,#28,.T.);
#304=EDGE_CURVE('',#242,#221,#146,.T.);
#305=EDGE_CURVE('',#239,#242,#147,.T.);
#306=EDGE_CURVE('',#225,#243,#148,.T.);
#307=EDGE_CURVE('',#243,#243,#41,.T.);
#308=EDGE_CURVE('',#226,#244,#149,.T.);
#309=EDGE_CURVE('',#244,#244,#42,.T.);
#310=EDGE_CURVE('',#241,#240,#150,.T.);
#311=ORIENTED_EDGE('',*,*,#245,.F.);
#312=ORIENTED_EDGE('',*,*,#246,.T.);
#313=ORIENTED_EDGE('',*,*,#247,.F.);
#314=ORIENTED_EDGE('',*,*,#248,.F.);
#315=ORIENTED_EDGE('',*,*,#249,.F.);
#316=ORIENTED_EDGE('',*,*,#250,.F.);
#317=ORIENTED_EDGE('',*,*,#251,.F.);
#318=ORIENTED_EDGE('',*,*,#252,.F.);
#319=ORIENTED_EDGE('',*,*,#245,.T.);
#320=ORIENTED_EDGE('',*,*,#253,.F.);
#321=ORIENTED_EDGE('',*,*,#254,.T.);
#322=ORIENTED_EDGE('',*,*,#255,.T.);
#323=ORIENTED_EDGE('',*,*,#256,.T.);
#324=ORIENTED_EDGE('',*,*,#257,.T.);
#325=ORIENTED_EDGE('',*,*,#258,.T.);
#326=ORIENTED_EDGE('',*,*,#259,.T.);
#327=ORIENTED_EDGE('',*,*,#260,.T.);
#328=ORIENTED_EDGE('',*,*,#261,.T.);
#329=ORIENTED_EDGE('',*,*,#252,.T.);
#330=ORIENTED_EDGE('',*,*,#262,.F.);
#331=ORIENTED_EDGE('',*,*,#263,.T.);
#332=ORIENTED_EDGE('',*,*,#253,.T.);
#333=ORIENTED_EDGE('',*,*,#251,.T.);
#334=ORIENTED_EDGE('',*,*,#264,.F.);
#335=ORIENTED_EDGE('',*,*,#265,.F.);
#336=ORIENTED_EDGE('',*,*,#266,.F.);
#337=ORIENTED_EDGE('',*,*,#267,.F.);
#338=ORIENTED_EDGE('',*,*,#268,.T.);
#339=ORIENTED_EDGE('',*,*,#269,.T.);
#340=ORIENTED_EDGE('',*,*,#270,.T.);
#341=ORIENTED_EDGE('',*,*,#271,.T.);
#342=ORIENTED_EDGE('',*,*,#262,.T.);
#343=ORIENTED_EDGE('',*,*,#272,.T.);
#344=ORIENTED_EDGE('',*,*,#273,.T.);
#345=ORIENTED_EDGE('',*,*,#250,.T.);
#346=ORIENTED_EDGE('',*,*,#274,.F.);
#347=ORIENTED_EDGE('',*,*,#275,.F.);
#348=ORIENTED_EDGE('',*,*,#264,.T.);
#349=ORIENTED_EDGE('',*,*,#249,.T.);
#350=ORIENTED_EDGE('',*,*,#276,.T.);
#351=ORIENTED_EDGE('',*,*,#277,.F.);
#352=ORIENTED_EDGE('',*,*,#274,.T.);
#353=ORIENTED_EDGE('',*,*,#248,.T.);
#354=ORIENTED_EDGE('',*,*,#278,.T.);
#355=ORIENTED_EDGE('',*,*,#279,.F.);
#356=ORIENTED_EDGE('',*,*,#276,.F.);
#357=ORIENTED_EDGE('',*,*,#247,.T.);
#358=ORIENTED_EDGE('',*,*,#280,.T.);
#359=ORIENTED_EDGE('',*,*,#281,.T.);
#360=ORIENTED_EDGE('',*,*,#282,.T.);
#361=ORIENTED_EDGE('',*,*,#283,.T.);
#362=ORIENTED_EDGE('',*,*,#284,.F.);
#363=ORIENTED_EDGE('',*,*,#285,.F.);
#364=ORIENTED_EDGE('',*,*,#286,.F.);
#365=ORIENTED_EDGE('',*,*,#287,.F.);
#366=ORIENTED_EDGE('',*,*,#278,.F.);
#367=ORIENTED_EDGE('',*,*,#288,.T.);
#368=ORIENTED_EDGE('',*,*,#289,.T.);
#369=ORIENTED_EDGE('',*,*,#259,.F.);
#370=ORIENTED_EDGE('',*,*,#290,.T.);
#371=ORIENTED_EDGE('',*,*,#280,.F.);
#372=ORIENTED_EDGE('',*,*,#246,.F.);
#373=ORIENTED_EDGE('',*,*,#254,.F.);
#374=ORIENTED_EDGE('',*,*,#263,.F.);
#375=ORIENTED_EDGE('',*,*,#271,.F.);
#376=ORIENTED_EDGE('',*,*,#291,.F.);
#377=ORIENTED_EDGE('',*,*,#292,.T.);
#378=ORIENTED_EDGE('',*,*,#255,.F.);
#379=ORIENTED_EDGE('',*,*,#291,.T.);
#380=ORIENTED_EDGE('',*,*,#270,.F.);
#381=ORIENTED_EDGE('',*,*,#256,.F.);
#382=ORIENTED_EDGE('',*,*,#292,.F.);
#383=ORIENTED_EDGE('',*,*,#269,.F.);
#384=ORIENTED_EDGE('',*,*,#293,.F.);
#385=ORIENTED_EDGE('',*,*,#294,.F.);
#386=ORIENTED_EDGE('',*,*,#295,.F.);
#387=ORIENTED_EDGE('',*,*,#283,.F.);
#388=ORIENTED_EDGE('',*,*,#296,.F.);
#389=ORIENTED_EDGE('',*,*,#257,.F.);
#390=ORIENTED_EDGE('',*,*,#296,.T.);
#391=ORIENTED_EDGE('',*,*,#282,.F.);
#392=ORIENTED_EDGE('',*,*,#297,.F.);
#393=ORIENTED_EDGE('',*,*,#258,.F.);
#394=ORIENTED_EDGE('',*,*,#297,.T.);
#395=ORIENTED_EDGE('',*,*,#281,.F.);
#396=ORIENTED_EDGE('',*,*,#290,.F.);
#397=ORIENTED_EDGE('',*,*,#289,.F.);
#398=ORIENTED_EDGE('',*,*,#298,.T.);
#399=ORIENTED_EDGE('',*,*,#260,.F.);
#400=ORIENTED_EDGE('',*,*,#298,.F.);
#401=ORIENTED_EDGE('',*,*,#288,.F.);
#402=ORIENTED_EDGE('',*,*,#299,.T.);
#403=ORIENTED_EDGE('',*,*,#261,.F.);
#404=ORIENTED_EDGE('',*,*,#299,.F.);
#405=ORIENTED_EDGE('',*,*,#287,.T.);
#406=ORIENTED_EDGE('',*,*,#300,.T.);
#407=ORIENTED_EDGE('',*,*,#265,.T.);
#408=ORIENTED_EDGE('',*,*,#275,.T.);
#409=ORIENTED_EDGE('',*,*,#277,.T.);
#410=ORIENTED_EDGE('',*,*,#279,.T.);
#411=ORIENTED_EDGE('',*,*,#300,.F.);
#412=ORIENTED_EDGE('',*,*,#286,.T.);
#413=ORIENTED_EDGE('',*,*,#301,.F.);
#414=ORIENTED_EDGE('',*,*,#266,.T.);
#415=ORIENTED_EDGE('',*,*,#267,.T.);
#416=ORIENTED_EDGE('',*,*,#301,.T.);
#417=ORIENTED_EDGE('',*,*,#285,.T.);
#418=ORIENTED_EDGE('',*,*,#302,.T.);
#419=ORIENTED_EDGE('',*,*,#303,.T.);
#420=ORIENTED_EDGE('',*,*,#304,.T.);
#421=ORIENTED_EDGE('',*,*,#293,.T.);
#422=ORIENTED_EDGE('',*,*,#268,.F.);
#423=ORIENTED_EDGE('',*,*,#304,.F.);
#424=ORIENTED_EDGE('',*,*,#305,.F.);
#425=ORIENTED_EDGE('',*,*,#272,.F.);
#426=ORIENTED_EDGE('',*,*,#306,.T.);
#427=ORIENTED_EDGE('',*,*,#307,.T.);
#428=ORIENTED_EDGE('',*,*,#306,.F.);
#429=ORIENTED_EDGE('',*,*,#273,.F.);
#430=ORIENTED_EDGE('',*,*,#308,.T.);
#431=ORIENTED_EDGE('',*,*,#309,.T.);
#432=ORIENTED_EDGE('',*,*,#308,.F.);
#433=ORIENTED_EDGE('',*,*,#295,.T.);
#434=ORIENTED_EDGE('',*,*,#310,.F.);
#435=ORIENTED_EDGE('',*,*,#302,.F.);
#436=ORIENTED_EDGE('',*,*,#284,.T.);
#437=ORIENTED_EDGE('',*,*,#294,.T.);
#438=ORIENTED_EDGE('',*,*,#305,.T.);
#439=ORIENTED_EDGE('',*,*,#303,.F.);
#440=ORIENTED_EDGE('',*,*,#310,.T.);
#441=ORIENTED_EDGE('',*,*,#307,.F.);
#442=ORIENTED_EDGE('',*,*,#309,.F.);
#443=PLANE('',#512);
#444=PLANE('',#513);
#445=PLANE('',#516);
#446=PLANE('',#517);
#447=PLANE('',#522);
#448=PLANE('',#523);
#449=PLANE('',#525);
#450=PLANE('',#527);
#451=PLANE('',#532);
#452=PLANE('',#533);
#453=PLANE('',#534);
#454=PLANE('',#535);
#455=PLANE('',#536);
#456=PLANE('',#537);
#457=PLANE('',#541);
#458=PLANE('',#545);
#459=PLANE('',#550);
#460=PLANE('',#551);
#461=PLANE('',#552);
#462=PLANE('',#553);
#463=ADVANCED_FACE('',(#43),#443,.T.);
#464=ADVANCED_FACE('',(#44,#29,#30),#444,.F.);
#465=ADVANCED_FACE('',(#45),#445,.F.);
#466=ADVANCED_FACE('',(#46,#31,#32),#446,.T.);
#467=ADVANCED_FACE('',(#47),#447,.T.);
#468=ADVANCED_FACE('',(#48),#448,.T.);
#469=ADVANCED_FACE('',(#49),#449,.T.);
#470=ADVANCED_FACE('',(#50,#33,#34),#450,.F.);
#471=ADVANCED_FACE('',(#51),#451,.T.);
#472=ADVANCED_FACE('',(#52),#452,.F.);
#473=ADVANCED_FACE('',(#53),#453,.F.);
#474=ADVANCED_FACE('',(#54),#454,.T.);
#475=ADVANCED_FACE('',(#55),#455,.T.);
#476=ADVANCED_FACE('',(#56),#456,.T.);
#477=ADVANCED_FACE('',(#57),#15,.F.);
#478=ADVANCED_FACE('',(#58),#16,.F.);
#479=ADVANCED_FACE('',(#59),#17,.T.);
#480=ADVANCED_FACE('',(#60),#457,.T.);
#481=ADVANCED_FACE('',(#61),#18,.T.);
#482=ADVANCED_FACE('',(#62),#458,.T.);
#483=ADVANCED_FACE('',(#63),#19,.F.);
#484=ADVANCED_FACE('',(#64),#20,.F.);
#485=ADVANCED_FACE('',(#65),#459,.T.);
#486=ADVANCED_FACE('',(#66),#460,.T.);
#487=ADVANCED_FACE('',(#67),#461,.T.);
#488=ADVANCED_FACE('',(#68),#462,.T.);
#489=CLOSED_SHELL('',(#463,#464,#465,#466,#467,#468,#469,#470,#471,#472,
#473,#474,#475,#476,#477,#478,#479,#480,#481,#482,#483,#484,#485,#486,#487,
#488));
#490=DERIVED_UNIT_ELEMENT(#493,1.);
#491=DERIVED_UNIT_ELEMENT(#832,-3.);
#492=DIMENSIONAL_EXPONENTS(0.,1.,0.,0.,0.,0.,0.);
#493=(
CONVERSION_BASED_UNIT('gram',#495)
MASS_UNIT()
NAMED_UNIT(#492)
);
#494=(
MASS_UNIT()
NAMED_UNIT(*)
SI_UNIT(.KILO.,.GRAM.)
);
#495=MASS_MEASURE_WITH_UNIT(MASS_MEASURE(0.001),#494);
#496=DERIVED_UNIT((#490,#491));
#497=MEASURE_REPRESENTATION_ITEM('density measure',
POSITIVE_RATIO_MEASURE(1.),#496);
#498=PROPERTY_DEFINITION_REPRESENTATION(#503,#500);
#499=PROPERTY_DEFINITION_REPRESENTATION(#504,#501);
#500=REPRESENTATION('material name',(#502),#829);
#501=REPRESENTATION('density',(#497),#829);
#502=DESCRIPTIVE_REPRESENTATION_ITEM('\X2\04220438043F043E0432044B0435\X0\',
'\X2\04220438043F043E0432044B0435\X0\');
#503=PROPERTY_DEFINITION('material property','material name',#839);
#504=PROPERTY_DEFINITION('material property','density of part',#839);
#505=DATE_TIME_ROLE('creation_date');
#506=APPLIED_DATE_AND_TIME_ASSIGNMENT(#507,#505,(#839));
#507=DATE_AND_TIME(#508,#509);
#508=CALENDAR_DATE(2025,17,9);
#509=LOCAL_TIME(0,0,0.,#510);
#510=COORDINATED_UNIVERSAL_TIME_OFFSET(0,0,.BEHIND.);
#511=AXIS2_PLACEMENT_3D('',#690,#554,#555);
#512=AXIS2_PLACEMENT_3D('',#691,#556,#557);
#513=AXIS2_PLACEMENT_3D('',#708,#566,#567);
#514=AXIS2_PLACEMENT_3D('',#723,#575,#576);
#515=AXIS2_PLACEMENT_3D('',#725,#577,#578);
#516=AXIS2_PLACEMENT_3D('',#726,#579,#580);
#517=AXIS2_PLACEMENT_3D('',#730,#583,#584);
#518=AXIS2_PLACEMENT_3D('',#734,#586,#587);
#519=AXIS2_PLACEMENT_3D('',#738,#589,#590);
#520=AXIS2_PLACEMENT_3D('',#747,#595,#596);
#521=AXIS2_PLACEMENT_3D('',#749,#597,#598);
#522=AXIS2_PLACEMENT_3D('',#750,#599,#600);
#523=AXIS2_PLACEMENT_3D('',#754,#603,#604);
#524=AXIS2_PLACEMENT_3D('',#757,#606,#607);
#525=AXIS2_PLACEMENT_3D('',#758,#608,#609);
#526=AXIS2_PLACEMENT_3D('',#761,#611,#612);
#527=AXIS2_PLACEMENT_3D('',#762,#613,#614);
#528=AXIS2_PLACEMENT_3D('',#774,#620,#621);
#529=AXIS2_PLACEMENT_3D('',#777,#623,#624);
#530=AXIS2_PLACEMENT_3D('',#779,#625,#626);
#531=AXIS2_PLACEMENT_3D('',#781,#627,#628);
#532=AXIS2_PLACEMENT_3D('',#782,#629,#630);
#533=AXIS2_PLACEMENT_3D('',#784,#632,#633);
#534=AXIS2_PLACEMENT_3D('',#786,#635,#636);
#535=AXIS2_PLACEMENT_3D('',#788,#638,#639);
#536=AXIS2_PLACEMENT_3D('',#795,#644,#645);
#537=AXIS2_PLACEMENT_3D('',#797,#647,#648);
#538=AXIS2_PLACEMENT_3D('',#798,#649,#650);
#539=AXIS2_PLACEMENT_3D('',#800,#652,#653);
#540=AXIS2_PLACEMENT_3D('',#802,#655,#656);
#541=AXIS2_PLACEMENT_3D('',#804,#658,#659);
#542=AXIS2_PLACEMENT_3D('',#806,#661,#662);
#543=AXIS2_PLACEMENT_3D('',#808,#663,#664);
#544=AXIS2_PLACEMENT_3D('',#810,#665,#666);
#545=AXIS2_PLACEMENT_3D('',#812,#668,#669);
#546=AXIS2_PLACEMENT_3D('',#814,#671,#672);
#547=AXIS2_PLACEMENT_3D('',#817,#674,#675);
#548=AXIS2_PLACEMENT_3D('',#818,#676,#677);
#549=AXIS2_PLACEMENT_3D('',#821,#679,#680);
#550=AXIS2_PLACEMENT_3D('',#822,#681,#682);
#551=AXIS2_PLACEMENT_3D('',#824,#684,#685);
#552=AXIS2_PLACEMENT_3D('',#825,#686,#687);
#553=AXIS2_PLACEMENT_3D('',#826,#688,#689);
#554=DIRECTION('axis',(0.,0.,1.));
#555=DIRECTION('refdir',(1.,0.,0.));
#556=DIRECTION('center_axis',(0.,0.,1.));
#557=DIRECTION('ref_axis',(-1.,0.,0.));
#558=DIRECTION('',(1.,0.,0.));
#559=DIRECTION('',(0.,-1.,0.));
#560=DIRECTION('',(-1.,0.,0.));
#561=DIRECTION('',(0.,-1.,0.));
#562=DIRECTION('',(-0.728827238155649,-0.684697639051289,0.));
#563=DIRECTION('',(-0.0623782861551805,-0.998052578482889,0.));
#564=DIRECTION('',(1.,0.,0.));
#565=DIRECTION('',(0.0623782861551805,0.998052578482889,0.));
#566=DIRECTION('center_axis',(0.,-1.,0.));
#567=DIRECTION('ref_axis',(1.,0.,0.));
#568=DIRECTION('',(0.,0.,-1.));
#569=DIRECTION('',(-1.,0.,0.));
#570=DIRECTION('',(0.,0.,-1.));
#571=DIRECTION('',(1.,0.,0.));
#572=DIRECTION('',(-0.5,0.,0.866025403784438));
#573=DIRECTION('',(1.,0.,0.));
#574=DIRECTION('',(-0.5,0.,-0.866025403784438));
#575=DIRECTION('center_axis',(0.,-1.,0.));
#576=DIRECTION('ref_axis',(1.,0.,0.));
#577=DIRECTION('center_axis',(0.,-1.,0.));
#578=DIRECTION('ref_axis',(1.,0.,0.));
#579=DIRECTION('center_axis',(0.998052578482889,-0.0623782861551805,0.));
#580=DIRECTION('ref_axis',(0.0623782861551805,0.998052578482889,0.));
#581=DIRECTION('',(0.,0.,1.));
#582=DIRECTION('',(-0.0623782861551805,-0.998052578482889,0.));
#583=DIRECTION('center_axis',(0.,1.,0.));
#584=DIRECTION('ref_axis',(-1.,0.,0.));
#585=DIRECTION('',(0.,0.,1.));
#586=DIRECTION('center_axis',(0.,-1.,0.));
#587=DIRECTION('ref_axis',(1.,0.,1.86985285720573E-15));
#588=DIRECTION('',(1.,0.,0.));
#589=DIRECTION('center_axis',(0.,-1.,0.));
#590=DIRECTION('ref_axis',(-1.,0.,1.86985285720573E-15));
#591=DIRECTION('',(0.,0.,1.));
#592=DIRECTION('',(1.,0.,0.));
#593=DIRECTION('',(0.,0.,-1.));
#594=DIRECTION('',(1.,2.77606537888337E-16,0.));
#595=DIRECTION('center_axis',(0.,-1.,0.));
#596=DIRECTION('ref_axis',(1.,0.,0.));
#597=DIRECTION('center_axis',(0.,-1.,0.));
#598=DIRECTION('ref_axis',(1.,0.,0.));
#599=DIRECTION('center_axis',(0.998052578482889,-0.0623782861551805,0.));
#600=DIRECTION('ref_axis',(0.0623782861551805,0.998052578482889,0.));
#601=DIRECTION('',(0.,0.,1.));
#602=DIRECTION('',(-0.0623782861551805,-0.998052578482889,0.));
#603=DIRECTION('center_axis',(0.684697639051289,-0.728827238155649,0.));
#604=DIRECTION('ref_axis',(0.,0.,-1.));
#605=DIRECTION('',(5.55111512312578E-17,0.,-1.));
#606=DIRECTION('center_axis',(-0.684697639051289,0.728827238155649,0.));
#607=DIRECTION('ref_axis',(0.728827238155649,0.684697639051289,4.75104427363266E-17));
#608=DIRECTION('center_axis',(1.,0.,5.55111512312578E-17));
#609=DIRECTION('ref_axis',(5.55111512312578E-17,0.,-1.));
#610=DIRECTION('',(5.55111512312578E-17,0.,-1.));
#611=DIRECTION('center_axis',(-1.,0.,-5.55111512312578E-17));
#612=DIRECTION('ref_axis',(0.,-1.,4.32836309538362E-18));
#613=DIRECTION('center_axis',(0.,1.,0.));
#614=DIRECTION('ref_axis',(0.,0.,1.));
#615=DIRECTION('',(0.5,0.,0.866025403784438));
#616=DIRECTION('',(-1.,0.,0.));
#617=DIRECTION('',(0.5,0.,-0.866025403784438));
#618=DIRECTION('',(-1.,0.,0.));
#619=DIRECTION('',(7.40148683083438E-17,0.,1.));
#620=DIRECTION('center_axis',(0.,1.,0.));
#621=DIRECTION('ref_axis',(-1.,0.,1.86985285720573E-15));
#622=DIRECTION('',(-1.,0.,0.));
#623=DIRECTION('center_axis',(0.,1.,0.));
#624=DIRECTION('ref_axis',(1.,0.,1.86985285720573E-15));
#625=DIRECTION('center_axis',(0.,1.,0.));
#626=DIRECTION('ref_axis',(1.,0.,0.));
#627=DIRECTION('center_axis',(0.,1.,0.));
#628=DIRECTION('ref_axis',(1.,0.,0.));
#629=DIRECTION('center_axis',(0.866025403784438,0.,-0.5));
#630=DIRECTION('ref_axis',(0.5,0.,0.866025403784438));
#631=DIRECTION('',(0.,-1.,0.));
#632=DIRECTION('center_axis',(0.,0.,-1.));
#633=DIRECTION('ref_axis',(-1.,0.,0.));
#634=DIRECTION('',(-0.0623782861551805,0.998052578482889,0.));
#635=DIRECTION('center_axis',(-0.998052578482889,-0.0623782861551805,0.));
#636=DIRECTION('ref_axis',(0.0623782861551805,-0.998052578482889,0.));
#637=DIRECTION('',(0.0623782861551805,-0.998052578482889,0.));
#638=DIRECTION('center_axis',(0.,0.,1.));
#639=DIRECTION('ref_axis',(-1.,0.,0.));
#640=DIRECTION('',(-0.0623782861551805,0.998052578482889,0.));
#641=DIRECTION('',(-0.728827238155649,0.684697639051289,0.));
#642=DIRECTION('',(0.,1.,0.));
#643=DIRECTION('',(0.,-1.,0.));
#644=DIRECTION('center_axis',(-0.866025403784438,0.,-0.5));
#645=DIRECTION('ref_axis',(0.5,0.,-0.866025403784438));
#646=DIRECTION('',(0.,-1.,0.));
#647=DIRECTION('center_axis',(0.,0.,1.));
#648=DIRECTION('ref_axis',(-1.,0.,0.));
#649=DIRECTION('center_axis',(0.,1.,0.));
#650=DIRECTION('ref_axis',(1.,0.,0.));
#651=DIRECTION('',(0.,1.,0.));
#652=DIRECTION('center_axis',(0.,1.,0.));
#653=DIRECTION('ref_axis',(1.,0.,0.));
#654=DIRECTION('',(0.,1.,0.));
#655=DIRECTION('center_axis',(-0.0623782861551805,-0.998052578482889,0.));
#656=DIRECTION('ref_axis',(0.705729746225971,-0.044108109139123,-0.707106781186546));
#657=DIRECTION('',(0.0623782861551805,0.998052578482889,0.));
#658=DIRECTION('center_axis',(0.,0.,-1.));
#659=DIRECTION('ref_axis',(-1.,0.,0.));
#660=DIRECTION('',(0.0623782861551805,-0.998052578482889,0.));
#661=DIRECTION('center_axis',(-0.0623782861551805,0.998052578482889,0.));
#662=DIRECTION('ref_axis',(-0.705729746225971,-0.044108109139123,-0.707106781186546));
#663=DIRECTION('center_axis',(1.,0.,-7.40148683083438E-17));
#664=DIRECTION('ref_axis',(0.,-1.,4.32836309538362E-18));
#665=DIRECTION('center_axis',(0.684697639051289,0.728827238155649,0.));
#666=DIRECTION('ref_axis',(-0.728827238155649,0.684697639051289,4.75104427363266E-17));
#667=DIRECTION('',(-0.0623782861551805,0.998052578482889,0.));
#668=DIRECTION('center_axis',(-0.998052578482889,-0.0623782861551805,0.));
#669=DIRECTION('ref_axis',(0.0623782861551805,-0.998052578482889,0.));
#670=DIRECTION('',(0.,0.,-1.));
#671=DIRECTION('center_axis',(0.,-1.,0.));
#672=DIRECTION('ref_axis',(1.,0.,0.));
#673=DIRECTION('',(0.,-1.,0.));
#674=DIRECTION('center_axis',(0.,-1.,0.));
#675=DIRECTION('ref_axis',(1.,0.,0.));
#676=DIRECTION('center_axis',(0.,-1.,0.));
#677=DIRECTION('ref_axis',(1.,0.,0.));
#678=DIRECTION('',(0.,-1.,0.));
#679=DIRECTION('center_axis',(0.,-1.,0.));
#680=DIRECTION('ref_axis',(1.,0.,0.));
#681=DIRECTION('center_axis',(-1.,0.,7.40148683083438E-17));
#682=DIRECTION('ref_axis',(7.40148683083438E-17,0.,1.));
#683=DIRECTION('',(7.40148683083438E-17,0.,1.));
#684=DIRECTION('center_axis',(-0.684697639051289,-0.728827238155649,0.));
#685=DIRECTION('ref_axis',(0.,0.,1.));
#686=DIRECTION('center_axis',(0.,1.,0.));
#687=DIRECTION('ref_axis',(0.,0.,1.));
#688=DIRECTION('center_axis',(0.,1.,0.));
#689=DIRECTION('ref_axis',(0.,0.,1.));
#690=CARTESIAN_POINT('',(0.,0.,0.));
#691=CARTESIAN_POINT('Origin',(35.002000001,61.001,0.));
#692=CARTESIAN_POINT('',(9.22649730810374,8.,0.));
#693=CARTESIAN_POINT('',(28.6816463358972,8.,0.));
#694=CARTESIAN_POINT('',(1.7510000005,8.,0.));
#695=CARTESIAN_POINT('',(9.22649730810374,0.,0.));
#696=CARTESIAN_POINT('',(9.22649730810374,61.001,0.));
#697=CARTESIAN_POINT('',(29.5,0.,0.));
#698=CARTESIAN_POINT('',(17.5010000005,0.,0.));
#699=CARTESIAN_POINT('',(29.5,5.,0.));
#700=CARTESIAN_POINT('',(29.5,30.5005,0.));
#701=CARTESIAN_POINT('',(31.6247565723104,6.99610515696578,0.));
#702=CARTESIAN_POINT('',(45.4654760878547,19.9987860104501,0.));
#703=CARTESIAN_POINT('',(35.,61.,0.));
#704=CARTESIAN_POINT('',(33.2500350194572,33.0005603113152,0.));
#705=CARTESIAN_POINT('',(31.9941463358972,61.,0.));
#706=CARTESIAN_POINT('',(35.0010000005,61.,0.));
#707=CARTESIAN_POINT('',(30.2558772840085,33.1876951697807,0.));
#708=CARTESIAN_POINT('Origin',(-31.5,8.,-120.));
#709=CARTESIAN_POINT('',(28.6816463358972,8.,-110.));
#710=CARTESIAN_POINT('',(28.6816463358972,8.,-120.));
#711=CARTESIAN_POINT('',(-28.6816463358972,8.,-110.));
#712=CARTESIAN_POINT('',(-15.75,8.,-110.));
#713=CARTESIAN_POINT('',(-28.6816463358972,8.,0.));
#714=CARTESIAN_POINT('',(-28.6816463358972,8.,-120.));
#715=CARTESIAN_POINT('',(-9.22649730810374,8.,0.));
#716=CARTESIAN_POINT('',(-33.25,8.,0.));
#717=CARTESIAN_POINT('',(-15.,8.,10.));
#718=CARTESIAN_POINT('',(11.0833256229943,7.99999999999999,-35.1776452093892));
#719=CARTESIAN_POINT('',(15.,8.,10.));
#720=CARTESIAN_POINT('',(-8.25,8.,10.));
#721=CARTESIAN_POINT('',(-21.8450769689424,7.99999999999999,-53.8175453189941));
#722=CARTESIAN_POINT('',(19.0000000000006,8.,-16.5500000000007));
#723=CARTESIAN_POINT('Origin',(21.0500000000006,8.,-16.5500000000007));
#724=CARTESIAN_POINT('',(-23.1000000000004,8.,-16.5500000000008));
#725=CARTESIAN_POINT('Origin',(-21.0500000000004,8.,-16.5500000000008));
#726=CARTESIAN_POINT('Origin',(28.5058422645513,5.18713485846553,-120.));
#727=CARTESIAN_POINT('',(31.9941463358972,61.,-110.));
#728=CARTESIAN_POINT('',(31.9941463358972,61.,-120.));
#729=CARTESIAN_POINT('',(29.3628461556019,18.8991971152749,-110.));
#730=CARTESIAN_POINT('Origin',(35.,61.,-120.));
#731=CARTESIAN_POINT('',(35.,61.,-118.));
#732=CARTESIAN_POINT('',(35.,61.,-120.));
#733=CARTESIAN_POINT('',(32.9960975572648,61.,-120.));
#734=CARTESIAN_POINT('Origin',(32.9960975572648,61.,-118.));
#735=CARTESIAN_POINT('',(-32.9960975572648,61.,-120.));
#736=CARTESIAN_POINT('',(-35.,61.,-120.));
#737=CARTESIAN_POINT('',(-35.,61.,-118.));
#738=CARTESIAN_POINT('Origin',(-32.9960975572648,61.,-118.));
#739=CARTESIAN_POINT('',(-35.,61.,0.));
#740=CARTESIAN_POINT('',(-35.,61.,-120.));
#741=CARTESIAN_POINT('',(-31.9941463358972,61.,0.));
#742=CARTESIAN_POINT('',(0.,61.,0.));
#743=CARTESIAN_POINT('',(-31.9941463358972,61.,-110.));
#744=CARTESIAN_POINT('',(-31.9941463358972,61.,-120.));
#745=CARTESIAN_POINT('',(-31.9941463358972,61.,-110.));
#746=CARTESIAN_POINT('',(27.45,61.,-115.));
#747=CARTESIAN_POINT('Origin',(30.,61.,-115.));
#748=CARTESIAN_POINT('',(-32.55,61.,-115.));
#749=CARTESIAN_POINT('Origin',(-30.,61.,-115.));
#750=CARTESIAN_POINT('Origin',(31.5,4.99999999999999,-120.));
#751=CARTESIAN_POINT('',(31.6247565723104,6.99610515696578,-118.));
#752=CARTESIAN_POINT('',(31.6247565723104,6.99610515696578,-120.));
#753=CARTESIAN_POINT('',(31.34046692607,2.44747081712062,-118.));
#754=CARTESIAN_POINT('Origin',(30.5623782861552,5.99805257848289,-120.));
#755=CARTESIAN_POINT('',(29.5,5.,-120.));
#756=CARTESIAN_POINT('',(29.5,5.,120.));
#757=CARTESIAN_POINT('Origin',(29.4958541295752,4.99610515696578,-118.));
#758=CARTESIAN_POINT('Origin',(29.5,0.,120.));
#759=CARTESIAN_POINT('',(29.5,-5.55111512312578E-16,-119.974912410532));
#760=CARTESIAN_POINT('',(29.5,0.,120.));
#761=CARTESIAN_POINT('Origin',(29.5,5.06243908376276,-118.));
#762=CARTESIAN_POINT('Origin',(0.,0.,0.));
#763=CARTESIAN_POINT('',(15.,0.,10.));
#764=CARTESIAN_POINT('',(8.07318514459077,-8.88178419700125E-15,-1.99759526419165));
#765=CARTESIAN_POINT('',(-15.,0.,10.));
#766=CARTESIAN_POINT('',(7.5,0.,10.));
#767=CARTESIAN_POINT('',(-9.22649730810374,0.,0.));
#768=CARTESIAN_POINT('',(-10.9599364905389,-8.88178419700125E-15,3.00240473580836));
#769=CARTESIAN_POINT('',(-29.5,0.,0.));
#770=CARTESIAN_POINT('',(-17.5,0.,0.));
#771=CARTESIAN_POINT('',(-29.5,0.,-119.974912410532));
#772=CARTESIAN_POINT('',(-29.5,0.,-120.));
#773=CARTESIAN_POINT('',(-29.1835975572648,0.,-120.));
#774=CARTESIAN_POINT('Origin',(-29.1835975572648,0.,-118.));
#775=CARTESIAN_POINT('',(29.1835975572648,0.,-120.));
#776=CARTESIAN_POINT('',(29.5,0.,-120.));
#777=CARTESIAN_POINT('Origin',(29.1835975572648,0.,-118.));
#778=CARTESIAN_POINT('',(-23.1000000000004,0.,-16.5500000000008));
#779=CARTESIAN_POINT('Origin',(-21.0500000000004,0.,-16.5500000000008));
#780=CARTESIAN_POINT('',(19.0000000000006,0.,-16.5500000000007));
#781=CARTESIAN_POINT('Origin',(21.0500000000006,0.,-16.5500000000007));
#782=CARTESIAN_POINT('Origin',(9.22649730810373,61.001,-2.22044604925031E-15));
#783=CARTESIAN_POINT('',(15.,61.001,10.));
#784=CARTESIAN_POINT('Origin',(0.,34.5,-110.));
#785=CARTESIAN_POINT('',(-31.1128461556019,46.8991971152749,-110.));
#786=CARTESIAN_POINT('Origin',(-32.0058422645513,61.1871348584656,-120.));
#787=CARTESIAN_POINT('',(-32.005873392956,61.1876329129403,0.));
#788=CARTESIAN_POINT('Origin',(-35.,61.001,0.));
#789=CARTESIAN_POINT('',(-31.6247565723104,6.99610515696578,0.));
#790=CARTESIAN_POINT('',(-35.0000311284047,61.0004980544747,0.));
#791=CARTESIAN_POINT('',(-29.5,5.,0.));
#792=CARTESIAN_POINT('',(-45.464944898446,19.9982869839113,0.));
#793=CARTESIAN_POINT('',(-29.5,30.5005,0.));
#794=CARTESIAN_POINT('',(-9.22649730810374,61.001,0.));
#795=CARTESIAN_POINT('Origin',(-15.,61.001,10.));
#796=CARTESIAN_POINT('',(-15.,61.001,10.));
#797=CARTESIAN_POINT('Origin',(15.,61.001,10.));
#798=CARTESIAN_POINT('Origin',(21.0500000000006,0.,-16.5500000000007));
#799=CARTESIAN_POINT('',(19.0000000000006,0.,-16.5500000000007));
#800=CARTESIAN_POINT('Origin',(-21.0500000000004,0.,-16.5500000000008));
#801=CARTESIAN_POINT('',(-23.1000000000004,0.,-16.5500000000008));
#802=CARTESIAN_POINT('Origin',(29.3443617691043,2.57222738943098,-118.));
#803=CARTESIAN_POINT('',(29.3443617691043,2.57222738943098,-120.));
#804=CARTESIAN_POINT('Origin',(29.5,0.,-120.));
#805=CARTESIAN_POINT('',(-30.9795757768864,28.7356515139446,-120.));
#806=CARTESIAN_POINT('Origin',(-30.9795757768864,28.7356515139446,-118.));
#807=CARTESIAN_POINT('',(-29.5,5.,-120.));
#808=CARTESIAN_POINT('Origin',(-29.5,5.06243908376276,-118.));
#809=CARTESIAN_POINT('',(-31.6247565723104,6.99610515696578,-118.));
#810=CARTESIAN_POINT('Origin',(-29.4958541295752,4.99610515696578,-118.));
#811=CARTESIAN_POINT('',(-32.9756809338521,28.6108949416342,-118.));
#812=CARTESIAN_POINT('Origin',(-35.,61.,-120.));
#813=CARTESIAN_POINT('',(-31.6247565723104,6.99610515696578,-120.));
#814=CARTESIAN_POINT('Origin',(30.,61.,-115.));
#815=CARTESIAN_POINT('',(27.45,46.,-115.));
#816=CARTESIAN_POINT('',(27.45,61.,-115.));
#817=CARTESIAN_POINT('Origin',(30.,46.,-115.));
#818=CARTESIAN_POINT('Origin',(-30.,61.,-115.));
#819=CARTESIAN_POINT('',(-32.55,46.,-115.));
#820=CARTESIAN_POINT('',(-32.55,61.,-115.));
#821=CARTESIAN_POINT('Origin',(-30.,46.,-115.));
#822=CARTESIAN_POINT('Origin',(-29.5,0.,-120.));
#823=CARTESIAN_POINT('',(-29.5,5.,-120.));
#824=CARTESIAN_POINT('Origin',(-30.5623782861552,5.99805257848289,-120.));
#825=CARTESIAN_POINT('Origin',(30.,46.,-115.));
#826=CARTESIAN_POINT('Origin',(-30.,46.,-115.));
#827=UNCERTAINTY_MEASURE_WITH_UNIT(LENGTH_MEASURE(0.01),#831,
'DISTANCE_ACCURACY_VALUE',
'Maximum model space distance between geometric entities at asserted c
onnectivities');
#828=UNCERTAINTY_MEASURE_WITH_UNIT(LENGTH_MEASURE(0.01),#831,
'DISTANCE_ACCURACY_VALUE',
'Maximum model space distance between geometric entities at asserted c
onnectivities');
#829=(
GEOMETRIC_REPRESENTATION_CONTEXT(3)
GLOBAL_UNCERTAINTY_ASSIGNED_CONTEXT((#827))
GLOBAL_UNIT_ASSIGNED_CONTEXT((#831,#833,#834))
REPRESENTATION_CONTEXT('','3D')
);
#830=(
GEOMETRIC_REPRESENTATION_CONTEXT(3)
GLOBAL_UNCERTAINTY_ASSIGNED_CONTEXT((#828))
GLOBAL_UNIT_ASSIGNED_CONTEXT((#831,#833,#834))
REPRESENTATION_CONTEXT('','3D')
);
#831=(
LENGTH_UNIT()
NAMED_UNIT(*)
SI_UNIT(.MILLI.,.METRE.)
);
#832=(
LENGTH_UNIT()
NAMED_UNIT(*)
SI_UNIT(.CENTI.,.METRE.)
);
#833=(
NAMED_UNIT(*)
PLANE_ANGLE_UNIT()
SI_UNIT($,.RADIAN.)
);
#834=(
NAMED_UNIT(*)
SI_UNIT($,.STERADIAN.)
SOLID_ANGLE_UNIT()
);
#835=SHAPE_DEFINITION_REPRESENTATION(#836,#837);
#836=PRODUCT_DEFINITION_SHAPE('',$,#839);
#837=SHAPE_REPRESENTATION('',(#511),#829);
#838=PRODUCT_DEFINITION_CONTEXT('part definition',#843,'design');
#839=PRODUCT_DEFINITION('\X2\041A04400435043F043B0435043D04380435\X0\_
\X2\043D043E0432043E0439\X0\_\X2\043A043E043B043E043D043A0438\X0\',
'\X2\041A04400435043F043B0435043D04380435\X0\_\X2\043D043E0432043E0439\X0\_
\X2\043A043E043B043E043D043A0438\X0\',#840,#838);
#840=PRODUCT_DEFINITION_FORMATION('',$,#845);
#841=PRODUCT_RELATED_PRODUCT_CATEGORY(
'\X2\041A04400435043F043B0435043D04380435\X0\_\X2\043D043E0432043E0439\X0\_
\X2\043A043E043B043E043D043A0438\X0\',
'\X2\041A04400435043F043B0435043D04380435\X0\_\X2\043D043E0432043E0439\X0\_
\X2\043A043E043B043E043D043A0438\X0\',(#845));
#842=APPLICATION_PROTOCOL_DEFINITION('international standard',
'automotive_design',2009,#843);
#843=APPLICATION_CONTEXT(
'Core Data for Automotive Mechanical Design Process');
#844=PRODUCT_CONTEXT('part definition',#843,'mechanical');
#845=PRODUCT('\X2\041A04400435043F043B0435043D04380435\X0\_\X2\043D043E0432043E0439\X0\_
\X2\043A043E043B043E043D043A0438\X0\',
'\X2\041A04400435043F043B0435043D04380435\X0\_\X2\043D043E0432043E0439\X0\_
\X2\043A043E043B043E043D043A0438\X0\',$,(#844));
#846=PRESENTATION_STYLE_ASSIGNMENT((#847));
#847=SURFACE_STYLE_USAGE(.BOTH.,#850);
#848=SURFACE_STYLE_RENDERING_WITH_PROPERTIES($,#854,(#849));
#849=SURFACE_STYLE_TRANSPARENT(0.);
#850=SURFACE_SIDE_STYLE('',(#851,#848));
#851=SURFACE_STYLE_FILL_AREA(#852);
#852=FILL_AREA_STYLE('',(#853));
#853=FILL_AREA_STYLE_COLOUR('',#854);
#854=COLOUR_RGB('',0.749019607843137,0.749019607843137,0.749019607843137);
ENDSEC;
END-ISO-10303-21;
