ISO-10303-21;
HEADER;
/* Generated by software containing ST-Developer
 * from STEP Tools, Inc. (www.steptools.com) 
 */

FILE_DESCRIPTION(
/* description */ (''),
/* implementation_level */ '2;1');

FILE_NAME(
/* name */ '',
/* time_stamp */ '2025-09-18T16:51:27+03:00',
/* author */ ('I9232'),
/* organization */ (''),
/* preprocessor_version */ 'ST-DEVELOPER v19.2',
/* originating_system */ 'Autodesk Inventor 2023',
/* authorisation */ '');

FILE_SCHEMA (('AUTOMOTIVE_DESIGN { 1 0 10303 214 3 1 1 }'));
ENDSEC;

DATA;
#10=MECHANICAL_DESIGN_GEOMETRIC_PRESENTATION_REPRESENTATION('',(#13),#1126);
#11=SHAPE_REPRESENTATION_RELATIONSHIP('SRR','None',#1133,#12);
#12=ADVANCED_BREP_SHAPE_REPRESENTATION('',(#14),#1125);
#13=STYLED_ITEM('',(#1142),#14);
#14=MANIFOLD_SOLID_BREP('\X2\04220432043504400434043E0435\X0\ \X2\04420435043B043E\X0\4',
#665);
#15=CYLINDRICAL_SURFACE('',#727,5.5);
#16=CYLINDRICAL_SURFACE('',#729,5.5);
#17=CYLINDRICAL_SURFACE('',#730,2.05);
#18=CYLINDRICAL_SURFACE('',#731,2.05);
#19=CYLINDRICAL_SURFACE('',#732,2.05);
#20=CYLINDRICAL_SURFACE('',#733,2.05);
#21=CYLINDRICAL_SURFACE('',#734,2.05);
#22=CYLINDRICAL_SURFACE('',#735,2.05);
#23=CYLINDRICAL_SURFACE('',#737,2.);
#24=CYLINDRICAL_SURFACE('',#741,2.);
#25=CYLINDRICAL_SURFACE('',#742,2.55);
#26=CYLINDRICAL_SURFACE('',#744,2.55);
#27=ELLIPSE('',#700,2.00390244273517,2.);
#28=ELLIPSE('',#701,2.00390244273517,2.);
#29=ELLIPSE('',#706,2.92099736574407,2.);
#30=ELLIPSE('',#708,32.0624390837628,2.);
#31=ELLIPSE('',#710,2.00390244273517,2.);
#32=ELLIPSE('',#711,2.00390244273517,2.);
#33=ELLIPSE('',#738,2.92099736574407,2.);
#34=ELLIPSE('',#739,32.0624390837628,2.);
#35=FACE_BOUND('',#107,.T.);
#36=FACE_BOUND('',#108,.T.);
#37=FACE_BOUND('',#109,.T.);
#38=FACE_BOUND('',#110,.T.);
#39=FACE_BOUND('',#111,.T.);
#40=FACE_BOUND('',#112,.T.);
#41=FACE_BOUND('',#113,.T.);
#42=FACE_BOUND('',#116,.T.);
#43=FACE_BOUND('',#117,.T.);
#44=FACE_BOUND('',#122,.T.);
#45=FACE_BOUND('',#123,.T.);
#46=FACE_BOUND('',#124,.T.);
#47=FACE_BOUND('',#125,.T.);
#48=FACE_BOUND('',#126,.T.);
#49=FACE_BOUND('',#127,.T.);
#50=FACE_BOUND('',#128,.T.);
#51=CIRCLE('',#690,5.5);
#52=CIRCLE('',#691,5.5);
#53=CIRCLE('',#692,2.05);
#54=CIRCLE('',#693,2.05);
#55=CIRCLE('',#694,2.05);
#56=CIRCLE('',#695,2.05);
#57=CIRCLE('',#696,2.05);
#58=CIRCLE('',#697,2.05);
#59=CIRCLE('',#702,2.55);
#60=CIRCLE('',#703,2.55);
#61=CIRCLE('',#712,2.05);
#62=CIRCLE('',#713,2.05);
#63=CIRCLE('',#714,2.05);
#64=CIRCLE('',#715,2.05);
#65=CIRCLE('',#716,2.05);
#66=CIRCLE('',#717,2.05);
#67=CIRCLE('',#718,5.5);
#68=CIRCLE('',#719,5.5);
#69=CIRCLE('',#743,2.55);
#70=CIRCLE('',#745,2.55);
#71=FACE_OUTER_BOUND('',#105,.T.);
#72=FACE_OUTER_BOUND('',#106,.T.);
#73=FACE_OUTER_BOUND('',#114,.T.);
#74=FACE_OUTER_BOUND('',#115,.T.);
#75=FACE_OUTER_BOUND('',#118,.T.);
#76=FACE_OUTER_BOUND('',#119,.T.);
#77=FACE_OUTER_BOUND('',#120,.T.);
#78=FACE_OUTER_BOUND('',#121,.T.);
#79=FACE_OUTER_BOUND('',#129,.T.);
#80=FACE_OUTER_BOUND('',#130,.T.);
#81=FACE_OUTER_BOUND('',#131,.T.);
#82=FACE_OUTER_BOUND('',#132,.T.);
#83=FACE_OUTER_BOUND('',#133,.T.);
#84=FACE_OUTER_BOUND('',#134,.T.);
#85=FACE_OUTER_BOUND('',#135,.T.);
#86=FACE_OUTER_BOUND('',#136,.T.);
#87=FACE_OUTER_BOUND('',#137,.T.);
#88=FACE_OUTER_BOUND('',#138,.T.);
#89=FACE_OUTER_BOUND('',#139,.T.);
#90=FACE_OUTER_BOUND('',#140,.T.);
#91=FACE_OUTER_BOUND('',#141,.T.);
#92=FACE_OUTER_BOUND('',#142,.T.);
#93=FACE_OUTER_BOUND('',#143,.T.);
#94=FACE_OUTER_BOUND('',#144,.T.);
#95=FACE_OUTER_BOUND('',#145,.T.);
#96=FACE_OUTER_BOUND('',#146,.T.);
#97=FACE_OUTER_BOUND('',#147,.T.);
#98=FACE_OUTER_BOUND('',#148,.T.);
#99=FACE_OUTER_BOUND('',#149,.T.);
#100=FACE_OUTER_BOUND('',#150,.T.);
#101=FACE_OUTER_BOUND('',#151,.T.);
#102=FACE_OUTER_BOUND('',#152,.T.);
#103=FACE_OUTER_BOUND('',#153,.T.);
#104=FACE_OUTER_BOUND('',#154,.T.);
#105=EDGE_LOOP('',(#429,#430,#431,#432,#433,#434,#435,#436));
#106=EDGE_LOOP('',(#437,#438,#439,#440,#441,#442,#443,#444));
#107=EDGE_LOOP('',(#445,#446,#447,#448));
#108=EDGE_LOOP('',(#449));
#109=EDGE_LOOP('',(#450));
#110=EDGE_LOOP('',(#451));
#111=EDGE_LOOP('',(#452));
#112=EDGE_LOOP('',(#453));
#113=EDGE_LOOP('',(#454));
#114=EDGE_LOOP('',(#455,#456,#457,#458));
#115=EDGE_LOOP('',(#459,#460,#461,#462,#463,#464,#465,#466,#467,#468));
#116=EDGE_LOOP('',(#469));
#117=EDGE_LOOP('',(#470));
#118=EDGE_LOOP('',(#471,#472,#473,#474));
#119=EDGE_LOOP('',(#475,#476,#477,#478));
#120=EDGE_LOOP('',(#479,#480,#481,#482));
#121=EDGE_LOOP('',(#483,#484,#485,#486,#487,#488,#489,#490,#491,#492));
#122=EDGE_LOOP('',(#493));
#123=EDGE_LOOP('',(#494));
#124=EDGE_LOOP('',(#495));
#125=EDGE_LOOP('',(#496));
#126=EDGE_LOOP('',(#497));
#127=EDGE_LOOP('',(#498));
#128=EDGE_LOOP('',(#499,#500,#501,#502));
#129=EDGE_LOOP('',(#503,#504,#505,#506));
#130=EDGE_LOOP('',(#507,#508,#509,#510));
#131=EDGE_LOOP('',(#511,#512,#513,#514));
#132=EDGE_LOOP('',(#515,#516,#517,#518,#519,#520,#521,#522));
#133=EDGE_LOOP('',(#523,#524,#525,#526));
#134=EDGE_LOOP('',(#527,#528,#529,#530));
#135=EDGE_LOOP('',(#531,#532,#533,#534));
#136=EDGE_LOOP('',(#535,#536,#537,#538));
#137=EDGE_LOOP('',(#539,#540,#541,#542));
#138=EDGE_LOOP('',(#543,#544,#545,#546));
#139=EDGE_LOOP('',(#547,#548,#549,#550));
#140=EDGE_LOOP('',(#551,#552,#553,#554));
#141=EDGE_LOOP('',(#555,#556,#557,#558));
#142=EDGE_LOOP('',(#559,#560,#561,#562));
#143=EDGE_LOOP('',(#563,#564,#565,#566));
#144=EDGE_LOOP('',(#567,#568,#569,#570));
#145=EDGE_LOOP('',(#571,#572,#573,#574));
#146=EDGE_LOOP('',(#575,#576,#577,#578,#579,#580));
#147=EDGE_LOOP('',(#581,#582,#583,#584));
#148=EDGE_LOOP('',(#585,#586,#587,#588,#589,#590));
#149=EDGE_LOOP('',(#591,#592,#593,#594));
#150=EDGE_LOOP('',(#595,#596,#597,#598));
#151=EDGE_LOOP('',(#599,#600,#601,#602));
#152=EDGE_LOOP('',(#603,#604,#605,#606));
#153=EDGE_LOOP('',(#607));
#154=EDGE_LOOP('',(#608));
#155=LINE('',#942,#217);
#156=LINE('',#944,#218);
#157=LINE('',#946,#219);
#158=LINE('',#948,#220);
#159=LINE('',#950,#221);
#160=LINE('',#952,#222);
#161=LINE('',#954,#223);
#162=LINE('',#955,#224);
#163=LINE('',#958,#225);
#164=LINE('',#960,#226);
#165=LINE('',#962,#227);
#166=LINE('',#964,#228);
#167=LINE('',#966,#229);
#168=LINE('',#968,#230);
#169=LINE('',#969,#231);
#170=LINE('',#972,#232);
#171=LINE('',#976,#233);
#172=LINE('',#992,#234);
#173=LINE('',#993,#235);
#174=LINE('',#996,#236);
#175=LINE('',#998,#237);
#176=LINE('',#1000,#238);
#177=LINE('',#1002,#239);
#178=LINE('',#1006,#240);
#179=LINE('',#1009,#241);
#180=LINE('',#1016,#242);
#181=LINE('',#1017,#243);
#182=LINE('',#1021,#244);
#183=LINE('',#1025,#245);
#184=LINE('',#1030,#246);
#185=LINE('',#1034,#247);
#186=LINE('',#1036,#248);
#187=LINE('',#1038,#249);
#188=LINE('',#1040,#250);
#189=LINE('',#1041,#251);
#190=LINE('',#1056,#252);
#191=LINE('',#1060,#253);
#192=LINE('',#1063,#254);
#193=LINE('',#1065,#255);
#194=LINE('',#1067,#256);
#195=LINE('',#1070,#257);
#196=LINE('',#1072,#258);
#197=LINE('',#1073,#259);
#198=LINE('',#1074,#260);
#199=LINE('',#1076,#261);
#200=LINE('',#1079,#262);
#201=LINE('',#1080,#263);
#202=LINE('',#1082,#264);
#203=LINE('',#1084,#265);
#204=LINE('',#1087,#266);
#205=LINE('',#1089,#267);
#206=LINE('',#1091,#268);
#207=LINE('',#1093,#269);
#208=LINE('',#1095,#270);
#209=LINE('',#1097,#271);
#210=LINE('',#1100,#272);
#211=LINE('',#1101,#273);
#212=LINE('',#1106,#274);
#213=LINE('',#1108,#275);
#214=LINE('',#1112,#276);
#215=LINE('',#1116,#277);
#216=LINE('',#1119,#278);
#217=VECTOR('',#754,10.);
#218=VECTOR('',#755,10.);
#219=VECTOR('',#756,10.);
#220=VECTOR('',#757,10.);
#221=VECTOR('',#758,10.);
#222=VECTOR('',#759,10.);
#223=VECTOR('',#760,10.);
#224=VECTOR('',#761,10.);
#225=VECTOR('',#764,10.);
#226=VECTOR('',#765,10.);
#227=VECTOR('',#766,10.);
#228=VECTOR('',#767,10.);
#229=VECTOR('',#768,10.);
#230=VECTOR('',#769,10.);
#231=VECTOR('',#770,10.);
#232=VECTOR('',#771,10.);
#233=VECTOR('',#774,10.);
#234=VECTOR('',#791,10.);
#235=VECTOR('',#792,10.);
#236=VECTOR('',#795,10.);
#237=VECTOR('',#796,10.);
#238=VECTOR('',#797,10.);
#239=VECTOR('',#798,10.);
#240=VECTOR('',#801,10.);
#241=VECTOR('',#804,10.);
#242=VECTOR('',#811,10.);
#243=VECTOR('',#812,10.);
#244=VECTOR('',#817,10.);
#245=VECTOR('',#822,10.);
#246=VECTOR('',#827,10.);
#247=VECTOR('',#830,10.);
#248=VECTOR('',#831,10.);
#249=VECTOR('',#832,10.);
#250=VECTOR('',#833,10.);
#251=VECTOR('',#834,10.);
#252=VECTOR('',#847,10.);
#253=VECTOR('',#850,10.);
#254=VECTOR('',#855,10.);
#255=VECTOR('',#858,10.);
#256=VECTOR('',#861,10.);
#257=VECTOR('',#864,10.);
#258=VECTOR('',#865,10.);
#259=VECTOR('',#866,10.);
#260=VECTOR('',#867,10.);
#261=VECTOR('',#870,10.);
#262=VECTOR('',#875,10.);
#263=VECTOR('',#876,10.);
#264=VECTOR('',#879,10.);
#265=VECTOR('',#882,10.);
#266=VECTOR('',#887,2.05);
#267=VECTOR('',#890,2.05);
#268=VECTOR('',#893,2.05);
#269=VECTOR('',#896,2.05);
#270=VECTOR('',#899,2.05);
#271=VECTOR('',#902,2.05);
#272=VECTOR('',#905,10.);
#273=VECTOR('',#906,10.);
#274=VECTOR('',#913,10.);
#275=VECTOR('',#916,10.);
#276=VECTOR('',#921,2.55);
#277=VECTOR('',#926,2.55);
#278=VECTOR('',#931,10.);
#279=VERTEX_POINT('',#940);
#280=VERTEX_POINT('',#941);
#281=VERTEX_POINT('',#943);
#282=VERTEX_POINT('',#945);
#283=VERTEX_POINT('',#947);
#284=VERTEX_POINT('',#949);
#285=VERTEX_POINT('',#951);
#286=VERTEX_POINT('',#953);
#287=VERTEX_POINT('',#957);
#288=VERTEX_POINT('',#959);
#289=VERTEX_POINT('',#961);
#290=VERTEX_POINT('',#963);
#291=VERTEX_POINT('',#965);
#292=VERTEX_POINT('',#967);
#293=VERTEX_POINT('',#970);
#294=VERTEX_POINT('',#971);
#295=VERTEX_POINT('',#973);
#296=VERTEX_POINT('',#975);
#297=VERTEX_POINT('',#978);
#298=VERTEX_POINT('',#980);
#299=VERTEX_POINT('',#982);
#300=VERTEX_POINT('',#984);
#301=VERTEX_POINT('',#986);
#302=VERTEX_POINT('',#988);
#303=VERTEX_POINT('',#991);
#304=VERTEX_POINT('',#995);
#305=VERTEX_POINT('',#997);
#306=VERTEX_POINT('',#999);
#307=VERTEX_POINT('',#1001);
#308=VERTEX_POINT('',#1003);
#309=VERTEX_POINT('',#1005);
#310=VERTEX_POINT('',#1007);
#311=VERTEX_POINT('',#1010);
#312=VERTEX_POINT('',#1012);
#313=VERTEX_POINT('',#1015);
#314=VERTEX_POINT('',#1019);
#315=VERTEX_POINT('',#1023);
#316=VERTEX_POINT('',#1027);
#317=VERTEX_POINT('',#1029);
#318=VERTEX_POINT('',#1031);
#319=VERTEX_POINT('',#1033);
#320=VERTEX_POINT('',#1035);
#321=VERTEX_POINT('',#1037);
#322=VERTEX_POINT('',#1039);
#323=VERTEX_POINT('',#1042);
#324=VERTEX_POINT('',#1044);
#325=VERTEX_POINT('',#1046);
#326=VERTEX_POINT('',#1048);
#327=VERTEX_POINT('',#1050);
#328=VERTEX_POINT('',#1052);
#329=VERTEX_POINT('',#1054);
#330=VERTEX_POINT('',#1055);
#331=VERTEX_POINT('',#1057);
#332=VERTEX_POINT('',#1059);
#333=VERTEX_POINT('',#1069);
#334=VERTEX_POINT('',#1071);
#335=VERTEX_POINT('',#1099);
#336=VERTEX_POINT('',#1103);
#337=VERTEX_POINT('',#1111);
#338=VERTEX_POINT('',#1115);
#339=EDGE_CURVE('',#279,#280,#155,.T.);
#340=EDGE_CURVE('',#280,#281,#156,.T.);
#341=EDGE_CURVE('',#281,#282,#157,.T.);
#342=EDGE_CURVE('',#282,#283,#158,.T.);
#343=EDGE_CURVE('',#283,#284,#159,.T.);
#344=EDGE_CURVE('',#284,#285,#160,.T.);
#345=EDGE_CURVE('',#285,#286,#161,.T.);
#346=EDGE_CURVE('',#279,#286,#162,.T.);
#347=EDGE_CURVE('',#287,#279,#163,.T.);
#348=EDGE_CURVE('',#288,#287,#164,.T.);
#349=EDGE_CURVE('',#289,#288,#165,.T.);
#350=EDGE_CURVE('',#290,#289,#166,.T.);
#351=EDGE_CURVE('',#290,#291,#167,.F.);
#352=EDGE_CURVE('',#291,#292,#168,.T.);
#353=EDGE_CURVE('',#280,#292,#169,.F.);
#354=EDGE_CURVE('',#293,#294,#170,.T.);
#355=EDGE_CURVE('',#294,#295,#51,.T.);
#356=EDGE_CURVE('',#295,#296,#171,.T.);
#357=EDGE_CURVE('',#296,#293,#52,.T.);
#358=EDGE_CURVE('',#297,#297,#53,.T.);
#359=EDGE_CURVE('',#298,#298,#54,.T.);
#360=EDGE_CURVE('',#299,#299,#55,.T.);
#361=EDGE_CURVE('',#300,#300,#56,.T.);
#362=EDGE_CURVE('',#301,#301,#57,.T.);
#363=EDGE_CURVE('',#302,#302,#58,.T.);
#364=EDGE_CURVE('',#292,#303,#172,.T.);
#365=EDGE_CURVE('',#281,#303,#173,.T.);
#366=EDGE_CURVE('',#304,#303,#174,.T.);
#367=EDGE_CURVE('',#304,#305,#175,.T.);
#368=EDGE_CURVE('',#306,#305,#176,.T.);
#369=EDGE_CURVE('',#306,#307,#177,.T.);
#370=EDGE_CURVE('',#308,#307,#27,.T.);
#371=EDGE_CURVE('',#308,#309,#178,.T.);
#372=EDGE_CURVE('',#310,#309,#28,.T.);
#373=EDGE_CURVE('',#282,#310,#179,.T.);
#374=EDGE_CURVE('',#311,#311,#59,.T.);
#375=EDGE_CURVE('',#312,#312,#60,.T.);
#376=EDGE_CURVE('',#313,#310,#180,.T.);
#377=EDGE_CURVE('',#283,#313,#181,.T.);
#378=EDGE_CURVE('',#314,#313,#29,.T.);
#379=EDGE_CURVE('',#314,#284,#182,.T.);
#380=EDGE_CURVE('',#315,#314,#30,.T.);
#381=EDGE_CURVE('',#315,#285,#183,.T.);
#382=EDGE_CURVE('',#316,#315,#31,.T.);
#383=EDGE_CURVE('',#317,#316,#184,.T.);
#384=EDGE_CURVE('',#318,#317,#32,.T.);
#385=EDGE_CURVE('',#319,#318,#185,.T.);
#386=EDGE_CURVE('',#320,#319,#186,.T.);
#387=EDGE_CURVE('',#321,#320,#187,.T.);
#388=EDGE_CURVE('',#322,#321,#188,.T.);
#389=EDGE_CURVE('',#286,#322,#189,.T.);
#390=EDGE_CURVE('',#323,#323,#61,.T.);
#391=EDGE_CURVE('',#324,#324,#62,.T.);
#392=EDGE_CURVE('',#325,#325,#63,.T.);
#393=EDGE_CURVE('',#326,#326,#64,.T.);
#394=EDGE_CURVE('',#327,#327,#65,.T.);
#395=EDGE_CURVE('',#328,#328,#66,.T.);
#396=EDGE_CURVE('',#329,#330,#190,.T.);
#397=EDGE_CURVE('',#330,#331,#67,.T.);
#398=EDGE_CURVE('',#331,#332,#191,.T.);
#399=EDGE_CURVE('',#332,#329,#68,.T.);
#400=EDGE_CURVE('',#287,#322,#192,.T.);
#401=EDGE_CURVE('',#288,#321,#193,.T.);
#402=EDGE_CURVE('',#289,#320,#194,.T.);
#403=EDGE_CURVE('',#319,#333,#195,.T.);
#404=EDGE_CURVE('',#333,#334,#196,.T.);
#405=EDGE_CURVE('',#334,#306,#197,.T.);
#406=EDGE_CURVE('',#305,#290,#198,.T.);
#407=EDGE_CURVE('',#304,#291,#199,.T.);
#408=EDGE_CURVE('',#330,#293,#200,.T.);
#409=EDGE_CURVE('',#329,#294,#201,.T.);
#410=EDGE_CURVE('',#332,#295,#202,.T.);
#411=EDGE_CURVE('',#331,#296,#203,.T.);
#412=EDGE_CURVE('',#328,#297,#204,.T.);
#413=EDGE_CURVE('',#327,#298,#205,.T.);
#414=EDGE_CURVE('',#326,#299,#206,.T.);
#415=EDGE_CURVE('',#325,#300,#207,.T.);
#416=EDGE_CURVE('',#324,#301,#208,.T.);
#417=EDGE_CURVE('',#323,#302,#209,.T.);
#418=EDGE_CURVE('',#335,#334,#210,.T.);
#419=EDGE_CURVE('',#307,#335,#211,.T.);
#420=EDGE_CURVE('',#335,#336,#33,.T.);
#421=EDGE_CURVE('',#336,#318,#34,.T.);
#422=EDGE_CURVE('',#317,#308,#212,.T.);
#423=EDGE_CURVE('',#309,#316,#213,.T.);
#424=EDGE_CURVE('',#311,#337,#214,.T.);
#425=EDGE_CURVE('',#337,#337,#69,.T.);
#426=EDGE_CURVE('',#312,#338,#215,.T.);
#427=EDGE_CURVE('',#338,#338,#70,.T.);
#428=EDGE_CURVE('',#333,#336,#216,.T.);
#429=ORIENTED_EDGE('',*,*,#339,.T.);
#430=ORIENTED_EDGE('',*,*,#340,.T.);
#431=ORIENTED_EDGE('',*,*,#341,.T.);
#432=ORIENTED_EDGE('',*,*,#342,.T.);
#433=ORIENTED_EDGE('',*,*,#343,.T.);
#434=ORIENTED_EDGE('',*,*,#344,.T.);
#435=ORIENTED_EDGE('',*,*,#345,.T.);
#436=ORIENTED_EDGE('',*,*,#346,.F.);
#437=ORIENTED_EDGE('',*,*,#339,.F.);
#438=ORIENTED_EDGE('',*,*,#347,.F.);
#439=ORIENTED_EDGE('',*,*,#348,.F.);
#440=ORIENTED_EDGE('',*,*,#349,.F.);
#441=ORIENTED_EDGE('',*,*,#350,.F.);
#442=ORIENTED_EDGE('',*,*,#351,.T.);
#443=ORIENTED_EDGE('',*,*,#352,.T.);
#444=ORIENTED_EDGE('',*,*,#353,.F.);
#445=ORIENTED_EDGE('',*,*,#354,.T.);
#446=ORIENTED_EDGE('',*,*,#355,.T.);
#447=ORIENTED_EDGE('',*,*,#356,.T.);
#448=ORIENTED_EDGE('',*,*,#357,.T.);
#449=ORIENTED_EDGE('',*,*,#358,.T.);
#450=ORIENTED_EDGE('',*,*,#359,.T.);
#451=ORIENTED_EDGE('',*,*,#360,.T.);
#452=ORIENTED_EDGE('',*,*,#361,.T.);
#453=ORIENTED_EDGE('',*,*,#362,.T.);
#454=ORIENTED_EDGE('',*,*,#363,.T.);
#455=ORIENTED_EDGE('',*,*,#340,.F.);
#456=ORIENTED_EDGE('',*,*,#353,.T.);
#457=ORIENTED_EDGE('',*,*,#364,.T.);
#458=ORIENTED_EDGE('',*,*,#365,.F.);
#459=ORIENTED_EDGE('',*,*,#341,.F.);
#460=ORIENTED_EDGE('',*,*,#365,.T.);
#461=ORIENTED_EDGE('',*,*,#366,.F.);
#462=ORIENTED_EDGE('',*,*,#367,.T.);
#463=ORIENTED_EDGE('',*,*,#368,.F.);
#464=ORIENTED_EDGE('',*,*,#369,.T.);
#465=ORIENTED_EDGE('',*,*,#370,.F.);
#466=ORIENTED_EDGE('',*,*,#371,.T.);
#467=ORIENTED_EDGE('',*,*,#372,.F.);
#468=ORIENTED_EDGE('',*,*,#373,.F.);
#469=ORIENTED_EDGE('',*,*,#374,.T.);
#470=ORIENTED_EDGE('',*,*,#375,.T.);
#471=ORIENTED_EDGE('',*,*,#342,.F.);
#472=ORIENTED_EDGE('',*,*,#373,.T.);
#473=ORIENTED_EDGE('',*,*,#376,.F.);
#474=ORIENTED_EDGE('',*,*,#377,.F.);
#475=ORIENTED_EDGE('',*,*,#343,.F.);
#476=ORIENTED_EDGE('',*,*,#377,.T.);
#477=ORIENTED_EDGE('',*,*,#378,.F.);
#478=ORIENTED_EDGE('',*,*,#379,.T.);
#479=ORIENTED_EDGE('',*,*,#344,.F.);
#480=ORIENTED_EDGE('',*,*,#379,.F.);
#481=ORIENTED_EDGE('',*,*,#380,.F.);
#482=ORIENTED_EDGE('',*,*,#381,.T.);
#483=ORIENTED_EDGE('',*,*,#345,.F.);
#484=ORIENTED_EDGE('',*,*,#381,.F.);
#485=ORIENTED_EDGE('',*,*,#382,.F.);
#486=ORIENTED_EDGE('',*,*,#383,.F.);
#487=ORIENTED_EDGE('',*,*,#384,.F.);
#488=ORIENTED_EDGE('',*,*,#385,.F.);
#489=ORIENTED_EDGE('',*,*,#386,.F.);
#490=ORIENTED_EDGE('',*,*,#387,.F.);
#491=ORIENTED_EDGE('',*,*,#388,.F.);
#492=ORIENTED_EDGE('',*,*,#389,.F.);
#493=ORIENTED_EDGE('',*,*,#390,.T.);
#494=ORIENTED_EDGE('',*,*,#391,.T.);
#495=ORIENTED_EDGE('',*,*,#392,.T.);
#496=ORIENTED_EDGE('',*,*,#393,.T.);
#497=ORIENTED_EDGE('',*,*,#394,.T.);
#498=ORIENTED_EDGE('',*,*,#395,.T.);
#499=ORIENTED_EDGE('',*,*,#396,.T.);
#500=ORIENTED_EDGE('',*,*,#397,.T.);
#501=ORIENTED_EDGE('',*,*,#398,.T.);
#502=ORIENTED_EDGE('',*,*,#399,.T.);
#503=ORIENTED_EDGE('',*,*,#347,.T.);
#504=ORIENTED_EDGE('',*,*,#346,.T.);
#505=ORIENTED_EDGE('',*,*,#389,.T.);
#506=ORIENTED_EDGE('',*,*,#400,.F.);
#507=ORIENTED_EDGE('',*,*,#348,.T.);
#508=ORIENTED_EDGE('',*,*,#400,.T.);
#509=ORIENTED_EDGE('',*,*,#388,.T.);
#510=ORIENTED_EDGE('',*,*,#401,.F.);
#511=ORIENTED_EDGE('',*,*,#349,.T.);
#512=ORIENTED_EDGE('',*,*,#401,.T.);
#513=ORIENTED_EDGE('',*,*,#387,.T.);
#514=ORIENTED_EDGE('',*,*,#402,.F.);
#515=ORIENTED_EDGE('',*,*,#350,.T.);
#516=ORIENTED_EDGE('',*,*,#402,.T.);
#517=ORIENTED_EDGE('',*,*,#386,.T.);
#518=ORIENTED_EDGE('',*,*,#403,.T.);
#519=ORIENTED_EDGE('',*,*,#404,.T.);
#520=ORIENTED_EDGE('',*,*,#405,.T.);
#521=ORIENTED_EDGE('',*,*,#368,.T.);
#522=ORIENTED_EDGE('',*,*,#406,.T.);
#523=ORIENTED_EDGE('',*,*,#406,.F.);
#524=ORIENTED_EDGE('',*,*,#367,.F.);
#525=ORIENTED_EDGE('',*,*,#407,.T.);
#526=ORIENTED_EDGE('',*,*,#351,.F.);
#527=ORIENTED_EDGE('',*,*,#352,.F.);
#528=ORIENTED_EDGE('',*,*,#407,.F.);
#529=ORIENTED_EDGE('',*,*,#366,.T.);
#530=ORIENTED_EDGE('',*,*,#364,.F.);
#531=ORIENTED_EDGE('',*,*,#354,.F.);
#532=ORIENTED_EDGE('',*,*,#408,.F.);
#533=ORIENTED_EDGE('',*,*,#396,.F.);
#534=ORIENTED_EDGE('',*,*,#409,.T.);
#535=ORIENTED_EDGE('',*,*,#355,.F.);
#536=ORIENTED_EDGE('',*,*,#409,.F.);
#537=ORIENTED_EDGE('',*,*,#399,.F.);
#538=ORIENTED_EDGE('',*,*,#410,.T.);
#539=ORIENTED_EDGE('',*,*,#356,.F.);
#540=ORIENTED_EDGE('',*,*,#410,.F.);
#541=ORIENTED_EDGE('',*,*,#398,.F.);
#542=ORIENTED_EDGE('',*,*,#411,.T.);
#543=ORIENTED_EDGE('',*,*,#357,.F.);
#544=ORIENTED_EDGE('',*,*,#411,.F.);
#545=ORIENTED_EDGE('',*,*,#397,.F.);
#546=ORIENTED_EDGE('',*,*,#408,.T.);
#547=ORIENTED_EDGE('',*,*,#395,.F.);
#548=ORIENTED_EDGE('',*,*,#412,.T.);
#549=ORIENTED_EDGE('',*,*,#358,.F.);
#550=ORIENTED_EDGE('',*,*,#412,.F.);
#551=ORIENTED_EDGE('',*,*,#394,.F.);
#552=ORIENTED_EDGE('',*,*,#413,.T.);
#553=ORIENTED_EDGE('',*,*,#359,.F.);
#554=ORIENTED_EDGE('',*,*,#413,.F.);
#555=ORIENTED_EDGE('',*,*,#393,.F.);
#556=ORIENTED_EDGE('',*,*,#414,.T.);
#557=ORIENTED_EDGE('',*,*,#360,.F.);
#558=ORIENTED_EDGE('',*,*,#414,.F.);
#559=ORIENTED_EDGE('',*,*,#392,.F.);
#560=ORIENTED_EDGE('',*,*,#415,.T.);
#561=ORIENTED_EDGE('',*,*,#361,.F.);
#562=ORIENTED_EDGE('',*,*,#415,.F.);
#563=ORIENTED_EDGE('',*,*,#391,.F.);
#564=ORIENTED_EDGE('',*,*,#416,.T.);
#565=ORIENTED_EDGE('',*,*,#362,.F.);
#566=ORIENTED_EDGE('',*,*,#416,.F.);
#567=ORIENTED_EDGE('',*,*,#390,.F.);
#568=ORIENTED_EDGE('',*,*,#417,.T.);
#569=ORIENTED_EDGE('',*,*,#363,.F.);
#570=ORIENTED_EDGE('',*,*,#417,.F.);
#571=ORIENTED_EDGE('',*,*,#405,.F.);
#572=ORIENTED_EDGE('',*,*,#418,.F.);
#573=ORIENTED_EDGE('',*,*,#419,.F.);
#574=ORIENTED_EDGE('',*,*,#369,.F.);
#575=ORIENTED_EDGE('',*,*,#370,.T.);
#576=ORIENTED_EDGE('',*,*,#419,.T.);
#577=ORIENTED_EDGE('',*,*,#420,.T.);
#578=ORIENTED_EDGE('',*,*,#421,.T.);
#579=ORIENTED_EDGE('',*,*,#384,.T.);
#580=ORIENTED_EDGE('',*,*,#422,.T.);
#581=ORIENTED_EDGE('',*,*,#423,.F.);
#582=ORIENTED_EDGE('',*,*,#371,.F.);
#583=ORIENTED_EDGE('',*,*,#422,.F.);
#584=ORIENTED_EDGE('',*,*,#383,.T.);
#585=ORIENTED_EDGE('',*,*,#378,.T.);
#586=ORIENTED_EDGE('',*,*,#376,.T.);
#587=ORIENTED_EDGE('',*,*,#372,.T.);
#588=ORIENTED_EDGE('',*,*,#423,.T.);
#589=ORIENTED_EDGE('',*,*,#382,.T.);
#590=ORIENTED_EDGE('',*,*,#380,.T.);
#591=ORIENTED_EDGE('',*,*,#374,.F.);
#592=ORIENTED_EDGE('',*,*,#424,.T.);
#593=ORIENTED_EDGE('',*,*,#425,.T.);
#594=ORIENTED_EDGE('',*,*,#424,.F.);
#595=ORIENTED_EDGE('',*,*,#375,.F.);
#596=ORIENTED_EDGE('',*,*,#426,.T.);
#597=ORIENTED_EDGE('',*,*,#427,.T.);
#598=ORIENTED_EDGE('',*,*,#426,.F.);
#599=ORIENTED_EDGE('',*,*,#403,.F.);
#600=ORIENTED_EDGE('',*,*,#385,.T.);
#601=ORIENTED_EDGE('',*,*,#421,.F.);
#602=ORIENTED_EDGE('',*,*,#428,.F.);
#603=ORIENTED_EDGE('',*,*,#404,.F.);
#604=ORIENTED_EDGE('',*,*,#428,.T.);
#605=ORIENTED_EDGE('',*,*,#420,.F.);
#606=ORIENTED_EDGE('',*,*,#418,.T.);
#607=ORIENTED_EDGE('',*,*,#425,.F.);
#608=ORIENTED_EDGE('',*,*,#427,.F.);
#609=PLANE('',#688);
#610=PLANE('',#689);
#611=PLANE('',#698);
#612=PLANE('',#699);
#613=PLANE('',#704);
#614=PLANE('',#705);
#615=PLANE('',#707);
#616=PLANE('',#709);
#617=PLANE('',#720);
#618=PLANE('',#721);
#619=PLANE('',#722);
#620=PLANE('',#723);
#621=PLANE('',#724);
#622=PLANE('',#725);
#623=PLANE('',#726);
#624=PLANE('',#728);
#625=PLANE('',#736);
#626=PLANE('',#740);
#627=PLANE('',#746);
#628=PLANE('',#747);
#629=PLANE('',#748);
#630=PLANE('',#749);
#631=ADVANCED_FACE('',(#71),#609,.F.);
#632=ADVANCED_FACE('',(#72,#35,#36,#37,#38,#39,#40,#41),#610,.F.);
#633=ADVANCED_FACE('',(#73),#611,.F.);
#634=ADVANCED_FACE('',(#74,#42,#43),#612,.T.);
#635=ADVANCED_FACE('',(#75),#613,.T.);
#636=ADVANCED_FACE('',(#76),#614,.T.);
#637=ADVANCED_FACE('',(#77),#615,.T.);
#638=ADVANCED_FACE('',(#78,#44,#45,#46,#47,#48,#49,#50),#616,.F.);
#639=ADVANCED_FACE('',(#79),#617,.F.);
#640=ADVANCED_FACE('',(#80),#618,.F.);
#641=ADVANCED_FACE('',(#81),#619,.F.);
#642=ADVANCED_FACE('',(#82),#620,.F.);
#643=ADVANCED_FACE('',(#83),#621,.F.);
#644=ADVANCED_FACE('',(#84),#622,.T.);
#645=ADVANCED_FACE('',(#85),#623,.F.);
#646=ADVANCED_FACE('',(#86),#15,.F.);
#647=ADVANCED_FACE('',(#87),#624,.F.);
#648=ADVANCED_FACE('',(#88),#16,.F.);
#649=ADVANCED_FACE('',(#89),#17,.F.);
#650=ADVANCED_FACE('',(#90),#18,.F.);
#651=ADVANCED_FACE('',(#91),#19,.F.);
#652=ADVANCED_FACE('',(#92),#20,.F.);
#653=ADVANCED_FACE('',(#93),#21,.F.);
#654=ADVANCED_FACE('',(#94),#22,.F.);
#655=ADVANCED_FACE('',(#95),#625,.T.);
#656=ADVANCED_FACE('',(#96),#23,.T.);
#657=ADVANCED_FACE('',(#97),#626,.T.);
#658=ADVANCED_FACE('',(#98),#24,.T.);
#659=ADVANCED_FACE('',(#99),#25,.F.);
#660=ADVANCED_FACE('',(#100),#26,.F.);
#661=ADVANCED_FACE('',(#101),#627,.T.);
#662=ADVANCED_FACE('',(#102),#628,.T.);
#663=ADVANCED_FACE('',(#103),#629,.T.);
#664=ADVANCED_FACE('',(#104),#630,.T.);
#665=CLOSED_SHELL('',(#631,#632,#633,#634,#635,#636,#637,#638,#639,#640,
#641,#642,#643,#644,#645,#646,#647,#648,#649,#650,#651,#652,#653,#654,#655,
#656,#657,#658,#659,#660,#661,#662,#663,#664));
#666=DERIVED_UNIT_ELEMENT(#669,1.);
#667=DERIVED_UNIT_ELEMENT(#1128,-3.);
#668=DIMENSIONAL_EXPONENTS(0.,1.,0.,0.,0.,0.,0.);
#669=(
CONVERSION_BASED_UNIT('gram',#671)
MASS_UNIT()
NAMED_UNIT(#668)
);
#670=(
MASS_UNIT()
NAMED_UNIT(*)
SI_UNIT(.KILO.,.GRAM.)
);
#671=MASS_MEASURE_WITH_UNIT(MASS_MEASURE(0.001),#670);
#672=DERIVED_UNIT((#666,#667));
#673=MEASURE_REPRESENTATION_ITEM('density measure',
POSITIVE_RATIO_MEASURE(1.),#672);
#674=PROPERTY_DEFINITION_REPRESENTATION(#679,#676);
#675=PROPERTY_DEFINITION_REPRESENTATION(#680,#677);
#676=REPRESENTATION('material name',(#678),#1125);
#677=REPRESENTATION('density',(#673),#1125);
#678=DESCRIPTIVE_REPRESENTATION_ITEM('\X2\04220438043F043E0432044B0435\X0\',
'\X2\04220438043F043E0432044B0435\X0\');
#679=PROPERTY_DEFINITION('material property','material name',#1135);
#680=PROPERTY_DEFINITION('material property','density of part',#1135);
#681=DATE_TIME_ROLE('creation_date');
#682=APPLIED_DATE_AND_TIME_ASSIGNMENT(#683,#681,(#1135));
#683=DATE_AND_TIME(#684,#685);
#684=CALENDAR_DATE(2025,17,9);
#685=LOCAL_TIME(0,0,0.,#686);
#686=COORDINATED_UNIVERSAL_TIME_OFFSET(0,0,.BEHIND.);
#687=AXIS2_PLACEMENT_3D('',#938,#750,#751);
#688=AXIS2_PLACEMENT_3D('',#939,#752,#753);
#689=AXIS2_PLACEMENT_3D('',#956,#762,#763);
#690=AXIS2_PLACEMENT_3D('',#974,#772,#773);
#691=AXIS2_PLACEMENT_3D('',#977,#775,#776);
#692=AXIS2_PLACEMENT_3D('',#979,#777,#778);
#693=AXIS2_PLACEMENT_3D('',#981,#779,#780);
#694=AXIS2_PLACEMENT_3D('',#983,#781,#782);
#695=AXIS2_PLACEMENT_3D('',#985,#783,#784);
#696=AXIS2_PLACEMENT_3D('',#987,#785,#786);
#697=AXIS2_PLACEMENT_3D('',#989,#787,#788);
#698=AXIS2_PLACEMENT_3D('',#990,#789,#790);
#699=AXIS2_PLACEMENT_3D('',#994,#793,#794);
#700=AXIS2_PLACEMENT_3D('',#1004,#799,#800);
#701=AXIS2_PLACEMENT_3D('',#1008,#802,#803);
#702=AXIS2_PLACEMENT_3D('',#1011,#805,#806);
#703=AXIS2_PLACEMENT_3D('',#1013,#807,#808);
#704=AXIS2_PLACEMENT_3D('',#1014,#809,#810);
#705=AXIS2_PLACEMENT_3D('',#1018,#813,#814);
#706=AXIS2_PLACEMENT_3D('',#1020,#815,#816);
#707=AXIS2_PLACEMENT_3D('',#1022,#818,#819);
#708=AXIS2_PLACEMENT_3D('',#1024,#820,#821);
#709=AXIS2_PLACEMENT_3D('',#1026,#823,#824);
#710=AXIS2_PLACEMENT_3D('',#1028,#825,#826);
#711=AXIS2_PLACEMENT_3D('',#1032,#828,#829);
#712=AXIS2_PLACEMENT_3D('',#1043,#835,#836);
#713=AXIS2_PLACEMENT_3D('',#1045,#837,#838);
#714=AXIS2_PLACEMENT_3D('',#1047,#839,#840);
#715=AXIS2_PLACEMENT_3D('',#1049,#841,#842);
#716=AXIS2_PLACEMENT_3D('',#1051,#843,#844);
#717=AXIS2_PLACEMENT_3D('',#1053,#845,#846);
#718=AXIS2_PLACEMENT_3D('',#1058,#848,#849);
#719=AXIS2_PLACEMENT_3D('',#1061,#851,#852);
#720=AXIS2_PLACEMENT_3D('',#1062,#853,#854);
#721=AXIS2_PLACEMENT_3D('',#1064,#856,#857);
#722=AXIS2_PLACEMENT_3D('',#1066,#859,#860);
#723=AXIS2_PLACEMENT_3D('',#1068,#862,#863);
#724=AXIS2_PLACEMENT_3D('',#1075,#868,#869);
#725=AXIS2_PLACEMENT_3D('',#1077,#871,#872);
#726=AXIS2_PLACEMENT_3D('',#1078,#873,#874);
#727=AXIS2_PLACEMENT_3D('',#1081,#877,#878);
#728=AXIS2_PLACEMENT_3D('',#1083,#880,#881);
#729=AXIS2_PLACEMENT_3D('',#1085,#883,#884);
#730=AXIS2_PLACEMENT_3D('',#1086,#885,#886);
#731=AXIS2_PLACEMENT_3D('',#1088,#888,#889);
#732=AXIS2_PLACEMENT_3D('',#1090,#891,#892);
#733=AXIS2_PLACEMENT_3D('',#1092,#894,#895);
#734=AXIS2_PLACEMENT_3D('',#1094,#897,#898);
#735=AXIS2_PLACEMENT_3D('',#1096,#900,#901);
#736=AXIS2_PLACEMENT_3D('',#1098,#903,#904);
#737=AXIS2_PLACEMENT_3D('',#1102,#907,#908);
#738=AXIS2_PLACEMENT_3D('',#1104,#909,#910);
#739=AXIS2_PLACEMENT_3D('',#1105,#911,#912);
#740=AXIS2_PLACEMENT_3D('',#1107,#914,#915);
#741=AXIS2_PLACEMENT_3D('',#1109,#917,#918);
#742=AXIS2_PLACEMENT_3D('',#1110,#919,#920);
#743=AXIS2_PLACEMENT_3D('',#1113,#922,#923);
#744=AXIS2_PLACEMENT_3D('',#1114,#924,#925);
#745=AXIS2_PLACEMENT_3D('',#1117,#927,#928);
#746=AXIS2_PLACEMENT_3D('',#1118,#929,#930);
#747=AXIS2_PLACEMENT_3D('',#1120,#932,#933);
#748=AXIS2_PLACEMENT_3D('',#1121,#934,#935);
#749=AXIS2_PLACEMENT_3D('',#1122,#936,#937);
#750=DIRECTION('axis',(0.,0.,1.));
#751=DIRECTION('refdir',(1.,0.,0.));
#752=DIRECTION('center_axis',(0.,0.,1.));
#753=DIRECTION('ref_axis',(-1.,0.,0.));
#754=DIRECTION('',(1.,0.,0.));
#755=DIRECTION('',(0.0623782861551805,0.998052578482889,0.));
#756=DIRECTION('',(1.,0.,0.));
#757=DIRECTION('',(-0.0623782861551805,-0.998052578482889,0.));
#758=DIRECTION('',(-0.728827238155649,-0.684697639051289,0.));
#759=DIRECTION('',(0.,-1.,0.));
#760=DIRECTION('',(-1.,0.,0.));
#761=DIRECTION('',(0.,-1.,0.));
#762=DIRECTION('center_axis',(0.,-1.,0.));
#763=DIRECTION('ref_axis',(1.,0.,0.));
#764=DIRECTION('',(-0.5,0.,-0.866025403784438));
#765=DIRECTION('',(1.,0.,0.));
#766=DIRECTION('',(-0.5,0.,0.866025403784438));
#767=DIRECTION('',(1.,0.,0.));
#768=DIRECTION('',(0.,0.,-1.));
#769=DIRECTION('',(1.,0.,0.));
#770=DIRECTION('',(0.,0.,-1.));
#771=DIRECTION('',(1.,0.,0.));
#772=DIRECTION('center_axis',(0.,-1.,0.));
#773=DIRECTION('ref_axis',(-4.03717463500056E-16,0.,-1.));
#774=DIRECTION('',(-1.,0.,0.));
#775=DIRECTION('center_axis',(0.,-1.,0.));
#776=DIRECTION('ref_axis',(0.,0.,1.));
#777=DIRECTION('center_axis',(0.,-1.,0.));
#778=DIRECTION('ref_axis',(1.,0.,0.));
#779=DIRECTION('center_axis',(0.,-1.,0.));
#780=DIRECTION('ref_axis',(1.,0.,0.));
#781=DIRECTION('center_axis',(0.,-1.,0.));
#782=DIRECTION('ref_axis',(1.,0.,0.));
#783=DIRECTION('center_axis',(0.,-1.,0.));
#784=DIRECTION('ref_axis',(1.,0.,0.));
#785=DIRECTION('center_axis',(0.,-1.,0.));
#786=DIRECTION('ref_axis',(1.,0.,0.));
#787=DIRECTION('center_axis',(0.,-1.,0.));
#788=DIRECTION('ref_axis',(1.,0.,0.));
#789=DIRECTION('center_axis',(0.998052578482889,-0.0623782861551805,0.));
#790=DIRECTION('ref_axis',(0.0623782861551805,0.998052578482889,0.));
#791=DIRECTION('',(0.0623782861551805,0.998052578482889,0.));
#792=DIRECTION('',(0.,0.,1.));
#793=DIRECTION('center_axis',(0.,1.,0.));
#794=DIRECTION('ref_axis',(-1.,0.,0.));
#795=DIRECTION('',(1.,2.77606537888337E-16,0.));
#796=DIRECTION('',(0.,0.,-1.));
#797=DIRECTION('',(1.,0.,0.));
#798=DIRECTION('',(0.,0.,1.));
#799=DIRECTION('center_axis',(0.,-1.,0.));
#800=DIRECTION('ref_axis',(-1.,0.,-1.86985285720573E-15));
#801=DIRECTION('',(1.,0.,0.));
#802=DIRECTION('center_axis',(0.,-1.,0.));
#803=DIRECTION('ref_axis',(1.,0.,-1.86985285720573E-15));
#804=DIRECTION('',(0.,0.,1.));
#805=DIRECTION('center_axis',(0.,-1.,0.));
#806=DIRECTION('ref_axis',(1.,0.,0.));
#807=DIRECTION('center_axis',(0.,-1.,0.));
#808=DIRECTION('ref_axis',(1.,0.,0.));
#809=DIRECTION('center_axis',(0.998052578482889,-0.0623782861551805,0.));
#810=DIRECTION('ref_axis',(0.0623782861551805,0.998052578482889,0.));
#811=DIRECTION('',(0.0623782861551805,0.998052578482889,0.));
#812=DIRECTION('',(0.,0.,1.));
#813=DIRECTION('center_axis',(0.684697639051289,-0.728827238155649,0.));
#814=DIRECTION('ref_axis',(0.,0.,-1.));
#815=DIRECTION('center_axis',(-0.684697639051289,0.728827238155649,0.));
#816=DIRECTION('ref_axis',(0.728827238155649,0.684697639051289,-4.75104427363266E-17));
#817=DIRECTION('',(5.55111512312578E-17,0.,-1.));
#818=DIRECTION('center_axis',(1.,0.,5.55111512312578E-17));
#819=DIRECTION('ref_axis',(5.55111512312578E-17,0.,-1.));
#820=DIRECTION('center_axis',(-1.,0.,-5.55111512312578E-17));
#821=DIRECTION('ref_axis',(0.,-1.,-4.32836309538362E-18));
#822=DIRECTION('',(5.55111512312578E-17,0.,-1.));
#823=DIRECTION('center_axis',(0.,1.,0.));
#824=DIRECTION('ref_axis',(0.,0.,1.));
#825=DIRECTION('center_axis',(0.,1.,0.));
#826=DIRECTION('ref_axis',(1.,0.,-1.86985285720573E-15));
#827=DIRECTION('',(1.,0.,0.));
#828=DIRECTION('center_axis',(0.,1.,0.));
#829=DIRECTION('ref_axis',(-1.,0.,-1.86985285720573E-15));
#830=DIRECTION('',(7.40148683083438E-17,0.,1.));
#831=DIRECTION('',(-1.,0.,0.));
#832=DIRECTION('',(0.5,0.,-0.866025403784438));
#833=DIRECTION('',(-1.,0.,0.));
#834=DIRECTION('',(0.5,0.,0.866025403784438));
#835=DIRECTION('center_axis',(0.,1.,0.));
#836=DIRECTION('ref_axis',(1.,0.,0.));
#837=DIRECTION('center_axis',(0.,1.,0.));
#838=DIRECTION('ref_axis',(1.,0.,0.));
#839=DIRECTION('center_axis',(0.,1.,0.));
#840=DIRECTION('ref_axis',(1.,0.,0.));
#841=DIRECTION('center_axis',(0.,1.,0.));
#842=DIRECTION('ref_axis',(1.,0.,0.));
#843=DIRECTION('center_axis',(0.,1.,0.));
#844=DIRECTION('ref_axis',(1.,0.,0.));
#845=DIRECTION('center_axis',(0.,1.,0.));
#846=DIRECTION('ref_axis',(1.,0.,0.));
#847=DIRECTION('',(-1.,0.,0.));
#848=DIRECTION('center_axis',(0.,1.,0.));
#849=DIRECTION('ref_axis',(0.,0.,1.));
#850=DIRECTION('',(1.,0.,0.));
#851=DIRECTION('center_axis',(0.,1.,0.));
#852=DIRECTION('ref_axis',(-4.03717463500056E-16,0.,-1.));
#853=DIRECTION('center_axis',(0.866025403784438,0.,-0.5));
#854=DIRECTION('ref_axis',(0.5,0.,0.866025403784438));
#855=DIRECTION('',(0.,-1.,0.));
#856=DIRECTION('center_axis',(0.,0.,1.));
#857=DIRECTION('ref_axis',(-1.,0.,0.));
#858=DIRECTION('',(0.,-1.,0.));
#859=DIRECTION('center_axis',(-0.866025403784438,0.,-0.5));
#860=DIRECTION('ref_axis',(0.5,0.,-0.866025403784438));
#861=DIRECTION('',(0.,-1.,0.));
#862=DIRECTION('center_axis',(0.,0.,1.));
#863=DIRECTION('ref_axis',(-1.,0.,0.));
#864=DIRECTION('',(0.,1.,0.));
#865=DIRECTION('',(-0.728827238155649,0.684697639051289,0.));
#866=DIRECTION('',(-0.0623782861551805,0.998052578482889,0.));
#867=DIRECTION('',(0.0623782861551805,-0.998052578482889,0.));
#868=DIRECTION('center_axis',(-0.998052578482889,-0.0623782861551805,0.));
#869=DIRECTION('ref_axis',(0.0623782861551805,-0.998052578482889,0.));
#870=DIRECTION('',(0.0623782861551805,-0.998052578482889,0.));
#871=DIRECTION('center_axis',(0.,0.,-1.));
#872=DIRECTION('ref_axis',(-1.,0.,0.));
#873=DIRECTION('center_axis',(0.,0.,-1.));
#874=DIRECTION('ref_axis',(-1.,0.,0.));
#875=DIRECTION('',(0.,1.,0.));
#876=DIRECTION('',(0.,1.,0.));
#877=DIRECTION('center_axis',(0.,1.,0.));
#878=DIRECTION('ref_axis',(-4.03717463500056E-16,0.,-1.));
#879=DIRECTION('',(0.,1.,0.));
#880=DIRECTION('center_axis',(0.,0.,1.));
#881=DIRECTION('ref_axis',(1.,0.,0.));
#882=DIRECTION('',(0.,1.,0.));
#883=DIRECTION('center_axis',(0.,1.,0.));
#884=DIRECTION('ref_axis',(0.,0.,1.));
#885=DIRECTION('center_axis',(0.,1.,0.));
#886=DIRECTION('ref_axis',(1.,0.,0.));
#887=DIRECTION('',(0.,1.,0.));
#888=DIRECTION('center_axis',(0.,1.,0.));
#889=DIRECTION('ref_axis',(1.,0.,0.));
#890=DIRECTION('',(0.,1.,0.));
#891=DIRECTION('center_axis',(0.,1.,0.));
#892=DIRECTION('ref_axis',(1.,0.,0.));
#893=DIRECTION('',(0.,1.,0.));
#894=DIRECTION('center_axis',(0.,1.,0.));
#895=DIRECTION('ref_axis',(1.,0.,0.));
#896=DIRECTION('',(0.,1.,0.));
#897=DIRECTION('center_axis',(0.,1.,0.));
#898=DIRECTION('ref_axis',(1.,0.,0.));
#899=DIRECTION('',(0.,1.,0.));
#900=DIRECTION('center_axis',(0.,1.,0.));
#901=DIRECTION('ref_axis',(1.,0.,0.));
#902=DIRECTION('',(0.,1.,0.));
#903=DIRECTION('center_axis',(-0.998052578482889,-0.0623782861551805,0.));
#904=DIRECTION('ref_axis',(0.0623782861551805,-0.998052578482889,0.));
#905=DIRECTION('',(0.,0.,-1.));
#906=DIRECTION('',(0.0623782861551805,-0.998052578482889,0.));
#907=DIRECTION('center_axis',(-0.0623782861551805,0.998052578482889,0.));
#908=DIRECTION('ref_axis',(-0.705729746225971,-0.044108109139123,0.707106781186546));
#909=DIRECTION('center_axis',(0.684697639051289,0.728827238155649,0.));
#910=DIRECTION('ref_axis',(-0.728827238155649,0.684697639051289,-4.75104427363266E-17));
#911=DIRECTION('center_axis',(1.,0.,-7.40148683083438E-17));
#912=DIRECTION('ref_axis',(0.,-1.,-4.32836309538362E-18));
#913=DIRECTION('',(-0.0623782861551805,0.998052578482889,0.));
#914=DIRECTION('center_axis',(0.,0.,1.));
#915=DIRECTION('ref_axis',(1.,0.,0.));
#916=DIRECTION('',(-0.0623782861551805,-0.998052578482889,0.));
#917=DIRECTION('center_axis',(-0.0623782861551805,-0.998052578482889,0.));
#918=DIRECTION('ref_axis',(0.705729746225971,-0.044108109139123,0.707106781186546));
#919=DIRECTION('center_axis',(0.,-1.,0.));
#920=DIRECTION('ref_axis',(1.,0.,0.));
#921=DIRECTION('',(0.,-1.,0.));
#922=DIRECTION('center_axis',(0.,-1.,0.));
#923=DIRECTION('ref_axis',(1.,0.,0.));
#924=DIRECTION('center_axis',(0.,-1.,0.));
#925=DIRECTION('ref_axis',(1.,0.,0.));
#926=DIRECTION('',(0.,-1.,0.));
#927=DIRECTION('center_axis',(0.,-1.,0.));
#928=DIRECTION('ref_axis',(1.,0.,0.));
#929=DIRECTION('center_axis',(-1.,0.,7.40148683083438E-17));
#930=DIRECTION('ref_axis',(7.40148683083438E-17,0.,1.));
#931=DIRECTION('',(7.40148683083438E-17,0.,1.));
#932=DIRECTION('center_axis',(-0.684697639051289,-0.728827238155649,0.));
#933=DIRECTION('ref_axis',(0.,0.,1.));
#934=DIRECTION('center_axis',(0.,1.,0.));
#935=DIRECTION('ref_axis',(0.,0.,1.));
#936=DIRECTION('center_axis',(0.,1.,0.));
#937=DIRECTION('ref_axis',(0.,0.,1.));
#938=CARTESIAN_POINT('',(0.,0.,0.));
#939=CARTESIAN_POINT('Origin',(35.002000001,61.001,0.));
#940=CARTESIAN_POINT('',(9.22649730810374,8.,0.));
#941=CARTESIAN_POINT('',(28.6816463358972,8.,0.));
#942=CARTESIAN_POINT('',(1.7510000005,8.,0.));
#943=CARTESIAN_POINT('',(31.9941463358972,61.,0.));
#944=CARTESIAN_POINT('',(30.2558772840085,33.1876951697807,0.));
#945=CARTESIAN_POINT('',(35.,61.,0.));
#946=CARTESIAN_POINT('',(35.0010000005,61.,0.));
#947=CARTESIAN_POINT('',(31.6247565723104,6.99610515696578,0.));
#948=CARTESIAN_POINT('',(33.2500350194572,33.0005603113152,0.));
#949=CARTESIAN_POINT('',(29.5,5.,0.));
#950=CARTESIAN_POINT('',(45.4654760878547,19.9987860104501,0.));
#951=CARTESIAN_POINT('',(29.5,0.,0.));
#952=CARTESIAN_POINT('',(29.5,30.5005,0.));
#953=CARTESIAN_POINT('',(9.22649730810374,0.,0.));
#954=CARTESIAN_POINT('',(17.5010000005,0.,0.));
#955=CARTESIAN_POINT('',(9.22649730810374,61.001,0.));
#956=CARTESIAN_POINT('Origin',(-31.5,8.,-120.));
#957=CARTESIAN_POINT('',(15.,8.,10.));
#958=CARTESIAN_POINT('',(-21.8450769689424,7.99999999999999,-53.8175453189941));
#959=CARTESIAN_POINT('',(-15.,8.,10.));
#960=CARTESIAN_POINT('',(-8.25,8.,10.));
#961=CARTESIAN_POINT('',(-9.22649730810374,8.,0.));
#962=CARTESIAN_POINT('',(11.0833256229943,7.99999999999999,-35.1776452093892));
#963=CARTESIAN_POINT('',(-28.6816463358972,8.,0.));
#964=CARTESIAN_POINT('',(-33.25,8.,0.));
#965=CARTESIAN_POINT('',(-28.6816463358972,8.,110.));
#966=CARTESIAN_POINT('',(-28.6816463358972,8.,-120.));
#967=CARTESIAN_POINT('',(28.6816463358972,8.,110.));
#968=CARTESIAN_POINT('',(-15.75,8.,110.));
#969=CARTESIAN_POINT('',(28.6816463358972,8.,-120.));
#970=CARTESIAN_POINT('',(-15.5,8.,31.));
#971=CARTESIAN_POINT('',(15.5,8.,31.));
#972=CARTESIAN_POINT('',(-8.,8.,31.));
#973=CARTESIAN_POINT('',(15.5,8.,42.));
#974=CARTESIAN_POINT('Origin',(15.5,8.,36.5));
#975=CARTESIAN_POINT('',(-15.5,8.,42.));
#976=CARTESIAN_POINT('',(-23.5,8.,42.));
#977=CARTESIAN_POINT('Origin',(-15.5,8.,36.5));
#978=CARTESIAN_POINT('',(19.0000000000006,8.,25.5499999999999));
#979=CARTESIAN_POINT('Origin',(21.0500000000006,8.,25.5499999999999));
#980=CARTESIAN_POINT('',(-23.1000000000004,8.,25.5499999999998));
#981=CARTESIAN_POINT('Origin',(-21.0500000000004,8.,25.5499999999998));
#982=CARTESIAN_POINT('',(19.0000000000005,8.,90.5499999999998));
#983=CARTESIAN_POINT('Origin',(21.0500000000005,8.,90.5499999999998));
#984=CARTESIAN_POINT('',(-23.1000000000003,8.,90.5499999999989));
#985=CARTESIAN_POINT('Origin',(-21.0500000000003,8.,90.5499999999989));
#986=CARTESIAN_POINT('',(19.0000000000005,8.,48.4500000000004));
#987=CARTESIAN_POINT('Origin',(21.0500000000005,8.,48.4500000000004));
#988=CARTESIAN_POINT('',(-23.1000000000003,8.,48.4499999999995));
#989=CARTESIAN_POINT('Origin',(-21.0500000000003,8.,48.4499999999995));
#990=CARTESIAN_POINT('Origin',(28.5058422645513,5.18713485846553,-120.));
#991=CARTESIAN_POINT('',(31.9941463358972,61.,110.));
#992=CARTESIAN_POINT('',(29.3628461556019,18.8991971152749,110.));
#993=CARTESIAN_POINT('',(31.9941463358972,61.,-120.));
#994=CARTESIAN_POINT('Origin',(35.,61.,-120.));
#995=CARTESIAN_POINT('',(-31.9941463358972,61.,110.));
#996=CARTESIAN_POINT('',(-31.9941463358972,61.,110.));
#997=CARTESIAN_POINT('',(-31.9941463358972,61.,0.));
#998=CARTESIAN_POINT('',(-31.9941463358972,61.,-120.));
#999=CARTESIAN_POINT('',(-35.,61.,0.));
#1000=CARTESIAN_POINT('',(0.,61.,0.));
#1001=CARTESIAN_POINT('',(-35.,61.,118.));
#1002=CARTESIAN_POINT('',(-35.,61.,-120.));
#1003=CARTESIAN_POINT('',(-32.9960975572648,61.,120.));
#1004=CARTESIAN_POINT('Origin',(-32.9960975572648,61.,118.));
#1005=CARTESIAN_POINT('',(32.9960975572648,61.,120.));
#1006=CARTESIAN_POINT('',(17.5,61.,120.));
#1007=CARTESIAN_POINT('',(35.,61.,118.));
#1008=CARTESIAN_POINT('Origin',(32.9960975572648,61.,118.));
#1009=CARTESIAN_POINT('',(35.,61.,-120.));
#1010=CARTESIAN_POINT('',(27.45,61.,115.));
#1011=CARTESIAN_POINT('Origin',(30.,61.,115.));
#1012=CARTESIAN_POINT('',(-32.55,61.,115.));
#1013=CARTESIAN_POINT('Origin',(-30.,61.,115.));
#1014=CARTESIAN_POINT('Origin',(31.5,4.99999999999999,-120.));
#1015=CARTESIAN_POINT('',(31.6247565723104,6.99610515696578,118.));
#1016=CARTESIAN_POINT('',(31.2256809338521,0.610894941634239,118.));
#1017=CARTESIAN_POINT('',(31.6247565723104,6.99610515696578,-120.));
#1018=CARTESIAN_POINT('Origin',(30.5623782861552,5.99805257848289,-120.));
#1019=CARTESIAN_POINT('',(29.5,5.,120.));
#1020=CARTESIAN_POINT('Origin',(29.4958541295752,4.99610515696578,118.));
#1021=CARTESIAN_POINT('',(29.5,5.,120.));
#1022=CARTESIAN_POINT('Origin',(29.5,0.,120.));
#1023=CARTESIAN_POINT('',(29.5,1.38777878078145E-16,119.974912410532));
#1024=CARTESIAN_POINT('Origin',(29.5,5.06243908376247,118.));
#1025=CARTESIAN_POINT('',(29.5,0.,120.));
#1026=CARTESIAN_POINT('Origin',(0.,0.,0.));
#1027=CARTESIAN_POINT('',(29.1835975572648,0.,120.));
#1028=CARTESIAN_POINT('Origin',(29.1835975572648,0.,118.));
#1029=CARTESIAN_POINT('',(-29.1835975572648,0.,120.));
#1030=CARTESIAN_POINT('',(-29.5,0.,120.));
#1031=CARTESIAN_POINT('',(-29.5,0.,119.974912410532));
#1032=CARTESIAN_POINT('Origin',(-29.1835975572648,0.,118.));
#1033=CARTESIAN_POINT('',(-29.5,0.,0.));
#1034=CARTESIAN_POINT('',(-29.5,0.,-120.));
#1035=CARTESIAN_POINT('',(-9.22649730810374,0.,0.));
#1036=CARTESIAN_POINT('',(-17.5,0.,0.));
#1037=CARTESIAN_POINT('',(-15.,0.,10.));
#1038=CARTESIAN_POINT('',(-10.9599364905389,-8.88178419700125E-15,3.00240473580836));
#1039=CARTESIAN_POINT('',(15.,0.,10.));
#1040=CARTESIAN_POINT('',(7.5,0.,10.));
#1041=CARTESIAN_POINT('',(8.07318514459077,-8.88178419700125E-15,-1.99759526419165));
#1042=CARTESIAN_POINT('',(-23.1000000000003,0.,48.4499999999995));
#1043=CARTESIAN_POINT('Origin',(-21.0500000000003,0.,48.4499999999995));
#1044=CARTESIAN_POINT('',(19.0000000000005,0.,48.4500000000004));
#1045=CARTESIAN_POINT('Origin',(21.0500000000005,0.,48.4500000000004));
#1046=CARTESIAN_POINT('',(-23.1000000000003,0.,90.5499999999989));
#1047=CARTESIAN_POINT('Origin',(-21.0500000000003,0.,90.5499999999989));
#1048=CARTESIAN_POINT('',(19.0000000000005,0.,90.5499999999998));
#1049=CARTESIAN_POINT('Origin',(21.0500000000005,0.,90.5499999999998));
#1050=CARTESIAN_POINT('',(-23.1000000000004,0.,25.5499999999998));
#1051=CARTESIAN_POINT('Origin',(-21.0500000000004,0.,25.5499999999998));
#1052=CARTESIAN_POINT('',(19.0000000000006,0.,25.5499999999999));
#1053=CARTESIAN_POINT('Origin',(21.0500000000006,0.,25.5499999999999));
#1054=CARTESIAN_POINT('',(15.5,0.,31.));
#1055=CARTESIAN_POINT('',(-15.5,0.,31.));
#1056=CARTESIAN_POINT('',(7.75,0.,31.));
#1057=CARTESIAN_POINT('',(-15.5,0.,42.));
#1058=CARTESIAN_POINT('Origin',(-15.5,0.,36.5));
#1059=CARTESIAN_POINT('',(15.5,0.,42.));
#1060=CARTESIAN_POINT('',(-7.75,0.,42.));
#1061=CARTESIAN_POINT('Origin',(15.5,0.,36.5));
#1062=CARTESIAN_POINT('Origin',(9.22649730810373,61.001,-2.22044604925031E-15));
#1063=CARTESIAN_POINT('',(15.,61.001,10.));
#1064=CARTESIAN_POINT('Origin',(15.,61.001,10.));
#1065=CARTESIAN_POINT('',(-15.,61.001,10.));
#1066=CARTESIAN_POINT('Origin',(-15.,61.001,10.));
#1067=CARTESIAN_POINT('',(-9.22649730810374,61.001,0.));
#1068=CARTESIAN_POINT('Origin',(-35.,61.001,0.));
#1069=CARTESIAN_POINT('',(-29.5,5.,0.));
#1070=CARTESIAN_POINT('',(-29.5,30.5005,0.));
#1071=CARTESIAN_POINT('',(-31.6247565723104,6.99610515696578,0.));
#1072=CARTESIAN_POINT('',(-45.464944898446,19.9982869839113,0.));
#1073=CARTESIAN_POINT('',(-35.0000311284047,61.0004980544747,0.));
#1074=CARTESIAN_POINT('',(-32.005873392956,61.1876329129403,0.));
#1075=CARTESIAN_POINT('Origin',(-32.0058422645513,61.1871348584656,-120.));
#1076=CARTESIAN_POINT('',(-31.1128461556019,46.8991971152749,110.));
#1077=CARTESIAN_POINT('Origin',(0.,34.5,110.));
#1078=CARTESIAN_POINT('Origin',(15.5,0.,31.));
#1079=CARTESIAN_POINT('',(-15.5,0.,31.));
#1080=CARTESIAN_POINT('',(15.5,0.,31.));
#1081=CARTESIAN_POINT('Origin',(15.5,0.,36.5));
#1082=CARTESIAN_POINT('',(15.5,0.,42.));
#1083=CARTESIAN_POINT('Origin',(-15.5,0.,42.));
#1084=CARTESIAN_POINT('',(-15.5,0.,42.));
#1085=CARTESIAN_POINT('Origin',(-15.5,0.,36.5));
#1086=CARTESIAN_POINT('Origin',(21.0500000000006,0.,25.5499999999999));
#1087=CARTESIAN_POINT('',(19.0000000000006,0.,25.5499999999999));
#1088=CARTESIAN_POINT('Origin',(-21.0500000000004,0.,25.5499999999998));
#1089=CARTESIAN_POINT('',(-23.1000000000004,0.,25.5499999999998));
#1090=CARTESIAN_POINT('Origin',(21.0500000000005,0.,90.5499999999998));
#1091=CARTESIAN_POINT('',(19.0000000000005,0.,90.5499999999998));
#1092=CARTESIAN_POINT('Origin',(-21.0500000000003,0.,90.5499999999989));
#1093=CARTESIAN_POINT('',(-23.1000000000003,0.,90.5499999999989));
#1094=CARTESIAN_POINT('Origin',(21.0500000000005,0.,48.4500000000004));
#1095=CARTESIAN_POINT('',(19.0000000000005,0.,48.4500000000004));
#1096=CARTESIAN_POINT('Origin',(-21.0500000000003,0.,48.4499999999995));
#1097=CARTESIAN_POINT('',(-23.1000000000003,0.,48.4499999999995));
#1098=CARTESIAN_POINT('Origin',(-35.,61.,-120.));
#1099=CARTESIAN_POINT('',(-31.6247565723104,6.99610515696578,118.));
#1100=CARTESIAN_POINT('',(-31.6247565723104,6.99610515696578,-120.));
#1101=CARTESIAN_POINT('',(-33.09046692607,30.4474708171206,118.));
#1102=CARTESIAN_POINT('Origin',(-31.0943617691043,30.572227389431,118.));
#1103=CARTESIAN_POINT('',(-29.5,5.,120.));
#1104=CARTESIAN_POINT('Origin',(-29.4958541295752,4.99610515696577,118.));
#1105=CARTESIAN_POINT('Origin',(-29.5,5.06243908376249,118.));
#1106=CARTESIAN_POINT('',(-31.0943617691043,30.572227389431,120.));
#1107=CARTESIAN_POINT('Origin',(-29.5,0.,120.));
#1108=CARTESIAN_POINT('',(29.2295757768864,0.7356515139446,120.));
#1109=CARTESIAN_POINT('Origin',(29.2295757768864,0.7356515139446,118.));
#1110=CARTESIAN_POINT('Origin',(30.,61.,115.));
#1111=CARTESIAN_POINT('',(27.45,46.,115.));
#1112=CARTESIAN_POINT('',(27.45,61.,115.));
#1113=CARTESIAN_POINT('Origin',(30.,46.,115.));
#1114=CARTESIAN_POINT('Origin',(-30.,61.,115.));
#1115=CARTESIAN_POINT('',(-32.55,46.,115.));
#1116=CARTESIAN_POINT('',(-32.55,61.,115.));
#1117=CARTESIAN_POINT('Origin',(-30.,46.,115.));
#1118=CARTESIAN_POINT('Origin',(-29.5,0.,-120.));
#1119=CARTESIAN_POINT('',(-29.5,5.,-120.));
#1120=CARTESIAN_POINT('Origin',(-30.5623782861552,5.99805257848289,-120.));
#1121=CARTESIAN_POINT('Origin',(30.,46.,115.));
#1122=CARTESIAN_POINT('Origin',(-30.,46.,115.));
#1123=UNCERTAINTY_MEASURE_WITH_UNIT(LENGTH_MEASURE(0.01),#1127,
'DISTANCE_ACCURACY_VALUE',
'Maximum model space distance between geometric entities at asserted c
onnectivities');
#1124=UNCERTAINTY_MEASURE_WITH_UNIT(LENGTH_MEASURE(0.01),#1127,
'DISTANCE_ACCURACY_VALUE',
'Maximum model space distance between geometric entities at asserted c
onnectivities');
#1125=(
GEOMETRIC_REPRESENTATION_CONTEXT(3)
GLOBAL_UNCERTAINTY_ASSIGNED_CONTEXT((#1123))
GLOBAL_UNIT_ASSIGNED_CONTEXT((#1127,#1129,#1130))
REPRESENTATION_CONTEXT('','3D')
);
#1126=(
GEOMETRIC_REPRESENTATION_CONTEXT(3)
GLOBAL_UNCERTAINTY_ASSIGNED_CONTEXT((#1124))
GLOBAL_UNIT_ASSIGNED_CONTEXT((#1127,#1129,#1130))
REPRESENTATION_CONTEXT('','3D')
);
#1127=(
LENGTH_UNIT()
NAMED_UNIT(*)
SI_UNIT(.MILLI.,.METRE.)
);
#1128=(
LENGTH_UNIT()
NAMED_UNIT(*)
SI_UNIT(.CENTI.,.METRE.)
);
#1129=(
NAMED_UNIT(*)
PLANE_ANGLE_UNIT()
SI_UNIT($,.RADIAN.)
);
#1130=(
NAMED_UNIT(*)
SI_UNIT($,.STERADIAN.)
SOLID_ANGLE_UNIT()
);
#1131=SHAPE_DEFINITION_REPRESENTATION(#1132,#1133);
#1132=PRODUCT_DEFINITION_SHAPE('',$,#1135);
#1133=SHAPE_REPRESENTATION('',(#687),#1125);
#1134=PRODUCT_DEFINITION_CONTEXT('part definition',#1139,'design');
#1135=PRODUCT_DEFINITION('\X2\041A04400435043F043B0435043D04380435\X0\_
\X2\043D043E0432043E0439\X0\_\X2\043A043E043B043E043D043A0438\X0\',
'\X2\041A04400435043F043B0435043D04380435\X0\_\X2\043D043E0432043E0439\X0\_
\X2\043A043E043B043E043D043A0438\X0\',#1136,#1134);
#1136=PRODUCT_DEFINITION_FORMATION('',$,#1141);
#1137=PRODUCT_RELATED_PRODUCT_CATEGORY(
'\X2\041A04400435043F043B0435043D04380435\X0\_\X2\043D043E0432043E0439\X0\_
\X2\043A043E043B043E043D043A0438\X0\',
'\X2\041A04400435043F043B0435043D04380435\X0\_\X2\043D043E0432043E0439\X0\_
\X2\043A043E043B043E043D043A0438\X0\',(#1141));
#1138=APPLICATION_PROTOCOL_DEFINITION('international standard',
'automotive_design',2009,#1139);
#1139=APPLICATION_CONTEXT(
'Core Data for Automotive Mechanical Design Process');
#1140=PRODUCT_CONTEXT('part definition',#1139,'mechanical');
#1141=PRODUCT('\X2\041A04400435043F043B0435043D04380435\X0\_\X2\043D043E0432043E0439\X0\_
\X2\043A043E043B043E043D043A0438\X0\',
'\X2\041A04400435043F043B0435043D04380435\X0\_\X2\043D043E0432043E0439\X0\_
\X2\043A043E043B043E043D043A0438\X0\',$,(#1140));
#1142=PRESENTATION_STYLE_ASSIGNMENT((#1143));
#1143=SURFACE_STYLE_USAGE(.BOTH.,#1146);
#1144=SURFACE_STYLE_RENDERING_WITH_PROPERTIES($,#1150,(#1145));
#1145=SURFACE_STYLE_TRANSPARENT(0.);
#1146=SURFACE_SIDE_STYLE('',(#1147,#1144));
#1147=SURFACE_STYLE_FILL_AREA(#1148);
#1148=FILL_AREA_STYLE('',(#1149));
#1149=FILL_AREA_STYLE_COLOUR('',#1150);
#1150=COLOUR_RGB('',0.749019607843137,0.749019607843137,0.749019607843137);
ENDSEC;
END-ISO-10303-21;
