ISO-10303-21;
HEADER;
/* Generated by software containing ST-Developer
 * from STEP Tools, Inc. (www.steptools.com) 
 */

FILE_DESCRIPTION(
/* description */ (''),
/* implementation_level */ '2;1');

FILE_NAME(
/* name */ '',
/* time_stamp */ '2025-09-19T18:32:05+03:00',
/* author */ ('I9232'),
/* organization */ (''),
/* preprocessor_version */ 'ST-DEVELOPER v19.2',
/* originating_system */ 'Autodesk Inventor 2023',
/* authorisation */ '');

FILE_SCHEMA (('AUTOMOTIVE_DESIGN { 1 0 10303 214 3 1 1 }'));
ENDSEC;

DATA;
#10=MECHANICAL_DESIGN_GEOMETRIC_PRESENTATION_REPRESENTATION('',(#13),#1793);
#11=SHAPE_REPRESENTATION_RELATIONSHIP('SRR','None',#1800,#12);
#12=ADVANCED_BREP_SHAPE_REPRESENTATION('',(#14),#1792);
#13=STYLED_ITEM('',(#1809),#14);
#14=MANIFOLD_SOLID_BREP('\X2\04220432043504400434043E0435\X0\ \X2\04420435043B043E\X0\1',
#1042);
#15=(
BOUNDED_SURFACE()
B_SPLINE_SURFACE(2,2,((#1663,#1664,#1665),(#1666,#1667,#1668),(#1669,#1670,
#1671)),.UNSPECIFIED.,.F.,.F.,.F.)
B_SPLINE_SURFACE_WITH_KNOTS((3,3),(3,3),(-1.5707963267949,0.),(-3.14159265358979,
-1.5707963267949),.UNSPECIFIED.)
GEOMETRIC_REPRESENTATION_ITEM()
RATIONAL_B_SPLINE_SURFACE(((1.,0.707106781186548,1.),(0.707106781186548,
0.500000000000001,0.707106781186548),(1.,0.707106781186548,1.)))
REPRESENTATION_ITEM('')
SURFACE()
);
#16=(
BOUNDED_SURFACE()
B_SPLINE_SURFACE(2,2,((#1679,#1680,#1681),(#1682,#1683,#1684),(#1685,#1686,
#1687)),.UNSPECIFIED.,.F.,.F.,.F.)
B_SPLINE_SURFACE_WITH_KNOTS((3,3),(3,3),(-1.5707963267949,0.),(1.5707963267949,
3.14159265358979),.UNSPECIFIED.)
GEOMETRIC_REPRESENTATION_ITEM()
RATIONAL_B_SPLINE_SURFACE(((1.,0.707106781186547,1.),(0.707106781186549,
0.500000000000001,0.707106781186549),(1.,0.707106781186547,1.)))
REPRESENTATION_ITEM('')
SURFACE()
);
#17=FACE_BOUND('',#202,.T.);
#18=FACE_BOUND('',#203,.T.);
#19=FACE_BOUND('',#204,.T.);
#20=FACE_BOUND('',#205,.T.);
#21=FACE_BOUND('',#206,.T.);
#22=FACE_BOUND('',#207,.T.);
#23=FACE_BOUND('',#208,.T.);
#24=FACE_BOUND('',#209,.T.);
#25=FACE_BOUND('',#210,.T.);
#26=FACE_BOUND('',#231,.T.);
#27=FACE_BOUND('',#232,.T.);
#28=FACE_BOUND('',#233,.T.);
#29=FACE_BOUND('',#234,.T.);
#30=FACE_BOUND('',#235,.T.);
#31=FACE_BOUND('',#236,.T.);
#32=FACE_BOUND('',#237,.T.);
#33=FACE_BOUND('',#238,.T.);
#34=FACE_BOUND('',#239,.T.);
#35=ELLIPSE('',#1076,2.82842712474609,2.);
#36=ELLIPSE('',#1079,2.82842712474619,2.);
#37=ELLIPSE('',#1092,2.82842712474619,2.);
#38=ELLIPSE('',#1095,2.82842712474609,2.);
#39=ELLIPSE('',#1098,1.41421356237225,1.);
#40=ELLIPSE('',#1099,1.41421356237395,1.);
#41=ELLIPSE('',#1101,1.41421356237307,1.);
#42=ELLIPSE('',#1103,1.4142135623731,1.);
#43=CYLINDRICAL_SURFACE('',#1075,2.);
#44=CYLINDRICAL_SURFACE('',#1078,2.);
#45=CYLINDRICAL_SURFACE('',#1091,2.);
#46=CYLINDRICAL_SURFACE('',#1094,2.);
#47=CYLINDRICAL_SURFACE('',#1097,1.);
#48=CYLINDRICAL_SURFACE('',#1100,1.);
#49=CYLINDRICAL_SURFACE('',#1102,1.);
#50=CYLINDRICAL_SURFACE('',#1104,1.);
#51=CYLINDRICAL_SURFACE('',#1118,1.);
#52=CYLINDRICAL_SURFACE('',#1123,1.);
#53=CYLINDRICAL_SURFACE('',#1127,1.);
#54=CYLINDRICAL_SURFACE('',#1129,2.);
#55=CYLINDRICAL_SURFACE('',#1132,2.);
#56=CYLINDRICAL_SURFACE('',#1135,2.);
#57=CYLINDRICAL_SURFACE('',#1136,2.);
#58=CYLINDRICAL_SURFACE('',#1137,2.55);
#59=CYLINDRICAL_SURFACE('',#1139,2.55);
#60=CYLINDRICAL_SURFACE('',#1144,2.1);
#61=CYLINDRICAL_SURFACE('',#1149,2.1);
#62=CYLINDRICAL_SURFACE('',#1158,2.55);
#63=CYLINDRICAL_SURFACE('',#1159,2.55);
#64=CYLINDRICAL_SURFACE('',#1163,2.1);
#65=CYLINDRICAL_SURFACE('',#1167,2.1);
#66=CIRCLE('',#1067,2.);
#67=CIRCLE('',#1068,2.5);
#68=CIRCLE('',#1071,2.);
#69=CIRCLE('',#1072,2.50000000000002);
#70=CIRCLE('',#1083,2.);
#71=CIRCLE('',#1084,2.50000000000002);
#72=CIRCLE('',#1087,2.);
#73=CIRCLE('',#1088,2.5);
#74=CIRCLE('',#1108,1.);
#75=CIRCLE('',#1109,1.);
#76=CIRCLE('',#1110,3.6);
#77=CIRCLE('',#1111,2.55);
#78=CIRCLE('',#1112,2.55);
#79=CIRCLE('',#1113,3.6);
#80=CIRCLE('',#1114,3.6);
#81=CIRCLE('',#1115,3.6);
#82=CIRCLE('',#1116,2.55);
#83=CIRCLE('',#1117,2.55);
#84=CIRCLE('',#1119,1.);
#85=CIRCLE('',#1120,1.);
#86=CIRCLE('',#1121,1.);
#87=CIRCLE('',#1122,2.);
#88=CIRCLE('',#1124,0.999999999999999);
#89=CIRCLE('',#1125,1.);
#90=CIRCLE('',#1126,2.);
#91=CIRCLE('',#1128,1.);
#92=CIRCLE('',#1130,2.);
#93=CIRCLE('',#1133,2.);
#94=CIRCLE('',#1138,2.55);
#95=CIRCLE('',#1140,2.55);
#96=CIRCLE('',#1142,2.1);
#97=CIRCLE('',#1143,2.1);
#98=CIRCLE('',#1145,2.1);
#99=CIRCLE('',#1147,2.1);
#100=CIRCLE('',#1148,2.1);
#101=CIRCLE('',#1150,2.1);
#102=CIRCLE('',#1154,2.1);
#103=CIRCLE('',#1155,2.1);
#104=CIRCLE('',#1156,2.55);
#105=CIRCLE('',#1157,2.55);
#106=CIRCLE('',#1161,2.1);
#107=CIRCLE('',#1162,2.1);
#108=CIRCLE('',#1165,2.1);
#109=CIRCLE('',#1166,2.1);
#110=CONICAL_SURFACE('',#1066,2.25,0.785398163397446);
#111=CONICAL_SURFACE('',#1070,2.25000000000001,0.785398163397463);
#112=CONICAL_SURFACE('',#1082,2.25000000000001,0.785398163397466);
#113=CONICAL_SURFACE('',#1086,2.25,0.785398163397447);
#114=CONICAL_SURFACE('',#1141,2.85,0.785398163397448);
#115=CONICAL_SURFACE('',#1146,2.85,0.785398163397448);
#116=CONICAL_SURFACE('',#1160,2.85,0.785398163397448);
#117=CONICAL_SURFACE('',#1164,2.85,0.785398163397448);
#118=FACE_OUTER_BOUND('',#175,.T.);
#119=FACE_OUTER_BOUND('',#176,.T.);
#120=FACE_OUTER_BOUND('',#177,.T.);
#121=FACE_OUTER_BOUND('',#178,.T.);
#122=FACE_OUTER_BOUND('',#179,.T.);
#123=FACE_OUTER_BOUND('',#180,.T.);
#124=FACE_OUTER_BOUND('',#181,.T.);
#125=FACE_OUTER_BOUND('',#182,.T.);
#126=FACE_OUTER_BOUND('',#183,.T.);
#127=FACE_OUTER_BOUND('',#184,.T.);
#128=FACE_OUTER_BOUND('',#185,.T.);
#129=FACE_OUTER_BOUND('',#186,.T.);
#130=FACE_OUTER_BOUND('',#187,.T.);
#131=FACE_OUTER_BOUND('',#188,.T.);
#132=FACE_OUTER_BOUND('',#189,.T.);
#133=FACE_OUTER_BOUND('',#190,.T.);
#134=FACE_OUTER_BOUND('',#191,.T.);
#135=FACE_OUTER_BOUND('',#192,.T.);
#136=FACE_OUTER_BOUND('',#193,.T.);
#137=FACE_OUTER_BOUND('',#194,.T.);
#138=FACE_OUTER_BOUND('',#195,.T.);
#139=FACE_OUTER_BOUND('',#196,.T.);
#140=FACE_OUTER_BOUND('',#197,.T.);
#141=FACE_OUTER_BOUND('',#198,.T.);
#142=FACE_OUTER_BOUND('',#199,.T.);
#143=FACE_OUTER_BOUND('',#200,.T.);
#144=FACE_OUTER_BOUND('',#201,.T.);
#145=FACE_OUTER_BOUND('',#211,.T.);
#146=FACE_OUTER_BOUND('',#212,.T.);
#147=FACE_OUTER_BOUND('',#213,.T.);
#148=FACE_OUTER_BOUND('',#214,.T.);
#149=FACE_OUTER_BOUND('',#215,.T.);
#150=FACE_OUTER_BOUND('',#216,.T.);
#151=FACE_OUTER_BOUND('',#217,.T.);
#152=FACE_OUTER_BOUND('',#218,.T.);
#153=FACE_OUTER_BOUND('',#219,.T.);
#154=FACE_OUTER_BOUND('',#220,.T.);
#155=FACE_OUTER_BOUND('',#221,.T.);
#156=FACE_OUTER_BOUND('',#222,.T.);
#157=FACE_OUTER_BOUND('',#223,.T.);
#158=FACE_OUTER_BOUND('',#224,.T.);
#159=FACE_OUTER_BOUND('',#225,.T.);
#160=FACE_OUTER_BOUND('',#226,.T.);
#161=FACE_OUTER_BOUND('',#227,.T.);
#162=FACE_OUTER_BOUND('',#228,.T.);
#163=FACE_OUTER_BOUND('',#229,.T.);
#164=FACE_OUTER_BOUND('',#230,.T.);
#165=FACE_OUTER_BOUND('',#240,.T.);
#166=FACE_OUTER_BOUND('',#241,.T.);
#167=FACE_OUTER_BOUND('',#242,.T.);
#168=FACE_OUTER_BOUND('',#243,.T.);
#169=FACE_OUTER_BOUND('',#244,.T.);
#170=FACE_OUTER_BOUND('',#245,.T.);
#171=FACE_OUTER_BOUND('',#246,.T.);
#172=FACE_OUTER_BOUND('',#247,.T.);
#173=FACE_OUTER_BOUND('',#248,.T.);
#174=FACE_OUTER_BOUND('',#249,.T.);
#175=EDGE_LOOP('',(#671,#672,#673,#674));
#176=EDGE_LOOP('',(#675,#676,#677,#678));
#177=EDGE_LOOP('',(#679,#680,#681,#682));
#178=EDGE_LOOP('',(#683,#684,#685,#686));
#179=EDGE_LOOP('',(#687,#688,#689,#690));
#180=EDGE_LOOP('',(#691,#692,#693,#694));
#181=EDGE_LOOP('',(#695,#696,#697,#698));
#182=EDGE_LOOP('',(#699,#700,#701,#702));
#183=EDGE_LOOP('',(#703,#704,#705,#706));
#184=EDGE_LOOP('',(#707,#708,#709,#710));
#185=EDGE_LOOP('',(#711,#712,#713,#714));
#186=EDGE_LOOP('',(#715,#716,#717,#718));
#187=EDGE_LOOP('',(#719,#720,#721,#722));
#188=EDGE_LOOP('',(#723,#724,#725,#726));
#189=EDGE_LOOP('',(#727,#728,#729,#730));
#190=EDGE_LOOP('',(#731,#732,#733,#734));
#191=EDGE_LOOP('',(#735,#736,#737,#738));
#192=EDGE_LOOP('',(#739,#740,#741,#742));
#193=EDGE_LOOP('',(#743,#744,#745,#746));
#194=EDGE_LOOP('',(#747,#748,#749,#750));
#195=EDGE_LOOP('',(#751,#752,#753,#754));
#196=EDGE_LOOP('',(#755,#756,#757,#758));
#197=EDGE_LOOP('',(#759,#760,#761,#762));
#198=EDGE_LOOP('',(#763,#764,#765,#766));
#199=EDGE_LOOP('',(#767,#768,#769,#770,#771,#772,#773,#774,#775,#776));
#200=EDGE_LOOP('',(#777,#778,#779,#780));
#201=EDGE_LOOP('',(#781,#782,#783,#784,#785,#786));
#202=EDGE_LOOP('',(#787));
#203=EDGE_LOOP('',(#788));
#204=EDGE_LOOP('',(#789));
#205=EDGE_LOOP('',(#790));
#206=EDGE_LOOP('',(#791));
#207=EDGE_LOOP('',(#792));
#208=EDGE_LOOP('',(#793));
#209=EDGE_LOOP('',(#794));
#210=EDGE_LOOP('',(#795,#796,#797,#798));
#211=EDGE_LOOP('',(#799,#800,#801,#802));
#212=EDGE_LOOP('',(#803,#804,#805,#806));
#213=EDGE_LOOP('',(#807,#808,#809,#810));
#214=EDGE_LOOP('',(#811,#812,#813,#814));
#215=EDGE_LOOP('',(#815,#816,#817,#818));
#216=EDGE_LOOP('',(#819,#820,#821,#822));
#217=EDGE_LOOP('',(#823,#824,#825,#826));
#218=EDGE_LOOP('',(#827,#828,#829,#830));
#219=EDGE_LOOP('',(#831,#832,#833,#834));
#220=EDGE_LOOP('',(#835,#836,#837,#838));
#221=EDGE_LOOP('',(#839,#840,#841,#842));
#222=EDGE_LOOP('',(#843,#844,#845,#846));
#223=EDGE_LOOP('',(#847,#848,#849,#850));
#224=EDGE_LOOP('',(#851,#852,#853,#854,#855));
#225=EDGE_LOOP('',(#856,#857,#858,#859,#860));
#226=EDGE_LOOP('',(#861,#862,#863,#864,#865));
#227=EDGE_LOOP('',(#866,#867,#868,#869,#870));
#228=EDGE_LOOP('',(#871,#872,#873,#874,#875,#876));
#229=EDGE_LOOP('',(#877,#878,#879,#880));
#230=EDGE_LOOP('',(#881,#882,#883,#884,#885,#886));
#231=EDGE_LOOP('',(#887,#888,#889,#890,#891,#892,#893,#894,#895,#896,#897,
#898,#899,#900,#901,#902));
#232=EDGE_LOOP('',(#903));
#233=EDGE_LOOP('',(#904));
#234=EDGE_LOOP('',(#905));
#235=EDGE_LOOP('',(#906));
#236=EDGE_LOOP('',(#907));
#237=EDGE_LOOP('',(#908));
#238=EDGE_LOOP('',(#909));
#239=EDGE_LOOP('',(#910));
#240=EDGE_LOOP('',(#911,#912,#913,#914));
#241=EDGE_LOOP('',(#915,#916,#917,#918));
#242=EDGE_LOOP('',(#919,#920,#921,#922,#923));
#243=EDGE_LOOP('',(#924,#925,#926,#927,#928));
#244=EDGE_LOOP('',(#929,#930,#931,#932,#933));
#245=EDGE_LOOP('',(#934,#935,#936,#937,#938));
#246=EDGE_LOOP('',(#939,#940,#941,#942));
#247=EDGE_LOOP('',(#943,#944,#945,#946));
#248=EDGE_LOOP('',(#947,#948,#949,#950,#951,#952,#953,#954,#955,#956));
#249=EDGE_LOOP('',(#957,#958,#959,#960));
#250=LINE('',#1485,#343);
#251=LINE('',#1487,#344);
#252=LINE('',#1489,#345);
#253=LINE('',#1490,#346);
#254=LINE('',#1495,#347);
#255=LINE('',#1499,#348);
#256=LINE('',#1501,#349);
#257=LINE('',#1502,#350);
#258=LINE('',#1507,#351);
#259=LINE('',#1512,#352);
#260=LINE('',#1513,#353);
#261=LINE('',#1514,#354);
#262=LINE('',#1517,#355);
#263=LINE('',#1519,#356);
#264=LINE('',#1520,#357);
#265=LINE('',#1523,#358);
#266=LINE('',#1527,#359);
#267=LINE('',#1528,#360);
#268=LINE('',#1531,#361);
#269=LINE('',#1535,#362);
#270=LINE('',#1536,#363);
#271=LINE('',#1540,#364);
#272=LINE('',#1542,#365);
#273=LINE('',#1544,#366);
#274=LINE('',#1545,#367);
#275=LINE('',#1550,#368);
#276=LINE('',#1555,#369);
#277=LINE('',#1556,#370);
#278=LINE('',#1557,#371);
#279=LINE('',#1562,#372);
#280=LINE('',#1567,#373);
#281=LINE('',#1568,#374);
#282=LINE('',#1569,#375);
#283=LINE('',#1572,#376);
#284=LINE('',#1574,#377);
#285=LINE('',#1575,#378);
#286=LINE('',#1578,#379);
#287=LINE('',#1582,#380);
#288=LINE('',#1583,#381);
#289=LINE('',#1586,#382);
#290=LINE('',#1590,#383);
#291=LINE('',#1591,#384);
#292=LINE('',#1595,#385);
#293=LINE('',#1599,#386);
#294=LINE('',#1603,#387);
#295=LINE('',#1605,#388);
#296=LINE('',#1609,#389);
#297=LINE('',#1611,#390);
#298=LINE('',#1614,#391);
#299=LINE('',#1615,#392);
#300=LINE('',#1618,#393);
#301=LINE('',#1619,#394);
#302=LINE('',#1620,#395);
#303=LINE('',#1622,#396);
#304=LINE('',#1623,#397);
#305=LINE('',#1626,#398);
#306=LINE('',#1627,#399);
#307=LINE('',#1631,#400);
#308=LINE('',#1633,#401);
#309=LINE('',#1635,#402);
#310=LINE('',#1639,#403);
#311=LINE('',#1661,#404);
#312=LINE('',#1678,#405);
#313=LINE('',#1694,#406);
#314=LINE('',#1697,#407);
#315=LINE('',#1700,#408);
#316=LINE('',#1703,#409);
#317=LINE('',#1704,#410);
#318=LINE('',#1707,#411);
#319=LINE('',#1711,#412);
#320=LINE('',#1712,#413);
#321=LINE('',#1714,#414);
#322=LINE('',#1716,#415);
#323=LINE('',#1719,#416);
#324=LINE('',#1723,#417);
#325=LINE('',#1727,#418);
#326=LINE('',#1733,#419);
#327=LINE('',#1737,#420);
#328=LINE('',#1743,#421);
#329=LINE('',#1747,#422);
#330=LINE('',#1748,#423);
#331=LINE('',#1750,#424);
#332=LINE('',#1752,#425);
#333=LINE('',#1754,#426);
#334=LINE('',#1755,#427);
#335=LINE('',#1765,#428);
#336=LINE('',#1767,#429);
#337=LINE('',#1770,#430);
#338=LINE('',#1775,#431);
#339=LINE('',#1778,#432);
#340=LINE('',#1783,#433);
#341=LINE('',#1785,#434);
#342=LINE('',#1788,#435);
#343=VECTOR('',#1176,10.);
#344=VECTOR('',#1177,10.);
#345=VECTOR('',#1178,10.);
#346=VECTOR('',#1179,10.);
#347=VECTOR('',#1184,10.);
#348=VECTOR('',#1189,10.);
#349=VECTOR('',#1190,10.);
#350=VECTOR('',#1191,10.);
#351=VECTOR('',#1196,10.);
#352=VECTOR('',#1201,10.);
#353=VECTOR('',#1202,10.);
#354=VECTOR('',#1203,10.);
#355=VECTOR('',#1206,10.);
#356=VECTOR('',#1207,10.);
#357=VECTOR('',#1208,10.);
#358=VECTOR('',#1211,10.);
#359=VECTOR('',#1216,10.);
#360=VECTOR('',#1217,10.);
#361=VECTOR('',#1220,10.);
#362=VECTOR('',#1225,10.);
#363=VECTOR('',#1226,10.);
#364=VECTOR('',#1229,10.);
#365=VECTOR('',#1230,10.);
#366=VECTOR('',#1231,10.);
#367=VECTOR('',#1232,10.);
#368=VECTOR('',#1237,10.);
#369=VECTOR('',#1242,10.);
#370=VECTOR('',#1243,10.);
#371=VECTOR('',#1244,10.);
#372=VECTOR('',#1249,10.);
#373=VECTOR('',#1254,10.);
#374=VECTOR('',#1255,10.);
#375=VECTOR('',#1256,10.);
#376=VECTOR('',#1259,10.);
#377=VECTOR('',#1260,10.);
#378=VECTOR('',#1261,10.);
#379=VECTOR('',#1264,10.);
#380=VECTOR('',#1269,10.);
#381=VECTOR('',#1270,10.);
#382=VECTOR('',#1273,10.);
#383=VECTOR('',#1278,10.);
#384=VECTOR('',#1279,10.);
#385=VECTOR('',#1282,10.);
#386=VECTOR('',#1285,10.);
#387=VECTOR('',#1290,10.);
#388=VECTOR('',#1291,10.);
#389=VECTOR('',#1296,10.);
#390=VECTOR('',#1297,10.);
#391=VECTOR('',#1302,10.);
#392=VECTOR('',#1303,10.);
#393=VECTOR('',#1306,10.);
#394=VECTOR('',#1307,10.);
#395=VECTOR('',#1308,10.);
#396=VECTOR('',#1309,10.);
#397=VECTOR('',#1310,10.);
#398=VECTOR('',#1313,10.);
#399=VECTOR('',#1314,10.);
#400=VECTOR('',#1317,10.);
#401=VECTOR('',#1318,10.);
#402=VECTOR('',#1319,10.);
#403=VECTOR('',#1322,10.);
#404=VECTOR('',#1345,10.);
#405=VECTOR('',#1356,10.);
#406=VECTOR('',#1365,10.);
#407=VECTOR('',#1368,10.);
#408=VECTOR('',#1371,10.);
#409=VECTOR('',#1374,10.);
#410=VECTOR('',#1375,10.);
#411=VECTOR('',#1378,10.);
#412=VECTOR('',#1383,10.);
#413=VECTOR('',#1384,10.);
#414=VECTOR('',#1387,10.);
#415=VECTOR('',#1390,10.);
#416=VECTOR('',#1393,2.55);
#417=VECTOR('',#1398,2.55);
#418=VECTOR('',#1403,2.85);
#419=VECTOR('',#1410,2.1);
#420=VECTOR('',#1415,2.85);
#421=VECTOR('',#1422,2.1);
#422=VECTOR('',#1427,10.);
#423=VECTOR('',#1428,10.);
#424=VECTOR('',#1431,10.);
#425=VECTOR('',#1434,10.);
#426=VECTOR('',#1435,10.);
#427=VECTOR('',#1436,10.);
#428=VECTOR('',#1447,2.55);
#429=VECTOR('',#1450,2.55);
#430=VECTOR('',#1453,2.85);
#431=VECTOR('',#1460,2.1);
#432=VECTOR('',#1463,2.85);
#433=VECTOR('',#1470,2.1);
#434=VECTOR('',#1473,10.);
#435=VECTOR('',#1478,10.);
#436=VERTEX_POINT('',#1483);
#437=VERTEX_POINT('',#1484);
#438=VERTEX_POINT('',#1486);
#439=VERTEX_POINT('',#1488);
#440=VERTEX_POINT('',#1492);
#441=VERTEX_POINT('',#1494);
#442=VERTEX_POINT('',#1498);
#443=VERTEX_POINT('',#1500);
#444=VERTEX_POINT('',#1504);
#445=VERTEX_POINT('',#1506);
#446=VERTEX_POINT('',#1510);
#447=VERTEX_POINT('',#1511);
#448=VERTEX_POINT('',#1516);
#449=VERTEX_POINT('',#1518);
#450=VERTEX_POINT('',#1522);
#451=VERTEX_POINT('',#1526);
#452=VERTEX_POINT('',#1530);
#453=VERTEX_POINT('',#1534);
#454=VERTEX_POINT('',#1538);
#455=VERTEX_POINT('',#1539);
#456=VERTEX_POINT('',#1541);
#457=VERTEX_POINT('',#1543);
#458=VERTEX_POINT('',#1547);
#459=VERTEX_POINT('',#1549);
#460=VERTEX_POINT('',#1553);
#461=VERTEX_POINT('',#1554);
#462=VERTEX_POINT('',#1559);
#463=VERTEX_POINT('',#1561);
#464=VERTEX_POINT('',#1565);
#465=VERTEX_POINT('',#1566);
#466=VERTEX_POINT('',#1571);
#467=VERTEX_POINT('',#1573);
#468=VERTEX_POINT('',#1577);
#469=VERTEX_POINT('',#1581);
#470=VERTEX_POINT('',#1585);
#471=VERTEX_POINT('',#1589);
#472=VERTEX_POINT('',#1593);
#473=VERTEX_POINT('',#1594);
#474=VERTEX_POINT('',#1596);
#475=VERTEX_POINT('',#1598);
#476=VERTEX_POINT('',#1602);
#477=VERTEX_POINT('',#1604);
#478=VERTEX_POINT('',#1608);
#479=VERTEX_POINT('',#1610);
#480=VERTEX_POINT('',#1617);
#481=VERTEX_POINT('',#1621);
#482=VERTEX_POINT('',#1625);
#483=VERTEX_POINT('',#1629);
#484=VERTEX_POINT('',#1630);
#485=VERTEX_POINT('',#1632);
#486=VERTEX_POINT('',#1634);
#487=VERTEX_POINT('',#1636);
#488=VERTEX_POINT('',#1638);
#489=VERTEX_POINT('',#1641);
#490=VERTEX_POINT('',#1643);
#491=VERTEX_POINT('',#1645);
#492=VERTEX_POINT('',#1647);
#493=VERTEX_POINT('',#1649);
#494=VERTEX_POINT('',#1651);
#495=VERTEX_POINT('',#1653);
#496=VERTEX_POINT('',#1655);
#497=VERTEX_POINT('',#1658);
#498=VERTEX_POINT('',#1660);
#499=VERTEX_POINT('',#1672);
#500=VERTEX_POINT('',#1676);
#501=VERTEX_POINT('',#1688);
#502=VERTEX_POINT('',#1692);
#503=VERTEX_POINT('',#1696);
#504=VERTEX_POINT('',#1698);
#505=VERTEX_POINT('',#1702);
#506=VERTEX_POINT('',#1706);
#507=VERTEX_POINT('',#1710);
#508=VERTEX_POINT('',#1718);
#509=VERTEX_POINT('',#1722);
#510=VERTEX_POINT('',#1726);
#511=VERTEX_POINT('',#1728);
#512=VERTEX_POINT('',#1732);
#513=VERTEX_POINT('',#1736);
#514=VERTEX_POINT('',#1738);
#515=VERTEX_POINT('',#1742);
#516=VERTEX_POINT('',#1746);
#517=VERTEX_POINT('',#1753);
#518=VERTEX_POINT('',#1756);
#519=VERTEX_POINT('',#1758);
#520=VERTEX_POINT('',#1760);
#521=VERTEX_POINT('',#1762);
#522=VERTEX_POINT('',#1769);
#523=VERTEX_POINT('',#1771);
#524=VERTEX_POINT('',#1777);
#525=VERTEX_POINT('',#1779);
#526=EDGE_CURVE('',#436,#437,#250,.T.);
#527=EDGE_CURVE('',#437,#438,#251,.T.);
#528=EDGE_CURVE('',#438,#439,#252,.T.);
#529=EDGE_CURVE('',#439,#436,#253,.T.);
#530=EDGE_CURVE('',#438,#440,#66,.T.);
#531=EDGE_CURVE('',#440,#441,#254,.T.);
#532=EDGE_CURVE('',#441,#439,#67,.T.);
#533=EDGE_CURVE('',#440,#442,#255,.T.);
#534=EDGE_CURVE('',#442,#443,#256,.T.);
#535=EDGE_CURVE('',#443,#441,#257,.T.);
#536=EDGE_CURVE('',#442,#444,#68,.T.);
#537=EDGE_CURVE('',#444,#445,#258,.T.);
#538=EDGE_CURVE('',#445,#443,#69,.T.);
#539=EDGE_CURVE('',#446,#447,#259,.F.);
#540=EDGE_CURVE('',#446,#445,#260,.T.);
#541=EDGE_CURVE('',#444,#447,#261,.T.);
#542=EDGE_CURVE('',#448,#444,#262,.T.);
#543=EDGE_CURVE('',#448,#449,#263,.T.);
#544=EDGE_CURVE('',#447,#449,#264,.T.);
#545=EDGE_CURVE('',#442,#450,#265,.T.);
#546=EDGE_CURVE('',#450,#448,#35,.T.);
#547=EDGE_CURVE('',#451,#440,#266,.T.);
#548=EDGE_CURVE('',#450,#451,#267,.T.);
#549=EDGE_CURVE('',#438,#452,#268,.T.);
#550=EDGE_CURVE('',#452,#451,#36,.T.);
#551=EDGE_CURVE('',#437,#453,#269,.T.);
#552=EDGE_CURVE('',#452,#453,#270,.T.);
#553=EDGE_CURVE('',#454,#455,#271,.T.);
#554=EDGE_CURVE('',#455,#456,#272,.T.);
#555=EDGE_CURVE('',#456,#457,#273,.T.);
#556=EDGE_CURVE('',#457,#454,#274,.T.);
#557=EDGE_CURVE('',#456,#458,#70,.T.);
#558=EDGE_CURVE('',#458,#459,#275,.T.);
#559=EDGE_CURVE('',#459,#457,#71,.T.);
#560=EDGE_CURVE('',#460,#461,#276,.T.);
#561=EDGE_CURVE('',#461,#459,#277,.T.);
#562=EDGE_CURVE('',#458,#460,#278,.T.);
#563=EDGE_CURVE('',#460,#462,#72,.T.);
#564=EDGE_CURVE('',#462,#463,#279,.T.);
#565=EDGE_CURVE('',#463,#461,#73,.T.);
#566=EDGE_CURVE('',#464,#465,#280,.F.);
#567=EDGE_CURVE('',#464,#463,#281,.T.);
#568=EDGE_CURVE('',#462,#465,#282,.T.);
#569=EDGE_CURVE('',#466,#462,#283,.T.);
#570=EDGE_CURVE('',#467,#466,#284,.T.);
#571=EDGE_CURVE('',#465,#467,#285,.T.);
#572=EDGE_CURVE('',#460,#468,#286,.T.);
#573=EDGE_CURVE('',#468,#466,#37,.T.);
#574=EDGE_CURVE('',#469,#458,#287,.T.);
#575=EDGE_CURVE('',#468,#469,#288,.T.);
#576=EDGE_CURVE('',#456,#470,#289,.T.);
#577=EDGE_CURVE('',#470,#469,#38,.T.);
#578=EDGE_CURVE('',#455,#471,#290,.T.);
#579=EDGE_CURVE('',#471,#470,#291,.T.);
#580=EDGE_CURVE('',#472,#473,#292,.T.);
#581=EDGE_CURVE('',#473,#474,#39,.T.);
#582=EDGE_CURVE('',#474,#475,#293,.T.);
#583=EDGE_CURVE('',#475,#472,#40,.T.);
#584=EDGE_CURVE('',#476,#474,#294,.T.);
#585=EDGE_CURVE('',#473,#477,#295,.T.);
#586=EDGE_CURVE('',#477,#476,#41,.T.);
#587=EDGE_CURVE('',#478,#476,#296,.T.);
#588=EDGE_CURVE('',#477,#479,#297,.T.);
#589=EDGE_CURVE('',#479,#478,#42,.T.);
#590=EDGE_CURVE('',#479,#472,#298,.T.);
#591=EDGE_CURVE('',#475,#478,#299,.T.);
#592=EDGE_CURVE('',#480,#475,#300,.T.);
#593=EDGE_CURVE('',#446,#480,#301,.T.);
#594=EDGE_CURVE('',#453,#449,#302,.T.);
#595=EDGE_CURVE('',#481,#436,#303,.T.);
#596=EDGE_CURVE('',#478,#481,#304,.T.);
#597=EDGE_CURVE('',#474,#482,#305,.T.);
#598=EDGE_CURVE('',#480,#482,#306,.T.);
#599=EDGE_CURVE('',#483,#484,#307,.T.);
#600=EDGE_CURVE('',#485,#483,#308,.T.);
#601=EDGE_CURVE('',#486,#485,#309,.T.);
#602=EDGE_CURVE('',#487,#486,#74,.T.);
#603=EDGE_CURVE('',#488,#487,#310,.T.);
#604=EDGE_CURVE('',#484,#488,#75,.T.);
#605=EDGE_CURVE('',#489,#489,#76,.T.);
#606=EDGE_CURVE('',#490,#490,#77,.T.);
#607=EDGE_CURVE('',#491,#491,#78,.T.);
#608=EDGE_CURVE('',#492,#492,#79,.T.);
#609=EDGE_CURVE('',#493,#493,#80,.T.);
#610=EDGE_CURVE('',#494,#494,#81,.T.);
#611=EDGE_CURVE('',#495,#495,#82,.T.);
#612=EDGE_CURVE('',#496,#496,#83,.T.);
#613=EDGE_CURVE('',#485,#497,#84,.T.);
#614=EDGE_CURVE('',#497,#498,#311,.T.);
#615=EDGE_CURVE('',#498,#486,#85,.T.);
#616=EDGE_CURVE('',#499,#487,#86,.T.);
#617=EDGE_CURVE('',#498,#499,#87,.T.);
#618=EDGE_CURVE('',#500,#488,#88,.T.);
#619=EDGE_CURVE('',#499,#500,#312,.T.);
#620=EDGE_CURVE('',#501,#484,#89,.T.);
#621=EDGE_CURVE('',#500,#501,#90,.T.);
#622=EDGE_CURVE('',#502,#483,#91,.T.);
#623=EDGE_CURVE('',#501,#502,#313,.T.);
#624=EDGE_CURVE('',#500,#503,#314,.T.);
#625=EDGE_CURVE('',#503,#504,#92,.T.);
#626=EDGE_CURVE('',#504,#501,#315,.T.);
#627=EDGE_CURVE('',#505,#499,#316,.T.);
#628=EDGE_CURVE('',#505,#503,#317,.T.);
#629=EDGE_CURVE('',#498,#506,#318,.T.);
#630=EDGE_CURVE('',#506,#505,#93,.T.);
#631=EDGE_CURVE('',#507,#497,#319,.T.);
#632=EDGE_CURVE('',#506,#507,#320,.T.);
#633=EDGE_CURVE('',#452,#448,#321,.T.);
#634=EDGE_CURVE('',#470,#466,#322,.T.);
#635=EDGE_CURVE('',#496,#508,#323,.T.);
#636=EDGE_CURVE('',#508,#508,#94,.T.);
#637=EDGE_CURVE('',#495,#509,#324,.T.);
#638=EDGE_CURVE('',#509,#509,#95,.T.);
#639=EDGE_CURVE('',#489,#510,#325,.T.);
#640=EDGE_CURVE('',#510,#511,#96,.T.);
#641=EDGE_CURVE('',#511,#510,#97,.T.);
#642=EDGE_CURVE('',#511,#512,#326,.T.);
#643=EDGE_CURVE('',#512,#512,#98,.T.);
#644=EDGE_CURVE('',#494,#513,#327,.T.);
#645=EDGE_CURVE('',#513,#514,#99,.T.);
#646=EDGE_CURVE('',#514,#513,#100,.T.);
#647=EDGE_CURVE('',#514,#515,#328,.T.);
#648=EDGE_CURVE('',#515,#515,#101,.T.);
#649=EDGE_CURVE('',#516,#502,#329,.T.);
#650=EDGE_CURVE('',#507,#516,#330,.T.);
#651=EDGE_CURVE('',#516,#504,#331,.T.);
#652=EDGE_CURVE('',#482,#454,#332,.T.);
#653=EDGE_CURVE('',#464,#517,#333,.T.);
#654=EDGE_CURVE('',#481,#517,#334,.T.);
#655=EDGE_CURVE('',#518,#518,#102,.T.);
#656=EDGE_CURVE('',#519,#519,#103,.T.);
#657=EDGE_CURVE('',#520,#520,#104,.T.);
#658=EDGE_CURVE('',#521,#521,#105,.T.);
#659=EDGE_CURVE('',#490,#521,#335,.T.);
#660=EDGE_CURVE('',#491,#520,#336,.T.);
#661=EDGE_CURVE('',#493,#522,#337,.T.);
#662=EDGE_CURVE('',#522,#523,#106,.T.);
#663=EDGE_CURVE('',#523,#522,#107,.T.);
#664=EDGE_CURVE('',#523,#518,#338,.T.);
#665=EDGE_CURVE('',#492,#524,#339,.T.);
#666=EDGE_CURVE('',#524,#525,#108,.T.);
#667=EDGE_CURVE('',#525,#524,#109,.T.);
#668=EDGE_CURVE('',#525,#519,#340,.T.);
#669=EDGE_CURVE('',#467,#471,#341,.T.);
#670=EDGE_CURVE('',#517,#476,#342,.T.);
#671=ORIENTED_EDGE('',*,*,#526,.T.);
#672=ORIENTED_EDGE('',*,*,#527,.T.);
#673=ORIENTED_EDGE('',*,*,#528,.T.);
#674=ORIENTED_EDGE('',*,*,#529,.T.);
#675=ORIENTED_EDGE('',*,*,#528,.F.);
#676=ORIENTED_EDGE('',*,*,#530,.T.);
#677=ORIENTED_EDGE('',*,*,#531,.T.);
#678=ORIENTED_EDGE('',*,*,#532,.T.);
#679=ORIENTED_EDGE('',*,*,#531,.F.);
#680=ORIENTED_EDGE('',*,*,#533,.T.);
#681=ORIENTED_EDGE('',*,*,#534,.T.);
#682=ORIENTED_EDGE('',*,*,#535,.T.);
#683=ORIENTED_EDGE('',*,*,#534,.F.);
#684=ORIENTED_EDGE('',*,*,#536,.T.);
#685=ORIENTED_EDGE('',*,*,#537,.T.);
#686=ORIENTED_EDGE('',*,*,#538,.T.);
#687=ORIENTED_EDGE('',*,*,#539,.F.);
#688=ORIENTED_EDGE('',*,*,#540,.T.);
#689=ORIENTED_EDGE('',*,*,#537,.F.);
#690=ORIENTED_EDGE('',*,*,#541,.T.);
#691=ORIENTED_EDGE('',*,*,#541,.F.);
#692=ORIENTED_EDGE('',*,*,#542,.F.);
#693=ORIENTED_EDGE('',*,*,#543,.T.);
#694=ORIENTED_EDGE('',*,*,#544,.F.);
#695=ORIENTED_EDGE('',*,*,#536,.F.);
#696=ORIENTED_EDGE('',*,*,#545,.T.);
#697=ORIENTED_EDGE('',*,*,#546,.T.);
#698=ORIENTED_EDGE('',*,*,#542,.T.);
#699=ORIENTED_EDGE('',*,*,#533,.F.);
#700=ORIENTED_EDGE('',*,*,#547,.F.);
#701=ORIENTED_EDGE('',*,*,#548,.F.);
#702=ORIENTED_EDGE('',*,*,#545,.F.);
#703=ORIENTED_EDGE('',*,*,#530,.F.);
#704=ORIENTED_EDGE('',*,*,#549,.T.);
#705=ORIENTED_EDGE('',*,*,#550,.T.);
#706=ORIENTED_EDGE('',*,*,#547,.T.);
#707=ORIENTED_EDGE('',*,*,#527,.F.);
#708=ORIENTED_EDGE('',*,*,#551,.T.);
#709=ORIENTED_EDGE('',*,*,#552,.F.);
#710=ORIENTED_EDGE('',*,*,#549,.F.);
#711=ORIENTED_EDGE('',*,*,#553,.T.);
#712=ORIENTED_EDGE('',*,*,#554,.T.);
#713=ORIENTED_EDGE('',*,*,#555,.T.);
#714=ORIENTED_EDGE('',*,*,#556,.T.);
#715=ORIENTED_EDGE('',*,*,#555,.F.);
#716=ORIENTED_EDGE('',*,*,#557,.T.);
#717=ORIENTED_EDGE('',*,*,#558,.T.);
#718=ORIENTED_EDGE('',*,*,#559,.T.);
#719=ORIENTED_EDGE('',*,*,#560,.T.);
#720=ORIENTED_EDGE('',*,*,#561,.T.);
#721=ORIENTED_EDGE('',*,*,#558,.F.);
#722=ORIENTED_EDGE('',*,*,#562,.T.);
#723=ORIENTED_EDGE('',*,*,#560,.F.);
#724=ORIENTED_EDGE('',*,*,#563,.T.);
#725=ORIENTED_EDGE('',*,*,#564,.T.);
#726=ORIENTED_EDGE('',*,*,#565,.T.);
#727=ORIENTED_EDGE('',*,*,#566,.F.);
#728=ORIENTED_EDGE('',*,*,#567,.T.);
#729=ORIENTED_EDGE('',*,*,#564,.F.);
#730=ORIENTED_EDGE('',*,*,#568,.T.);
#731=ORIENTED_EDGE('',*,*,#568,.F.);
#732=ORIENTED_EDGE('',*,*,#569,.F.);
#733=ORIENTED_EDGE('',*,*,#570,.F.);
#734=ORIENTED_EDGE('',*,*,#571,.F.);
#735=ORIENTED_EDGE('',*,*,#563,.F.);
#736=ORIENTED_EDGE('',*,*,#572,.T.);
#737=ORIENTED_EDGE('',*,*,#573,.T.);
#738=ORIENTED_EDGE('',*,*,#569,.T.);
#739=ORIENTED_EDGE('',*,*,#562,.F.);
#740=ORIENTED_EDGE('',*,*,#574,.F.);
#741=ORIENTED_EDGE('',*,*,#575,.F.);
#742=ORIENTED_EDGE('',*,*,#572,.F.);
#743=ORIENTED_EDGE('',*,*,#557,.F.);
#744=ORIENTED_EDGE('',*,*,#576,.T.);
#745=ORIENTED_EDGE('',*,*,#577,.T.);
#746=ORIENTED_EDGE('',*,*,#574,.T.);
#747=ORIENTED_EDGE('',*,*,#554,.F.);
#748=ORIENTED_EDGE('',*,*,#578,.T.);
#749=ORIENTED_EDGE('',*,*,#579,.T.);
#750=ORIENTED_EDGE('',*,*,#576,.F.);
#751=ORIENTED_EDGE('',*,*,#580,.T.);
#752=ORIENTED_EDGE('',*,*,#581,.T.);
#753=ORIENTED_EDGE('',*,*,#582,.T.);
#754=ORIENTED_EDGE('',*,*,#583,.T.);
#755=ORIENTED_EDGE('',*,*,#584,.T.);
#756=ORIENTED_EDGE('',*,*,#581,.F.);
#757=ORIENTED_EDGE('',*,*,#585,.T.);
#758=ORIENTED_EDGE('',*,*,#586,.T.);
#759=ORIENTED_EDGE('',*,*,#587,.T.);
#760=ORIENTED_EDGE('',*,*,#586,.F.);
#761=ORIENTED_EDGE('',*,*,#588,.T.);
#762=ORIENTED_EDGE('',*,*,#589,.T.);
#763=ORIENTED_EDGE('',*,*,#590,.T.);
#764=ORIENTED_EDGE('',*,*,#583,.F.);
#765=ORIENTED_EDGE('',*,*,#591,.T.);
#766=ORIENTED_EDGE('',*,*,#589,.F.);
#767=ORIENTED_EDGE('',*,*,#591,.F.);
#768=ORIENTED_EDGE('',*,*,#592,.F.);
#769=ORIENTED_EDGE('',*,*,#593,.F.);
#770=ORIENTED_EDGE('',*,*,#539,.T.);
#771=ORIENTED_EDGE('',*,*,#544,.T.);
#772=ORIENTED_EDGE('',*,*,#594,.F.);
#773=ORIENTED_EDGE('',*,*,#551,.F.);
#774=ORIENTED_EDGE('',*,*,#526,.F.);
#775=ORIENTED_EDGE('',*,*,#595,.F.);
#776=ORIENTED_EDGE('',*,*,#596,.F.);
#777=ORIENTED_EDGE('',*,*,#582,.F.);
#778=ORIENTED_EDGE('',*,*,#597,.T.);
#779=ORIENTED_EDGE('',*,*,#598,.F.);
#780=ORIENTED_EDGE('',*,*,#592,.T.);
#781=ORIENTED_EDGE('',*,*,#599,.F.);
#782=ORIENTED_EDGE('',*,*,#600,.F.);
#783=ORIENTED_EDGE('',*,*,#601,.F.);
#784=ORIENTED_EDGE('',*,*,#602,.F.);
#785=ORIENTED_EDGE('',*,*,#603,.F.);
#786=ORIENTED_EDGE('',*,*,#604,.F.);
#787=ORIENTED_EDGE('',*,*,#605,.F.);
#788=ORIENTED_EDGE('',*,*,#606,.T.);
#789=ORIENTED_EDGE('',*,*,#607,.T.);
#790=ORIENTED_EDGE('',*,*,#608,.F.);
#791=ORIENTED_EDGE('',*,*,#609,.F.);
#792=ORIENTED_EDGE('',*,*,#610,.F.);
#793=ORIENTED_EDGE('',*,*,#611,.T.);
#794=ORIENTED_EDGE('',*,*,#612,.T.);
#795=ORIENTED_EDGE('',*,*,#580,.F.);
#796=ORIENTED_EDGE('',*,*,#590,.F.);
#797=ORIENTED_EDGE('',*,*,#588,.F.);
#798=ORIENTED_EDGE('',*,*,#585,.F.);
#799=ORIENTED_EDGE('',*,*,#613,.T.);
#800=ORIENTED_EDGE('',*,*,#614,.T.);
#801=ORIENTED_EDGE('',*,*,#615,.T.);
#802=ORIENTED_EDGE('',*,*,#601,.T.);
#803=ORIENTED_EDGE('',*,*,#616,.T.);
#804=ORIENTED_EDGE('',*,*,#602,.T.);
#805=ORIENTED_EDGE('',*,*,#615,.F.);
#806=ORIENTED_EDGE('',*,*,#617,.T.);
#807=ORIENTED_EDGE('',*,*,#618,.T.);
#808=ORIENTED_EDGE('',*,*,#603,.T.);
#809=ORIENTED_EDGE('',*,*,#616,.F.);
#810=ORIENTED_EDGE('',*,*,#619,.T.);
#811=ORIENTED_EDGE('',*,*,#620,.T.);
#812=ORIENTED_EDGE('',*,*,#604,.T.);
#813=ORIENTED_EDGE('',*,*,#618,.F.);
#814=ORIENTED_EDGE('',*,*,#621,.T.);
#815=ORIENTED_EDGE('',*,*,#622,.T.);
#816=ORIENTED_EDGE('',*,*,#599,.T.);
#817=ORIENTED_EDGE('',*,*,#620,.F.);
#818=ORIENTED_EDGE('',*,*,#623,.T.);
#819=ORIENTED_EDGE('',*,*,#621,.F.);
#820=ORIENTED_EDGE('',*,*,#624,.T.);
#821=ORIENTED_EDGE('',*,*,#625,.T.);
#822=ORIENTED_EDGE('',*,*,#626,.T.);
#823=ORIENTED_EDGE('',*,*,#619,.F.);
#824=ORIENTED_EDGE('',*,*,#627,.F.);
#825=ORIENTED_EDGE('',*,*,#628,.T.);
#826=ORIENTED_EDGE('',*,*,#624,.F.);
#827=ORIENTED_EDGE('',*,*,#617,.F.);
#828=ORIENTED_EDGE('',*,*,#629,.T.);
#829=ORIENTED_EDGE('',*,*,#630,.T.);
#830=ORIENTED_EDGE('',*,*,#627,.T.);
#831=ORIENTED_EDGE('',*,*,#614,.F.);
#832=ORIENTED_EDGE('',*,*,#631,.F.);
#833=ORIENTED_EDGE('',*,*,#632,.F.);
#834=ORIENTED_EDGE('',*,*,#629,.F.);
#835=ORIENTED_EDGE('',*,*,#633,.T.);
#836=ORIENTED_EDGE('',*,*,#546,.F.);
#837=ORIENTED_EDGE('',*,*,#548,.T.);
#838=ORIENTED_EDGE('',*,*,#550,.F.);
#839=ORIENTED_EDGE('',*,*,#634,.T.);
#840=ORIENTED_EDGE('',*,*,#573,.F.);
#841=ORIENTED_EDGE('',*,*,#575,.T.);
#842=ORIENTED_EDGE('',*,*,#577,.F.);
#843=ORIENTED_EDGE('',*,*,#612,.F.);
#844=ORIENTED_EDGE('',*,*,#635,.T.);
#845=ORIENTED_EDGE('',*,*,#636,.F.);
#846=ORIENTED_EDGE('',*,*,#635,.F.);
#847=ORIENTED_EDGE('',*,*,#611,.F.);
#848=ORIENTED_EDGE('',*,*,#637,.T.);
#849=ORIENTED_EDGE('',*,*,#638,.F.);
#850=ORIENTED_EDGE('',*,*,#637,.F.);
#851=ORIENTED_EDGE('',*,*,#605,.T.);
#852=ORIENTED_EDGE('',*,*,#639,.T.);
#853=ORIENTED_EDGE('',*,*,#640,.T.);
#854=ORIENTED_EDGE('',*,*,#641,.T.);
#855=ORIENTED_EDGE('',*,*,#639,.F.);
#856=ORIENTED_EDGE('',*,*,#640,.F.);
#857=ORIENTED_EDGE('',*,*,#641,.F.);
#858=ORIENTED_EDGE('',*,*,#642,.T.);
#859=ORIENTED_EDGE('',*,*,#643,.F.);
#860=ORIENTED_EDGE('',*,*,#642,.F.);
#861=ORIENTED_EDGE('',*,*,#610,.T.);
#862=ORIENTED_EDGE('',*,*,#644,.T.);
#863=ORIENTED_EDGE('',*,*,#645,.T.);
#864=ORIENTED_EDGE('',*,*,#646,.T.);
#865=ORIENTED_EDGE('',*,*,#644,.F.);
#866=ORIENTED_EDGE('',*,*,#645,.F.);
#867=ORIENTED_EDGE('',*,*,#646,.F.);
#868=ORIENTED_EDGE('',*,*,#647,.T.);
#869=ORIENTED_EDGE('',*,*,#648,.F.);
#870=ORIENTED_EDGE('',*,*,#647,.F.);
#871=ORIENTED_EDGE('',*,*,#622,.F.);
#872=ORIENTED_EDGE('',*,*,#649,.F.);
#873=ORIENTED_EDGE('',*,*,#650,.F.);
#874=ORIENTED_EDGE('',*,*,#631,.T.);
#875=ORIENTED_EDGE('',*,*,#613,.F.);
#876=ORIENTED_EDGE('',*,*,#600,.T.);
#877=ORIENTED_EDGE('',*,*,#623,.F.);
#878=ORIENTED_EDGE('',*,*,#626,.F.);
#879=ORIENTED_EDGE('',*,*,#651,.F.);
#880=ORIENTED_EDGE('',*,*,#649,.T.);
#881=ORIENTED_EDGE('',*,*,#651,.T.);
#882=ORIENTED_EDGE('',*,*,#625,.F.);
#883=ORIENTED_EDGE('',*,*,#628,.F.);
#884=ORIENTED_EDGE('',*,*,#630,.F.);
#885=ORIENTED_EDGE('',*,*,#632,.T.);
#886=ORIENTED_EDGE('',*,*,#650,.T.);
#887=ORIENTED_EDGE('',*,*,#593,.T.);
#888=ORIENTED_EDGE('',*,*,#598,.T.);
#889=ORIENTED_EDGE('',*,*,#652,.T.);
#890=ORIENTED_EDGE('',*,*,#556,.F.);
#891=ORIENTED_EDGE('',*,*,#559,.F.);
#892=ORIENTED_EDGE('',*,*,#561,.F.);
#893=ORIENTED_EDGE('',*,*,#565,.F.);
#894=ORIENTED_EDGE('',*,*,#567,.F.);
#895=ORIENTED_EDGE('',*,*,#653,.T.);
#896=ORIENTED_EDGE('',*,*,#654,.F.);
#897=ORIENTED_EDGE('',*,*,#595,.T.);
#898=ORIENTED_EDGE('',*,*,#529,.F.);
#899=ORIENTED_EDGE('',*,*,#532,.F.);
#900=ORIENTED_EDGE('',*,*,#535,.F.);
#901=ORIENTED_EDGE('',*,*,#538,.F.);
#902=ORIENTED_EDGE('',*,*,#540,.F.);
#903=ORIENTED_EDGE('',*,*,#636,.T.);
#904=ORIENTED_EDGE('',*,*,#638,.T.);
#905=ORIENTED_EDGE('',*,*,#655,.T.);
#906=ORIENTED_EDGE('',*,*,#656,.T.);
#907=ORIENTED_EDGE('',*,*,#657,.T.);
#908=ORIENTED_EDGE('',*,*,#658,.T.);
#909=ORIENTED_EDGE('',*,*,#643,.T.);
#910=ORIENTED_EDGE('',*,*,#648,.T.);
#911=ORIENTED_EDGE('',*,*,#606,.F.);
#912=ORIENTED_EDGE('',*,*,#659,.T.);
#913=ORIENTED_EDGE('',*,*,#658,.F.);
#914=ORIENTED_EDGE('',*,*,#659,.F.);
#915=ORIENTED_EDGE('',*,*,#607,.F.);
#916=ORIENTED_EDGE('',*,*,#660,.T.);
#917=ORIENTED_EDGE('',*,*,#657,.F.);
#918=ORIENTED_EDGE('',*,*,#660,.F.);
#919=ORIENTED_EDGE('',*,*,#609,.T.);
#920=ORIENTED_EDGE('',*,*,#661,.T.);
#921=ORIENTED_EDGE('',*,*,#662,.T.);
#922=ORIENTED_EDGE('',*,*,#663,.T.);
#923=ORIENTED_EDGE('',*,*,#661,.F.);
#924=ORIENTED_EDGE('',*,*,#662,.F.);
#925=ORIENTED_EDGE('',*,*,#663,.F.);
#926=ORIENTED_EDGE('',*,*,#664,.T.);
#927=ORIENTED_EDGE('',*,*,#655,.F.);
#928=ORIENTED_EDGE('',*,*,#664,.F.);
#929=ORIENTED_EDGE('',*,*,#608,.T.);
#930=ORIENTED_EDGE('',*,*,#665,.T.);
#931=ORIENTED_EDGE('',*,*,#666,.T.);
#932=ORIENTED_EDGE('',*,*,#667,.T.);
#933=ORIENTED_EDGE('',*,*,#665,.F.);
#934=ORIENTED_EDGE('',*,*,#666,.F.);
#935=ORIENTED_EDGE('',*,*,#667,.F.);
#936=ORIENTED_EDGE('',*,*,#668,.T.);
#937=ORIENTED_EDGE('',*,*,#656,.F.);
#938=ORIENTED_EDGE('',*,*,#668,.F.);
#939=ORIENTED_EDGE('',*,*,#634,.F.);
#940=ORIENTED_EDGE('',*,*,#579,.F.);
#941=ORIENTED_EDGE('',*,*,#669,.F.);
#942=ORIENTED_EDGE('',*,*,#570,.T.);
#943=ORIENTED_EDGE('',*,*,#633,.F.);
#944=ORIENTED_EDGE('',*,*,#552,.T.);
#945=ORIENTED_EDGE('',*,*,#594,.T.);
#946=ORIENTED_EDGE('',*,*,#543,.F.);
#947=ORIENTED_EDGE('',*,*,#584,.F.);
#948=ORIENTED_EDGE('',*,*,#670,.F.);
#949=ORIENTED_EDGE('',*,*,#653,.F.);
#950=ORIENTED_EDGE('',*,*,#566,.T.);
#951=ORIENTED_EDGE('',*,*,#571,.T.);
#952=ORIENTED_EDGE('',*,*,#669,.T.);
#953=ORIENTED_EDGE('',*,*,#578,.F.);
#954=ORIENTED_EDGE('',*,*,#553,.F.);
#955=ORIENTED_EDGE('',*,*,#652,.F.);
#956=ORIENTED_EDGE('',*,*,#597,.F.);
#957=ORIENTED_EDGE('',*,*,#587,.F.);
#958=ORIENTED_EDGE('',*,*,#596,.T.);
#959=ORIENTED_EDGE('',*,*,#654,.T.);
#960=ORIENTED_EDGE('',*,*,#670,.T.);
#961=PLANE('',#1065);
#962=PLANE('',#1069);
#963=PLANE('',#1073);
#964=PLANE('',#1074);
#965=PLANE('',#1077);
#966=PLANE('',#1080);
#967=PLANE('',#1081);
#968=PLANE('',#1085);
#969=PLANE('',#1089);
#970=PLANE('',#1090);
#971=PLANE('',#1093);
#972=PLANE('',#1096);
#973=PLANE('',#1105);
#974=PLANE('',#1106);
#975=PLANE('',#1107);
#976=PLANE('',#1131);
#977=PLANE('',#1134);
#978=PLANE('',#1151);
#979=PLANE('',#1152);
#980=PLANE('',#1153);
#981=PLANE('',#1168);
#982=PLANE('',#1169);
#983=PLANE('',#1170);
#984=PLANE('',#1171);
#985=ADVANCED_FACE('',(#118),#961,.T.);
#986=ADVANCED_FACE('',(#119),#110,.T.);
#987=ADVANCED_FACE('',(#120),#962,.T.);
#988=ADVANCED_FACE('',(#121),#111,.T.);
#989=ADVANCED_FACE('',(#122),#963,.T.);
#990=ADVANCED_FACE('',(#123),#964,.F.);
#991=ADVANCED_FACE('',(#124),#43,.T.);
#992=ADVANCED_FACE('',(#125),#965,.T.);
#993=ADVANCED_FACE('',(#126),#44,.T.);
#994=ADVANCED_FACE('',(#127),#966,.T.);
#995=ADVANCED_FACE('',(#128),#967,.T.);
#996=ADVANCED_FACE('',(#129),#112,.T.);
#997=ADVANCED_FACE('',(#130),#968,.T.);
#998=ADVANCED_FACE('',(#131),#113,.T.);
#999=ADVANCED_FACE('',(#132),#969,.T.);
#1000=ADVANCED_FACE('',(#133),#970,.T.);
#1001=ADVANCED_FACE('',(#134),#45,.T.);
#1002=ADVANCED_FACE('',(#135),#971,.T.);
#1003=ADVANCED_FACE('',(#136),#46,.T.);
#1004=ADVANCED_FACE('',(#137),#972,.F.);
#1005=ADVANCED_FACE('',(#138),#47,.T.);
#1006=ADVANCED_FACE('',(#139),#48,.T.);
#1007=ADVANCED_FACE('',(#140),#49,.T.);
#1008=ADVANCED_FACE('',(#141),#50,.T.);
#1009=ADVANCED_FACE('',(#142),#973,.T.);
#1010=ADVANCED_FACE('',(#143),#974,.F.);
#1011=ADVANCED_FACE('',(#144,#17,#18,#19,#20,#21,#22,#23,#24,#25),#975,
 .F.);
#1012=ADVANCED_FACE('',(#145),#51,.T.);
#1013=ADVANCED_FACE('',(#146),#15,.F.);
#1014=ADVANCED_FACE('',(#147),#52,.T.);
#1015=ADVANCED_FACE('',(#148),#16,.F.);
#1016=ADVANCED_FACE('',(#149),#53,.T.);
#1017=ADVANCED_FACE('',(#150),#54,.T.);
#1018=ADVANCED_FACE('',(#151),#976,.T.);
#1019=ADVANCED_FACE('',(#152),#55,.T.);
#1020=ADVANCED_FACE('',(#153),#977,.F.);
#1021=ADVANCED_FACE('',(#154),#56,.T.);
#1022=ADVANCED_FACE('',(#155),#57,.T.);
#1023=ADVANCED_FACE('',(#156),#58,.F.);
#1024=ADVANCED_FACE('',(#157),#59,.F.);
#1025=ADVANCED_FACE('',(#158),#114,.F.);
#1026=ADVANCED_FACE('',(#159),#60,.F.);
#1027=ADVANCED_FACE('',(#160),#115,.F.);
#1028=ADVANCED_FACE('',(#161),#61,.F.);
#1029=ADVANCED_FACE('',(#162),#978,.F.);
#1030=ADVANCED_FACE('',(#163),#979,.F.);
#1031=ADVANCED_FACE('',(#164,#26,#27,#28,#29,#30,#31,#32,#33,#34),#980,
 .T.);
#1032=ADVANCED_FACE('',(#165),#62,.F.);
#1033=ADVANCED_FACE('',(#166),#63,.F.);
#1034=ADVANCED_FACE('',(#167),#116,.F.);
#1035=ADVANCED_FACE('',(#168),#64,.F.);
#1036=ADVANCED_FACE('',(#169),#117,.F.);
#1037=ADVANCED_FACE('',(#170),#65,.F.);
#1038=ADVANCED_FACE('',(#171),#981,.T.);
#1039=ADVANCED_FACE('',(#172),#982,.T.);
#1040=ADVANCED_FACE('',(#173),#983,.T.);
#1041=ADVANCED_FACE('',(#174),#984,.T.);
#1042=CLOSED_SHELL('',(#985,#986,#987,#988,#989,#990,#991,#992,#993,#994,
#995,#996,#997,#998,#999,#1000,#1001,#1002,#1003,#1004,#1005,#1006,#1007,
#1008,#1009,#1010,#1011,#1012,#1013,#1014,#1015,#1016,#1017,#1018,#1019,
#1020,#1021,#1022,#1023,#1024,#1025,#1026,#1027,#1028,#1029,#1030,#1031,
#1032,#1033,#1034,#1035,#1036,#1037,#1038,#1039,#1040,#1041));
#1043=DERIVED_UNIT_ELEMENT(#1046,1.);
#1044=DERIVED_UNIT_ELEMENT(#1795,-3.);
#1045=DIMENSIONAL_EXPONENTS(0.,1.,0.,0.,0.,0.,0.);
#1046=(
CONVERSION_BASED_UNIT('gram',#1048)
MASS_UNIT()
NAMED_UNIT(#1045)
);
#1047=(
MASS_UNIT()
NAMED_UNIT(*)
SI_UNIT(.KILO.,.GRAM.)
);
#1048=MASS_MEASURE_WITH_UNIT(MASS_MEASURE(0.001),#1047);
#1049=DERIVED_UNIT((#1043,#1044));
#1050=MEASURE_REPRESENTATION_ITEM('density measure',
POSITIVE_RATIO_MEASURE(1.),#1049);
#1051=PROPERTY_DEFINITION_REPRESENTATION(#1056,#1053);
#1052=PROPERTY_DEFINITION_REPRESENTATION(#1057,#1054);
#1053=REPRESENTATION('material name',(#1055),#1792);
#1054=REPRESENTATION('density',(#1050),#1792);
#1055=DESCRIPTIVE_REPRESENTATION_ITEM('\X2\04220438043F043E0432044B0435\X0\',
'\X2\04220438043F043E0432044B0435\X0\');
#1056=PROPERTY_DEFINITION('material property','material name',#1802);
#1057=PROPERTY_DEFINITION('material property','density of part',#1802);
#1058=DATE_TIME_ROLE('creation_date');
#1059=APPLIED_DATE_AND_TIME_ASSIGNMENT(#1060,#1058,(#1802));
#1060=DATE_AND_TIME(#1061,#1062);
#1061=CALENDAR_DATE(2025,19,9);
#1062=LOCAL_TIME(0,0,0.,#1063);
#1063=COORDINATED_UNIVERSAL_TIME_OFFSET(0,0,.BEHIND.);
#1064=AXIS2_PLACEMENT_3D('',#1481,#1172,#1173);
#1065=AXIS2_PLACEMENT_3D('',#1482,#1174,#1175);
#1066=AXIS2_PLACEMENT_3D('',#1491,#1180,#1181);
#1067=AXIS2_PLACEMENT_3D('',#1493,#1182,#1183);
#1068=AXIS2_PLACEMENT_3D('',#1496,#1185,#1186);
#1069=AXIS2_PLACEMENT_3D('',#1497,#1187,#1188);
#1070=AXIS2_PLACEMENT_3D('',#1503,#1192,#1193);
#1071=AXIS2_PLACEMENT_3D('',#1505,#1194,#1195);
#1072=AXIS2_PLACEMENT_3D('',#1508,#1197,#1198);
#1073=AXIS2_PLACEMENT_3D('',#1509,#1199,#1200);
#1074=AXIS2_PLACEMENT_3D('',#1515,#1204,#1205);
#1075=AXIS2_PLACEMENT_3D('',#1521,#1209,#1210);
#1076=AXIS2_PLACEMENT_3D('',#1524,#1212,#1213);
#1077=AXIS2_PLACEMENT_3D('',#1525,#1214,#1215);
#1078=AXIS2_PLACEMENT_3D('',#1529,#1218,#1219);
#1079=AXIS2_PLACEMENT_3D('',#1532,#1221,#1222);
#1080=AXIS2_PLACEMENT_3D('',#1533,#1223,#1224);
#1081=AXIS2_PLACEMENT_3D('',#1537,#1227,#1228);
#1082=AXIS2_PLACEMENT_3D('',#1546,#1233,#1234);
#1083=AXIS2_PLACEMENT_3D('',#1548,#1235,#1236);
#1084=AXIS2_PLACEMENT_3D('',#1551,#1238,#1239);
#1085=AXIS2_PLACEMENT_3D('',#1552,#1240,#1241);
#1086=AXIS2_PLACEMENT_3D('',#1558,#1245,#1246);
#1087=AXIS2_PLACEMENT_3D('',#1560,#1247,#1248);
#1088=AXIS2_PLACEMENT_3D('',#1563,#1250,#1251);
#1089=AXIS2_PLACEMENT_3D('',#1564,#1252,#1253);
#1090=AXIS2_PLACEMENT_3D('',#1570,#1257,#1258);
#1091=AXIS2_PLACEMENT_3D('',#1576,#1262,#1263);
#1092=AXIS2_PLACEMENT_3D('',#1579,#1265,#1266);
#1093=AXIS2_PLACEMENT_3D('',#1580,#1267,#1268);
#1094=AXIS2_PLACEMENT_3D('',#1584,#1271,#1272);
#1095=AXIS2_PLACEMENT_3D('',#1587,#1274,#1275);
#1096=AXIS2_PLACEMENT_3D('',#1588,#1276,#1277);
#1097=AXIS2_PLACEMENT_3D('',#1592,#1280,#1281);
#1098=AXIS2_PLACEMENT_3D('',#1597,#1283,#1284);
#1099=AXIS2_PLACEMENT_3D('',#1600,#1286,#1287);
#1100=AXIS2_PLACEMENT_3D('',#1601,#1288,#1289);
#1101=AXIS2_PLACEMENT_3D('',#1606,#1292,#1293);
#1102=AXIS2_PLACEMENT_3D('',#1607,#1294,#1295);
#1103=AXIS2_PLACEMENT_3D('',#1612,#1298,#1299);
#1104=AXIS2_PLACEMENT_3D('',#1613,#1300,#1301);
#1105=AXIS2_PLACEMENT_3D('',#1616,#1304,#1305);
#1106=AXIS2_PLACEMENT_3D('',#1624,#1311,#1312);
#1107=AXIS2_PLACEMENT_3D('',#1628,#1315,#1316);
#1108=AXIS2_PLACEMENT_3D('',#1637,#1320,#1321);
#1109=AXIS2_PLACEMENT_3D('',#1640,#1323,#1324);
#1110=AXIS2_PLACEMENT_3D('',#1642,#1325,#1326);
#1111=AXIS2_PLACEMENT_3D('',#1644,#1327,#1328);
#1112=AXIS2_PLACEMENT_3D('',#1646,#1329,#1330);
#1113=AXIS2_PLACEMENT_3D('',#1648,#1331,#1332);
#1114=AXIS2_PLACEMENT_3D('',#1650,#1333,#1334);
#1115=AXIS2_PLACEMENT_3D('',#1652,#1335,#1336);
#1116=AXIS2_PLACEMENT_3D('',#1654,#1337,#1338);
#1117=AXIS2_PLACEMENT_3D('',#1656,#1339,#1340);
#1118=AXIS2_PLACEMENT_3D('',#1657,#1341,#1342);
#1119=AXIS2_PLACEMENT_3D('',#1659,#1343,#1344);
#1120=AXIS2_PLACEMENT_3D('',#1662,#1346,#1347);
#1121=AXIS2_PLACEMENT_3D('',#1673,#1348,#1349);
#1122=AXIS2_PLACEMENT_3D('',#1674,#1350,#1351);
#1123=AXIS2_PLACEMENT_3D('',#1675,#1352,#1353);
#1124=AXIS2_PLACEMENT_3D('',#1677,#1354,#1355);
#1125=AXIS2_PLACEMENT_3D('',#1689,#1357,#1358);
#1126=AXIS2_PLACEMENT_3D('',#1690,#1359,#1360);
#1127=AXIS2_PLACEMENT_3D('',#1691,#1361,#1362);
#1128=AXIS2_PLACEMENT_3D('',#1693,#1363,#1364);
#1129=AXIS2_PLACEMENT_3D('',#1695,#1366,#1367);
#1130=AXIS2_PLACEMENT_3D('',#1699,#1369,#1370);
#1131=AXIS2_PLACEMENT_3D('',#1701,#1372,#1373);
#1132=AXIS2_PLACEMENT_3D('',#1705,#1376,#1377);
#1133=AXIS2_PLACEMENT_3D('',#1708,#1379,#1380);
#1134=AXIS2_PLACEMENT_3D('',#1709,#1381,#1382);
#1135=AXIS2_PLACEMENT_3D('',#1713,#1385,#1386);
#1136=AXIS2_PLACEMENT_3D('',#1715,#1388,#1389);
#1137=AXIS2_PLACEMENT_3D('',#1717,#1391,#1392);
#1138=AXIS2_PLACEMENT_3D('',#1720,#1394,#1395);
#1139=AXIS2_PLACEMENT_3D('',#1721,#1396,#1397);
#1140=AXIS2_PLACEMENT_3D('',#1724,#1399,#1400);
#1141=AXIS2_PLACEMENT_3D('',#1725,#1401,#1402);
#1142=AXIS2_PLACEMENT_3D('',#1729,#1404,#1405);
#1143=AXIS2_PLACEMENT_3D('',#1730,#1406,#1407);
#1144=AXIS2_PLACEMENT_3D('',#1731,#1408,#1409);
#1145=AXIS2_PLACEMENT_3D('',#1734,#1411,#1412);
#1146=AXIS2_PLACEMENT_3D('',#1735,#1413,#1414);
#1147=AXIS2_PLACEMENT_3D('',#1739,#1416,#1417);
#1148=AXIS2_PLACEMENT_3D('',#1740,#1418,#1419);
#1149=AXIS2_PLACEMENT_3D('',#1741,#1420,#1421);
#1150=AXIS2_PLACEMENT_3D('',#1744,#1423,#1424);
#1151=AXIS2_PLACEMENT_3D('',#1745,#1425,#1426);
#1152=AXIS2_PLACEMENT_3D('',#1749,#1429,#1430);
#1153=AXIS2_PLACEMENT_3D('',#1751,#1432,#1433);
#1154=AXIS2_PLACEMENT_3D('',#1757,#1437,#1438);
#1155=AXIS2_PLACEMENT_3D('',#1759,#1439,#1440);
#1156=AXIS2_PLACEMENT_3D('',#1761,#1441,#1442);
#1157=AXIS2_PLACEMENT_3D('',#1763,#1443,#1444);
#1158=AXIS2_PLACEMENT_3D('',#1764,#1445,#1446);
#1159=AXIS2_PLACEMENT_3D('',#1766,#1448,#1449);
#1160=AXIS2_PLACEMENT_3D('',#1768,#1451,#1452);
#1161=AXIS2_PLACEMENT_3D('',#1772,#1454,#1455);
#1162=AXIS2_PLACEMENT_3D('',#1773,#1456,#1457);
#1163=AXIS2_PLACEMENT_3D('',#1774,#1458,#1459);
#1164=AXIS2_PLACEMENT_3D('',#1776,#1461,#1462);
#1165=AXIS2_PLACEMENT_3D('',#1780,#1464,#1465);
#1166=AXIS2_PLACEMENT_3D('',#1781,#1466,#1467);
#1167=AXIS2_PLACEMENT_3D('',#1782,#1468,#1469);
#1168=AXIS2_PLACEMENT_3D('',#1784,#1471,#1472);
#1169=AXIS2_PLACEMENT_3D('',#1786,#1474,#1475);
#1170=AXIS2_PLACEMENT_3D('',#1787,#1476,#1477);
#1171=AXIS2_PLACEMENT_3D('',#1789,#1479,#1480);
#1172=DIRECTION('axis',(0.,0.,1.));
#1173=DIRECTION('refdir',(1.,0.,0.));
#1174=DIRECTION('center_axis',(0.,-0.707106781186553,0.707106781186543));
#1175=DIRECTION('ref_axis',(1.,0.,0.));
#1176=DIRECTION('',(3.93950471451573E-15,-0.707106781186543,-0.707106781186553));
#1177=DIRECTION('',(1.,0.,0.));
#1178=DIRECTION('',(0.,0.707106781186542,0.707106781186552));
#1179=DIRECTION('',(-1.,0.,0.));
#1180=DIRECTION('center_axis',(0.,1.,0.));
#1181=DIRECTION('ref_axis',(0.707106781186547,0.,0.707106781186547));
#1182=DIRECTION('center_axis',(0.,1.,0.));
#1183=DIRECTION('ref_axis',(0.707106781186548,0.,0.707106781186548));
#1184=DIRECTION('',(0.707106781186546,0.707106781186549,0.));
#1185=DIRECTION('center_axis',(0.,-1.,0.));
#1186=DIRECTION('ref_axis',(0.707106781186548,0.,0.707106781186548));
#1187=DIRECTION('center_axis',(0.707106781186549,-0.707106781186546,1.14188542449731E-16));
#1188=DIRECTION('ref_axis',(1.61486985400025E-16,0.,-1.));
#1189=DIRECTION('',(1.61486985400025E-16,0.,-1.));
#1190=DIRECTION('',(0.707106781186546,0.707106781186549,0.));
#1191=DIRECTION('',(-1.61486985400025E-16,0.,1.));
#1192=DIRECTION('center_axis',(0.,1.,0.));
#1193=DIRECTION('ref_axis',(0.707106781186555,0.,-0.70710678118654));
#1194=DIRECTION('center_axis',(0.,1.,0.));
#1195=DIRECTION('ref_axis',(0.707106781186555,0.,-0.70710678118654));
#1196=DIRECTION('',(0.,0.707106781186542,-0.707106781186553));
#1197=DIRECTION('center_axis',(0.,-1.,0.));
#1198=DIRECTION('ref_axis',(0.707106781186555,0.,-0.70710678118654));
#1199=DIRECTION('center_axis',(1.79439138135287E-16,-0.707106781186552,
-0.707106781186543));
#1200=DIRECTION('ref_axis',(-1.,0.,-2.53765262771464E-16));
#1201=DIRECTION('',(3.93950471451573E-15,0.707106781186543,-0.707106781186552));
#1202=DIRECTION('',(1.,0.,2.53765262771464E-16));
#1203=DIRECTION('',(-1.,0.,-2.53765262771464E-16));
#1204=DIRECTION('center_axis',(-2.53765262771464E-16,0.,1.));
#1205=DIRECTION('ref_axis',(-1.,0.,-2.53765262771464E-16));
#1206=DIRECTION('',(0.,1.,0.));
#1207=DIRECTION('',(-1.,0.,0.));
#1208=DIRECTION('',(0.,-1.,0.));
#1209=DIRECTION('center_axis',(0.,-1.,0.));
#1210=DIRECTION('ref_axis',(0.707106781186555,0.,-0.70710678118654));
#1211=DIRECTION('',(0.,-1.,0.));
#1212=DIRECTION('center_axis',(-1.96261557335478E-16,0.707106781186572,
-0.707106781186524));
#1213=DIRECTION('ref_axis',(1.96261557335492E-16,0.707106781186523,0.707106781186572));
#1214=DIRECTION('center_axis',(1.,0.,1.61486985400025E-16));
#1215=DIRECTION('ref_axis',(-1.61486985400025E-16,0.,1.));
#1216=DIRECTION('',(0.,1.,0.));
#1217=DIRECTION('',(-1.61486985400025E-16,0.,1.));
#1218=DIRECTION('center_axis',(0.,-1.,0.));
#1219=DIRECTION('ref_axis',(0.707106781186548,0.,0.707106781186548));
#1220=DIRECTION('',(0.,-1.,0.));
#1221=DIRECTION('center_axis',(-3.14018491736755E-15,0.707106781186548,
0.707106781186547));
#1222=DIRECTION('ref_axis',(3.14018491736755E-15,0.707106781186547,-0.707106781186548));
#1223=DIRECTION('center_axis',(0.,0.,1.));
#1224=DIRECTION('ref_axis',(-1.,0.,0.));
#1225=DIRECTION('',(0.,-1.,0.));
#1226=DIRECTION('',(-1.,0.,0.));
#1227=DIRECTION('center_axis',(1.79439138135287E-16,-0.707106781186552,
-0.707106781186543));
#1228=DIRECTION('ref_axis',(-1.,0.,-2.53765262771464E-16));
#1229=DIRECTION('',(-3.79676903645357E-15,-0.707106781186543,0.707106781186552));
#1230=DIRECTION('',(-1.,0.,-2.53765262771464E-16));
#1231=DIRECTION('',(0.,0.707106781186543,-0.707106781186552));
#1232=DIRECTION('',(1.,0.,2.53765262771464E-16));
#1233=DIRECTION('center_axis',(0.,1.,0.));
#1234=DIRECTION('ref_axis',(-0.707106781186555,0.,-0.70710678118654));
#1235=DIRECTION('center_axis',(0.,1.,0.));
#1236=DIRECTION('ref_axis',(-0.707106781186555,0.,-0.70710678118654));
#1237=DIRECTION('',(-0.707106781186559,0.707106781186536,0.));
#1238=DIRECTION('center_axis',(0.,-1.,0.));
#1239=DIRECTION('ref_axis',(-0.707106781186555,0.,-0.70710678118654));
#1240=DIRECTION('center_axis',(-0.707106781186549,-0.707106781186546,1.14188542449731E-16));
#1241=DIRECTION('ref_axis',(1.61486985400025E-16,0.,1.));
#1242=DIRECTION('',(-0.707106781186546,0.707106781186549,9.42055475210267E-15));
#1243=DIRECTION('',(-1.61486985400025E-16,0.,-1.));
#1244=DIRECTION('',(1.61486985400025E-16,0.,1.));
#1245=DIRECTION('center_axis',(0.,1.,0.));
#1246=DIRECTION('ref_axis',(-0.707106781186548,0.,0.707106781186547));
#1247=DIRECTION('center_axis',(0.,1.,0.));
#1248=DIRECTION('ref_axis',(-0.707106781186548,0.,0.707106781186547));
#1249=DIRECTION('',(0.,0.707106781186547,0.707106781186548));
#1250=DIRECTION('center_axis',(0.,-1.,0.));
#1251=DIRECTION('ref_axis',(-0.707106781186548,0.,0.707106781186547));
#1252=DIRECTION('center_axis',(0.,-0.707106781186553,0.707106781186543));
#1253=DIRECTION('ref_axis',(1.,0.,0.));
#1254=DIRECTION('',(-3.79676903645357E-15,0.707106781186543,0.707106781186553));
#1255=DIRECTION('',(-1.,0.,0.));
#1256=DIRECTION('',(1.,0.,0.));
#1257=DIRECTION('center_axis',(0.,0.,1.));
#1258=DIRECTION('ref_axis',(-1.,0.,0.));
#1259=DIRECTION('',(0.,1.,0.));
#1260=DIRECTION('',(-1.,0.,0.));
#1261=DIRECTION('',(0.,-1.,0.));
#1262=DIRECTION('center_axis',(0.,-1.,0.));
#1263=DIRECTION('ref_axis',(-0.707106781186548,0.,0.707106781186547));
#1264=DIRECTION('',(0.,-1.,0.));
#1265=DIRECTION('center_axis',(7.85046229341887E-16,0.707106781186547,0.707106781186548));
#1266=DIRECTION('ref_axis',(-7.85046229341887E-16,0.707106781186548,-0.707106781186547));
#1267=DIRECTION('center_axis',(-1.,0.,1.61486985400025E-16));
#1268=DIRECTION('ref_axis',(-1.61486985400025E-16,0.,-1.));
#1269=DIRECTION('',(0.,1.,0.));
#1270=DIRECTION('',(-1.61486985400025E-16,0.,-1.));
#1271=DIRECTION('center_axis',(0.,-1.,0.));
#1272=DIRECTION('ref_axis',(-0.707106781186555,0.,-0.70710678118654));
#1273=DIRECTION('',(0.,-1.,0.));
#1274=DIRECTION('center_axis',(1.96261557335478E-16,0.707106781186572,-0.707106781186524));
#1275=DIRECTION('ref_axis',(-1.96261557335492E-16,0.707106781186523,0.707106781186572));
#1276=DIRECTION('center_axis',(-2.53765262771464E-16,0.,1.));
#1277=DIRECTION('ref_axis',(-1.,0.,-2.53765262771464E-16));
#1278=DIRECTION('',(0.,-1.,0.));
#1279=DIRECTION('',(-1.,0.,0.));
#1280=DIRECTION('center_axis',(-1.,0.,-2.53765262771464E-16));
#1281=DIRECTION('ref_axis',(0.,0.707106781186542,0.707106781186553));
#1282=DIRECTION('',(-1.,0.,-2.53765262771464E-16));
#1283=DIRECTION('center_axis',(0.70710678118697,-3.14018491736943E-15,-0.707106781186125));
#1284=DIRECTION('ref_axis',(0.707106781186125,3.14018491737318E-15,0.70710678118697));
#1285=DIRECTION('',(1.,0.,2.53765262771464E-16));
#1286=DIRECTION('center_axis',(-0.707106781186117,0.,-0.707106781186978));
#1287=DIRECTION('ref_axis',(0.707106781186978,0.,-0.707106781186117));
#1288=DIRECTION('center_axis',(-5.36944226455082E-15,0.,1.));
#1289=DIRECTION('ref_axis',(0.707106781186549,0.707106781186546,0.));
#1290=DIRECTION('',(5.36944226455082E-15,0.,-1.));
#1291=DIRECTION('',(-5.36944226455082E-15,0.,1.));
#1292=DIRECTION('center_axis',(-0.707106781186533,2.11962481922314E-14,
-0.707106781186562));
#1293=DIRECTION('ref_axis',(0.707106781186562,-2.1196248192232E-14,-0.707106781186533));
#1294=DIRECTION('center_axis',(-1.,0.,2.53765262771464E-16));
#1295=DIRECTION('ref_axis',(0.,0.707106781186549,-0.707106781186546));
#1296=DIRECTION('',(-1.,0.,2.53765262771464E-16));
#1297=DIRECTION('',(1.,0.,-2.53765262771464E-16));
#1298=DIRECTION('center_axis',(-0.707106781186548,-2.35513868802566E-15,
0.707106781186548));
#1299=DIRECTION('ref_axis',(0.707106781186547,-2.35513868802567E-15,0.707106781186547));
#1300=DIRECTION('center_axis',(-5.57130099630085E-15,0.,1.));
#1301=DIRECTION('ref_axis',(-0.707106781186546,0.707106781186549,0.));
#1302=DIRECTION('',(5.57130099630085E-15,0.,-1.));
#1303=DIRECTION('',(-5.57130099630085E-15,0.,1.));
#1304=DIRECTION('center_axis',(-1.,0.,-5.57130099630085E-15));
#1305=DIRECTION('ref_axis',(5.57130099630085E-15,0.,-1.));
#1306=DIRECTION('',(0.,1.,0.));
#1307=DIRECTION('',(-5.57130099630085E-15,0.,1.));
#1308=DIRECTION('',(5.57130099630085E-15,0.,-1.));
#1309=DIRECTION('',(-5.57130099630085E-15,0.,1.));
#1310=DIRECTION('',(0.,-1.,0.));
#1311=DIRECTION('center_axis',(2.53765262771464E-16,0.,-1.));
#1312=DIRECTION('ref_axis',(-1.,0.,-2.53765262771464E-16));
#1313=DIRECTION('',(0.,-1.,0.));
#1314=DIRECTION('',(-1.,0.,-2.53765262771464E-16));
#1315=DIRECTION('center_axis',(0.,-1.,0.));
#1316=DIRECTION('ref_axis',(0.,0.,-1.));
#1317=DIRECTION('',(4.44089209850063E-16,0.,1.));
#1318=DIRECTION('',(1.,0.,1.26882631385732E-16));
#1319=DIRECTION('',(0.,0.,-1.));
#1320=DIRECTION('center_axis',(0.,-1.,0.));
#1321=DIRECTION('ref_axis',(-0.707106781186548,0.,0.707106781186547));
#1322=DIRECTION('',(-1.,0.,1.26882631385732E-16));
#1323=DIRECTION('center_axis',(0.,-1.,0.));
#1324=DIRECTION('ref_axis',(0.707106781186546,0.,0.707106781186549));
#1325=DIRECTION('center_axis',(0.,1.,0.));
#1326=DIRECTION('ref_axis',(-1.,0.,0.));
#1327=DIRECTION('center_axis',(0.,-1.,0.));
#1328=DIRECTION('ref_axis',(1.,0.,0.));
#1329=DIRECTION('center_axis',(0.,-1.,0.));
#1330=DIRECTION('ref_axis',(1.,0.,0.));
#1331=DIRECTION('center_axis',(0.,1.,0.));
#1332=DIRECTION('ref_axis',(-1.,0.,0.));
#1333=DIRECTION('center_axis',(0.,1.,0.));
#1334=DIRECTION('ref_axis',(-1.,0.,0.));
#1335=DIRECTION('center_axis',(0.,1.,0.));
#1336=DIRECTION('ref_axis',(-1.,0.,0.));
#1337=DIRECTION('center_axis',(0.,-1.,0.));
#1338=DIRECTION('ref_axis',(1.,0.,0.));
#1339=DIRECTION('center_axis',(0.,-1.,0.));
#1340=DIRECTION('ref_axis',(1.,0.,0.));
#1341=DIRECTION('center_axis',(0.,0.,1.));
#1342=DIRECTION('ref_axis',(-0.707106781186549,0.707106781186546,0.));
#1343=DIRECTION('center_axis',(-1.26882631385732E-16,0.,1.));
#1344=DIRECTION('ref_axis',(-0.707106781186549,0.707106781186546,0.));
#1345=DIRECTION('',(0.,0.,1.));
#1346=DIRECTION('center_axis',(2.22044604925031E-15,0.,-1.));
#1347=DIRECTION('ref_axis',(-1.,0.,-2.22044604925031E-15));
#1348=DIRECTION('center_axis',(-1.,0.,0.));
#1349=DIRECTION('ref_axis',(0.,0.,1.));
#1350=DIRECTION('center_axis',(0.,1.,0.));
#1351=DIRECTION('ref_axis',(-0.707106781186548,0.,0.707106781186547));
#1352=DIRECTION('center_axis',(1.,0.,-1.26882631385732E-16));
#1353=DIRECTION('ref_axis',(0.,0.707106781186548,0.707106781186547));
#1354=DIRECTION('center_axis',(-1.,0.,-4.44089209850063E-15));
#1355=DIRECTION('ref_axis',(-4.44089209850063E-15,0.,1.));
#1356=DIRECTION('',(1.,0.,-1.26882631385732E-16));
#1357=DIRECTION('center_axis',(-5.55111512312578E-16,0.,1.));
#1358=DIRECTION('ref_axis',(1.,0.,5.55111512312578E-16));
#1359=DIRECTION('center_axis',(0.,1.,0.));
#1360=DIRECTION('ref_axis',(0.707106781186546,0.,0.707106781186549));
#1361=DIRECTION('center_axis',(-4.44089209850063E-16,0.,-1.));
#1362=DIRECTION('ref_axis',(0.707106781186546,0.707106781186549,0.));
#1363=DIRECTION('center_axis',(-1.26882631385732E-16,0.,1.));
#1364=DIRECTION('ref_axis',(0.707106781186546,0.707106781186549,0.));
#1365=DIRECTION('',(-4.44089209850063E-16,0.,-1.));
#1366=DIRECTION('center_axis',(0.,1.,0.));
#1367=DIRECTION('ref_axis',(0.707106781186548,0.,0.707106781186547));
#1368=DIRECTION('',(0.,-1.,0.));
#1369=DIRECTION('center_axis',(0.,1.,0.));
#1370=DIRECTION('ref_axis',(0.707106781186548,0.,0.707106781186547));
#1371=DIRECTION('',(0.,1.,0.));
#1372=DIRECTION('center_axis',(1.26882631385732E-16,0.,1.));
#1373=DIRECTION('ref_axis',(1.,0.,-1.26882631385732E-16));
#1374=DIRECTION('',(0.,1.,0.));
#1375=DIRECTION('',(1.,0.,-1.26882631385732E-16));
#1376=DIRECTION('center_axis',(0.,1.,0.));
#1377=DIRECTION('ref_axis',(-0.707106781186548,0.,0.707106781186547));
#1378=DIRECTION('',(0.,-1.,0.));
#1379=DIRECTION('center_axis',(0.,1.,0.));
#1380=DIRECTION('ref_axis',(-0.707106781186548,0.,0.707106781186547));
#1381=DIRECTION('center_axis',(1.,0.,0.));
#1382=DIRECTION('ref_axis',(0.,0.,-1.));
#1383=DIRECTION('',(0.,1.,0.));
#1384=DIRECTION('',(0.,0.,-1.));
#1385=DIRECTION('center_axis',(1.61486985400025E-16,0.,-1.));
#1386=DIRECTION('ref_axis',(0.707106781186549,-0.707106781186546,0.));
#1387=DIRECTION('',(1.61486985400025E-16,0.,-1.));
#1388=DIRECTION('center_axis',(-1.61486985400025E-16,0.,-1.));
#1389=DIRECTION('ref_axis',(-0.707106781186548,-0.707106781186547,0.));
#1390=DIRECTION('',(1.61486985400025E-16,0.,1.));
#1391=DIRECTION('center_axis',(0.,1.,0.));
#1392=DIRECTION('ref_axis',(1.,0.,0.));
#1393=DIRECTION('',(0.,-1.,0.));
#1394=DIRECTION('center_axis',(0.,1.,0.));
#1395=DIRECTION('ref_axis',(1.,0.,0.));
#1396=DIRECTION('center_axis',(0.,1.,0.));
#1397=DIRECTION('ref_axis',(1.,0.,0.));
#1398=DIRECTION('',(0.,-1.,0.));
#1399=DIRECTION('center_axis',(0.,1.,0.));
#1400=DIRECTION('ref_axis',(1.,0.,0.));
#1401=DIRECTION('center_axis',(0.,1.,0.));
#1402=DIRECTION('ref_axis',(-1.,0.,0.));
#1403=DIRECTION('',(-0.707106781186547,-0.707106781186548,8.65956056235493E-17));
#1404=DIRECTION('center_axis',(0.,-1.,0.));
#1405=DIRECTION('ref_axis',(-1.,0.,0.));
#1406=DIRECTION('center_axis',(0.,-1.,0.));
#1407=DIRECTION('ref_axis',(-1.,0.,0.));
#1408=DIRECTION('center_axis',(0.,1.,0.));
#1409=DIRECTION('ref_axis',(1.,0.,0.));
#1410=DIRECTION('',(0.,-1.,0.));
#1411=DIRECTION('center_axis',(0.,1.,0.));
#1412=DIRECTION('ref_axis',(1.,0.,0.));
#1413=DIRECTION('center_axis',(0.,1.,0.));
#1414=DIRECTION('ref_axis',(-1.,0.,0.));
#1415=DIRECTION('',(-0.707106781186547,-0.707106781186548,8.65956056235493E-17));
#1416=DIRECTION('center_axis',(0.,-1.,0.));
#1417=DIRECTION('ref_axis',(-1.,0.,0.));
#1418=DIRECTION('center_axis',(0.,-1.,0.));
#1419=DIRECTION('ref_axis',(-1.,0.,0.));
#1420=DIRECTION('center_axis',(0.,1.,0.));
#1421=DIRECTION('ref_axis',(1.,0.,0.));
#1422=DIRECTION('',(0.,-1.,0.));
#1423=DIRECTION('center_axis',(0.,1.,0.));
#1424=DIRECTION('ref_axis',(1.,0.,0.));
#1425=DIRECTION('center_axis',(-1.26882631385732E-16,0.,1.));
#1426=DIRECTION('ref_axis',(1.,0.,1.26882631385732E-16));
#1427=DIRECTION('',(0.,1.,0.));
#1428=DIRECTION('',(1.,0.,1.26882631385732E-16));
#1429=DIRECTION('center_axis',(-1.,0.,4.44089209850063E-16));
#1430=DIRECTION('ref_axis',(4.44089209850063E-16,0.,1.));
#1431=DIRECTION('',(4.44089209850063E-16,0.,1.));
#1432=DIRECTION('center_axis',(0.,-1.,0.));
#1433=DIRECTION('ref_axis',(0.,0.,-1.));
#1434=DIRECTION('',(5.36944226455082E-15,0.,-1.));
#1435=DIRECTION('',(5.36944226455082E-15,0.,-1.));
#1436=DIRECTION('',(-1.,0.,2.53765262771464E-16));
#1437=DIRECTION('center_axis',(0.,1.,0.));
#1438=DIRECTION('ref_axis',(1.,0.,0.));
#1439=DIRECTION('center_axis',(0.,1.,0.));
#1440=DIRECTION('ref_axis',(1.,0.,0.));
#1441=DIRECTION('center_axis',(0.,1.,0.));
#1442=DIRECTION('ref_axis',(1.,0.,0.));
#1443=DIRECTION('center_axis',(0.,1.,0.));
#1444=DIRECTION('ref_axis',(1.,0.,0.));
#1445=DIRECTION('center_axis',(0.,-1.,0.));
#1446=DIRECTION('ref_axis',(1.,0.,0.));
#1447=DIRECTION('',(0.,-1.,0.));
#1448=DIRECTION('center_axis',(0.,-1.,0.));
#1449=DIRECTION('ref_axis',(1.,0.,0.));
#1450=DIRECTION('',(0.,-1.,0.));
#1451=DIRECTION('center_axis',(0.,1.,0.));
#1452=DIRECTION('ref_axis',(-1.,0.,0.));
#1453=DIRECTION('',(-0.707106781186547,-0.707106781186548,8.65956056235493E-17));
#1454=DIRECTION('center_axis',(0.,-1.,0.));
#1455=DIRECTION('ref_axis',(-1.,0.,0.));
#1456=DIRECTION('center_axis',(0.,-1.,0.));
#1457=DIRECTION('ref_axis',(-1.,0.,0.));
#1458=DIRECTION('center_axis',(0.,-1.,0.));
#1459=DIRECTION('ref_axis',(1.,0.,0.));
#1460=DIRECTION('',(0.,-1.,0.));
#1461=DIRECTION('center_axis',(0.,1.,0.));
#1462=DIRECTION('ref_axis',(-1.,0.,0.));
#1463=DIRECTION('',(-0.707106781186547,-0.707106781186548,8.65956056235493E-17));
#1464=DIRECTION('center_axis',(0.,-1.,0.));
#1465=DIRECTION('ref_axis',(-1.,0.,0.));
#1466=DIRECTION('center_axis',(0.,-1.,0.));
#1467=DIRECTION('ref_axis',(-1.,0.,0.));
#1468=DIRECTION('center_axis',(0.,-1.,0.));
#1469=DIRECTION('ref_axis',(1.,0.,0.));
#1470=DIRECTION('',(0.,-1.,0.));
#1471=DIRECTION('center_axis',(0.,-1.,0.));
#1472=DIRECTION('ref_axis',(0.,0.,-1.));
#1473=DIRECTION('',(5.57130099630085E-15,0.,-1.));
#1474=DIRECTION('center_axis',(0.,-1.,0.));
#1475=DIRECTION('ref_axis',(0.,0.,-1.));
#1476=DIRECTION('center_axis',(1.,0.,5.36944226455082E-15));
#1477=DIRECTION('ref_axis',(-5.36944226455082E-15,0.,1.));
#1478=DIRECTION('',(0.,1.,0.));
#1479=DIRECTION('center_axis',(-2.53765262771464E-16,0.,-1.));
#1480=DIRECTION('ref_axis',(-1.,0.,2.53765262771464E-16));
#1481=CARTESIAN_POINT('',(0.,0.,0.));
#1482=CARTESIAN_POINT('Origin',(15.590823167949,-0.25,-4.74999999999984));
#1483=CARTESIAN_POINT('',(28.6816463358975,0.,-4.49999999999983));
#1484=CARTESIAN_POINT('',(28.6816463358975,-0.5,-4.99999999999984));
#1485=CARTESIAN_POINT('',(28.6816463358975,0.999999999999999,-3.49999999999982));
#1486=CARTESIAN_POINT('',(29.1816463358981,-0.5,-4.99999999999984));
#1487=CARTESIAN_POINT('',(15.590823167949,-0.5,-4.99999999999984));
#1488=CARTESIAN_POINT('',(29.1816463358981,0.,-4.49999999999983));
#1489=CARTESIAN_POINT('',(29.1816463358981,-0.5,-4.99999999999984));
#1490=CARTESIAN_POINT('',(15.590823167949,0.,-4.49999999999983));
#1491=CARTESIAN_POINT('Origin',(29.1816463358981,-0.25,-6.99999999999984));
#1492=CARTESIAN_POINT('',(31.1816463358981,-0.5,-6.99999999999984));
#1493=CARTESIAN_POINT('Origin',(29.1816463358981,-0.5,-6.99999999999984));
#1494=CARTESIAN_POINT('',(31.6816463358981,0.,-6.99999999999984));
#1495=CARTESIAN_POINT('',(31.1816463358981,-0.5,-6.99999999999984));
#1496=CARTESIAN_POINT('Origin',(29.1816463358981,0.,-6.99999999999984));
#1497=CARTESIAN_POINT('Origin',(31.4316463358981,-0.25,-172.499999999998));
#1498=CARTESIAN_POINT('',(31.1816463358981,-0.5,-222.999999999997));
#1499=CARTESIAN_POINT('',(31.1816463358981,-0.5,-172.499999999998));
#1500=CARTESIAN_POINT('',(31.6816463358981,0.,-222.999999999997));
#1501=CARTESIAN_POINT('',(31.1816463358981,-0.5,-222.999999999997));
#1502=CARTESIAN_POINT('',(31.6816463358981,0.,-172.499999999998));
#1503=CARTESIAN_POINT('Origin',(29.1816463358981,-0.25,-222.999999999997));
#1504=CARTESIAN_POINT('',(29.1816463358981,-0.5,-224.999999999997));
#1505=CARTESIAN_POINT('Origin',(29.1816463358981,-0.5,-222.999999999997));
#1506=CARTESIAN_POINT('',(29.1816463358981,0.,-225.499999999997));
#1507=CARTESIAN_POINT('',(29.1816463358981,-0.5,-224.999999999997));
#1508=CARTESIAN_POINT('Origin',(29.1816463358981,0.,-222.999999999997));
#1509=CARTESIAN_POINT('Origin',(17.5,-0.25,-225.249999999997));
#1510=CARTESIAN_POINT('',(28.6816463358987,0.,-225.499999999997));
#1511=CARTESIAN_POINT('',(28.6816463358975,-0.5,-224.999999999997));
#1512=CARTESIAN_POINT('',(28.6816463358984,-53.9999999999993,-171.499999999997));
#1513=CARTESIAN_POINT('',(17.5,0.,-225.499999999997));
#1514=CARTESIAN_POINT('',(17.5,-0.5,-224.999999999997));
#1515=CARTESIAN_POINT('Origin',(35.,5.,-224.999999999997));
#1516=CARTESIAN_POINT('',(29.1816463358981,-5.,-224.999999999997));
#1517=CARTESIAN_POINT('',(29.1816463358981,2.5,-224.999999999997));
#1518=CARTESIAN_POINT('',(28.6816463358975,-5.,-224.999999999997));
#1519=CARTESIAN_POINT('',(31.1816463358981,-5.,-224.999999999997));
#1520=CARTESIAN_POINT('',(28.6816463358975,5.,-224.999999999997));
#1521=CARTESIAN_POINT('Origin',(29.1816463358981,2.5,-222.999999999997));
#1522=CARTESIAN_POINT('',(31.1816463358981,-3.,-222.999999999997));
#1523=CARTESIAN_POINT('',(31.1816463358981,2.5,-222.999999999997));
#1524=CARTESIAN_POINT('Origin',(29.1816463358981,-3.,-222.999999999997));
#1525=CARTESIAN_POINT('Origin',(31.1816463358981,0.,-114.999999999998));
#1526=CARTESIAN_POINT('',(31.1816463358981,-3.,-6.99999999999984));
#1527=CARTESIAN_POINT('',(31.1816463358981,0.,-6.99999999999984));
#1528=CARTESIAN_POINT('',(31.1816463358981,-3.,-87.4999999999988));
#1529=CARTESIAN_POINT('Origin',(29.1816463358981,0.,-6.99999999999984));
#1530=CARTESIAN_POINT('',(29.1816463358981,-5.,-4.99999999999984));
#1531=CARTESIAN_POINT('',(29.1816463358981,0.,-4.99999999999984));
#1532=CARTESIAN_POINT('Origin',(29.1816463358981,-3.,-6.99999999999984));
#1533=CARTESIAN_POINT('Origin',(31.1816463358981,0.,-4.99999999999984));
#1534=CARTESIAN_POINT('',(28.6816463358975,-5.,-4.99999999999984));
#1535=CARTESIAN_POINT('',(28.6816463358975,0.,-4.99999999999984));
#1536=CARTESIAN_POINT('',(31.1816463358981,-5.,-4.99999999999984));
#1537=CARTESIAN_POINT('Origin',(-14.3408231679475,-0.25,-225.249999999997));
#1538=CARTESIAN_POINT('',(-28.6816463358939,0.,-225.499999999997));
#1539=CARTESIAN_POINT('',(-28.6816463358951,-0.5,-224.999999999997));
#1540=CARTESIAN_POINT('',(-28.6816463358941,-26.4999999999996,-198.999999999997));
#1541=CARTESIAN_POINT('',(-29.1816463358981,-0.5,-224.999999999997));
#1542=CARTESIAN_POINT('',(-14.3408231679475,-0.5,-224.999999999997));
#1543=CARTESIAN_POINT('',(-29.1816463358981,0.,-225.499999999997));
#1544=CARTESIAN_POINT('',(-29.1816463358981,-0.5,-224.999999999997));
#1545=CARTESIAN_POINT('',(-14.3408231679475,0.,-225.499999999997));
#1546=CARTESIAN_POINT('Origin',(-29.1816463358981,-0.25,-222.999999999997));
#1547=CARTESIAN_POINT('',(-31.1816463358981,-0.5,-222.999999999997));
#1548=CARTESIAN_POINT('Origin',(-29.1816463358981,-0.5,-222.999999999997));
#1549=CARTESIAN_POINT('',(-31.6816463358981,0.,-222.999999999997));
#1550=CARTESIAN_POINT('',(-31.1816463358981,-0.5,-222.999999999997));
#1551=CARTESIAN_POINT('Origin',(-29.1816463358981,0.,-222.999999999997));
#1552=CARTESIAN_POINT('Origin',(-31.4316463358981,-0.25,-117.499999999998));
#1553=CARTESIAN_POINT('',(-31.1816463358981,-0.5,-6.99999999999984));
#1554=CARTESIAN_POINT('',(-31.6816463358981,0.,-6.99999999999983));
#1555=CARTESIAN_POINT('',(-31.1816463358981,-0.5,-6.99999999999984));
#1556=CARTESIAN_POINT('',(-31.6816463358981,0.,-117.499999999998));
#1557=CARTESIAN_POINT('',(-31.1816463358981,-0.5,-117.499999999998));
#1558=CARTESIAN_POINT('Origin',(-29.1816463358981,-0.25,-6.99999999999984));
#1559=CARTESIAN_POINT('',(-29.1816463358981,-0.5,-4.99999999999984));
#1560=CARTESIAN_POINT('Origin',(-29.1816463358981,-0.5,-6.99999999999984));
#1561=CARTESIAN_POINT('',(-29.1816463358981,0.,-4.49999999999984));
#1562=CARTESIAN_POINT('',(-29.1816463358981,-0.5,-4.99999999999984));
#1563=CARTESIAN_POINT('Origin',(-29.1816463358981,0.,-6.99999999999984));
#1564=CARTESIAN_POINT('Origin',(-14.3408231679487,-0.25,-4.74999999999984));
#1565=CARTESIAN_POINT('',(-28.6816463358951,0.,-4.49999999999983));
#1566=CARTESIAN_POINT('',(-28.6816463358975,-0.5,-4.99999999999984));
#1567=CARTESIAN_POINT('',(-28.681646335895,-26.4999999999997,-30.9999999999999));
#1568=CARTESIAN_POINT('',(-14.3408231679487,0.,-4.49999999999983));
#1569=CARTESIAN_POINT('',(-14.3408231679487,-0.5,-4.99999999999984));
#1570=CARTESIAN_POINT('Origin',(-28.6816463358975,0.,-4.99999999999984));
#1571=CARTESIAN_POINT('',(-29.1816463358981,-5.,-4.99999999999984));
#1572=CARTESIAN_POINT('',(-29.1816463358981,0.,-4.99999999999984));
#1573=CARTESIAN_POINT('',(-28.6816463358975,-5.,-4.99999999999984));
#1574=CARTESIAN_POINT('',(-28.6816463358975,-5.,-4.99999999999984));
#1575=CARTESIAN_POINT('',(-28.6816463358975,0.,-4.99999999999984));
#1576=CARTESIAN_POINT('Origin',(-29.1816463358981,0.,-6.99999999999984));
#1577=CARTESIAN_POINT('',(-31.1816463358981,-3.,-6.99999999999984));
#1578=CARTESIAN_POINT('',(-31.1816463358981,0.,-6.99999999999984));
#1579=CARTESIAN_POINT('Origin',(-29.1816463358981,-3.,-6.99999999999984));
#1580=CARTESIAN_POINT('Origin',(-31.1816463358981,0.,-4.99999999999984));
#1581=CARTESIAN_POINT('',(-31.1816463358981,-3.,-222.999999999997));
#1582=CARTESIAN_POINT('',(-31.1816463358981,2.5,-222.999999999997));
#1583=CARTESIAN_POINT('',(-31.1816463358981,-3.,-32.4999999999995));
#1584=CARTESIAN_POINT('Origin',(-29.1816463358981,2.5,-222.999999999997));
#1585=CARTESIAN_POINT('',(-29.1816463358981,-5.,-224.999999999997));
#1586=CARTESIAN_POINT('',(-29.1816463358981,2.5,-224.999999999997));
#1587=CARTESIAN_POINT('Origin',(-29.1816463358981,-3.,-222.999999999997));
#1588=CARTESIAN_POINT('Origin',(-28.6816463358951,5.,-224.999999999997));
#1589=CARTESIAN_POINT('',(-28.6816463358975,-5.,-224.999999999997));
#1590=CARTESIAN_POINT('',(-28.6816463358951,5.,-224.999999999997));
#1591=CARTESIAN_POINT('',(-28.6816463358975,-5.,-224.999999999997));
#1592=CARTESIAN_POINT('Origin',(17.5,4.,-225.999999999997));
#1593=CARTESIAN_POINT('',(29.6816463358987,5.,-225.999999999997));
#1594=CARTESIAN_POINT('',(-29.6816463358939,5.,-225.999999999997));
#1595=CARTESIAN_POINT('',(17.5,5.,-225.999999999997));
#1596=CARTESIAN_POINT('',(-28.6816463358951,4.,-224.999999999997));
#1597=CARTESIAN_POINT('Origin',(-29.6816463358939,4.,-225.999999999997));
#1598=CARTESIAN_POINT('',(28.6816463358975,4.,-224.999999999997));
#1599=CARTESIAN_POINT('',(17.5,4.,-224.999999999997));
#1600=CARTESIAN_POINT('Origin',(29.6816463358987,4.,-225.999999999997));
#1601=CARTESIAN_POINT('Origin',(-29.6816463358942,4.,-172.499999999998));
#1602=CARTESIAN_POINT('',(-28.6816463358951,4.,-4.99999999999999));
#1603=CARTESIAN_POINT('',(-28.6816463358942,4.,-172.499999999998));
#1604=CARTESIAN_POINT('',(-29.6816463358951,5.,-3.99999999999999));
#1605=CARTESIAN_POINT('',(-29.6816463358942,5.,-172.499999999998));
#1606=CARTESIAN_POINT('Origin',(-29.6816463358951,4.,-4.00000000000002));
#1607=CARTESIAN_POINT('Origin',(17.5,4.,-4.));
#1608=CARTESIAN_POINT('',(28.6816463358975,4.,-5.));
#1609=CARTESIAN_POINT('',(17.5,4.,-5.));
#1610=CARTESIAN_POINT('',(29.6816463358975,5.,-4.));
#1611=CARTESIAN_POINT('',(17.5,5.,-4.));
#1612=CARTESIAN_POINT('Origin',(29.6816463358975,4.,-4.00000000000001));
#1613=CARTESIAN_POINT('Origin',(29.6816463358981,4.,-117.499999999998));
#1614=CARTESIAN_POINT('',(29.6816463358981,5.,-117.499999999998));
#1615=CARTESIAN_POINT('',(28.6816463358981,4.,-117.499999999998));
#1616=CARTESIAN_POINT('Origin',(28.6816463358975,5.,-4.99999999999984));
#1617=CARTESIAN_POINT('',(28.6816463358975,0.,-224.999999999997));
#1618=CARTESIAN_POINT('',(28.6816463358975,2.5,-224.999999999997));
#1619=CARTESIAN_POINT('',(28.6816463358981,0.,-117.499999999998));
#1620=CARTESIAN_POINT('',(28.6816463358975,-5.,-4.99999999999984));
#1621=CARTESIAN_POINT('',(28.6816463358975,0.,-4.99999999999984));
#1622=CARTESIAN_POINT('',(28.6816463358981,0.,-117.499999999998));
#1623=CARTESIAN_POINT('',(28.6816463358975,2.5,-5.));
#1624=CARTESIAN_POINT('Origin',(35.,0.,-224.999999999997));
#1625=CARTESIAN_POINT('',(-28.6816463358951,0.,-224.999999999997));
#1626=CARTESIAN_POINT('',(-28.6816463358951,2.5,-224.999999999997));
#1627=CARTESIAN_POINT('',(35.,0.,-224.999999999997));
#1628=CARTESIAN_POINT('Origin',(0.,5.,-229.999999999997));
#1629=CARTESIAN_POINT('',(34.,5.,-234.999999999997));
#1630=CARTESIAN_POINT('',(34.,5.,3.));
#1631=CARTESIAN_POINT('',(34.,5.,-232.499999999997));
#1632=CARTESIAN_POINT('',(-34.,5.,-234.999999999997));
#1633=CARTESIAN_POINT('',(-35.,5.,-234.999999999997));
#1634=CARTESIAN_POINT('',(-34.,5.,3.00000000000001));
#1635=CARTESIAN_POINT('',(-34.,5.,-227.499999999997));
#1636=CARTESIAN_POINT('',(-33.,5.,4.));
#1637=CARTESIAN_POINT('Origin',(-33.,5.,3.));
#1638=CARTESIAN_POINT('',(33.,5.,4.));
#1639=CARTESIAN_POINT('',(-17.5,5.,4.));
#1640=CARTESIAN_POINT('Origin',(33.,5.,3.));
#1641=CARTESIAN_POINT('',(-26.3999999999978,5.,-229.999999999997));
#1642=CARTESIAN_POINT('Origin',(-29.9999999999978,5.,-229.999999999997));
#1643=CARTESIAN_POINT('',(-24.5499999999978,5.,1.67526703787132E-14));
#1644=CARTESIAN_POINT('Origin',(-21.9999999999978,5.,1.70649553124958E-14));
#1645=CARTESIAN_POINT('',(19.4500000000002,5.,1.90191457177496E-14));
#1646=CARTESIAN_POINT('Origin',(22.0000000000002,5.,1.93314306515322E-14));
#1647=CARTESIAN_POINT('',(33.6000000000002,5.,1.06140537516322E-13));
#1648=CARTESIAN_POINT('Origin',(30.0000000000002,5.,1.06581410364015E-13));
#1649=CARTESIAN_POINT('',(-26.3999999999978,5.,1.06140537516322E-13));
#1650=CARTESIAN_POINT('Origin',(-29.9999999999978,5.,1.06581410364015E-13));
#1651=CARTESIAN_POINT('',(33.6000000000002,5.,-229.999999999997));
#1652=CARTESIAN_POINT('Origin',(30.0000000000002,5.,-229.999999999997));
#1653=CARTESIAN_POINT('',(19.4500000000002,5.,-229.999999999997));
#1654=CARTESIAN_POINT('Origin',(22.0000000000002,5.,-229.999999999997));
#1655=CARTESIAN_POINT('',(-24.5499999999978,5.,-229.999999999997));
#1656=CARTESIAN_POINT('Origin',(-21.9999999999978,5.,-229.999999999997));
#1657=CARTESIAN_POINT('Origin',(-34.,4.,-227.499999999997));
#1658=CARTESIAN_POINT('',(-35.,4.,-234.999999999997));
#1659=CARTESIAN_POINT('Origin',(-34.,4.,-234.999999999997));
#1660=CARTESIAN_POINT('',(-35.,4.,3.));
#1661=CARTESIAN_POINT('',(-35.,4.,-227.499999999997));
#1662=CARTESIAN_POINT('Origin',(-34.,4.,3.00000000000001));
#1663=CARTESIAN_POINT('Ctrl Pts',(-33.,5.,4.));
#1664=CARTESIAN_POINT('Ctrl Pts',(-34.,5.,4.));
#1665=CARTESIAN_POINT('Ctrl Pts',(-34.,5.,3.));
#1666=CARTESIAN_POINT('Ctrl Pts',(-33.,5.,5.00000000000001));
#1667=CARTESIAN_POINT('Ctrl Pts',(-35.,5.,5.));
#1668=CARTESIAN_POINT('Ctrl Pts',(-35.,5.,3.));
#1669=CARTESIAN_POINT('Ctrl Pts',(-33.,4.,5.00000000000001));
#1670=CARTESIAN_POINT('Ctrl Pts',(-35.,4.,5.));
#1671=CARTESIAN_POINT('Ctrl Pts',(-35.,4.,3.));
#1672=CARTESIAN_POINT('',(-33.,4.,5.));
#1673=CARTESIAN_POINT('Origin',(-33.,4.,4.));
#1674=CARTESIAN_POINT('Origin',(-33.,4.,3.));
#1675=CARTESIAN_POINT('Origin',(-17.5,4.,4.));
#1676=CARTESIAN_POINT('',(33.,4.,5.));
#1677=CARTESIAN_POINT('Origin',(33.,4.,4.));
#1678=CARTESIAN_POINT('',(-17.5,4.,5.));
#1679=CARTESIAN_POINT('Ctrl Pts',(34.,5.,3.));
#1680=CARTESIAN_POINT('Ctrl Pts',(34.,5.,4.));
#1681=CARTESIAN_POINT('Ctrl Pts',(33.,5.,3.99999999999999));
#1682=CARTESIAN_POINT('Ctrl Pts',(35.,5.,3.));
#1683=CARTESIAN_POINT('Ctrl Pts',(35.,5.,5.));
#1684=CARTESIAN_POINT('Ctrl Pts',(33.,5.,5.));
#1685=CARTESIAN_POINT('Ctrl Pts',(35.,4.,3.));
#1686=CARTESIAN_POINT('Ctrl Pts',(35.,4.,5.));
#1687=CARTESIAN_POINT('Ctrl Pts',(33.,4.,5.));
#1688=CARTESIAN_POINT('',(35.,4.,3.));
#1689=CARTESIAN_POINT('Origin',(34.,4.,3.));
#1690=CARTESIAN_POINT('Origin',(33.,4.,3.));
#1691=CARTESIAN_POINT('Origin',(34.,4.,-232.499999999997));
#1692=CARTESIAN_POINT('',(35.,4.,-234.999999999997));
#1693=CARTESIAN_POINT('Origin',(34.,4.,-234.999999999997));
#1694=CARTESIAN_POINT('',(35.,4.,-232.499999999997));
#1695=CARTESIAN_POINT('Origin',(33.,0.,3.));
#1696=CARTESIAN_POINT('',(33.,0.,5.));
#1697=CARTESIAN_POINT('',(33.,0.,5.));
#1698=CARTESIAN_POINT('',(35.,0.,3.));
#1699=CARTESIAN_POINT('Origin',(33.,0.,3.));
#1700=CARTESIAN_POINT('',(35.,0.,3.));
#1701=CARTESIAN_POINT('Origin',(-35.,0.,5.));
#1702=CARTESIAN_POINT('',(-33.,0.,5.));
#1703=CARTESIAN_POINT('',(-33.,0.,5.));
#1704=CARTESIAN_POINT('',(-35.,0.,5.));
#1705=CARTESIAN_POINT('Origin',(-33.,0.,3.));
#1706=CARTESIAN_POINT('',(-35.,0.,3.));
#1707=CARTESIAN_POINT('',(-35.,0.,3.));
#1708=CARTESIAN_POINT('Origin',(-33.,0.,3.));
#1709=CARTESIAN_POINT('Origin',(-35.,0.,-224.999999999997));
#1710=CARTESIAN_POINT('',(-35.,0.,-234.999999999997));
#1711=CARTESIAN_POINT('',(-35.,0.,-234.999999999997));
#1712=CARTESIAN_POINT('',(-35.,0.,-224.999999999997));
#1713=CARTESIAN_POINT('Origin',(29.1816463358981,-3.,-87.4999999999988));
#1714=CARTESIAN_POINT('',(29.1816463358981,-5.,-87.4999999999988));
#1715=CARTESIAN_POINT('Origin',(-29.1816463358981,-3.,-32.4999999999995));
#1716=CARTESIAN_POINT('',(-29.1816463358981,-5.,-32.4999999999995));
#1717=CARTESIAN_POINT('Origin',(-21.9999999999978,5.,-229.999999999997));
#1718=CARTESIAN_POINT('',(-24.5499999999978,0.,-229.999999999997));
#1719=CARTESIAN_POINT('',(-24.5499999999978,5.,-229.999999999997));
#1720=CARTESIAN_POINT('Origin',(-21.9999999999978,0.,-229.999999999997));
#1721=CARTESIAN_POINT('Origin',(22.0000000000002,5.,-229.999999999997));
#1722=CARTESIAN_POINT('',(19.4500000000002,0.,-229.999999999997));
#1723=CARTESIAN_POINT('',(19.4500000000002,5.,-229.999999999997));
#1724=CARTESIAN_POINT('Origin',(22.0000000000002,0.,-229.999999999997));
#1725=CARTESIAN_POINT('Origin',(-29.9999999999978,4.25,-229.999999999997));
#1726=CARTESIAN_POINT('',(-27.8999999999978,3.5,-229.999999999997));
#1727=CARTESIAN_POINT('',(-27.1499999999978,4.25,-229.999999999997));
#1728=CARTESIAN_POINT('',(-32.0999999999978,3.5,-229.999999999997));
#1729=CARTESIAN_POINT('Origin',(-29.9999999999978,3.5,-229.999999999997));
#1730=CARTESIAN_POINT('Origin',(-29.9999999999978,3.5,-229.999999999997));
#1731=CARTESIAN_POINT('Origin',(-29.9999999999978,5.,-229.999999999997));
#1732=CARTESIAN_POINT('',(-32.0999999999978,0.,-229.999999999997));
#1733=CARTESIAN_POINT('',(-32.0999999999978,5.,-229.999999999997));
#1734=CARTESIAN_POINT('Origin',(-29.9999999999978,0.,-229.999999999997));
#1735=CARTESIAN_POINT('Origin',(30.0000000000002,4.25,-229.999999999997));
#1736=CARTESIAN_POINT('',(32.1000000000002,3.5,-229.999999999997));
#1737=CARTESIAN_POINT('',(32.8500000000002,4.25,-229.999999999997));
#1738=CARTESIAN_POINT('',(27.9000000000002,3.5,-229.999999999997));
#1739=CARTESIAN_POINT('Origin',(30.0000000000002,3.5,-229.999999999997));
#1740=CARTESIAN_POINT('Origin',(30.0000000000002,3.5,-229.999999999997));
#1741=CARTESIAN_POINT('Origin',(30.0000000000002,5.,-229.999999999997));
#1742=CARTESIAN_POINT('',(27.9000000000002,0.,-229.999999999997));
#1743=CARTESIAN_POINT('',(27.9000000000002,5.,-229.999999999997));
#1744=CARTESIAN_POINT('Origin',(30.0000000000002,0.,-229.999999999997));
#1745=CARTESIAN_POINT('Origin',(-35.,0.,-234.999999999997));
#1746=CARTESIAN_POINT('',(35.,0.,-234.999999999997));
#1747=CARTESIAN_POINT('',(35.,0.,-234.999999999997));
#1748=CARTESIAN_POINT('',(-35.,0.,-234.999999999997));
#1749=CARTESIAN_POINT('Origin',(35.,0.,-234.999999999997));
#1750=CARTESIAN_POINT('',(35.,0.,-234.999999999997));
#1751=CARTESIAN_POINT('Origin',(0.,0.,-229.999999999997));
#1752=CARTESIAN_POINT('',(-28.6816463358942,0.,-172.499999999998));
#1753=CARTESIAN_POINT('',(-28.6816463358951,0.,-4.9999999999998));
#1754=CARTESIAN_POINT('',(-28.6816463358942,0.,-172.499999999998));
#1755=CARTESIAN_POINT('',(35.,0.,-5.));
#1756=CARTESIAN_POINT('',(-32.0999999999978,0.,1.06838586191836E-13));
#1757=CARTESIAN_POINT('Origin',(-29.9999999999978,0.,1.06581410364015E-13));
#1758=CARTESIAN_POINT('',(27.9000000000002,0.,1.06838586191836E-13));
#1759=CARTESIAN_POINT('Origin',(30.0000000000002,0.,1.06581410364015E-13));
#1760=CARTESIAN_POINT('',(19.4500000000002,0.,1.96437155853148E-14));
#1761=CARTESIAN_POINT('Origin',(22.0000000000002,0.,1.93314306515322E-14));
#1762=CARTESIAN_POINT('',(-24.5499999999978,0.,1.73772402462784E-14));
#1763=CARTESIAN_POINT('Origin',(-21.9999999999978,0.,1.70649553124958E-14));
#1764=CARTESIAN_POINT('Origin',(-21.9999999999978,5.,1.70649553124958E-14));
#1765=CARTESIAN_POINT('',(-24.5499999999978,5.,1.67526703787132E-14));
#1766=CARTESIAN_POINT('Origin',(22.0000000000002,5.,1.93314306515322E-14));
#1767=CARTESIAN_POINT('',(19.4500000000002,5.,1.90191457177496E-14));
#1768=CARTESIAN_POINT('Origin',(-29.9999999999978,4.25,1.06581410364015E-13));
#1769=CARTESIAN_POINT('',(-27.8999999999978,3.5,1.06838586191836E-13));
#1770=CARTESIAN_POINT('',(-27.1499999999978,4.25,1.06232386026258E-13));
#1771=CARTESIAN_POINT('',(-32.0999999999978,3.5,1.06324234536194E-13));
#1772=CARTESIAN_POINT('Origin',(-29.9999999999978,3.5,1.06581410364015E-13));
#1773=CARTESIAN_POINT('Origin',(-29.9999999999978,3.5,1.06581410364015E-13));
#1774=CARTESIAN_POINT('Origin',(-29.9999999999978,5.,1.06581410364015E-13));
#1775=CARTESIAN_POINT('',(-32.0999999999978,5.,1.06324234536194E-13));
#1776=CARTESIAN_POINT('Origin',(30.0000000000002,4.25,1.06581410364015E-13));
#1777=CARTESIAN_POINT('',(32.1000000000002,3.5,1.06838586191836E-13));
#1778=CARTESIAN_POINT('',(32.8500000000002,4.25,1.06232386026258E-13));
#1779=CARTESIAN_POINT('',(27.9000000000002,3.5,1.06324234536194E-13));
#1780=CARTESIAN_POINT('Origin',(30.0000000000002,3.5,1.06581410364015E-13));
#1781=CARTESIAN_POINT('Origin',(30.0000000000002,3.5,1.06581410364015E-13));
#1782=CARTESIAN_POINT('Origin',(30.0000000000002,5.,1.06581410364015E-13));
#1783=CARTESIAN_POINT('',(27.9000000000002,5.,1.06324234536194E-13));
#1784=CARTESIAN_POINT('Origin',(-29.9316463358978,-5.,-59.9999999999992));
#1785=CARTESIAN_POINT('',(-28.6816463358981,-5.,-114.999999999998));
#1786=CARTESIAN_POINT('Origin',(29.9316463358978,-5.,-59.9999999999992));
#1787=CARTESIAN_POINT('Origin',(-28.6816463358945,5.,-114.999999999998));
#1788=CARTESIAN_POINT('',(-28.6816463358951,2.5,-4.99999999999999));
#1789=CARTESIAN_POINT('Origin',(35.,0.,-5.));
#1790=UNCERTAINTY_MEASURE_WITH_UNIT(LENGTH_MEASURE(0.01),#1794,
'DISTANCE_ACCURACY_VALUE',
'Maximum model space distance between geometric entities at asserted c
onnectivities');
#1791=UNCERTAINTY_MEASURE_WITH_UNIT(LENGTH_MEASURE(0.01),#1794,
'DISTANCE_ACCURACY_VALUE',
'Maximum model space distance between geometric entities at asserted c
onnectivities');
#1792=(
GEOMETRIC_REPRESENTATION_CONTEXT(3)
GLOBAL_UNCERTAINTY_ASSIGNED_CONTEXT((#1790))
GLOBAL_UNIT_ASSIGNED_CONTEXT((#1794,#1796,#1797))
REPRESENTATION_CONTEXT('','3D')
);
#1793=(
GEOMETRIC_REPRESENTATION_CONTEXT(3)
GLOBAL_UNCERTAINTY_ASSIGNED_CONTEXT((#1791))
GLOBAL_UNIT_ASSIGNED_CONTEXT((#1794,#1796,#1797))
REPRESENTATION_CONTEXT('','3D')
);
#1794=(
LENGTH_UNIT()
NAMED_UNIT(*)
SI_UNIT(.MILLI.,.METRE.)
);
#1795=(
LENGTH_UNIT()
NAMED_UNIT(*)
SI_UNIT(.CENTI.,.METRE.)
);
#1796=(
NAMED_UNIT(*)
PLANE_ANGLE_UNIT()
SI_UNIT($,.RADIAN.)
);
#1797=(
NAMED_UNIT(*)
SI_UNIT($,.STERADIAN.)
SOLID_ANGLE_UNIT()
);
#1798=SHAPE_DEFINITION_REPRESENTATION(#1799,#1800);
#1799=PRODUCT_DEFINITION_SHAPE('',$,#1802);
#1800=SHAPE_REPRESENTATION('',(#1064),#1792);
#1801=PRODUCT_DEFINITION_CONTEXT('part definition',#1806,'design');
#1802=PRODUCT_DEFINITION(
'\X2\041F0440043E0441044204300432043A0430\X0\_\X2\043A04400435043F043B0435043D0438044F\X0\_
 \X2\04340438043D0430043C0438043A0430\X0\',
'\X2\041F0440043E0441044204300432043A0430\X0\_\X2\043A04400435043F043B0435043D0438044F\X0\_
 \X2\04340438043D0430043C0438043A0430\X0\',#1803,#1801);
#1803=PRODUCT_DEFINITION_FORMATION('',$,#1808);
#1804=PRODUCT_RELATED_PRODUCT_CATEGORY(
'\X2\041F0440043E0441044204300432043A0430\X0\_\X2\043A04400435043F043B0435043D0438044F\X0\_
 \X2\04340438043D0430043C0438043A0430\X0\',
'\X2\041F0440043E0441044204300432043A0430\X0\_\X2\043A04400435043F043B0435043D0438044F\X0\_
 \X2\04340438043D0430043C0438043A0430\X0\',(#1808));
#1805=APPLICATION_PROTOCOL_DEFINITION('international standard',
'automotive_design',2009,#1806);
#1806=APPLICATION_CONTEXT(
'Core Data for Automotive Mechanical Design Process');
#1807=PRODUCT_CONTEXT('part definition',#1806,'mechanical');
#1808=PRODUCT('\X2\041F0440043E0441044204300432043A0430\X0\_\X2\043A04400435043F043B0435043D0438044F\X0\_
 \X2\04340438043D0430043C0438043A0430\X0\',
'\X2\041F0440043E0441044204300432043A0430\X0\_\X2\043A04400435043F043B0435043D0438044F\X0\_
 \X2\04340438043D0430043C0438043A0430\X0\',$,(#1807));
#1809=PRESENTATION_STYLE_ASSIGNMENT((#1810));
#1810=SURFACE_STYLE_USAGE(.BOTH.,#1813);
#1811=SURFACE_STYLE_RENDERING_WITH_PROPERTIES($,#1817,(#1812));
#1812=SURFACE_STYLE_TRANSPARENT(0.);
#1813=SURFACE_SIDE_STYLE('',(#1814,#1811));
#1814=SURFACE_STYLE_FILL_AREA(#1815);
#1815=FILL_AREA_STYLE('',(#1816));
#1816=FILL_AREA_STYLE_COLOUR('',#1817);
#1817=COLOUR_RGB('',0.87843137254902,0.,0.788235294117647);
ENDSEC;
END-ISO-10303-21;
