ISO-10303-21;
HEADER;
/* Generated by software containing ST-Developer
 * from STEP Tools, Inc. (www.steptools.com) 
 */

FILE_DESCRIPTION(
/* description */ (''),
/* implementation_level */ '2;1');

FILE_NAME(
/* name */ '',
/* time_stamp */ '2025-09-22T20:55:28+03:00',
/* author */ ('I9232'),
/* organization */ (''),
/* preprocessor_version */ 'ST-DEVELOPER v19.2',
/* originating_system */ 'Autodesk Inventor 2023',
/* authorisation */ '');

FILE_SCHEMA (('AUTOMOTIVE_DESIGN { 1 0 10303 214 3 1 1 }'));
ENDSEC;

DATA;
#10=MECHANICAL_DESIGN_GEOMETRIC_PRESENTATION_REPRESENTATION('',(#13),#1931);
#11=SHAPE_REPRESENTATION_RELATIONSHIP('SRR','None',#1938,#12);
#12=ADVANCED_BREP_SHAPE_REPRESENTATION('',(#14),#1930);
#13=STYLED_ITEM('',(#1947),#14);
#14=MANIFOLD_SOLID_BREP('\X2\04220432043504400434043E0435\X0\ \X2\04420435043B043E\X0\1',
#1114);
#15=SPHERICAL_SURFACE('',#1206,2.);
#16=SPHERICAL_SURFACE('',#1209,2.);
#17=SPHERICAL_SURFACE('',#1219,2.);
#18=(
BOUNDED_SURFACE()
B_SPLINE_SURFACE(2,2,((#1779,#1780,#1781),(#1782,#1783,#1784),(#1785,#1786,
#1787)),.UNSPECIFIED.,.F.,.F.,.F.)
B_SPLINE_SURFACE_WITH_KNOTS((3,3),(3,3),(-1.5707963267949,0.),(-3.14159265358979,
-1.5707963267949),.UNSPECIFIED.)
GEOMETRIC_REPRESENTATION_ITEM()
RATIONAL_B_SPLINE_SURFACE(((1.,0.707106781186548,1.),(0.707106781186548,
0.500000000000001,0.707106781186548),(1.,0.707106781186548,1.)))
REPRESENTATION_ITEM('')
SURFACE()
);
#19=(
BOUNDED_SURFACE()
B_SPLINE_SURFACE(2,2,((#1795,#1796,#1797),(#1798,#1799,#1800),(#1801,#1802,
#1803)),.UNSPECIFIED.,.F.,.F.,.F.)
B_SPLINE_SURFACE_WITH_KNOTS((3,3),(3,3),(-1.5707963267949,0.),(1.5707963267949,
3.14159265358979),.UNSPECIFIED.)
GEOMETRIC_REPRESENTATION_ITEM()
RATIONAL_B_SPLINE_SURFACE(((1.,0.707106781186547,1.),(0.707106781186549,
0.500000000000001,0.707106781186549),(1.,0.707106781186547,1.)))
REPRESENTATION_ITEM('')
SURFACE()
);
#20=FACE_BOUND('',#217,.T.);
#21=FACE_BOUND('',#218,.T.);
#22=FACE_BOUND('',#219,.T.);
#23=FACE_BOUND('',#220,.T.);
#24=FACE_BOUND('',#221,.T.);
#25=FACE_BOUND('',#222,.T.);
#26=FACE_BOUND('',#223,.T.);
#27=FACE_BOUND('',#224,.T.);
#28=FACE_BOUND('',#225,.T.);
#29=FACE_BOUND('',#264,.T.);
#30=FACE_BOUND('',#265,.T.);
#31=FACE_BOUND('',#266,.T.);
#32=FACE_BOUND('',#267,.T.);
#33=FACE_BOUND('',#268,.T.);
#34=FACE_BOUND('',#269,.T.);
#35=FACE_BOUND('',#270,.T.);
#36=FACE_BOUND('',#271,.T.);
#37=FACE_BOUND('',#272,.T.);
#38=ELLIPSE('',#1167,2.8284271247462,2.);
#39=CYLINDRICAL_SURFACE('',#1147,2.);
#40=CYLINDRICAL_SURFACE('',#1150,2.);
#41=CYLINDRICAL_SURFACE('',#1163,2.);
#42=CYLINDRICAL_SURFACE('',#1166,2.);
#43=CYLINDRICAL_SURFACE('',#1171,1.);
#44=CYLINDRICAL_SURFACE('',#1185,1.);
#45=CYLINDRICAL_SURFACE('',#1189,1.);
#46=CYLINDRICAL_SURFACE('',#1194,1.);
#47=CYLINDRICAL_SURFACE('',#1198,1.);
#48=CYLINDRICAL_SURFACE('',#1200,2.);
#49=CYLINDRICAL_SURFACE('',#1203,2.);
#50=CYLINDRICAL_SURFACE('',#1212,2.);
#51=CYLINDRICAL_SURFACE('',#1214,2.);
#52=CYLINDRICAL_SURFACE('',#1215,2.);
#53=CYLINDRICAL_SURFACE('',#1222,2.);
#54=CYLINDRICAL_SURFACE('',#1223,2.);
#55=CYLINDRICAL_SURFACE('',#1227,2.55);
#56=CYLINDRICAL_SURFACE('',#1229,2.55);
#57=CYLINDRICAL_SURFACE('',#1234,2.1);
#58=CYLINDRICAL_SURFACE('',#1239,2.1);
#59=CYLINDRICAL_SURFACE('',#1241,2.55);
#60=CYLINDRICAL_SURFACE('',#1243,2.55);
#61=CYLINDRICAL_SURFACE('',#1248,2.1);
#62=CYLINDRICAL_SURFACE('',#1253,2.1);
#63=CIRCLE('',#1139,2.);
#64=CIRCLE('',#1140,2.5);
#65=CIRCLE('',#1143,2.);
#66=CIRCLE('',#1144,2.50000000000002);
#67=CIRCLE('',#1148,2.);
#68=CIRCLE('',#1151,2.);
#69=CIRCLE('',#1155,2.);
#70=CIRCLE('',#1156,2.50000000000001);
#71=CIRCLE('',#1159,2.);
#72=CIRCLE('',#1160,2.5);
#73=CIRCLE('',#1164,2.);
#74=CIRCLE('',#1172,1.);
#75=CIRCLE('',#1173,1.);
#76=CIRCLE('',#1175,1.);
#77=CIRCLE('',#1176,1.);
#78=CIRCLE('',#1177,3.6);
#79=CIRCLE('',#1178,2.55);
#80=CIRCLE('',#1179,2.55);
#81=CIRCLE('',#1180,3.6);
#82=CIRCLE('',#1181,3.6);
#83=CIRCLE('',#1182,3.6);
#84=CIRCLE('',#1183,2.55);
#85=CIRCLE('',#1184,2.55);
#86=CIRCLE('',#1186,1.);
#87=CIRCLE('',#1187,1.);
#88=CIRCLE('',#1190,1.);
#89=CIRCLE('',#1191,1.);
#90=CIRCLE('',#1192,1.);
#91=CIRCLE('',#1193,2.);
#92=CIRCLE('',#1195,0.999999999999999);
#93=CIRCLE('',#1196,1.);
#94=CIRCLE('',#1197,2.);
#95=CIRCLE('',#1199,1.);
#96=CIRCLE('',#1201,2.);
#97=CIRCLE('',#1204,2.);
#98=CIRCLE('',#1207,1.99999999999999);
#99=CIRCLE('',#1208,2.);
#100=CIRCLE('',#1210,2.);
#101=CIRCLE('',#1211,2.);
#102=CIRCLE('',#1213,2.);
#103=CIRCLE('',#1216,2.);
#104=CIRCLE('',#1220,2.);
#105=CIRCLE('',#1221,2.);
#106=CIRCLE('',#1224,2.);
#107=CIRCLE('',#1228,2.55);
#108=CIRCLE('',#1230,2.55);
#109=CIRCLE('',#1232,2.1);
#110=CIRCLE('',#1233,2.1);
#111=CIRCLE('',#1235,2.1);
#112=CIRCLE('',#1237,2.1);
#113=CIRCLE('',#1238,2.1);
#114=CIRCLE('',#1240,2.1);
#115=CIRCLE('',#1242,2.55);
#116=CIRCLE('',#1244,2.55);
#117=CIRCLE('',#1246,2.1);
#118=CIRCLE('',#1247,2.1);
#119=CIRCLE('',#1249,2.1);
#120=CIRCLE('',#1251,2.1);
#121=CIRCLE('',#1252,2.1);
#122=CIRCLE('',#1254,2.1);
#123=CONICAL_SURFACE('',#1138,2.25,0.785398163397446);
#124=CONICAL_SURFACE('',#1142,2.25000000000001,0.785398163397466);
#125=CONICAL_SURFACE('',#1154,2.25000000000001,0.785398163397463);
#126=CONICAL_SURFACE('',#1158,2.25,0.785398163397447);
#127=CONICAL_SURFACE('',#1231,2.85,0.785398163397448);
#128=CONICAL_SURFACE('',#1236,2.85,0.785398163397448);
#129=CONICAL_SURFACE('',#1245,2.85,0.785398163397448);
#130=CONICAL_SURFACE('',#1250,2.85,0.785398163397448);
#131=FACE_OUTER_BOUND('',#193,.T.);
#132=FACE_OUTER_BOUND('',#194,.T.);
#133=FACE_OUTER_BOUND('',#195,.T.);
#134=FACE_OUTER_BOUND('',#196,.T.);
#135=FACE_OUTER_BOUND('',#197,.T.);
#136=FACE_OUTER_BOUND('',#198,.T.);
#137=FACE_OUTER_BOUND('',#199,.T.);
#138=FACE_OUTER_BOUND('',#200,.T.);
#139=FACE_OUTER_BOUND('',#201,.T.);
#140=FACE_OUTER_BOUND('',#202,.T.);
#141=FACE_OUTER_BOUND('',#203,.T.);
#142=FACE_OUTER_BOUND('',#204,.T.);
#143=FACE_OUTER_BOUND('',#205,.T.);
#144=FACE_OUTER_BOUND('',#206,.T.);
#145=FACE_OUTER_BOUND('',#207,.T.);
#146=FACE_OUTER_BOUND('',#208,.T.);
#147=FACE_OUTER_BOUND('',#209,.T.);
#148=FACE_OUTER_BOUND('',#210,.T.);
#149=FACE_OUTER_BOUND('',#211,.T.);
#150=FACE_OUTER_BOUND('',#212,.T.);
#151=FACE_OUTER_BOUND('',#213,.T.);
#152=FACE_OUTER_BOUND('',#214,.T.);
#153=FACE_OUTER_BOUND('',#215,.T.);
#154=FACE_OUTER_BOUND('',#216,.T.);
#155=FACE_OUTER_BOUND('',#226,.T.);
#156=FACE_OUTER_BOUND('',#227,.T.);
#157=FACE_OUTER_BOUND('',#228,.T.);
#158=FACE_OUTER_BOUND('',#229,.T.);
#159=FACE_OUTER_BOUND('',#230,.T.);
#160=FACE_OUTER_BOUND('',#231,.T.);
#161=FACE_OUTER_BOUND('',#232,.T.);
#162=FACE_OUTER_BOUND('',#233,.T.);
#163=FACE_OUTER_BOUND('',#234,.T.);
#164=FACE_OUTER_BOUND('',#235,.T.);
#165=FACE_OUTER_BOUND('',#236,.T.);
#166=FACE_OUTER_BOUND('',#237,.T.);
#167=FACE_OUTER_BOUND('',#238,.T.);
#168=FACE_OUTER_BOUND('',#239,.T.);
#169=FACE_OUTER_BOUND('',#240,.T.);
#170=FACE_OUTER_BOUND('',#241,.T.);
#171=FACE_OUTER_BOUND('',#242,.T.);
#172=FACE_OUTER_BOUND('',#243,.T.);
#173=FACE_OUTER_BOUND('',#244,.T.);
#174=FACE_OUTER_BOUND('',#245,.T.);
#175=FACE_OUTER_BOUND('',#246,.T.);
#176=FACE_OUTER_BOUND('',#247,.T.);
#177=FACE_OUTER_BOUND('',#248,.T.);
#178=FACE_OUTER_BOUND('',#249,.T.);
#179=FACE_OUTER_BOUND('',#250,.T.);
#180=FACE_OUTER_BOUND('',#251,.T.);
#181=FACE_OUTER_BOUND('',#252,.T.);
#182=FACE_OUTER_BOUND('',#253,.T.);
#183=FACE_OUTER_BOUND('',#254,.T.);
#184=FACE_OUTER_BOUND('',#255,.T.);
#185=FACE_OUTER_BOUND('',#256,.T.);
#186=FACE_OUTER_BOUND('',#257,.T.);
#187=FACE_OUTER_BOUND('',#258,.T.);
#188=FACE_OUTER_BOUND('',#259,.T.);
#189=FACE_OUTER_BOUND('',#260,.T.);
#190=FACE_OUTER_BOUND('',#261,.T.);
#191=FACE_OUTER_BOUND('',#262,.T.);
#192=FACE_OUTER_BOUND('',#263,.T.);
#193=EDGE_LOOP('',(#715,#716,#717,#718));
#194=EDGE_LOOP('',(#719,#720,#721,#722));
#195=EDGE_LOOP('',(#723,#724,#725,#726));
#196=EDGE_LOOP('',(#727,#728,#729,#730));
#197=EDGE_LOOP('',(#731,#732,#733,#734));
#198=EDGE_LOOP('',(#735,#736,#737,#738));
#199=EDGE_LOOP('',(#739,#740,#741,#742));
#200=EDGE_LOOP('',(#743,#744,#745,#746));
#201=EDGE_LOOP('',(#747,#748,#749,#750));
#202=EDGE_LOOP('',(#751,#752,#753,#754));
#203=EDGE_LOOP('',(#755,#756,#757,#758));
#204=EDGE_LOOP('',(#759,#760,#761,#762));
#205=EDGE_LOOP('',(#763,#764,#765,#766));
#206=EDGE_LOOP('',(#767,#768,#769,#770));
#207=EDGE_LOOP('',(#771,#772,#773,#774));
#208=EDGE_LOOP('',(#775,#776,#777,#778));
#209=EDGE_LOOP('',(#779,#780,#781,#782));
#210=EDGE_LOOP('',(#783,#784,#785,#786));
#211=EDGE_LOOP('',(#787,#788,#789,#790));
#212=EDGE_LOOP('',(#791,#792,#793,#794));
#213=EDGE_LOOP('',(#795,#796,#797,#798));
#214=EDGE_LOOP('',(#799,#800,#801,#802));
#215=EDGE_LOOP('',(#803,#804,#805,#806));
#216=EDGE_LOOP('',(#807,#808,#809,#810,#811,#812));
#217=EDGE_LOOP('',(#813));
#218=EDGE_LOOP('',(#814));
#219=EDGE_LOOP('',(#815));
#220=EDGE_LOOP('',(#816));
#221=EDGE_LOOP('',(#817));
#222=EDGE_LOOP('',(#818));
#223=EDGE_LOOP('',(#819));
#224=EDGE_LOOP('',(#820));
#225=EDGE_LOOP('',(#821,#822,#823,#824));
#226=EDGE_LOOP('',(#825,#826,#827,#828));
#227=EDGE_LOOP('',(#829,#830,#831,#832));
#228=EDGE_LOOP('',(#833,#834,#835,#836));
#229=EDGE_LOOP('',(#837,#838,#839,#840));
#230=EDGE_LOOP('',(#841,#842,#843,#844));
#231=EDGE_LOOP('',(#845,#846,#847,#848));
#232=EDGE_LOOP('',(#849,#850,#851,#852));
#233=EDGE_LOOP('',(#853,#854,#855,#856));
#234=EDGE_LOOP('',(#857,#858,#859,#860));
#235=EDGE_LOOP('',(#861,#862,#863,#864));
#236=EDGE_LOOP('',(#865,#866,#867,#868));
#237=EDGE_LOOP('',(#869,#870,#871));
#238=EDGE_LOOP('',(#872,#873,#874));
#239=EDGE_LOOP('',(#875,#876,#877,#878));
#240=EDGE_LOOP('',(#879,#880,#881,#882));
#241=EDGE_LOOP('',(#883,#884,#885,#886));
#242=EDGE_LOOP('',(#887,#888,#889,#890));
#243=EDGE_LOOP('',(#891,#892,#893,#894,#895,#896,#897,#898,#899,#900,#901,
#902,#903,#904));
#244=EDGE_LOOP('',(#905,#906,#907));
#245=EDGE_LOOP('',(#908,#909,#910,#911));
#246=EDGE_LOOP('',(#912,#913,#914,#915));
#247=EDGE_LOOP('',(#916,#917,#918,#919,#920,#921,#922,#923,#924,#925,#926,
#927,#928));
#248=EDGE_LOOP('',(#929,#930,#931,#932));
#249=EDGE_LOOP('',(#933,#934,#935,#936));
#250=EDGE_LOOP('',(#937,#938,#939,#940));
#251=EDGE_LOOP('',(#941,#942,#943,#944,#945));
#252=EDGE_LOOP('',(#946,#947,#948,#949,#950));
#253=EDGE_LOOP('',(#951,#952,#953,#954,#955));
#254=EDGE_LOOP('',(#956,#957,#958,#959,#960));
#255=EDGE_LOOP('',(#961,#962,#963,#964));
#256=EDGE_LOOP('',(#965,#966,#967,#968));
#257=EDGE_LOOP('',(#969,#970,#971,#972,#973));
#258=EDGE_LOOP('',(#974,#975,#976,#977,#978));
#259=EDGE_LOOP('',(#979,#980,#981,#982,#983));
#260=EDGE_LOOP('',(#984,#985,#986,#987,#988));
#261=EDGE_LOOP('',(#989,#990,#991,#992,#993,#994));
#262=EDGE_LOOP('',(#995,#996,#997,#998));
#263=EDGE_LOOP('',(#999,#1000,#1001,#1002,#1003,#1004));
#264=EDGE_LOOP('',(#1005,#1006,#1007,#1008,#1009,#1010,#1011,#1012,#1013,
#1014,#1015,#1016,#1017,#1018));
#265=EDGE_LOOP('',(#1019));
#266=EDGE_LOOP('',(#1020));
#267=EDGE_LOOP('',(#1021));
#268=EDGE_LOOP('',(#1022));
#269=EDGE_LOOP('',(#1023));
#270=EDGE_LOOP('',(#1024));
#271=EDGE_LOOP('',(#1025));
#272=EDGE_LOOP('',(#1026));
#273=LINE('',#1601,#368);
#274=LINE('',#1603,#369);
#275=LINE('',#1605,#370);
#276=LINE('',#1606,#371);
#277=LINE('',#1611,#372);
#278=LINE('',#1616,#373);
#279=LINE('',#1617,#374);
#280=LINE('',#1618,#375);
#281=LINE('',#1623,#376);
#282=LINE('',#1628,#377);
#283=LINE('',#1629,#378);
#284=LINE('',#1630,#379);
#285=LINE('',#1633,#380);
#286=LINE('',#1635,#381);
#287=LINE('',#1636,#382);
#288=LINE('',#1639,#383);
#289=LINE('',#1643,#384);
#290=LINE('',#1644,#385);
#291=LINE('',#1647,#386);
#292=LINE('',#1651,#387);
#293=LINE('',#1652,#388);
#294=LINE('',#1656,#389);
#295=LINE('',#1658,#390);
#296=LINE('',#1660,#391);
#297=LINE('',#1661,#392);
#298=LINE('',#1666,#393);
#299=LINE('',#1671,#394);
#300=LINE('',#1672,#395);
#301=LINE('',#1673,#396);
#302=LINE('',#1678,#397);
#303=LINE('',#1683,#398);
#304=LINE('',#1684,#399);
#305=LINE('',#1685,#400);
#306=LINE('',#1688,#401);
#307=LINE('',#1690,#402);
#308=LINE('',#1691,#403);
#309=LINE('',#1694,#404);
#310=LINE('',#1698,#405);
#311=LINE('',#1699,#406);
#312=LINE('',#1702,#407);
#313=LINE('',#1706,#408);
#314=LINE('',#1707,#409);
#315=LINE('',#1710,#410);
#316=LINE('',#1711,#411);
#317=LINE('',#1713,#412);
#318=LINE('',#1714,#413);
#319=LINE('',#1717,#414);
#320=LINE('',#1719,#415);
#321=LINE('',#1720,#416);
#322=LINE('',#1725,#417);
#323=LINE('',#1730,#418);
#324=LINE('',#1732,#419);
#325=LINE('',#1734,#420);
#326=LINE('',#1738,#421);
#327=LINE('',#1757,#422);
#328=LINE('',#1759,#423);
#329=LINE('',#1760,#424);
#330=LINE('',#1765,#425);
#331=LINE('',#1769,#426);
#332=LINE('',#1771,#427);
#333=LINE('',#1772,#428);
#334=LINE('',#1777,#429);
#335=LINE('',#1794,#430);
#336=LINE('',#1810,#431);
#337=LINE('',#1813,#432);
#338=LINE('',#1816,#433);
#339=LINE('',#1819,#434);
#340=LINE('',#1820,#435);
#341=LINE('',#1823,#436);
#342=LINE('',#1827,#437);
#343=LINE('',#1828,#438);
#344=LINE('',#1840,#439);
#345=LINE('',#1842,#440);
#346=LINE('',#1846,#441);
#347=LINE('',#1848,#442);
#348=LINE('',#1850,#443);
#349=LINE('',#1856,#444);
#350=LINE('',#1860,#445);
#351=LINE('',#1862,#446);
#352=LINE('',#1863,#447);
#353=LINE('',#1867,#448);
#354=LINE('',#1871,#449);
#355=LINE('',#1875,#450);
#356=LINE('',#1881,#451);
#357=LINE('',#1885,#452);
#358=LINE('',#1891,#453);
#359=LINE('',#1895,#454);
#360=LINE('',#1899,#455);
#361=LINE('',#1903,#456);
#362=LINE('',#1909,#457);
#363=LINE('',#1913,#458);
#364=LINE('',#1919,#459);
#365=LINE('',#1923,#460);
#366=LINE('',#1924,#461);
#367=LINE('',#1926,#462);
#368=VECTOR('',#1262,10.);
#369=VECTOR('',#1263,10.);
#370=VECTOR('',#1264,10.);
#371=VECTOR('',#1265,10.);
#372=VECTOR('',#1270,10.);
#373=VECTOR('',#1275,10.);
#374=VECTOR('',#1276,10.);
#375=VECTOR('',#1277,10.);
#376=VECTOR('',#1282,10.);
#377=VECTOR('',#1287,10.);
#378=VECTOR('',#1288,10.);
#379=VECTOR('',#1289,10.);
#380=VECTOR('',#1292,10.);
#381=VECTOR('',#1293,10.);
#382=VECTOR('',#1294,10.);
#383=VECTOR('',#1297,10.);
#384=VECTOR('',#1302,10.);
#385=VECTOR('',#1303,10.);
#386=VECTOR('',#1306,10.);
#387=VECTOR('',#1311,10.);
#388=VECTOR('',#1312,10.);
#389=VECTOR('',#1315,10.);
#390=VECTOR('',#1316,10.);
#391=VECTOR('',#1317,10.);
#392=VECTOR('',#1318,10.);
#393=VECTOR('',#1323,10.);
#394=VECTOR('',#1328,10.);
#395=VECTOR('',#1329,10.);
#396=VECTOR('',#1330,10.);
#397=VECTOR('',#1335,10.);
#398=VECTOR('',#1340,10.);
#399=VECTOR('',#1341,10.);
#400=VECTOR('',#1342,10.);
#401=VECTOR('',#1345,10.);
#402=VECTOR('',#1346,10.);
#403=VECTOR('',#1347,10.);
#404=VECTOR('',#1350,10.);
#405=VECTOR('',#1355,10.);
#406=VECTOR('',#1356,10.);
#407=VECTOR('',#1359,10.);
#408=VECTOR('',#1364,10.);
#409=VECTOR('',#1365,10.);
#410=VECTOR('',#1368,10.);
#411=VECTOR('',#1369,10.);
#412=VECTOR('',#1370,10.);
#413=VECTOR('',#1371,10.);
#414=VECTOR('',#1374,10.);
#415=VECTOR('',#1375,10.);
#416=VECTOR('',#1376,10.);
#417=VECTOR('',#1381,10.);
#418=VECTOR('',#1386,10.);
#419=VECTOR('',#1387,10.);
#420=VECTOR('',#1388,10.);
#421=VECTOR('',#1391,10.);
#422=VECTOR('',#1410,10.);
#423=VECTOR('',#1411,10.);
#424=VECTOR('',#1412,10.);
#425=VECTOR('',#1417,10.);
#426=VECTOR('',#1422,10.);
#427=VECTOR('',#1423,10.);
#428=VECTOR('',#1424,10.);
#429=VECTOR('',#1429,10.);
#430=VECTOR('',#1440,10.);
#431=VECTOR('',#1449,10.);
#432=VECTOR('',#1452,10.);
#433=VECTOR('',#1455,10.);
#434=VECTOR('',#1458,10.);
#435=VECTOR('',#1459,10.);
#436=VECTOR('',#1462,10.);
#437=VECTOR('',#1467,10.);
#438=VECTOR('',#1468,10.);
#439=VECTOR('',#1485,10.);
#440=VECTOR('',#1488,10.);
#441=VECTOR('',#1493,10.);
#442=VECTOR('',#1496,10.);
#443=VECTOR('',#1499,10.);
#444=VECTOR('',#1508,10.);
#445=VECTOR('',#1513,10.);
#446=VECTOR('',#1516,10.);
#447=VECTOR('',#1517,10.);
#448=VECTOR('',#1522,2.55);
#449=VECTOR('',#1527,2.55);
#450=VECTOR('',#1532,2.85);
#451=VECTOR('',#1539,2.1);
#452=VECTOR('',#1544,2.85);
#453=VECTOR('',#1551,2.1);
#454=VECTOR('',#1556,2.55);
#455=VECTOR('',#1561,2.55);
#456=VECTOR('',#1566,2.85);
#457=VECTOR('',#1573,2.1);
#458=VECTOR('',#1578,2.85);
#459=VECTOR('',#1585,2.1);
#460=VECTOR('',#1590,10.);
#461=VECTOR('',#1591,10.);
#462=VECTOR('',#1594,10.);
#463=VERTEX_POINT('',#1599);
#464=VERTEX_POINT('',#1600);
#465=VERTEX_POINT('',#1602);
#466=VERTEX_POINT('',#1604);
#467=VERTEX_POINT('',#1608);
#468=VERTEX_POINT('',#1610);
#469=VERTEX_POINT('',#1614);
#470=VERTEX_POINT('',#1615);
#471=VERTEX_POINT('',#1620);
#472=VERTEX_POINT('',#1622);
#473=VERTEX_POINT('',#1626);
#474=VERTEX_POINT('',#1627);
#475=VERTEX_POINT('',#1632);
#476=VERTEX_POINT('',#1634);
#477=VERTEX_POINT('',#1638);
#478=VERTEX_POINT('',#1642);
#479=VERTEX_POINT('',#1646);
#480=VERTEX_POINT('',#1650);
#481=VERTEX_POINT('',#1654);
#482=VERTEX_POINT('',#1655);
#483=VERTEX_POINT('',#1657);
#484=VERTEX_POINT('',#1659);
#485=VERTEX_POINT('',#1663);
#486=VERTEX_POINT('',#1665);
#487=VERTEX_POINT('',#1669);
#488=VERTEX_POINT('',#1670);
#489=VERTEX_POINT('',#1675);
#490=VERTEX_POINT('',#1677);
#491=VERTEX_POINT('',#1681);
#492=VERTEX_POINT('',#1682);
#493=VERTEX_POINT('',#1687);
#494=VERTEX_POINT('',#1689);
#495=VERTEX_POINT('',#1693);
#496=VERTEX_POINT('',#1697);
#497=VERTEX_POINT('',#1701);
#498=VERTEX_POINT('',#1705);
#499=VERTEX_POINT('',#1709);
#500=VERTEX_POINT('',#1712);
#501=VERTEX_POINT('',#1716);
#502=VERTEX_POINT('',#1718);
#503=VERTEX_POINT('',#1722);
#504=VERTEX_POINT('',#1724);
#505=VERTEX_POINT('',#1728);
#506=VERTEX_POINT('',#1729);
#507=VERTEX_POINT('',#1731);
#508=VERTEX_POINT('',#1733);
#509=VERTEX_POINT('',#1735);
#510=VERTEX_POINT('',#1737);
#511=VERTEX_POINT('',#1740);
#512=VERTEX_POINT('',#1742);
#513=VERTEX_POINT('',#1744);
#514=VERTEX_POINT('',#1746);
#515=VERTEX_POINT('',#1748);
#516=VERTEX_POINT('',#1750);
#517=VERTEX_POINT('',#1752);
#518=VERTEX_POINT('',#1754);
#519=VERTEX_POINT('',#1756);
#520=VERTEX_POINT('',#1758);
#521=VERTEX_POINT('',#1762);
#522=VERTEX_POINT('',#1764);
#523=VERTEX_POINT('',#1768);
#524=VERTEX_POINT('',#1770);
#525=VERTEX_POINT('',#1774);
#526=VERTEX_POINT('',#1776);
#527=VERTEX_POINT('',#1788);
#528=VERTEX_POINT('',#1792);
#529=VERTEX_POINT('',#1804);
#530=VERTEX_POINT('',#1808);
#531=VERTEX_POINT('',#1812);
#532=VERTEX_POINT('',#1814);
#533=VERTEX_POINT('',#1818);
#534=VERTEX_POINT('',#1822);
#535=VERTEX_POINT('',#1826);
#536=VERTEX_POINT('',#1830);
#537=VERTEX_POINT('',#1834);
#538=VERTEX_POINT('',#1838);
#539=VERTEX_POINT('',#1844);
#540=VERTEX_POINT('',#1852);
#541=VERTEX_POINT('',#1858);
#542=VERTEX_POINT('',#1866);
#543=VERTEX_POINT('',#1870);
#544=VERTEX_POINT('',#1874);
#545=VERTEX_POINT('',#1876);
#546=VERTEX_POINT('',#1880);
#547=VERTEX_POINT('',#1884);
#548=VERTEX_POINT('',#1886);
#549=VERTEX_POINT('',#1890);
#550=VERTEX_POINT('',#1894);
#551=VERTEX_POINT('',#1898);
#552=VERTEX_POINT('',#1902);
#553=VERTEX_POINT('',#1904);
#554=VERTEX_POINT('',#1908);
#555=VERTEX_POINT('',#1912);
#556=VERTEX_POINT('',#1914);
#557=VERTEX_POINT('',#1918);
#558=VERTEX_POINT('',#1922);
#559=EDGE_CURVE('',#463,#464,#273,.T.);
#560=EDGE_CURVE('',#464,#465,#274,.T.);
#561=EDGE_CURVE('',#465,#466,#275,.T.);
#562=EDGE_CURVE('',#466,#463,#276,.T.);
#563=EDGE_CURVE('',#465,#467,#63,.T.);
#564=EDGE_CURVE('',#467,#468,#277,.T.);
#565=EDGE_CURVE('',#468,#466,#64,.T.);
#566=EDGE_CURVE('',#469,#470,#278,.T.);
#567=EDGE_CURVE('',#470,#468,#279,.T.);
#568=EDGE_CURVE('',#467,#469,#280,.T.);
#569=EDGE_CURVE('',#469,#471,#65,.T.);
#570=EDGE_CURVE('',#471,#472,#281,.T.);
#571=EDGE_CURVE('',#472,#470,#66,.T.);
#572=EDGE_CURVE('',#473,#474,#282,.T.);
#573=EDGE_CURVE('',#474,#472,#283,.T.);
#574=EDGE_CURVE('',#471,#473,#284,.T.);
#575=EDGE_CURVE('',#475,#471,#285,.T.);
#576=EDGE_CURVE('',#476,#475,#286,.T.);
#577=EDGE_CURVE('',#473,#476,#287,.T.);
#578=EDGE_CURVE('',#469,#477,#288,.T.);
#579=EDGE_CURVE('',#477,#475,#67,.F.);
#580=EDGE_CURVE('',#478,#467,#289,.T.);
#581=EDGE_CURVE('',#477,#478,#290,.T.);
#582=EDGE_CURVE('',#465,#479,#291,.T.);
#583=EDGE_CURVE('',#479,#478,#68,.F.);
#584=EDGE_CURVE('',#464,#480,#292,.T.);
#585=EDGE_CURVE('',#479,#480,#293,.T.);
#586=EDGE_CURVE('',#481,#482,#294,.T.);
#587=EDGE_CURVE('',#482,#483,#295,.T.);
#588=EDGE_CURVE('',#483,#484,#296,.T.);
#589=EDGE_CURVE('',#484,#481,#297,.T.);
#590=EDGE_CURVE('',#483,#485,#69,.T.);
#591=EDGE_CURVE('',#485,#486,#298,.T.);
#592=EDGE_CURVE('',#486,#484,#70,.T.);
#593=EDGE_CURVE('',#487,#488,#299,.T.);
#594=EDGE_CURVE('',#488,#486,#300,.T.);
#595=EDGE_CURVE('',#485,#487,#301,.T.);
#596=EDGE_CURVE('',#487,#489,#71,.T.);
#597=EDGE_CURVE('',#489,#490,#302,.T.);
#598=EDGE_CURVE('',#490,#488,#72,.T.);
#599=EDGE_CURVE('',#491,#492,#303,.F.);
#600=EDGE_CURVE('',#491,#490,#304,.T.);
#601=EDGE_CURVE('',#489,#492,#305,.T.);
#602=EDGE_CURVE('',#493,#489,#306,.T.);
#603=EDGE_CURVE('',#494,#493,#307,.T.);
#604=EDGE_CURVE('',#492,#494,#308,.T.);
#605=EDGE_CURVE('',#487,#495,#309,.T.);
#606=EDGE_CURVE('',#495,#493,#73,.F.);
#607=EDGE_CURVE('',#496,#485,#310,.T.);
#608=EDGE_CURVE('',#495,#496,#311,.T.);
#609=EDGE_CURVE('',#483,#497,#312,.T.);
#610=EDGE_CURVE('',#497,#496,#38,.T.);
#611=EDGE_CURVE('',#482,#498,#313,.T.);
#612=EDGE_CURVE('',#498,#497,#314,.T.);
#613=EDGE_CURVE('',#481,#499,#315,.T.);
#614=EDGE_CURVE('',#481,#474,#316,.T.);
#615=EDGE_CURVE('',#474,#500,#317,.F.);
#616=EDGE_CURVE('',#500,#499,#318,.T.);
#617=EDGE_CURVE('',#500,#501,#319,.T.);
#618=EDGE_CURVE('',#502,#501,#320,.T.);
#619=EDGE_CURVE('',#502,#499,#321,.T.);
#620=EDGE_CURVE('',#501,#503,#74,.F.);
#621=EDGE_CURVE('',#503,#504,#322,.T.);
#622=EDGE_CURVE('',#504,#502,#75,.F.);
#623=EDGE_CURVE('',#505,#506,#323,.T.);
#624=EDGE_CURVE('',#507,#505,#324,.T.);
#625=EDGE_CURVE('',#508,#507,#325,.T.);
#626=EDGE_CURVE('',#509,#508,#76,.T.);
#627=EDGE_CURVE('',#510,#509,#326,.T.);
#628=EDGE_CURVE('',#506,#510,#77,.T.);
#629=EDGE_CURVE('',#511,#511,#78,.T.);
#630=EDGE_CURVE('',#512,#512,#79,.T.);
#631=EDGE_CURVE('',#513,#513,#80,.T.);
#632=EDGE_CURVE('',#514,#514,#81,.T.);
#633=EDGE_CURVE('',#515,#515,#82,.T.);
#634=EDGE_CURVE('',#516,#516,#83,.T.);
#635=EDGE_CURVE('',#517,#517,#84,.T.);
#636=EDGE_CURVE('',#518,#518,#85,.T.);
#637=EDGE_CURVE('',#504,#519,#327,.T.);
#638=EDGE_CURVE('',#503,#520,#328,.T.);
#639=EDGE_CURVE('',#519,#520,#329,.T.);
#640=EDGE_CURVE('',#520,#521,#86,.F.);
#641=EDGE_CURVE('',#521,#522,#330,.T.);
#642=EDGE_CURVE('',#522,#519,#87,.F.);
#643=EDGE_CURVE('',#521,#523,#331,.T.);
#644=EDGE_CURVE('',#523,#524,#332,.T.);
#645=EDGE_CURVE('',#524,#522,#333,.T.);
#646=EDGE_CURVE('',#507,#525,#88,.T.);
#647=EDGE_CURVE('',#525,#526,#334,.T.);
#648=EDGE_CURVE('',#526,#508,#89,.T.);
#649=EDGE_CURVE('',#527,#509,#90,.T.);
#650=EDGE_CURVE('',#526,#527,#91,.T.);
#651=EDGE_CURVE('',#528,#510,#92,.T.);
#652=EDGE_CURVE('',#527,#528,#335,.T.);
#653=EDGE_CURVE('',#529,#506,#93,.T.);
#654=EDGE_CURVE('',#528,#529,#94,.T.);
#655=EDGE_CURVE('',#530,#505,#95,.T.);
#656=EDGE_CURVE('',#529,#530,#336,.T.);
#657=EDGE_CURVE('',#528,#531,#337,.T.);
#658=EDGE_CURVE('',#531,#532,#96,.T.);
#659=EDGE_CURVE('',#532,#529,#338,.T.);
#660=EDGE_CURVE('',#533,#527,#339,.T.);
#661=EDGE_CURVE('',#533,#531,#340,.T.);
#662=EDGE_CURVE('',#526,#534,#341,.T.);
#663=EDGE_CURVE('',#534,#533,#97,.T.);
#664=EDGE_CURVE('',#535,#525,#342,.T.);
#665=EDGE_CURVE('',#534,#535,#343,.T.);
#666=EDGE_CURVE('',#475,#536,#98,.F.);
#667=EDGE_CURVE('',#536,#477,#99,.F.);
#668=EDGE_CURVE('',#478,#537,#100,.F.);
#669=EDGE_CURVE('',#537,#479,#101,.F.);
#670=EDGE_CURVE('',#480,#538,#102,.T.);
#671=EDGE_CURVE('',#538,#537,#344,.T.);
#672=EDGE_CURVE('',#537,#536,#345,.T.);
#673=EDGE_CURVE('',#539,#476,#103,.T.);
#674=EDGE_CURVE('',#536,#539,#346,.T.);
#675=EDGE_CURVE('',#539,#538,#347,.T.);
#676=EDGE_CURVE('',#523,#463,#348,.T.);
#677=EDGE_CURVE('',#493,#540,#104,.F.);
#678=EDGE_CURVE('',#540,#495,#105,.F.);
#679=EDGE_CURVE('',#497,#540,#349,.T.);
#680=EDGE_CURVE('',#541,#494,#106,.T.);
#681=EDGE_CURVE('',#540,#541,#350,.T.);
#682=EDGE_CURVE('',#541,#498,#351,.T.);
#683=EDGE_CURVE('',#491,#524,#352,.T.);
#684=EDGE_CURVE('',#518,#542,#353,.T.);
#685=EDGE_CURVE('',#542,#542,#107,.T.);
#686=EDGE_CURVE('',#517,#543,#354,.T.);
#687=EDGE_CURVE('',#543,#543,#108,.T.);
#688=EDGE_CURVE('',#511,#544,#355,.T.);
#689=EDGE_CURVE('',#544,#545,#109,.T.);
#690=EDGE_CURVE('',#545,#544,#110,.T.);
#691=EDGE_CURVE('',#545,#546,#356,.T.);
#692=EDGE_CURVE('',#546,#546,#111,.T.);
#693=EDGE_CURVE('',#516,#547,#357,.T.);
#694=EDGE_CURVE('',#547,#548,#112,.T.);
#695=EDGE_CURVE('',#548,#547,#113,.T.);
#696=EDGE_CURVE('',#548,#549,#358,.T.);
#697=EDGE_CURVE('',#549,#549,#114,.T.);
#698=EDGE_CURVE('',#512,#550,#359,.T.);
#699=EDGE_CURVE('',#550,#550,#115,.T.);
#700=EDGE_CURVE('',#513,#551,#360,.T.);
#701=EDGE_CURVE('',#551,#551,#116,.T.);
#702=EDGE_CURVE('',#515,#552,#361,.T.);
#703=EDGE_CURVE('',#552,#553,#117,.T.);
#704=EDGE_CURVE('',#553,#552,#118,.T.);
#705=EDGE_CURVE('',#553,#554,#362,.T.);
#706=EDGE_CURVE('',#554,#554,#119,.T.);
#707=EDGE_CURVE('',#514,#555,#363,.T.);
#708=EDGE_CURVE('',#555,#556,#120,.T.);
#709=EDGE_CURVE('',#556,#555,#121,.T.);
#710=EDGE_CURVE('',#556,#557,#364,.T.);
#711=EDGE_CURVE('',#557,#557,#122,.T.);
#712=EDGE_CURVE('',#558,#530,#365,.T.);
#713=EDGE_CURVE('',#535,#558,#366,.T.);
#714=EDGE_CURVE('',#558,#532,#367,.T.);
#715=ORIENTED_EDGE('',*,*,#559,.T.);
#716=ORIENTED_EDGE('',*,*,#560,.T.);
#717=ORIENTED_EDGE('',*,*,#561,.T.);
#718=ORIENTED_EDGE('',*,*,#562,.T.);
#719=ORIENTED_EDGE('',*,*,#561,.F.);
#720=ORIENTED_EDGE('',*,*,#563,.T.);
#721=ORIENTED_EDGE('',*,*,#564,.T.);
#722=ORIENTED_EDGE('',*,*,#565,.T.);
#723=ORIENTED_EDGE('',*,*,#566,.T.);
#724=ORIENTED_EDGE('',*,*,#567,.T.);
#725=ORIENTED_EDGE('',*,*,#564,.F.);
#726=ORIENTED_EDGE('',*,*,#568,.T.);
#727=ORIENTED_EDGE('',*,*,#566,.F.);
#728=ORIENTED_EDGE('',*,*,#569,.T.);
#729=ORIENTED_EDGE('',*,*,#570,.T.);
#730=ORIENTED_EDGE('',*,*,#571,.T.);
#731=ORIENTED_EDGE('',*,*,#572,.T.);
#732=ORIENTED_EDGE('',*,*,#573,.T.);
#733=ORIENTED_EDGE('',*,*,#570,.F.);
#734=ORIENTED_EDGE('',*,*,#574,.T.);
#735=ORIENTED_EDGE('',*,*,#574,.F.);
#736=ORIENTED_EDGE('',*,*,#575,.F.);
#737=ORIENTED_EDGE('',*,*,#576,.F.);
#738=ORIENTED_EDGE('',*,*,#577,.F.);
#739=ORIENTED_EDGE('',*,*,#569,.F.);
#740=ORIENTED_EDGE('',*,*,#578,.T.);
#741=ORIENTED_EDGE('',*,*,#579,.T.);
#742=ORIENTED_EDGE('',*,*,#575,.T.);
#743=ORIENTED_EDGE('',*,*,#568,.F.);
#744=ORIENTED_EDGE('',*,*,#580,.F.);
#745=ORIENTED_EDGE('',*,*,#581,.F.);
#746=ORIENTED_EDGE('',*,*,#578,.F.);
#747=ORIENTED_EDGE('',*,*,#563,.F.);
#748=ORIENTED_EDGE('',*,*,#582,.T.);
#749=ORIENTED_EDGE('',*,*,#583,.T.);
#750=ORIENTED_EDGE('',*,*,#580,.T.);
#751=ORIENTED_EDGE('',*,*,#560,.F.);
#752=ORIENTED_EDGE('',*,*,#584,.T.);
#753=ORIENTED_EDGE('',*,*,#585,.F.);
#754=ORIENTED_EDGE('',*,*,#582,.F.);
#755=ORIENTED_EDGE('',*,*,#586,.T.);
#756=ORIENTED_EDGE('',*,*,#587,.T.);
#757=ORIENTED_EDGE('',*,*,#588,.T.);
#758=ORIENTED_EDGE('',*,*,#589,.T.);
#759=ORIENTED_EDGE('',*,*,#588,.F.);
#760=ORIENTED_EDGE('',*,*,#590,.T.);
#761=ORIENTED_EDGE('',*,*,#591,.T.);
#762=ORIENTED_EDGE('',*,*,#592,.T.);
#763=ORIENTED_EDGE('',*,*,#593,.T.);
#764=ORIENTED_EDGE('',*,*,#594,.T.);
#765=ORIENTED_EDGE('',*,*,#591,.F.);
#766=ORIENTED_EDGE('',*,*,#595,.T.);
#767=ORIENTED_EDGE('',*,*,#593,.F.);
#768=ORIENTED_EDGE('',*,*,#596,.T.);
#769=ORIENTED_EDGE('',*,*,#597,.T.);
#770=ORIENTED_EDGE('',*,*,#598,.T.);
#771=ORIENTED_EDGE('',*,*,#599,.F.);
#772=ORIENTED_EDGE('',*,*,#600,.T.);
#773=ORIENTED_EDGE('',*,*,#597,.F.);
#774=ORIENTED_EDGE('',*,*,#601,.T.);
#775=ORIENTED_EDGE('',*,*,#601,.F.);
#776=ORIENTED_EDGE('',*,*,#602,.F.);
#777=ORIENTED_EDGE('',*,*,#603,.F.);
#778=ORIENTED_EDGE('',*,*,#604,.F.);
#779=ORIENTED_EDGE('',*,*,#596,.F.);
#780=ORIENTED_EDGE('',*,*,#605,.T.);
#781=ORIENTED_EDGE('',*,*,#606,.T.);
#782=ORIENTED_EDGE('',*,*,#602,.T.);
#783=ORIENTED_EDGE('',*,*,#595,.F.);
#784=ORIENTED_EDGE('',*,*,#607,.F.);
#785=ORIENTED_EDGE('',*,*,#608,.F.);
#786=ORIENTED_EDGE('',*,*,#605,.F.);
#787=ORIENTED_EDGE('',*,*,#590,.F.);
#788=ORIENTED_EDGE('',*,*,#609,.T.);
#789=ORIENTED_EDGE('',*,*,#610,.T.);
#790=ORIENTED_EDGE('',*,*,#607,.T.);
#791=ORIENTED_EDGE('',*,*,#587,.F.);
#792=ORIENTED_EDGE('',*,*,#611,.T.);
#793=ORIENTED_EDGE('',*,*,#612,.T.);
#794=ORIENTED_EDGE('',*,*,#609,.F.);
#795=ORIENTED_EDGE('',*,*,#613,.F.);
#796=ORIENTED_EDGE('',*,*,#614,.T.);
#797=ORIENTED_EDGE('',*,*,#615,.T.);
#798=ORIENTED_EDGE('',*,*,#616,.T.);
#799=ORIENTED_EDGE('',*,*,#616,.F.);
#800=ORIENTED_EDGE('',*,*,#617,.T.);
#801=ORIENTED_EDGE('',*,*,#618,.F.);
#802=ORIENTED_EDGE('',*,*,#619,.T.);
#803=ORIENTED_EDGE('',*,*,#620,.T.);
#804=ORIENTED_EDGE('',*,*,#621,.T.);
#805=ORIENTED_EDGE('',*,*,#622,.T.);
#806=ORIENTED_EDGE('',*,*,#618,.T.);
#807=ORIENTED_EDGE('',*,*,#623,.F.);
#808=ORIENTED_EDGE('',*,*,#624,.F.);
#809=ORIENTED_EDGE('',*,*,#625,.F.);
#810=ORIENTED_EDGE('',*,*,#626,.F.);
#811=ORIENTED_EDGE('',*,*,#627,.F.);
#812=ORIENTED_EDGE('',*,*,#628,.F.);
#813=ORIENTED_EDGE('',*,*,#629,.F.);
#814=ORIENTED_EDGE('',*,*,#630,.T.);
#815=ORIENTED_EDGE('',*,*,#631,.T.);
#816=ORIENTED_EDGE('',*,*,#632,.F.);
#817=ORIENTED_EDGE('',*,*,#633,.F.);
#818=ORIENTED_EDGE('',*,*,#634,.F.);
#819=ORIENTED_EDGE('',*,*,#635,.T.);
#820=ORIENTED_EDGE('',*,*,#636,.T.);
#821=ORIENTED_EDGE('',*,*,#637,.F.);
#822=ORIENTED_EDGE('',*,*,#621,.F.);
#823=ORIENTED_EDGE('',*,*,#638,.T.);
#824=ORIENTED_EDGE('',*,*,#639,.F.);
#825=ORIENTED_EDGE('',*,*,#640,.T.);
#826=ORIENTED_EDGE('',*,*,#641,.T.);
#827=ORIENTED_EDGE('',*,*,#642,.T.);
#828=ORIENTED_EDGE('',*,*,#639,.T.);
#829=ORIENTED_EDGE('',*,*,#641,.F.);
#830=ORIENTED_EDGE('',*,*,#643,.T.);
#831=ORIENTED_EDGE('',*,*,#644,.T.);
#832=ORIENTED_EDGE('',*,*,#645,.T.);
#833=ORIENTED_EDGE('',*,*,#646,.T.);
#834=ORIENTED_EDGE('',*,*,#647,.T.);
#835=ORIENTED_EDGE('',*,*,#648,.T.);
#836=ORIENTED_EDGE('',*,*,#625,.T.);
#837=ORIENTED_EDGE('',*,*,#649,.T.);
#838=ORIENTED_EDGE('',*,*,#626,.T.);
#839=ORIENTED_EDGE('',*,*,#648,.F.);
#840=ORIENTED_EDGE('',*,*,#650,.T.);
#841=ORIENTED_EDGE('',*,*,#651,.T.);
#842=ORIENTED_EDGE('',*,*,#627,.T.);
#843=ORIENTED_EDGE('',*,*,#649,.F.);
#844=ORIENTED_EDGE('',*,*,#652,.T.);
#845=ORIENTED_EDGE('',*,*,#653,.T.);
#846=ORIENTED_EDGE('',*,*,#628,.T.);
#847=ORIENTED_EDGE('',*,*,#651,.F.);
#848=ORIENTED_EDGE('',*,*,#654,.T.);
#849=ORIENTED_EDGE('',*,*,#655,.T.);
#850=ORIENTED_EDGE('',*,*,#623,.T.);
#851=ORIENTED_EDGE('',*,*,#653,.F.);
#852=ORIENTED_EDGE('',*,*,#656,.T.);
#853=ORIENTED_EDGE('',*,*,#654,.F.);
#854=ORIENTED_EDGE('',*,*,#657,.T.);
#855=ORIENTED_EDGE('',*,*,#658,.T.);
#856=ORIENTED_EDGE('',*,*,#659,.T.);
#857=ORIENTED_EDGE('',*,*,#652,.F.);
#858=ORIENTED_EDGE('',*,*,#660,.F.);
#859=ORIENTED_EDGE('',*,*,#661,.T.);
#860=ORIENTED_EDGE('',*,*,#657,.F.);
#861=ORIENTED_EDGE('',*,*,#650,.F.);
#862=ORIENTED_EDGE('',*,*,#662,.T.);
#863=ORIENTED_EDGE('',*,*,#663,.T.);
#864=ORIENTED_EDGE('',*,*,#660,.T.);
#865=ORIENTED_EDGE('',*,*,#647,.F.);
#866=ORIENTED_EDGE('',*,*,#664,.F.);
#867=ORIENTED_EDGE('',*,*,#665,.F.);
#868=ORIENTED_EDGE('',*,*,#662,.F.);
#869=ORIENTED_EDGE('',*,*,#666,.F.);
#870=ORIENTED_EDGE('',*,*,#579,.F.);
#871=ORIENTED_EDGE('',*,*,#667,.F.);
#872=ORIENTED_EDGE('',*,*,#668,.F.);
#873=ORIENTED_EDGE('',*,*,#583,.F.);
#874=ORIENTED_EDGE('',*,*,#669,.F.);
#875=ORIENTED_EDGE('',*,*,#670,.T.);
#876=ORIENTED_EDGE('',*,*,#671,.T.);
#877=ORIENTED_EDGE('',*,*,#669,.T.);
#878=ORIENTED_EDGE('',*,*,#585,.T.);
#879=ORIENTED_EDGE('',*,*,#668,.T.);
#880=ORIENTED_EDGE('',*,*,#672,.T.);
#881=ORIENTED_EDGE('',*,*,#667,.T.);
#882=ORIENTED_EDGE('',*,*,#581,.T.);
#883=ORIENTED_EDGE('',*,*,#673,.T.);
#884=ORIENTED_EDGE('',*,*,#576,.T.);
#885=ORIENTED_EDGE('',*,*,#666,.T.);
#886=ORIENTED_EDGE('',*,*,#674,.T.);
#887=ORIENTED_EDGE('',*,*,#674,.F.);
#888=ORIENTED_EDGE('',*,*,#672,.F.);
#889=ORIENTED_EDGE('',*,*,#671,.F.);
#890=ORIENTED_EDGE('',*,*,#675,.F.);
#891=ORIENTED_EDGE('',*,*,#673,.F.);
#892=ORIENTED_EDGE('',*,*,#675,.T.);
#893=ORIENTED_EDGE('',*,*,#670,.F.);
#894=ORIENTED_EDGE('',*,*,#584,.F.);
#895=ORIENTED_EDGE('',*,*,#559,.F.);
#896=ORIENTED_EDGE('',*,*,#676,.F.);
#897=ORIENTED_EDGE('',*,*,#643,.F.);
#898=ORIENTED_EDGE('',*,*,#640,.F.);
#899=ORIENTED_EDGE('',*,*,#638,.F.);
#900=ORIENTED_EDGE('',*,*,#620,.F.);
#901=ORIENTED_EDGE('',*,*,#617,.F.);
#902=ORIENTED_EDGE('',*,*,#615,.F.);
#903=ORIENTED_EDGE('',*,*,#572,.F.);
#904=ORIENTED_EDGE('',*,*,#577,.T.);
#905=ORIENTED_EDGE('',*,*,#677,.F.);
#906=ORIENTED_EDGE('',*,*,#606,.F.);
#907=ORIENTED_EDGE('',*,*,#678,.F.);
#908=ORIENTED_EDGE('',*,*,#679,.T.);
#909=ORIENTED_EDGE('',*,*,#678,.T.);
#910=ORIENTED_EDGE('',*,*,#608,.T.);
#911=ORIENTED_EDGE('',*,*,#610,.F.);
#912=ORIENTED_EDGE('',*,*,#680,.T.);
#913=ORIENTED_EDGE('',*,*,#603,.T.);
#914=ORIENTED_EDGE('',*,*,#677,.T.);
#915=ORIENTED_EDGE('',*,*,#681,.T.);
#916=ORIENTED_EDGE('',*,*,#680,.F.);
#917=ORIENTED_EDGE('',*,*,#682,.T.);
#918=ORIENTED_EDGE('',*,*,#611,.F.);
#919=ORIENTED_EDGE('',*,*,#586,.F.);
#920=ORIENTED_EDGE('',*,*,#613,.T.);
#921=ORIENTED_EDGE('',*,*,#619,.F.);
#922=ORIENTED_EDGE('',*,*,#622,.F.);
#923=ORIENTED_EDGE('',*,*,#637,.T.);
#924=ORIENTED_EDGE('',*,*,#642,.F.);
#925=ORIENTED_EDGE('',*,*,#645,.F.);
#926=ORIENTED_EDGE('',*,*,#683,.F.);
#927=ORIENTED_EDGE('',*,*,#599,.T.);
#928=ORIENTED_EDGE('',*,*,#604,.T.);
#929=ORIENTED_EDGE('',*,*,#681,.F.);
#930=ORIENTED_EDGE('',*,*,#679,.F.);
#931=ORIENTED_EDGE('',*,*,#612,.F.);
#932=ORIENTED_EDGE('',*,*,#682,.F.);
#933=ORIENTED_EDGE('',*,*,#636,.F.);
#934=ORIENTED_EDGE('',*,*,#684,.T.);
#935=ORIENTED_EDGE('',*,*,#685,.F.);
#936=ORIENTED_EDGE('',*,*,#684,.F.);
#937=ORIENTED_EDGE('',*,*,#635,.F.);
#938=ORIENTED_EDGE('',*,*,#686,.T.);
#939=ORIENTED_EDGE('',*,*,#687,.F.);
#940=ORIENTED_EDGE('',*,*,#686,.F.);
#941=ORIENTED_EDGE('',*,*,#629,.T.);
#942=ORIENTED_EDGE('',*,*,#688,.T.);
#943=ORIENTED_EDGE('',*,*,#689,.T.);
#944=ORIENTED_EDGE('',*,*,#690,.T.);
#945=ORIENTED_EDGE('',*,*,#688,.F.);
#946=ORIENTED_EDGE('',*,*,#689,.F.);
#947=ORIENTED_EDGE('',*,*,#690,.F.);
#948=ORIENTED_EDGE('',*,*,#691,.T.);
#949=ORIENTED_EDGE('',*,*,#692,.F.);
#950=ORIENTED_EDGE('',*,*,#691,.F.);
#951=ORIENTED_EDGE('',*,*,#634,.T.);
#952=ORIENTED_EDGE('',*,*,#693,.T.);
#953=ORIENTED_EDGE('',*,*,#694,.T.);
#954=ORIENTED_EDGE('',*,*,#695,.T.);
#955=ORIENTED_EDGE('',*,*,#693,.F.);
#956=ORIENTED_EDGE('',*,*,#694,.F.);
#957=ORIENTED_EDGE('',*,*,#695,.F.);
#958=ORIENTED_EDGE('',*,*,#696,.T.);
#959=ORIENTED_EDGE('',*,*,#697,.F.);
#960=ORIENTED_EDGE('',*,*,#696,.F.);
#961=ORIENTED_EDGE('',*,*,#630,.F.);
#962=ORIENTED_EDGE('',*,*,#698,.T.);
#963=ORIENTED_EDGE('',*,*,#699,.F.);
#964=ORIENTED_EDGE('',*,*,#698,.F.);
#965=ORIENTED_EDGE('',*,*,#631,.F.);
#966=ORIENTED_EDGE('',*,*,#700,.T.);
#967=ORIENTED_EDGE('',*,*,#701,.F.);
#968=ORIENTED_EDGE('',*,*,#700,.F.);
#969=ORIENTED_EDGE('',*,*,#633,.T.);
#970=ORIENTED_EDGE('',*,*,#702,.T.);
#971=ORIENTED_EDGE('',*,*,#703,.T.);
#972=ORIENTED_EDGE('',*,*,#704,.T.);
#973=ORIENTED_EDGE('',*,*,#702,.F.);
#974=ORIENTED_EDGE('',*,*,#703,.F.);
#975=ORIENTED_EDGE('',*,*,#704,.F.);
#976=ORIENTED_EDGE('',*,*,#705,.T.);
#977=ORIENTED_EDGE('',*,*,#706,.F.);
#978=ORIENTED_EDGE('',*,*,#705,.F.);
#979=ORIENTED_EDGE('',*,*,#632,.T.);
#980=ORIENTED_EDGE('',*,*,#707,.T.);
#981=ORIENTED_EDGE('',*,*,#708,.T.);
#982=ORIENTED_EDGE('',*,*,#709,.T.);
#983=ORIENTED_EDGE('',*,*,#707,.F.);
#984=ORIENTED_EDGE('',*,*,#708,.F.);
#985=ORIENTED_EDGE('',*,*,#709,.F.);
#986=ORIENTED_EDGE('',*,*,#710,.T.);
#987=ORIENTED_EDGE('',*,*,#711,.F.);
#988=ORIENTED_EDGE('',*,*,#710,.F.);
#989=ORIENTED_EDGE('',*,*,#655,.F.);
#990=ORIENTED_EDGE('',*,*,#712,.F.);
#991=ORIENTED_EDGE('',*,*,#713,.F.);
#992=ORIENTED_EDGE('',*,*,#664,.T.);
#993=ORIENTED_EDGE('',*,*,#646,.F.);
#994=ORIENTED_EDGE('',*,*,#624,.T.);
#995=ORIENTED_EDGE('',*,*,#656,.F.);
#996=ORIENTED_EDGE('',*,*,#659,.F.);
#997=ORIENTED_EDGE('',*,*,#714,.F.);
#998=ORIENTED_EDGE('',*,*,#712,.T.);
#999=ORIENTED_EDGE('',*,*,#714,.T.);
#1000=ORIENTED_EDGE('',*,*,#658,.F.);
#1001=ORIENTED_EDGE('',*,*,#661,.F.);
#1002=ORIENTED_EDGE('',*,*,#663,.F.);
#1003=ORIENTED_EDGE('',*,*,#665,.T.);
#1004=ORIENTED_EDGE('',*,*,#713,.T.);
#1005=ORIENTED_EDGE('',*,*,#573,.F.);
#1006=ORIENTED_EDGE('',*,*,#614,.F.);
#1007=ORIENTED_EDGE('',*,*,#589,.F.);
#1008=ORIENTED_EDGE('',*,*,#592,.F.);
#1009=ORIENTED_EDGE('',*,*,#594,.F.);
#1010=ORIENTED_EDGE('',*,*,#598,.F.);
#1011=ORIENTED_EDGE('',*,*,#600,.F.);
#1012=ORIENTED_EDGE('',*,*,#683,.T.);
#1013=ORIENTED_EDGE('',*,*,#644,.F.);
#1014=ORIENTED_EDGE('',*,*,#676,.T.);
#1015=ORIENTED_EDGE('',*,*,#562,.F.);
#1016=ORIENTED_EDGE('',*,*,#565,.F.);
#1017=ORIENTED_EDGE('',*,*,#567,.F.);
#1018=ORIENTED_EDGE('',*,*,#571,.F.);
#1019=ORIENTED_EDGE('',*,*,#685,.T.);
#1020=ORIENTED_EDGE('',*,*,#687,.T.);
#1021=ORIENTED_EDGE('',*,*,#706,.T.);
#1022=ORIENTED_EDGE('',*,*,#711,.T.);
#1023=ORIENTED_EDGE('',*,*,#701,.T.);
#1024=ORIENTED_EDGE('',*,*,#699,.T.);
#1025=ORIENTED_EDGE('',*,*,#692,.T.);
#1026=ORIENTED_EDGE('',*,*,#697,.T.);
#1027=PLANE('',#1137);
#1028=PLANE('',#1141);
#1029=PLANE('',#1145);
#1030=PLANE('',#1146);
#1031=PLANE('',#1149);
#1032=PLANE('',#1152);
#1033=PLANE('',#1153);
#1034=PLANE('',#1157);
#1035=PLANE('',#1161);
#1036=PLANE('',#1162);
#1037=PLANE('',#1165);
#1038=PLANE('',#1168);
#1039=PLANE('',#1169);
#1040=PLANE('',#1170);
#1041=PLANE('',#1174);
#1042=PLANE('',#1188);
#1043=PLANE('',#1202);
#1044=PLANE('',#1205);
#1045=PLANE('',#1217);
#1046=PLANE('',#1218);
#1047=PLANE('',#1225);
#1048=PLANE('',#1226);
#1049=PLANE('',#1255);
#1050=PLANE('',#1256);
#1051=PLANE('',#1257);
#1052=ADVANCED_FACE('',(#131),#1027,.T.);
#1053=ADVANCED_FACE('',(#132),#123,.T.);
#1054=ADVANCED_FACE('',(#133),#1028,.T.);
#1055=ADVANCED_FACE('',(#134),#124,.T.);
#1056=ADVANCED_FACE('',(#135),#1029,.T.);
#1057=ADVANCED_FACE('',(#136),#1030,.T.);
#1058=ADVANCED_FACE('',(#137),#39,.T.);
#1059=ADVANCED_FACE('',(#138),#1031,.F.);
#1060=ADVANCED_FACE('',(#139),#40,.T.);
#1061=ADVANCED_FACE('',(#140),#1032,.F.);
#1062=ADVANCED_FACE('',(#141),#1033,.T.);
#1063=ADVANCED_FACE('',(#142),#125,.T.);
#1064=ADVANCED_FACE('',(#143),#1034,.T.);
#1065=ADVANCED_FACE('',(#144),#126,.T.);
#1066=ADVANCED_FACE('',(#145),#1035,.T.);
#1067=ADVANCED_FACE('',(#146),#1036,.T.);
#1068=ADVANCED_FACE('',(#147),#41,.T.);
#1069=ADVANCED_FACE('',(#148),#1037,.T.);
#1070=ADVANCED_FACE('',(#149),#42,.T.);
#1071=ADVANCED_FACE('',(#150),#1038,.F.);
#1072=ADVANCED_FACE('',(#151),#1039,.T.);
#1073=ADVANCED_FACE('',(#152),#1040,.F.);
#1074=ADVANCED_FACE('',(#153),#43,.T.);
#1075=ADVANCED_FACE('',(#154,#20,#21,#22,#23,#24,#25,#26,#27,#28),#1041,
 .F.);
#1076=ADVANCED_FACE('',(#155),#44,.T.);
#1077=ADVANCED_FACE('',(#156),#1042,.T.);
#1078=ADVANCED_FACE('',(#157),#45,.T.);
#1079=ADVANCED_FACE('',(#158),#18,.F.);
#1080=ADVANCED_FACE('',(#159),#46,.T.);
#1081=ADVANCED_FACE('',(#160),#19,.F.);
#1082=ADVANCED_FACE('',(#161),#47,.T.);
#1083=ADVANCED_FACE('',(#162),#48,.T.);
#1084=ADVANCED_FACE('',(#163),#1043,.T.);
#1085=ADVANCED_FACE('',(#164),#49,.T.);
#1086=ADVANCED_FACE('',(#165),#1044,.F.);
#1087=ADVANCED_FACE('',(#166),#15,.T.);
#1088=ADVANCED_FACE('',(#167),#16,.T.);
#1089=ADVANCED_FACE('',(#168),#50,.T.);
#1090=ADVANCED_FACE('',(#169),#51,.T.);
#1091=ADVANCED_FACE('',(#170),#52,.T.);
#1092=ADVANCED_FACE('',(#171),#1045,.F.);
#1093=ADVANCED_FACE('',(#172),#1046,.T.);
#1094=ADVANCED_FACE('',(#173),#17,.T.);
#1095=ADVANCED_FACE('',(#174),#53,.T.);
#1096=ADVANCED_FACE('',(#175),#54,.T.);
#1097=ADVANCED_FACE('',(#176),#1047,.T.);
#1098=ADVANCED_FACE('',(#177),#1048,.T.);
#1099=ADVANCED_FACE('',(#178),#55,.F.);
#1100=ADVANCED_FACE('',(#179),#56,.F.);
#1101=ADVANCED_FACE('',(#180),#127,.F.);
#1102=ADVANCED_FACE('',(#181),#57,.F.);
#1103=ADVANCED_FACE('',(#182),#128,.F.);
#1104=ADVANCED_FACE('',(#183),#58,.F.);
#1105=ADVANCED_FACE('',(#184),#59,.F.);
#1106=ADVANCED_FACE('',(#185),#60,.F.);
#1107=ADVANCED_FACE('',(#186),#129,.F.);
#1108=ADVANCED_FACE('',(#187),#61,.F.);
#1109=ADVANCED_FACE('',(#188),#130,.F.);
#1110=ADVANCED_FACE('',(#189),#62,.F.);
#1111=ADVANCED_FACE('',(#190),#1049,.F.);
#1112=ADVANCED_FACE('',(#191),#1050,.F.);
#1113=ADVANCED_FACE('',(#192,#29,#30,#31,#32,#33,#34,#35,#36,#37),#1051,
 .T.);
#1114=CLOSED_SHELL('',(#1052,#1053,#1054,#1055,#1056,#1057,#1058,#1059,
#1060,#1061,#1062,#1063,#1064,#1065,#1066,#1067,#1068,#1069,#1070,#1071,
#1072,#1073,#1074,#1075,#1076,#1077,#1078,#1079,#1080,#1081,#1082,#1083,
#1084,#1085,#1086,#1087,#1088,#1089,#1090,#1091,#1092,#1093,#1094,#1095,
#1096,#1097,#1098,#1099,#1100,#1101,#1102,#1103,#1104,#1105,#1106,#1107,
#1108,#1109,#1110,#1111,#1112,#1113));
#1115=DERIVED_UNIT_ELEMENT(#1118,1.);
#1116=DERIVED_UNIT_ELEMENT(#1933,-3.);
#1117=DIMENSIONAL_EXPONENTS(0.,1.,0.,0.,0.,0.,0.);
#1118=(
CONVERSION_BASED_UNIT('gram',#1120)
MASS_UNIT()
NAMED_UNIT(#1117)
);
#1119=(
MASS_UNIT()
NAMED_UNIT(*)
SI_UNIT(.KILO.,.GRAM.)
);
#1120=MASS_MEASURE_WITH_UNIT(MASS_MEASURE(0.001),#1119);
#1121=DERIVED_UNIT((#1115,#1116));
#1122=MEASURE_REPRESENTATION_ITEM('density measure',
POSITIVE_RATIO_MEASURE(1.),#1121);
#1123=PROPERTY_DEFINITION_REPRESENTATION(#1128,#1125);
#1124=PROPERTY_DEFINITION_REPRESENTATION(#1129,#1126);
#1125=REPRESENTATION('material name',(#1127),#1930);
#1126=REPRESENTATION('density',(#1122),#1930);
#1127=DESCRIPTIVE_REPRESENTATION_ITEM('\X2\04220438043F043E0432044B0435\X0\',
'\X2\04220438043F043E0432044B0435\X0\');
#1128=PROPERTY_DEFINITION('material property','material name',#1940);
#1129=PROPERTY_DEFINITION('material property','density of part',#1940);
#1130=DATE_TIME_ROLE('creation_date');
#1131=APPLIED_DATE_AND_TIME_ASSIGNMENT(#1132,#1130,(#1940));
#1132=DATE_AND_TIME(#1133,#1134);
#1133=CALENDAR_DATE(2025,19,9);
#1134=LOCAL_TIME(0,0,0.,#1135);
#1135=COORDINATED_UNIVERSAL_TIME_OFFSET(0,0,.BEHIND.);
#1136=AXIS2_PLACEMENT_3D('',#1597,#1258,#1259);
#1137=AXIS2_PLACEMENT_3D('',#1598,#1260,#1261);
#1138=AXIS2_PLACEMENT_3D('',#1607,#1266,#1267);
#1139=AXIS2_PLACEMENT_3D('',#1609,#1268,#1269);
#1140=AXIS2_PLACEMENT_3D('',#1612,#1271,#1272);
#1141=AXIS2_PLACEMENT_3D('',#1613,#1273,#1274);
#1142=AXIS2_PLACEMENT_3D('',#1619,#1278,#1279);
#1143=AXIS2_PLACEMENT_3D('',#1621,#1280,#1281);
#1144=AXIS2_PLACEMENT_3D('',#1624,#1283,#1284);
#1145=AXIS2_PLACEMENT_3D('',#1625,#1285,#1286);
#1146=AXIS2_PLACEMENT_3D('',#1631,#1290,#1291);
#1147=AXIS2_PLACEMENT_3D('',#1637,#1295,#1296);
#1148=AXIS2_PLACEMENT_3D('',#1640,#1298,#1299);
#1149=AXIS2_PLACEMENT_3D('',#1641,#1300,#1301);
#1150=AXIS2_PLACEMENT_3D('',#1645,#1304,#1305);
#1151=AXIS2_PLACEMENT_3D('',#1648,#1307,#1308);
#1152=AXIS2_PLACEMENT_3D('',#1649,#1309,#1310);
#1153=AXIS2_PLACEMENT_3D('',#1653,#1313,#1314);
#1154=AXIS2_PLACEMENT_3D('',#1662,#1319,#1320);
#1155=AXIS2_PLACEMENT_3D('',#1664,#1321,#1322);
#1156=AXIS2_PLACEMENT_3D('',#1667,#1324,#1325);
#1157=AXIS2_PLACEMENT_3D('',#1668,#1326,#1327);
#1158=AXIS2_PLACEMENT_3D('',#1674,#1331,#1332);
#1159=AXIS2_PLACEMENT_3D('',#1676,#1333,#1334);
#1160=AXIS2_PLACEMENT_3D('',#1679,#1336,#1337);
#1161=AXIS2_PLACEMENT_3D('',#1680,#1338,#1339);
#1162=AXIS2_PLACEMENT_3D('',#1686,#1343,#1344);
#1163=AXIS2_PLACEMENT_3D('',#1692,#1348,#1349);
#1164=AXIS2_PLACEMENT_3D('',#1695,#1351,#1352);
#1165=AXIS2_PLACEMENT_3D('',#1696,#1353,#1354);
#1166=AXIS2_PLACEMENT_3D('',#1700,#1357,#1358);
#1167=AXIS2_PLACEMENT_3D('',#1703,#1360,#1361);
#1168=AXIS2_PLACEMENT_3D('',#1704,#1362,#1363);
#1169=AXIS2_PLACEMENT_3D('',#1708,#1366,#1367);
#1170=AXIS2_PLACEMENT_3D('',#1715,#1372,#1373);
#1171=AXIS2_PLACEMENT_3D('',#1721,#1377,#1378);
#1172=AXIS2_PLACEMENT_3D('',#1723,#1379,#1380);
#1173=AXIS2_PLACEMENT_3D('',#1726,#1382,#1383);
#1174=AXIS2_PLACEMENT_3D('',#1727,#1384,#1385);
#1175=AXIS2_PLACEMENT_3D('',#1736,#1389,#1390);
#1176=AXIS2_PLACEMENT_3D('',#1739,#1392,#1393);
#1177=AXIS2_PLACEMENT_3D('',#1741,#1394,#1395);
#1178=AXIS2_PLACEMENT_3D('',#1743,#1396,#1397);
#1179=AXIS2_PLACEMENT_3D('',#1745,#1398,#1399);
#1180=AXIS2_PLACEMENT_3D('',#1747,#1400,#1401);
#1181=AXIS2_PLACEMENT_3D('',#1749,#1402,#1403);
#1182=AXIS2_PLACEMENT_3D('',#1751,#1404,#1405);
#1183=AXIS2_PLACEMENT_3D('',#1753,#1406,#1407);
#1184=AXIS2_PLACEMENT_3D('',#1755,#1408,#1409);
#1185=AXIS2_PLACEMENT_3D('',#1761,#1413,#1414);
#1186=AXIS2_PLACEMENT_3D('',#1763,#1415,#1416);
#1187=AXIS2_PLACEMENT_3D('',#1766,#1418,#1419);
#1188=AXIS2_PLACEMENT_3D('',#1767,#1420,#1421);
#1189=AXIS2_PLACEMENT_3D('',#1773,#1425,#1426);
#1190=AXIS2_PLACEMENT_3D('',#1775,#1427,#1428);
#1191=AXIS2_PLACEMENT_3D('',#1778,#1430,#1431);
#1192=AXIS2_PLACEMENT_3D('',#1789,#1432,#1433);
#1193=AXIS2_PLACEMENT_3D('',#1790,#1434,#1435);
#1194=AXIS2_PLACEMENT_3D('',#1791,#1436,#1437);
#1195=AXIS2_PLACEMENT_3D('',#1793,#1438,#1439);
#1196=AXIS2_PLACEMENT_3D('',#1805,#1441,#1442);
#1197=AXIS2_PLACEMENT_3D('',#1806,#1443,#1444);
#1198=AXIS2_PLACEMENT_3D('',#1807,#1445,#1446);
#1199=AXIS2_PLACEMENT_3D('',#1809,#1447,#1448);
#1200=AXIS2_PLACEMENT_3D('',#1811,#1450,#1451);
#1201=AXIS2_PLACEMENT_3D('',#1815,#1453,#1454);
#1202=AXIS2_PLACEMENT_3D('',#1817,#1456,#1457);
#1203=AXIS2_PLACEMENT_3D('',#1821,#1460,#1461);
#1204=AXIS2_PLACEMENT_3D('',#1824,#1463,#1464);
#1205=AXIS2_PLACEMENT_3D('',#1825,#1465,#1466);
#1206=AXIS2_PLACEMENT_3D('',#1829,#1469,#1470);
#1207=AXIS2_PLACEMENT_3D('',#1831,#1471,#1472);
#1208=AXIS2_PLACEMENT_3D('',#1832,#1473,#1474);
#1209=AXIS2_PLACEMENT_3D('',#1833,#1475,#1476);
#1210=AXIS2_PLACEMENT_3D('',#1835,#1477,#1478);
#1211=AXIS2_PLACEMENT_3D('',#1836,#1479,#1480);
#1212=AXIS2_PLACEMENT_3D('',#1837,#1481,#1482);
#1213=AXIS2_PLACEMENT_3D('',#1839,#1483,#1484);
#1214=AXIS2_PLACEMENT_3D('',#1841,#1486,#1487);
#1215=AXIS2_PLACEMENT_3D('',#1843,#1489,#1490);
#1216=AXIS2_PLACEMENT_3D('',#1845,#1491,#1492);
#1217=AXIS2_PLACEMENT_3D('',#1847,#1494,#1495);
#1218=AXIS2_PLACEMENT_3D('',#1849,#1497,#1498);
#1219=AXIS2_PLACEMENT_3D('',#1851,#1500,#1501);
#1220=AXIS2_PLACEMENT_3D('',#1853,#1502,#1503);
#1221=AXIS2_PLACEMENT_3D('',#1854,#1504,#1505);
#1222=AXIS2_PLACEMENT_3D('',#1855,#1506,#1507);
#1223=AXIS2_PLACEMENT_3D('',#1857,#1509,#1510);
#1224=AXIS2_PLACEMENT_3D('',#1859,#1511,#1512);
#1225=AXIS2_PLACEMENT_3D('',#1861,#1514,#1515);
#1226=AXIS2_PLACEMENT_3D('',#1864,#1518,#1519);
#1227=AXIS2_PLACEMENT_3D('',#1865,#1520,#1521);
#1228=AXIS2_PLACEMENT_3D('',#1868,#1523,#1524);
#1229=AXIS2_PLACEMENT_3D('',#1869,#1525,#1526);
#1230=AXIS2_PLACEMENT_3D('',#1872,#1528,#1529);
#1231=AXIS2_PLACEMENT_3D('',#1873,#1530,#1531);
#1232=AXIS2_PLACEMENT_3D('',#1877,#1533,#1534);
#1233=AXIS2_PLACEMENT_3D('',#1878,#1535,#1536);
#1234=AXIS2_PLACEMENT_3D('',#1879,#1537,#1538);
#1235=AXIS2_PLACEMENT_3D('',#1882,#1540,#1541);
#1236=AXIS2_PLACEMENT_3D('',#1883,#1542,#1543);
#1237=AXIS2_PLACEMENT_3D('',#1887,#1545,#1546);
#1238=AXIS2_PLACEMENT_3D('',#1888,#1547,#1548);
#1239=AXIS2_PLACEMENT_3D('',#1889,#1549,#1550);
#1240=AXIS2_PLACEMENT_3D('',#1892,#1552,#1553);
#1241=AXIS2_PLACEMENT_3D('',#1893,#1554,#1555);
#1242=AXIS2_PLACEMENT_3D('',#1896,#1557,#1558);
#1243=AXIS2_PLACEMENT_3D('',#1897,#1559,#1560);
#1244=AXIS2_PLACEMENT_3D('',#1900,#1562,#1563);
#1245=AXIS2_PLACEMENT_3D('',#1901,#1564,#1565);
#1246=AXIS2_PLACEMENT_3D('',#1905,#1567,#1568);
#1247=AXIS2_PLACEMENT_3D('',#1906,#1569,#1570);
#1248=AXIS2_PLACEMENT_3D('',#1907,#1571,#1572);
#1249=AXIS2_PLACEMENT_3D('',#1910,#1574,#1575);
#1250=AXIS2_PLACEMENT_3D('',#1911,#1576,#1577);
#1251=AXIS2_PLACEMENT_3D('',#1915,#1579,#1580);
#1252=AXIS2_PLACEMENT_3D('',#1916,#1581,#1582);
#1253=AXIS2_PLACEMENT_3D('',#1917,#1583,#1584);
#1254=AXIS2_PLACEMENT_3D('',#1920,#1586,#1587);
#1255=AXIS2_PLACEMENT_3D('',#1921,#1588,#1589);
#1256=AXIS2_PLACEMENT_3D('',#1925,#1592,#1593);
#1257=AXIS2_PLACEMENT_3D('',#1927,#1595,#1596);
#1258=DIRECTION('axis',(0.,0.,1.));
#1259=DIRECTION('refdir',(1.,0.,0.));
#1260=DIRECTION('center_axis',(2.2429892266911E-16,-0.707106781186549,0.707106781186546));
#1261=DIRECTION('ref_axis',(1.,0.,-3.1720657846433E-16));
#1262=DIRECTION('',(-1.14188542449731E-16,-0.707106781186546,-0.707106781186549));
#1263=DIRECTION('',(1.,0.,-3.1720657846433E-16));
#1264=DIRECTION('',(0.,0.707106781186546,0.707106781186549));
#1265=DIRECTION('',(-1.,0.,3.1720657846433E-16));
#1266=DIRECTION('center_axis',(0.,1.,0.));
#1267=DIRECTION('ref_axis',(0.707106781186548,0.,0.707106781186547));
#1268=DIRECTION('center_axis',(0.,1.,0.));
#1269=DIRECTION('ref_axis',(0.707106781186548,0.,0.707106781186547));
#1270=DIRECTION('',(0.707106781186543,0.707106781186552,0.));
#1271=DIRECTION('center_axis',(0.,-1.,0.));
#1272=DIRECTION('ref_axis',(0.707106781186548,0.,0.707106781186547));
#1273=DIRECTION('center_axis',(0.707106781186549,-0.707106781186546,-1.14188542449731E-16));
#1274=DIRECTION('ref_axis',(-1.61486985400025E-16,0.,-1.));
#1275=DIRECTION('',(0.707106781186546,0.707106781186549,0.));
#1276=DIRECTION('',(1.61486985400025E-16,0.,1.));
#1277=DIRECTION('',(-1.61486985400025E-16,0.,-1.));
#1278=DIRECTION('center_axis',(0.,1.,0.));
#1279=DIRECTION('ref_axis',(0.707106781186555,0.,-0.70710678118654));
#1280=DIRECTION('center_axis',(0.,1.,0.));
#1281=DIRECTION('ref_axis',(0.707106781186555,0.,-0.70710678118654));
#1282=DIRECTION('',(0.,0.707106781186542,-0.707106781186552));
#1283=DIRECTION('center_axis',(0.,-1.,0.));
#1284=DIRECTION('ref_axis',(0.707106781186555,0.,-0.70710678118654));
#1285=DIRECTION('center_axis',(2.24298922669109E-16,-0.707106781186553,
-0.707106781186543));
#1286=DIRECTION('ref_axis',(-1.,0.,-3.1720657846433E-16));
#1287=DIRECTION('',(-1.14188542449731E-16,0.707106781186543,-0.707106781186553));
#1288=DIRECTION('',(1.,0.,3.1720657846433E-16));
#1289=DIRECTION('',(-1.,0.,-3.1720657846433E-16));
#1290=DIRECTION('center_axis',(3.1720657846433E-16,0.,-1.));
#1291=DIRECTION('ref_axis',(1.,0.,3.1720657846433E-16));
#1292=DIRECTION('',(0.,1.,0.));
#1293=DIRECTION('',(1.,0.,3.1720657846433E-16));
#1294=DIRECTION('',(0.,-1.,0.));
#1295=DIRECTION('center_axis',(0.,-1.,0.));
#1296=DIRECTION('ref_axis',(0.707106781186555,0.,-0.70710678118654));
#1297=DIRECTION('',(0.,-1.,0.));
#1298=DIRECTION('center_axis',(0.,-1.,0.));
#1299=DIRECTION('ref_axis',(1.,0.,0.));
#1300=DIRECTION('center_axis',(-1.,0.,1.61486985400025E-16));
#1301=DIRECTION('ref_axis',(-1.61486985400025E-16,0.,-1.));
#1302=DIRECTION('',(0.,1.,0.));
#1303=DIRECTION('',(1.61486985400025E-16,0.,1.));
#1304=DIRECTION('center_axis',(0.,-1.,0.));
#1305=DIRECTION('ref_axis',(0.707106781186548,0.,0.707106781186547));
#1306=DIRECTION('',(0.,-1.,0.));
#1307=DIRECTION('center_axis',(0.,-1.,0.));
#1308=DIRECTION('ref_axis',(0.,0.,1.));
#1309=DIRECTION('center_axis',(-3.1720657846433E-16,0.,-1.));
#1310=DIRECTION('ref_axis',(1.,0.,-3.1720657846433E-16));
#1311=DIRECTION('',(0.,-1.,0.));
#1312=DIRECTION('',(-1.,0.,3.1720657846433E-16));
#1313=DIRECTION('center_axis',(1.79439138135287E-16,-0.707106781186552,
-0.707106781186543));
#1314=DIRECTION('ref_axis',(-1.,0.,-2.53765262771464E-16));
#1315=DIRECTION('',(2.28377084899463E-16,-0.707106781186543,0.707106781186552));
#1316=DIRECTION('',(-1.,0.,-2.53765262771464E-16));
#1317=DIRECTION('',(0.,0.707106781186543,-0.707106781186552));
#1318=DIRECTION('',(1.,0.,2.53765262771464E-16));
#1319=DIRECTION('center_axis',(0.,1.,0.));
#1320=DIRECTION('ref_axis',(-0.707106781186554,0.,-0.707106781186541));
#1321=DIRECTION('center_axis',(0.,1.,0.));
#1322=DIRECTION('ref_axis',(-0.707106781186554,0.,-0.707106781186541));
#1323=DIRECTION('',(-0.707106781186562,0.707106781186533,0.));
#1324=DIRECTION('center_axis',(0.,-1.,0.));
#1325=DIRECTION('ref_axis',(-0.707106781186554,0.,-0.707106781186541));
#1326=DIRECTION('center_axis',(-0.707106781186549,-0.707106781186546,-1.14188542449731E-16));
#1327=DIRECTION('ref_axis',(-1.61486985400025E-16,0.,1.));
#1328=DIRECTION('',(-0.707106781186546,0.707106781186549,9.42055475210267E-15));
#1329=DIRECTION('',(1.61486985400025E-16,0.,-1.));
#1330=DIRECTION('',(-1.61486985400025E-16,0.,1.));
#1331=DIRECTION('center_axis',(0.,1.,0.));
#1332=DIRECTION('ref_axis',(-0.707106781186548,0.,0.707106781186547));
#1333=DIRECTION('center_axis',(0.,1.,0.));
#1334=DIRECTION('ref_axis',(-0.707106781186548,0.,0.707106781186547));
#1335=DIRECTION('',(0.,0.707106781186547,0.707106781186548));
#1336=DIRECTION('center_axis',(0.,-1.,0.));
#1337=DIRECTION('ref_axis',(-0.707106781186548,0.,0.707106781186547));
#1338=DIRECTION('center_axis',(-2.2429892266911E-16,-0.707106781186549,
0.707106781186546));
#1339=DIRECTION('ref_axis',(1.,0.,3.1720657846433E-16));
#1340=DIRECTION('',(2.28377084899462E-16,0.707106781186546,0.707106781186549));
#1341=DIRECTION('',(-1.,0.,-3.1720657846433E-16));
#1342=DIRECTION('',(1.,0.,3.1720657846433E-16));
#1343=DIRECTION('center_axis',(-3.1720657846433E-16,0.,1.));
#1344=DIRECTION('ref_axis',(-1.,0.,-3.1720657846433E-16));
#1345=DIRECTION('',(0.,1.,0.));
#1346=DIRECTION('',(-1.,0.,-3.1720657846433E-16));
#1347=DIRECTION('',(0.,-1.,0.));
#1348=DIRECTION('center_axis',(0.,-1.,0.));
#1349=DIRECTION('ref_axis',(-0.707106781186548,0.,0.707106781186547));
#1350=DIRECTION('',(0.,-1.,0.));
#1351=DIRECTION('center_axis',(0.,-1.,0.));
#1352=DIRECTION('ref_axis',(-1.,0.,0.));
#1353=DIRECTION('center_axis',(-1.,0.,-1.61486985400025E-16));
#1354=DIRECTION('ref_axis',(1.61486985400025E-16,0.,-1.));
#1355=DIRECTION('',(0.,1.,0.));
#1356=DIRECTION('',(1.61486985400025E-16,0.,-1.));
#1357=DIRECTION('center_axis',(0.,-1.,0.));
#1358=DIRECTION('ref_axis',(-0.707106781186554,0.,-0.707106781186541));
#1359=DIRECTION('',(0.,-1.,0.));
#1360=DIRECTION('center_axis',(1.96261557335472E-16,0.707106781186546,-0.707106781186549));
#1361=DIRECTION('ref_axis',(-1.96261557335471E-16,0.707106781186549,0.707106781186546));
#1362=DIRECTION('center_axis',(-2.53765262771464E-16,0.,1.));
#1363=DIRECTION('ref_axis',(-1.,0.,-2.53765262771464E-16));
#1364=DIRECTION('',(0.,-1.,0.));
#1365=DIRECTION('',(-1.,0.,3.1720657846433E-16));
#1366=DIRECTION('center_axis',(-1.79439138135287E-16,-0.707106781186553,
0.707106781186543));
#1367=DIRECTION('ref_axis',(1.,0.,2.53765262771464E-16));
#1368=DIRECTION('',(2.28377084899463E-16,0.707106781186543,0.707106781186553));
#1369=DIRECTION('',(1.,0.,2.53765262771464E-16));
#1370=DIRECTION('',(-1.14188542449731E-16,-0.707106781186543,-0.707106781186553));
#1371=DIRECTION('',(-1.,0.,-2.53765262771464E-16));
#1372=DIRECTION('center_axis',(2.53765262771464E-16,0.,-1.));
#1373=DIRECTION('ref_axis',(-1.,0.,-2.53765262771464E-16));
#1374=DIRECTION('',(0.,1.,0.));
#1375=DIRECTION('',(1.,0.,2.53765262771464E-16));
#1376=DIRECTION('',(0.,-1.,0.));
#1377=DIRECTION('center_axis',(-1.,0.,-2.53765262771464E-16));
#1378=DIRECTION('ref_axis',(0.,0.707106781186542,0.707106781186553));
#1379=DIRECTION('center_axis',(1.,0.,-1.61486985400025E-16));
#1380=DIRECTION('ref_axis',(0.,0.707106781186542,0.707106781186553));
#1381=DIRECTION('',(-1.,0.,-2.53765262771464E-16));
#1382=DIRECTION('center_axis',(-1.,0.,3.2297397080005E-16));
#1383=DIRECTION('ref_axis',(0.,0.707106781186542,0.707106781186553));
#1384=DIRECTION('center_axis',(0.,-1.,0.));
#1385=DIRECTION('ref_axis',(0.,0.,-1.));
#1386=DIRECTION('',(4.44089209850063E-16,0.,1.));
#1387=DIRECTION('',(1.,0.,1.26882631385732E-16));
#1388=DIRECTION('',(0.,0.,-1.));
#1389=DIRECTION('center_axis',(0.,-1.,0.));
#1390=DIRECTION('ref_axis',(-0.707106781186548,0.,0.707106781186547));
#1391=DIRECTION('',(-1.,0.,1.26882631385732E-16));
#1392=DIRECTION('center_axis',(0.,-1.,0.));
#1393=DIRECTION('ref_axis',(0.707106781186546,0.,0.707106781186549));
#1394=DIRECTION('center_axis',(0.,1.,0.));
#1395=DIRECTION('ref_axis',(-1.,0.,0.));
#1396=DIRECTION('center_axis',(0.,-1.,0.));
#1397=DIRECTION('ref_axis',(1.,0.,0.));
#1398=DIRECTION('center_axis',(0.,-1.,0.));
#1399=DIRECTION('ref_axis',(1.,0.,0.));
#1400=DIRECTION('center_axis',(0.,1.,0.));
#1401=DIRECTION('ref_axis',(-1.,0.,0.));
#1402=DIRECTION('center_axis',(0.,1.,0.));
#1403=DIRECTION('ref_axis',(-1.,0.,0.));
#1404=DIRECTION('center_axis',(0.,1.,0.));
#1405=DIRECTION('ref_axis',(-1.,0.,0.));
#1406=DIRECTION('center_axis',(0.,-1.,0.));
#1407=DIRECTION('ref_axis',(1.,0.,0.));
#1408=DIRECTION('center_axis',(0.,-1.,0.));
#1409=DIRECTION('ref_axis',(1.,0.,0.));
#1410=DIRECTION('',(-3.2297397080005E-16,0.,1.));
#1411=DIRECTION('',(1.61486985400025E-16,0.,1.));
#1412=DIRECTION('',(1.,0.,-2.53765262771464E-16));
#1413=DIRECTION('center_axis',(-1.,0.,2.53765262771464E-16));
#1414=DIRECTION('ref_axis',(0.,0.707106781186549,-0.707106781186546));
#1415=DIRECTION('center_axis',(1.,0.,-1.61486985400025E-16));
#1416=DIRECTION('ref_axis',(0.,0.707106781186549,-0.707106781186546));
#1417=DIRECTION('',(-1.,0.,2.53765262771464E-16));
#1418=DIRECTION('center_axis',(-1.,0.,3.2297397080005E-16));
#1419=DIRECTION('ref_axis',(0.,0.707106781186549,-0.707106781186546));
#1420=DIRECTION('center_axis',(-2.53765262771464E-16,0.,-1.));
#1421=DIRECTION('ref_axis',(-1.,0.,2.53765262771464E-16));
#1422=DIRECTION('',(0.,-1.,0.));
#1423=DIRECTION('',(-1.,0.,2.53765262771464E-16));
#1424=DIRECTION('',(0.,1.,0.));
#1425=DIRECTION('center_axis',(0.,0.,1.));
#1426=DIRECTION('ref_axis',(-0.707106781186549,0.707106781186546,0.));
#1427=DIRECTION('center_axis',(-1.26882631385732E-16,0.,1.));
#1428=DIRECTION('ref_axis',(-0.707106781186549,0.707106781186546,0.));
#1429=DIRECTION('',(0.,0.,1.));
#1430=DIRECTION('center_axis',(2.22044604925031E-15,0.,-1.));
#1431=DIRECTION('ref_axis',(-1.,0.,-2.22044604925031E-15));
#1432=DIRECTION('center_axis',(-1.,0.,0.));
#1433=DIRECTION('ref_axis',(0.,0.,1.));
#1434=DIRECTION('center_axis',(0.,1.,0.));
#1435=DIRECTION('ref_axis',(-0.707106781186548,0.,0.707106781186547));
#1436=DIRECTION('center_axis',(1.,0.,-1.26882631385732E-16));
#1437=DIRECTION('ref_axis',(0.,0.707106781186548,0.707106781186547));
#1438=DIRECTION('center_axis',(-1.,0.,-4.44089209850063E-15));
#1439=DIRECTION('ref_axis',(-4.44089209850063E-15,0.,1.));
#1440=DIRECTION('',(1.,0.,-1.26882631385732E-16));
#1441=DIRECTION('center_axis',(-5.55111512312578E-16,0.,1.));
#1442=DIRECTION('ref_axis',(1.,0.,5.55111512312578E-16));
#1443=DIRECTION('center_axis',(0.,1.,0.));
#1444=DIRECTION('ref_axis',(0.707106781186546,0.,0.707106781186549));
#1445=DIRECTION('center_axis',(-4.44089209850063E-16,0.,-1.));
#1446=DIRECTION('ref_axis',(0.707106781186546,0.707106781186549,0.));
#1447=DIRECTION('center_axis',(-1.26882631385732E-16,0.,1.));
#1448=DIRECTION('ref_axis',(0.707106781186546,0.707106781186549,0.));
#1449=DIRECTION('',(-4.44089209850063E-16,0.,-1.));
#1450=DIRECTION('center_axis',(0.,1.,0.));
#1451=DIRECTION('ref_axis',(0.707106781186548,0.,0.707106781186547));
#1452=DIRECTION('',(0.,-1.,0.));
#1453=DIRECTION('center_axis',(0.,1.,0.));
#1454=DIRECTION('ref_axis',(0.707106781186548,0.,0.707106781186547));
#1455=DIRECTION('',(0.,1.,0.));
#1456=DIRECTION('center_axis',(1.26882631385732E-16,0.,1.));
#1457=DIRECTION('ref_axis',(1.,0.,-1.26882631385732E-16));
#1458=DIRECTION('',(0.,1.,0.));
#1459=DIRECTION('',(1.,0.,-1.26882631385732E-16));
#1460=DIRECTION('center_axis',(0.,1.,0.));
#1461=DIRECTION('ref_axis',(-0.707106781186548,0.,0.707106781186547));
#1462=DIRECTION('',(0.,-1.,0.));
#1463=DIRECTION('center_axis',(0.,1.,0.));
#1464=DIRECTION('ref_axis',(-0.707106781186548,0.,0.707106781186547));
#1465=DIRECTION('center_axis',(1.,0.,0.));
#1466=DIRECTION('ref_axis',(0.,0.,-1.));
#1467=DIRECTION('',(0.,1.,0.));
#1468=DIRECTION('',(0.,0.,-1.));
#1469=DIRECTION('center_axis',(-0.408248290463861,0.40824829046386,-0.816496580927729));
#1470=DIRECTION('ref_axis',(0.577350269189628,-0.577350269189627,-0.577350269189623));
#1471=DIRECTION('center_axis',(1.,0.,0.));
#1472=DIRECTION('ref_axis',(0.,0.,-1.));
#1473=DIRECTION('center_axis',(0.,0.,-1.));
#1474=DIRECTION('ref_axis',(0.,-1.,0.));
#1475=DIRECTION('center_axis',(0.408248290463863,-0.408248290463862,-0.816496580927726));
#1476=DIRECTION('ref_axis',(0.577350269189626,-0.577350269189626,0.577350269189625));
#1477=DIRECTION('center_axis',(0.,-2.22044604925031E-15,1.));
#1478=DIRECTION('ref_axis',(1.,0.,0.));
#1479=DIRECTION('center_axis',(1.,0.,0.));
#1480=DIRECTION('ref_axis',(0.,-1.,0.));
#1481=DIRECTION('center_axis',(1.,0.,-3.1720657846433E-16));
#1482=DIRECTION('ref_axis',(0.,-0.707106781186547,0.707106781186548));
#1483=DIRECTION('center_axis',(1.,0.,-1.61486985400025E-16));
#1484=DIRECTION('ref_axis',(0.,-0.707106781186547,0.707106781186548));
#1485=DIRECTION('',(1.,0.,-3.1720657846433E-16));
#1486=DIRECTION('center_axis',(1.61486985400025E-16,0.,1.));
#1487=DIRECTION('ref_axis',(0.707106781186548,-0.707106781186547,0.));
#1488=DIRECTION('',(-1.61486985400025E-16,0.,-1.));
#1489=DIRECTION('center_axis',(1.,0.,3.1720657846433E-16));
#1490=DIRECTION('ref_axis',(0.,-0.707106781186555,-0.70710678118654));
#1491=DIRECTION('center_axis',(1.,0.,-1.61486985400025E-16));
#1492=DIRECTION('ref_axis',(0.,-0.707106781186555,-0.70710678118654));
#1493=DIRECTION('',(-1.,0.,-3.1720657846433E-16));
#1494=DIRECTION('center_axis',(0.,1.,0.));
#1495=DIRECTION('ref_axis',(0.,0.,-1.));
#1496=DIRECTION('',(-3.2297397080005E-16,0.,1.));
#1497=DIRECTION('center_axis',(-1.,0.,1.61486985400025E-16));
#1498=DIRECTION('ref_axis',(-1.61486985400025E-16,0.,-1.));
#1499=DIRECTION('',(1.61486985400025E-16,0.,1.));
#1500=DIRECTION('center_axis',(-0.408248290463863,-0.408248290463863,-0.816496580927726));
#1501=DIRECTION('ref_axis',(-0.577350269189626,-0.577350269189626,0.577350269189626));
#1502=DIRECTION('center_axis',(-1.,0.,0.));
#1503=DIRECTION('ref_axis',(0.,0.,1.));
#1504=DIRECTION('center_axis',(2.22044604925031E-15,0.,1.));
#1505=DIRECTION('ref_axis',(0.,-1.,0.));
#1506=DIRECTION('center_axis',(1.61486985400025E-16,0.,-1.));
#1507=DIRECTION('ref_axis',(-0.707106781186548,-0.707106781186547,0.));
#1508=DIRECTION('',(-1.61486985400025E-16,0.,1.));
#1509=DIRECTION('center_axis',(-1.,0.,-3.1720657846433E-16));
#1510=DIRECTION('ref_axis',(0.,-0.707106781186547,0.707106781186548));
#1511=DIRECTION('center_axis',(-1.,0.,3.2297397080005E-16));
#1512=DIRECTION('ref_axis',(0.,-0.707106781186547,0.707106781186548));
#1513=DIRECTION('',(1.,0.,3.1720657846433E-16));
#1514=DIRECTION('center_axis',(1.,0.,-3.2297397080005E-16));
#1515=DIRECTION('ref_axis',(3.2297397080005E-16,0.,1.));
#1516=DIRECTION('',(3.2297397080005E-16,0.,-1.));
#1517=DIRECTION('',(-3.2297397080005E-16,0.,-1.));
#1518=DIRECTION('center_axis',(0.,-1.,0.));
#1519=DIRECTION('ref_axis',(0.,0.,-1.));
#1520=DIRECTION('center_axis',(0.,1.,0.));
#1521=DIRECTION('ref_axis',(1.,0.,0.));
#1522=DIRECTION('',(0.,-1.,0.));
#1523=DIRECTION('center_axis',(0.,1.,0.));
#1524=DIRECTION('ref_axis',(1.,0.,0.));
#1525=DIRECTION('center_axis',(0.,1.,0.));
#1526=DIRECTION('ref_axis',(1.,0.,0.));
#1527=DIRECTION('',(0.,-1.,0.));
#1528=DIRECTION('center_axis',(0.,1.,0.));
#1529=DIRECTION('ref_axis',(1.,0.,0.));
#1530=DIRECTION('center_axis',(0.,1.,0.));
#1531=DIRECTION('ref_axis',(-1.,0.,0.));
#1532=DIRECTION('',(-0.707106781186547,-0.707106781186548,8.65956056235493E-17));
#1533=DIRECTION('center_axis',(0.,-1.,0.));
#1534=DIRECTION('ref_axis',(-1.,0.,0.));
#1535=DIRECTION('center_axis',(0.,-1.,0.));
#1536=DIRECTION('ref_axis',(-1.,0.,0.));
#1537=DIRECTION('center_axis',(0.,1.,0.));
#1538=DIRECTION('ref_axis',(1.,0.,0.));
#1539=DIRECTION('',(0.,-1.,0.));
#1540=DIRECTION('center_axis',(0.,1.,0.));
#1541=DIRECTION('ref_axis',(1.,0.,0.));
#1542=DIRECTION('center_axis',(0.,1.,0.));
#1543=DIRECTION('ref_axis',(-1.,0.,0.));
#1544=DIRECTION('',(-0.707106781186547,-0.707106781186548,8.65956056235493E-17));
#1545=DIRECTION('center_axis',(0.,-1.,0.));
#1546=DIRECTION('ref_axis',(-1.,0.,0.));
#1547=DIRECTION('center_axis',(0.,-1.,0.));
#1548=DIRECTION('ref_axis',(-1.,0.,0.));
#1549=DIRECTION('center_axis',(0.,1.,0.));
#1550=DIRECTION('ref_axis',(1.,0.,0.));
#1551=DIRECTION('',(0.,-1.,0.));
#1552=DIRECTION('center_axis',(0.,1.,0.));
#1553=DIRECTION('ref_axis',(1.,0.,0.));
#1554=DIRECTION('center_axis',(0.,-1.,0.));
#1555=DIRECTION('ref_axis',(1.,0.,0.));
#1556=DIRECTION('',(0.,-1.,0.));
#1557=DIRECTION('center_axis',(0.,1.,0.));
#1558=DIRECTION('ref_axis',(1.,0.,0.));
#1559=DIRECTION('center_axis',(0.,-1.,0.));
#1560=DIRECTION('ref_axis',(1.,0.,0.));
#1561=DIRECTION('',(0.,-1.,0.));
#1562=DIRECTION('center_axis',(0.,1.,0.));
#1563=DIRECTION('ref_axis',(1.,0.,0.));
#1564=DIRECTION('center_axis',(0.,1.,0.));
#1565=DIRECTION('ref_axis',(-1.,0.,0.));
#1566=DIRECTION('',(-0.707106781186547,-0.707106781186548,8.65956056235493E-17));
#1567=DIRECTION('center_axis',(0.,-1.,0.));
#1568=DIRECTION('ref_axis',(-1.,0.,0.));
#1569=DIRECTION('center_axis',(0.,-1.,0.));
#1570=DIRECTION('ref_axis',(-1.,0.,0.));
#1571=DIRECTION('center_axis',(0.,-1.,0.));
#1572=DIRECTION('ref_axis',(1.,0.,0.));
#1573=DIRECTION('',(0.,-1.,0.));
#1574=DIRECTION('center_axis',(0.,1.,0.));
#1575=DIRECTION('ref_axis',(1.,0.,0.));
#1576=DIRECTION('center_axis',(0.,1.,0.));
#1577=DIRECTION('ref_axis',(-1.,0.,0.));
#1578=DIRECTION('',(-0.707106781186547,-0.707106781186548,8.65956056235493E-17));
#1579=DIRECTION('center_axis',(0.,-1.,0.));
#1580=DIRECTION('ref_axis',(-1.,0.,0.));
#1581=DIRECTION('center_axis',(0.,-1.,0.));
#1582=DIRECTION('ref_axis',(-1.,0.,0.));
#1583=DIRECTION('center_axis',(0.,-1.,0.));
#1584=DIRECTION('ref_axis',(1.,0.,0.));
#1585=DIRECTION('',(0.,-1.,0.));
#1586=DIRECTION('center_axis',(0.,1.,0.));
#1587=DIRECTION('ref_axis',(1.,0.,0.));
#1588=DIRECTION('center_axis',(-1.26882631385732E-16,0.,1.));
#1589=DIRECTION('ref_axis',(1.,0.,1.26882631385732E-16));
#1590=DIRECTION('',(0.,1.,0.));
#1591=DIRECTION('',(1.,0.,1.26882631385732E-16));
#1592=DIRECTION('center_axis',(-1.,0.,4.44089209850063E-16));
#1593=DIRECTION('ref_axis',(4.44089209850063E-16,0.,1.));
#1594=DIRECTION('',(4.44089209850063E-16,0.,1.));
#1595=DIRECTION('center_axis',(0.,-1.,0.));
#1596=DIRECTION('ref_axis',(0.,0.,-1.));
#1597=CARTESIAN_POINT('',(0.,0.,0.));
#1598=CARTESIAN_POINT('Origin',(13.875,-0.25,-4.74999999999998));
#1599=CARTESIAN_POINT('',(27.75,0.,-4.49999999999998));
#1600=CARTESIAN_POINT('',(27.75,-0.5,-4.99999999999998));
#1601=CARTESIAN_POINT('',(27.75,0.999999999999989,-3.49999999999999));
#1602=CARTESIAN_POINT('',(29.25,-0.5,-4.99999999999998));
#1603=CARTESIAN_POINT('',(13.875,-0.5,-4.99999999999998));
#1604=CARTESIAN_POINT('',(29.25,0.,-4.49999999999998));
#1605=CARTESIAN_POINT('',(29.25,-0.5,-4.99999999999998));
#1606=CARTESIAN_POINT('',(13.875,0.,-4.49999999999998));
#1607=CARTESIAN_POINT('Origin',(29.25,-0.25,-6.99999999999998));
#1608=CARTESIAN_POINT('',(31.25,-0.5,-6.99999999999998));
#1609=CARTESIAN_POINT('Origin',(29.25,-0.5,-6.99999999999998));
#1610=CARTESIAN_POINT('',(31.75,0.,-6.99999999999998));
#1611=CARTESIAN_POINT('',(31.25,-0.5,-6.99999999999998));
#1612=CARTESIAN_POINT('Origin',(29.25,0.,-6.99999999999998));
#1613=CARTESIAN_POINT('Origin',(31.5,-0.25,-117.499999999999));
#1614=CARTESIAN_POINT('',(31.25,-0.5,-222.999999999997));
#1615=CARTESIAN_POINT('',(31.75,0.,-222.999999999997));
#1616=CARTESIAN_POINT('',(31.25,-0.5,-222.999999999997));
#1617=CARTESIAN_POINT('',(31.75,0.,-117.499999999999));
#1618=CARTESIAN_POINT('',(31.25,-0.5,-117.499999999999));
#1619=CARTESIAN_POINT('Origin',(29.25,-0.25,-222.999999999997));
#1620=CARTESIAN_POINT('',(29.25,-0.5,-224.999999999997));
#1621=CARTESIAN_POINT('Origin',(29.25,-0.5,-222.999999999997));
#1622=CARTESIAN_POINT('',(29.25,0.,-225.499999999997));
#1623=CARTESIAN_POINT('',(29.25,-0.5,-224.999999999997));
#1624=CARTESIAN_POINT('Origin',(29.25,0.,-222.999999999997));
#1625=CARTESIAN_POINT('Origin',(13.875,-0.25,-225.249999999997));
#1626=CARTESIAN_POINT('',(27.75,-0.5,-224.999999999997));
#1627=CARTESIAN_POINT('',(27.75,0.,-225.499999999997));
#1628=CARTESIAN_POINT('',(27.75,-53.9999999999993,-171.499999999997));
#1629=CARTESIAN_POINT('',(13.875,0.,-225.499999999997));
#1630=CARTESIAN_POINT('',(13.875,-0.5,-224.999999999997));
#1631=CARTESIAN_POINT('Origin',(27.75,0.,-224.999999999997));
#1632=CARTESIAN_POINT('',(29.25,-3.,-224.999999999997));
#1633=CARTESIAN_POINT('',(29.25,0.,-224.999999999997));
#1634=CARTESIAN_POINT('',(27.75,-3.,-224.999999999997));
#1635=CARTESIAN_POINT('',(28.625,-3.,-224.999999999997));
#1636=CARTESIAN_POINT('',(27.75,0.,-224.999999999997));
#1637=CARTESIAN_POINT('Origin',(29.25,0.,-222.999999999997));
#1638=CARTESIAN_POINT('',(31.25,-3.,-222.999999999997));
#1639=CARTESIAN_POINT('',(31.25,0.,-222.999999999997));
#1640=CARTESIAN_POINT('Origin',(29.25,-3.,-222.999999999997));
#1641=CARTESIAN_POINT('Origin',(31.25,0.,-4.99999999999998));
#1642=CARTESIAN_POINT('',(31.25,-3.,-6.99999999999998));
#1643=CARTESIAN_POINT('',(31.25,0.,-6.99999999999998));
#1644=CARTESIAN_POINT('',(31.25,-3.,-32.4999999999996));
#1645=CARTESIAN_POINT('Origin',(29.25,0.,-6.99999999999998));
#1646=CARTESIAN_POINT('',(29.25,-3.,-4.99999999999998));
#1647=CARTESIAN_POINT('',(29.25,0.,-4.99999999999998));
#1648=CARTESIAN_POINT('Origin',(29.25,-3.,-6.99999999999998));
#1649=CARTESIAN_POINT('Origin',(27.75,0.,-4.99999999999998));
#1650=CARTESIAN_POINT('',(27.75,-3.,-4.99999999999998));
#1651=CARTESIAN_POINT('',(27.75,0.,-4.99999999999998));
#1652=CARTESIAN_POINT('',(28.625,-3.,-4.99999999999998));
#1653=CARTESIAN_POINT('Origin',(-13.875,-0.25,-225.249999999997));
#1654=CARTESIAN_POINT('',(-27.7500000000001,0.,-225.499999999997));
#1655=CARTESIAN_POINT('',(-27.75,-0.5,-224.999999999997));
#1656=CARTESIAN_POINT('',(-27.7500000000001,-26.4999999999997,-198.999999999997));
#1657=CARTESIAN_POINT('',(-29.25,-0.5,-224.999999999997));
#1658=CARTESIAN_POINT('',(-13.875,-0.5,-224.999999999997));
#1659=CARTESIAN_POINT('',(-29.25,0.,-225.499999999997));
#1660=CARTESIAN_POINT('',(-29.25,-0.5,-224.999999999997));
#1661=CARTESIAN_POINT('',(-13.875,0.,-225.499999999997));
#1662=CARTESIAN_POINT('Origin',(-29.25,-0.25,-222.999999999997));
#1663=CARTESIAN_POINT('',(-31.25,-0.5,-222.999999999997));
#1664=CARTESIAN_POINT('Origin',(-29.25,-0.5,-222.999999999997));
#1665=CARTESIAN_POINT('',(-31.75,0.,-222.999999999997));
#1666=CARTESIAN_POINT('',(-31.25,-0.5,-222.999999999997));
#1667=CARTESIAN_POINT('Origin',(-29.25,0.,-222.999999999997));
#1668=CARTESIAN_POINT('Origin',(-31.5,-0.25,-117.499999999999));
#1669=CARTESIAN_POINT('',(-31.25,-0.5,-6.99999999999998));
#1670=CARTESIAN_POINT('',(-31.75,0.,-6.99999999999998));
#1671=CARTESIAN_POINT('',(-31.25,-0.5,-6.99999999999998));
#1672=CARTESIAN_POINT('',(-31.75,0.,-117.499999999999));
#1673=CARTESIAN_POINT('',(-31.25,-0.5,-117.499999999999));
#1674=CARTESIAN_POINT('Origin',(-29.25,-0.25,-6.99999999999998));
#1675=CARTESIAN_POINT('',(-29.25,-0.5,-4.99999999999998));
#1676=CARTESIAN_POINT('Origin',(-29.25,-0.5,-6.99999999999998));
#1677=CARTESIAN_POINT('',(-29.25,0.,-4.49999999999998));
#1678=CARTESIAN_POINT('',(-29.25,-0.5,-4.99999999999998));
#1679=CARTESIAN_POINT('Origin',(-29.25,0.,-6.99999999999998));
#1680=CARTESIAN_POINT('Origin',(-13.875,-0.25,-4.74999999999998));
#1681=CARTESIAN_POINT('',(-27.75,0.,-4.49999999999998));
#1682=CARTESIAN_POINT('',(-27.75,-0.5,-4.99999999999998));
#1683=CARTESIAN_POINT('',(-27.75,-26.4999999999996,-30.9999999999998));
#1684=CARTESIAN_POINT('',(-13.875,0.,-4.49999999999998));
#1685=CARTESIAN_POINT('',(-13.875,-0.5,-4.99999999999998));
#1686=CARTESIAN_POINT('Origin',(-27.75,0.,-4.99999999999998));
#1687=CARTESIAN_POINT('',(-29.25,-3.,-4.99999999999998));
#1688=CARTESIAN_POINT('',(-29.25,0.,-4.99999999999998));
#1689=CARTESIAN_POINT('',(-27.75,-3.,-4.99999999999998));
#1690=CARTESIAN_POINT('',(-28.625,-3.,-4.99999999999998));
#1691=CARTESIAN_POINT('',(-27.75,0.,-4.99999999999998));
#1692=CARTESIAN_POINT('Origin',(-29.25,0.,-6.99999999999998));
#1693=CARTESIAN_POINT('',(-31.25,-3.,-6.99999999999998));
#1694=CARTESIAN_POINT('',(-31.25,0.,-6.99999999999998));
#1695=CARTESIAN_POINT('Origin',(-29.25,-3.,-6.99999999999998));
#1696=CARTESIAN_POINT('Origin',(-31.25,0.,-4.99999999999998));
#1697=CARTESIAN_POINT('',(-31.25,-3.,-222.999999999997));
#1698=CARTESIAN_POINT('',(-31.25,2.5,-222.999999999997));
#1699=CARTESIAN_POINT('',(-31.25,-3.,-32.4999999999996));
#1700=CARTESIAN_POINT('Origin',(-29.25,2.5,-222.999999999997));
#1701=CARTESIAN_POINT('',(-29.25,-5.,-224.999999999997));
#1702=CARTESIAN_POINT('',(-29.25,2.5,-224.999999999997));
#1703=CARTESIAN_POINT('Origin',(-29.25,-3.,-222.999999999997));
#1704=CARTESIAN_POINT('Origin',(-27.75,5.,-224.999999999997));
#1705=CARTESIAN_POINT('',(-27.75,-5.,-224.999999999997));
#1706=CARTESIAN_POINT('',(-27.75,5.,-224.999999999997));
#1707=CARTESIAN_POINT('',(-27.75,-5.,-224.999999999997));
#1708=CARTESIAN_POINT('Origin',(17.5,0.25,-225.249999999997));
#1709=CARTESIAN_POINT('',(-27.75,0.5,-224.999999999997));
#1710=CARTESIAN_POINT('',(-27.7500000000001,28.9999999999996,-196.499999999997));
#1711=CARTESIAN_POINT('',(17.5,0.,-225.499999999997));
#1712=CARTESIAN_POINT('',(27.75,0.5,-224.999999999997));
#1713=CARTESIAN_POINT('',(27.75,56.4999999999992,-168.999999999997));
#1714=CARTESIAN_POINT('',(17.5,0.5,-224.999999999997));
#1715=CARTESIAN_POINT('Origin',(35.,0.,-224.999999999997));
#1716=CARTESIAN_POINT('',(27.75,4.,-224.999999999997));
#1717=CARTESIAN_POINT('',(27.75,2.5,-224.999999999997));
#1718=CARTESIAN_POINT('',(-27.75,4.,-224.999999999997));
#1719=CARTESIAN_POINT('',(17.5,4.,-224.999999999997));
#1720=CARTESIAN_POINT('',(-27.75,2.5,-224.999999999997));
#1721=CARTESIAN_POINT('Origin',(17.5,4.,-225.999999999997));
#1722=CARTESIAN_POINT('',(27.75,5.,-225.999999999997));
#1723=CARTESIAN_POINT('Origin',(27.7500000000001,4.,-225.999999999997));
#1724=CARTESIAN_POINT('',(-27.7500000000001,5.,-225.999999999997));
#1725=CARTESIAN_POINT('',(17.5,5.,-225.999999999997));
#1726=CARTESIAN_POINT('Origin',(-27.75,4.,-225.999999999997));
#1727=CARTESIAN_POINT('Origin',(0.,5.,-229.999999999997));
#1728=CARTESIAN_POINT('',(34.,5.,-234.999999999997));
#1729=CARTESIAN_POINT('',(34.,5.,3.));
#1730=CARTESIAN_POINT('',(34.,5.,-232.499999999997));
#1731=CARTESIAN_POINT('',(-34.,5.,-234.999999999997));
#1732=CARTESIAN_POINT('',(-35.,5.,-234.999999999997));
#1733=CARTESIAN_POINT('',(-34.,5.,3.00000000000001));
#1734=CARTESIAN_POINT('',(-34.,5.,-227.499999999997));
#1735=CARTESIAN_POINT('',(-33.,5.,4.));
#1736=CARTESIAN_POINT('Origin',(-33.,5.,3.));
#1737=CARTESIAN_POINT('',(33.,5.,4.));
#1738=CARTESIAN_POINT('',(-17.5,5.,4.));
#1739=CARTESIAN_POINT('Origin',(33.,5.,3.));
#1740=CARTESIAN_POINT('',(-26.3999999999978,5.,-229.999999999997));
#1741=CARTESIAN_POINT('Origin',(-29.9999999999978,5.,-229.999999999997));
#1742=CARTESIAN_POINT('',(-24.5499999999978,5.,1.67526703787132E-14));
#1743=CARTESIAN_POINT('Origin',(-21.9999999999978,5.,1.70649553124958E-14));
#1744=CARTESIAN_POINT('',(19.4500000000002,5.,1.90191457177496E-14));
#1745=CARTESIAN_POINT('Origin',(22.0000000000002,5.,1.93314306515322E-14));
#1746=CARTESIAN_POINT('',(33.6000000000002,5.,1.06140537516322E-13));
#1747=CARTESIAN_POINT('Origin',(30.0000000000002,5.,1.06581410364015E-13));
#1748=CARTESIAN_POINT('',(-26.3999999999978,5.,1.06140537516322E-13));
#1749=CARTESIAN_POINT('Origin',(-29.9999999999978,5.,1.06581410364015E-13));
#1750=CARTESIAN_POINT('',(33.6000000000002,5.,-229.999999999997));
#1751=CARTESIAN_POINT('Origin',(30.0000000000002,5.,-229.999999999997));
#1752=CARTESIAN_POINT('',(19.4500000000002,5.,-229.999999999997));
#1753=CARTESIAN_POINT('Origin',(22.0000000000002,5.,-229.999999999997));
#1754=CARTESIAN_POINT('',(-24.5499999999978,5.,-229.999999999997));
#1755=CARTESIAN_POINT('Origin',(-21.9999999999978,5.,-229.999999999997));
#1756=CARTESIAN_POINT('',(-27.75,5.,-3.99999999999999));
#1757=CARTESIAN_POINT('',(-27.75,5.,-224.999999999997));
#1758=CARTESIAN_POINT('',(27.75,5.,-4.00000000000001));
#1759=CARTESIAN_POINT('',(27.75,5.,-114.999999999999));
#1760=CARTESIAN_POINT('',(17.5,5.,-4.));
#1761=CARTESIAN_POINT('Origin',(17.5,4.,-4.));
#1762=CARTESIAN_POINT('',(27.75,4.,-5.));
#1763=CARTESIAN_POINT('Origin',(27.75,4.,-4.00000000000001));
#1764=CARTESIAN_POINT('',(-27.75,4.,-4.99999999999999));
#1765=CARTESIAN_POINT('',(17.5,4.,-5.));
#1766=CARTESIAN_POINT('Origin',(-27.75,4.,-3.99999999999999));
#1767=CARTESIAN_POINT('Origin',(35.,0.,-5.));
#1768=CARTESIAN_POINT('',(27.75,0.,-5.));
#1769=CARTESIAN_POINT('',(27.75,2.5,-5.));
#1770=CARTESIAN_POINT('',(-27.75,0.,-4.99999999999998));
#1771=CARTESIAN_POINT('',(35.,0.,-5.));
#1772=CARTESIAN_POINT('',(-27.75,2.5,-4.99999999999999));
#1773=CARTESIAN_POINT('Origin',(-34.,4.,-227.499999999997));
#1774=CARTESIAN_POINT('',(-35.,4.,-234.999999999997));
#1775=CARTESIAN_POINT('Origin',(-34.,4.,-234.999999999997));
#1776=CARTESIAN_POINT('',(-35.,4.,3.));
#1777=CARTESIAN_POINT('',(-35.,4.,-227.499999999997));
#1778=CARTESIAN_POINT('Origin',(-34.,4.,3.00000000000001));
#1779=CARTESIAN_POINT('Ctrl Pts',(-33.,5.,4.));
#1780=CARTESIAN_POINT('Ctrl Pts',(-34.,5.,4.));
#1781=CARTESIAN_POINT('Ctrl Pts',(-34.,5.,3.));
#1782=CARTESIAN_POINT('Ctrl Pts',(-33.,5.,5.00000000000001));
#1783=CARTESIAN_POINT('Ctrl Pts',(-35.,5.,5.));
#1784=CARTESIAN_POINT('Ctrl Pts',(-35.,5.,3.));
#1785=CARTESIAN_POINT('Ctrl Pts',(-33.,4.,5.00000000000001));
#1786=CARTESIAN_POINT('Ctrl Pts',(-35.,4.,5.));
#1787=CARTESIAN_POINT('Ctrl Pts',(-35.,4.,3.));
#1788=CARTESIAN_POINT('',(-33.,4.,5.));
#1789=CARTESIAN_POINT('Origin',(-33.,4.,4.));
#1790=CARTESIAN_POINT('Origin',(-33.,4.,3.));
#1791=CARTESIAN_POINT('Origin',(-17.5,4.,4.));
#1792=CARTESIAN_POINT('',(33.,4.,5.));
#1793=CARTESIAN_POINT('Origin',(33.,4.,4.));
#1794=CARTESIAN_POINT('',(-17.5,4.,5.));
#1795=CARTESIAN_POINT('Ctrl Pts',(34.,5.,3.));
#1796=CARTESIAN_POINT('Ctrl Pts',(34.,5.,4.));
#1797=CARTESIAN_POINT('Ctrl Pts',(33.,5.,3.99999999999999));
#1798=CARTESIAN_POINT('Ctrl Pts',(35.,5.,3.));
#1799=CARTESIAN_POINT('Ctrl Pts',(35.,5.,5.));
#1800=CARTESIAN_POINT('Ctrl Pts',(33.,5.,5.));
#1801=CARTESIAN_POINT('Ctrl Pts',(35.,4.,3.));
#1802=CARTESIAN_POINT('Ctrl Pts',(35.,4.,5.));
#1803=CARTESIAN_POINT('Ctrl Pts',(33.,4.,5.));
#1804=CARTESIAN_POINT('',(35.,4.,3.));
#1805=CARTESIAN_POINT('Origin',(34.,4.,3.));
#1806=CARTESIAN_POINT('Origin',(33.,4.,3.));
#1807=CARTESIAN_POINT('Origin',(34.,4.,-232.499999999997));
#1808=CARTESIAN_POINT('',(35.,4.,-234.999999999997));
#1809=CARTESIAN_POINT('Origin',(34.,4.,-234.999999999997));
#1810=CARTESIAN_POINT('',(35.,4.,-232.499999999997));
#1811=CARTESIAN_POINT('Origin',(33.,0.,3.));
#1812=CARTESIAN_POINT('',(33.,0.,5.));
#1813=CARTESIAN_POINT('',(33.,0.,5.));
#1814=CARTESIAN_POINT('',(35.,0.,3.));
#1815=CARTESIAN_POINT('Origin',(33.,0.,3.));
#1816=CARTESIAN_POINT('',(35.,0.,3.));
#1817=CARTESIAN_POINT('Origin',(-35.,0.,5.));
#1818=CARTESIAN_POINT('',(-33.,0.,5.));
#1819=CARTESIAN_POINT('',(-33.,0.,5.));
#1820=CARTESIAN_POINT('',(-35.,0.,5.));
#1821=CARTESIAN_POINT('Origin',(-33.,0.,3.));
#1822=CARTESIAN_POINT('',(-35.,0.,3.));
#1823=CARTESIAN_POINT('',(-35.,0.,3.));
#1824=CARTESIAN_POINT('Origin',(-33.,0.,3.));
#1825=CARTESIAN_POINT('Origin',(-35.,0.,-224.999999999997));
#1826=CARTESIAN_POINT('',(-35.,0.,-234.999999999997));
#1827=CARTESIAN_POINT('',(-35.,0.,-234.999999999997));
#1828=CARTESIAN_POINT('',(-35.,0.,-224.999999999997));
#1829=CARTESIAN_POINT('Origin',(29.25,-3.,-222.999999999997));
#1830=CARTESIAN_POINT('',(29.25,-5.,-222.999999999997));
#1831=CARTESIAN_POINT('Origin',(29.25,-3.,-222.999999999997));
#1832=CARTESIAN_POINT('Origin',(29.25,-3.,-222.999999999997));
#1833=CARTESIAN_POINT('Origin',(29.25,-3.,-6.99999999999998));
#1834=CARTESIAN_POINT('',(29.25,-5.,-6.99999999999998));
#1835=CARTESIAN_POINT('Origin',(29.25,-3.,-6.99999999999998));
#1836=CARTESIAN_POINT('Origin',(29.25,-3.,-6.99999999999998));
#1837=CARTESIAN_POINT('Origin',(28.625,-3.,-6.99999999999998));
#1838=CARTESIAN_POINT('',(27.75,-5.,-6.99999999999999));
#1839=CARTESIAN_POINT('Origin',(27.75,-3.,-6.99999999999998));
#1840=CARTESIAN_POINT('',(28.625,-5.,-6.99999999999998));
#1841=CARTESIAN_POINT('Origin',(29.25,-3.,-32.4999999999996));
#1842=CARTESIAN_POINT('',(29.25,-5.,-32.4999999999996));
#1843=CARTESIAN_POINT('Origin',(28.625,-3.,-222.999999999997));
#1844=CARTESIAN_POINT('',(27.7500000000001,-5.,-222.999999999997));
#1845=CARTESIAN_POINT('Origin',(27.7500000000001,-3.,-222.999999999997));
#1846=CARTESIAN_POINT('',(28.625,-5.,-222.999999999997));
#1847=CARTESIAN_POINT('Origin',(29.5,-5.,-59.9999999999993));
#1848=CARTESIAN_POINT('',(27.75,-5.,-114.999999999999));
#1849=CARTESIAN_POINT('Origin',(27.75,5.,-5.));
#1850=CARTESIAN_POINT('',(27.75,0.,-117.499999999999));
#1851=CARTESIAN_POINT('Origin',(-29.25,-3.,-6.99999999999998));
#1852=CARTESIAN_POINT('',(-29.25,-5.,-6.99999999999998));
#1853=CARTESIAN_POINT('Origin',(-29.25,-3.,-6.99999999999998));
#1854=CARTESIAN_POINT('Origin',(-29.25,-3.,-6.99999999999998));
#1855=CARTESIAN_POINT('Origin',(-29.25,-3.,-32.4999999999996));
#1856=CARTESIAN_POINT('',(-29.25,-5.,-32.4999999999996));
#1857=CARTESIAN_POINT('Origin',(-28.625,-3.,-6.99999999999998));
#1858=CARTESIAN_POINT('',(-27.7500000000001,-5.,-6.99999999999999));
#1859=CARTESIAN_POINT('Origin',(-27.7500000000001,-3.,-6.99999999999998));
#1860=CARTESIAN_POINT('',(-28.625,-5.,-6.99999999999998));
#1861=CARTESIAN_POINT('Origin',(-27.75,5.,-114.999999999999));
#1862=CARTESIAN_POINT('',(-27.75,-5.,-114.999999999999));
#1863=CARTESIAN_POINT('',(-27.75,0.,-172.499999999998));
#1864=CARTESIAN_POINT('Origin',(-29.5,-5.,-59.9999999999993));
#1865=CARTESIAN_POINT('Origin',(-21.9999999999978,5.,-229.999999999997));
#1866=CARTESIAN_POINT('',(-24.5499999999978,0.,-229.999999999997));
#1867=CARTESIAN_POINT('',(-24.5499999999978,5.,-229.999999999997));
#1868=CARTESIAN_POINT('Origin',(-21.9999999999978,0.,-229.999999999997));
#1869=CARTESIAN_POINT('Origin',(22.0000000000002,5.,-229.999999999997));
#1870=CARTESIAN_POINT('',(19.4500000000002,0.,-229.999999999997));
#1871=CARTESIAN_POINT('',(19.4500000000002,5.,-229.999999999997));
#1872=CARTESIAN_POINT('Origin',(22.0000000000002,0.,-229.999999999997));
#1873=CARTESIAN_POINT('Origin',(-29.9999999999978,4.25,-229.999999999997));
#1874=CARTESIAN_POINT('',(-27.8999999999978,3.5,-229.999999999997));
#1875=CARTESIAN_POINT('',(-27.1499999999978,4.25,-229.999999999997));
#1876=CARTESIAN_POINT('',(-32.0999999999978,3.5,-229.999999999997));
#1877=CARTESIAN_POINT('Origin',(-29.9999999999978,3.5,-229.999999999997));
#1878=CARTESIAN_POINT('Origin',(-29.9999999999978,3.5,-229.999999999997));
#1879=CARTESIAN_POINT('Origin',(-29.9999999999978,5.,-229.999999999997));
#1880=CARTESIAN_POINT('',(-32.0999999999978,0.,-229.999999999997));
#1881=CARTESIAN_POINT('',(-32.0999999999978,5.,-229.999999999997));
#1882=CARTESIAN_POINT('Origin',(-29.9999999999978,0.,-229.999999999997));
#1883=CARTESIAN_POINT('Origin',(30.0000000000002,4.25,-229.999999999997));
#1884=CARTESIAN_POINT('',(32.1000000000002,3.5,-229.999999999997));
#1885=CARTESIAN_POINT('',(32.8500000000002,4.25,-229.999999999997));
#1886=CARTESIAN_POINT('',(27.9000000000002,3.5,-229.999999999997));
#1887=CARTESIAN_POINT('Origin',(30.0000000000002,3.5,-229.999999999997));
#1888=CARTESIAN_POINT('Origin',(30.0000000000002,3.5,-229.999999999997));
#1889=CARTESIAN_POINT('Origin',(30.0000000000002,5.,-229.999999999997));
#1890=CARTESIAN_POINT('',(27.9000000000002,0.,-229.999999999997));
#1891=CARTESIAN_POINT('',(27.9000000000002,5.,-229.999999999997));
#1892=CARTESIAN_POINT('Origin',(30.0000000000002,0.,-229.999999999997));
#1893=CARTESIAN_POINT('Origin',(-21.9999999999978,5.,1.70649553124958E-14));
#1894=CARTESIAN_POINT('',(-24.5499999999978,0.,1.73772402462784E-14));
#1895=CARTESIAN_POINT('',(-24.5499999999978,5.,1.67526703787132E-14));
#1896=CARTESIAN_POINT('Origin',(-21.9999999999978,0.,1.70649553124958E-14));
#1897=CARTESIAN_POINT('Origin',(22.0000000000002,5.,1.93314306515322E-14));
#1898=CARTESIAN_POINT('',(19.4500000000002,0.,1.96437155853148E-14));
#1899=CARTESIAN_POINT('',(19.4500000000002,5.,1.90191457177496E-14));
#1900=CARTESIAN_POINT('Origin',(22.0000000000002,0.,1.93314306515322E-14));
#1901=CARTESIAN_POINT('Origin',(-29.9999999999978,4.25,1.06581410364015E-13));
#1902=CARTESIAN_POINT('',(-27.8999999999978,3.5,1.06838586191836E-13));
#1903=CARTESIAN_POINT('',(-27.1499999999978,4.25,1.06232386026258E-13));
#1904=CARTESIAN_POINT('',(-32.0999999999978,3.5,1.06324234536194E-13));
#1905=CARTESIAN_POINT('Origin',(-29.9999999999978,3.5,1.06581410364015E-13));
#1906=CARTESIAN_POINT('Origin',(-29.9999999999978,3.5,1.06581410364015E-13));
#1907=CARTESIAN_POINT('Origin',(-29.9999999999978,5.,1.06581410364015E-13));
#1908=CARTESIAN_POINT('',(-32.0999999999978,0.,1.06838586191836E-13));
#1909=CARTESIAN_POINT('',(-32.0999999999978,5.,1.06324234536194E-13));
#1910=CARTESIAN_POINT('Origin',(-29.9999999999978,0.,1.06581410364015E-13));
#1911=CARTESIAN_POINT('Origin',(30.0000000000002,4.25,1.06581410364015E-13));
#1912=CARTESIAN_POINT('',(32.1000000000002,3.5,1.06838586191836E-13));
#1913=CARTESIAN_POINT('',(32.8500000000002,4.25,1.06232386026258E-13));
#1914=CARTESIAN_POINT('',(27.9000000000002,3.5,1.06324234536194E-13));
#1915=CARTESIAN_POINT('Origin',(30.0000000000002,3.5,1.06581410364015E-13));
#1916=CARTESIAN_POINT('Origin',(30.0000000000002,3.5,1.06581410364015E-13));
#1917=CARTESIAN_POINT('Origin',(30.0000000000002,5.,1.06581410364015E-13));
#1918=CARTESIAN_POINT('',(27.9000000000002,0.,1.06838586191836E-13));
#1919=CARTESIAN_POINT('',(27.9000000000002,5.,1.06324234536194E-13));
#1920=CARTESIAN_POINT('Origin',(30.0000000000002,0.,1.06581410364015E-13));
#1921=CARTESIAN_POINT('Origin',(-35.,0.,-234.999999999997));
#1922=CARTESIAN_POINT('',(35.,0.,-234.999999999997));
#1923=CARTESIAN_POINT('',(35.,0.,-234.999999999997));
#1924=CARTESIAN_POINT('',(-35.,0.,-234.999999999997));
#1925=CARTESIAN_POINT('Origin',(35.,0.,-234.999999999997));
#1926=CARTESIAN_POINT('',(35.,0.,-234.999999999997));
#1927=CARTESIAN_POINT('Origin',(0.,0.,-229.999999999997));
#1928=UNCERTAINTY_MEASURE_WITH_UNIT(LENGTH_MEASURE(0.01),#1932,
'DISTANCE_ACCURACY_VALUE',
'Maximum model space distance between geometric entities at asserted c
onnectivities');
#1929=UNCERTAINTY_MEASURE_WITH_UNIT(LENGTH_MEASURE(0.01),#1932,
'DISTANCE_ACCURACY_VALUE',
'Maximum model space distance between geometric entities at asserted c
onnectivities');
#1930=(
GEOMETRIC_REPRESENTATION_CONTEXT(3)
GLOBAL_UNCERTAINTY_ASSIGNED_CONTEXT((#1928))
GLOBAL_UNIT_ASSIGNED_CONTEXT((#1932,#1934,#1935))
REPRESENTATION_CONTEXT('','3D')
);
#1931=(
GEOMETRIC_REPRESENTATION_CONTEXT(3)
GLOBAL_UNCERTAINTY_ASSIGNED_CONTEXT((#1929))
GLOBAL_UNIT_ASSIGNED_CONTEXT((#1932,#1934,#1935))
REPRESENTATION_CONTEXT('','3D')
);
#1932=(
LENGTH_UNIT()
NAMED_UNIT(*)
SI_UNIT(.MILLI.,.METRE.)
);
#1933=(
LENGTH_UNIT()
NAMED_UNIT(*)
SI_UNIT(.CENTI.,.METRE.)
);
#1934=(
NAMED_UNIT(*)
PLANE_ANGLE_UNIT()
SI_UNIT($,.RADIAN.)
);
#1935=(
NAMED_UNIT(*)
SI_UNIT($,.STERADIAN.)
SOLID_ANGLE_UNIT()
);
#1936=SHAPE_DEFINITION_REPRESENTATION(#1937,#1938);
#1937=PRODUCT_DEFINITION_SHAPE('',$,#1940);
#1938=SHAPE_REPRESENTATION('',(#1136),#1930);
#1939=PRODUCT_DEFINITION_CONTEXT('part definition',#1944,'design');
#1940=PRODUCT_DEFINITION(
'\X2\041F0440043E0441044204300432043A0430\X0\_\X2\043A04400435043F043B0435043D0438044F\X0\_
 \X2\04340438043D0430043C0438043A0430\X0\',
'\X2\041F0440043E0441044204300432043A0430\X0\_\X2\043A04400435043F043B0435043D0438044F\X0\_
 \X2\04340438043D0430043C0438043A0430\X0\',#1941,#1939);
#1941=PRODUCT_DEFINITION_FORMATION('',$,#1946);
#1942=PRODUCT_RELATED_PRODUCT_CATEGORY(
'\X2\041F0440043E0441044204300432043A0430\X0\_\X2\043A04400435043F043B0435043D0438044F\X0\_
 \X2\04340438043D0430043C0438043A0430\X0\',
'\X2\041F0440043E0441044204300432043A0430\X0\_\X2\043A04400435043F043B0435043D0438044F\X0\_
 \X2\04340438043D0430043C0438043A0430\X0\',(#1946));
#1943=APPLICATION_PROTOCOL_DEFINITION('international standard',
'automotive_design',2009,#1944);
#1944=APPLICATION_CONTEXT(
'Core Data for Automotive Mechanical Design Process');
#1945=PRODUCT_CONTEXT('part definition',#1944,'mechanical');
#1946=PRODUCT('\X2\041F0440043E0441044204300432043A0430\X0\_\X2\043A04400435043F043B0435043D0438044F\X0\_
 \X2\04340438043D0430043C0438043A0430\X0\',
'\X2\041F0440043E0441044204300432043A0430\X0\_\X2\043A04400435043F043B0435043D0438044F\X0\_
 \X2\04340438043D0430043C0438043A0430\X0\',$,(#1945));
#1947=PRESENTATION_STYLE_ASSIGNMENT((#1948));
#1948=SURFACE_STYLE_USAGE(.BOTH.,#1951);
#1949=SURFACE_STYLE_RENDERING_WITH_PROPERTIES($,#1955,(#1950));
#1950=SURFACE_STYLE_TRANSPARENT(0.);
#1951=SURFACE_SIDE_STYLE('',(#1952,#1949));
#1952=SURFACE_STYLE_FILL_AREA(#1953);
#1953=FILL_AREA_STYLE('',(#1954));
#1954=FILL_AREA_STYLE_COLOUR('',#1955);
#1955=COLOUR_RGB('',0.87843137254902,0.,0.788235294117647);
ENDSEC;
END-ISO-10303-21;
