ISO-10303-21;
HEADER;
/* Generated by software containing ST-Developer
 * from STEP Tools, Inc. (www.steptools.com) 
 */

FILE_DESCRIPTION(
/* description */ (''),
/* implementation_level */ '2;1');

FILE_NAME(
/* name */ '',
/* time_stamp */ '2025-09-25T20:22:55+03:00',
/* author */ ('I9232'),
/* organization */ (''),
/* preprocessor_version */ 'ST-DEVELOPER v19.2',
/* originating_system */ 'Autodesk Inventor 2023',
/* authorisation */ '');

FILE_SCHEMA (('AUTOMOTIVE_DESIGN { 1 0 10303 214 3 1 1 }'));
ENDSEC;

DATA;
#10=MECHANICAL_DESIGN_GEOMETRIC_PRESENTATION_REPRESENTATION('',(#13),#414);
#11=SHAPE_REPRESENTATION_RELATIONSHIP('SRR','None',#421,#12);
#12=ADVANCED_BREP_SHAPE_REPRESENTATION('',(#14),#413);
#13=STYLED_ITEM('',(#430),#14);
#14=MANIFOLD_SOLID_BREP('\X2\04220432043504400434043E0435\X0\ \X2\04420435043B043E\X0\1',
#225);
#15=FACE_BOUND('',#43,.T.);
#16=FACE_BOUND('',#44,.T.);
#17=FACE_BOUND('',#49,.T.);
#18=FACE_BOUND('',#50,.T.);
#19=PLANE('',#251);
#20=PLANE('',#261);
#21=PLANE('',#265);
#22=PLANE('',#275);
#23=FACE_OUTER_BOUND('',#35,.T.);
#24=FACE_OUTER_BOUND('',#36,.T.);
#25=FACE_OUTER_BOUND('',#37,.T.);
#26=FACE_OUTER_BOUND('',#38,.T.);
#27=FACE_OUTER_BOUND('',#39,.T.);
#28=FACE_OUTER_BOUND('',#40,.T.);
#29=FACE_OUTER_BOUND('',#41,.T.);
#30=FACE_OUTER_BOUND('',#42,.T.);
#31=FACE_OUTER_BOUND('',#45,.T.);
#32=FACE_OUTER_BOUND('',#46,.T.);
#33=FACE_OUTER_BOUND('',#47,.T.);
#34=FACE_OUTER_BOUND('',#48,.T.);
#35=EDGE_LOOP('',(#145,#146,#147,#148));
#36=EDGE_LOOP('',(#149,#150,#151,#152));
#37=EDGE_LOOP('',(#153,#154,#155,#156));
#38=EDGE_LOOP('',(#157,#158,#159,#160));
#39=EDGE_LOOP('',(#161,#162,#163,#164));
#40=EDGE_LOOP('',(#165,#166,#167,#168));
#41=EDGE_LOOP('',(#169,#170,#171,#172));
#42=EDGE_LOOP('',(#173,#174,#175,#176,#177,#178,#179,#180));
#43=EDGE_LOOP('',(#181));
#44=EDGE_LOOP('',(#182));
#45=EDGE_LOOP('',(#183,#184,#185,#186));
#46=EDGE_LOOP('',(#187,#188,#189,#190));
#47=EDGE_LOOP('',(#191,#192,#193,#194));
#48=EDGE_LOOP('',(#195,#196,#197,#198,#199,#200,#201,#202));
#49=EDGE_LOOP('',(#203));
#50=EDGE_LOOP('',(#204));
#51=LINE('',#354,#65);
#52=LINE('',#357,#66);
#53=LINE('',#360,#67);
#54=LINE('',#362,#68);
#55=LINE('',#363,#69);
#56=LINE('',#369,#70);
#57=LINE('',#372,#71);
#58=LINE('',#381,#72);
#59=LINE('',#384,#73);
#60=LINE('',#386,#74);
#61=LINE('',#387,#75);
#62=LINE('',#393,#76);
#63=LINE('',#403,#77);
#64=LINE('',#407,#78);
#65=VECTOR('',#282,10.);
#66=VECTOR('',#285,10.);
#67=VECTOR('',#288,10.);
#68=VECTOR('',#289,10.);
#69=VECTOR('',#290,10.);
#70=VECTOR('',#295,10.);
#71=VECTOR('',#298,10.);
#72=VECTOR('',#309,10.);
#73=VECTOR('',#312,10.);
#74=VECTOR('',#315,10.);
#75=VECTOR('',#316,10.);
#76=VECTOR('',#323,10.);
#77=VECTOR('',#336,1.45);
#78=VECTOR('',#341,1.45);
#79=CIRCLE('',#249,10.);
#80=CIRCLE('',#250,10.);
#81=CIRCLE('',#253,10.);
#82=CIRCLE('',#254,10.);
#83=CIRCLE('',#256,6.);
#84=CIRCLE('',#257,6.);
#85=CIRCLE('',#259,10.);
#86=CIRCLE('',#260,10.);
#87=CIRCLE('',#263,10.);
#88=CIRCLE('',#264,10.);
#89=CIRCLE('',#266,6.);
#90=CIRCLE('',#267,1.45);
#91=CIRCLE('',#268,1.45);
#92=CIRCLE('',#270,1.45);
#93=CIRCLE('',#272,1.45);
#94=CIRCLE('',#274,6.);
#95=VERTEX_POINT('',#350);
#96=VERTEX_POINT('',#351);
#97=VERTEX_POINT('',#353);
#98=VERTEX_POINT('',#355);
#99=VERTEX_POINT('',#359);
#100=VERTEX_POINT('',#361);
#101=VERTEX_POINT('',#365);
#102=VERTEX_POINT('',#366);
#103=VERTEX_POINT('',#368);
#104=VERTEX_POINT('',#370);
#105=VERTEX_POINT('',#377);
#106=VERTEX_POINT('',#378);
#107=VERTEX_POINT('',#380);
#108=VERTEX_POINT('',#382);
#109=VERTEX_POINT('',#389);
#110=VERTEX_POINT('',#391);
#111=VERTEX_POINT('',#396);
#112=VERTEX_POINT('',#398);
#113=VERTEX_POINT('',#401);
#114=VERTEX_POINT('',#405);
#115=EDGE_CURVE('',#95,#96,#79,.T.);
#116=EDGE_CURVE('',#96,#97,#51,.T.);
#117=EDGE_CURVE('',#97,#98,#80,.T.);
#118=EDGE_CURVE('',#98,#95,#52,.T.);
#119=EDGE_CURVE('',#99,#96,#53,.T.);
#120=EDGE_CURVE('',#100,#99,#54,.T.);
#121=EDGE_CURVE('',#97,#100,#55,.T.);
#122=EDGE_CURVE('',#101,#102,#81,.T.);
#123=EDGE_CURVE('',#102,#103,#56,.T.);
#124=EDGE_CURVE('',#103,#104,#82,.T.);
#125=EDGE_CURVE('',#104,#101,#57,.T.);
#126=EDGE_CURVE('',#103,#98,#83,.T.);
#127=EDGE_CURVE('',#95,#102,#84,.T.);
#128=EDGE_CURVE('',#105,#106,#85,.T.);
#129=EDGE_CURVE('',#106,#107,#58,.T.);
#130=EDGE_CURVE('',#107,#108,#86,.T.);
#131=EDGE_CURVE('',#108,#105,#59,.T.);
#132=EDGE_CURVE('',#107,#104,#60,.T.);
#133=EDGE_CURVE('',#101,#106,#61,.T.);
#134=EDGE_CURVE('',#109,#100,#87,.T.);
#135=EDGE_CURVE('',#99,#110,#88,.T.);
#136=EDGE_CURVE('',#110,#109,#62,.T.);
#137=EDGE_CURVE('',#105,#110,#89,.T.);
#138=EDGE_CURVE('',#111,#111,#90,.T.);
#139=EDGE_CURVE('',#112,#112,#91,.T.);
#140=EDGE_CURVE('',#113,#113,#92,.T.);
#141=EDGE_CURVE('',#113,#112,#63,.T.);
#142=EDGE_CURVE('',#114,#114,#93,.T.);
#143=EDGE_CURVE('',#114,#111,#64,.T.);
#144=EDGE_CURVE('',#109,#108,#94,.T.);
#145=ORIENTED_EDGE('',*,*,#115,.T.);
#146=ORIENTED_EDGE('',*,*,#116,.T.);
#147=ORIENTED_EDGE('',*,*,#117,.T.);
#148=ORIENTED_EDGE('',*,*,#118,.T.);
#149=ORIENTED_EDGE('',*,*,#116,.F.);
#150=ORIENTED_EDGE('',*,*,#119,.F.);
#151=ORIENTED_EDGE('',*,*,#120,.F.);
#152=ORIENTED_EDGE('',*,*,#121,.F.);
#153=ORIENTED_EDGE('',*,*,#122,.T.);
#154=ORIENTED_EDGE('',*,*,#123,.T.);
#155=ORIENTED_EDGE('',*,*,#124,.T.);
#156=ORIENTED_EDGE('',*,*,#125,.T.);
#157=ORIENTED_EDGE('',*,*,#118,.F.);
#158=ORIENTED_EDGE('',*,*,#126,.F.);
#159=ORIENTED_EDGE('',*,*,#123,.F.);
#160=ORIENTED_EDGE('',*,*,#127,.F.);
#161=ORIENTED_EDGE('',*,*,#128,.T.);
#162=ORIENTED_EDGE('',*,*,#129,.T.);
#163=ORIENTED_EDGE('',*,*,#130,.T.);
#164=ORIENTED_EDGE('',*,*,#131,.T.);
#165=ORIENTED_EDGE('',*,*,#125,.F.);
#166=ORIENTED_EDGE('',*,*,#132,.F.);
#167=ORIENTED_EDGE('',*,*,#129,.F.);
#168=ORIENTED_EDGE('',*,*,#133,.F.);
#169=ORIENTED_EDGE('',*,*,#134,.T.);
#170=ORIENTED_EDGE('',*,*,#120,.T.);
#171=ORIENTED_EDGE('',*,*,#135,.T.);
#172=ORIENTED_EDGE('',*,*,#136,.T.);
#173=ORIENTED_EDGE('',*,*,#137,.T.);
#174=ORIENTED_EDGE('',*,*,#135,.F.);
#175=ORIENTED_EDGE('',*,*,#119,.T.);
#176=ORIENTED_EDGE('',*,*,#115,.F.);
#177=ORIENTED_EDGE('',*,*,#127,.T.);
#178=ORIENTED_EDGE('',*,*,#122,.F.);
#179=ORIENTED_EDGE('',*,*,#133,.T.);
#180=ORIENTED_EDGE('',*,*,#128,.F.);
#181=ORIENTED_EDGE('',*,*,#138,.T.);
#182=ORIENTED_EDGE('',*,*,#139,.T.);
#183=ORIENTED_EDGE('',*,*,#140,.F.);
#184=ORIENTED_EDGE('',*,*,#141,.T.);
#185=ORIENTED_EDGE('',*,*,#139,.F.);
#186=ORIENTED_EDGE('',*,*,#141,.F.);
#187=ORIENTED_EDGE('',*,*,#142,.F.);
#188=ORIENTED_EDGE('',*,*,#143,.T.);
#189=ORIENTED_EDGE('',*,*,#138,.F.);
#190=ORIENTED_EDGE('',*,*,#143,.F.);
#191=ORIENTED_EDGE('',*,*,#131,.F.);
#192=ORIENTED_EDGE('',*,*,#144,.F.);
#193=ORIENTED_EDGE('',*,*,#136,.F.);
#194=ORIENTED_EDGE('',*,*,#137,.F.);
#195=ORIENTED_EDGE('',*,*,#144,.T.);
#196=ORIENTED_EDGE('',*,*,#130,.F.);
#197=ORIENTED_EDGE('',*,*,#132,.T.);
#198=ORIENTED_EDGE('',*,*,#124,.F.);
#199=ORIENTED_EDGE('',*,*,#126,.T.);
#200=ORIENTED_EDGE('',*,*,#117,.F.);
#201=ORIENTED_EDGE('',*,*,#121,.T.);
#202=ORIENTED_EDGE('',*,*,#134,.F.);
#203=ORIENTED_EDGE('',*,*,#142,.T.);
#204=ORIENTED_EDGE('',*,*,#140,.T.);
#205=CYLINDRICAL_SURFACE('',#248,10.);
#206=CYLINDRICAL_SURFACE('',#252,10.);
#207=CYLINDRICAL_SURFACE('',#255,6.);
#208=CYLINDRICAL_SURFACE('',#258,10.);
#209=CYLINDRICAL_SURFACE('',#262,10.);
#210=CYLINDRICAL_SURFACE('',#269,1.45);
#211=CYLINDRICAL_SURFACE('',#271,1.45);
#212=CYLINDRICAL_SURFACE('',#273,6.);
#213=ADVANCED_FACE('',(#23),#205,.F.);
#214=ADVANCED_FACE('',(#24),#19,.T.);
#215=ADVANCED_FACE('',(#25),#206,.F.);
#216=ADVANCED_FACE('',(#26),#207,.T.);
#217=ADVANCED_FACE('',(#27),#208,.F.);
#218=ADVANCED_FACE('',(#28),#20,.T.);
#219=ADVANCED_FACE('',(#29),#209,.F.);
#220=ADVANCED_FACE('',(#30,#15,#16),#21,.F.);
#221=ADVANCED_FACE('',(#31),#210,.F.);
#222=ADVANCED_FACE('',(#32),#211,.F.);
#223=ADVANCED_FACE('',(#33),#212,.T.);
#224=ADVANCED_FACE('',(#34,#17,#18),#22,.T.);
#225=CLOSED_SHELL('',(#213,#214,#215,#216,#217,#218,#219,#220,#221,#222,
#223,#224));
#226=DERIVED_UNIT_ELEMENT(#229,1.);
#227=DERIVED_UNIT_ELEMENT(#416,-3.);
#228=DIMENSIONAL_EXPONENTS(0.,1.,0.,0.,0.,0.,0.);
#229=(
CONVERSION_BASED_UNIT('gram',#231)
MASS_UNIT()
NAMED_UNIT(#228)
);
#230=(
MASS_UNIT()
NAMED_UNIT(*)
SI_UNIT(.KILO.,.GRAM.)
);
#231=MASS_MEASURE_WITH_UNIT(MASS_MEASURE(0.001),#230);
#232=DERIVED_UNIT((#226,#227));
#233=MEASURE_REPRESENTATION_ITEM('density measure',
POSITIVE_RATIO_MEASURE(19.3),#232);
#234=PROPERTY_DEFINITION_REPRESENTATION(#239,#236);
#235=PROPERTY_DEFINITION_REPRESENTATION(#240,#237);
#236=REPRESENTATION('material name',(#238),#413);
#237=REPRESENTATION('density',(#233),#413);
#238=DESCRIPTIVE_REPRESENTATION_ITEM('\X2\0417043E043B043E0442043E\X0\',
'\X2\0417043E043B043E0442043E\X0\');
#239=PROPERTY_DEFINITION('material property','material name',#423);
#240=PROPERTY_DEFINITION('material property','density of part',#423);
#241=DATE_TIME_ROLE('creation_date');
#242=APPLIED_DATE_AND_TIME_ASSIGNMENT(#243,#241,(#423));
#243=DATE_AND_TIME(#244,#245);
#244=CALENDAR_DATE(2024,20,2);
#245=LOCAL_TIME(0,0,0.,#246);
#246=COORDINATED_UNIVERSAL_TIME_OFFSET(0,0,.BEHIND.);
#247=AXIS2_PLACEMENT_3D('',#348,#276,#277);
#248=AXIS2_PLACEMENT_3D('',#349,#278,#279);
#249=AXIS2_PLACEMENT_3D('',#352,#280,#281);
#250=AXIS2_PLACEMENT_3D('',#356,#283,#284);
#251=AXIS2_PLACEMENT_3D('',#358,#286,#287);
#252=AXIS2_PLACEMENT_3D('',#364,#291,#292);
#253=AXIS2_PLACEMENT_3D('',#367,#293,#294);
#254=AXIS2_PLACEMENT_3D('',#371,#296,#297);
#255=AXIS2_PLACEMENT_3D('',#373,#299,#300);
#256=AXIS2_PLACEMENT_3D('',#374,#301,#302);
#257=AXIS2_PLACEMENT_3D('',#375,#303,#304);
#258=AXIS2_PLACEMENT_3D('',#376,#305,#306);
#259=AXIS2_PLACEMENT_3D('',#379,#307,#308);
#260=AXIS2_PLACEMENT_3D('',#383,#310,#311);
#261=AXIS2_PLACEMENT_3D('',#385,#313,#314);
#262=AXIS2_PLACEMENT_3D('',#388,#317,#318);
#263=AXIS2_PLACEMENT_3D('',#390,#319,#320);
#264=AXIS2_PLACEMENT_3D('',#392,#321,#322);
#265=AXIS2_PLACEMENT_3D('',#394,#324,#325);
#266=AXIS2_PLACEMENT_3D('',#395,#326,#327);
#267=AXIS2_PLACEMENT_3D('',#397,#328,#329);
#268=AXIS2_PLACEMENT_3D('',#399,#330,#331);
#269=AXIS2_PLACEMENT_3D('',#400,#332,#333);
#270=AXIS2_PLACEMENT_3D('',#402,#334,#335);
#271=AXIS2_PLACEMENT_3D('',#404,#337,#338);
#272=AXIS2_PLACEMENT_3D('',#406,#339,#340);
#273=AXIS2_PLACEMENT_3D('',#408,#342,#343);
#274=AXIS2_PLACEMENT_3D('',#409,#344,#345);
#275=AXIS2_PLACEMENT_3D('',#410,#346,#347);
#276=DIRECTION('axis',(0.,0.,1.));
#277=DIRECTION('refdir',(1.,0.,0.));
#278=DIRECTION('center_axis',(0.,1.,0.));
#279=DIRECTION('ref_axis',(0.306186217847896,0.,0.951971638232989));
#280=DIRECTION('center_axis',(0.,-1.,0.));
#281=DIRECTION('ref_axis',(0.306186217847896,0.,0.951971638232989));
#282=DIRECTION('',(0.,1.,0.));
#283=DIRECTION('center_axis',(0.,1.,0.));
#284=DIRECTION('ref_axis',(0.306186217847896,0.,0.951971638232989));
#285=DIRECTION('',(0.,-1.,0.));
#286=DIRECTION('center_axis',(-4.82674607230689E-16,0.,-1.));
#287=DIRECTION('ref_axis',(-1.,0.,4.82674607230689E-16));
#288=DIRECTION('',(1.,0.,-4.82674607230689E-16));
#289=DIRECTION('',(0.,-1.,0.));
#290=DIRECTION('',(-1.,0.,4.82674607230689E-16));
#291=DIRECTION('center_axis',(0.,1.,0.));
#292=DIRECTION('ref_axis',(0.306186217847898,0.,-0.951971638232988));
#293=DIRECTION('center_axis',(0.,-1.,0.));
#294=DIRECTION('ref_axis',(0.306186217847898,0.,-0.951971638232988));
#295=DIRECTION('',(0.,1.,0.));
#296=DIRECTION('center_axis',(0.,1.,0.));
#297=DIRECTION('ref_axis',(0.306186217847898,0.,-0.951971638232988));
#298=DIRECTION('',(0.,-1.,0.));
#299=DIRECTION('center_axis',(0.,1.,0.));
#300=DIRECTION('ref_axis',(1.,0.,2.4980018054066E-15));
#301=DIRECTION('center_axis',(0.,1.,0.));
#302=DIRECTION('ref_axis',(-0.866025403784438,0.,0.500000000000001));
#303=DIRECTION('center_axis',(0.,-1.,0.));
#304=DIRECTION('ref_axis',(-0.866025403784438,0.,0.500000000000001));
#305=DIRECTION('center_axis',(0.,1.,0.));
#306=DIRECTION('ref_axis',(-0.306186217847897,0.,-0.951971638232989));
#307=DIRECTION('center_axis',(0.,-1.,0.));
#308=DIRECTION('ref_axis',(-0.306186217847897,0.,-0.951971638232989));
#309=DIRECTION('',(0.,1.,0.));
#310=DIRECTION('center_axis',(0.,1.,0.));
#311=DIRECTION('ref_axis',(-0.306186217847897,0.,-0.951971638232989));
#312=DIRECTION('',(0.,-1.,0.));
#313=DIRECTION('center_axis',(2.41337303615345E-16,0.,1.));
#314=DIRECTION('ref_axis',(1.,0.,-2.41337303615345E-16));
#315=DIRECTION('',(1.,0.,-2.41337303615345E-16));
#316=DIRECTION('',(-1.,0.,2.41337303615345E-16));
#317=DIRECTION('center_axis',(0.,-1.,0.));
#318=DIRECTION('ref_axis',(-0.306186217847898,0.,0.951971638232988));
#319=DIRECTION('center_axis',(0.,1.,0.));
#320=DIRECTION('ref_axis',(-0.306186217847898,0.,0.951971638232988));
#321=DIRECTION('center_axis',(0.,-1.,0.));
#322=DIRECTION('ref_axis',(-0.306186217847898,0.,0.951971638232988));
#323=DIRECTION('',(0.,1.,0.));
#324=DIRECTION('center_axis',(0.,1.,0.));
#325=DIRECTION('ref_axis',(0.,0.,1.));
#326=DIRECTION('center_axis',(0.,-1.,0.));
#327=DIRECTION('ref_axis',(0.866025403784438,0.,-0.500000000000001));
#328=DIRECTION('center_axis',(0.,1.,0.));
#329=DIRECTION('ref_axis',(1.,0.,0.));
#330=DIRECTION('center_axis',(0.,1.,0.));
#331=DIRECTION('ref_axis',(1.,0.,0.));
#332=DIRECTION('center_axis',(0.,1.,0.));
#333=DIRECTION('ref_axis',(1.,0.,0.));
#334=DIRECTION('center_axis',(0.,-1.,0.));
#335=DIRECTION('ref_axis',(1.,0.,0.));
#336=DIRECTION('',(0.,-1.,0.));
#337=DIRECTION('center_axis',(0.,1.,0.));
#338=DIRECTION('ref_axis',(1.,0.,0.));
#339=DIRECTION('center_axis',(0.,-1.,0.));
#340=DIRECTION('ref_axis',(1.,0.,0.));
#341=DIRECTION('',(0.,-1.,0.));
#342=DIRECTION('center_axis',(0.,1.,0.));
#343=DIRECTION('ref_axis',(-1.,0.,-6.47630097698008E-16));
#344=DIRECTION('center_axis',(0.,1.,0.));
#345=DIRECTION('ref_axis',(0.866025403784438,0.,-0.500000000000001));
#346=DIRECTION('center_axis',(0.,1.,0.));
#347=DIRECTION('ref_axis',(0.,0.,1.));
#348=CARTESIAN_POINT('',(0.,0.,0.));
#349=CARTESIAN_POINT('Origin',(55.6726209469112,0.,-13.));
#350=CARTESIAN_POINT('',(61.5022328550917,-1.5,-4.87500000000001));
#351=CARTESIAN_POINT('',(55.6726209469112,-1.5,-3.00000000000003));
#352=CARTESIAN_POINT('Origin',(55.6726209469112,-1.5,-13.));
#353=CARTESIAN_POINT('',(55.6726209469112,1.5,-3.00000000000003));
#354=CARTESIAN_POINT('',(55.6726209469112,0.,-3.00000000000003));
#355=CARTESIAN_POINT('',(61.5022328550917,1.5,-4.87500000000001));
#356=CARTESIAN_POINT('Origin',(55.6726209469112,1.5,-13.));
#357=CARTESIAN_POINT('',(61.5022328550917,0.,-4.87500000000001));
#358=CARTESIAN_POINT('Origin',(59.8038475772934,0.,-3.00000000000003));
#359=CARTESIAN_POINT('',(-55.6726209469112,-1.5,-2.99999999999997));
#360=CARTESIAN_POINT('',(59.8038475772934,-1.5,-3.00000000000003));
#361=CARTESIAN_POINT('',(-55.6726209469112,1.5,-2.99999999999997));
#362=CARTESIAN_POINT('',(-55.6726209469112,0.,-2.99999999999997));
#363=CARTESIAN_POINT('',(59.8038475772934,1.5,-3.00000000000003));
#364=CARTESIAN_POINT('Origin',(55.6726209469112,0.,13.));
#365=CARTESIAN_POINT('',(55.6726209469112,-1.5,2.99999999999999));
#366=CARTESIAN_POINT('',(61.5022328550917,-1.5,4.875));
#367=CARTESIAN_POINT('Origin',(55.6726209469112,-1.5,13.));
#368=CARTESIAN_POINT('',(61.5022328550917,1.5,4.875));
#369=CARTESIAN_POINT('',(61.5022328550917,0.,4.875));
#370=CARTESIAN_POINT('',(55.6726209469112,1.5,2.99999999999999));
#371=CARTESIAN_POINT('Origin',(55.6726209469112,1.5,13.));
#372=CARTESIAN_POINT('',(55.6726209469112,0.,2.99999999999999));
#373=CARTESIAN_POINT('Origin',(65.,0.,8.99425443095608E-15));
#374=CARTESIAN_POINT('Origin',(65.,1.5,8.99425443095608E-15));
#375=CARTESIAN_POINT('Origin',(65.,-1.5,8.99425443095608E-15));
#376=CARTESIAN_POINT('Origin',(-55.6726209469112,0.,13.));
#377=CARTESIAN_POINT('',(-61.5022328550917,-1.5,4.87500000000001));
#378=CARTESIAN_POINT('',(-55.6726209469112,-1.5,3.00000000000002));
#379=CARTESIAN_POINT('Origin',(-55.6726209469112,-1.5,13.));
#380=CARTESIAN_POINT('',(-55.6726209469112,1.5,3.00000000000002));
#381=CARTESIAN_POINT('',(-55.6726209469112,0.,3.00000000000002));
#382=CARTESIAN_POINT('',(-61.5022328550917,1.5,4.87500000000001));
#383=CARTESIAN_POINT('Origin',(-55.6726209469112,1.5,13.));
#384=CARTESIAN_POINT('',(-61.5022328550917,0.,4.87500000000001));
#385=CARTESIAN_POINT('Origin',(-59.8038475772934,0.,3.00000000000002));
#386=CARTESIAN_POINT('',(-59.8038475772934,1.5,3.00000000000002));
#387=CARTESIAN_POINT('',(-59.8038475772934,-1.5,3.00000000000002));
#388=CARTESIAN_POINT('Origin',(-55.6726209469112,0.,-13.));
#389=CARTESIAN_POINT('',(-61.5022328550917,1.5,-4.87499999999998));
#390=CARTESIAN_POINT('Origin',(-55.6726209469112,1.5,-13.));
#391=CARTESIAN_POINT('',(-61.5022328550917,-1.5,-4.87499999999998));
#392=CARTESIAN_POINT('Origin',(-55.6726209469112,-1.5,-13.));
#393=CARTESIAN_POINT('',(-61.5022328550917,0.,-4.87499999999998));
#394=CARTESIAN_POINT('Origin',(0.,-1.5,8.88178419700125E-15));
#395=CARTESIAN_POINT('Origin',(-65.,-1.5,8.99425443095608E-15));
#396=CARTESIAN_POINT('',(-66.45,-1.5,9.43689570931383E-15));
#397=CARTESIAN_POINT('Origin',(-65.,-1.5,8.99425443095608E-15));
#398=CARTESIAN_POINT('',(63.55,-1.5,9.43689570931383E-15));
#399=CARTESIAN_POINT('Origin',(65.,-1.5,8.99425443095608E-15));
#400=CARTESIAN_POINT('Origin',(65.,0.,8.99425443095608E-15));
#401=CARTESIAN_POINT('',(63.55,1.5,9.43689570931383E-15));
#402=CARTESIAN_POINT('Origin',(65.,1.5,8.99425443095608E-15));
#403=CARTESIAN_POINT('',(63.55,0.,9.17182821683245E-15));
#404=CARTESIAN_POINT('Origin',(-65.,0.,8.99425443095608E-15));
#405=CARTESIAN_POINT('',(-66.45,1.5,9.43689570931383E-15));
#406=CARTESIAN_POINT('Origin',(-65.,1.5,8.99425443095608E-15));
#407=CARTESIAN_POINT('',(-66.45,0.,9.17182821683245E-15));
#408=CARTESIAN_POINT('Origin',(-65.,0.,8.99425443095608E-15));
#409=CARTESIAN_POINT('Origin',(-65.,1.5,8.99425443095608E-15));
#410=CARTESIAN_POINT('Origin',(0.,1.5,8.88178419700125E-15));
#411=UNCERTAINTY_MEASURE_WITH_UNIT(LENGTH_MEASURE(0.01),#415,
'DISTANCE_ACCURACY_VALUE',
'Maximum model space distance between geometric entities at asserted c
onnectivities');
#412=UNCERTAINTY_MEASURE_WITH_UNIT(LENGTH_MEASURE(0.01),#415,
'DISTANCE_ACCURACY_VALUE',
'Maximum model space distance between geometric entities at asserted c
onnectivities');
#413=(
GEOMETRIC_REPRESENTATION_CONTEXT(3)
GLOBAL_UNCERTAINTY_ASSIGNED_CONTEXT((#411))
GLOBAL_UNIT_ASSIGNED_CONTEXT((#415,#417,#418))
REPRESENTATION_CONTEXT('','3D')
);
#414=(
GEOMETRIC_REPRESENTATION_CONTEXT(3)
GLOBAL_UNCERTAINTY_ASSIGNED_CONTEXT((#412))
GLOBAL_UNIT_ASSIGNED_CONTEXT((#415,#417,#418))
REPRESENTATION_CONTEXT('','3D')
);
#415=(
LENGTH_UNIT()
NAMED_UNIT(*)
SI_UNIT(.MILLI.,.METRE.)
);
#416=(
LENGTH_UNIT()
NAMED_UNIT(*)
SI_UNIT(.CENTI.,.METRE.)
);
#417=(
NAMED_UNIT(*)
PLANE_ANGLE_UNIT()
SI_UNIT($,.RADIAN.)
);
#418=(
NAMED_UNIT(*)
SI_UNIT($,.STERADIAN.)
SOLID_ANGLE_UNIT()
);
#419=SHAPE_DEFINITION_REPRESENTATION(#420,#421);
#420=PRODUCT_DEFINITION_SHAPE('',$,#423);
#421=SHAPE_REPRESENTATION('',(#247),#413);
#422=PRODUCT_DEFINITION_CONTEXT('part definition',#427,'design');
#423=PRODUCT_DEFINITION('\X2\0420044B044704300433\X0\ \X2\0433043E043B043E0432044B\X0\',
'\X2\0420044B044704300433\X0\ \X2\0433043E043B043E0432044B\X0\',#424,#422);
#424=PRODUCT_DEFINITION_FORMATION('',$,#429);
#425=PRODUCT_RELATED_PRODUCT_CATEGORY('\X2\0420044B044704300433\X0\ \X2\0433043E043B043E0432044B\X0\',
'\X2\0420044B044704300433\X0\ \X2\0433043E043B043E0432044B\X0\',(#429));
#426=APPLICATION_PROTOCOL_DEFINITION('international standard',
'automotive_design',2009,#427);
#427=APPLICATION_CONTEXT(
'Core Data for Automotive Mechanical Design Process');
#428=PRODUCT_CONTEXT('part definition',#427,'mechanical');
#429=PRODUCT('\X2\0420044B044704300433\X0\ \X2\0433043E043B043E0432044B\X0\',
'\X2\0420044B044704300433\X0\ \X2\0433043E043B043E0432044B\X0\',$,(#428));
#430=PRESENTATION_STYLE_ASSIGNMENT((#431));
#431=SURFACE_STYLE_USAGE(.BOTH.,#434);
#432=SURFACE_STYLE_RENDERING_WITH_PROPERTIES($,#438,(#433));
#433=SURFACE_STYLE_TRANSPARENT(0.);
#434=SURFACE_SIDE_STYLE('',(#435,#432));
#435=SURFACE_STYLE_FILL_AREA(#436);
#436=FILL_AREA_STYLE('',(#437));
#437=FILL_AREA_STYLE_COLOUR('',#438);
#438=COLOUR_RGB('',1.,0.56078431372549,0.184313725490196);
ENDSEC;
END-ISO-10303-21;
