ISO-10303-21;
HEADER;
/* Generated by software containing ST-Developer
 * from STEP Tools, Inc. (www.steptools.com) 
 */

FILE_DESCRIPTION(
/* description */ (''),
/* implementation_level */ '2;1');

FILE_NAME(
/* name */ '',
/* time_stamp */ '2025-09-25T20:22:26+03:00',
/* author */ ('I9232'),
/* organization */ (''),
/* preprocessor_version */ 'ST-DEVELOPER v19.2',
/* originating_system */ 'Autodesk Inventor 2023',
/* authorisation */ '');

FILE_SCHEMA (('AUTOMOTIVE_DESIGN { 1 0 10303 214 3 1 1 }'));
ENDSEC;

DATA;
#10=MECHANICAL_DESIGN_GEOMETRIC_PRESENTATION_REPRESENTATION('',(#13),#414);
#11=SHAPE_REPRESENTATION_RELATIONSHIP('SRR','None',#421,#12);
#12=ADVANCED_BREP_SHAPE_REPRESENTATION('',(#14),#413);
#13=STYLED_ITEM('',(#430),#14);
#14=MANIFOLD_SOLID_BREP('\X2\04220432043504400434043E0435\X0\ \X2\04420435043B043E\X0\1',
#225);
#15=FACE_BOUND('',#43,.T.);
#16=FACE_BOUND('',#44,.T.);
#17=FACE_BOUND('',#49,.T.);
#18=FACE_BOUND('',#50,.T.);
#19=PLANE('',#266);
#20=PLANE('',#267);
#21=PLANE('',#274);
#22=PLANE('',#275);
#23=FACE_OUTER_BOUND('',#35,.T.);
#24=FACE_OUTER_BOUND('',#36,.T.);
#25=FACE_OUTER_BOUND('',#37,.T.);
#26=FACE_OUTER_BOUND('',#38,.T.);
#27=FACE_OUTER_BOUND('',#39,.T.);
#28=FACE_OUTER_BOUND('',#40,.T.);
#29=FACE_OUTER_BOUND('',#41,.T.);
#30=FACE_OUTER_BOUND('',#42,.T.);
#31=FACE_OUTER_BOUND('',#45,.T.);
#32=FACE_OUTER_BOUND('',#46,.T.);
#33=FACE_OUTER_BOUND('',#47,.T.);
#34=FACE_OUTER_BOUND('',#48,.T.);
#35=EDGE_LOOP('',(#145,#146,#147,#148));
#36=EDGE_LOOP('',(#149,#150,#151,#152));
#37=EDGE_LOOP('',(#153,#154,#155,#156));
#38=EDGE_LOOP('',(#157,#158,#159,#160));
#39=EDGE_LOOP('',(#161,#162,#163,#164));
#40=EDGE_LOOP('',(#165,#166,#167,#168));
#41=EDGE_LOOP('',(#169,#170,#171,#172));
#42=EDGE_LOOP('',(#173,#174,#175,#176,#177,#178,#179,#180));
#43=EDGE_LOOP('',(#181));
#44=EDGE_LOOP('',(#182));
#45=EDGE_LOOP('',(#183,#184,#185,#186));
#46=EDGE_LOOP('',(#187,#188,#189,#190));
#47=EDGE_LOOP('',(#191,#192,#193,#194));
#48=EDGE_LOOP('',(#195,#196,#197,#198,#199,#200,#201,#202));
#49=EDGE_LOOP('',(#203));
#50=EDGE_LOOP('',(#204));
#51=LINE('',#354,#65);
#52=LINE('',#357,#66);
#53=LINE('',#362,#67);
#54=LINE('',#369,#68);
#55=LINE('',#375,#69);
#56=LINE('',#378,#70);
#57=LINE('',#383,#71);
#58=LINE('',#389,#72);
#59=LINE('',#392,#73);
#60=LINE('',#393,#74);
#61=LINE('',#395,#75);
#62=LINE('',#403,#76);
#63=LINE('',#407,#77);
#64=LINE('',#409,#78);
#65=VECTOR('',#282,10.);
#66=VECTOR('',#285,10.);
#67=VECTOR('',#290,10.);
#68=VECTOR('',#299,10.);
#69=VECTOR('',#304,10.);
#70=VECTOR('',#307,10.);
#71=VECTOR('',#312,10.);
#72=VECTOR('',#319,10.);
#73=VECTOR('',#324,10.);
#74=VECTOR('',#325,10.);
#75=VECTOR('',#328,10.);
#76=VECTOR('',#337,1.9);
#77=VECTOR('',#342,1.9);
#78=VECTOR('',#345,10.);
#79=CIRCLE('',#249,10.);
#80=CIRCLE('',#250,10.);
#81=CIRCLE('',#252,6.);
#82=CIRCLE('',#253,6.);
#83=CIRCLE('',#255,10.);
#84=CIRCLE('',#256,10.);
#85=CIRCLE('',#258,10.);
#86=CIRCLE('',#259,10.);
#87=CIRCLE('',#261,6.);
#88=CIRCLE('',#262,6.);
#89=CIRCLE('',#264,10.);
#90=CIRCLE('',#265,10.);
#91=CIRCLE('',#268,1.9);
#92=CIRCLE('',#269,1.9);
#93=CIRCLE('',#271,1.9);
#94=CIRCLE('',#273,1.9);
#95=VERTEX_POINT('',#350);
#96=VERTEX_POINT('',#351);
#97=VERTEX_POINT('',#353);
#98=VERTEX_POINT('',#355);
#99=VERTEX_POINT('',#359);
#100=VERTEX_POINT('',#361);
#101=VERTEX_POINT('',#365);
#102=VERTEX_POINT('',#367);
#103=VERTEX_POINT('',#371);
#104=VERTEX_POINT('',#372);
#105=VERTEX_POINT('',#374);
#106=VERTEX_POINT('',#376);
#107=VERTEX_POINT('',#380);
#108=VERTEX_POINT('',#382);
#109=VERTEX_POINT('',#386);
#110=VERTEX_POINT('',#388);
#111=VERTEX_POINT('',#396);
#112=VERTEX_POINT('',#398);
#113=VERTEX_POINT('',#401);
#114=VERTEX_POINT('',#405);
#115=EDGE_CURVE('',#95,#96,#79,.T.);
#116=EDGE_CURVE('',#96,#97,#51,.T.);
#117=EDGE_CURVE('',#97,#98,#80,.T.);
#118=EDGE_CURVE('',#98,#95,#52,.T.);
#119=EDGE_CURVE('',#99,#96,#81,.T.);
#120=EDGE_CURVE('',#100,#99,#53,.T.);
#121=EDGE_CURVE('',#97,#100,#82,.T.);
#122=EDGE_CURVE('',#101,#100,#83,.T.);
#123=EDGE_CURVE('',#99,#102,#84,.T.);
#124=EDGE_CURVE('',#102,#101,#54,.T.);
#125=EDGE_CURVE('',#103,#104,#85,.T.);
#126=EDGE_CURVE('',#104,#105,#55,.T.);
#127=EDGE_CURVE('',#105,#106,#86,.T.);
#128=EDGE_CURVE('',#106,#103,#56,.T.);
#129=EDGE_CURVE('',#107,#104,#87,.T.);
#130=EDGE_CURVE('',#108,#107,#57,.T.);
#131=EDGE_CURVE('',#105,#108,#88,.T.);
#132=EDGE_CURVE('',#107,#109,#89,.T.);
#133=EDGE_CURVE('',#109,#110,#58,.T.);
#134=EDGE_CURVE('',#110,#108,#90,.T.);
#135=EDGE_CURVE('',#110,#98,#59,.T.);
#136=EDGE_CURVE('',#95,#109,#60,.T.);
#137=EDGE_CURVE('',#103,#102,#61,.T.);
#138=EDGE_CURVE('',#111,#111,#91,.T.);
#139=EDGE_CURVE('',#112,#112,#92,.T.);
#140=EDGE_CURVE('',#113,#113,#93,.T.);
#141=EDGE_CURVE('',#113,#112,#62,.T.);
#142=EDGE_CURVE('',#114,#114,#94,.T.);
#143=EDGE_CURVE('',#114,#111,#63,.T.);
#144=EDGE_CURVE('',#101,#106,#64,.T.);
#145=ORIENTED_EDGE('',*,*,#115,.T.);
#146=ORIENTED_EDGE('',*,*,#116,.T.);
#147=ORIENTED_EDGE('',*,*,#117,.T.);
#148=ORIENTED_EDGE('',*,*,#118,.T.);
#149=ORIENTED_EDGE('',*,*,#116,.F.);
#150=ORIENTED_EDGE('',*,*,#119,.F.);
#151=ORIENTED_EDGE('',*,*,#120,.F.);
#152=ORIENTED_EDGE('',*,*,#121,.F.);
#153=ORIENTED_EDGE('',*,*,#122,.T.);
#154=ORIENTED_EDGE('',*,*,#120,.T.);
#155=ORIENTED_EDGE('',*,*,#123,.T.);
#156=ORIENTED_EDGE('',*,*,#124,.T.);
#157=ORIENTED_EDGE('',*,*,#125,.T.);
#158=ORIENTED_EDGE('',*,*,#126,.T.);
#159=ORIENTED_EDGE('',*,*,#127,.T.);
#160=ORIENTED_EDGE('',*,*,#128,.T.);
#161=ORIENTED_EDGE('',*,*,#126,.F.);
#162=ORIENTED_EDGE('',*,*,#129,.F.);
#163=ORIENTED_EDGE('',*,*,#130,.F.);
#164=ORIENTED_EDGE('',*,*,#131,.F.);
#165=ORIENTED_EDGE('',*,*,#132,.T.);
#166=ORIENTED_EDGE('',*,*,#133,.T.);
#167=ORIENTED_EDGE('',*,*,#134,.T.);
#168=ORIENTED_EDGE('',*,*,#130,.T.);
#169=ORIENTED_EDGE('',*,*,#118,.F.);
#170=ORIENTED_EDGE('',*,*,#135,.F.);
#171=ORIENTED_EDGE('',*,*,#133,.F.);
#172=ORIENTED_EDGE('',*,*,#136,.F.);
#173=ORIENTED_EDGE('',*,*,#137,.T.);
#174=ORIENTED_EDGE('',*,*,#123,.F.);
#175=ORIENTED_EDGE('',*,*,#119,.T.);
#176=ORIENTED_EDGE('',*,*,#115,.F.);
#177=ORIENTED_EDGE('',*,*,#136,.T.);
#178=ORIENTED_EDGE('',*,*,#132,.F.);
#179=ORIENTED_EDGE('',*,*,#129,.T.);
#180=ORIENTED_EDGE('',*,*,#125,.F.);
#181=ORIENTED_EDGE('',*,*,#138,.T.);
#182=ORIENTED_EDGE('',*,*,#139,.T.);
#183=ORIENTED_EDGE('',*,*,#140,.F.);
#184=ORIENTED_EDGE('',*,*,#141,.T.);
#185=ORIENTED_EDGE('',*,*,#139,.F.);
#186=ORIENTED_EDGE('',*,*,#141,.F.);
#187=ORIENTED_EDGE('',*,*,#142,.F.);
#188=ORIENTED_EDGE('',*,*,#143,.T.);
#189=ORIENTED_EDGE('',*,*,#138,.F.);
#190=ORIENTED_EDGE('',*,*,#143,.F.);
#191=ORIENTED_EDGE('',*,*,#124,.F.);
#192=ORIENTED_EDGE('',*,*,#137,.F.);
#193=ORIENTED_EDGE('',*,*,#128,.F.);
#194=ORIENTED_EDGE('',*,*,#144,.F.);
#195=ORIENTED_EDGE('',*,*,#144,.T.);
#196=ORIENTED_EDGE('',*,*,#127,.F.);
#197=ORIENTED_EDGE('',*,*,#131,.T.);
#198=ORIENTED_EDGE('',*,*,#134,.F.);
#199=ORIENTED_EDGE('',*,*,#135,.T.);
#200=ORIENTED_EDGE('',*,*,#117,.F.);
#201=ORIENTED_EDGE('',*,*,#121,.T.);
#202=ORIENTED_EDGE('',*,*,#122,.F.);
#203=ORIENTED_EDGE('',*,*,#142,.T.);
#204=ORIENTED_EDGE('',*,*,#140,.T.);
#205=CYLINDRICAL_SURFACE('',#248,10.);
#206=CYLINDRICAL_SURFACE('',#251,6.);
#207=CYLINDRICAL_SURFACE('',#254,10.);
#208=CYLINDRICAL_SURFACE('',#257,10.);
#209=CYLINDRICAL_SURFACE('',#260,6.);
#210=CYLINDRICAL_SURFACE('',#263,10.);
#211=CYLINDRICAL_SURFACE('',#270,1.9);
#212=CYLINDRICAL_SURFACE('',#272,1.9);
#213=ADVANCED_FACE('',(#23),#205,.F.);
#214=ADVANCED_FACE('',(#24),#206,.T.);
#215=ADVANCED_FACE('',(#25),#207,.F.);
#216=ADVANCED_FACE('',(#26),#208,.F.);
#217=ADVANCED_FACE('',(#27),#209,.T.);
#218=ADVANCED_FACE('',(#28),#210,.F.);
#219=ADVANCED_FACE('',(#29),#19,.T.);
#220=ADVANCED_FACE('',(#30,#15,#16),#20,.F.);
#221=ADVANCED_FACE('',(#31),#211,.F.);
#222=ADVANCED_FACE('',(#32),#212,.F.);
#223=ADVANCED_FACE('',(#33),#21,.T.);
#224=ADVANCED_FACE('',(#34,#17,#18),#22,.T.);
#225=CLOSED_SHELL('',(#213,#214,#215,#216,#217,#218,#219,#220,#221,#222,
#223,#224));
#226=DERIVED_UNIT_ELEMENT(#229,1.);
#227=DERIVED_UNIT_ELEMENT(#416,-3.);
#228=DIMENSIONAL_EXPONENTS(0.,1.,0.,0.,0.,0.,0.);
#229=(
CONVERSION_BASED_UNIT('gram',#231)
MASS_UNIT()
NAMED_UNIT(#228)
);
#230=(
MASS_UNIT()
NAMED_UNIT(*)
SI_UNIT(.KILO.,.GRAM.)
);
#231=MASS_MEASURE_WITH_UNIT(MASS_MEASURE(0.001),#230);
#232=DERIVED_UNIT((#226,#227));
#233=MEASURE_REPRESENTATION_ITEM('density measure',
POSITIVE_RATIO_MEASURE(1.),#232);
#234=PROPERTY_DEFINITION_REPRESENTATION(#239,#236);
#235=PROPERTY_DEFINITION_REPRESENTATION(#240,#237);
#236=REPRESENTATION('material name',(#238),#413);
#237=REPRESENTATION('density',(#233),#413);
#238=DESCRIPTIVE_REPRESENTATION_ITEM('\X2\04220438043F043E0432044B0435\X0\',
'\X2\04220438043F043E0432044B0435\X0\');
#239=PROPERTY_DEFINITION('material property','material name',#423);
#240=PROPERTY_DEFINITION('material property','density of part',#423);
#241=DATE_TIME_ROLE('creation_date');
#242=APPLIED_DATE_AND_TIME_ASSIGNMENT(#243,#241,(#423));
#243=DATE_AND_TIME(#244,#245);
#244=CALENDAR_DATE(2024,6,2);
#245=LOCAL_TIME(0,0,0.,#246);
#246=COORDINATED_UNIVERSAL_TIME_OFFSET(0,0,.BEHIND.);
#247=AXIS2_PLACEMENT_3D('',#348,#276,#277);
#248=AXIS2_PLACEMENT_3D('',#349,#278,#279);
#249=AXIS2_PLACEMENT_3D('',#352,#280,#281);
#250=AXIS2_PLACEMENT_3D('',#356,#283,#284);
#251=AXIS2_PLACEMENT_3D('',#358,#286,#287);
#252=AXIS2_PLACEMENT_3D('',#360,#288,#289);
#253=AXIS2_PLACEMENT_3D('',#363,#291,#292);
#254=AXIS2_PLACEMENT_3D('',#364,#293,#294);
#255=AXIS2_PLACEMENT_3D('',#366,#295,#296);
#256=AXIS2_PLACEMENT_3D('',#368,#297,#298);
#257=AXIS2_PLACEMENT_3D('',#370,#300,#301);
#258=AXIS2_PLACEMENT_3D('',#373,#302,#303);
#259=AXIS2_PLACEMENT_3D('',#377,#305,#306);
#260=AXIS2_PLACEMENT_3D('',#379,#308,#309);
#261=AXIS2_PLACEMENT_3D('',#381,#310,#311);
#262=AXIS2_PLACEMENT_3D('',#384,#313,#314);
#263=AXIS2_PLACEMENT_3D('',#385,#315,#316);
#264=AXIS2_PLACEMENT_3D('',#387,#317,#318);
#265=AXIS2_PLACEMENT_3D('',#390,#320,#321);
#266=AXIS2_PLACEMENT_3D('',#391,#322,#323);
#267=AXIS2_PLACEMENT_3D('',#394,#326,#327);
#268=AXIS2_PLACEMENT_3D('',#397,#329,#330);
#269=AXIS2_PLACEMENT_3D('',#399,#331,#332);
#270=AXIS2_PLACEMENT_3D('',#400,#333,#334);
#271=AXIS2_PLACEMENT_3D('',#402,#335,#336);
#272=AXIS2_PLACEMENT_3D('',#404,#338,#339);
#273=AXIS2_PLACEMENT_3D('',#406,#340,#341);
#274=AXIS2_PLACEMENT_3D('',#408,#343,#344);
#275=AXIS2_PLACEMENT_3D('',#410,#346,#347);
#276=DIRECTION('axis',(0.,0.,1.));
#277=DIRECTION('refdir',(1.,0.,0.));
#278=DIRECTION('center_axis',(0.,1.,0.));
#279=DIRECTION('ref_axis',(0.306186217847898,0.,-0.951971638232988));
#280=DIRECTION('center_axis',(0.,-1.,0.));
#281=DIRECTION('ref_axis',(0.306186217847898,0.,-0.951971638232988));
#282=DIRECTION('',(0.,1.,0.));
#283=DIRECTION('center_axis',(0.,1.,0.));
#284=DIRECTION('ref_axis',(0.306186217847898,0.,-0.951971638232988));
#285=DIRECTION('',(0.,-1.,0.));
#286=DIRECTION('center_axis',(0.,1.,0.));
#287=DIRECTION('ref_axis',(1.,0.,9.25185853854297E-16));
#288=DIRECTION('center_axis',(0.,-1.,0.));
#289=DIRECTION('ref_axis',(-0.86602540378444,0.,0.499999999999998));
#290=DIRECTION('',(0.,-1.,0.));
#291=DIRECTION('center_axis',(0.,1.,0.));
#292=DIRECTION('ref_axis',(-0.86602540378444,0.,0.499999999999998));
#293=DIRECTION('center_axis',(0.,-1.,0.));
#294=DIRECTION('ref_axis',(0.306186217847898,0.,0.951971638232988));
#295=DIRECTION('center_axis',(0.,1.,0.));
#296=DIRECTION('ref_axis',(0.306186217847898,0.,0.951971638232988));
#297=DIRECTION('center_axis',(0.,-1.,0.));
#298=DIRECTION('ref_axis',(0.306186217847898,0.,0.951971638232988));
#299=DIRECTION('',(0.,1.,0.));
#300=DIRECTION('center_axis',(0.,1.,0.));
#301=DIRECTION('ref_axis',(-0.306186217847897,0.,0.951971638232989));
#302=DIRECTION('center_axis',(0.,-1.,0.));
#303=DIRECTION('ref_axis',(-0.306186217847897,0.,0.951971638232989));
#304=DIRECTION('',(0.,1.,0.));
#305=DIRECTION('center_axis',(0.,1.,0.));
#306=DIRECTION('ref_axis',(-0.306186217847897,0.,0.951971638232989));
#307=DIRECTION('',(0.,-1.,0.));
#308=DIRECTION('center_axis',(0.,1.,0.));
#309=DIRECTION('ref_axis',(-1.,0.,5.55111512312578E-16));
#310=DIRECTION('center_axis',(0.,-1.,0.));
#311=DIRECTION('ref_axis',(0.866025403784439,0.,-0.5));
#312=DIRECTION('',(0.,-1.,0.));
#313=DIRECTION('center_axis',(0.,1.,0.));
#314=DIRECTION('ref_axis',(0.866025403784439,0.,-0.5));
#315=DIRECTION('center_axis',(0.,1.,0.));
#316=DIRECTION('ref_axis',(-0.306186217847898,0.,-0.951971638232988));
#317=DIRECTION('center_axis',(0.,-1.,0.));
#318=DIRECTION('ref_axis',(-0.306186217847898,0.,-0.951971638232988));
#319=DIRECTION('',(0.,1.,0.));
#320=DIRECTION('center_axis',(0.,1.,0.));
#321=DIRECTION('ref_axis',(-0.306186217847898,0.,-0.951971638232988));
#322=DIRECTION('center_axis',(4.41372996530533E-16,0.,1.));
#323=DIRECTION('ref_axis',(1.,0.,-4.41372996530533E-16));
#324=DIRECTION('',(1.,0.,-4.41372996530533E-16));
#325=DIRECTION('',(-1.,0.,4.41372996530533E-16));
#326=DIRECTION('center_axis',(0.,1.,0.));
#327=DIRECTION('ref_axis',(0.,0.,1.));
#328=DIRECTION('',(1.,0.,-4.41372996530533E-16));
#329=DIRECTION('center_axis',(0.,1.,0.));
#330=DIRECTION('ref_axis',(1.,0.,0.));
#331=DIRECTION('center_axis',(0.,1.,0.));
#332=DIRECTION('ref_axis',(1.,0.,0.));
#333=DIRECTION('center_axis',(0.,1.,0.));
#334=DIRECTION('ref_axis',(1.,0.,0.));
#335=DIRECTION('center_axis',(0.,-1.,0.));
#336=DIRECTION('ref_axis',(1.,0.,0.));
#337=DIRECTION('',(0.,-1.,0.));
#338=DIRECTION('center_axis',(0.,1.,0.));
#339=DIRECTION('ref_axis',(1.,0.,0.));
#340=DIRECTION('center_axis',(0.,-1.,0.));
#341=DIRECTION('ref_axis',(1.,0.,0.));
#342=DIRECTION('',(0.,-1.,0.));
#343=DIRECTION('center_axis',(-4.41372996530533E-16,0.,-1.));
#344=DIRECTION('ref_axis',(-1.,0.,4.41372996530533E-16));
#345=DIRECTION('',(-1.,0.,4.41372996530533E-16));
#346=DIRECTION('center_axis',(0.,1.,0.));
#347=DIRECTION('ref_axis',(0.,0.,1.));
#348=CARTESIAN_POINT('',(0.,0.,0.));
#349=CARTESIAN_POINT('Origin',(4.67262094691117,0.,13.));
#350=CARTESIAN_POINT('',(4.67262094691117,-1.5,2.99999999999999));
#351=CARTESIAN_POINT('',(10.5022328550917,-1.5,4.875));
#352=CARTESIAN_POINT('Origin',(4.67262094691117,-1.5,13.));
#353=CARTESIAN_POINT('',(10.5022328550917,1.5,4.875));
#354=CARTESIAN_POINT('',(10.5022328550917,0.,4.875));
#355=CARTESIAN_POINT('',(4.67262094691117,1.5,2.99999999999999));
#356=CARTESIAN_POINT('Origin',(4.67262094691117,1.5,13.));
#357=CARTESIAN_POINT('',(4.67262094691117,0.,2.99999999999999));
#358=CARTESIAN_POINT('Origin',(14.,0.,4.75401085470752E-16));
#359=CARTESIAN_POINT('',(10.5022328550917,-1.5,-4.875));
#360=CARTESIAN_POINT('Origin',(14.,-1.5,4.75401085470752E-16));
#361=CARTESIAN_POINT('',(10.5022328550917,1.5,-4.875));
#362=CARTESIAN_POINT('',(10.5022328550917,0.,-4.875));
#363=CARTESIAN_POINT('Origin',(14.,1.5,4.75401085470752E-16));
#364=CARTESIAN_POINT('Origin',(4.67262094691119,0.,-13.));
#365=CARTESIAN_POINT('',(4.67262094691119,1.5,-3.));
#366=CARTESIAN_POINT('Origin',(4.67262094691119,1.5,-13.));
#367=CARTESIAN_POINT('',(4.67262094691119,-1.5,-3.));
#368=CARTESIAN_POINT('Origin',(4.67262094691119,-1.5,-13.));
#369=CARTESIAN_POINT('',(4.67262094691119,0.,-3.));
#370=CARTESIAN_POINT('Origin',(-4.67262094691119,0.,-13.));
#371=CARTESIAN_POINT('',(-4.67262094691118,-1.5,-3.));
#372=CARTESIAN_POINT('',(-10.5022328550917,-1.5,-4.875));
#373=CARTESIAN_POINT('Origin',(-4.67262094691119,-1.5,-13.));
#374=CARTESIAN_POINT('',(-10.5022328550917,1.5,-4.875));
#375=CARTESIAN_POINT('',(-10.5022328550917,0.,-4.875));
#376=CARTESIAN_POINT('',(-4.67262094691118,1.5,-3.));
#377=CARTESIAN_POINT('Origin',(-4.67262094691119,1.5,-13.));
#378=CARTESIAN_POINT('',(-4.67262094691118,0.,-3.));
#379=CARTESIAN_POINT('Origin',(-14.,0.,3.52793255444893E-15));
#380=CARTESIAN_POINT('',(-10.5022328550917,-1.5,4.875));
#381=CARTESIAN_POINT('Origin',(-14.,-1.5,3.52793255444893E-15));
#382=CARTESIAN_POINT('',(-10.5022328550917,1.5,4.875));
#383=CARTESIAN_POINT('',(-10.5022328550917,0.,4.875));
#384=CARTESIAN_POINT('Origin',(-14.,1.5,3.52793255444893E-15));
#385=CARTESIAN_POINT('Origin',(-4.67262094691117,0.,13.));
#386=CARTESIAN_POINT('',(-4.67262094691118,-1.5,2.99999999999999));
#387=CARTESIAN_POINT('Origin',(-4.67262094691117,-1.5,13.));
#388=CARTESIAN_POINT('',(-4.67262094691118,1.5,2.99999999999999));
#389=CARTESIAN_POINT('',(-4.67262094691118,0.,2.99999999999999));
#390=CARTESIAN_POINT('Origin',(-4.67262094691117,1.5,13.));
#391=CARTESIAN_POINT('Origin',(-8.80384757729337,0.,3.));
#392=CARTESIAN_POINT('',(-8.80384757729337,1.5,3.));
#393=CARTESIAN_POINT('',(-8.80384757729337,-1.5,3.));
#394=CARTESIAN_POINT('Origin',(0.,-1.5,2.22044604925031E-15));
#395=CARTESIAN_POINT('',(8.80384757729337,-1.5,-3.));
#396=CARTESIAN_POINT('',(-15.9,-1.5,3.88578058618805E-15));
#397=CARTESIAN_POINT('Origin',(-14.,-1.5,3.52793255444893E-15));
#398=CARTESIAN_POINT('',(12.1,-1.5,5.55111512312578E-16));
#399=CARTESIAN_POINT('Origin',(14.,-1.5,4.75401085470752E-16));
#400=CARTESIAN_POINT('Origin',(14.,0.,4.75401085470752E-16));
#401=CARTESIAN_POINT('',(12.1,1.5,5.55111512312578E-16));
#402=CARTESIAN_POINT('Origin',(14.,1.5,4.75401085470752E-16));
#403=CARTESIAN_POINT('',(12.1,0.,7.08083977308749E-16));
#404=CARTESIAN_POINT('Origin',(-14.,0.,3.52793255444893E-15));
#405=CARTESIAN_POINT('',(-15.9,1.5,3.88578058618805E-15));
#406=CARTESIAN_POINT('Origin',(-14.,1.5,3.52793255444893E-15));
#407=CARTESIAN_POINT('',(-15.9,0.,3.76061544628692E-15));
#408=CARTESIAN_POINT('Origin',(8.80384757729337,0.,-3.));
#409=CARTESIAN_POINT('',(8.80384757729337,1.5,-3.));
#410=CARTESIAN_POINT('Origin',(0.,1.5,2.22044604925031E-15));
#411=UNCERTAINTY_MEASURE_WITH_UNIT(LENGTH_MEASURE(0.01),#415,
'DISTANCE_ACCURACY_VALUE',
'Maximum model space distance between geometric entities at asserted c
onnectivities');
#412=UNCERTAINTY_MEASURE_WITH_UNIT(LENGTH_MEASURE(0.01),#415,
'DISTANCE_ACCURACY_VALUE',
'Maximum model space distance between geometric entities at asserted c
onnectivities');
#413=(
GEOMETRIC_REPRESENTATION_CONTEXT(3)
GLOBAL_UNCERTAINTY_ASSIGNED_CONTEXT((#411))
GLOBAL_UNIT_ASSIGNED_CONTEXT((#415,#417,#418))
REPRESENTATION_CONTEXT('','3D')
);
#414=(
GEOMETRIC_REPRESENTATION_CONTEXT(3)
GLOBAL_UNCERTAINTY_ASSIGNED_CONTEXT((#412))
GLOBAL_UNIT_ASSIGNED_CONTEXT((#415,#417,#418))
REPRESENTATION_CONTEXT('','3D')
);
#415=(
LENGTH_UNIT()
NAMED_UNIT(*)
SI_UNIT(.MILLI.,.METRE.)
);
#416=(
LENGTH_UNIT()
NAMED_UNIT(*)
SI_UNIT(.CENTI.,.METRE.)
);
#417=(
NAMED_UNIT(*)
PLANE_ANGLE_UNIT()
SI_UNIT($,.RADIAN.)
);
#418=(
NAMED_UNIT(*)
SI_UNIT($,.STERADIAN.)
SOLID_ANGLE_UNIT()
);
#419=SHAPE_DEFINITION_REPRESENTATION(#420,#421);
#420=PRODUCT_DEFINITION_SHAPE('',$,#423);
#421=SHAPE_REPRESENTATION('',(#247),#413);
#422=PRODUCT_DEFINITION_CONTEXT('part definition',#427,'design');
#423=PRODUCT_DEFINITION('\X2\0420044B044704300433\X0\',
'\X2\0428043004420443043D\X0\ \X2\043E0442\X0\ \X2\0441043504400432044B\X0\ 
\X2\043A\X0\ \X2\043A0440044B043B0443\X0\',#424,#422);
#424=PRODUCT_DEFINITION_FORMATION('',$,#429);
#425=PRODUCT_RELATED_PRODUCT_CATEGORY(
'\X2\0428043004420443043D\X0\ \X2\043E0442\X0\ \X2\0441043504400432044B\X0\ 
\X2\043A\X0\ \X2\043A0440044B043B0443\X0\',
'\X2\0428043004420443043D\X0\ \X2\043E0442\X0\ \X2\0441043504400432044B\X0\ 
\X2\043A\X0\ \X2\043A0440044B043B0443\X0\',(#429));
#426=APPLICATION_PROTOCOL_DEFINITION('international standard',
'automotive_design',2009,#427);
#427=APPLICATION_CONTEXT(
'Core Data for Automotive Mechanical Design Process');
#428=PRODUCT_CONTEXT('part definition',#427,'mechanical');
#429=PRODUCT('\X2\0420044B044704300433\X0\',
'\X2\0428043004420443043D\X0\ \X2\043E0442\X0\ \X2\0441043504400432044B\X0\ 
\X2\043A\X0\ \X2\043A0440044B043B0443\X0\',$,(#428));
#430=PRESENTATION_STYLE_ASSIGNMENT((#431));
#431=SURFACE_STYLE_USAGE(.BOTH.,#434);
#432=SURFACE_STYLE_RENDERING_WITH_PROPERTIES($,#438,(#433));
#433=SURFACE_STYLE_TRANSPARENT(0.);
#434=SURFACE_SIDE_STYLE('',(#435,#432));
#435=SURFACE_STYLE_FILL_AREA(#436);
#436=FILL_AREA_STYLE('',(#437));
#437=FILL_AREA_STYLE_COLOUR('',#438);
#438=COLOUR_RGB('',0.749019607843137,0.749019607843137,0.749019607843137);
ENDSEC;
END-ISO-10303-21;
